<svg xmlns="http://www.w3.org/2000/svg" width="560.000" height="360.000" viewBox="0 0 560.000 360.000">
<rect x="0" y="0" width="560.000" height="360.000" fill="#f7f7f2" />
<g fill="none" stroke="#2a2a2a" stroke-width="1.2">
<path d="M 0.000 0.000 L 560.000 0.000 L 560.000 360.000 L 0.000 360.000 L 0.000 0.000 Z" stroke="#1f5f8b" />
</g>
<g fill="#86b8e7" fill-opacity="0.58" stroke="#163b5c" stroke-width="0.8">
<g id="part-0">
<path d="M 44.000 8.000 L 164.000 8.000 L 164.000 218.000 L 44.000 218.000 L 44.000 8.000 Z" />
<path d="M 84.800 45.800 L 84.800 92.000 L 137.600 92.000 L 137.600 45.800 L 84.800 45.800 Z" fill="#f7f7f2" fill-opacity="1" stroke="#163b5c" />
<path d="M 84.800 134.000 L 84.800 180.200 L 137.600 180.200 L 137.600 134.000 L 84.800 134.000 Z" fill="#f7f7f2" fill-opacity="1" stroke="#163b5c" />
</g>
<g id="part-1">
<path d="M 152.812 221.000 L 166.812 221.000 L 166.812 236.000 L 152.812 236.000 L 152.812 221.000 Z" />
</g>
<g id="part-2">
<path d="M 64.812 221.000 L 79.812 221.000 L 79.812 237.000 L 64.812 237.000 L 64.812 221.000 Z" />
</g>
<g id="part-3">
<path d="M 114.812 237.000 L 114.812 221.000 L 100.812 221.000 L 100.812 237.000 L 114.812 237.000 Z" />
</g>
<g id="part-4">
<path d="M 201.000 202.625 L 201.000 219.625 L 186.000 219.625 L 186.000 202.625 L 201.000 202.625 Z" />
</g>
<g id="part-5">
<path d="M 117.812 221.000 L 131.812 221.000 L 131.812 237.000 L 117.812 237.000 L 117.812 221.000 Z" />
</g>
<g id="part-6">
<path d="M 183.812 221.844 L 183.812 236.844 L 169.812 236.844 L 169.812 221.844 L 183.812 221.844 Z" />
</g>
<g id="part-7">
<path d="M 97.813 221.000 L 97.813 237.000 L 82.813 237.000 L 82.813 221.000 L 97.813 221.000 Z" />
</g>
<g id="part-8">
<path d="M 183.000 200.938 L 183.000 217.938 L 167.000 217.938 L 167.000 200.938 L 183.000 200.938 Z" />
</g>
<g id="part-9">
<path d="M 186.812 222.688 L 200.812 222.688 L 200.812 236.688 L 186.812 236.688 L 186.812 222.688 Z" />
</g>
<g id="part-10">
<path d="M 134.812 221.000 L 149.812 221.000 L 149.812 236.000 L 134.812 236.000 L 134.812 221.000 Z" />
</g>
<g id="part-11">
<path d="M 185.000 24.000 L 185.000 8.000 L 201.000 8.000 L 201.000 24.000 L 185.000 24.000 Z" />
</g>
<g id="part-12">
<path d="M 182.000 8.000 L 182.000 25.000 L 168.000 25.000 L 168.000 8.000 L 182.000 8.000 Z" />
</g>
</g>
<text x="10" y="20" font-size="14" fill="#222">b_shape_hole_usage / Fast</text>
</svg>
