<svg xmlns="http://www.w3.org/2000/svg" width="560.000" height="360.000" viewBox="0 0 560.000 360.000">
<rect x="0" y="0" width="560.000" height="360.000" fill="#f7f7f2" />
<g fill="none" stroke="#2a2a2a" stroke-width="1.2">
<path d="M 0.000 0.000 L 560.000 0.000 L 560.000 360.000 L 0.000 360.000 L 0.000 0.000 Z" stroke="#1f5f8b" />
</g>
<g fill="#86b8e7" fill-opacity="0.58" stroke="#163b5c" stroke-width="0.8">
<g id="part-0">
<path d="M 26.000 8.000 L 146.000 8.000 L 146.000 218.000 L 26.000 218.000 L 26.000 8.000 Z" />
<path d="M 66.800 45.800 L 66.800 92.000 L 119.600 92.000 L 119.600 45.800 L 66.800 45.800 Z" fill="#f7f7f2" fill-opacity="1" stroke="#163b5c" />
<path d="M 66.800 134.000 L 66.800 180.200 L 119.600 180.200 L 119.600 134.000 L 66.800 134.000 Z" fill="#f7f7f2" fill-opacity="1" stroke="#163b5c" />
</g>
<g id="part-1">
<path d="M 133.844 221.000 L 147.844 221.000 L 147.844 236.000 L 133.844 236.000 L 133.844 221.000 Z" />
</g>
<g id="part-2">
<path d="M 45.844 221.000 L 60.844 221.000 L 60.844 237.000 L 45.844 237.000 L 45.844 221.000 Z" />
</g>
<g id="part-3">
<path d="M 95.844 237.000 L 95.844 221.000 L 81.844 221.000 L 81.844 237.000 L 95.844 237.000 Z" />
</g>
<g id="part-4">
<path d="M 181.875 8.000 L 181.875 25.000 L 166.875 25.000 L 166.875 8.000 L 181.875 8.000 Z" />
</g>
<g id="part-5">
<path d="M 98.844 221.000 L 112.844 221.000 L 112.844 237.000 L 98.844 237.000 L 98.844 221.000 Z" />
</g>
<g id="part-6">
<path d="M 164.844 47.469 L 164.844 62.469 L 150.844 62.469 L 150.844 47.469 L 164.844 47.469 Z" />
</g>
<g id="part-7">
<path d="M 78.844 221.000 L 78.844 237.000 L 63.844 237.000 L 63.844 221.000 L 78.844 221.000 Z" />
</g>
<g id="part-8">
<path d="M 165.000 27.406 L 165.000 44.406 L 149.000 44.406 L 149.000 27.406 L 165.000 27.406 Z" />
</g>
<g id="part-9">
<path d="M 167.844 48.312 L 181.844 48.312 L 181.844 62.312 L 167.844 62.312 L 167.844 48.312 Z" />
</g>
<g id="part-10">
<path d="M 115.844 221.000 L 130.844 221.000 L 130.844 236.000 L 115.844 236.000 L 115.844 221.000 Z" />
</g>
<g id="part-11">
<path d="M 26.844 237.000 L 26.844 221.000 L 42.844 221.000 L 42.844 237.000 L 26.844 237.000 Z" />
</g>
<g id="part-12">
<path d="M 182.000 28.250 L 182.000 45.250 L 168.000 45.250 L 168.000 28.250 L 182.000 28.250 Z" />
</g>
</g>
<text x="10" y="20" font-size="14" fill="#222">b_shape_hole_usage / Balanced</text>
</svg>
