<svg xmlns="http://www.w3.org/2000/svg" width="560.000" height="360.000" viewBox="0 0 560.000 360.000">
<rect x="0" y="0" width="560.000" height="360.000" fill="#f7f7f2" />
<g fill="none" stroke="#2a2a2a" stroke-width="1.2">
<path d="M 0.000 0.000 L 560.000 0.000 L 560.000 360.000 L 0.000 360.000 L 0.000 0.000 Z" stroke="#1f5f8b" />
</g>
<g fill="#86b8e7" fill-opacity="0.58" stroke="#163b5c" stroke-width="0.8">
<g id="part-0">
<path d="M 220.000 75.000 L 340.000 75.000 L 340.000 285.000 L 220.000 285.000 L 220.000 75.000 Z" />
<path d="M 260.800 112.800 L 260.800 159.000 L 313.600 159.000 L 313.600 112.800 L 260.800 112.800 Z" fill="#f7f7f2" fill-opacity="1" stroke="#163b5c" />
<path d="M 260.800 201.000 L 260.800 247.200 L 313.600 247.200 L 313.600 201.000 L 260.800 201.000 Z" fill="#f7f7f2" fill-opacity="1" stroke="#163b5c" />
</g>
<g id="part-1">
<path d="M 265.664 115.890 L 279.664 115.890 L 279.664 130.890 L 265.664 130.890 L 265.664 115.890 Z" />
</g>
<g id="part-2">
<path d="M 270.638 212.270 L 285.638 212.270 L 285.638 228.270 L 270.638 228.270 L 270.638 212.270 Z" />
</g>
<g id="part-3">
<path d="M 288.638 212.270 L 304.638 212.270 L 304.638 226.270 L 288.638 226.270 L 288.638 212.270 Z" />
</g>
<g id="part-4">
<path d="M 297.664 115.890 L 297.664 132.890 L 282.664 132.890 L 282.664 115.890 L 297.664 115.890 Z" />
</g>
<g id="part-5">
<path d="M 302.729 141.042 L 302.729 155.042 L 286.729 155.042 L 286.729 141.042 L 302.729 141.042 Z" />
</g>
<g id="part-6">
<path d="M 269.000 288.000 L 269.000 303.000 L 255.000 303.000 L 255.000 288.000 L 269.000 288.000 Z" />
</g>
<g id="part-7">
<path d="M 272.000 288.000 L 288.000 288.000 L 288.000 303.000 L 272.000 303.000 L 272.000 288.000 Z" />
</g>
<g id="part-8">
<path d="M 223.850 287.990 L 240.850 287.990 L 240.850 303.990 L 223.850 303.990 L 223.850 287.990 Z" />
</g>
<g id="part-9">
<path d="M 309.000 288.000 L 323.000 288.000 L 323.000 302.000 L 309.000 302.000 L 309.000 288.000 Z" />
</g>
<g id="part-10">
<path d="M 291.000 288.000 L 306.000 288.000 L 306.000 303.000 L 291.000 303.000 L 291.000 288.000 Z" />
</g>
<g id="part-11">
<path d="M 267.729 139.042 L 283.729 139.042 L 283.729 155.042 L 267.729 155.042 L 267.729 139.042 Z" />
</g>
<g id="part-12">
<path d="M 288.638 229.270 L 305.638 229.270 L 305.638 243.270 L 288.638 243.270 L 288.638 229.270 Z" />
</g>
</g>
<text x="10" y="20" font-size="14" fill="#222">b_shape_hole_usage / Maximum</text>
</svg>
