<svg xmlns="http://www.w3.org/2000/svg" width="560.000" height="360.000" viewBox="0 0 560.000 360.000">
<rect x="0" y="0" width="560.000" height="360.000" fill="#f7f7f2" />
<g fill="none" stroke="#2a2a2a" stroke-width="1.2">
<path d="M 0.000 0.000 L 560.000 0.000 L 560.000 360.000 L 0.000 360.000 L 0.000 0.000 Z" stroke="#1f5f8b" />
</g>
<g fill="#86b8e7" fill-opacity="0.58" stroke="#163b5c" stroke-width="0.8">
<g id="part-0">
<path d="M 8.000 8.000 L 128.000 8.000 L 128.000 218.000 L 8.000 218.000 L 8.000 8.000 Z" />
<path d="M 48.800 45.800 L 48.800 92.000 L 101.600 92.000 L 101.600 45.800 L 48.800 45.800 Z" fill="#f7f7f2" fill-opacity="1" stroke="#163b5c" />
<path d="M 48.800 134.000 L 48.800 180.200 L 101.600 180.200 L 101.600 134.000 L 48.800 134.000 Z" fill="#f7f7f2" fill-opacity="1" stroke="#163b5c" />
</g>
<g id="part-1">
<path d="M 133.000 219.531 L 147.000 219.531 L 147.000 234.531 L 133.000 234.531 L 133.000 219.531 Z" />
</g>
<g id="part-2">
<path d="M 67.700 149.100 L 82.700 149.100 L 82.700 165.100 L 67.700 165.100 L 67.700 149.100 Z" />
</g>
<g id="part-3">
<path d="M 72.000 76.062 L 72.000 60.062 L 58.000 60.062 L 58.000 76.062 L 72.000 76.062 Z" />
</g>
<g id="part-4">
<path d="M 146.000 46.062 L 146.000 63.062 L 131.000 63.062 L 131.000 46.062 L 146.000 46.062 Z" />
</g>
<g id="part-5">
<path d="M 80.500 221.000 L 94.500 221.000 L 94.500 237.000 L 80.500 237.000 L 80.500 221.000 Z" />
</g>
<g id="part-6">
<path d="M 58.000 222.000 L 58.000 237.000 L 44.000 237.000 L 44.000 222.000 L 58.000 222.000 Z" />
</g>
<g id="part-7">
<path d="M 113.000 221.000 L 113.000 237.000 L 98.000 237.000 L 98.000 221.000 L 113.000 221.000 Z" />
</g>
<g id="part-8">
<path d="M 147.000 8.000 L 147.000 25.000 L 131.000 25.000 L 131.000 8.000 L 147.000 8.000 Z" />
</g>
<g id="part-9">
<path d="M 116.000 222.000 L 130.000 222.000 L 130.000 236.000 L 116.000 236.000 L 116.000 222.000 Z" />
</g>
<g id="part-10">
<path d="M 132.000 28.062 L 147.000 28.062 L 147.000 43.062 L 132.000 43.062 L 132.000 28.062 Z" />
</g>
<g id="part-11">
<path d="M 61.000 237.000 L 61.000 221.000 L 77.000 221.000 L 77.000 237.000 L 61.000 237.000 Z" />
</g>
<g id="part-12">
<path d="M 89.000 57.062 L 89.000 74.062 L 75.000 74.062 L 75.000 57.062 L 89.000 57.062 Z" />
</g>
</g>
<text x="10" y="20" font-size="14" fill="#222">b_shape_hole_usage / Maximum</text>
</svg>
