<svg xmlns="http://www.w3.org/2000/svg" width="560.000" height="360.000" viewBox="0 0 560.000 360.000">
<rect x="0" y="0" width="560.000" height="360.000" fill="#f7f7f2" />
<g fill="none" stroke="#2a2a2a" stroke-width="1.2">
<path d="M 0.000 0.000 L 560.000 0.000 L 560.000 360.000 L 0.000 360.000 L 0.000 0.000 Z" stroke="#1f5f8b" />
</g>
<g fill="#86b8e7" fill-opacity="0.58" stroke="#163b5c" stroke-width="0.8">
<g id="part-0">
<path d="M 309.500 30.500 L 309.500 150.500 L 99.500 150.500 L 99.500 30.500 L 309.500 30.500 Z" />
<path d="M 271.700 71.300 L 225.500 71.300 L 225.500 124.100 L 271.700 124.100 L 271.700 71.300 Z" fill="#f7f7f2" fill-opacity="1" stroke="#163b5c" />
<path d="M 183.500 71.300 L 137.300 71.300 L 137.300 124.100 L 183.500 124.100 L 183.500 71.300 Z" fill="#f7f7f2" fill-opacity="1" stroke="#163b5c" />
</g>
<g id="part-1">
<path d="M 292.000 8.000 L 306.000 8.000 L 306.000 23.000 L 292.000 23.000 L 292.000 8.000 Z" />
</g>
<g id="part-2">
<path d="M 187.000 8.000 L 202.000 8.000 L 202.000 24.000 L 187.000 24.000 L 187.000 8.000 Z" />
</g>
<g id="part-3">
<path d="M 237.000 27.500 L 237.000 11.500 L 223.000 11.500 L 223.000 27.500 L 237.000 27.500 Z" />
</g>
<g id="part-4">
<path d="M 184.000 8.000 L 184.000 25.000 L 169.000 25.000 L 169.000 8.000 L 184.000 8.000 Z" />
</g>
<g id="part-5">
<path d="M 275.000 8.000 L 289.000 8.000 L 289.000 24.000 L 275.000 24.000 L 275.000 8.000 Z" />
</g>
<g id="part-6">
<path d="M 167.400 90.200 L 167.400 105.200 L 153.400 105.200 L 153.400 90.200 L 167.400 90.200 Z" />
</g>
<g id="part-7">
<path d="M 220.000 8.000 L 220.000 24.000 L 205.000 24.000 L 205.000 8.000 L 220.000 8.000 Z" />
</g>
<g id="part-8">
<path d="M 147.000 8.000 L 147.000 25.000 L 131.000 25.000 L 131.000 8.000 L 147.000 8.000 Z" />
</g>
<g id="part-9">
<path d="M 258.000 9.000 L 272.000 9.000 L 272.000 23.000 L 258.000 23.000 L 258.000 9.000 Z" />
</g>
<g id="part-10">
<path d="M 240.000 8.000 L 255.000 8.000 L 255.000 23.000 L 240.000 23.000 L 240.000 8.000 Z" />
</g>
<g id="part-11">
<path d="M 150.000 24.000 L 150.000 8.000 L 166.000 8.000 L 166.000 24.000 L 150.000 24.000 Z" />
</g>
<g id="part-12">
<path d="M 255.600 89.200 L 255.600 106.200 L 241.600 106.200 L 241.600 89.200 L 255.600 89.200 Z" />
</g>
</g>
<text x="10" y="20" font-size="14" fill="#222">b_shape_hole_usage / Maximum</text>
</svg>
