<svg xmlns="http://www.w3.org/2000/svg" width="620.000" height="380.000" viewBox="0 0 620.000 380.000">
<rect x="0" y="0" width="620.000" height="380.000" fill="#f7f7f2" />
<g fill="none" stroke="#2a2a2a" stroke-width="1.2">
<path d="M 0.000 0.000 L 620.000 0.000 L 620.000 380.000 L 0.000 380.000 L 0.000 0.000 Z" stroke="#1f5f8b" />
</g>
<g fill="#86b8e7" fill-opacity="0.58" stroke="#163b5c" stroke-width="0.8">
<g id="part-0">
<path d="M 220.000 105.000 L 400.000 105.000 L 400.000 142.400 L 281.200 142.400 L 281.200 237.600 L 400.000 237.600 L 400.000 275.000 L 220.000 275.000 L 220.000 105.000 Z" />
</g>
<g id="part-1">
<path d="M 302.500 167.500 L 317.500 167.500 L 317.500 180.500 L 302.500 180.500 L 302.500 167.500 Z" />
</g>
<g id="part-2">
<path d="M 336.500 157.500 L 336.500 174.500 L 320.500 174.500 L 320.500 157.500 L 336.500 157.500 Z" />
</g>
<g id="part-3">
<path d="M 353.500 215.500 L 353.500 234.500 L 340.500 234.500 L 340.500 215.500 L 353.500 215.500 Z" />
</g>
<g id="part-4">
<path d="M 339.500 196.500 L 354.500 196.500 L 354.500 212.500 L 339.500 212.500 L 339.500 196.500 Z" />
</g>
<g id="part-5">
<path d="M 300.500 151.500 L 317.500 151.500 L 317.500 164.500 L 300.500 164.500 L 300.500 151.500 Z" />
</g>
<g id="part-6">
<path d="M 300.500 199.500 L 319.500 199.500 L 319.500 215.500 L 300.500 215.500 L 300.500 199.500 Z" />
</g>
<g id="part-7">
<path d="M 302.500 183.500 L 317.500 183.500 L 317.500 196.500 L 302.500 196.500 L 302.500 183.500 Z" />
</g>
<g id="part-8">
<path d="M 301.500 218.500 L 318.500 218.500 L 318.500 234.500 L 301.500 234.500 L 301.500 218.500 Z" />
</g>
<g id="part-9">
<path d="M 339.500 180.500 L 358.500 180.500 L 358.500 193.500 L 339.500 193.500 L 339.500 180.500 Z" />
</g>
<g id="part-10">
<path d="M 337.500 219.500 L 337.500 234.500 L 321.500 234.500 L 321.500 219.500 L 337.500 219.500 Z" />
</g>
<g id="part-11">
<path d="M 335.500 199.500 L 335.500 216.500 L 322.500 216.500 L 322.500 199.500 L 335.500 199.500 Z" />
</g>
<g id="part-12">
<path d="M 336.500 177.500 L 336.500 196.500 L 320.500 196.500 L 320.500 177.500 L 336.500 177.500 Z" />
</g>
</g>
<text x="10" y="20" font-size="14" fill="#222">concave_cavity_usage / Maximum</text>
</svg>
