<svg xmlns="http://www.w3.org/2000/svg" width="620.000" height="380.000" viewBox="0 0 620.000 380.000">
<rect x="0" y="0" width="620.000" height="380.000" fill="#f7f7f2" />
<g fill="none" stroke="#2a2a2a" stroke-width="1.2">
<path d="M 0.000 0.000 L 620.000 0.000 L 620.000 380.000 L 0.000 380.000 L 0.000 0.000 Z" stroke="#1f5f8b" />
</g>
<g fill="#86b8e7" fill-opacity="0.58" stroke="#163b5c" stroke-width="0.8">
<g id="part-0">
<path d="M 178.000 8.000 L 178.000 188.000 L 140.600 188.000 L 140.600 69.200 L 45.400 69.200 L 45.400 188.000 L 8.000 188.000 L 8.000 8.000 L 178.000 8.000 Z" />
</g>
<g id="part-1">
<path d="M 39.000 206.000 L 39.000 191.000 L 26.000 191.000 L 26.000 206.000 L 39.000 206.000 Z" />
</g>
<g id="part-2">
<path d="M 267.000 8.000 L 267.000 25.000 L 251.000 25.000 L 251.000 8.000 L 267.000 8.000 Z" />
</g>
<g id="part-3">
<path d="M 232.000 8.000 L 232.000 27.000 L 219.000 27.000 L 219.000 8.000 L 232.000 8.000 Z" />
</g>
<g id="part-4">
<path d="M 321.000 8.000 L 336.000 8.000 L 336.000 24.000 L 321.000 24.000 L 321.000 8.000 Z" />
</g>
<g id="part-5">
<path d="M 302.000 8.000 L 302.000 25.000 L 289.000 25.000 L 289.000 8.000 L 302.000 8.000 Z" />
</g>
<g id="part-6">
<path d="M 197.000 8.000 L 197.000 27.000 L 181.000 27.000 L 181.000 8.000 L 197.000 8.000 Z" />
</g>
<g id="part-7">
<path d="M 55.000 191.000 L 55.000 206.000 L 42.000 206.000 L 42.000 191.000 L 55.000 191.000 Z" />
</g>
<g id="part-8">
<path d="M 286.000 8.000 L 286.000 25.000 L 270.000 25.000 L 270.000 8.000 L 286.000 8.000 Z" />
</g>
<g id="part-9">
<path d="M 248.000 8.000 L 248.000 27.000 L 235.000 27.000 L 235.000 8.000 L 248.000 8.000 Z" />
</g>
<g id="part-10">
<path d="M 8.000 191.000 L 23.000 191.000 L 23.000 207.000 L 8.000 207.000 L 8.000 191.000 Z" />
</g>
<g id="part-11">
<path d="M 318.000 8.000 L 318.000 25.000 L 305.000 25.000 L 305.000 8.000 L 318.000 8.000 Z" />
</g>
<g id="part-12">
<path d="M 216.000 8.000 L 216.000 27.000 L 200.000 27.000 L 200.000 8.000 L 216.000 8.000 Z" />
</g>
</g>
<text x="10" y="20" font-size="14" fill="#222">concave_cavity_usage / Fast</text>
</svg>
