<svg xmlns="http://www.w3.org/2000/svg" width="620.000" height="380.000" viewBox="0 0 620.000 380.000">
<rect x="0" y="0" width="620.000" height="380.000" fill="#f7f7f2" />
<g fill="none" stroke="#2a2a2a" stroke-width="1.2">
<path d="M 0.000 0.000 L 620.000 0.000 L 620.000 380.000 L 0.000 380.000 L 0.000 0.000 Z" stroke="#1f5f8b" />
</g>
<g fill="#86b8e7" fill-opacity="0.58" stroke="#163b5c" stroke-width="0.8">
<g id="part-0">
<path d="M 193.500 30.000 L 373.500 30.000 L 373.500 67.400 L 254.700 67.400 L 254.700 162.600 L 373.500 162.600 L 373.500 200.000 L 193.500 200.000 L 193.500 30.000 Z" />
</g>
<g id="part-1">
<path d="M 370.000 23.000 L 370.000 8.000 L 357.000 8.000 L 357.000 23.000 L 370.000 23.000 Z" />
</g>
<g id="part-2">
<path d="M 235.000 8.000 L 235.000 25.000 L 219.000 25.000 L 219.000 8.000 L 235.000 8.000 Z" />
</g>
<g id="part-3">
<path d="M 270.000 8.000 L 270.000 27.000 L 257.000 27.000 L 257.000 8.000 L 270.000 8.000 Z" />
</g>
<g id="part-4">
<path d="M 289.000 8.000 L 304.000 8.000 L 304.000 24.000 L 289.000 24.000 L 289.000 8.000 Z" />
</g>
<g id="part-5">
<path d="M 338.000 8.000 L 338.000 25.000 L 325.000 25.000 L 325.000 8.000 L 338.000 8.000 Z" />
</g>
<g id="part-6">
<path d="M 322.100 105.500 L 322.100 124.500 L 306.100 124.500 L 306.100 105.500 L 322.100 105.500 Z" />
</g>
<g id="part-7">
<path d="M 331.875 144.500 L 331.875 159.500 L 318.875 159.500 L 318.875 144.500 L 331.875 144.500 Z" />
</g>
<g id="part-8">
<path d="M 254.000 8.000 L 254.000 25.000 L 238.000 25.000 L 238.000 8.000 L 254.000 8.000 Z" />
</g>
<g id="part-9">
<path d="M 286.000 8.000 L 286.000 27.000 L 273.000 27.000 L 273.000 8.000 L 286.000 8.000 Z" />
</g>
<g id="part-10">
<path d="M 307.000 8.000 L 322.000 8.000 L 322.000 24.000 L 307.000 24.000 L 307.000 8.000 Z" />
</g>
<g id="part-11">
<path d="M 354.000 8.000 L 354.000 25.000 L 341.000 25.000 L 341.000 8.000 L 354.000 8.000 Z" />
</g>
<g id="part-12">
<path d="M 216.000 8.000 L 216.000 27.000 L 200.000 27.000 L 200.000 8.000 L 216.000 8.000 Z" />
</g>
</g>
<text x="10" y="20" font-size="14" fill="#222">concave_cavity_usage / Maximum</text>
</svg>
