<svg xmlns="http://www.w3.org/2000/svg" width="620.000" height="380.000" viewBox="0 0 620.000 380.000">
<rect x="0" y="0" width="620.000" height="380.000" fill="#f7f7f2" />
<g fill="none" stroke="#2a2a2a" stroke-width="1.2">
<path d="M 0.000 0.000 L 620.000 0.000 L 620.000 380.000 L 0.000 380.000 L 0.000 0.000 Z" stroke="#1f5f8b" />
</g>
<g fill="#86b8e7" fill-opacity="0.58" stroke="#163b5c" stroke-width="0.8">
<g id="part-0">
<path d="M 178.000 8.000 L 178.000 188.000 L 140.600 188.000 L 140.600 69.200 L 45.400 69.200 L 45.400 188.000 L 8.000 188.000 L 8.000 8.000 L 178.000 8.000 Z" />
</g>
<g id="part-1">
<path d="M 228.000 45.000 L 228.000 30.000 L 215.000 30.000 L 215.000 45.000 L 228.000 45.000 Z" />
</g>
<g id="part-2">
<path d="M 218.250 68.000 L 218.250 85.000 L 202.250 85.000 L 202.250 68.000 L 218.250 68.000 Z" />
</g>
<g id="part-3">
<path d="M 232.000 8.000 L 232.000 27.000 L 219.000 27.000 L 219.000 8.000 L 232.000 8.000 Z" />
</g>
<g id="part-4">
<path d="M 69.633 100.800 L 84.633 100.800 L 84.633 116.800 L 69.633 116.800 L 69.633 100.800 Z" />
</g>
<g id="part-5">
<path d="M 115.367 100.300 L 115.367 117.300 L 102.367 117.300 L 102.367 100.300 L 115.367 100.300 Z" />
</g>
<g id="part-6">
<path d="M 197.000 8.000 L 197.000 27.000 L 181.000 27.000 L 181.000 8.000 L 197.000 8.000 Z" />
</g>
<g id="part-7">
<path d="M 212.000 38.000 L 212.000 53.000 L 199.000 53.000 L 199.000 38.000 L 212.000 38.000 Z" />
</g>
<g id="part-8">
<path d="M 218.250 88.000 L 218.250 105.000 L 202.250 105.000 L 202.250 88.000 L 218.250 88.000 Z" />
</g>
<g id="part-9">
<path d="M 201.000 128.000 L 201.000 147.000 L 188.000 147.000 L 188.000 128.000 L 201.000 128.000 Z" />
</g>
<g id="part-10">
<path d="M 181.000 38.000 L 196.000 38.000 L 196.000 54.000 L 181.000 54.000 L 181.000 38.000 Z" />
</g>
<g id="part-11">
<path d="M 217.000 128.000 L 217.000 145.000 L 204.000 145.000 L 204.000 128.000 L 217.000 128.000 Z" />
</g>
<g id="part-12">
<path d="M 216.000 8.000 L 216.000 27.000 L 200.000 27.000 L 200.000 8.000 L 216.000 8.000 Z" />
</g>
</g>
<text x="10" y="20" font-size="14" fill="#222">concave_cavity_usage / Maximum</text>
</svg>
