<svg xmlns="http://www.w3.org/2000/svg" width="520.000" height="320.000" viewBox="0 0 520.000 320.000">
<rect x="0" y="0" width="520.000" height="320.000" fill="#f7f7f2" />
<g fill="none" stroke="#2a2a2a" stroke-width="1.2">
<path d="M 0.000 0.000 L 520.000 0.000 L 520.000 320.000 L 0.000 320.000 L 0.000 0.000 Z" stroke="#1f5f8b" />
</g>
<g fill="#86b8e7" fill-opacity="0.58" stroke="#163b5c" stroke-width="0.8">
<g id="part-0">
<path d="M 25.000 8.000 L 175.000 8.000 L 175.000 158.000 L 25.000 158.000 L 25.000 8.000 Z" />
<path d="M 73.000 56.000 L 73.000 110.000 L 127.000 110.000 L 127.000 56.000 L 73.000 56.000 Z" fill="#f7f7f2" fill-opacity="1" stroke="#163b5c" />
</g>
<g id="part-1">
<path d="M 84.000 161.000 L 98.000 161.000 L 98.000 175.000 L 84.000 175.000 L 84.000 161.000 Z" />
</g>
<g id="part-2">
<path d="M 101.000 161.000 L 117.000 161.000 L 117.000 178.000 L 101.000 178.000 L 101.000 161.000 Z" />
</g>
<g id="part-3">
<path d="M 98.500 84.500 L 98.500 102.500 L 84.500 102.500 L 84.500 84.500 L 98.500 84.500 Z" />
</g>
<g id="part-4">
<path d="M 47.000 161.500 L 61.000 161.500 L 61.000 178.500 L 47.000 178.500 L 47.000 161.500 Z" />
</g>
<g id="part-5">
<path d="M 153.000 161.500 L 153.000 177.500 L 139.000 177.500 L 139.000 161.500 L 153.000 161.500 Z" />
</g>
<g id="part-6">
<path d="M 81.000 161.000 L 81.000 179.000 L 64.000 179.000 L 64.000 161.000 L 81.000 161.000 Z" />
</g>
<g id="part-7">
<path d="M 30.000 162.500 L 44.000 162.500 L 44.000 176.500 L 30.000 176.500 L 30.000 162.500 Z" />
</g>
<g id="part-8">
<path d="M 120.000 161.000 L 136.000 161.000 L 136.000 178.000 L 120.000 178.000 L 120.000 161.000 Z" />
</g>
<g id="part-9">
<path d="M 101.500 100.500 L 101.500 82.500 L 115.500 82.500 L 115.500 100.500 L 101.500 100.500 Z" />
</g>
<g id="part-10">
<path d="M 156.000 161.500 L 170.000 161.500 L 170.000 178.500 L 156.000 178.500 L 156.000 161.500 Z" />
</g>
</g>
<text x="10" y="20" font-size="14" fill="#222">donut_hole_usage / Maximum</text>
</svg>
