<svg xmlns="http://www.w3.org/2000/svg" width="520.000" height="320.000" viewBox="0 0 520.000 320.000">
<rect x="0" y="0" width="520.000" height="320.000" fill="#f7f7f2" />
<g fill="none" stroke="#2a2a2a" stroke-width="1.2">
<path d="M 0.000 0.000 L 520.000 0.000 L 520.000 320.000 L 0.000 320.000 L 0.000 0.000 Z" stroke="#1f5f8b" />
</g>
<g fill="#86b8e7" fill-opacity="0.58" stroke="#163b5c" stroke-width="0.8">
<g id="part-0">
<path d="M 185.000 85.000 L 335.000 85.000 L 335.000 235.000 L 185.000 235.000 L 185.000 85.000 Z" />
<path d="M 233.000 133.000 L 233.000 187.000 L 287.000 187.000 L 287.000 133.000 L 233.000 133.000 Z" fill="#f7f7f2" fill-opacity="1" stroke="#163b5c" />
</g>
<g id="part-1">
<path d="M 270.000 153.000 L 284.000 153.000 L 284.000 167.000 L 270.000 167.000 L 270.000 153.000 Z" />
</g>
<g id="part-2">
<path d="M 289.000 238.000 L 289.000 254.000 L 272.000 254.000 L 272.000 238.000 L 289.000 238.000 Z" />
</g>
<g id="part-3">
<path d="M 246.000 136.000 L 264.000 136.000 L 264.000 150.000 L 246.000 150.000 L 246.000 136.000 Z" />
</g>
<g id="part-4">
<path d="M 309.000 238.000 L 309.000 252.000 L 292.000 252.000 L 292.000 238.000 L 309.000 238.000 Z" />
</g>
<g id="part-5">
<path d="M 252.000 170.000 L 268.000 170.000 L 268.000 184.000 L 252.000 184.000 L 252.000 170.000 Z" />
</g>
<g id="part-6">
<path d="M 251.000 238.000 L 269.000 238.000 L 269.000 255.000 L 251.000 255.000 L 251.000 238.000 Z" />
</g>
<g id="part-7">
<path d="M 253.000 153.000 L 267.000 153.000 L 267.000 167.000 L 253.000 167.000 L 253.000 153.000 Z" />
</g>
<g id="part-8">
<path d="M 232.000 238.000 L 248.000 238.000 L 248.000 255.000 L 232.000 255.000 L 232.000 238.000 Z" />
</g>
<g id="part-9">
<path d="M 312.000 238.000 L 330.000 238.000 L 330.000 252.000 L 312.000 252.000 L 312.000 238.000 Z" />
</g>
<g id="part-10">
<path d="M 284.000 136.000 L 284.000 150.000 L 267.000 150.000 L 267.000 136.000 L 284.000 136.000 Z" />
</g>
</g>
<text x="10" y="20" font-size="14" fill="#222">donut_hole_usage / Maximum</text>
</svg>
