<svg xmlns="http://www.w3.org/2000/svg" width="520.000" height="320.000" viewBox="0 0 520.000 320.000">
<rect x="0" y="0" width="520.000" height="320.000" fill="#f7f7f2" />
<g fill="none" stroke="#2a2a2a" stroke-width="1.2">
<path d="M 0.000 0.000 L 520.000 0.000 L 520.000 320.000 L 0.000 320.000 L 0.000 0.000 Z" stroke="#1f5f8b" />
</g>
<g fill="#86b8e7" fill-opacity="0.58" stroke="#163b5c" stroke-width="0.8">
<g id="part-0">
<path d="M 29.000 8.000 L 179.000 8.000 L 179.000 158.000 L 29.000 158.000 L 29.000 8.000 Z" />
<path d="M 77.000 56.000 L 77.000 110.000 L 131.000 110.000 L 131.000 56.000 L 77.000 56.000 Z" fill="#f7f7f2" fill-opacity="1" stroke="#163b5c" />
</g>
<g id="part-1">
<path d="M 8.000 45.000 L 22.000 45.000 L 22.000 59.000 L 8.000 59.000 L 8.000 45.000 Z" />
</g>
<g id="part-2">
<path d="M 25.000 62.000 L 25.000 78.000 L 8.000 78.000 L 8.000 62.000 L 25.000 62.000 Z" />
</g>
<g id="part-3">
<path d="M 8.000 134.000 L 26.000 134.000 L 26.000 148.000 L 8.000 148.000 L 8.000 134.000 Z" />
</g>
<g id="part-4">
<path d="M 25.000 81.000 L 25.000 95.000 L 8.000 95.000 L 8.000 81.000 L 25.000 81.000 Z" />
</g>
<g id="part-5">
<path d="M 8.000 117.000 L 24.000 117.000 L 24.000 131.000 L 8.000 131.000 L 8.000 117.000 Z" />
</g>
<g id="part-6">
<path d="M 8.000 25.000 L 26.000 25.000 L 26.000 42.000 L 8.000 42.000 L 8.000 25.000 Z" />
</g>
<g id="part-7">
<path d="M 8.000 8.000 L 22.000 8.000 L 22.000 22.000 L 8.000 22.000 L 8.000 8.000 Z" />
</g>
<g id="part-8">
<path d="M 25.000 98.000 L 25.000 114.000 L 8.000 114.000 L 8.000 98.000 L 25.000 98.000 Z" />
</g>
<g id="part-9">
<path d="M 113.000 90.000 L 95.000 90.000 L 95.000 76.000 L 113.000 76.000 L 113.000 90.000 Z" />
</g>
<g id="part-10">
<path d="M 25.000 151.000 L 25.000 165.000 L 8.000 165.000 L 8.000 151.000 L 25.000 151.000 Z" />
</g>
</g>
<text x="10" y="20" font-size="14" fill="#222">donut_hole_usage / Maximum</text>
</svg>
