<svg xmlns="http://www.w3.org/2000/svg" width="520.000" height="320.000" viewBox="0 0 520.000 320.000">
<rect x="0" y="0" width="520.000" height="320.000" fill="#f7f7f2" />
<g fill="none" stroke="#2a2a2a" stroke-width="1.2">
<path d="M 0.000 0.000 L 520.000 0.000 L 520.000 320.000 L 0.000 320.000 L 0.000 0.000 Z" stroke="#1f5f8b" />
</g>
<g fill="#86b8e7" fill-opacity="0.58" stroke="#163b5c" stroke-width="0.8">
<g id="part-0">
<path d="M 185.000 85.000 L 335.000 85.000 L 335.000 235.000 L 185.000 235.000 L 185.000 85.000 Z" />
<path d="M 233.000 133.000 L 233.000 187.000 L 287.000 187.000 L 287.000 133.000 L 233.000 133.000 Z" fill="#f7f7f2" fill-opacity="1" stroke="#163b5c" />
</g>
<g id="part-1">
<path d="M 304.000 8.000 L 318.000 8.000 L 318.000 22.000 L 304.000 22.000 L 304.000 8.000 Z" />
</g>
<g id="part-2">
<path d="M 181.000 8.000 L 197.000 8.000 L 197.000 25.000 L 181.000 25.000 L 181.000 8.000 Z" />
</g>
<g id="part-3">
<path d="M 233.000 8.000 L 233.000 26.000 L 219.000 26.000 L 219.000 8.000 L 233.000 8.000 Z" />
</g>
<g id="part-4">
<path d="M 253.000 8.000 L 267.000 8.000 L 267.000 25.000 L 253.000 25.000 L 253.000 8.000 Z" />
</g>
<g id="part-5">
<path d="M 301.000 8.000 L 301.000 24.000 L 287.000 24.000 L 287.000 8.000 L 301.000 8.000 Z" />
</g>
<g id="part-6">
<path d="M 178.000 8.000 L 178.000 26.000 L 161.000 26.000 L 161.000 8.000 L 178.000 8.000 Z" />
</g>
<g id="part-7">
<path d="M 321.000 8.000 L 335.000 8.000 L 335.000 22.000 L 321.000 22.000 L 321.000 8.000 Z" />
</g>
<g id="part-8">
<path d="M 200.000 8.000 L 216.000 8.000 L 216.000 25.000 L 200.000 25.000 L 200.000 8.000 Z" />
</g>
<g id="part-9">
<path d="M 236.000 26.000 L 236.000 8.000 L 250.000 8.000 L 250.000 26.000 L 236.000 26.000 Z" />
</g>
<g id="part-10">
<path d="M 270.000 8.000 L 284.000 8.000 L 284.000 25.000 L 270.000 25.000 L 270.000 8.000 Z" />
</g>
</g>
<text x="10" y="20" font-size="14" fill="#222">donut_hole_usage / Fast</text>
</svg>
