<svg xmlns="http://www.w3.org/2000/svg" width="520.000" height="320.000" viewBox="0 0 520.000 320.000">
<rect x="0" y="0" width="520.000" height="320.000" fill="#f7f7f2" />
<g fill="none" stroke="#2a2a2a" stroke-width="1.2">
<path d="M 0.000 0.000 L 520.000 0.000 L 520.000 320.000 L 0.000 320.000 L 0.000 0.000 Z" stroke="#1f5f8b" />
</g>
<g fill="#86b8e7" fill-opacity="0.58" stroke="#163b5c" stroke-width="0.8">
<g id="part-0">
<path d="M 8.000 28.000 L 158.000 28.000 L 158.000 178.000 L 8.000 178.000 L 8.000 28.000 Z" />
<path d="M 56.000 76.000 L 56.000 130.000 L 110.000 130.000 L 110.000 76.000 L 56.000 76.000 Z" fill="#f7f7f2" fill-opacity="1" stroke="#163b5c" />
</g>
<g id="part-1">
<path d="M 236.000 161.000 L 250.000 161.000 L 250.000 175.000 L 236.000 175.000 L 236.000 161.000 Z" />
</g>
<g id="part-2">
<path d="M 215.000 141.000 L 231.000 141.000 L 231.000 158.000 L 215.000 158.000 L 215.000 141.000 Z" />
</g>
<g id="part-3">
<path d="M 195.000 160.000 L 195.000 178.000 L 181.000 178.000 L 181.000 160.000 L 195.000 160.000 Z" />
</g>
<g id="part-4">
<path d="M 253.000 141.000 L 267.000 141.000 L 267.000 158.000 L 253.000 158.000 L 253.000 141.000 Z" />
</g>
<g id="part-5">
<path d="M 233.000 161.000 L 233.000 177.000 L 219.000 177.000 L 219.000 161.000 L 233.000 161.000 Z" />
</g>
<g id="part-6">
<path d="M 178.000 160.000 L 178.000 178.000 L 161.000 178.000 L 161.000 160.000 L 178.000 160.000 Z" />
</g>
<g id="part-7">
<path d="M 253.000 161.000 L 267.000 161.000 L 267.000 175.000 L 253.000 175.000 L 253.000 161.000 Z" />
</g>
<g id="part-8">
<path d="M 234.000 141.000 L 250.000 141.000 L 250.000 158.000 L 234.000 158.000 L 234.000 141.000 Z" />
</g>
<g id="part-9">
<path d="M 198.000 158.000 L 198.000 140.000 L 212.000 140.000 L 212.000 158.000 L 198.000 158.000 Z" />
</g>
<g id="part-10">
<path d="M 202.000 161.000 L 216.000 161.000 L 216.000 178.000 L 202.000 178.000 L 202.000 161.000 Z" />
</g>
</g>
<text x="10" y="20" font-size="14" fill="#222">donut_hole_usage / Balanced</text>
</svg>
