<svg xmlns="http://www.w3.org/2000/svg" width="520.000" height="320.000" viewBox="0 0 520.000 320.000">
<rect x="0" y="0" width="520.000" height="320.000" fill="#f7f7f2" />
<g fill="none" stroke="#2a2a2a" stroke-width="1.2">
<path d="M 0.000 0.000 L 520.000 0.000 L 520.000 320.000 L 0.000 320.000 L 0.000 0.000 Z" stroke="#1f5f8b" />
</g>
<g fill="#86b8e7" fill-opacity="0.58" stroke="#163b5c" stroke-width="0.8">
<g id="part-0">
<path d="M 184.990 85.000 L 334.990 85.000 L 334.990 235.000 L 184.990 235.000 L 184.990 85.000 Z" />
<path d="M 232.990 133.000 L 232.990 187.000 L 286.990 187.000 L 286.990 133.000 L 232.990 133.000 Z" fill="#f7f7f2" fill-opacity="1" stroke="#163b5c" />
</g>
<g id="part-1">
<path d="M 270.000 153.000 L 284.000 153.000 L 284.000 167.000 L 270.000 167.000 L 270.000 153.000 Z" />
</g>
<g id="part-2">
<path d="M 252.526 254.990 L 236.526 254.990 L 236.526 237.990 L 252.526 237.990 L 252.526 254.990 Z" />
</g>
<g id="part-3">
<path d="M 246.000 136.000 L 264.000 136.000 L 264.000 150.000 L 246.000 150.000 L 246.000 136.000 Z" />
</g>
<g id="part-4">
<path d="M 291.506 239.053 L 291.506 253.053 L 274.506 253.053 L 274.506 239.053 L 291.506 239.053 Z" />
</g>
<g id="part-5">
<path d="M 252.000 170.000 L 268.000 170.000 L 268.000 184.000 L 252.000 184.000 L 252.000 170.000 Z" />
</g>
<g id="part-6">
<path d="M 215.536 237.990 L 233.536 237.990 L 233.536 254.990 L 215.536 254.990 L 215.536 237.990 Z" />
</g>
<g id="part-7">
<path d="M 253.000 153.000 L 267.000 153.000 L 267.000 167.000 L 253.000 167.000 L 253.000 153.000 Z" />
</g>
<g id="part-8">
<path d="M 271.516 254.990 L 255.516 254.990 L 255.516 237.990 L 271.516 237.990 L 271.516 254.990 Z" />
</g>
<g id="part-9">
<path d="M 211.679 251.990 L 193.679 251.990 L 193.679 237.990 L 211.679 237.990 L 211.679 251.990 Z" />
</g>
<g id="part-10">
<path d="M 284.000 136.000 L 284.000 150.000 L 267.000 150.000 L 267.000 136.000 L 284.000 136.000 Z" />
</g>
</g>
<text x="10" y="20" font-size="14" fill="#222">donut_hole_usage / Balanced</text>
</svg>
