<svg xmlns="http://www.w3.org/2000/svg" width="820.000" height="740.000" viewBox="0 0 820.000 740.000">
<rect x="0" y="0" width="820.000" height="740.000" fill="#f7f7f2" />
<g fill="none" stroke="#2a2a2a" stroke-width="1.2">
<path d="M 0.000 0.000 L 800.000 0.000 L 800.000 650.000 L 700.000 650.000 L 700.000 710.000 L 0.000 710.000 L 0.000 0.000 Z" stroke="#1f5f8b" />
<path d="M 40.000 610.000 L 120.000 610.000 L 120.000 690.000 L 40.000 690.000 L 40.000 610.000 Z" stroke="#a83232" stroke-dasharray="6 4" />
</g>
<g fill="#86b8e7" fill-opacity="0.58" stroke="#163b5c" stroke-width="0.8">
<g id="part-0">
<path d="M 34.000 324.000 L 58.000 328.000 L 52.000 342.000 L 37.000 339.000 L 34.000 324.000 Z" />
</g>
<g id="part-1">
<path d="M 409.000 292.000 L 440.000 292.000 L 440.000 315.000 L 409.000 315.000 L 409.000 292.000 Z" />
</g>
<g id="part-2">
<path d="M 136.000 292.000 L 174.000 292.000 L 174.000 320.000 L 136.000 320.000 L 136.000 292.000 Z" />
</g>
<g id="part-3">
<path d="M 597.000 0.000 L 624.000 0.000 L 624.000 33.000 L 597.000 33.000 L 597.000 0.000 Z" />
</g>
<g id="part-4">
<path d="M 520.000 292.000 L 554.000 292.000 L 554.000 314.000 L 520.000 314.000 L 520.000 292.000 Z" />
</g>
<g id="part-5">
<path d="M 202.000 292.000 L 243.000 296.000 L 237.000 319.000 L 205.000 316.000 L 202.000 292.000 Z" />
</g>
<g id="part-6">
<path d="M 659.000 0.000 L 689.000 0.000 L 689.000 32.000 L 659.000 32.000 L 659.000 0.000 Z" />
</g>
<g id="part-7">
<path d="M 521.000 43.000 L 558.000 43.000 L 558.000 52.000 L 538.000 31.000 L 504.000 0.000 L 538.000 31.000 L 521.000 64.000 L 521.000 43.000 Z" />
</g>
<g id="part-8">
<path d="M 277.000 292.000 L 303.000 292.000 L 303.000 318.000 L 277.000 318.000 L 277.000 292.000 Z" />
</g>
<g id="part-9">
<path d="M 727.000 0.000 L 760.000 0.000 L 760.000 31.000 L 727.000 31.000 L 727.000 0.000 Z" />
</g>
<g id="part-10">
<path d="M 667.000 292.000 L 707.000 296.000 L 701.000 312.000 L 670.000 309.000 L 667.000 292.000 Z" />
</g>
<g id="part-11">
<path d="M 305.000 292.000 L 334.000 292.000 L 334.000 317.000 L 305.000 317.000 L 305.000 292.000 Z" />
</g>
<g id="part-12">
<path d="M 0.000 292.000 L 36.000 292.000 L 36.000 322.000 L 0.000 322.000 L 0.000 292.000 Z" />
</g>
<g id="part-13">
<path d="M 709.000 292.000 L 734.000 292.000 L 734.000 311.000 L 709.000 311.000 L 709.000 292.000 Z" />
</g>
<g id="part-14">
<path d="M 470.000 138.000 L 502.000 138.000 L 502.000 148.000 L 485.000 28.000 L 438.000 0.000 L 485.000 28.000 L 470.000 162.000 L 470.000 138.000 Z" />
</g>
<g id="part-15">
<path d="M 38.000 292.000 L 77.000 296.000 L 71.000 321.000 L 41.000 318.000 L 38.000 292.000 Z" />
</g>
<g id="part-16">
<path d="M 767.000 292.000 L 795.000 292.000 L 795.000 310.000 L 767.000 310.000 L 767.000 292.000 Z" />
</g>
<g id="part-17">
<path d="M 483.000 292.000 L 518.000 292.000 L 518.000 315.000 L 483.000 315.000 L 483.000 292.000 Z" />
</g>
<g id="part-18">
<path d="M 176.000 292.000 L 200.000 292.000 L 200.000 320.000 L 176.000 320.000 L 176.000 292.000 Z" />
</g>
<g id="part-19">
<path d="M 626.000 0.000 L 657.000 0.000 L 657.000 33.000 L 626.000 33.000 L 626.000 0.000 Z" />
</g>
<g id="part-20">
<path d="M 556.000 292.000 L 594.000 296.000 L 588.000 314.000 L 559.000 311.000 L 556.000 292.000 Z" />
</g>
<g id="part-21">
<path d="M 409.000 189.000 L 436.000 189.000 L 436.000 201.000 L 421.000 81.000 L 363.000 0.000 L 421.000 81.000 L 409.000 216.000 L 409.000 189.000 Z" />
</g>
<g id="part-22">
<path d="M 691.000 0.000 L 725.000 0.000 L 725.000 32.000 L 691.000 32.000 L 691.000 0.000 Z" />
</g>
<g id="part-23">
<path d="M 596.000 292.000 L 637.000 292.000 L 637.000 313.000 L 596.000 313.000 L 596.000 292.000 Z" />
</g>
<g id="part-24">
<path d="M 245.000 292.000 L 275.000 292.000 L 275.000 318.000 L 245.000 318.000 L 245.000 292.000 Z" />
</g>
<g id="part-25">
<path d="M 762.000 0.000 L 799.000 4.000 L 793.000 31.000 L 765.000 28.000 L 762.000 0.000 Z" />
</g>
<g id="part-26">
<path d="M 639.000 292.000 L 665.000 292.000 L 665.000 312.000 L 639.000 312.000 L 639.000 292.000 Z" />
</g>
<g id="part-27">
<path d="M 336.000 292.000 L 369.000 292.000 L 369.000 317.000 L 336.000 317.000 L 336.000 292.000 Z" />
</g>
<g id="part-28">
<path d="M 321.000 260.000 L 361.000 260.000 L 361.000 273.000 L 340.000 0.000 L 0.000 3.000 L 340.000 0.000 L 321.000 290.000 L 321.000 260.000 Z" />
</g>
<g id="part-29">
<path d="M 736.000 292.000 L 765.000 292.000 L 765.000 311.000 L 736.000 311.000 L 736.000 292.000 Z" />
</g>
<g id="part-30">
<path d="M 371.000 292.000 L 407.000 296.000 L 401.000 316.000 L 374.000 313.000 L 371.000 292.000 Z" />
</g>
<g id="part-31">
<path d="M 79.000 292.000 L 104.000 292.000 L 104.000 321.000 L 79.000 321.000 L 79.000 292.000 Z" />
</g>
<g id="part-32">
<path d="M 0.000 324.000 L 32.000 324.000 L 32.000 342.000 L 0.000 342.000 L 0.000 324.000 Z" />
</g>
<g id="part-33">
<path d="M 442.000 292.000 L 481.000 292.000 L 481.000 315.000 L 442.000 315.000 L 442.000 292.000 Z" />
</g>
<g id="part-34">
<path d="M 106.000 292.000 L 134.000 292.000 L 134.000 320.000 L 106.000 320.000 L 106.000 292.000 Z" />
</g>
<g id="part-35">
<path d="M 560.000 0.000 L 595.000 4.000 L 589.000 33.000 L 563.000 30.000 L 560.000 0.000 Z" />
</g>
</g>
<text x="10" y="20" font-size="14" fill="#222">irregular_sheet_with_hole / Fast</text>
</svg>
