<svg xmlns="http://www.w3.org/2000/svg" width="820.000" height="740.000" viewBox="0 0 820.000 740.000">
<rect x="0" y="0" width="820.000" height="740.000" fill="#f7f7f2" />
<g fill="none" stroke="#2a2a2a" stroke-width="1.2">
<path d="M 0.000 0.000 L 800.000 0.000 L 800.000 650.000 L 700.000 650.000 L 700.000 710.000 L 0.000 710.000 L 0.000 0.000 Z" stroke="#1f5f8b" />
<path d="M 40.000 610.000 L 120.000 610.000 L 120.000 690.000 L 40.000 690.000 L 40.000 610.000 Z" stroke="#a83232" stroke-dasharray="6 4" />
</g>
<g fill="#86b8e7" fill-opacity="0.58" stroke="#163b5c" stroke-width="0.8">
<g id="part-0">
<path d="M 504.031 28.109 L 528.031 32.109 L 522.031 46.109 L 507.031 43.109 L 504.031 28.109 Z" />
</g>
<g id="part-1">
<path d="M 182.000 37.070 L 213.000 37.070 L 213.000 60.070 L 182.000 60.070 L 182.000 37.070 Z" />
</g>
<g id="part-2">
<path d="M 324.164 275.234 L 362.164 275.234 L 362.164 303.234 L 324.164 303.234 L 324.164 275.234 Z" />
</g>
<g id="part-3">
<path d="M 70.000 4.383 L 97.000 4.383 L 97.000 37.383 L 70.000 37.383 L 70.000 4.383 Z" />
</g>
<g id="part-4">
<path d="M 255.000 35.047 L 289.000 35.047 L 289.000 57.047 L 255.000 57.047 L 255.000 35.047 Z" />
</g>
<g id="part-5">
<path d="M 415.828 150.070 L 456.828 154.070 L 450.828 177.070 L 418.828 174.070 L 415.828 150.070 Z" />
</g>
<g id="part-6">
<path d="M 135.000 3.805 L 165.000 3.805 L 165.000 35.805 L 135.000 35.805 L 135.000 3.805 Z" />
</g>
<g id="part-7">
<path d="M 434.859 43.000 L 471.859 43.000 L 471.859 52.000 L 451.859 31.000 L 417.859 0.000 L 451.859 31.000 L 434.859 64.000 L 434.859 43.000 Z" />
</g>
<g id="part-8">
<path d="M 481.578 0.047 L 507.578 0.047 L 507.578 26.047 L 481.578 26.047 L 481.578 0.047 Z" />
</g>
<g id="part-9">
<path d="M 206.000 3.227 L 239.000 3.227 L 239.000 34.227 L 206.000 34.227 L 206.000 3.227 Z" />
</g>
<g id="part-10">
<path d="M 40.602 83.609 L 80.602 87.609 L 74.602 103.609 L 43.602 100.609 L 40.602 83.609 Z" />
</g>
<g id="part-11">
<path d="M 35.000 39.672 L 64.000 39.672 L 64.000 64.672 L 35.000 64.672 L 35.000 39.672 Z" />
</g>
<g id="part-12">
<path d="M 241.000 2.938 L 277.000 2.938 L 277.000 32.938 L 241.000 32.938 L 241.000 2.938 Z" />
</g>
<g id="part-13">
<path d="M 394.242 232.188 L 419.242 232.188 L 419.242 251.188 L 394.242 251.188 L 394.242 232.188 Z" />
</g>
<g id="part-14">
<path d="M 412.477 138.000 L 444.477 138.000 L 444.477 148.000 L 427.477 28.000 L 380.477 0.000 L 427.477 28.000 L 412.477 162.000 L 412.477 138.000 Z" />
</g>
<g id="part-15">
<path d="M 279.000 2.648 L 318.000 6.648 L 312.000 31.648 L 282.000 28.648 L 279.000 2.648 Z" />
</g>
<g id="part-16">
<path d="M 474.031 28.109 L 502.031 28.109 L 502.031 46.109 L 474.031 46.109 L 474.031 28.109 Z" />
</g>
<g id="part-17">
<path d="M 145.000 37.938 L 180.000 37.938 L 180.000 60.938 L 145.000 60.938 L 145.000 37.938 Z" />
</g>
<g id="part-18">
<path d="M 417.000 202.102 L 441.000 202.102 L 441.000 230.102 L 417.000 230.102 L 417.000 202.102 Z" />
</g>
<g id="part-19">
<path d="M 37.000 4.672 L 68.000 4.672 L 68.000 37.672 L 37.000 37.672 L 37.000 4.672 Z" />
</g>
<g id="part-20">
<path d="M 215.000 36.492 L 253.000 40.492 L 247.000 58.492 L 218.000 55.492 L 215.000 36.492 Z" />
</g>
<g id="part-21">
<path d="M 388.188 189.000 L 415.188 189.000 L 415.188 201.000 L 400.188 81.000 L 342.188 0.000 L 400.188 81.000 L 388.188 216.000 L 388.188 189.000 Z" />
</g>
<g id="part-22">
<path d="M 99.000 4.383 L 133.000 4.383 L 133.000 36.383 L 99.000 36.383 L 99.000 4.383 Z" />
</g>
<g id="part-23">
<path d="M 0.203 98.641 L 41.203 98.641 L 41.203 119.641 L 0.203 119.641 L 0.203 98.641 Z" />
</g>
<g id="part-24">
<path d="M 449.578 0.047 L 479.578 0.047 L 479.578 26.047 L 449.578 26.047 L 449.578 0.047 Z" />
</g>
<g id="part-25">
<path d="M 167.000 3.805 L 204.000 7.805 L 198.000 34.805 L 170.000 31.805 L 167.000 3.805 Z" />
</g>
<g id="part-26">
<path d="M 81.156 65.688 L 107.156 65.688 L 107.156 85.688 L 81.156 85.688 L 81.156 65.688 Z" />
</g>
<g id="part-27">
<path d="M 0.000 40.250 L 33.000 40.250 L 33.000 65.250 L 0.000 65.250 L 0.000 40.250 Z" />
</g>
<g id="part-28">
<path d="M 321.000 260.000 L 361.000 260.000 L 361.000 273.000 L 340.000 0.000 L 0.000 3.000 L 340.000 0.000 L 321.000 290.000 L 321.000 260.000 Z" />
</g>
<g id="part-29">
<path d="M 363.242 248.086 L 392.242 248.086 L 392.242 267.086 L 363.242 267.086 L 363.242 248.086 Z" />
</g>
<g id="part-30">
<path d="M 66.000 39.672 L 102.000 43.672 L 96.000 63.672 L 69.000 60.672 L 66.000 39.672 Z" />
</g>
<g id="part-31">
<path d="M 0.008 67.398 L 25.008 67.398 L 25.008 96.398 L 0.008 96.398 L 0.008 67.398 Z" />
</g>
<g id="part-32">
<path d="M 417.195 179.000 L 449.195 179.000 L 449.195 197.000 L 417.195 197.000 L 417.195 179.000 Z" />
</g>
<g id="part-33">
<path d="M 104.000 38.516 L 143.000 38.516 L 143.000 61.516 L 104.000 61.516 L 104.000 38.516 Z" />
</g>
<g id="part-34">
<path d="M 360.984 218.000 L 388.984 218.000 L 388.984 246.000 L 360.984 246.000 L 360.984 218.000 Z" />
</g>
<g id="part-35">
<path d="M 0.000 5.250 L 35.000 9.250 L 29.000 38.250 L 3.000 35.250 L 0.000 5.250 Z" />
</g>
</g>
<text x="10" y="20" font-size="14" fill="#222">irregular_sheet_with_hole / Maximum</text>
</svg>
