<svg xmlns="http://www.w3.org/2000/svg" width="820.000" height="740.000" viewBox="0 0 820.000 740.000">
<rect x="0" y="0" width="820.000" height="740.000" fill="#f7f7f2" />
<g fill="none" stroke="#2a2a2a" stroke-width="1.2">
<path d="M 0.000 0.000 L 800.000 0.000 L 800.000 650.000 L 700.000 650.000 L 700.000 710.000 L 0.000 710.000 L 0.000 0.000 Z" stroke="#1f5f8b" />
<path d="M 40.000 610.000 L 120.000 610.000 L 120.000 690.000 L 40.000 690.000 L 40.000 610.000 Z" stroke="#a83232" stroke-dasharray="6 4" />
</g>
<g fill="#86b8e7" fill-opacity="0.58" stroke="#163b5c" stroke-width="0.8">
<g id="part-0">
<path d="M 235.000 33.469 L 259.000 37.469 L 253.000 51.469 L 238.000 48.469 L 235.000 33.469 Z" />
</g>
<g id="part-1">
<path d="M 585.773 0.047 L 616.773 0.047 L 616.773 23.047 L 585.773 23.047 L 585.773 0.047 Z" />
</g>
<g id="part-2">
<path d="M 212.000 3.227 L 250.000 3.227 L 250.000 31.227 L 212.000 31.227 L 212.000 3.227 Z" />
</g>
<g id="part-3">
<path d="M 520.734 0.000 L 547.734 0.000 L 547.734 33.000 L 520.734 33.000 L 520.734 0.000 Z" />
</g>
<g id="part-4">
<path d="M 658.773 0.047 L 692.773 0.047 L 692.773 22.047 L 658.773 22.047 L 658.773 0.047 Z" />
</g>
<g id="part-5">
<path d="M 0.148 62.484 L 41.148 66.484 L 35.148 89.484 L 3.148 86.484 L 0.148 62.484 Z" />
</g>
<g id="part-6">
<path d="M 0.000 5.250 L 30.000 5.250 L 30.000 37.250 L 0.000 37.250 L 0.000 5.250 Z" />
</g>
<g id="part-7">
<path d="M 434.859 43.000 L 471.859 43.000 L 471.859 52.000 L 451.859 31.000 L 417.859 0.000 L 451.859 31.000 L 434.859 64.000 L 434.859 43.000 Z" />
</g>
<g id="part-8">
<path d="M 361.031 217.711 L 387.031 217.711 L 387.031 243.711 L 361.031 243.711 L 361.031 217.711 Z" />
</g>
<g id="part-9">
<path d="M 71.000 4.383 L 104.000 4.383 L 104.000 35.383 L 71.000 35.383 L 71.000 4.383 Z" />
</g>
<g id="part-10">
<path d="M 42.711 36.070 L 82.711 40.070 L 76.711 56.070 L 45.711 53.070 L 42.711 36.070 Z" />
</g>
<g id="part-11">
<path d="M 446.000 149.492 L 475.000 149.492 L 475.000 174.492 L 446.000 174.492 L 446.000 149.492 Z" />
</g>
<g id="part-12">
<path d="M 106.000 4.094 L 142.000 4.094 L 142.000 34.094 L 106.000 34.094 L 106.000 4.094 Z" />
</g>
<g id="part-13">
<path d="M 144.000 34.047 L 169.000 34.047 L 169.000 53.047 L 144.000 53.047 L 144.000 34.047 Z" />
</g>
<g id="part-14">
<path d="M 412.477 138.000 L 444.477 138.000 L 444.477 148.000 L 427.477 28.000 L 380.477 0.000 L 427.477 28.000 L 412.477 162.000 L 412.477 138.000 Z" />
</g>
<g id="part-15">
<path d="M 144.000 3.805 L 183.000 7.805 L 177.000 32.805 L 147.000 29.805 L 144.000 3.805 Z" />
</g>
<g id="part-16">
<path d="M 205.000 34.625 L 233.000 34.625 L 233.000 52.625 L 205.000 52.625 L 205.000 34.625 Z" />
</g>
<g id="part-17">
<path d="M 551.664 34.156 L 586.664 34.156 L 586.664 57.156 L 551.664 57.156 L 551.664 34.156 Z" />
</g>
<g id="part-18">
<path d="M 282.000 2.648 L 306.000 2.648 L 306.000 30.648 L 282.000 30.648 L 282.000 2.648 Z" />
</g>
<g id="part-19">
<path d="M 487.734 0.000 L 518.734 0.000 L 518.734 33.000 L 487.734 33.000 L 487.734 0.000 Z" />
</g>
<g id="part-20">
<path d="M 618.773 0.047 L 656.773 4.047 L 650.773 22.047 L 621.773 19.047 L 618.773 0.047 Z" />
</g>
<g id="part-21">
<path d="M 388.188 189.000 L 415.188 189.000 L 415.188 201.000 L 400.188 81.000 L 342.188 0.000 L 400.188 81.000 L 388.188 216.000 L 388.188 189.000 Z" />
</g>
<g id="part-22">
<path d="M 549.734 0.000 L 583.734 0.000 L 583.734 32.000 L 549.734 32.000 L 549.734 0.000 Z" />
</g>
<g id="part-23">
<path d="M 0.000 39.250 L 41.000 39.250 L 41.000 60.250 L 0.000 60.250 L 0.000 39.250 Z" />
</g>
<g id="part-24">
<path d="M 324.117 272.922 L 354.117 272.922 L 354.117 298.922 L 324.117 298.922 L 324.117 272.922 Z" />
</g>
<g id="part-25">
<path d="M 32.000 4.961 L 69.000 8.961 L 63.000 35.961 L 35.000 32.961 L 32.000 4.961 Z" />
</g>
<g id="part-26">
<path d="M 84.711 37.516 L 110.711 37.516 L 110.711 57.516 L 84.711 57.516 L 84.711 37.516 Z" />
</g>
<g id="part-27">
<path d="M 391.344 203.258 L 424.344 203.258 L 424.344 228.258 L 391.344 228.258 L 391.344 203.258 Z" />
</g>
<g id="part-28">
<path d="M 321.000 260.000 L 361.000 260.000 L 361.000 273.000 L 340.000 0.000 L 0.000 3.000 L 340.000 0.000 L 321.000 290.000 L 321.000 260.000 Z" />
</g>
<g id="part-29">
<path d="M 112.711 36.359 L 141.711 36.359 L 141.711 55.359 L 112.711 55.359 L 112.711 36.359 Z" />
</g>
<g id="part-30">
<path d="M 472.664 34.445 L 508.664 38.445 L 502.664 58.445 L 475.664 55.445 L 472.664 34.445 Z" />
</g>
<g id="part-31">
<path d="M 185.000 3.516 L 210.000 3.516 L 210.000 32.516 L 185.000 32.516 L 185.000 3.516 Z" />
</g>
<g id="part-32">
<path d="M 171.000 34.914 L 203.000 34.914 L 203.000 52.914 L 171.000 52.914 L 171.000 34.914 Z" />
</g>
<g id="part-33">
<path d="M 510.664 35.023 L 549.664 35.023 L 549.664 58.023 L 510.664 58.023 L 510.664 35.023 Z" />
</g>
<g id="part-34">
<path d="M 252.000 2.938 L 280.000 2.938 L 280.000 30.938 L 252.000 30.938 L 252.000 2.938 Z" />
</g>
<g id="part-35">
<path d="M 450.734 0.000 L 485.734 4.000 L 479.734 33.000 L 453.734 30.000 L 450.734 0.000 Z" />
</g>
</g>
<text x="10" y="20" font-size="14" fill="#222">irregular_sheet_with_hole / Fast</text>
</svg>
