<svg xmlns="http://www.w3.org/2000/svg" width="820.000" height="740.000" viewBox="0 0 820.000 740.000">
<rect x="0" y="0" width="820.000" height="740.000" fill="#f7f7f2" />
<g fill="none" stroke="#2a2a2a" stroke-width="1.2">
<path d="M 0.000 0.000 L 800.000 0.000 L 800.000 650.000 L 700.000 650.000 L 700.000 710.000 L 0.000 710.000 L 0.000 0.000 Z" stroke="#1f5f8b" />
<path d="M 40.000 610.000 L 120.000 610.000 L 120.000 690.000 L 40.000 690.000 L 40.000 610.000 Z" stroke="#a83232" stroke-dasharray="6 4" />
</g>
<g fill="#86b8e7" fill-opacity="0.58" stroke="#163b5c" stroke-width="0.8">
<g id="part-0">
<path d="M 439.000 384.000 L 463.000 388.000 L 457.000 402.000 L 442.000 399.000 L 439.000 384.000 Z" />
</g>
<g id="part-1">
<path d="M 383.000 237.000 L 414.000 237.000 L 414.000 260.000 L 383.000 260.000 L 383.000 237.000 Z" />
</g>
<g id="part-2">
<path d="M 452.500 458.000 L 490.500 458.000 L 490.500 486.000 L 452.500 486.000 L 452.500 458.000 Z" />
</g>
<g id="part-3">
<path d="M 385.000 262.000 L 412.000 262.000 L 412.000 295.000 L 385.000 295.000 L 385.000 262.000 Z" />
</g>
<g id="part-4">
<path d="M 445.000 262.000 L 479.000 262.000 L 479.000 284.000 L 445.000 284.000 L 445.000 262.000 Z" />
</g>
<g id="part-5">
<path d="M 385.000 297.000 L 426.000 301.000 L 420.000 324.000 L 388.000 321.000 L 385.000 297.000 Z" />
</g>
<g id="part-6">
<path d="M 329.500 480.000 L 359.500 480.000 L 359.500 512.000 L 329.500 512.000 L 329.500 480.000 Z" />
</g>
<g id="part-7">
<path d="M 400.000 381.000 L 437.000 381.000 L 437.000 390.000 L 417.000 369.000 L 383.000 338.000 L 417.000 369.000 L 400.000 402.000 L 400.000 381.000 Z" />
</g>
<g id="part-8">
<path d="M 362.000 483.000 L 388.000 483.000 L 388.000 509.000 L 362.000 509.000 L 362.000 483.000 Z" />
</g>
<g id="part-9">
<path d="M 505.000 420.000 L 538.000 420.000 L 538.000 451.000 L 505.000 451.000 L 505.000 420.000 Z" />
</g>
<g id="part-10">
<path d="M 497.500 378.000 L 537.500 382.000 L 531.500 398.000 L 500.500 395.000 L 497.500 378.000 Z" />
</g>
<g id="part-11">
<path d="M 414.000 262.000 L 443.000 262.000 L 443.000 287.000 L 414.000 287.000 L 414.000 262.000 Z" />
</g>
<g id="part-12">
<path d="M 386.500 432.000 L 422.500 432.000 L 422.500 462.000 L 386.500 462.000 L 386.500 432.000 Z" />
</g>
<g id="part-13">
<path d="M 397.500 404.000 L 422.500 404.000 L 422.500 423.000 L 397.500 423.000 L 397.500 404.000 Z" />
</g>
<g id="part-14">
<path d="M 471.000 427.000 L 503.000 427.000 L 503.000 437.000 L 486.000 317.000 L 439.000 289.000 L 486.000 317.000 L 471.000 451.000 L 471.000 427.000 Z" />
</g>
<g id="part-15">
<path d="M 344.000 287.000 L 383.000 291.000 L 377.000 316.000 L 347.000 313.000 L 344.000 287.000 Z" />
</g>
<g id="part-16">
<path d="M 424.500 438.000 L 452.500 438.000 L 452.500 456.000 L 424.500 456.000 L 424.500 438.000 Z" />
</g>
<g id="part-17">
<path d="M 494.000 237.000 L 529.000 237.000 L 529.000 260.000 L 494.000 260.000 L 494.000 237.000 Z" />
</g>
<g id="part-18">
<path d="M 289.700 273.378 L 313.700 273.378 L 313.700 301.378 L 289.700 301.378 L 289.700 273.378 Z" />
</g>
<g id="part-19">
<path d="M 492.500 453.000 L 523.500 453.000 L 523.500 486.000 L 492.500 486.000 L 492.500 453.000 Z" />
</g>
<g id="part-20">
<path d="M 390.000 485.000 L 428.000 489.000 L 422.000 507.000 L 393.000 504.000 L 390.000 485.000 Z" />
</g>
<g id="part-21">
<path d="M 354.000 451.000 L 381.000 451.000 L 381.000 463.000 L 366.000 343.000 L 308.000 262.000 L 366.000 343.000 L 354.000 478.000 L 354.000 451.000 Z" />
</g>
<g id="part-22">
<path d="M 424.500 404.000 L 458.500 404.000 L 458.500 436.000 L 424.500 436.000 L 424.500 404.000 Z" />
</g>
<g id="part-23">
<path d="M 416.000 239.000 L 457.000 239.000 L 457.000 260.000 L 416.000 260.000 L 416.000 239.000 Z" />
</g>
<g id="part-24">
<path d="M 481.000 262.000 L 511.000 262.000 L 511.000 288.000 L 481.000 288.000 L 481.000 262.000 Z" />
</g>
<g id="part-25">
<path d="M 344.000 229.000 L 381.000 233.000 L 375.000 260.000 L 347.000 257.000 L 344.000 229.000 Z" />
</g>
<g id="part-26">
<path d="M 424.500 458.000 L 450.500 458.000 L 450.500 478.000 L 424.500 478.000 L 424.500 458.000 Z" />
</g>
<g id="part-27">
<path d="M 459.000 235.000 L 492.000 235.000 L 492.000 260.000 L 459.000 260.000 L 459.000 235.000 Z" />
</g>
<g id="part-28">
<path d="M 550.500 485.000 L 590.500 485.000 L 590.500 498.000 L 569.500 225.000 L 229.500 228.000 L 569.500 225.000 L 550.500 515.000 L 550.500 485.000 Z" />
</g>
<g id="part-29">
<path d="M 390.000 464.000 L 419.000 464.000 L 419.000 483.000 L 390.000 483.000 L 390.000 464.000 Z" />
</g>
<g id="part-30">
<path d="M 452.500 488.000 L 488.500 492.000 L 482.500 512.000 L 455.500 509.000 L 452.500 488.000 Z" />
</g>
<g id="part-31">
<path d="M 525.500 453.000 L 550.500 453.000 L 550.500 482.000 L 525.500 482.000 L 525.500 453.000 Z" />
</g>
<g id="part-32">
<path d="M 505.500 400.000 L 537.500 400.000 L 537.500 418.000 L 505.500 418.000 L 505.500 400.000 Z" />
</g>
<g id="part-33">
<path d="M 344.000 262.000 L 383.000 262.000 L 383.000 285.000 L 344.000 285.000 L 344.000 262.000 Z" />
</g>
<g id="part-34">
<path d="M 513.000 262.000 L 541.000 262.000 L 541.000 290.000 L 513.000 290.000 L 513.000 262.000 Z" />
</g>
<g id="part-35">
<path d="M 292.500 479.500 L 327.500 483.500 L 321.500 512.500 L 295.500 509.500 L 292.500 479.500 Z" />
</g>
</g>
<text x="10" y="20" font-size="14" fill="#222">irregular_sheet_with_hole / Maximum</text>
</svg>
