<svg xmlns="http://www.w3.org/2000/svg" width="820.000" height="740.000" viewBox="0 0 820.000 740.000">
<rect x="0" y="0" width="820.000" height="740.000" fill="#f7f7f2" />
<g fill="none" stroke="#2a2a2a" stroke-width="1.2">
<path d="M 0.000 0.000 L 800.000 0.000 L 800.000 650.000 L 700.000 650.000 L 700.000 710.000 L 0.000 710.000 L 0.000 0.000 Z" stroke="#1f5f8b" />
<path d="M 40.000 610.000 L 120.000 610.000 L 120.000 690.000 L 40.000 690.000 L 40.000 610.000 Z" stroke="#a83232" stroke-dasharray="6 4" />
</g>
<g fill="#86b8e7" fill-opacity="0.58" stroke="#163b5c" stroke-width="0.8">
<g id="part-0">
<path d="M 360.766 241.438 L 384.766 245.438 L 378.766 259.438 L 363.766 256.438 L 360.766 241.438 Z" />
</g>
<g id="part-1">
<path d="M 37.000 39.094 L 68.000 39.094 L 68.000 62.094 L 37.000 62.094 L 37.000 39.094 Z" />
</g>
<g id="part-2">
<path d="M 277.000 2.648 L 315.000 2.648 L 315.000 30.648 L 277.000 30.648 L 277.000 2.648 Z" />
</g>
<g id="part-3">
<path d="M 0.000 5.250 L 27.000 5.250 L 27.000 38.250 L 0.000 38.250 L 0.000 5.250 Z" />
</g>
<g id="part-4">
<path d="M 110.000 37.648 L 144.000 37.648 L 144.000 59.648 L 110.000 59.648 L 110.000 37.648 Z" />
</g>
<g id="part-5">
<path d="M 358.836 215.398 L 399.836 219.398 L 393.836 242.398 L 361.836 239.398 L 358.836 215.398 Z" />
</g>
<g id="part-6">
<path d="M 65.000 4.672 L 95.000 4.672 L 95.000 36.672 L 65.000 36.672 L 65.000 4.672 Z" />
</g>
<g id="part-7">
<path d="M 434.859 43.000 L 471.859 43.000 L 471.859 52.000 L 451.859 31.000 L 417.859 0.000 L 451.859 31.000 L 434.859 64.000 L 434.859 43.000 Z" />
</g>
<g id="part-8">
<path d="M 442.219 54.102 L 468.219 54.102 L 468.219 80.102 L 442.219 80.102 L 442.219 54.102 Z" />
</g>
<g id="part-9">
<path d="M 136.000 3.805 L 169.000 3.805 L 169.000 34.805 L 136.000 34.805 L 136.000 3.805 Z" />
</g>
<g id="part-10">
<path d="M 189.000 35.625 L 229.000 39.625 L 223.000 55.625 L 192.000 52.625 L 189.000 35.625 Z" />
</g>
<g id="part-11">
<path d="M 508.977 35.023 L 537.977 35.023 L 537.977 60.023 L 508.977 60.023 L 508.977 35.023 Z" />
</g>
<g id="part-12">
<path d="M 171.000 3.516 L 207.000 3.516 L 207.000 33.516 L 171.000 33.516 L 171.000 3.516 Z" />
</g>
<g id="part-13">
<path d="M 290.000 32.734 L 315.000 32.734 L 315.000 51.734 L 290.000 51.734 L 290.000 32.734 Z" />
</g>
<g id="part-14">
<path d="M 412.477 138.000 L 444.477 138.000 L 444.477 148.000 L 427.477 28.000 L 380.477 0.000 L 427.477 28.000 L 412.477 162.000 L 412.477 138.000 Z" />
</g>
<g id="part-15">
<path d="M 209.000 3.227 L 248.000 7.227 L 242.000 32.227 L 212.000 29.227 L 209.000 3.227 Z" />
</g>
<g id="part-16">
<path d="M 30.430 65.398 L 58.430 65.398 L 58.430 83.398 L 30.430 83.398 L 30.430 65.398 Z" />
</g>
<g id="part-17">
<path d="M 0.000 40.250 L 35.000 40.250 L 35.000 63.250 L 0.000 63.250 L 0.000 40.250 Z" />
</g>
<g id="part-18">
<path d="M 324.164 272.344 L 348.164 272.344 L 348.164 300.344 L 324.164 300.344 L 324.164 272.344 Z" />
</g>
<g id="part-19">
<path d="M 487.734 0.000 L 518.734 0.000 L 518.734 33.000 L 487.734 33.000 L 487.734 0.000 Z" />
</g>
<g id="part-20">
<path d="M 70.000 38.805 L 108.000 42.805 L 102.000 60.805 L 73.000 57.805 L 70.000 38.805 Z" />
</g>
<g id="part-21">
<path d="M 388.188 189.000 L 415.188 189.000 L 415.188 201.000 L 400.188 81.000 L 342.188 0.000 L 400.188 81.000 L 388.188 216.000 L 388.188 189.000 Z" />
</g>
<g id="part-22">
<path d="M 29.000 4.961 L 63.000 4.961 L 63.000 36.961 L 29.000 36.961 L 29.000 4.961 Z" />
</g>
<g id="part-23">
<path d="M 146.000 37.070 L 187.000 37.070 L 187.000 58.070 L 146.000 58.070 L 146.000 37.070 Z" />
</g>
<g id="part-24">
<path d="M 415.711 202.969 L 445.711 202.969 L 445.711 228.969 L 415.711 228.969 L 415.711 202.969 Z" />
</g>
<g id="part-25">
<path d="M 97.000 4.383 L 134.000 8.383 L 128.000 35.383 L 100.000 32.383 L 97.000 4.383 Z" />
</g>
<g id="part-26">
<path d="M 231.000 34.469 L 257.000 34.469 L 257.000 54.469 L 231.000 54.469 L 231.000 34.469 Z" />
</g>
<g id="part-27">
<path d="M 473.977 35.023 L 506.977 35.023 L 506.977 60.023 L 473.977 60.023 L 473.977 35.023 Z" />
</g>
<g id="part-28">
<path d="M 321.000 260.000 L 361.000 260.000 L 361.000 273.000 L 340.000 0.000 L 0.000 3.000 L 340.000 0.000 L 321.000 290.000 L 321.000 260.000 Z" />
</g>
<g id="part-29">
<path d="M 259.000 34.180 L 288.000 34.180 L 288.000 53.180 L 259.000 53.180 L 259.000 34.180 Z" />
</g>
<g id="part-30">
<path d="M 520.898 0.047 L 556.898 4.047 L 550.898 24.047 L 523.898 21.047 L 520.898 0.047 Z" />
</g>
<g id="part-31">
<path d="M 250.000 2.938 L 275.000 2.938 L 275.000 31.938 L 250.000 31.938 L 250.000 2.938 Z" />
</g>
<g id="part-32">
<path d="M 0.188 95.461 L 32.188 95.461 L 32.188 113.461 L 0.188 113.461 L 0.188 95.461 Z" />
</g>
<g id="part-33">
<path d="M 558.898 0.047 L 597.898 0.047 L 597.898 23.047 L 558.898 23.047 L 558.898 0.047 Z" />
</g>
<g id="part-34">
<path d="M 0.188 65.375 L 28.188 65.375 L 28.188 93.375 L 0.188 93.375 L 0.188 65.375 Z" />
</g>
<g id="part-35">
<path d="M 450.734 0.000 L 485.734 4.000 L 479.734 33.000 L 453.734 30.000 L 450.734 0.000 Z" />
</g>
</g>
<text x="10" y="20" font-size="14" fill="#222">irregular_sheet_with_hole / Balanced</text>
</svg>
