<svg xmlns="http://www.w3.org/2000/svg" width="820.000" height="740.000" viewBox="0 0 820.000 740.000">
<rect x="0" y="0" width="820.000" height="740.000" fill="#f7f7f2" />
<g fill="none" stroke="#2a2a2a" stroke-width="1.2">
<path d="M 0.000 0.000 L 800.000 0.000 L 800.000 650.000 L 700.000 650.000 L 700.000 710.000 L 0.000 710.000 L 0.000 0.000 Z" stroke="#1f5f8b" />
<path d="M 40.000 610.000 L 120.000 610.000 L 120.000 690.000 L 40.000 690.000 L 40.000 610.000 Z" stroke="#a83232" stroke-dasharray="6 4" />
</g>
<g fill="#86b8e7" fill-opacity="0.58" stroke="#163b5c" stroke-width="0.8">
<g id="part-0">
<path d="M 439.000 384.000 L 463.000 388.000 L 457.000 402.000 L 442.000 399.000 L 439.000 384.000 Z" />
</g>
<g id="part-1">
<path d="M 498.500 267.000 L 529.500 267.000 L 529.500 290.000 L 498.500 290.000 L 498.500 267.000 Z" />
</g>
<g id="part-2">
<path d="M 452.500 458.000 L 490.500 458.000 L 490.500 486.000 L 452.500 486.000 L 452.500 458.000 Z" />
</g>
<g id="part-3">
<path d="M 531.500 285.000 L 558.500 285.000 L 558.500 318.000 L 531.500 318.000 L 531.500 285.000 Z" />
</g>
<g id="part-4">
<path d="M 415.500 263.000 L 449.500 263.000 L 449.500 285.000 L 415.500 285.000 L 415.500 263.000 Z" />
</g>
<g id="part-5">
<path d="M 458.500 237.000 L 499.500 241.000 L 493.500 264.000 L 461.500 261.000 L 458.500 237.000 Z" />
</g>
<g id="part-6">
<path d="M 390.104 485.750 L 420.104 485.750 L 420.104 517.750 L 390.104 517.750 L 390.104 485.750 Z" />
</g>
<g id="part-7">
<path d="M 400.000 381.000 L 437.000 381.000 L 437.000 390.000 L 417.000 369.000 L 383.000 338.000 L 417.000 369.000 L 400.000 402.000 L 400.000 381.000 Z" />
</g>
<g id="part-8">
<path d="M 503.500 292.000 L 529.500 292.000 L 529.500 318.000 L 503.500 318.000 L 503.500 292.000 Z" />
</g>
<g id="part-9">
<path d="M 505.000 420.000 L 538.000 420.000 L 538.000 451.000 L 505.000 451.000 L 505.000 420.000 Z" />
</g>
<g id="part-10">
<path d="M 497.500 378.000 L 537.500 382.000 L 531.500 398.000 L 500.500 395.000 L 497.500 378.000 Z" />
</g>
<g id="part-11">
<path d="M 528.500 240.000 L 557.500 240.000 L 557.500 265.000 L 528.500 265.000 L 528.500 240.000 Z" />
</g>
<g id="part-12">
<path d="M 386.500 432.000 L 422.500 432.000 L 422.500 462.000 L 386.500 462.000 L 386.500 432.000 Z" />
</g>
<g id="part-13">
<path d="M 397.500 404.000 L 422.500 404.000 L 422.500 423.000 L 397.500 423.000 L 397.500 404.000 Z" />
</g>
<g id="part-14">
<path d="M 326.017 371.250 L 358.017 371.250 L 358.017 381.250 L 341.017 261.250 L 294.017 233.250 L 341.017 261.250 L 326.017 395.250 L 326.017 371.250 Z" />
</g>
<g id="part-15">
<path d="M 457.500 264.000 L 496.500 268.000 L 490.500 293.000 L 460.500 290.000 L 457.500 264.000 Z" />
</g>
<g id="part-16">
<path d="M 424.500 438.000 L 452.500 438.000 L 452.500 456.000 L 424.500 456.000 L 424.500 438.000 Z" />
</g>
<g id="part-17">
<path d="M 380.500 288.500 L 415.500 288.500 L 415.500 311.500 L 380.500 311.500 L 380.500 288.500 Z" />
</g>
<g id="part-18">
<path d="M 525.500 453.000 L 549.500 453.000 L 549.500 481.000 L 525.500 481.000 L 525.500 453.000 Z" />
</g>
<g id="part-19">
<path d="M 492.500 453.000 L 523.500 453.000 L 523.500 486.000 L 492.500 486.000 L 492.500 453.000 Z" />
</g>
<g id="part-20">
<path d="M 422.000 485.000 L 460.000 489.000 L 454.000 507.000 L 425.000 504.000 L 422.000 485.000 Z" />
</g>
<g id="part-21">
<path d="M 305.637 452.250 L 332.637 452.250 L 332.637 464.250 L 317.637 344.250 L 259.637 263.250 L 317.637 344.250 L 305.637 479.250 L 305.637 452.250 Z" />
</g>
<g id="part-22">
<path d="M 354.010 464.850 L 388.010 464.850 L 388.010 496.850 L 354.010 496.850 L 354.010 464.850 Z" />
</g>
<g id="part-23">
<path d="M 415.500 240.000 L 456.500 240.000 L 456.500 261.000 L 415.500 261.000 L 415.500 240.000 Z" />
</g>
<g id="part-24">
<path d="M 383.500 233.500 L 413.500 233.500 L 413.500 259.500 L 383.500 259.500 L 383.500 233.500 Z" />
</g>
<g id="part-25">
<path d="M 499.000 345.000 L 536.000 349.000 L 530.000 376.000 L 502.000 373.000 L 499.000 345.000 Z" />
</g>
<g id="part-26">
<path d="M 424.500 458.000 L 450.500 458.000 L 450.500 478.000 L 424.500 478.000 L 424.500 458.000 Z" />
</g>
<g id="part-27">
<path d="M 380.500 261.500 L 413.500 261.500 L 413.500 286.500 L 380.500 286.500 L 380.500 261.500 Z" />
</g>
<g id="part-28">
<path d="M 549.087 487.750 L 589.087 487.750 L 589.087 500.750 L 568.087 227.750 L 228.087 230.750 L 568.087 227.750 L 549.087 517.750 L 549.087 487.750 Z" />
</g>
<g id="part-29">
<path d="M 390.000 464.000 L 419.000 464.000 L 419.000 483.000 L 390.000 483.000 L 390.000 464.000 Z" />
</g>
<g id="part-30">
<path d="M 490.000 488.000 L 526.000 492.000 L 520.000 512.000 L 493.000 509.000 L 490.000 488.000 Z" />
</g>
<g id="part-31">
<path d="M 501.500 236.000 L 526.500 236.000 L 526.500 265.000 L 501.500 265.000 L 501.500 236.000 Z" />
</g>
<g id="part-32">
<path d="M 505.500 400.000 L 537.500 400.000 L 537.500 418.000 L 505.500 418.000 L 505.500 400.000 Z" />
</g>
<g id="part-33">
<path d="M 497.000 320.000 L 536.000 320.000 L 536.000 343.000 L 497.000 343.000 L 497.000 320.000 Z" />
</g>
<g id="part-34">
<path d="M 350.500 286.000 L 378.500 286.000 L 378.500 314.000 L 350.500 314.000 L 350.500 286.000 Z" />
</g>
<g id="part-35">
<path d="M 346.126 244.650 L 381.126 248.650 L 375.126 277.650 L 349.126 274.650 L 346.126 244.650 Z" />
</g>
</g>
<text x="10" y="20" font-size="14" fill="#222">irregular_sheet_with_hole / Balanced</text>
</svg>
