<svg xmlns="http://www.w3.org/2000/svg" width="1150.000" height="760.000" viewBox="0 0 1150.000 760.000">
<rect x="0" y="0" width="1150.000" height="760.000" fill="#f7f7f2" />
<g fill="none" stroke="#2a2a2a" stroke-width="1.2">
<path d="M 0.000 0.000 L 1150.000 0.000 L 1150.000 760.000 L 0.000 760.000 L 0.000 0.000 Z" stroke="#1f5f8b" />
</g>
<g fill="#86b8e7" fill-opacity="0.58" stroke="#163b5c" stroke-width="0.8">
<g id="part-0">
<path d="M 8.000 491.000 L 43.000 491.000 L 43.000 524.000 L 8.000 524.000 L 8.000 491.000 Z" />
<path d="M 19.200 501.560 L 19.200 513.440 L 31.800 513.440 L 31.800 501.560 L 19.200 501.560 Z" fill="#f7f7f2" fill-opacity="1" stroke="#163b5c" />
</g>
<g id="part-1">
<path d="M 58.000 490.627 L 84.000 490.627 L 84.000 546.627 L 58.000 546.627 L 58.000 490.627 Z" />
<path d="M 66.840 500.707 L 66.840 513.027 L 78.280 513.027 L 78.280 500.707 L 66.840 500.707 Z" fill="#f7f7f2" fill-opacity="1" stroke="#163b5c" />
<path d="M 66.840 524.227 L 66.840 536.547 L 78.280 536.547 L 78.280 524.227 L 66.840 524.227 Z" fill="#f7f7f2" fill-opacity="1" stroke="#163b5c" />
</g>
<g id="part-2">
<path d="M 8.000 66.000 L 54.000 66.000 L 54.000 72.380 L 23.640 72.380 L 23.640 88.620 L 54.000 88.620 L 54.000 95.000 L 8.000 95.000 L 8.000 66.000 Z" />
</g>
<g id="part-3">
<path d="M 58.000 644.627 L 82.000 648.627 L 75.280 668.627 L 61.000 664.307 L 58.000 644.627 Z" />
</g>
<g id="part-4">
<path d="M 107.676 334.939 L 106.406 338.183 L 102.999 340.397 L 98.537 340.878 L 94.437 339.473 L 92.000 336.629 L 92.000 333.249 L 94.437 330.404 L 98.537 329.000 L 102.999 329.481 L 106.406 331.695 L 107.676 334.939 Z" />
</g>
<g id="part-5">
<path d="M 92.000 613.878 L 102.000 613.878 L 102.000 633.878 L 92.000 633.878 L 92.000 613.878 Z" />
</g>
<g id="part-6">
<path d="M 58.000 424.627 L 85.000 424.627 L 85.000 453.627 L 58.000 453.627 L 58.000 424.627 Z" />
</g>
<g id="part-7">
<path d="M 92.000 138.000 L 112.000 138.000 L 112.000 154.000 L 92.000 154.000 L 92.000 138.000 Z" />
</g>
<g id="part-8">
<path d="M 92.000 477.878 L 105.000 477.878 L 105.000 502.878 L 92.000 502.878 L 92.000 477.878 Z" />
</g>
<g id="part-9">
<path d="M 58.000 112.869 L 88.000 112.869 L 88.000 124.869 L 58.000 124.869 L 58.000 112.869 Z" />
</g>
<g id="part-10">
<path d="M 8.000 363.000 L 45.000 363.000 L 45.000 398.000 L 8.000 398.000 L 8.000 363.000 Z" />
<path d="M 19.840 374.200 L 19.840 386.800 L 33.160 386.800 L 33.160 374.200 L 19.840 374.200 Z" fill="#f7f7f2" fill-opacity="1" stroke="#163b5c" />
</g>
<g id="part-11">
<path d="M 58.000 313.869 L 86.000 313.869 L 86.000 355.869 L 58.000 355.869 L 58.000 313.869 Z" />
<path d="M 67.520 321.429 L 67.520 330.669 L 79.840 330.669 L 79.840 321.429 L 67.520 321.429 Z" fill="#f7f7f2" fill-opacity="1" stroke="#163b5c" />
<path d="M 67.520 339.069 L 67.520 348.309 L 79.840 348.309 L 79.840 339.069 L 67.520 339.069 Z" fill="#f7f7f2" fill-opacity="1" stroke="#163b5c" />
</g>
<g id="part-12">
<path d="M 8.000 8.000 L 56.000 8.000 L 56.000 14.820 L 24.320 14.820 L 24.320 32.180 L 56.000 32.180 L 56.000 39.000 L 8.000 39.000 L 8.000 8.000 Z" />
</g>
<g id="part-13">
<path d="M 58.000 572.627 L 84.000 576.627 L 76.720 598.627 L 61.000 593.947 L 58.000 572.627 Z" />
</g>
<g id="part-14">
<path d="M 112.000 130.000 L 110.660 133.000 L 107.000 135.196 L 102.000 136.000 L 97.000 135.196 L 93.340 133.000 L 92.000 130.000 L 93.340 127.000 L 97.000 124.804 L 102.000 124.000 L 107.000 124.804 L 110.660 127.000 L 112.000 130.000 Z" />
</g>
<g id="part-15">
<path d="M 92.000 524.878 L 104.000 524.878 L 104.000 546.878 L 92.000 546.878 L 92.000 524.878 Z" />
</g>
<g id="part-16">
<path d="M 58.000 209.869 L 87.000 209.869 L 87.000 218.869 L 58.000 218.869 L 58.000 209.869 Z" />
</g>
<g id="part-17">
<path d="M 92.000 23.000 L 114.000 23.000 L 114.000 41.000 L 92.000 41.000 L 92.000 23.000 Z" />
</g>
<g id="part-18">
<path d="M 92.000 363.878 L 107.000 363.878 L 107.000 390.878 L 92.000 390.878 L 92.000 363.878 Z" />
</g>
<g id="part-19">
<path d="M 58.000 20.000 L 90.000 20.000 L 90.000 34.000 L 58.000 34.000 L 58.000 20.000 Z" />
</g>
<g id="part-20">
<path d="M 8.000 276.000 L 47.000 276.000 L 47.000 313.000 L 8.000 313.000 L 8.000 276.000 Z" />
<path d="M 20.480 287.840 L 20.480 301.160 L 34.520 301.160 L 34.520 287.840 L 20.480 287.840 Z" fill="#f7f7f2" fill-opacity="1" stroke="#163b5c" />
</g>
<g id="part-21">
<path d="M 58.000 165.869 L 88.000 165.869 L 88.000 207.869 L 58.000 207.869 L 58.000 165.869 Z" />
<path d="M 68.200 173.429 L 68.200 182.669 L 81.400 182.669 L 81.400 173.429 L 68.200 173.429 Z" fill="#f7f7f2" fill-opacity="1" stroke="#163b5c" />
<path d="M 68.200 191.069 L 68.200 200.309 L 81.400 200.309 L 81.400 191.069 L 68.200 191.069 Z" fill="#f7f7f2" fill-opacity="1" stroke="#163b5c" />
</g>
<g id="part-22">
<path d="M 58.000 455.627 L 84.000 455.627 L 84.000 462.887 L 66.840 462.887 L 66.840 481.367 L 84.000 481.367 L 84.000 488.627 L 58.000 488.627 L 58.000 455.627 Z" />
</g>
<g id="part-23">
<path d="M 58.000 220.869 L 86.000 224.869 L 78.160 248.869 L 61.000 243.829 L 58.000 220.869 Z" />
</g>
<g id="part-24">
<path d="M 110.000 104.000 L 108.660 108.000 L 105.000 110.928 L 100.000 112.000 L 95.000 110.928 L 91.340 108.000 L 90.000 104.000 L 91.340 100.000 L 95.000 97.072 L 100.000 96.000 L 105.000 97.072 L 108.660 100.000 L 110.000 104.000 Z" />
</g>
<g id="part-25">
<path d="M 92.000 414.878 L 106.000 414.878 L 106.000 438.878 L 92.000 438.878 L 92.000 414.878 Z" />
</g>
<g id="part-26">
<path d="M 58.000 61.869 L 89.000 61.869 L 89.000 72.869 L 58.000 72.869 L 58.000 61.869 Z" />
</g>
<g id="part-27">
<path d="M 58.000 670.627 L 82.000 670.627 L 82.000 690.627 L 58.000 690.627 L 58.000 670.627 Z" />
</g>
<g id="part-28">
<path d="M 92.000 223.000 L 109.000 223.000 L 109.000 252.000 L 92.000 252.000 L 92.000 223.000 Z" />
</g>
<g id="part-29">
<path d="M 92.000 581.878 L 102.000 581.878 L 102.000 597.878 L 92.000 597.878 L 92.000 581.878 Z" />
</g>
<g id="part-30">
<path d="M 8.000 185.000 L 49.000 185.000 L 49.000 224.000 L 8.000 224.000 L 8.000 185.000 Z" />
<path d="M 21.120 197.480 L 21.120 211.520 L 35.880 211.520 L 35.880 197.480 L 21.120 197.480 Z" fill="#f7f7f2" fill-opacity="1" stroke="#163b5c" />
</g>
<g id="part-31">
<path d="M 8.000 628.000 L 40.000 628.000 L 40.000 670.000 L 8.000 670.000 L 8.000 628.000 Z" />
<path d="M 18.880 635.560 L 18.880 644.800 L 32.960 644.800 L 32.960 635.560 L 18.880 635.560 Z" fill="#f7f7f2" fill-opacity="1" stroke="#163b5c" />
<path d="M 18.880 653.200 L 18.880 662.440 L 32.960 662.440 L 32.960 653.200 L 18.880 653.200 Z" fill="#f7f7f2" fill-opacity="1" stroke="#163b5c" />
</g>
<g id="part-32">
<path d="M 58.000 276.869 L 86.000 276.869 L 86.000 284.569 L 67.520 284.569 L 67.520 304.169 L 86.000 304.169 L 86.000 311.869 L 58.000 311.869 L 58.000 276.869 Z" />
</g>
<g id="part-33">
<path d="M 58.000 74.869 L 88.000 78.869 L 79.600 82.869 L 61.000 81.429 L 58.000 74.869 Z" />
</g>
<g id="part-34">
<path d="M 81.651 714.569 L 80.277 718.287 L 76.468 721.153 L 71.098 722.511 L 65.396 722.049 L 60.669 719.874 L 58.000 716.484 L 58.000 712.655 L 60.669 709.264 L 65.396 707.089 L 71.098 706.627 L 76.468 707.985 L 80.277 710.851 L 81.651 714.569 Z" />
</g>
<g id="part-35">
<path d="M 92.000 277.000 L 108.000 277.000 L 108.000 303.000 L 92.000 303.000 L 92.000 277.000 Z" />
</g>
<g id="part-36">
<path d="M 8.000 613.000 L 41.000 613.000 L 41.000 626.000 L 8.000 626.000 L 8.000 613.000 Z" />
</g>
<g id="part-37">
<path d="M 58.000 548.627 L 84.000 548.627 L 84.000 570.627 L 58.000 570.627 L 58.000 548.627 Z" />
</g>
<g id="part-38">
<path d="M 92.000 156.000 L 111.000 156.000 L 111.000 165.000 L 92.000 165.000 L 92.000 156.000 Z" />
</g>
<g id="part-39">
<path d="M 92.000 504.878 L 104.000 504.878 L 104.000 522.878 L 92.000 522.878 L 92.000 504.878 Z" />
</g>
<g id="part-40">
<path d="M 8.000 142.000 L 51.000 142.000 L 51.000 183.000 L 8.000 183.000 L 8.000 142.000 Z" />
<path d="M 21.760 155.120 L 21.760 169.880 L 37.240 169.880 L 37.240 155.120 L 21.760 155.120 Z" fill="#f7f7f2" fill-opacity="1" stroke="#163b5c" />
</g>
<g id="part-41">
<path d="M 8.000 569.000 L 42.000 569.000 L 42.000 611.000 L 8.000 611.000 L 8.000 569.000 Z" />
<path d="M 19.560 576.560 L 19.560 585.800 L 34.520 585.800 L 34.520 576.560 L 19.560 576.560 Z" fill="#f7f7f2" fill-opacity="1" stroke="#163b5c" />
<path d="M 19.560 594.200 L 19.560 603.440 L 34.520 603.440 L 34.520 594.200 L 19.560 594.200 Z" fill="#f7f7f2" fill-opacity="1" stroke="#163b5c" />
</g>
<g id="part-42">
<path d="M 58.000 126.869 L 88.000 126.869 L 88.000 135.009 L 68.200 135.009 L 68.200 155.729 L 88.000 155.729 L 88.000 163.869 L 58.000 163.869 L 58.000 126.869 Z" />
</g>
<g id="part-43">
<path d="M 58.000 8.000 L 90.000 12.000 L 81.040 18.000 L 61.000 16.200 L 58.000 8.000 Z" />
</g>
<g id="part-44">
<path d="M 81.651 734.438 L 80.277 739.085 L 76.468 742.668 L 71.098 744.365 L 65.396 743.788 L 60.669 741.069 L 58.000 736.831 L 58.000 732.045 L 60.669 727.807 L 65.396 725.088 L 71.098 724.511 L 76.468 726.208 L 80.277 729.791 L 81.651 734.438 Z" />
</g>
<g id="part-45">
<path d="M 92.000 193.000 L 110.000 193.000 L 110.000 221.000 L 92.000 221.000 L 92.000 193.000 Z" />
</g>
<g id="part-46">
<path d="M 92.000 564.878 L 103.000 564.878 L 103.000 579.878 L 92.000 579.878 L 92.000 564.878 Z" />
</g>
<g id="part-47">
<path d="M 58.000 250.869 L 86.000 250.869 L 86.000 274.869 L 58.000 274.869 L 58.000 250.869 Z" />
</g>
<g id="part-48">
<path d="M 92.000 55.000 L 113.000 55.000 L 113.000 66.000 L 92.000 66.000 L 92.000 55.000 Z" />
</g>
<g id="part-49">
<path d="M 92.000 392.878 L 106.000 392.878 L 106.000 412.878 L 92.000 412.878 L 92.000 392.878 Z" />
</g>
<g id="part-50">
<path d="M 8.000 97.000 L 53.000 97.000 L 53.000 140.000 L 8.000 140.000 L 8.000 97.000 Z" />
<path d="M 22.400 110.760 L 22.400 126.240 L 38.600 126.240 L 38.600 110.760 L 22.400 110.760 Z" fill="#f7f7f2" fill-opacity="1" stroke="#163b5c" />
</g>
<g id="part-51">
<path d="M 8.000 445.000 L 44.000 445.000 L 44.000 489.000 L 8.000 489.000 L 8.000 445.000 Z" />
<path d="M 20.240 452.920 L 20.240 462.600 L 36.080 462.600 L 36.080 452.920 L 20.240 452.920 Z" fill="#f7f7f2" fill-opacity="1" stroke="#163b5c" />
<path d="M 20.240 471.400 L 20.240 481.080 L 36.080 481.080 L 36.080 471.400 L 20.240 471.400 Z" fill="#f7f7f2" fill-opacity="1" stroke="#163b5c" />
</g>
<g id="part-52">
<path d="M 8.000 672.000 L 40.000 672.000 L 40.000 680.580 L 18.880 680.580 L 18.880 702.420 L 40.000 702.420 L 40.000 711.000 L 8.000 711.000 L 8.000 672.000 Z" />
</g>
<g id="part-53">
<path d="M 92.000 599.878 L 102.000 603.878 L 99.200 611.878 L 95.000 609.718 L 92.000 599.878 Z" />
</g>
<g id="part-54">
<path d="M 85.694 367.814 L 84.484 371.881 L 81.062 375.245 L 76.020 377.324 L 70.231 377.759 L 64.694 376.474 L 60.368 373.692 L 58.000 369.893 L 58.000 365.735 L 60.368 361.936 L 64.694 359.153 L 70.231 357.869 L 76.020 358.303 L 81.062 360.382 L 84.484 363.746 L 85.694 367.814 Z" />
</g>
<g id="part-55">
<path d="M 92.000 114.000 L 112.000 114.000 L 112.000 122.000 L 92.000 122.000 L 92.000 114.000 Z" />
</g>
<g id="part-56">
<path d="M 92.000 458.878 L 105.000 458.878 L 105.000 475.878 L 92.000 475.878 L 92.000 458.878 Z" />
</g>
<g id="part-57">
<path d="M 58.000 84.869 L 88.000 84.869 L 88.000 110.869 L 58.000 110.869 L 58.000 84.869 Z" />
</g>
<g id="part-58">
<path d="M 92.000 8.000 L 115.000 8.000 L 115.000 21.000 L 92.000 21.000 L 92.000 8.000 Z" />
</g>
<g id="part-59">
<path d="M 92.000 305.000 L 108.000 305.000 L 108.000 327.000 L 92.000 327.000 L 92.000 305.000 Z" />
</g>
<g id="part-60">
<path d="M 8.000 41.000 L 55.000 41.000 L 55.000 64.000 L 8.000 64.000 L 8.000 41.000 Z" />
<path d="M 23.040 48.360 L 23.040 56.640 L 39.960 56.640 L 39.960 48.360 L 23.040 48.360 Z" fill="#f7f7f2" fill-opacity="1" stroke="#163b5c" />
</g>
<g id="part-61">
<path d="M 8.000 315.000 L 46.000 315.000 L 46.000 361.000 L 8.000 361.000 L 8.000 315.000 Z" />
<path d="M 20.920 323.280 L 20.920 333.400 L 37.640 333.400 L 37.640 323.280 L 20.920 323.280 Z" fill="#f7f7f2" fill-opacity="1" stroke="#163b5c" />
<path d="M 20.920 342.600 L 20.920 352.720 L 37.640 352.720 L 37.640 342.600 L 20.920 342.600 Z" fill="#f7f7f2" fill-opacity="1" stroke="#163b5c" />
</g>
<g id="part-62">
<path d="M 8.000 526.000 L 42.000 526.000 L 42.000 535.020 L 19.560 535.020 L 19.560 557.980 L 42.000 557.980 L 42.000 567.000 L 8.000 567.000 L 8.000 526.000 Z" />
</g>
<g id="part-63">
<path d="M 92.000 548.878 L 104.000 552.878 L 100.640 562.878 L 95.000 560.358 L 92.000 548.878 Z" />
</g>
<g id="part-64">
<path d="M 85.694 391.693 L 84.484 396.574 L 81.062 400.611 L 76.020 403.106 L 70.231 403.627 L 64.694 402.086 L 60.368 398.747 L 58.000 394.188 L 58.000 389.198 L 60.368 384.640 L 64.694 381.301 L 70.231 379.759 L 76.020 380.281 L 81.062 382.775 L 84.484 386.812 L 85.694 391.693 Z" />
</g>
<g id="part-65">
<path d="M 92.000 43.000 L 114.000 43.000 L 114.000 53.000 L 92.000 53.000 L 92.000 43.000 Z" />
</g>
<g id="part-66">
<path d="M 92.000 342.878 L 107.000 342.878 L 107.000 361.878 L 92.000 361.878 L 92.000 342.878 Z" />
</g>
<g id="part-67">
<path d="M 8.000 713.000 L 40.000 713.000 L 40.000 741.000 L 8.000 741.000 L 8.000 713.000 Z" />
</g>
<g id="part-68">
<path d="M 58.000 600.627 L 83.000 600.627 L 83.000 615.627 L 58.000 615.627 L 58.000 600.627 Z" />
</g>
<g id="part-69">
<path d="M 92.000 167.000 L 110.000 167.000 L 110.000 191.000 L 92.000 191.000 L 92.000 167.000 Z" />
</g>
<g id="part-70">
<path d="M 58.000 617.627 L 83.000 617.627 L 83.000 642.627 L 58.000 642.627 L 58.000 617.627 Z" />
<path d="M 66.000 625.627 L 66.000 634.627 L 75.000 634.627 L 75.000 625.627 L 66.000 625.627 Z" fill="#f7f7f2" fill-opacity="1" stroke="#163b5c" />
</g>
<g id="part-71">
<path d="M 8.000 226.000 L 48.000 226.000 L 48.000 274.000 L 8.000 274.000 L 8.000 226.000 Z" />
<path d="M 21.600 234.640 L 21.600 245.200 L 39.200 245.200 L 39.200 234.640 L 21.600 234.640 Z" fill="#f7f7f2" fill-opacity="1" stroke="#163b5c" />
<path d="M 21.600 254.800 L 21.600 265.360 L 39.200 265.360 L 39.200 254.800 L 21.600 254.800 Z" fill="#f7f7f2" fill-opacity="1" stroke="#163b5c" />
</g>
<g id="part-72">
<path d="M 8.000 400.000 L 44.000 400.000 L 44.000 409.460 L 20.240 409.460 L 20.240 433.540 L 44.000 433.540 L 44.000 443.000 L 8.000 443.000 L 8.000 400.000 Z" />
</g>
<g id="part-73">
<path d="M 92.000 440.878 L 106.000 444.878 L 102.080 456.878 L 95.000 453.998 L 92.000 440.878 Z" />
</g>
<g id="part-74">
<path d="M 89.650 47.934 L 88.267 52.815 L 84.356 56.852 L 78.595 59.347 L 71.978 59.869 L 65.650 58.327 L 60.706 54.988 L 58.000 50.429 L 58.000 45.439 L 60.706 40.881 L 65.650 37.542 L 71.978 36.000 L 78.595 36.522 L 84.356 39.017 L 88.267 43.053 L 89.650 47.934 Z" />
</g>
<g id="part-75">
<path d="M 58.000 692.627 L 82.000 692.627 L 82.000 704.627 L 58.000 704.627 L 58.000 692.627 Z" />
</g>
<g id="part-76">
<path d="M 92.000 254.000 L 109.000 254.000 L 109.000 275.000 L 92.000 275.000 L 92.000 254.000 Z" />
</g>
<g id="part-77">
<path d="M 92.000 635.878 L 102.000 635.878 L 102.000 643.878 L 92.000 643.878 L 92.000 635.878 Z" />
</g>
<g id="part-78">
<path d="M 58.000 405.627 L 85.000 405.627 L 85.000 422.627 L 58.000 422.627 L 58.000 405.627 Z" />
</g>
<g id="part-79">
<path d="M 92.000 68.000 L 112.000 68.000 L 112.000 94.000 L 92.000 94.000 L 92.000 68.000 Z" />
</g>
</g>
<text x="10" y="20" font-size="14" fill="#222">many_small_parts / Maximum</text>
</svg>
