<svg xmlns="http://www.w3.org/2000/svg" width="1150.000" height="760.000" viewBox="0 0 1150.000 760.000">
<rect x="0" y="0" width="1150.000" height="760.000" fill="#f7f7f2" />
<g fill="none" stroke="#2a2a2a" stroke-width="1.2">
<path d="M 0.000 0.000 L 1150.000 0.000 L 1150.000 760.000 L 0.000 760.000 L 0.000 0.000 Z" stroke="#1f5f8b" />
</g>
<g fill="#86b8e7" fill-opacity="0.58" stroke="#163b5c" stroke-width="0.8">
<g id="part-0">
<path d="M 97.500 363.500 L 132.500 363.500 L 132.500 396.500 L 97.500 396.500 L 97.500 363.500 Z" />
<path d="M 108.700 374.060 L 108.700 385.940 L 121.300 385.940 L 121.300 374.060 L 108.700 374.060 Z" fill="#f7f7f2" fill-opacity="1" stroke="#163b5c" />
</g>
<g id="part-1">
<path d="M 275.500 352.000 L 301.500 352.000 L 301.500 408.000 L 275.500 408.000 L 275.500 352.000 Z" />
<path d="M 284.340 362.080 L 284.340 374.400 L 295.780 374.400 L 295.780 362.080 L 284.340 362.080 Z" fill="#f7f7f2" fill-opacity="1" stroke="#163b5c" />
<path d="M 284.340 385.600 L 284.340 397.920 L 295.780 397.920 L 295.780 385.600 L 284.340 385.600 Z" fill="#f7f7f2" fill-opacity="1" stroke="#163b5c" />
</g>
<g id="part-2">
<path d="M 264.500 423.000 L 310.500 423.000 L 310.500 429.380 L 280.140 429.380 L 280.140 445.620 L 310.500 445.620 L 310.500 452.000 L 264.500 452.000 L 264.500 423.000 Z" />
</g>
<g id="part-3">
<path d="M 106.086 436.490 L 130.086 440.490 L 123.366 460.490 L 109.086 456.170 L 106.086 436.490 Z" />
</g>
<g id="part-4">
<path d="M 410.838 407.439 L 409.568 410.683 L 406.161 412.897 L 401.699 413.378 L 397.599 411.973 L 395.162 409.129 L 395.162 405.749 L 397.599 402.904 L 401.699 401.500 L 406.161 401.981 L 409.568 404.195 L 410.838 407.439 Z" />
</g>
<g id="part-5">
<path d="M 110.000 398.500 L 120.000 398.500 L 120.000 418.500 L 110.000 418.500 L 110.000 398.500 Z" />
</g>
<g id="part-6">
<path d="M 183.500 435.000 L 210.500 435.000 L 210.500 464.000 L 183.500 464.000 L 183.500 435.000 Z" />
</g>
<g id="part-7">
<path d="M 497.500 425.000 L 517.500 425.000 L 517.500 441.000 L 497.500 441.000 L 497.500 425.000 Z" />
</g>
<g id="part-8">
<path d="M 522.500 443.000 L 535.500 443.000 L 535.500 468.000 L 522.500 468.000 L 522.500 443.000 Z" />
</g>
<g id="part-9">
<path d="M 636.150 427.131 L 666.150 427.131 L 666.150 439.131 L 636.150 439.131 L 636.150 427.131 Z" />
</g>
<g id="part-10">
<path d="M 200.500 362.500 L 237.500 362.500 L 237.500 397.500 L 200.500 397.500 L 200.500 362.500 Z" />
<path d="M 212.340 373.700 L 212.340 386.300 L 225.660 386.300 L 225.660 373.700 L 212.340 373.700 Z" fill="#f7f7f2" fill-opacity="1" stroke="#163b5c" />
</g>
<g id="part-11">
<path d="M 29.500 359.000 L 57.500 359.000 L 57.500 401.000 L 29.500 401.000 L 29.500 359.000 Z" />
<path d="M 39.020 366.560 L 39.020 375.800 L 51.340 375.800 L 51.340 366.560 L 39.020 366.560 Z" fill="#f7f7f2" fill-opacity="1" stroke="#163b5c" />
<path d="M 39.020 384.200 L 39.020 393.440 L 51.340 393.440 L 51.340 384.200 L 39.020 384.200 Z" fill="#f7f7f2" fill-opacity="1" stroke="#163b5c" />
</g>
<g id="part-12">
<path d="M 59.500 403.500 L 107.500 403.500 L 107.500 410.320 L 75.820 410.320 L 75.820 427.680 L 107.500 427.680 L 107.500 434.500 L 59.500 434.500 L 59.500 403.500 Z" />
</g>
<g id="part-13">
<path d="M 664.976 351.409 L 690.976 355.409 L 683.696 377.409 L 667.976 372.729 L 664.976 351.409 Z" />
</g>
<g id="part-14">
<path d="M 266.500 409.000 L 265.160 412.000 L 261.500 414.196 L 256.500 415.000 L 251.500 414.196 L 247.840 412.000 L 246.500 409.000 L 247.840 406.000 L 251.500 403.804 L 256.500 403.000 L 261.500 403.804 L 265.160 406.000 L 266.500 409.000 Z" />
</g>
<g id="part-15">
<path d="M 312.500 423.000 L 324.500 423.000 L 324.500 445.000 L 312.500 445.000 L 312.500 423.000 Z" />
</g>
<g id="part-16">
<path d="M 143.500 428.000 L 172.500 428.000 L 172.500 437.000 L 143.500 437.000 L 143.500 428.000 Z" />
</g>
<g id="part-17">
<path d="M 664.976 379.409 L 686.976 379.409 L 686.976 397.409 L 664.976 397.409 L 664.976 379.409 Z" />
</g>
<g id="part-18">
<path d="M 676.150 441.131 L 691.150 441.131 L 691.150 468.131 L 676.150 468.131 L 676.150 441.131 Z" />
</g>
<g id="part-19">
<path d="M 688.976 398.409 L 720.976 398.409 L 720.976 412.409 L 688.976 412.409 L 688.976 398.409 Z" />
</g>
<g id="part-20">
<path d="M 303.500 361.500 L 342.500 361.500 L 342.500 398.500 L 303.500 398.500 L 303.500 361.500 Z" />
<path d="M 315.980 373.340 L 315.980 386.660 L 330.020 386.660 L 330.020 373.340 L 315.980 373.340 Z" fill="#f7f7f2" fill-opacity="1" stroke="#163b5c" />
</g>
<g id="part-21">
<path d="M 134.500 359.000 L 164.500 359.000 L 164.500 401.000 L 134.500 401.000 L 134.500 359.000 Z" />
<path d="M 144.700 366.560 L 144.700 375.800 L 157.900 375.800 L 157.900 366.560 L 144.700 366.560 Z" fill="#f7f7f2" fill-opacity="1" stroke="#163b5c" />
<path d="M 144.700 384.200 L 144.700 393.440 L 157.900 393.440 L 157.900 384.200 L 144.700 384.200 Z" fill="#f7f7f2" fill-opacity="1" stroke="#163b5c" />
</g>
<g id="part-22">
<path d="M 608.150 406.131 L 634.150 406.131 L 634.150 413.391 L 616.990 413.391 L 616.990 431.871 L 634.150 431.871 L 634.150 439.131 L 608.150 439.131 L 608.150 406.131 Z" />
</g>
<g id="part-23">
<path d="M 586.150 441.131 L 614.150 445.131 L 606.310 469.131 L 589.150 464.091 L 586.150 441.131 Z" />
</g>
<g id="part-24">
<path d="M 226.500 425.000 L 225.160 429.000 L 221.500 431.928 L 216.500 433.000 L 211.500 431.928 L 207.840 429.000 L 206.500 425.000 L 207.840 421.000 L 211.500 418.072 L 216.500 417.000 L 221.500 418.072 L 225.160 421.000 L 226.500 425.000 Z" />
</g>
<g id="part-25">
<path d="M 409.500 443.500 L 423.500 443.500 L 423.500 467.500 L 409.500 467.500 L 409.500 443.500 Z" />
</g>
<g id="part-26">
<path d="M 553.150 441.131 L 584.150 441.131 L 584.150 452.131 L 553.150 452.131 L 553.150 441.131 Z" />
</g>
<g id="part-27">
<path d="M 668.150 419.131 L 692.150 419.131 L 692.150 439.131 L 668.150 439.131 L 668.150 419.131 Z" />
</g>
<g id="part-28">
<path d="M 657.150 441.131 L 674.150 441.131 L 674.150 470.131 L 657.150 470.131 L 657.150 441.131 Z" />
</g>
<g id="part-29">
<path d="M 303.500 400.500 L 313.500 400.500 L 313.500 416.500 L 303.500 416.500 L 303.500 400.500 Z" />
</g>
<g id="part-30">
<path d="M 382.500 360.500 L 423.500 360.500 L 423.500 399.500 L 382.500 399.500 L 382.500 360.500 Z" />
<path d="M 395.620 372.980 L 395.620 387.020 L 410.380 387.020 L 410.380 372.980 L 395.620 372.980 Z" fill="#f7f7f2" fill-opacity="1" stroke="#163b5c" />
</g>
<g id="part-31">
<path d="M 166.500 359.000 L 198.500 359.000 L 198.500 401.000 L 166.500 401.000 L 166.500 359.000 Z" />
<path d="M 177.380 366.560 L 177.380 375.800 L 191.460 375.800 L 191.460 366.560 L 177.380 366.560 Z" fill="#f7f7f2" fill-opacity="1" stroke="#163b5c" />
<path d="M 177.380 384.200 L 177.380 393.440 L 191.460 393.440 L 191.460 384.200 L 177.380 384.200 Z" fill="#f7f7f2" fill-opacity="1" stroke="#163b5c" />
</g>
<g id="part-32">
<path d="M 492.500 443.000 L 520.500 443.000 L 520.500 450.700 L 502.020 450.700 L 502.020 470.300 L 520.500 470.300 L 520.500 478.000 L 492.500 478.000 L 492.500 443.000 Z" />
</g>
<g id="part-33">
<path d="M 465.500 402.500 L 495.500 406.500 L 487.100 410.500 L 468.500 409.060 L 465.500 402.500 Z" />
</g>
<g id="part-34">
<path d="M 433.500 419.558 L 432.125 423.276 L 428.317 426.142 L 422.946 427.500 L 417.245 427.038 L 412.518 424.863 L 409.849 421.473 L 409.849 417.644 L 412.518 414.253 L 417.245 412.078 L 422.946 411.617 L 428.317 412.974 L 432.125 415.841 L 433.500 419.558 Z" />
</g>
<g id="part-35">
<path d="M 692.976 351.409 L 708.976 351.409 L 708.976 377.409 L 692.976 377.409 L 692.976 351.409 Z" />
</g>
<g id="part-36">
<path d="M 693.150 463.022 L 726.150 463.022 L 726.150 476.022 L 693.150 476.022 L 693.150 463.022 Z" />
</g>
<g id="part-37">
<path d="M 553.150 417.131 L 579.150 417.131 L 579.150 439.131 L 553.150 439.131 L 553.150 417.131 Z" />
</g>
<g id="part-38">
<path d="M 315.500 400.500 L 334.500 400.500 L 334.500 409.500 L 315.500 409.500 L 315.500 400.500 Z" />
</g>
<g id="part-39">
<path d="M 83.500 371.000 L 95.500 371.000 L 95.500 389.000 L 83.500 389.000 L 83.500 371.000 Z" />
</g>
<g id="part-40">
<path d="M 465.500 359.500 L 508.500 359.500 L 508.500 400.500 L 465.500 400.500 L 465.500 359.500 Z" />
<path d="M 479.260 372.620 L 479.260 387.380 L 494.740 387.380 L 494.740 372.620 L 479.260 372.620 Z" fill="#f7f7f2" fill-opacity="1" stroke="#163b5c" />
</g>
<g id="part-41">
<path d="M 239.500 359.000 L 273.500 359.000 L 273.500 401.000 L 239.500 401.000 L 239.500 359.000 Z" />
<path d="M 251.060 366.560 L 251.060 375.800 L 266.020 375.800 L 266.020 366.560 L 251.060 366.560 Z" fill="#f7f7f2" fill-opacity="1" stroke="#163b5c" />
<path d="M 251.060 384.200 L 251.060 393.440 L 266.020 393.440 L 266.020 384.200 L 251.060 384.200 Z" fill="#f7f7f2" fill-opacity="1" stroke="#163b5c" />
</g>
<g id="part-42">
<path d="M 435.500 417.000 L 465.500 417.000 L 465.500 425.140 L 445.700 425.140 L 445.700 445.860 L 465.500 445.860 L 465.500 454.000 L 435.500 454.000 L 435.500 417.000 Z" />
</g>
<g id="part-43">
<path d="M 200.500 399.500 L 232.500 403.500 L 223.540 409.500 L 203.500 407.700 L 200.500 399.500 Z" />
</g>
<g id="part-44">
<path d="M 662.976 389.336 L 661.601 393.983 L 657.793 397.566 L 652.422 399.263 L 646.721 398.686 L 641.994 395.967 L 639.325 391.729 L 639.325 386.943 L 641.994 382.705 L 646.721 379.986 L 652.422 379.409 L 657.793 381.106 L 661.601 384.689 L 662.976 389.336 Z" />
</g>
<g id="part-45">
<path d="M 616.150 376.131 L 634.150 376.131 L 634.150 404.131 L 616.150 404.131 L 616.150 376.131 Z" />
</g>
<g id="part-46">
<path d="M 497.500 402.500 L 508.500 402.500 L 508.500 417.500 L 497.500 417.500 L 497.500 402.500 Z" />
</g>
<g id="part-47">
<path d="M 467.500 417.000 L 495.500 417.000 L 495.500 441.000 L 467.500 441.000 L 467.500 417.000 Z" />
</g>
<g id="part-48">
<path d="M 183.500 422.000 L 204.500 422.000 L 204.500 433.000 L 183.500 433.000 L 183.500 422.000 Z" />
</g>
<g id="part-49">
<path d="M 360.500 414.500 L 374.500 414.500 L 374.500 434.500 L 360.500 434.500 L 360.500 414.500 Z" />
</g>
<g id="part-50">
<path d="M 552.500 358.500 L 597.500 358.500 L 597.500 401.500 L 552.500 401.500 L 552.500 358.500 Z" />
<path d="M 566.900 372.260 L 566.900 387.740 L 583.100 387.740 L 583.100 372.260 L 566.900 372.260 Z" fill="#f7f7f2" fill-opacity="1" stroke="#163b5c" />
</g>
<g id="part-51">
<path d="M 344.500 358.000 L 380.500 358.000 L 380.500 402.000 L 344.500 402.000 L 344.500 358.000 Z" />
<path d="M 356.740 365.920 L 356.740 375.600 L 372.580 375.600 L 372.580 365.920 L 356.740 365.920 Z" fill="#f7f7f2" fill-opacity="1" stroke="#163b5c" />
<path d="M 356.740 384.400 L 356.740 394.080 L 372.580 394.080 L 372.580 384.400 L 356.740 384.400 Z" fill="#f7f7f2" fill-opacity="1" stroke="#163b5c" />
</g>
<g id="part-52">
<path d="M 326.500 414.500 L 358.500 414.500 L 358.500 423.080 L 337.380 423.080 L 337.380 444.920 L 358.500 444.920 L 358.500 453.500 L 326.500 453.500 L 326.500 414.500 Z" />
</g>
<g id="part-53">
<path d="M 599.500 374.000 L 609.500 378.000 L 606.700 386.000 L 602.500 383.840 L 599.500 374.000 Z" />
</g>
<g id="part-54">
<path d="M 720.844 451.077 L 719.634 455.144 L 716.212 458.508 L 711.171 460.587 L 705.381 461.022 L 699.844 459.737 L 695.518 456.955 L 693.150 453.156 L 693.150 448.998 L 695.518 445.199 L 699.844 442.416 L 705.381 441.131 L 711.171 441.566 L 716.212 443.645 L 719.634 447.009 L 720.844 451.077 Z" />
</g>
<g id="part-55">
<path d="M 434.500 405.000 L 454.500 405.000 L 454.500 413.000 L 434.500 413.000 L 434.500 405.000 Z" />
</g>
<g id="part-56">
<path d="M 183.500 403.000 L 196.500 403.000 L 196.500 420.000 L 183.500 420.000 L 183.500 403.000 Z" />
</g>
<g id="part-57">
<path d="M 377.500 429.500 L 407.500 429.500 L 407.500 455.500 L 377.500 455.500 L 377.500 429.500 Z" />
</g>
<g id="part-58">
<path d="M 467.500 443.000 L 490.500 443.000 L 490.500 456.000 L 467.500 456.000 L 467.500 443.000 Z" />
</g>
<g id="part-59">
<path d="M 560.650 454.131 L 576.650 454.131 L 576.650 476.131 L 560.650 476.131 L 560.650 454.131 Z" />
</g>
<g id="part-60">
<path d="M 134.500 403.000 L 181.500 403.000 L 181.500 426.000 L 134.500 426.000 L 134.500 403.000 Z" />
<path d="M 149.540 410.360 L 149.540 418.640 L 166.460 418.640 L 166.460 410.360 L 149.540 410.360 Z" fill="#f7f7f2" fill-opacity="1" stroke="#163b5c" />
</g>
<g id="part-61">
<path d="M 425.500 357.000 L 463.500 357.000 L 463.500 403.000 L 425.500 403.000 L 425.500 357.000 Z" />
<path d="M 438.420 365.280 L 438.420 375.400 L 455.140 375.400 L 455.140 365.280 L 438.420 365.280 Z" fill="#f7f7f2" fill-opacity="1" stroke="#163b5c" />
<path d="M 438.420 384.600 L 438.420 394.720 L 455.140 394.720 L 455.140 384.600 L 438.420 384.600 Z" fill="#f7f7f2" fill-opacity="1" stroke="#163b5c" />
</g>
<g id="part-62">
<path d="M 228.500 417.000 L 262.500 417.000 L 262.500 426.020 L 240.060 426.020 L 240.060 448.980 L 262.500 448.980 L 262.500 458.000 L 228.500 458.000 L 228.500 417.000 Z" />
</g>
<g id="part-63">
<path d="M 599.500 358.500 L 611.500 362.500 L 608.140 372.500 L 602.500 369.980 L 599.500 358.500 Z" />
</g>
<g id="part-64">
<path d="M 664.997 413.197 L 663.787 418.078 L 660.365 422.115 L 655.324 424.610 L 649.534 425.131 L 643.997 423.590 L 639.671 420.251 L 637.303 415.692 L 637.303 410.702 L 639.671 406.144 L 643.997 402.805 L 649.534 401.263 L 655.324 401.785 L 660.365 404.279 L 663.787 408.316 L 664.997 413.197 Z" />
</g>
<g id="part-65">
<path d="M 110.500 351.500 L 132.500 351.500 L 132.500 361.500 L 110.500 361.500 L 110.500 351.500 Z" />
</g>
<g id="part-66">
<path d="M 360.500 436.500 L 375.500 436.500 L 375.500 455.500 L 360.500 455.500 L 360.500 436.500 Z" />
</g>
<g id="part-67">
<path d="M 25.500 405.000 L 57.500 405.000 L 57.500 433.000 L 25.500 433.000 L 25.500 405.000 Z" />
</g>
<g id="part-68">
<path d="M 637.976 362.409 L 662.976 362.409 L 662.976 377.409 L 637.976 377.409 L 637.976 362.409 Z" />
</g>
<g id="part-69">
<path d="M 694.150 415.131 L 712.150 415.131 L 712.150 439.131 L 694.150 439.131 L 694.150 415.131 Z" />
</g>
<g id="part-70">
<path d="M 581.150 414.131 L 606.150 414.131 L 606.150 439.131 L 581.150 439.131 L 581.150 414.131 Z" />
<path d="M 589.150 422.131 L 589.150 431.131 L 598.150 431.131 L 598.150 422.131 L 589.150 422.131 Z" fill="#f7f7f2" fill-opacity="1" stroke="#163b5c" />
</g>
<g id="part-71">
<path d="M 510.500 356.000 L 550.500 356.000 L 550.500 404.000 L 510.500 404.000 L 510.500 356.000 Z" />
<path d="M 524.100 364.640 L 524.100 375.200 L 541.700 375.200 L 541.700 364.640 L 524.100 364.640 Z" fill="#f7f7f2" fill-opacity="1" stroke="#163b5c" />
<path d="M 524.100 384.800 L 524.100 395.360 L 541.700 395.360 L 541.700 384.800 L 524.100 384.800 Z" fill="#f7f7f2" fill-opacity="1" stroke="#163b5c" />
</g>
<g id="part-72">
<path d="M 59.500 358.500 L 95.500 358.500 L 95.500 367.960 L 71.740 367.960 L 71.740 392.040 L 95.500 392.040 L 95.500 401.500 L 59.500 401.500 L 59.500 358.500 Z" />
</g>
<g id="part-73">
<path d="M 599.500 388.000 L 613.500 392.000 L 609.580 404.000 L 602.500 401.120 L 599.500 388.000 Z" />
</g>
<g id="part-74">
<path d="M 551.150 429.066 L 549.767 433.947 L 545.856 437.983 L 540.095 440.478 L 533.478 441.000 L 527.150 439.458 L 522.206 436.119 L 519.500 431.561 L 519.500 426.571 L 522.206 422.012 L 527.150 418.673 L 533.478 417.131 L 540.095 417.653 L 545.856 420.148 L 549.767 424.185 L 551.150 429.066 Z" />
</g>
<g id="part-75">
<path d="M 409.500 429.500 L 433.500 429.500 L 433.500 441.500 L 409.500 441.500 L 409.500 429.500 Z" />
</g>
<g id="part-76">
<path d="M 616.150 441.131 L 633.150 441.131 L 633.150 462.131 L 616.150 462.131 L 616.150 441.131 Z" />
</g>
<g id="part-77">
<path d="M 570.000 376.000 L 580.000 376.000 L 580.000 384.000 L 570.000 384.000 L 570.000 376.000 Z" />
</g>
<g id="part-78">
<path d="M 688.976 379.409 L 715.976 379.409 L 715.976 396.409 L 688.976 396.409 L 688.976 379.409 Z" />
</g>
<g id="part-79">
<path d="M 635.150 441.131 L 655.150 441.131 L 655.150 467.131 L 635.150 467.131 L 635.150 441.131 Z" />
</g>
</g>
<text x="10" y="20" font-size="14" fill="#222">many_small_parts / Balanced</text>
</svg>
