<svg xmlns="http://www.w3.org/2000/svg" width="1150.000" height="760.000" viewBox="0 0 1150.000 760.000">
<rect x="0" y="0" width="1150.000" height="760.000" fill="#f7f7f2" />
<g fill="none" stroke="#2a2a2a" stroke-width="1.2">
<path d="M 0.000 0.000 L 1150.000 0.000 L 1150.000 760.000 L 0.000 760.000 L 0.000 0.000 Z" stroke="#1f5f8b" />
</g>
<g fill="#86b8e7" fill-opacity="0.58" stroke="#163b5c" stroke-width="0.8">
<g id="part-0">
<path d="M 673.000 8.000 L 708.000 8.000 L 708.000 41.000 L 673.000 41.000 L 673.000 8.000 Z" />
<path d="M 684.200 18.560 L 684.200 30.440 L 696.800 30.440 L 696.800 18.560 L 684.200 18.560 Z" fill="#f7f7f2" fill-opacity="1" stroke="#163b5c" />
</g>
<g id="part-1">
<path d="M 8.000 8.000 L 34.000 8.000 L 34.000 64.000 L 8.000 64.000 L 8.000 8.000 Z" />
<path d="M 16.840 18.080 L 16.840 30.400 L 28.280 30.400 L 28.280 18.080 L 16.840 18.080 Z" fill="#f7f7f2" fill-opacity="1" stroke="#163b5c" />
<path d="M 16.840 41.600 L 16.840 53.920 L 28.280 53.920 L 28.280 41.600 L 16.840 41.600 Z" fill="#f7f7f2" fill-opacity="1" stroke="#163b5c" />
</g>
<g id="part-2">
<path d="M 788.000 8.000 L 834.000 8.000 L 834.000 14.380 L 803.640 14.380 L 803.640 30.620 L 834.000 30.620 L 834.000 37.000 L 788.000 37.000 L 788.000 8.000 Z" />
</g>
<g id="part-3">
<path d="M 8.000 66.000 L 32.000 70.000 L 25.280 90.000 L 11.000 85.680 L 8.000 66.000 Z" />
</g>
<g id="part-4">
<path d="M 853.017 71.939 L 851.747 75.183 L 848.340 77.397 L 843.879 77.878 L 839.778 76.473 L 837.341 73.629 L 837.341 70.249 L 839.778 67.404 L 843.879 66.000 L 848.340 66.481 L 851.747 68.695 L 853.017 71.939 Z" />
</g>
<g id="part-5">
<path d="M 291.344 66.000 L 301.344 66.000 L 301.344 86.000 L 291.344 86.000 L 291.344 66.000 Z" />
</g>
<g id="part-6">
<path d="M 855.000 8.000 L 882.000 8.000 L 882.000 37.000 L 855.000 37.000 L 855.000 8.000 Z" />
</g>
<g id="part-7">
<path d="M 499.690 66.000 L 519.690 66.000 L 519.690 82.000 L 499.690 82.000 L 499.690 66.000 Z" />
</g>
<g id="part-8">
<path d="M 1085.000 8.000 L 1098.000 8.000 L 1098.000 33.000 L 1085.000 33.000 L 1085.000 8.000 Z" />
</g>
<g id="part-9">
<path d="M 767.341 66.000 L 797.341 66.000 L 797.341 78.000 L 767.341 78.000 L 767.341 66.000 Z" />
</g>
<g id="part-10">
<path d="M 604.000 8.000 L 641.000 8.000 L 641.000 43.000 L 604.000 43.000 L 604.000 8.000 Z" />
<path d="M 615.840 19.200 L 615.840 31.800 L 629.160 31.800 L 629.160 19.200 L 615.840 19.200 Z" fill="#f7f7f2" fill-opacity="1" stroke="#163b5c" />
</g>
<g id="part-11">
<path d="M 343.000 8.000 L 371.000 8.000 L 371.000 50.000 L 343.000 50.000 L 343.000 8.000 Z" />
<path d="M 352.520 15.560 L 352.520 24.800 L 364.840 24.800 L 364.840 15.560 L 352.520 15.560 Z" fill="#f7f7f2" fill-opacity="1" stroke="#163b5c" />
<path d="M 352.520 33.200 L 352.520 42.440 L 364.840 42.440 L 364.840 33.200 L 352.520 33.200 Z" fill="#f7f7f2" fill-opacity="1" stroke="#163b5c" />
</g>
<g id="part-12">
<path d="M 738.000 8.000 L 786.000 8.000 L 786.000 14.820 L 754.320 14.820 L 754.320 32.180 L 786.000 32.180 L 786.000 39.000 L 738.000 39.000 L 738.000 8.000 Z" />
</g>
<g id="part-13">
<path d="M 985.000 8.000 L 1011.000 12.000 L 1003.720 34.000 L 988.000 29.320 L 985.000 8.000 Z" />
</g>
<g id="part-14">
<path d="M 765.341 72.000 L 764.001 75.000 L 760.341 77.196 L 755.341 78.000 L 750.341 77.196 L 746.681 75.000 L 745.341 72.000 L 746.681 69.000 L 750.341 66.804 L 755.341 66.000 L 760.341 66.804 L 764.001 69.000 L 765.341 72.000 Z" />
</g>
<g id="part-15">
<path d="M 230.344 66.000 L 242.344 66.000 L 242.344 88.000 L 230.344 88.000 L 230.344 66.000 Z" />
</g>
<g id="part-16">
<path d="M 990.017 66.000 L 1019.017 66.000 L 1019.017 75.000 L 990.017 75.000 L 990.017 66.000 Z" />
</g>
<g id="part-17">
<path d="M 431.690 66.000 L 453.690 66.000 L 453.690 84.000 L 431.690 84.000 L 431.690 66.000 Z" />
</g>
<g id="part-18">
<path d="M 968.000 8.000 L 983.000 8.000 L 983.000 35.000 L 968.000 35.000 L 968.000 8.000 Z" />
</g>
<g id="part-19">
<path d="M 651.341 66.000 L 683.341 66.000 L 683.341 80.000 L 651.341 80.000 L 651.341 66.000 Z" />
</g>
<g id="part-20">
<path d="M 531.000 8.000 L 570.000 8.000 L 570.000 45.000 L 531.000 45.000 L 531.000 8.000 Z" />
<path d="M 543.480 19.840 L 543.480 33.160 L 557.520 33.160 L 557.520 19.840 L 543.480 19.840 Z" fill="#f7f7f2" fill-opacity="1" stroke="#163b5c" />
</g>
<g id="part-21">
<path d="M 311.000 8.000 L 341.000 8.000 L 341.000 50.000 L 311.000 50.000 L 311.000 8.000 Z" />
<path d="M 321.200 15.560 L 321.200 24.800 L 334.400 24.800 L 334.400 15.560 L 321.200 15.560 Z" fill="#f7f7f2" fill-opacity="1" stroke="#163b5c" />
<path d="M 321.200 33.200 L 321.200 42.440 L 334.400 42.440 L 334.400 33.200 L 321.200 33.200 Z" fill="#f7f7f2" fill-opacity="1" stroke="#163b5c" />
</g>
<g id="part-22">
<path d="M 710.000 8.000 L 736.000 8.000 L 736.000 15.260 L 718.840 15.260 L 718.840 33.740 L 736.000 33.740 L 736.000 41.000 L 710.000 41.000 L 710.000 8.000 Z" />
</g>
<g id="part-23">
<path d="M 904.000 8.000 L 932.000 12.000 L 924.160 36.000 L 907.000 30.960 L 904.000 8.000 Z" />
</g>
<g id="part-24">
<path d="M 541.690 74.000 L 540.350 78.000 L 536.690 80.928 L 531.690 82.000 L 526.690 80.928 L 523.030 78.000 L 521.690 74.000 L 523.030 70.000 L 526.690 67.072 L 531.690 66.000 L 536.690 67.072 L 540.350 70.000 L 541.690 74.000 Z" />
</g>
<g id="part-25">
<path d="M 64.000 66.000 L 78.000 66.000 L 78.000 90.000 L 64.000 90.000 L 64.000 66.000 Z" />
</g>
<g id="part-26">
<path d="M 878.017 66.000 L 909.017 66.000 L 909.017 77.000 L 878.017 77.000 L 878.017 66.000 Z" />
</g>
<g id="part-27">
<path d="M 319.344 66.000 L 343.344 66.000 L 343.344 86.000 L 319.344 86.000 L 319.344 66.000 Z" />
</g>
<g id="part-28">
<path d="M 836.000 8.000 L 853.000 8.000 L 853.000 37.000 L 836.000 37.000 L 836.000 8.000 Z" />
</g>
<g id="part-29">
<path d="M 543.690 66.000 L 553.690 66.000 L 553.690 82.000 L 543.690 82.000 L 543.690 66.000 Z" />
</g>
<g id="part-30">
<path d="M 488.000 8.000 L 529.000 8.000 L 529.000 47.000 L 488.000 47.000 L 488.000 8.000 Z" />
<path d="M 501.120 20.480 L 501.120 34.520 L 515.880 34.520 L 515.880 20.480 L 501.120 20.480 Z" fill="#f7f7f2" fill-opacity="1" stroke="#163b5c" />
</g>
<g id="part-31">
<path d="M 241.000 8.000 L 273.000 8.000 L 273.000 50.000 L 241.000 50.000 L 241.000 8.000 Z" />
<path d="M 251.880 15.560 L 251.880 24.800 L 265.960 24.800 L 265.960 15.560 L 251.880 15.560 Z" fill="#f7f7f2" fill-opacity="1" stroke="#163b5c" />
<path d="M 251.880 33.200 L 251.880 42.440 L 265.960 42.440 L 265.960 33.200 L 251.880 33.200 Z" fill="#f7f7f2" fill-opacity="1" stroke="#163b5c" />
</g>
<g id="part-32">
<path d="M 643.000 8.000 L 671.000 8.000 L 671.000 15.700 L 652.520 15.700 L 652.520 35.300 L 671.000 35.300 L 671.000 43.000 L 643.000 43.000 L 643.000 8.000 Z" />
</g>
<g id="part-33">
<path d="M 1055.017 66.000 L 1085.017 70.000 L 1076.617 74.000 L 1058.017 72.560 L 1055.017 66.000 Z" />
</g>
<g id="part-34">
<path d="M 595.341 73.942 L 593.967 77.659 L 590.158 80.526 L 584.788 81.883 L 579.086 81.422 L 574.359 79.247 L 571.690 75.856 L 571.690 72.027 L 574.359 68.637 L 579.086 66.462 L 584.788 66.000 L 590.158 67.358 L 593.967 70.224 L 595.341 73.942 Z" />
</g>
<g id="part-35">
<path d="M 1067.000 8.000 L 1083.000 8.000 L 1083.000 34.000 L 1067.000 34.000 L 1067.000 8.000 Z" />
</g>
<g id="part-36">
<path d="M 685.341 66.000 L 718.341 66.000 L 718.341 79.000 L 685.341 79.000 L 685.341 66.000 Z" />
</g>
<g id="part-37">
<path d="M 244.344 66.000 L 270.344 66.000 L 270.344 88.000 L 244.344 88.000 L 244.344 66.000 Z" />
</g>
<g id="part-38">
<path d="M 969.017 66.000 L 988.017 66.000 L 988.017 75.000 L 969.017 75.000 L 969.017 66.000 Z" />
</g>
<g id="part-39">
<path d="M 417.690 66.000 L 429.690 66.000 L 429.690 84.000 L 417.690 84.000 L 417.690 66.000 Z" />
</g>
<g id="part-40">
<path d="M 409.000 8.000 L 452.000 8.000 L 452.000 49.000 L 409.000 49.000 L 409.000 8.000 Z" />
<path d="M 422.760 21.120 L 422.760 35.880 L 438.240 35.880 L 438.240 21.120 L 422.760 21.120 Z" fill="#f7f7f2" fill-opacity="1" stroke="#163b5c" />
</g>
<g id="part-41">
<path d="M 275.000 8.000 L 309.000 8.000 L 309.000 50.000 L 275.000 50.000 L 275.000 8.000 Z" />
<path d="M 286.560 15.560 L 286.560 24.800 L 301.520 24.800 L 301.520 15.560 L 286.560 15.560 Z" fill="#f7f7f2" fill-opacity="1" stroke="#163b5c" />
<path d="M 286.560 33.200 L 286.560 42.440 L 301.520 42.440 L 301.520 33.200 L 286.560 33.200 Z" fill="#f7f7f2" fill-opacity="1" stroke="#163b5c" />
</g>
<g id="part-42">
<path d="M 572.000 8.000 L 602.000 8.000 L 602.000 16.140 L 582.200 16.140 L 582.200 36.860 L 602.000 36.860 L 602.000 45.000 L 572.000 45.000 L 572.000 8.000 Z" />
</g>
<g id="part-43">
<path d="M 911.017 66.000 L 943.017 70.000 L 934.057 76.000 L 914.017 74.200 L 911.017 66.000 Z" />
</g>
<g id="part-44">
<path d="M 398.690 75.927 L 397.315 80.574 L 393.507 84.157 L 388.136 85.854 L 382.435 85.277 L 377.708 82.558 L 375.038 78.320 L 375.038 73.534 L 377.708 69.296 L 382.435 66.577 L 388.136 66.000 L 393.507 67.697 L 397.315 71.280 L 398.690 75.927 Z" />
</g>
<g id="part-45">
<path d="M 884.000 8.000 L 902.000 8.000 L 902.000 36.000 L 884.000 36.000 L 884.000 8.000 Z" />
</g>
<g id="part-46">
<path d="M 597.341 66.000 L 608.341 66.000 L 608.341 81.000 L 597.341 81.000 L 597.341 66.000 Z" />
</g>
<g id="part-47">
<path d="M 34.000 66.000 L 62.000 66.000 L 62.000 90.000 L 34.000 90.000 L 34.000 66.000 Z" />
</g>
<g id="part-48">
<path d="M 855.017 66.000 L 876.017 66.000 L 876.017 77.000 L 855.017 77.000 L 855.017 66.000 Z" />
</g>
<g id="part-49">
<path d="M 303.344 66.000 L 317.344 66.000 L 317.344 86.000 L 303.344 86.000 L 303.344 66.000 Z" />
</g>
<g id="part-50">
<path d="M 194.000 8.000 L 239.000 8.000 L 239.000 51.000 L 194.000 51.000 L 194.000 8.000 Z" />
<path d="M 208.400 21.760 L 208.400 37.240 L 224.600 37.240 L 224.600 21.760 L 208.400 21.760 Z" fill="#f7f7f2" fill-opacity="1" stroke="#163b5c" />
</g>
<g id="part-51">
<path d="M 118.000 8.000 L 154.000 8.000 L 154.000 52.000 L 118.000 52.000 L 118.000 8.000 Z" />
<path d="M 130.240 15.920 L 130.240 25.600 L 146.080 25.600 L 146.080 15.920 L 130.240 15.920 Z" fill="#f7f7f2" fill-opacity="1" stroke="#163b5c" />
<path d="M 130.240 34.400 L 130.240 44.080 L 146.080 44.080 L 146.080 34.400 L 130.240 34.400 Z" fill="#f7f7f2" fill-opacity="1" stroke="#163b5c" />
</g>
<g id="part-52">
<path d="M 454.000 8.000 L 486.000 8.000 L 486.000 16.580 L 464.880 16.580 L 464.880 38.420 L 486.000 38.420 L 486.000 47.000 L 454.000 47.000 L 454.000 8.000 Z" />
</g>
<g id="part-53">
<path d="M 799.341 66.000 L 809.341 70.000 L 806.541 78.000 L 802.341 75.840 L 799.341 66.000 Z" />
</g>
<g id="part-54">
<path d="M 373.038 75.945 L 371.828 80.013 L 368.406 83.377 L 363.365 85.456 L 357.575 85.890 L 352.038 84.605 L 347.712 81.823 L 345.344 78.024 L 345.344 73.866 L 347.712 70.067 L 352.038 67.285 L 357.575 66.000 L 363.365 66.435 L 368.406 68.514 L 371.828 71.878 L 373.038 75.945 Z" />
</g>
<g id="part-55">
<path d="M 1021.017 66.000 L 1041.017 66.000 L 1041.017 74.000 L 1021.017 74.000 L 1021.017 66.000 Z" />
</g>
<g id="part-56">
<path d="M 455.690 66.000 L 468.690 66.000 L 468.690 83.000 L 455.690 83.000 L 455.690 66.000 Z" />
</g>
<g id="part-57">
<path d="M 1035.000 8.000 L 1065.000 8.000 L 1065.000 34.000 L 1035.000 34.000 L 1035.000 8.000 Z" />
</g>
<g id="part-58">
<path d="M 720.341 66.000 L 743.341 66.000 L 743.341 79.000 L 720.341 79.000 L 720.341 66.000 Z" />
</g>
<g id="part-59">
<path d="M 212.344 66.000 L 228.344 66.000 L 228.344 88.000 L 212.344 88.000 L 212.344 66.000 Z" />
</g>
<g id="part-60">
<path d="M 163.344 66.000 L 210.344 66.000 L 210.344 89.000 L 163.344 89.000 L 163.344 66.000 Z" />
<path d="M 178.384 73.360 L 178.384 81.640 L 195.304 81.640 L 195.304 73.360 L 178.384 73.360 Z" fill="#f7f7f2" fill-opacity="1" stroke="#163b5c" />
</g>
<g id="part-61">
<path d="M 78.000 8.000 L 116.000 8.000 L 116.000 54.000 L 78.000 54.000 L 78.000 8.000 Z" />
<path d="M 90.920 16.280 L 90.920 26.400 L 107.640 26.400 L 107.640 16.280 L 90.920 16.280 Z" fill="#f7f7f2" fill-opacity="1" stroke="#163b5c" />
<path d="M 90.920 35.600 L 90.920 45.720 L 107.640 45.720 L 107.640 35.600 L 90.920 35.600 Z" fill="#f7f7f2" fill-opacity="1" stroke="#163b5c" />
</g>
<g id="part-62">
<path d="M 373.000 8.000 L 407.000 8.000 L 407.000 17.020 L 384.560 17.020 L 384.560 39.980 L 407.000 39.980 L 407.000 49.000 L 373.000 49.000 L 373.000 8.000 Z" />
</g>
<g id="part-63">
<path d="M 637.341 66.000 L 649.341 70.000 L 645.981 80.000 L 640.341 77.480 L 637.341 66.000 Z" />
</g>
<g id="part-64">
<path d="M 127.694 77.934 L 126.484 82.815 L 123.062 86.852 L 118.020 89.347 L 112.231 89.869 L 106.694 88.327 L 102.368 84.988 L 100.000 80.429 L 100.000 75.439 L 102.368 70.881 L 106.694 67.542 L 112.231 66.000 L 118.020 66.522 L 123.062 69.017 L 126.484 73.053 L 127.694 77.934 Z" />
</g>
<g id="part-65">
<path d="M 945.017 66.000 L 967.017 66.000 L 967.017 76.000 L 945.017 76.000 L 945.017 66.000 Z" />
</g>
<g id="part-66">
<path d="M 400.690 66.000 L 415.690 66.000 L 415.690 85.000 L 400.690 85.000 L 400.690 66.000 Z" />
</g>
<g id="part-67">
<path d="M 934.000 8.000 L 966.000 8.000 L 966.000 36.000 L 934.000 36.000 L 934.000 8.000 Z" />
</g>
<g id="part-68">
<path d="M 610.341 66.000 L 635.341 66.000 L 635.341 81.000 L 610.341 81.000 L 610.341 66.000 Z" />
</g>
<g id="part-69">
<path d="M 80.000 66.000 L 98.000 66.000 L 98.000 90.000 L 80.000 90.000 L 80.000 66.000 Z" />
</g>
<g id="part-70">
<path d="M 1100.000 8.000 L 1125.000 8.000 L 1125.000 33.000 L 1100.000 33.000 L 1100.000 8.000 Z" />
<path d="M 1108.000 16.000 L 1108.000 25.000 L 1117.000 25.000 L 1117.000 16.000 L 1108.000 16.000 Z" fill="#f7f7f2" fill-opacity="1" stroke="#163b5c" />
</g>
<g id="part-71">
<path d="M 36.000 8.000 L 76.000 8.000 L 76.000 56.000 L 36.000 56.000 L 36.000 8.000 Z" />
<path d="M 49.600 16.640 L 49.600 27.200 L 67.200 27.200 L 67.200 16.640 L 49.600 16.640 Z" fill="#f7f7f2" fill-opacity="1" stroke="#163b5c" />
<path d="M 49.600 36.800 L 49.600 47.360 L 67.200 47.360 L 67.200 36.800 L 49.600 36.800 Z" fill="#f7f7f2" fill-opacity="1" stroke="#163b5c" />
</g>
<g id="part-72">
<path d="M 156.000 8.000 L 192.000 8.000 L 192.000 17.460 L 168.240 17.460 L 168.240 41.540 L 192.000 41.540 L 192.000 51.000 L 156.000 51.000 L 156.000 8.000 Z" />
</g>
<g id="part-73">
<path d="M 555.690 66.000 L 569.690 70.000 L 565.770 82.000 L 558.690 79.120 L 555.690 66.000 Z" />
</g>
<g id="part-74">
<path d="M 161.344 77.934 L 159.961 82.815 L 156.051 86.852 L 150.289 89.347 L 143.672 89.869 L 137.344 88.327 L 132.400 84.988 L 129.694 80.429 L 129.694 75.439 L 132.400 70.881 L 137.344 67.542 L 143.672 66.000 L 150.289 66.522 L 156.051 69.017 L 159.961 73.053 L 161.344 77.934 Z" />
</g>
<g id="part-75">
<path d="M 811.341 66.000 L 835.341 66.000 L 835.341 78.000 L 811.341 78.000 L 811.341 66.000 Z" />
</g>
<g id="part-76">
<path d="M 272.344 66.000 L 289.344 66.000 L 289.344 87.000 L 272.344 87.000 L 272.344 66.000 Z" />
</g>
<g id="part-77">
<path d="M 1043.017 66.000 L 1053.017 66.000 L 1053.017 74.000 L 1043.017 74.000 L 1043.017 66.000 Z" />
</g>
<g id="part-78">
<path d="M 470.690 66.000 L 497.690 66.000 L 497.690 83.000 L 470.690 83.000 L 470.690 66.000 Z" />
</g>
<g id="part-79">
<path d="M 1013.000 8.000 L 1033.000 8.000 L 1033.000 34.000 L 1013.000 34.000 L 1013.000 8.000 Z" />
</g>
</g>
<text x="10" y="20" font-size="14" fill="#222">many_small_parts / Fast</text>
</svg>
