<svg xmlns="http://www.w3.org/2000/svg" width="1150.000" height="760.000" viewBox="0 0 1150.000 760.000">
<rect x="0" y="0" width="1150.000" height="760.000" fill="#f7f7f2" />
<g fill="none" stroke="#2a2a2a" stroke-width="1.2">
<path d="M 0.000 0.000 L 1150.000 0.000 L 1150.000 760.000 L 0.000 760.000 L 0.000 0.000 Z" stroke="#1f5f8b" />
</g>
<g fill="#86b8e7" fill-opacity="0.58" stroke="#163b5c" stroke-width="0.8">
<g id="part-0">
<path d="M 673.000 8.000 L 708.000 8.000 L 708.000 41.000 L 673.000 41.000 L 673.000 8.000 Z" />
<path d="M 684.200 18.560 L 684.200 30.440 L 696.800 30.440 L 696.800 18.560 L 684.200 18.560 Z" fill="#f7f7f2" fill-opacity="1" stroke="#163b5c" />
</g>
<g id="part-1">
<path d="M 8.000 8.000 L 34.000 8.000 L 34.000 64.000 L 8.000 64.000 L 8.000 8.000 Z" />
<path d="M 16.840 18.080 L 16.840 30.400 L 28.280 30.400 L 28.280 18.080 L 16.840 18.080 Z" fill="#f7f7f2" fill-opacity="1" stroke="#163b5c" />
<path d="M 16.840 41.600 L 16.840 53.920 L 28.280 53.920 L 28.280 41.600 L 16.840 41.600 Z" fill="#f7f7f2" fill-opacity="1" stroke="#163b5c" />
</g>
<g id="part-2">
<path d="M 788.000 8.000 L 834.000 8.000 L 834.000 14.380 L 803.640 14.380 L 803.640 30.620 L 834.000 30.620 L 834.000 37.000 L 788.000 37.000 L 788.000 8.000 Z" />
</g>
<g id="part-3">
<path d="M 279.100 52.225 L 303.100 56.225 L 296.380 76.225 L 282.100 71.905 L 279.100 52.225 Z" />
</g>
<g id="part-4">
<path d="M 223.676 99.089 L 222.406 102.333 L 218.999 104.547 L 214.537 105.028 L 210.437 103.623 L 208.000 100.779 L 208.000 97.399 L 210.437 94.554 L 214.537 93.150 L 218.999 93.631 L 222.406 95.845 L 223.676 99.089 Z" />
</g>
<g id="part-5">
<path d="M 576.344 47.000 L 586.344 47.000 L 586.344 67.000 L 576.344 67.000 L 576.344 47.000 Z" />
</g>
<g id="part-6">
<path d="M 836.000 8.000 L 863.000 8.000 L 863.000 37.000 L 836.000 37.000 L 836.000 8.000 Z" />
</g>
<g id="part-7">
<path d="M 764.690 41.300 L 784.690 41.300 L 784.690 57.300 L 764.690 57.300 L 764.690 41.300 Z" />
</g>
<g id="part-8">
<path d="M 236.000 53.175 L 249.000 53.175 L 249.000 78.175 L 236.000 78.175 L 236.000 53.175 Z" />
</g>
<g id="part-9">
<path d="M 116.000 94.100 L 146.000 94.100 L 146.000 106.100 L 116.000 106.100 L 116.000 94.100 Z" />
</g>
<g id="part-10">
<path d="M 604.000 8.000 L 641.000 8.000 L 641.000 43.000 L 604.000 43.000 L 604.000 8.000 Z" />
<path d="M 615.840 19.200 L 615.840 31.800 L 629.160 31.800 L 629.160 19.200 L 615.840 19.200 Z" fill="#f7f7f2" fill-opacity="1" stroke="#163b5c" />
</g>
<g id="part-11">
<path d="M 343.000 8.000 L 371.000 8.000 L 371.000 50.000 L 343.000 50.000 L 343.000 8.000 Z" />
<path d="M 352.520 15.560 L 352.520 24.800 L 364.840 24.800 L 364.840 15.560 L 352.520 15.560 Z" fill="#f7f7f2" fill-opacity="1" stroke="#163b5c" />
<path d="M 352.520 33.200 L 352.520 42.440 L 364.840 42.440 L 364.840 33.200 L 352.520 33.200 Z" fill="#f7f7f2" fill-opacity="1" stroke="#163b5c" />
</g>
<g id="part-12">
<path d="M 738.000 8.000 L 786.000 8.000 L 786.000 14.820 L 754.320 14.820 L 754.320 32.180 L 786.000 32.180 L 786.000 39.000 L 738.000 39.000 L 738.000 8.000 Z" />
</g>
<g id="part-13">
<path d="M 139.575 54.125 L 165.575 58.125 L 158.295 80.125 L 142.575 75.445 L 139.575 54.125 Z" />
</g>
<g id="part-14">
<path d="M 194.000 100.100 L 192.660 103.100 L 189.000 105.296 L 184.000 106.100 L 179.000 105.296 L 175.340 103.100 L 174.000 100.100 L 175.340 97.100 L 179.000 94.904 L 184.000 94.100 L 189.000 94.904 L 192.660 97.100 L 194.000 100.100 Z" />
</g>
<g id="part-15">
<path d="M 501.344 49.375 L 513.344 49.375 L 513.344 71.375 L 501.344 71.375 L 501.344 49.375 Z" />
</g>
<g id="part-16">
<path d="M 339.676 92.200 L 368.676 92.200 L 368.676 101.200 L 339.676 101.200 L 339.676 92.200 Z" />
</g>
<g id="part-17">
<path d="M 604.165 45.100 L 626.165 45.100 L 626.165 63.100 L 604.165 63.100 L 604.165 45.100 Z" />
</g>
<g id="part-18">
<path d="M 92.000 56.025 L 107.000 56.025 L 107.000 83.025 L 92.000 83.025 L 92.000 56.025 Z" />
</g>
<g id="part-19">
<path d="M 8.000 96.000 L 40.000 96.000 L 40.000 110.000 L 8.000 110.000 L 8.000 96.000 Z" />
</g>
<g id="part-20">
<path d="M 531.000 8.000 L 570.000 8.000 L 570.000 45.000 L 531.000 45.000 L 531.000 8.000 Z" />
<path d="M 543.480 19.840 L 543.480 33.160 L 557.520 33.160 L 557.520 19.840 L 543.480 19.840 Z" fill="#f7f7f2" fill-opacity="1" stroke="#163b5c" />
</g>
<g id="part-21">
<path d="M 311.000 8.000 L 341.000 8.000 L 341.000 50.000 L 311.000 50.000 L 311.000 8.000 Z" />
<path d="M 321.200 15.560 L 321.200 24.800 L 334.400 24.800 L 334.400 15.560 L 321.200 15.560 Z" fill="#f7f7f2" fill-opacity="1" stroke="#163b5c" />
<path d="M 321.200 33.200 L 321.200 42.440 L 334.400 42.440 L 334.400 33.200 L 321.200 33.200 Z" fill="#f7f7f2" fill-opacity="1" stroke="#163b5c" />
</g>
<g id="part-22">
<path d="M 710.000 8.000 L 736.000 8.000 L 736.000 15.260 L 718.840 15.260 L 718.840 33.740 L 736.000 33.740 L 736.000 41.000 L 710.000 41.000 L 710.000 8.000 Z" />
</g>
<g id="part-23">
<path d="M 41.050 58.400 L 69.050 62.400 L 61.210 86.400 L 44.050 81.360 L 41.050 58.400 Z" />
</g>
<g id="part-24">
<path d="M 752.715 49.300 L 751.375 53.300 L 747.715 56.228 L 742.715 57.300 L 737.715 56.228 L 734.055 53.300 L 732.715 49.300 L 734.055 45.300 L 737.715 42.372 L 742.715 41.300 L 747.715 42.372 L 751.375 45.300 L 752.715 49.300 Z" />
</g>
<g id="part-25">
<path d="M 327.000 52.225 L 341.000 52.225 L 341.000 76.225 L 327.000 76.225 L 327.000 52.225 Z" />
</g>
<g id="part-26">
<path d="M 225.676 93.150 L 256.676 93.150 L 256.676 104.150 L 225.676 104.150 L 225.676 93.150 Z" />
</g>
<g id="part-27">
<path d="M 534.344 47.000 L 558.344 47.000 L 558.344 67.000 L 534.344 67.000 L 534.344 47.000 Z" />
</g>
<g id="part-28">
<path d="M 865.000 8.000 L 882.000 8.000 L 882.000 37.000 L 865.000 37.000 L 865.000 8.000 Z" />
</g>
<g id="part-29">
<path d="M 802.690 66.000 L 812.690 66.000 L 812.690 82.000 L 802.690 82.000 L 802.690 66.000 Z" />
</g>
<g id="part-30">
<path d="M 454.000 8.000 L 495.000 8.000 L 495.000 47.000 L 454.000 47.000 L 454.000 8.000 Z" />
<path d="M 467.120 20.480 L 467.120 34.520 L 481.880 34.520 L 481.880 20.480 L 467.120 20.480 Z" fill="#f7f7f2" fill-opacity="1" stroke="#163b5c" />
</g>
<g id="part-31">
<path d="M 277.000 8.000 L 309.000 8.000 L 309.000 50.000 L 277.000 50.000 L 277.000 8.000 Z" />
<path d="M 287.880 15.560 L 287.880 24.800 L 301.960 24.800 L 301.960 15.560 L 287.880 15.560 Z" fill="#f7f7f2" fill-opacity="1" stroke="#163b5c" />
<path d="M 287.880 33.200 L 287.880 42.440 L 301.960 42.440 L 301.960 33.200 L 287.880 33.200 Z" fill="#f7f7f2" fill-opacity="1" stroke="#163b5c" />
</g>
<g id="part-32">
<path d="M 643.000 8.000 L 671.000 8.000 L 671.000 15.700 L 652.520 15.700 L 652.520 35.300 L 671.000 35.300 L 671.000 43.000 L 643.000 43.000 L 643.000 8.000 Z" />
</g>
<g id="part-33">
<path d="M 391.676 96.000 L 421.676 100.000 L 413.276 104.000 L 394.676 102.560 L 391.676 96.000 Z" />
</g>
<g id="part-34">
<path d="M 838.341 73.942 L 836.967 77.659 L 833.158 80.526 L 827.788 81.883 L 822.086 81.422 L 817.359 79.247 L 814.690 75.856 L 814.690 72.027 L 817.359 68.637 L 822.086 66.462 L 827.788 66.000 L 833.158 67.358 L 836.967 70.224 L 838.341 73.942 Z" />
</g>
<g id="part-35">
<path d="M 191.000 66.000 L 207.000 66.000 L 207.000 92.000 L 191.000 92.000 L 191.000 66.000 Z" />
</g>
<g id="part-36">
<path d="M 56.000 96.000 L 89.000 96.000 L 89.000 109.000 L 56.000 109.000 L 56.000 96.000 Z" />
</g>
<g id="part-37">
<path d="M 455.344 66.000 L 481.344 66.000 L 481.344 88.000 L 455.344 88.000 L 455.344 66.000 Z" />
</g>
<g id="part-38">
<path d="M 370.676 96.000 L 389.676 96.000 L 389.676 105.000 L 370.676 105.000 L 370.676 96.000 Z" />
</g>
<g id="part-39">
<path d="M 684.690 66.000 L 696.690 66.000 L 696.690 84.000 L 684.690 84.000 L 684.690 66.000 Z" />
</g>
<g id="part-40">
<path d="M 373.000 8.000 L 416.000 8.000 L 416.000 49.000 L 373.000 49.000 L 373.000 8.000 Z" />
<path d="M 386.760 21.120 L 386.760 35.880 L 402.240 35.880 L 402.240 21.120 L 386.760 21.120 Z" fill="#f7f7f2" fill-opacity="1" stroke="#163b5c" />
</g>
<g id="part-41">
<path d="M 241.000 8.000 L 275.000 8.000 L 275.000 50.000 L 241.000 50.000 L 241.000 8.000 Z" />
<path d="M 252.560 15.560 L 252.560 24.800 L 267.520 24.800 L 267.520 15.560 L 252.560 15.560 Z" fill="#f7f7f2" fill-opacity="1" stroke="#163b5c" />
<path d="M 252.560 33.200 L 252.560 42.440 L 267.520 42.440 L 267.520 33.200 L 252.560 33.200 Z" fill="#f7f7f2" fill-opacity="1" stroke="#163b5c" />
</g>
<g id="part-42">
<path d="M 572.000 8.000 L 602.000 8.000 L 602.000 16.140 L 582.200 16.140 L 582.200 36.860 L 602.000 36.860 L 602.000 45.000 L 572.000 45.000 L 572.000 8.000 Z" />
</g>
<g id="part-43">
<path d="M 281.676 96.000 L 313.676 100.000 L 304.716 106.000 L 284.676 104.200 L 281.676 96.000 Z" />
</g>
<g id="part-44">
<path d="M 641.690 75.927 L 640.315 80.574 L 636.507 84.157 L 631.136 85.854 L 625.435 85.277 L 620.708 82.558 L 618.038 78.320 L 618.038 73.534 L 620.708 69.296 L 625.435 66.577 L 631.136 66.000 L 636.507 67.697 L 640.315 71.280 L 641.690 75.927 Z" />
</g>
<g id="part-45">
<path d="M 72.000 66.000 L 90.000 66.000 L 90.000 94.000 L 72.000 94.000 L 72.000 66.000 Z" />
</g>
<g id="part-46">
<path d="M 867.341 66.000 L 878.341 66.000 L 878.341 81.000 L 867.341 81.000 L 867.341 66.000 Z" />
</g>
<g id="part-47">
<path d="M 251.000 66.000 L 279.000 66.000 L 279.000 90.000 L 251.000 90.000 L 251.000 66.000 Z" />
</g>
<g id="part-48">
<path d="M 258.676 96.000 L 279.676 96.000 L 279.676 107.000 L 258.676 107.000 L 258.676 96.000 Z" />
</g>
<g id="part-49">
<path d="M 560.344 66.000 L 574.344 66.000 L 574.344 86.000 L 560.344 86.000 L 560.344 66.000 Z" />
</g>
<g id="part-50">
<path d="M 156.000 8.000 L 201.000 8.000 L 201.000 51.000 L 156.000 51.000 L 156.000 8.000 Z" />
<path d="M 170.400 21.760 L 170.400 37.240 L 186.600 37.240 L 186.600 21.760 L 170.400 21.760 Z" fill="#f7f7f2" fill-opacity="1" stroke="#163b5c" />
</g>
<g id="part-51">
<path d="M 118.000 8.000 L 154.000 8.000 L 154.000 52.000 L 118.000 52.000 L 118.000 8.000 Z" />
<path d="M 130.240 15.920 L 130.240 25.600 L 146.080 25.600 L 146.080 15.920 L 130.240 15.920 Z" fill="#f7f7f2" fill-opacity="1" stroke="#163b5c" />
<path d="M 130.240 34.400 L 130.240 44.080 L 146.080 44.080 L 146.080 34.400 L 130.240 34.400 Z" fill="#f7f7f2" fill-opacity="1" stroke="#163b5c" />
</g>
<g id="part-52">
<path d="M 497.000 8.000 L 529.000 8.000 L 529.000 16.580 L 507.880 16.580 L 507.880 38.420 L 529.000 38.420 L 529.000 47.000 L 497.000 47.000 L 497.000 8.000 Z" />
</g>
<g id="part-53">
<path d="M 196.000 96.000 L 206.000 100.000 L 203.200 108.000 L 199.000 105.840 L 196.000 96.000 Z" />
</g>
<g id="part-54">
<path d="M 616.038 75.945 L 614.828 80.013 L 611.406 83.377 L 606.365 85.456 L 600.575 85.890 L 595.038 84.605 L 590.712 81.823 L 588.344 78.024 L 588.344 73.866 L 590.712 70.067 L 595.038 67.285 L 600.575 66.000 L 606.365 66.435 L 611.406 68.514 L 614.828 71.878 L 616.038 75.945 Z" />
</g>
<g id="part-55">
<path d="M 423.676 96.000 L 443.676 96.000 L 443.676 104.000 L 423.676 104.000 L 423.676 96.000 Z" />
</g>
<g id="part-56">
<path d="M 727.690 66.000 L 740.690 66.000 L 740.690 83.000 L 727.690 83.000 L 727.690 66.000 Z" />
</g>
<g id="part-57">
<path d="M 109.000 66.000 L 139.000 66.000 L 139.000 92.000 L 109.000 92.000 L 109.000 66.000 Z" />
</g>
<g id="part-58">
<path d="M 91.000 96.000 L 114.000 96.000 L 114.000 109.000 L 91.000 109.000 L 91.000 96.000 Z" />
</g>
<g id="part-59">
<path d="M 483.344 66.000 L 499.344 66.000 L 499.344 88.000 L 483.344 88.000 L 483.344 66.000 Z" />
</g>
<g id="part-60">
<path d="M 406.344 66.000 L 453.344 66.000 L 453.344 89.000 L 406.344 89.000 L 406.344 66.000 Z" />
<path d="M 421.384 73.360 L 421.384 81.640 L 438.304 81.640 L 438.304 73.360 L 421.384 73.360 Z" fill="#f7f7f2" fill-opacity="1" stroke="#163b5c" />
</g>
<g id="part-61">
<path d="M 78.000 8.000 L 116.000 8.000 L 116.000 54.000 L 78.000 54.000 L 78.000 8.000 Z" />
<path d="M 90.920 16.280 L 90.920 26.400 L 107.640 26.400 L 107.640 16.280 L 90.920 16.280 Z" fill="#f7f7f2" fill-opacity="1" stroke="#163b5c" />
<path d="M 90.920 35.600 L 90.920 45.720 L 107.640 45.720 L 107.640 35.600 L 90.920 35.600 Z" fill="#f7f7f2" fill-opacity="1" stroke="#163b5c" />
</g>
<g id="part-62">
<path d="M 418.000 8.000 L 452.000 8.000 L 452.000 17.020 L 429.560 17.020 L 429.560 39.980 L 452.000 39.980 L 452.000 49.000 L 418.000 49.000 L 418.000 8.000 Z" />
</g>
<g id="part-63">
<path d="M 42.000 96.000 L 54.000 100.000 L 50.640 110.000 L 45.000 107.480 L 42.000 96.000 Z" />
</g>
<g id="part-64">
<path d="M 404.344 77.934 L 403.134 82.815 L 399.712 86.852 L 394.671 89.347 L 388.881 89.869 L 383.344 88.327 L 379.018 84.988 L 376.650 80.429 L 376.650 75.439 L 379.018 70.881 L 383.344 67.542 L 388.881 66.000 L 394.671 66.522 L 399.712 69.017 L 403.134 73.053 L 404.344 77.934 Z" />
</g>
<g id="part-65">
<path d="M 315.676 96.000 L 337.676 96.000 L 337.676 106.000 L 315.676 106.000 L 315.676 96.000 Z" />
</g>
<g id="part-66">
<path d="M 643.690 66.000 L 658.690 66.000 L 658.690 85.000 L 643.690 85.000 L 643.690 66.000 Z" />
</g>
<g id="part-67">
<path d="M 8.000 66.000 L 40.000 66.000 L 40.000 94.000 L 8.000 94.000 L 8.000 66.000 Z" />
</g>
<g id="part-68">
<path d="M 840.341 66.000 L 865.341 66.000 L 865.341 81.000 L 840.341 81.000 L 840.341 66.000 Z" />
</g>
<g id="part-69">
<path d="M 307.000 66.000 L 325.000 66.000 L 325.000 90.000 L 307.000 90.000 L 307.000 66.000 Z" />
</g>
<g id="part-70">
<path d="M 209.000 66.000 L 234.000 66.000 L 234.000 91.000 L 209.000 91.000 L 209.000 66.000 Z" />
<path d="M 217.000 74.000 L 217.000 83.000 L 226.000 83.000 L 226.000 74.000 L 217.000 74.000 Z" fill="#f7f7f2" fill-opacity="1" stroke="#163b5c" />
</g>
<g id="part-71">
<path d="M 36.000 8.000 L 76.000 8.000 L 76.000 56.000 L 36.000 56.000 L 36.000 8.000 Z" />
<path d="M 49.600 16.640 L 49.600 27.200 L 67.200 27.200 L 67.200 16.640 L 49.600 16.640 Z" fill="#f7f7f2" fill-opacity="1" stroke="#163b5c" />
<path d="M 49.600 36.800 L 49.600 47.360 L 67.200 47.360 L 67.200 36.800 L 49.600 36.800 Z" fill="#f7f7f2" fill-opacity="1" stroke="#163b5c" />
</g>
<g id="part-72">
<path d="M 203.000 8.000 L 239.000 8.000 L 239.000 17.460 L 215.240 17.460 L 215.240 41.540 L 239.000 41.540 L 239.000 51.000 L 203.000 51.000 L 203.000 8.000 Z" />
</g>
<g id="part-73">
<path d="M 786.690 66.000 L 800.690 70.000 L 796.770 82.000 L 789.690 79.120 L 786.690 66.000 Z" />
</g>
<g id="part-74">
<path d="M 374.650 77.934 L 373.267 82.815 L 369.356 86.852 L 363.595 89.347 L 356.978 89.869 L 350.650 88.327 L 345.706 84.988 L 343.000 80.429 L 343.000 75.439 L 345.706 70.881 L 350.650 67.542 L 356.978 66.000 L 363.595 66.522 L 369.356 69.017 L 373.267 73.053 L 374.650 77.934 Z" />
</g>
<g id="part-75">
<path d="M 148.000 96.000 L 172.000 96.000 L 172.000 108.000 L 148.000 108.000 L 148.000 96.000 Z" />
</g>
<g id="part-76">
<path d="M 515.344 66.000 L 532.344 66.000 L 532.344 87.000 L 515.344 87.000 L 515.344 66.000 Z" />
</g>
<g id="part-77">
<path d="M 445.676 96.000 L 455.676 96.000 L 455.676 104.000 L 445.676 104.000 L 445.676 96.000 Z" />
</g>
<g id="part-78">
<path d="M 698.690 66.000 L 725.690 66.000 L 725.690 83.000 L 698.690 83.000 L 698.690 66.000 Z" />
</g>
<g id="part-79">
<path d="M 169.000 66.000 L 189.000 66.000 L 189.000 92.000 L 169.000 92.000 L 169.000 66.000 Z" />
</g>
</g>
<text x="10" y="20" font-size="14" fill="#222">many_small_parts / Balanced</text>
</svg>
