<svg xmlns="http://www.w3.org/2000/svg" width="1150.000" height="760.000" viewBox="0 0 1150.000 760.000">
<rect x="0" y="0" width="1150.000" height="760.000" fill="#f7f7f2" />
<g fill="none" stroke="#2a2a2a" stroke-width="1.2">
<path d="M 0.000 0.000 L 1150.000 0.000 L 1150.000 760.000 L 0.000 760.000 L 0.000 0.000 Z" stroke="#1f5f8b" />
</g>
<g fill="#86b8e7" fill-opacity="0.58" stroke="#163b5c" stroke-width="0.8">
<g id="part-0">
<path d="M 673.000 8.000 L 708.000 8.000 L 708.000 41.000 L 673.000 41.000 L 673.000 8.000 Z" />
<path d="M 684.200 18.560 L 684.200 30.440 L 696.800 30.440 L 696.800 18.560 L 684.200 18.560 Z" fill="#f7f7f2" fill-opacity="1" stroke="#163b5c" />
</g>
<g id="part-1">
<path d="M 8.000 8.000 L 34.000 8.000 L 34.000 64.000 L 8.000 64.000 L 8.000 8.000 Z" />
<path d="M 16.840 18.080 L 16.840 30.400 L 28.280 30.400 L 28.280 18.080 L 16.840 18.080 Z" fill="#f7f7f2" fill-opacity="1" stroke="#163b5c" />
<path d="M 16.840 41.600 L 16.840 53.920 L 28.280 53.920 L 28.280 41.600 L 16.840 41.600 Z" fill="#f7f7f2" fill-opacity="1" stroke="#163b5c" />
</g>
<g id="part-2">
<path d="M 8.000 66.000 L 54.000 66.000 L 54.000 72.380 L 23.640 72.380 L 23.640 88.620 L 54.000 88.620 L 54.000 95.000 L 8.000 95.000 L 8.000 66.000 Z" />
</g>
<g id="part-3">
<path d="M 375.100 51.275 L 399.100 55.275 L 392.380 75.275 L 378.100 70.955 L 375.100 51.275 Z" />
</g>
<g id="part-4">
<path d="M 403.902 96.764 L 402.632 100.008 L 399.226 102.222 L 394.764 102.703 L 390.663 101.298 L 388.226 98.454 L 388.226 95.074 L 390.663 92.229 L 394.764 90.825 L 399.226 91.306 L 402.632 93.520 L 403.902 96.764 Z" />
</g>
<g id="part-5">
<path d="M 672.344 44.625 L 682.344 44.625 L 682.344 64.625 L 672.344 64.625 L 672.344 44.625 Z" />
</g>
<g id="part-6">
<path d="M 56.000 58.400 L 83.000 58.400 L 83.000 87.400 L 56.000 87.400 L 56.000 58.400 Z" />
</g>
<g id="part-7">
<path d="M 74.000 89.400 L 94.000 89.400 L 94.000 105.400 L 74.000 105.400 L 74.000 89.400 Z" />
</g>
<g id="part-8">
<path d="M 332.000 52.225 L 345.000 52.225 L 345.000 77.225 L 332.000 77.225 L 332.000 52.225 Z" />
</g>
<g id="part-9">
<path d="M 297.651 93.200 L 327.651 93.200 L 327.651 105.200 L 297.651 105.200 L 297.651 93.200 Z" />
</g>
<g id="part-10">
<path d="M 604.000 8.000 L 641.000 8.000 L 641.000 43.000 L 604.000 43.000 L 604.000 8.000 Z" />
<path d="M 615.840 19.200 L 615.840 31.800 L 629.160 31.800 L 629.160 19.200 L 615.840 19.200 Z" fill="#f7f7f2" fill-opacity="1" stroke="#163b5c" />
</g>
<g id="part-11">
<path d="M 343.000 8.000 L 371.000 8.000 L 371.000 50.000 L 343.000 50.000 L 343.000 8.000 Z" />
<path d="M 352.520 15.560 L 352.520 24.800 L 364.840 24.800 L 364.840 15.560 L 352.520 15.560 Z" fill="#f7f7f2" fill-opacity="1" stroke="#163b5c" />
<path d="M 352.520 33.200 L 352.520 42.440 L 364.840 42.440 L 364.840 33.200 L 352.520 33.200 Z" fill="#f7f7f2" fill-opacity="1" stroke="#163b5c" />
</g>
<g id="part-12">
<path d="M 738.000 8.000 L 786.000 8.000 L 786.000 14.820 L 754.320 14.820 L 754.320 32.180 L 786.000 32.180 L 786.000 39.000 L 738.000 39.000 L 738.000 8.000 Z" />
</g>
<g id="part-13">
<path d="M 235.575 53.175 L 261.575 57.175 L 254.295 79.175 L 238.575 74.495 L 235.575 53.175 Z" />
</g>
<g id="part-14">
<path d="M 375.651 98.250 L 374.312 101.250 L 370.651 103.446 L 365.651 104.250 L 360.651 103.446 L 356.991 101.250 L 355.651 98.250 L 356.991 95.250 L 360.651 93.054 L 365.651 92.250 L 370.651 93.054 L 374.312 95.250 L 375.651 98.250 Z" />
</g>
<g id="part-15">
<path d="M 597.344 47.000 L 609.344 47.000 L 609.344 69.000 L 597.344 69.000 L 597.344 47.000 Z" />
</g>
<g id="part-16">
<path d="M 521.327 91.300 L 550.327 91.300 L 550.327 100.300 L 521.327 100.300 L 521.327 91.300 Z" />
</g>
<g id="part-17">
<path d="M 738.165 41.300 L 760.165 41.300 L 760.165 59.300 L 738.165 59.300 L 738.165 41.300 Z" />
</g>
<g id="part-18">
<path d="M 188.000 53.175 L 203.000 53.175 L 203.000 80.175 L 188.000 80.175 L 188.000 53.175 Z" />
</g>
<g id="part-19">
<path d="M 189.651 94.150 L 221.651 94.150 L 221.651 108.150 L 189.651 108.150 L 189.651 94.150 Z" />
</g>
<g id="part-20">
<path d="M 531.000 8.000 L 570.000 8.000 L 570.000 45.000 L 531.000 45.000 L 531.000 8.000 Z" />
<path d="M 543.480 19.840 L 543.480 33.160 L 557.520 33.160 L 557.520 19.840 L 543.480 19.840 Z" fill="#f7f7f2" fill-opacity="1" stroke="#163b5c" />
</g>
<g id="part-21">
<path d="M 311.000 8.000 L 341.000 8.000 L 341.000 50.000 L 311.000 50.000 L 311.000 8.000 Z" />
<path d="M 321.200 15.560 L 321.200 24.800 L 334.400 24.800 L 334.400 15.560 L 321.200 15.560 Z" fill="#f7f7f2" fill-opacity="1" stroke="#163b5c" />
<path d="M 321.200 33.200 L 321.200 42.440 L 334.400 42.440 L 334.400 33.200 L 321.200 33.200 Z" fill="#f7f7f2" fill-opacity="1" stroke="#163b5c" />
</g>
<g id="part-22">
<path d="M 710.000 8.000 L 736.000 8.000 L 736.000 15.260 L 718.840 15.260 L 718.840 33.740 L 736.000 33.740 L 736.000 41.000 L 710.000 41.000 L 710.000 8.000 Z" />
</g>
<g id="part-23">
<path d="M 136.575 54.125 L 164.575 58.125 L 156.735 82.125 L 139.575 77.085 L 136.575 54.125 Z" />
</g>
<g id="part-24">
<path d="M 72.000 102.150 L 70.660 106.150 L 67.000 109.078 L 62.000 110.150 L 57.000 109.078 L 53.340 106.150 L 52.000 102.150 L 53.340 98.150 L 57.000 95.222 L 62.000 94.150 L 67.000 95.222 L 70.660 98.150 L 72.000 102.150 Z" />
</g>
<g id="part-25">
<path d="M 423.000 51.275 L 437.000 51.275 L 437.000 75.275 L 423.000 75.275 L 423.000 51.275 Z" />
</g>
<g id="part-26">
<path d="M 405.902 92.250 L 436.902 92.250 L 436.902 103.250 L 405.902 103.250 L 405.902 92.250 Z" />
</g>
<g id="part-27">
<path d="M 630.344 45.100 L 654.344 45.100 L 654.344 65.100 L 630.344 65.100 L 630.344 45.100 Z" />
</g>
<g id="part-28">
<path d="M 85.000 56.025 L 102.000 56.025 L 102.000 85.025 L 85.000 85.025 L 85.000 56.025 Z" />
</g>
<g id="part-29">
<path d="M 112.000 96.050 L 122.000 96.050 L 122.000 112.050 L 112.000 112.050 L 112.000 96.050 Z" />
</g>
<g id="part-30">
<path d="M 454.000 8.000 L 495.000 8.000 L 495.000 47.000 L 454.000 47.000 L 454.000 8.000 Z" />
<path d="M 467.120 20.480 L 467.120 34.520 L 481.880 34.520 L 481.880 20.480 L 467.120 20.480 Z" fill="#f7f7f2" fill-opacity="1" stroke="#163b5c" />
</g>
<g id="part-31">
<path d="M 277.000 8.000 L 309.000 8.000 L 309.000 50.000 L 277.000 50.000 L 277.000 8.000 Z" />
<path d="M 287.880 15.560 L 287.880 24.800 L 301.960 24.800 L 301.960 15.560 L 287.880 15.560 Z" fill="#f7f7f2" fill-opacity="1" stroke="#163b5c" />
<path d="M 287.880 33.200 L 287.880 42.440 L 301.960 42.440 L 301.960 33.200 L 287.880 33.200 Z" fill="#f7f7f2" fill-opacity="1" stroke="#163b5c" />
</g>
<g id="part-32">
<path d="M 643.000 8.000 L 671.000 8.000 L 671.000 15.700 L 652.520 15.700 L 652.520 35.300 L 671.000 35.300 L 671.000 43.000 L 643.000 43.000 L 643.000 8.000 Z" />
</g>
<g id="part-33">
<path d="M 570.477 90.350 L 600.477 94.350 L 592.077 98.350 L 573.477 96.910 L 570.477 90.350 Z" />
</g>
<g id="part-34">
<path d="M 147.651 103.992 L 146.277 107.709 L 142.468 110.576 L 137.098 111.933 L 131.396 111.472 L 126.669 109.297 L 124.000 105.906 L 124.000 102.077 L 126.669 98.687 L 131.396 96.512 L 137.098 96.050 L 142.468 97.408 L 146.277 100.274 L 147.651 103.992 Z" />
</g>
<g id="part-35">
<path d="M 287.000 52.225 L 303.000 52.225 L 303.000 78.225 L 287.000 78.225 L 287.000 52.225 Z" />
</g>
<g id="part-36">
<path d="M 237.651 97.000 L 270.651 97.000 L 270.651 110.000 L 237.651 110.000 L 237.651 97.000 Z" />
</g>
<g id="part-37">
<path d="M 551.344 66.000 L 577.344 66.000 L 577.344 88.000 L 551.344 88.000 L 551.344 66.000 Z" />
</g>
<g id="part-38">
<path d="M 552.327 97.000 L 571.327 97.000 L 571.327 106.000 L 552.327 106.000 L 552.327 97.000 Z" />
</g>
<g id="part-39">
<path d="M 780.690 66.000 L 792.690 66.000 L 792.690 84.000 L 780.690 84.000 L 780.690 66.000 Z" />
</g>
<g id="part-40">
<path d="M 373.000 8.000 L 416.000 8.000 L 416.000 49.000 L 373.000 49.000 L 373.000 8.000 Z" />
<path d="M 386.760 21.120 L 386.760 35.880 L 402.240 35.880 L 402.240 21.120 L 386.760 21.120 Z" fill="#f7f7f2" fill-opacity="1" stroke="#163b5c" />
</g>
<g id="part-41">
<path d="M 241.000 8.000 L 275.000 8.000 L 275.000 50.000 L 241.000 50.000 L 241.000 8.000 Z" />
<path d="M 252.560 15.560 L 252.560 24.800 L 267.520 24.800 L 267.520 15.560 L 252.560 15.560 Z" fill="#f7f7f2" fill-opacity="1" stroke="#163b5c" />
<path d="M 252.560 33.200 L 252.560 42.440 L 267.520 42.440 L 267.520 33.200 L 252.560 33.200 Z" fill="#f7f7f2" fill-opacity="1" stroke="#163b5c" />
</g>
<g id="part-42">
<path d="M 572.000 8.000 L 602.000 8.000 L 602.000 16.140 L 582.200 16.140 L 582.200 36.860 L 602.000 36.860 L 602.000 45.000 L 572.000 45.000 L 572.000 8.000 Z" />
</g>
<g id="part-43">
<path d="M 463.327 97.000 L 495.327 101.000 L 486.367 107.000 L 466.327 105.200 L 463.327 97.000 Z" />
</g>
<g id="part-44">
<path d="M 737.690 75.927 L 736.315 80.574 L 732.507 84.157 L 727.136 85.854 L 721.435 85.277 L 716.708 82.558 L 714.038 78.320 L 714.038 73.534 L 716.708 69.296 L 721.435 66.577 L 727.136 66.000 L 732.507 67.697 L 736.315 71.280 L 737.690 75.927 Z" />
</g>
<g id="part-45">
<path d="M 168.000 66.000 L 186.000 66.000 L 186.000 94.000 L 168.000 94.000 L 168.000 66.000 Z" />
</g>
<g id="part-46">
<path d="M 176.651 97.000 L 187.651 97.000 L 187.651 112.000 L 176.651 112.000 L 176.651 97.000 Z" />
</g>
<g id="part-47">
<path d="M 347.000 66.000 L 375.000 66.000 L 375.000 90.000 L 347.000 90.000 L 347.000 66.000 Z" />
</g>
<g id="part-48">
<path d="M 440.327 97.000 L 461.327 97.000 L 461.327 108.000 L 440.327 108.000 L 440.327 97.000 Z" />
</g>
<g id="part-49">
<path d="M 656.344 66.000 L 670.344 66.000 L 670.344 86.000 L 656.344 86.000 L 656.344 66.000 Z" />
</g>
<g id="part-50">
<path d="M 156.000 8.000 L 201.000 8.000 L 201.000 51.000 L 156.000 51.000 L 156.000 8.000 Z" />
<path d="M 170.400 21.760 L 170.400 37.240 L 186.600 37.240 L 186.600 21.760 L 170.400 21.760 Z" fill="#f7f7f2" fill-opacity="1" stroke="#163b5c" />
</g>
<g id="part-51">
<path d="M 118.000 8.000 L 154.000 8.000 L 154.000 52.000 L 118.000 52.000 L 118.000 8.000 Z" />
<path d="M 130.240 15.920 L 130.240 25.600 L 146.080 25.600 L 146.080 15.920 L 130.240 15.920 Z" fill="#f7f7f2" fill-opacity="1" stroke="#163b5c" />
<path d="M 130.240 34.400 L 130.240 44.080 L 146.080 44.080 L 146.080 34.400 L 130.240 34.400 Z" fill="#f7f7f2" fill-opacity="1" stroke="#163b5c" />
</g>
<g id="part-52">
<path d="M 497.000 8.000 L 529.000 8.000 L 529.000 16.580 L 507.880 16.580 L 507.880 38.420 L 529.000 38.420 L 529.000 47.000 L 497.000 47.000 L 497.000 8.000 Z" />
</g>
<g id="part-53">
<path d="M 377.651 97.000 L 387.651 101.000 L 384.851 109.000 L 380.651 106.840 L 377.651 97.000 Z" />
</g>
<g id="part-54">
<path d="M 712.038 75.945 L 710.828 80.013 L 707.406 83.377 L 702.365 85.456 L 696.575 85.890 L 691.038 84.605 L 686.712 81.823 L 684.344 78.024 L 684.344 73.866 L 686.712 70.067 L 691.038 67.285 L 696.575 66.000 L 702.365 66.435 L 707.406 68.514 L 710.828 71.878 L 712.038 75.945 Z" />
</g>
<g id="part-55">
<path d="M 605.327 97.000 L 625.327 97.000 L 625.327 105.000 L 605.327 105.000 L 605.327 97.000 Z" />
</g>
<g id="part-56">
<path d="M 37.000 97.000 L 50.000 97.000 L 50.000 114.000 L 37.000 114.000 L 37.000 97.000 Z" />
</g>
<g id="part-57">
<path d="M 205.000 66.000 L 235.000 66.000 L 235.000 92.000 L 205.000 92.000 L 205.000 66.000 Z" />
</g>
<g id="part-58">
<path d="M 272.651 97.000 L 295.651 97.000 L 295.651 110.000 L 272.651 110.000 L 272.651 97.000 Z" />
</g>
<g id="part-59">
<path d="M 579.344 66.000 L 595.344 66.000 L 595.344 88.000 L 579.344 88.000 L 579.344 66.000 Z" />
</g>
<g id="part-60">
<path d="M 502.344 66.000 L 549.344 66.000 L 549.344 89.000 L 502.344 89.000 L 502.344 66.000 Z" />
<path d="M 517.384 73.360 L 517.384 81.640 L 534.304 81.640 L 534.304 73.360 L 517.384 73.360 Z" fill="#f7f7f2" fill-opacity="1" stroke="#163b5c" />
</g>
<g id="part-61">
<path d="M 78.000 8.000 L 116.000 8.000 L 116.000 54.000 L 78.000 54.000 L 78.000 8.000 Z" />
<path d="M 90.920 16.280 L 90.920 26.400 L 107.640 26.400 L 107.640 16.280 L 90.920 16.280 Z" fill="#f7f7f2" fill-opacity="1" stroke="#163b5c" />
<path d="M 90.920 35.600 L 90.920 45.720 L 107.640 45.720 L 107.640 35.600 L 90.920 35.600 Z" fill="#f7f7f2" fill-opacity="1" stroke="#163b5c" />
</g>
<g id="part-62">
<path d="M 418.000 8.000 L 452.000 8.000 L 452.000 17.020 L 429.560 17.020 L 429.560 39.980 L 452.000 39.980 L 452.000 49.000 L 418.000 49.000 L 418.000 8.000 Z" />
</g>
<g id="part-63">
<path d="M 223.651 97.000 L 235.651 101.000 L 232.291 111.000 L 226.651 108.480 L 223.651 97.000 Z" />
</g>
<g id="part-64">
<path d="M 500.344 77.934 L 499.134 82.815 L 495.712 86.852 L 490.671 89.347 L 484.881 89.869 L 479.344 88.327 L 475.018 84.988 L 472.650 80.429 L 472.650 75.439 L 475.018 70.881 L 479.344 67.542 L 484.881 66.000 L 490.671 66.522 L 495.712 69.017 L 499.134 73.053 L 500.344 77.934 Z" />
</g>
<g id="part-65">
<path d="M 497.327 97.000 L 519.327 97.000 L 519.327 107.000 L 497.327 107.000 L 497.327 97.000 Z" />
</g>
<g id="part-66">
<path d="M 739.690 66.000 L 754.690 66.000 L 754.690 85.000 L 739.690 85.000 L 739.690 66.000 Z" />
</g>
<g id="part-67">
<path d="M 104.000 66.000 L 136.000 66.000 L 136.000 94.000 L 104.000 94.000 L 104.000 66.000 Z" />
</g>
<g id="part-68">
<path d="M 149.651 97.000 L 174.651 97.000 L 174.651 112.000 L 149.651 112.000 L 149.651 97.000 Z" />
</g>
<g id="part-69">
<path d="M 403.000 66.000 L 421.000 66.000 L 421.000 90.000 L 403.000 90.000 L 403.000 66.000 Z" />
</g>
<g id="part-70">
<path d="M 305.000 66.000 L 330.000 66.000 L 330.000 91.000 L 305.000 91.000 L 305.000 66.000 Z" />
<path d="M 313.000 74.000 L 313.000 83.000 L 322.000 83.000 L 322.000 74.000 L 313.000 74.000 Z" fill="#f7f7f2" fill-opacity="1" stroke="#163b5c" />
</g>
<g id="part-71">
<path d="M 36.000 8.000 L 76.000 8.000 L 76.000 56.000 L 36.000 56.000 L 36.000 8.000 Z" />
<path d="M 49.600 16.640 L 49.600 27.200 L 67.200 27.200 L 67.200 16.640 L 49.600 16.640 Z" fill="#f7f7f2" fill-opacity="1" stroke="#163b5c" />
<path d="M 49.600 36.800 L 49.600 47.360 L 67.200 47.360 L 67.200 36.800 L 49.600 36.800 Z" fill="#f7f7f2" fill-opacity="1" stroke="#163b5c" />
</g>
<g id="part-72">
<path d="M 203.000 8.000 L 239.000 8.000 L 239.000 17.460 L 215.240 17.460 L 215.240 41.540 L 239.000 41.540 L 239.000 51.000 L 203.000 51.000 L 203.000 8.000 Z" />
</g>
<g id="part-73">
<path d="M 96.000 97.000 L 110.000 101.000 L 106.080 113.000 L 99.000 110.120 L 96.000 97.000 Z" />
</g>
<g id="part-74">
<path d="M 470.650 77.934 L 469.267 82.815 L 465.356 86.852 L 459.595 89.347 L 452.978 89.869 L 446.650 88.327 L 441.706 84.988 L 439.000 80.429 L 439.000 75.439 L 441.706 70.881 L 446.650 67.542 L 452.978 66.000 L 459.595 66.522 L 465.356 69.017 L 469.267 73.053 L 470.650 77.934 Z" />
</g>
<g id="part-75">
<path d="M 329.651 97.000 L 353.651 97.000 L 353.651 109.000 L 329.651 109.000 L 329.651 97.000 Z" />
</g>
<g id="part-76">
<path d="M 611.344 66.000 L 628.344 66.000 L 628.344 87.000 L 611.344 87.000 L 611.344 66.000 Z" />
</g>
<g id="part-77">
<path d="M 627.327 97.000 L 637.327 97.000 L 637.327 105.000 L 627.327 105.000 L 627.327 97.000 Z" />
</g>
<g id="part-78">
<path d="M 8.000 97.000 L 35.000 97.000 L 35.000 114.000 L 8.000 114.000 L 8.000 97.000 Z" />
</g>
<g id="part-79">
<path d="M 265.000 66.000 L 285.000 66.000 L 285.000 92.000 L 265.000 92.000 L 265.000 66.000 Z" />
</g>
</g>
<text x="10" y="20" font-size="14" fill="#222">many_small_parts / Maximum</text>
</svg>
