<svg xmlns="http://www.w3.org/2000/svg" width="1150.000" height="760.000" viewBox="0 0 1150.000 760.000">
<rect x="0" y="0" width="1150.000" height="760.000" fill="#f7f7f2" />
<g fill="none" stroke="#2a2a2a" stroke-width="1.2">
<path d="M 0.000 0.000 L 1150.000 0.000 L 1150.000 760.000 L 0.000 760.000 L 0.000 0.000 Z" stroke="#1f5f8b" />
</g>
<g fill="#86b8e7" fill-opacity="0.58" stroke="#163b5c" stroke-width="0.8">
<g id="part-0">
<path d="M 673.000 8.000 L 708.000 8.000 L 708.000 41.000 L 673.000 41.000 L 673.000 8.000 Z" />
<path d="M 684.200 18.560 L 684.200 30.440 L 696.800 30.440 L 696.800 18.560 L 684.200 18.560 Z" fill="#f7f7f2" fill-opacity="1" stroke="#163b5c" />
</g>
<g id="part-1">
<path d="M 8.000 8.000 L 34.000 8.000 L 34.000 64.000 L 8.000 64.000 L 8.000 8.000 Z" />
<path d="M 16.840 18.080 L 16.840 30.400 L 28.280 30.400 L 28.280 18.080 L 16.840 18.080 Z" fill="#f7f7f2" fill-opacity="1" stroke="#163b5c" />
<path d="M 16.840 41.600 L 16.840 53.920 L 28.280 53.920 L 28.280 41.600 L 16.840 41.600 Z" fill="#f7f7f2" fill-opacity="1" stroke="#163b5c" />
</g>
<g id="part-2">
<path d="M 788.000 8.000 L 834.000 8.000 L 834.000 14.380 L 803.640 14.380 L 803.640 30.620 L 834.000 30.620 L 834.000 37.000 L 788.000 37.000 L 788.000 8.000 Z" />
</g>
<g id="part-3">
<path d="M 180.000 53.175 L 204.000 57.175 L 197.280 77.175 L 183.000 72.855 L 180.000 53.175 Z" />
</g>
<g id="part-4">
<path d="M 995.017 42.489 L 993.747 45.733 L 990.340 47.947 L 985.879 48.428 L 981.778 47.023 L 979.341 44.179 L 979.341 40.799 L 981.778 37.954 L 985.879 36.550 L 990.340 37.031 L 993.747 39.245 L 995.017 42.489 Z" />
</g>
<g id="part-5">
<path d="M 475.344 49.375 L 485.344 49.375 L 485.344 69.375 L 475.344 69.375 L 475.344 49.375 Z" />
</g>
<g id="part-6">
<path d="M 836.000 8.000 L 863.000 8.000 L 863.000 37.000 L 836.000 37.000 L 836.000 8.000 Z" />
</g>
<g id="part-7">
<path d="M 663.690 45.100 L 683.690 45.100 L 683.690 61.100 L 663.690 61.100 L 663.690 45.100 Z" />
</g>
<g id="part-8">
<path d="M 135.000 54.125 L 148.000 54.125 L 148.000 79.125 L 135.000 79.125 L 135.000 54.125 Z" />
</g>
<g id="part-9">
<path d="M 887.341 38.450 L 917.341 38.450 L 917.341 50.450 L 887.341 50.450 L 887.341 38.450 Z" />
</g>
<g id="part-10">
<path d="M 604.000 8.000 L 641.000 8.000 L 641.000 43.000 L 604.000 43.000 L 604.000 8.000 Z" />
<path d="M 615.840 19.200 L 615.840 31.800 L 629.160 31.800 L 629.160 19.200 L 615.840 19.200 Z" fill="#f7f7f2" fill-opacity="1" stroke="#163b5c" />
</g>
<g id="part-11">
<path d="M 343.000 8.000 L 371.000 8.000 L 371.000 50.000 L 343.000 50.000 L 343.000 8.000 Z" />
<path d="M 352.520 15.560 L 352.520 24.800 L 364.840 24.800 L 364.840 15.560 L 352.520 15.560 Z" fill="#f7f7f2" fill-opacity="1" stroke="#163b5c" />
<path d="M 352.520 33.200 L 352.520 42.440 L 364.840 42.440 L 364.840 33.200 L 352.520 33.200 Z" fill="#f7f7f2" fill-opacity="1" stroke="#163b5c" />
</g>
<g id="part-12">
<path d="M 738.000 8.000 L 786.000 8.000 L 786.000 14.820 L 754.320 14.820 L 754.320 32.180 L 786.000 32.180 L 786.000 39.000 L 738.000 39.000 L 738.000 8.000 Z" />
</g>
<g id="part-13">
<path d="M 40.000 58.400 L 66.000 62.400 L 58.720 84.400 L 43.000 79.720 L 40.000 58.400 Z" />
</g>
<g id="part-14">
<path d="M 965.341 44.450 L 964.001 47.450 L 960.341 49.646 L 955.341 50.450 L 950.341 49.646 L 946.681 47.450 L 945.341 44.450 L 946.681 41.450 L 950.341 39.254 L 955.341 38.450 L 960.341 39.254 L 964.001 41.450 L 965.341 44.450 Z" />
</g>
<g id="part-15">
<path d="M 400.344 51.275 L 412.344 51.275 L 412.344 73.275 L 400.344 73.275 L 400.344 51.275 Z" />
</g>
<g id="part-16">
<path d="M 122.000 93.050 L 151.000 93.050 L 151.000 102.050 L 122.000 102.050 L 122.000 93.050 Z" />
</g>
<g id="part-17">
<path d="M 559.690 47.000 L 581.690 47.000 L 581.690 65.000 L 559.690 65.000 L 559.690 47.000 Z" />
</g>
<g id="part-18">
<path d="M 968.000 8.000 L 983.000 8.000 L 983.000 35.000 L 968.000 35.000 L 968.000 8.000 Z" />
</g>
<g id="part-19">
<path d="M 779.341 66.000 L 811.341 66.000 L 811.341 80.000 L 779.341 80.000 L 779.341 66.000 Z" />
</g>
<g id="part-20">
<path d="M 531.000 8.000 L 570.000 8.000 L 570.000 45.000 L 531.000 45.000 L 531.000 8.000 Z" />
<path d="M 543.480 19.840 L 543.480 33.160 L 557.520 33.160 L 557.520 19.840 L 543.480 19.840 Z" fill="#f7f7f2" fill-opacity="1" stroke="#163b5c" />
</g>
<g id="part-21">
<path d="M 311.000 8.000 L 341.000 8.000 L 341.000 50.000 L 311.000 50.000 L 311.000 8.000 Z" />
<path d="M 321.200 15.560 L 321.200 24.800 L 334.400 24.800 L 334.400 15.560 L 321.200 15.560 Z" fill="#f7f7f2" fill-opacity="1" stroke="#163b5c" />
<path d="M 321.200 33.200 L 321.200 42.440 L 334.400 42.440 L 334.400 33.200 L 321.200 33.200 Z" fill="#f7f7f2" fill-opacity="1" stroke="#163b5c" />
</g>
<g id="part-22">
<path d="M 710.000 8.000 L 736.000 8.000 L 736.000 15.260 L 718.840 15.260 L 718.840 33.740 L 736.000 33.740 L 736.000 41.000 L 710.000 41.000 L 710.000 8.000 Z" />
</g>
<g id="part-23">
<path d="M 918.000 8.000 L 946.000 12.000 L 938.160 36.000 L 921.000 30.960 L 918.000 8.000 Z" />
</g>
<g id="part-24">
<path d="M 661.690 74.000 L 660.350 78.000 L 656.690 80.928 L 651.690 82.000 L 646.690 80.928 L 643.030 78.000 L 641.690 74.000 L 643.030 70.000 L 646.690 67.072 L 651.690 66.000 L 656.690 67.072 L 660.350 70.000 L 661.690 74.000 Z" />
</g>
<g id="part-25">
<path d="M 226.000 66.000 L 240.000 66.000 L 240.000 90.000 L 226.000 90.000 L 226.000 66.000 Z" />
</g>
<g id="part-26">
<path d="M 8.000 94.000 L 39.000 94.000 L 39.000 105.000 L 8.000 105.000 L 8.000 94.000 Z" />
</g>
<g id="part-27">
<path d="M 433.344 66.000 L 457.344 66.000 L 457.344 86.000 L 433.344 86.000 L 433.344 66.000 Z" />
</g>
<g id="part-28">
<path d="M 865.000 8.000 L 882.000 8.000 L 882.000 37.000 L 865.000 37.000 L 865.000 8.000 Z" />
</g>
<g id="part-29">
<path d="M 701.690 66.000 L 711.690 66.000 L 711.690 82.000 L 701.690 82.000 L 701.690 66.000 Z" />
</g>
<g id="part-30">
<path d="M 454.000 8.000 L 495.000 8.000 L 495.000 47.000 L 454.000 47.000 L 454.000 8.000 Z" />
<path d="M 467.120 20.480 L 467.120 34.520 L 481.880 34.520 L 481.880 20.480 L 467.120 20.480 Z" fill="#f7f7f2" fill-opacity="1" stroke="#163b5c" />
</g>
<g id="part-31">
<path d="M 277.000 8.000 L 309.000 8.000 L 309.000 50.000 L 277.000 50.000 L 277.000 8.000 Z" />
<path d="M 287.880 15.560 L 287.880 24.800 L 301.960 24.800 L 301.960 15.560 L 287.880 15.560 Z" fill="#f7f7f2" fill-opacity="1" stroke="#163b5c" />
<path d="M 287.880 33.200 L 287.880 42.440 L 301.960 42.440 L 301.960 33.200 L 287.880 33.200 Z" fill="#f7f7f2" fill-opacity="1" stroke="#163b5c" />
</g>
<g id="part-32">
<path d="M 643.000 8.000 L 671.000 8.000 L 671.000 15.700 L 652.520 15.700 L 652.520 35.300 L 671.000 35.300 L 671.000 43.000 L 643.000 43.000 L 643.000 8.000 Z" />
</g>
<g id="part-33">
<path d="M 174.000 94.000 L 204.000 98.000 L 195.600 102.000 L 177.000 100.560 L 174.000 94.000 Z" />
</g>
<g id="part-34">
<path d="M 737.341 73.942 L 735.967 77.659 L 732.158 80.526 L 726.788 81.883 L 721.086 81.422 L 716.359 79.247 L 713.690 75.856 L 713.690 72.027 L 716.359 68.637 L 721.086 66.462 L 726.788 66.000 L 732.158 67.358 L 735.967 70.224 L 737.341 73.942 Z" />
</g>
<g id="part-35">
<path d="M 90.000 66.000 L 106.000 66.000 L 106.000 92.000 L 90.000 92.000 L 90.000 66.000 Z" />
</g>
<g id="part-36">
<path d="M 827.341 66.000 L 860.341 66.000 L 860.341 79.000 L 827.341 79.000 L 827.341 66.000 Z" />
</g>
<g id="part-37">
<path d="M 354.344 66.000 L 380.344 66.000 L 380.344 88.000 L 354.344 88.000 L 354.344 66.000 Z" />
</g>
<g id="part-38">
<path d="M 153.000 94.000 L 172.000 94.000 L 172.000 103.000 L 153.000 103.000 L 153.000 94.000 Z" />
</g>
<g id="part-39">
<path d="M 583.690 66.000 L 595.690 66.000 L 595.690 84.000 L 583.690 84.000 L 583.690 66.000 Z" />
</g>
<g id="part-40">
<path d="M 373.000 8.000 L 416.000 8.000 L 416.000 49.000 L 373.000 49.000 L 373.000 8.000 Z" />
<path d="M 386.760 21.120 L 386.760 35.880 L 402.240 35.880 L 402.240 21.120 L 386.760 21.120 Z" fill="#f7f7f2" fill-opacity="1" stroke="#163b5c" />
</g>
<g id="part-41">
<path d="M 241.000 8.000 L 275.000 8.000 L 275.000 50.000 L 241.000 50.000 L 241.000 8.000 Z" />
<path d="M 252.560 15.560 L 252.560 24.800 L 267.520 24.800 L 267.520 15.560 L 252.560 15.560 Z" fill="#f7f7f2" fill-opacity="1" stroke="#163b5c" />
<path d="M 252.560 33.200 L 252.560 42.440 L 267.520 42.440 L 267.520 33.200 L 252.560 33.200 Z" fill="#f7f7f2" fill-opacity="1" stroke="#163b5c" />
</g>
<g id="part-42">
<path d="M 572.000 8.000 L 602.000 8.000 L 602.000 16.140 L 582.200 16.140 L 582.200 36.860 L 602.000 36.860 L 602.000 45.000 L 572.000 45.000 L 572.000 8.000 Z" />
</g>
<g id="part-43">
<path d="M 64.000 94.000 L 96.000 98.000 L 87.040 104.000 L 67.000 102.200 L 64.000 94.000 Z" />
</g>
<g id="part-44">
<path d="M 540.690 75.927 L 539.315 80.574 L 535.507 84.157 L 530.136 85.854 L 524.435 85.277 L 519.708 82.558 L 517.038 78.320 L 517.038 73.534 L 519.708 69.296 L 524.435 66.577 L 530.136 66.000 L 535.507 67.697 L 539.315 71.280 L 540.690 75.927 Z" />
</g>
<g id="part-45">
<path d="M 948.000 8.000 L 966.000 8.000 L 966.000 36.000 L 948.000 36.000 L 948.000 8.000 Z" />
</g>
<g id="part-46">
<path d="M 766.341 66.000 L 777.341 66.000 L 777.341 81.000 L 766.341 81.000 L 766.341 66.000 Z" />
</g>
<g id="part-47">
<path d="M 150.000 66.000 L 178.000 66.000 L 178.000 90.000 L 150.000 90.000 L 150.000 66.000 Z" />
</g>
<g id="part-48">
<path d="M 41.000 94.000 L 62.000 94.000 L 62.000 105.000 L 41.000 105.000 L 41.000 94.000 Z" />
</g>
<g id="part-49">
<path d="M 459.344 66.000 L 473.344 66.000 L 473.344 86.000 L 459.344 86.000 L 459.344 66.000 Z" />
</g>
<g id="part-50">
<path d="M 156.000 8.000 L 201.000 8.000 L 201.000 51.000 L 156.000 51.000 L 156.000 8.000 Z" />
<path d="M 170.400 21.760 L 170.400 37.240 L 186.600 37.240 L 186.600 21.760 L 170.400 21.760 Z" fill="#f7f7f2" fill-opacity="1" stroke="#163b5c" />
</g>
<g id="part-51">
<path d="M 118.000 8.000 L 154.000 8.000 L 154.000 52.000 L 118.000 52.000 L 118.000 8.000 Z" />
<path d="M 130.240 15.920 L 130.240 25.600 L 146.080 25.600 L 146.080 15.920 L 130.240 15.920 Z" fill="#f7f7f2" fill-opacity="1" stroke="#163b5c" />
<path d="M 130.240 34.400 L 130.240 44.080 L 146.080 44.080 L 146.080 34.400 L 130.240 34.400 Z" fill="#f7f7f2" fill-opacity="1" stroke="#163b5c" />
</g>
<g id="part-52">
<path d="M 497.000 8.000 L 529.000 8.000 L 529.000 16.580 L 507.880 16.580 L 507.880 38.420 L 529.000 38.420 L 529.000 47.000 L 497.000 47.000 L 497.000 8.000 Z" />
</g>
<g id="part-53">
<path d="M 967.341 66.000 L 977.341 70.000 L 974.541 78.000 L 970.341 75.840 L 967.341 66.000 Z" />
</g>
<g id="part-54">
<path d="M 515.038 75.945 L 513.828 80.013 L 510.406 83.377 L 505.365 85.456 L 499.575 85.890 L 494.038 84.605 L 489.712 81.823 L 487.344 78.024 L 487.344 73.866 L 489.712 70.067 L 494.038 67.285 L 499.575 66.000 L 505.365 66.435 L 510.406 68.514 L 513.828 71.878 L 515.038 75.945 Z" />
</g>
<g id="part-55">
<path d="M 206.000 94.000 L 226.000 94.000 L 226.000 102.000 L 206.000 102.000 L 206.000 94.000 Z" />
</g>
<g id="part-56">
<path d="M 626.690 66.000 L 639.690 66.000 L 639.690 83.000 L 626.690 83.000 L 626.690 66.000 Z" />
</g>
<g id="part-57">
<path d="M 8.000 66.000 L 38.000 66.000 L 38.000 92.000 L 8.000 92.000 L 8.000 66.000 Z" />
</g>
<g id="part-58">
<path d="M 862.341 66.000 L 885.341 66.000 L 885.341 79.000 L 862.341 79.000 L 862.341 66.000 Z" />
</g>
<g id="part-59">
<path d="M 382.344 66.000 L 398.344 66.000 L 398.344 88.000 L 382.344 88.000 L 382.344 66.000 Z" />
</g>
<g id="part-60">
<path d="M 305.344 66.000 L 352.344 66.000 L 352.344 89.000 L 305.344 89.000 L 305.344 66.000 Z" />
<path d="M 320.384 73.360 L 320.384 81.640 L 337.304 81.640 L 337.304 73.360 L 320.384 73.360 Z" fill="#f7f7f2" fill-opacity="1" stroke="#163b5c" />
</g>
<g id="part-61">
<path d="M 78.000 8.000 L 116.000 8.000 L 116.000 54.000 L 78.000 54.000 L 78.000 8.000 Z" />
<path d="M 90.920 16.280 L 90.920 26.400 L 107.640 26.400 L 107.640 16.280 L 90.920 16.280 Z" fill="#f7f7f2" fill-opacity="1" stroke="#163b5c" />
<path d="M 90.920 35.600 L 90.920 45.720 L 107.640 45.720 L 107.640 35.600 L 90.920 35.600 Z" fill="#f7f7f2" fill-opacity="1" stroke="#163b5c" />
</g>
<g id="part-62">
<path d="M 418.000 8.000 L 452.000 8.000 L 452.000 17.020 L 429.560 17.020 L 429.560 39.980 L 452.000 39.980 L 452.000 49.000 L 418.000 49.000 L 418.000 8.000 Z" />
</g>
<g id="part-63">
<path d="M 813.341 66.000 L 825.341 70.000 L 821.981 80.000 L 816.341 77.480 L 813.341 66.000 Z" />
</g>
<g id="part-64">
<path d="M 303.344 77.934 L 302.134 82.815 L 298.712 86.852 L 293.671 89.347 L 287.881 89.869 L 282.344 88.327 L 278.018 84.988 L 275.650 80.429 L 275.650 75.439 L 278.018 70.881 L 282.344 67.542 L 287.881 66.000 L 293.671 66.522 L 298.712 69.017 L 302.134 73.053 L 303.344 77.934 Z" />
</g>
<g id="part-65">
<path d="M 98.000 94.000 L 120.000 94.000 L 120.000 104.000 L 98.000 104.000 L 98.000 94.000 Z" />
</g>
<g id="part-66">
<path d="M 542.690 66.000 L 557.690 66.000 L 557.690 85.000 L 542.690 85.000 L 542.690 66.000 Z" />
</g>
<g id="part-67">
<path d="M 884.000 8.000 L 916.000 8.000 L 916.000 36.000 L 884.000 36.000 L 884.000 8.000 Z" />
</g>
<g id="part-68">
<path d="M 739.341 66.000 L 764.341 66.000 L 764.341 81.000 L 739.341 81.000 L 739.341 66.000 Z" />
</g>
<g id="part-69">
<path d="M 206.000 66.000 L 224.000 66.000 L 224.000 90.000 L 206.000 90.000 L 206.000 66.000 Z" />
</g>
<g id="part-70">
<path d="M 108.000 66.000 L 133.000 66.000 L 133.000 91.000 L 108.000 91.000 L 108.000 66.000 Z" />
<path d="M 116.000 74.000 L 116.000 83.000 L 125.000 83.000 L 125.000 74.000 L 116.000 74.000 Z" fill="#f7f7f2" fill-opacity="1" stroke="#163b5c" />
</g>
<g id="part-71">
<path d="M 36.000 8.000 L 76.000 8.000 L 76.000 56.000 L 36.000 56.000 L 36.000 8.000 Z" />
<path d="M 49.600 16.640 L 49.600 27.200 L 67.200 27.200 L 67.200 16.640 L 49.600 16.640 Z" fill="#f7f7f2" fill-opacity="1" stroke="#163b5c" />
<path d="M 49.600 36.800 L 49.600 47.360 L 67.200 47.360 L 67.200 36.800 L 49.600 36.800 Z" fill="#f7f7f2" fill-opacity="1" stroke="#163b5c" />
</g>
<g id="part-72">
<path d="M 203.000 8.000 L 239.000 8.000 L 239.000 17.460 L 215.240 17.460 L 215.240 41.540 L 239.000 41.540 L 239.000 51.000 L 203.000 51.000 L 203.000 8.000 Z" />
</g>
<g id="part-73">
<path d="M 685.690 66.000 L 699.690 70.000 L 695.770 82.000 L 688.690 79.120 L 685.690 66.000 Z" />
</g>
<g id="part-74">
<path d="M 273.650 77.934 L 272.267 82.815 L 268.356 86.852 L 262.595 89.347 L 255.978 89.869 L 249.650 88.327 L 244.706 84.988 L 242.000 80.429 L 242.000 75.439 L 244.706 70.881 L 249.650 67.542 L 255.978 66.000 L 262.595 66.522 L 268.356 69.017 L 272.267 73.053 L 273.650 77.934 Z" />
</g>
<g id="part-75">
<path d="M 919.341 66.000 L 943.341 66.000 L 943.341 78.000 L 919.341 78.000 L 919.341 66.000 Z" />
</g>
<g id="part-76">
<path d="M 414.344 66.000 L 431.344 66.000 L 431.344 87.000 L 414.344 87.000 L 414.344 66.000 Z" />
</g>
<g id="part-77">
<path d="M 228.000 94.000 L 238.000 94.000 L 238.000 102.000 L 228.000 102.000 L 228.000 94.000 Z" />
</g>
<g id="part-78">
<path d="M 597.690 66.000 L 624.690 66.000 L 624.690 83.000 L 597.690 83.000 L 597.690 66.000 Z" />
</g>
<g id="part-79">
<path d="M 68.000 66.000 L 88.000 66.000 L 88.000 92.000 L 68.000 92.000 L 68.000 66.000 Z" />
</g>
</g>
<text x="10" y="20" font-size="14" fill="#222">many_small_parts / Fast</text>
</svg>
