<svg xmlns="http://www.w3.org/2000/svg" width="1150.000" height="760.000" viewBox="0 0 1150.000 760.000">
<rect x="0" y="0" width="1150.000" height="760.000" fill="#f7f7f2" />
<g fill="none" stroke="#2a2a2a" stroke-width="1.2">
<path d="M 0.000 0.000 L 1150.000 0.000 L 1150.000 760.000 L 0.000 760.000 L 0.000 0.000 Z" stroke="#1f5f8b" />
</g>
<g fill="#86b8e7" fill-opacity="0.58" stroke="#163b5c" stroke-width="0.8">
<g id="part-0">
<path d="M 97.500 363.500 L 132.500 363.500 L 132.500 396.500 L 97.500 396.500 L 97.500 363.500 Z" />
<path d="M 108.700 374.060 L 108.700 385.940 L 121.300 385.940 L 121.300 374.060 L 108.700 374.060 Z" fill="#f7f7f2" fill-opacity="1" stroke="#163b5c" />
</g>
<g id="part-1">
<path d="M 275.500 352.000 L 301.500 352.000 L 301.500 408.000 L 275.500 408.000 L 275.500 352.000 Z" />
<path d="M 284.340 362.080 L 284.340 374.400 L 295.780 374.400 L 295.780 362.080 L 284.340 362.080 Z" fill="#f7f7f2" fill-opacity="1" stroke="#163b5c" />
<path d="M 284.340 385.600 L 284.340 397.920 L 295.780 397.920 L 295.780 385.600 L 284.340 385.600 Z" fill="#f7f7f2" fill-opacity="1" stroke="#163b5c" />
</g>
<g id="part-2">
<path d="M 351.500 414.500 L 397.500 414.500 L 397.500 420.880 L 367.140 420.880 L 367.140 437.120 L 397.500 437.120 L 397.500 443.500 L 351.500 443.500 L 351.500 414.500 Z" />
</g>
<g id="part-3">
<path d="M 698.000 370.500 L 722.000 374.500 L 715.280 394.500 L 701.000 390.180 L 698.000 370.500 Z" />
</g>
<g id="part-4">
<path d="M 410.838 407.439 L 409.568 410.683 L 406.161 412.897 L 401.699 413.378 L 397.599 411.973 L 395.162 409.129 L 395.162 405.749 L 397.599 402.904 L 401.699 401.500 L 406.161 401.981 L 409.568 404.195 L 410.838 407.439 Z" />
</g>
<g id="part-5">
<path d="M 110.000 398.500 L 120.000 398.500 L 120.000 418.500 L 110.000 418.500 L 110.000 398.500 Z" />
</g>
<g id="part-6">
<path d="M 286.500 420.500 L 313.500 420.500 L 313.500 449.500 L 286.500 449.500 L 286.500 420.500 Z" />
</g>
<g id="part-7">
<path d="M 526.349 414.500 L 546.349 414.500 L 546.349 430.500 L 526.349 430.500 L 526.349 414.500 Z" />
</g>
<g id="part-8">
<path d="M 635.000 365.500 L 648.000 365.500 L 648.000 390.500 L 635.000 390.500 L 635.000 365.500 Z" />
</g>
<g id="part-9">
<path d="M 646.000 351.500 L 676.000 351.500 L 676.000 363.500 L 646.000 363.500 L 646.000 351.500 Z" />
</g>
<g id="part-10">
<path d="M 200.500 362.500 L 237.500 362.500 L 237.500 397.500 L 200.500 397.500 L 200.500 362.500 Z" />
<path d="M 212.340 373.700 L 212.340 386.300 L 225.660 386.300 L 225.660 373.700 L 212.340 373.700 Z" fill="#f7f7f2" fill-opacity="1" stroke="#163b5c" />
</g>
<g id="part-11">
<path d="M 29.500 359.000 L 57.500 359.000 L 57.500 401.000 L 29.500 401.000 L 29.500 359.000 Z" />
<path d="M 39.020 366.560 L 39.020 375.800 L 51.340 375.800 L 51.340 366.560 L 39.020 366.560 Z" fill="#f7f7f2" fill-opacity="1" stroke="#163b5c" />
<path d="M 39.020 384.200 L 39.020 393.440 L 51.340 393.440 L 51.340 384.200 L 39.020 384.200 Z" fill="#f7f7f2" fill-opacity="1" stroke="#163b5c" />
</g>
<g id="part-12">
<path d="M 59.500 403.500 L 107.500 403.500 L 107.500 410.320 L 75.820 410.320 L 75.820 427.680 L 107.500 427.680 L 107.500 434.500 L 59.500 434.500 L 59.500 403.500 Z" />
</g>
<g id="part-13">
<path d="M 722.151 426.427 L 748.151 430.427 L 740.871 452.427 L 725.151 447.747 L 722.151 426.427 Z" />
</g>
<g id="part-14">
<path d="M 335.500 406.500 L 334.160 409.500 L 330.500 411.696 L 325.500 412.500 L 320.500 411.696 L 316.840 409.500 L 315.500 406.500 L 316.840 403.500 L 320.500 401.304 L 325.500 400.500 L 330.500 401.304 L 334.160 403.500 L 335.500 406.500 Z" />
</g>
<g id="part-15">
<path d="M 596.000 408.500 L 608.000 408.500 L 608.000 430.500 L 596.000 430.500 L 596.000 408.500 Z" />
</g>
<g id="part-16">
<path d="M 143.500 428.000 L 172.500 428.000 L 172.500 437.000 L 143.500 437.000 L 143.500 428.000 Z" />
</g>
<g id="part-17">
<path d="M 698.694 406.369 L 720.694 406.369 L 720.694 424.369 L 698.694 424.369 L 698.694 406.369 Z" />
</g>
<g id="part-18">
<path d="M 724.000 367.500 L 739.000 367.500 L 739.000 394.500 L 724.000 394.500 L 724.000 367.500 Z" />
</g>
<g id="part-19">
<path d="M 705.000 351.500 L 737.000 351.500 L 737.000 365.500 L 705.000 365.500 L 705.000 351.500 Z" />
</g>
<g id="part-20">
<path d="M 303.500 361.500 L 342.500 361.500 L 342.500 398.500 L 303.500 398.500 L 303.500 361.500 Z" />
<path d="M 315.980 373.340 L 315.980 386.660 L 330.020 386.660 L 330.020 373.340 L 315.980 373.340 Z" fill="#f7f7f2" fill-opacity="1" stroke="#163b5c" />
</g>
<g id="part-21">
<path d="M 134.500 359.000 L 164.500 359.000 L 164.500 401.000 L 134.500 401.000 L 134.500 359.000 Z" />
<path d="M 144.700 366.560 L 144.700 375.800 L 157.900 375.800 L 157.900 366.560 L 144.700 366.560 Z" fill="#f7f7f2" fill-opacity="1" stroke="#163b5c" />
<path d="M 144.700 384.200 L 144.700 393.440 L 157.900 393.440 L 157.900 384.200 L 144.700 384.200 Z" fill="#f7f7f2" fill-opacity="1" stroke="#163b5c" />
</g>
<g id="part-22">
<path d="M 650.000 365.500 L 676.000 365.500 L 676.000 372.760 L 658.840 372.760 L 658.840 391.240 L 676.000 391.240 L 676.000 398.500 L 650.000 398.500 L 650.000 365.500 Z" />
</g>
<g id="part-23">
<path d="M 226.500 421.000 L 254.500 425.000 L 246.660 449.000 L 229.500 443.960 L 226.500 421.000 Z" />
</g>
<g id="part-24">
<path d="M 594.000 422.500 L 592.660 426.500 L 589.000 429.428 L 584.000 430.500 L 579.000 429.428 L 575.340 426.500 L 574.000 422.500 L 575.340 418.500 L 579.000 415.572 L 584.000 414.500 L 589.000 415.572 L 592.660 418.500 L 594.000 422.500 Z" />
</g>
<g id="part-25">
<path d="M 520.350 432.500 L 534.350 432.500 L 534.350 456.500 L 520.350 456.500 L 520.350 432.500 Z" />
</g>
<g id="part-26">
<path d="M 424.500 444.000 L 455.500 444.000 L 455.500 455.000 L 424.500 455.000 L 424.500 444.000 Z" />
</g>
<g id="part-27">
<path d="M 696.151 426.427 L 720.151 426.427 L 720.151 446.427 L 696.151 446.427 L 696.151 426.427 Z" />
</g>
<g id="part-28">
<path d="M 207.500 420.500 L 224.500 420.500 L 224.500 449.500 L 207.500 449.500 L 207.500 420.500 Z" />
</g>
<g id="part-29">
<path d="M 303.500 400.500 L 313.500 400.500 L 313.500 416.500 L 303.500 416.500 L 303.500 400.500 Z" />
</g>
<g id="part-30">
<path d="M 382.500 360.500 L 423.500 360.500 L 423.500 399.500 L 382.500 399.500 L 382.500 360.500 Z" />
<path d="M 395.620 372.980 L 395.620 387.020 L 410.380 387.020 L 410.380 372.980 L 395.620 372.980 Z" fill="#f7f7f2" fill-opacity="1" stroke="#163b5c" />
</g>
<g id="part-31">
<path d="M 166.500 359.000 L 198.500 359.000 L 198.500 401.000 L 166.500 401.000 L 166.500 359.000 Z" />
<path d="M 177.380 366.560 L 177.380 375.800 L 191.460 375.800 L 191.460 366.560 L 177.380 366.560 Z" fill="#f7f7f2" fill-opacity="1" stroke="#163b5c" />
<path d="M 177.380 384.200 L 177.380 393.440 L 191.460 393.440 L 191.460 384.200 L 177.380 384.200 Z" fill="#f7f7f2" fill-opacity="1" stroke="#163b5c" />
</g>
<g id="part-32">
<path d="M 256.500 417.500 L 284.500 417.500 L 284.500 425.200 L 266.020 425.200 L 266.020 444.800 L 284.500 444.800 L 284.500 452.500 L 256.500 452.500 L 256.500 417.500 Z" />
</g>
<g id="part-33">
<path d="M 465.500 402.500 L 495.500 406.500 L 487.100 410.500 L 468.500 409.060 L 465.500 402.500 Z" />
</g>
<g id="part-34">
<path d="M 572.000 422.500 L 570.625 426.218 L 566.817 429.084 L 561.446 430.442 L 555.745 429.980 L 551.018 427.805 L 548.349 424.415 L 548.349 420.585 L 551.018 417.195 L 555.745 415.020 L 561.446 414.558 L 566.817 415.916 L 570.625 418.782 L 572.000 422.500 Z" />
</g>
<g id="part-35">
<path d="M 741.000 367.500 L 757.000 367.500 L 757.000 393.500 L 741.000 393.500 L 741.000 367.500 Z" />
</g>
<g id="part-36">
<path d="M 739.000 352.500 L 772.000 352.500 L 772.000 365.500 L 739.000 365.500 L 739.000 352.500 Z" />
</g>
<g id="part-37">
<path d="M 463.500 412.500 L 489.500 412.500 L 489.500 434.500 L 463.500 434.500 L 463.500 412.500 Z" />
</g>
<g id="part-38">
<path d="M 574.500 403.500 L 593.500 403.500 L 593.500 412.500 L 574.500 412.500 L 574.500 403.500 Z" />
</g>
<g id="part-39">
<path d="M 83.500 371.000 L 95.500 371.000 L 95.500 389.000 L 83.500 389.000 L 83.500 371.000 Z" />
</g>
<g id="part-40">
<path d="M 465.500 359.500 L 508.500 359.500 L 508.500 400.500 L 465.500 400.500 L 465.500 359.500 Z" />
<path d="M 479.260 372.620 L 479.260 387.380 L 494.740 387.380 L 494.740 372.620 L 479.260 372.620 Z" fill="#f7f7f2" fill-opacity="1" stroke="#163b5c" />
</g>
<g id="part-41">
<path d="M 239.500 359.000 L 273.500 359.000 L 273.500 401.000 L 239.500 401.000 L 239.500 359.000 Z" />
<path d="M 251.060 366.560 L 251.060 375.800 L 266.020 375.800 L 266.020 366.560 L 251.060 366.560 Z" fill="#f7f7f2" fill-opacity="1" stroke="#163b5c" />
<path d="M 251.060 384.200 L 251.060 393.440 L 266.020 393.440 L 266.020 384.200 L 251.060 384.200 Z" fill="#f7f7f2" fill-opacity="1" stroke="#163b5c" />
</g>
<g id="part-42">
<path d="M 431.500 405.000 L 461.500 405.000 L 461.500 413.140 L 441.700 413.140 L 441.700 433.860 L 461.500 433.860 L 461.500 442.000 L 431.500 442.000 L 431.500 405.000 Z" />
</g>
<g id="part-43">
<path d="M 200.500 399.500 L 232.500 403.500 L 223.540 409.500 L 203.500 407.700 L 200.500 399.500 Z" />
</g>
<g id="part-44">
<path d="M 694.151 436.500 L 692.777 441.147 L 688.968 444.730 L 683.598 446.427 L 677.896 445.850 L 673.169 443.131 L 670.500 438.893 L 670.500 434.107 L 673.169 429.869 L 677.896 427.150 L 683.598 426.573 L 688.968 428.270 L 692.777 431.853 L 694.151 436.500 Z" />
</g>
<g id="part-45">
<path d="M 678.000 370.500 L 696.000 370.500 L 696.000 398.500 L 678.000 398.500 L 678.000 370.500 Z" />
</g>
<g id="part-46">
<path d="M 497.500 402.500 L 508.500 402.500 L 508.500 417.500 L 497.500 417.500 L 497.500 402.500 Z" />
</g>
<g id="part-47">
<path d="M 570.000 432.500 L 598.000 432.500 L 598.000 456.500 L 570.000 456.500 L 570.000 432.500 Z" />
</g>
<g id="part-48">
<path d="M 183.500 422.000 L 204.500 422.000 L 204.500 433.000 L 183.500 433.000 L 183.500 422.000 Z" />
</g>
<g id="part-49">
<path d="M 619.000 386.500 L 633.000 386.500 L 633.000 406.500 L 619.000 406.500 L 619.000 386.500 Z" />
</g>
<g id="part-50">
<path d="M 552.500 358.500 L 597.500 358.500 L 597.500 401.500 L 552.500 401.500 L 552.500 358.500 Z" />
<path d="M 566.900 372.260 L 566.900 387.740 L 583.100 387.740 L 583.100 372.260 L 566.900 372.260 Z" fill="#f7f7f2" fill-opacity="1" stroke="#163b5c" />
</g>
<g id="part-51">
<path d="M 344.500 358.000 L 380.500 358.000 L 380.500 402.000 L 344.500 402.000 L 344.500 358.000 Z" />
<path d="M 356.740 365.920 L 356.740 375.600 L 372.580 375.600 L 372.580 365.920 L 356.740 365.920 Z" fill="#f7f7f2" fill-opacity="1" stroke="#163b5c" />
<path d="M 356.740 384.400 L 356.740 394.080 L 372.580 394.080 L 372.580 384.400 L 356.740 384.400 Z" fill="#f7f7f2" fill-opacity="1" stroke="#163b5c" />
</g>
<g id="part-52">
<path d="M 610.000 408.500 L 642.000 408.500 L 642.000 417.080 L 620.880 417.080 L 620.880 438.920 L 642.000 438.920 L 642.000 447.500 L 610.000 447.500 L 610.000 408.500 Z" />
</g>
<g id="part-53">
<path d="M 599.500 374.000 L 609.500 378.000 L 606.700 386.000 L 602.500 383.840 L 599.500 374.000 Z" />
</g>
<g id="part-54">
<path d="M 779.388 413.423 L 778.178 417.491 L 774.756 420.855 L 769.714 422.934 L 763.925 423.369 L 758.388 422.084 L 754.062 419.301 L 751.694 415.502 L 751.694 411.344 L 754.062 407.545 L 758.388 404.763 L 763.925 403.478 L 769.714 403.913 L 774.756 405.992 L 778.178 409.356 L 779.388 413.423 Z" />
</g>
<g id="part-55">
<path d="M 552.500 403.500 L 572.500 403.500 L 572.500 411.500 L 552.500 411.500 L 552.500 403.500 Z" />
</g>
<g id="part-56">
<path d="M 183.500 403.000 L 196.500 403.000 L 196.500 420.000 L 183.500 420.000 L 183.500 403.000 Z" />
</g>
<g id="part-57">
<path d="M 399.500 416.000 L 429.500 416.000 L 429.500 442.000 L 399.500 442.000 L 399.500 416.000 Z" />
</g>
<g id="part-58">
<path d="M 399.500 444.000 L 422.500 444.000 L 422.500 457.000 L 399.500 457.000 L 399.500 444.000 Z" />
</g>
<g id="part-59">
<path d="M 463.500 436.500 L 479.500 436.500 L 479.500 458.500 L 463.500 458.500 L 463.500 436.500 Z" />
</g>
<g id="part-60">
<path d="M 134.500 403.000 L 181.500 403.000 L 181.500 426.000 L 134.500 426.000 L 134.500 403.000 Z" />
<path d="M 149.540 410.360 L 149.540 418.640 L 166.460 418.640 L 166.460 410.360 L 149.540 410.360 Z" fill="#f7f7f2" fill-opacity="1" stroke="#163b5c" />
</g>
<g id="part-61">
<path d="M 425.500 357.000 L 463.500 357.000 L 463.500 403.000 L 425.500 403.000 L 425.500 357.000 Z" />
<path d="M 438.420 365.280 L 438.420 375.400 L 455.140 375.400 L 455.140 365.280 L 438.420 365.280 Z" fill="#f7f7f2" fill-opacity="1" stroke="#163b5c" />
<path d="M 438.420 384.600 L 438.420 394.720 L 455.140 394.720 L 455.140 384.600 L 438.420 384.600 Z" fill="#f7f7f2" fill-opacity="1" stroke="#163b5c" />
</g>
<g id="part-62">
<path d="M 315.500 414.500 L 349.500 414.500 L 349.500 423.520 L 327.060 423.520 L 327.060 446.480 L 349.500 446.480 L 349.500 455.500 L 315.500 455.500 L 315.500 414.500 Z" />
</g>
<g id="part-63">
<path d="M 599.500 358.500 L 611.500 362.500 L 608.140 372.500 L 602.500 369.980 L 599.500 358.500 Z" />
</g>
<g id="part-64">
<path d="M 696.694 412.434 L 695.484 417.315 L 692.062 421.352 L 687.020 423.847 L 681.231 424.369 L 675.694 422.827 L 671.368 419.488 L 669.000 414.929 L 669.000 409.939 L 671.368 405.381 L 675.694 402.042 L 681.231 400.500 L 687.020 401.022 L 692.062 403.517 L 695.484 407.553 L 696.694 412.434 Z" />
</g>
<g id="part-65">
<path d="M 110.500 351.500 L 132.500 351.500 L 132.500 361.500 L 110.500 361.500 L 110.500 351.500 Z" />
</g>
<g id="part-66">
<path d="M 618.000 365.500 L 633.000 365.500 L 633.000 384.500 L 618.000 384.500 L 618.000 365.500 Z" />
</g>
<g id="part-67">
<path d="M 25.500 405.000 L 57.500 405.000 L 57.500 433.000 L 25.500 433.000 L 25.500 405.000 Z" />
</g>
<g id="part-68">
<path d="M 678.000 351.500 L 703.000 351.500 L 703.000 366.500 L 678.000 366.500 L 678.000 351.500 Z" />
</g>
<g id="part-69">
<path d="M 759.000 367.500 L 777.000 367.500 L 777.000 391.500 L 759.000 391.500 L 759.000 367.500 Z" />
</g>
<g id="part-70">
<path d="M 493.350 432.000 L 518.350 432.000 L 518.350 457.000 L 493.350 457.000 L 493.350 432.000 Z" />
<path d="M 501.350 440.000 L 501.350 449.000 L 510.350 449.000 L 510.350 440.000 L 501.350 440.000 Z" fill="#f7f7f2" fill-opacity="1" stroke="#163b5c" />
</g>
<g id="part-71">
<path d="M 510.500 356.000 L 550.500 356.000 L 550.500 404.000 L 510.500 404.000 L 510.500 356.000 Z" />
<path d="M 524.100 364.640 L 524.100 375.200 L 541.700 375.200 L 541.700 364.640 L 524.100 364.640 Z" fill="#f7f7f2" fill-opacity="1" stroke="#163b5c" />
<path d="M 524.100 384.800 L 524.100 395.360 L 541.700 395.360 L 541.700 384.800 L 524.100 384.800 Z" fill="#f7f7f2" fill-opacity="1" stroke="#163b5c" />
</g>
<g id="part-72">
<path d="M 59.500 358.500 L 95.500 358.500 L 95.500 367.960 L 71.740 367.960 L 71.740 392.040 L 95.500 392.040 L 95.500 401.500 L 59.500 401.500 L 59.500 358.500 Z" />
</g>
<g id="part-73">
<path d="M 599.500 388.000 L 613.500 392.000 L 609.580 404.000 L 602.500 401.120 L 599.500 388.000 Z" />
</g>
<g id="part-74">
<path d="M 568.000 444.500 L 566.617 449.381 L 562.706 453.418 L 556.944 455.913 L 550.328 456.434 L 544.000 454.892 L 539.056 451.553 L 536.350 446.995 L 536.350 442.005 L 539.056 437.447 L 544.000 434.108 L 550.328 432.566 L 556.944 433.087 L 562.706 435.582 L 566.617 439.619 L 568.000 444.500 Z" />
</g>
<g id="part-75">
<path d="M 613.500 351.500 L 637.500 351.500 L 637.500 363.500 L 613.500 363.500 L 613.500 351.500 Z" />
</g>
<g id="part-76">
<path d="M 650.000 400.500 L 667.000 400.500 L 667.000 421.500 L 650.000 421.500 L 650.000 400.500 Z" />
</g>
<g id="part-77">
<path d="M 570.000 376.000 L 580.000 376.000 L 580.000 384.000 L 570.000 384.000 L 570.000 376.000 Z" />
</g>
<g id="part-78">
<path d="M 722.694 406.369 L 749.694 406.369 L 749.694 423.369 L 722.694 423.369 L 722.694 406.369 Z" />
</g>
<g id="part-79">
<path d="M 648.500 423.500 L 668.500 423.500 L 668.500 449.500 L 648.500 449.500 L 648.500 423.500 Z" />
</g>
</g>
<text x="10" y="20" font-size="14" fill="#222">many_small_parts / Maximum</text>
</svg>
