<svg xmlns="http://www.w3.org/2000/svg" width="760.000" height="420.000" viewBox="0 0 760.000 420.000">
<rect x="0" y="0" width="760.000" height="420.000" fill="#f7f7f2" />
<g fill="none" stroke="#2a2a2a" stroke-width="1.2">
<path d="M 0.000 0.000 L 760.000 0.000 L 760.000 420.000 L 0.000 420.000 L 0.000 0.000 Z" stroke="#1f5f8b" />
</g>
<g fill="#86b8e7" fill-opacity="0.58" stroke="#163b5c" stroke-width="0.8">
<g id="part-0">
<path d="M 358.000 189.000 L 402.000 189.000 L 402.000 204.000 L 376.000 204.000 L 376.000 231.000 L 358.000 231.000 L 358.000 189.000 Z" />
</g>
<g id="part-1">
<path d="M 312.000 189.000 L 356.000 189.000 L 356.000 204.000 L 330.000 204.000 L 330.000 231.000 L 312.000 231.000 L 312.000 189.000 Z" />
</g>
<g id="part-2">
<path d="M 450.000 189.000 L 494.000 189.000 L 494.000 204.000 L 468.000 204.000 L 468.000 231.000 L 450.000 231.000 L 450.000 189.000 Z" />
</g>
<g id="part-3">
<path d="M 220.000 189.000 L 264.000 189.000 L 264.000 204.000 L 238.000 204.000 L 238.000 231.000 L 220.000 231.000 L 220.000 189.000 Z" />
</g>
<g id="part-4">
<path d="M 542.000 189.000 L 586.000 189.000 L 586.000 204.000 L 560.000 204.000 L 560.000 231.000 L 542.000 231.000 L 542.000 189.000 Z" />
</g>
<g id="part-5">
<path d="M 128.000 189.000 L 172.000 189.000 L 172.000 204.000 L 146.000 204.000 L 146.000 231.000 L 128.000 231.000 L 128.000 189.000 Z" />
</g>
<g id="part-6">
<path d="M 634.000 189.000 L 678.000 189.000 L 678.000 204.000 L 652.000 204.000 L 652.000 231.000 L 634.000 231.000 L 634.000 189.000 Z" />
</g>
<g id="part-7">
<path d="M 36.000 189.000 L 80.000 189.000 L 80.000 204.000 L 54.000 204.000 L 54.000 231.000 L 36.000 231.000 L 36.000 189.000 Z" />
</g>
<g id="part-8">
<path d="M 358.000 233.000 L 402.000 233.000 L 402.000 248.000 L 376.000 248.000 L 376.000 275.000 L 358.000 275.000 L 358.000 233.000 Z" />
</g>
<g id="part-9">
<path d="M 312.000 233.000 L 356.000 233.000 L 356.000 248.000 L 330.000 248.000 L 330.000 275.000 L 312.000 275.000 L 312.000 233.000 Z" />
</g>
<g id="part-10">
<path d="M 450.000 233.000 L 494.000 233.000 L 494.000 248.000 L 468.000 248.000 L 468.000 275.000 L 450.000 275.000 L 450.000 233.000 Z" />
</g>
<g id="part-11">
<path d="M 220.000 233.000 L 264.000 233.000 L 264.000 248.000 L 238.000 248.000 L 238.000 275.000 L 220.000 275.000 L 220.000 233.000 Z" />
</g>
<g id="part-12">
<path d="M 542.000 233.000 L 586.000 233.000 L 586.000 248.000 L 560.000 248.000 L 560.000 275.000 L 542.000 275.000 L 542.000 233.000 Z" />
</g>
<g id="part-13">
<path d="M 128.000 233.000 L 172.000 233.000 L 172.000 248.000 L 146.000 248.000 L 146.000 275.000 L 128.000 275.000 L 128.000 233.000 Z" />
</g>
<g id="part-14">
<path d="M 82.000 233.000 L 126.000 233.000 L 126.000 248.000 L 100.000 248.000 L 100.000 275.000 L 82.000 275.000 L 82.000 233.000 Z" />
</g>
<g id="part-15">
<path d="M 588.000 233.000 L 632.000 233.000 L 632.000 248.000 L 606.000 248.000 L 606.000 275.000 L 588.000 275.000 L 588.000 233.000 Z" />
</g>
<g id="part-16">
<path d="M 174.000 233.000 L 218.000 233.000 L 218.000 248.000 L 192.000 248.000 L 192.000 275.000 L 174.000 275.000 L 174.000 233.000 Z" />
</g>
<g id="part-17">
<path d="M 496.000 233.000 L 540.000 233.000 L 540.000 248.000 L 514.000 248.000 L 514.000 275.000 L 496.000 275.000 L 496.000 233.000 Z" />
</g>
<g id="part-18">
<path d="M 266.000 233.000 L 310.000 233.000 L 310.000 248.000 L 284.000 248.000 L 284.000 275.000 L 266.000 275.000 L 266.000 233.000 Z" />
</g>
<g id="part-19">
<path d="M 404.000 233.000 L 448.000 233.000 L 448.000 248.000 L 422.000 248.000 L 422.000 275.000 L 404.000 275.000 L 404.000 233.000 Z" />
</g>
<g id="part-20">
<path d="M 752.000 232.000 L 752.000 188.000 L 737.000 188.000 L 737.000 214.000 L 710.000 214.000 L 710.000 232.000 L 752.000 232.000 Z" />
</g>
<g id="part-21">
<path d="M 680.000 189.000 L 724.000 189.000 L 724.000 204.000 L 698.000 204.000 L 698.000 231.000 L 680.000 231.000 L 680.000 189.000 Z" />
</g>
<g id="part-22">
<path d="M 82.000 189.000 L 126.000 189.000 L 126.000 204.000 L 100.000 204.000 L 100.000 231.000 L 82.000 231.000 L 82.000 189.000 Z" />
</g>
<g id="part-23">
<path d="M 588.000 189.000 L 632.000 189.000 L 632.000 204.000 L 606.000 204.000 L 606.000 231.000 L 588.000 231.000 L 588.000 189.000 Z" />
</g>
<g id="part-24">
<path d="M 174.000 189.000 L 218.000 189.000 L 218.000 204.000 L 192.000 204.000 L 192.000 231.000 L 174.000 231.000 L 174.000 189.000 Z" />
</g>
<g id="part-25">
<path d="M 496.000 189.000 L 540.000 189.000 L 540.000 204.000 L 514.000 204.000 L 514.000 231.000 L 496.000 231.000 L 496.000 189.000 Z" />
</g>
<g id="part-26">
<path d="M 266.000 189.000 L 310.000 189.000 L 310.000 204.000 L 284.000 204.000 L 284.000 231.000 L 266.000 231.000 L 266.000 189.000 Z" />
</g>
<g id="part-27">
<path d="M 404.000 189.000 L 448.000 189.000 L 448.000 204.000 L 422.000 204.000 L 422.000 231.000 L 404.000 231.000 L 404.000 189.000 Z" />
</g>
</g>
<text x="10" y="20" font-size="14" fill="#222">mirror_required / Maximum</text>
</svg>
