<svg xmlns="http://www.w3.org/2000/svg" width="760.000" height="420.000" viewBox="0 0 760.000 420.000">
<rect x="0" y="0" width="760.000" height="420.000" fill="#f7f7f2" />
<g fill="none" stroke="#2a2a2a" stroke-width="1.2">
<path d="M 0.000 0.000 L 760.000 0.000 L 760.000 420.000 L 0.000 420.000 L 0.000 0.000 Z" stroke="#1f5f8b" />
</g>
<g fill="#86b8e7" fill-opacity="0.58" stroke="#163b5c" stroke-width="0.8">
<g id="part-0">
<path d="M 182.000 8.000 L 182.000 52.000 L 167.000 52.000 L 167.000 26.000 L 140.000 26.000 L 140.000 8.000 L 182.000 8.000 Z" />
</g>
<g id="part-1">
<path d="M 551.094 54.000 L 551.094 98.000 L 536.094 98.000 L 536.094 72.000 L 509.094 72.000 L 509.094 54.000 L 551.094 54.000 Z" />
</g>
<g id="part-2">
<path d="M 138.000 52.000 L 138.000 8.000 L 123.000 8.000 L 123.000 34.000 L 96.000 34.000 L 96.000 52.000 L 138.000 52.000 Z" />
</g>
<g id="part-3">
<path d="M 50.000 8.000 L 50.000 52.000 L 35.000 52.000 L 35.000 26.000 L 8.000 26.000 L 8.000 8.000 L 50.000 8.000 Z" />
</g>
<g id="part-4">
<path d="M 226.000 8.000 L 226.000 52.000 L 211.000 52.000 L 211.000 26.000 L 184.000 26.000 L 184.000 8.000 L 226.000 8.000 Z" />
</g>
<g id="part-5">
<path d="M 595.094 54.000 L 595.094 98.000 L 580.094 98.000 L 580.094 72.000 L 553.094 72.000 L 553.094 54.000 L 595.094 54.000 Z" />
</g>
<g id="part-6">
<path d="M 270.000 8.000 L 270.000 52.000 L 255.000 52.000 L 255.000 26.000 L 228.000 26.000 L 228.000 8.000 L 270.000 8.000 Z" />
</g>
<g id="part-7">
<path d="M 314.000 8.000 L 314.000 52.000 L 299.000 52.000 L 299.000 26.000 L 272.000 26.000 L 272.000 8.000 L 314.000 8.000 Z" />
</g>
<g id="part-8">
<path d="M 358.000 8.000 L 358.000 52.000 L 343.000 52.000 L 343.000 26.000 L 316.000 26.000 L 316.000 8.000 L 358.000 8.000 Z" />
</g>
<g id="part-9">
<path d="M 402.000 8.000 L 402.000 52.000 L 387.000 52.000 L 387.000 26.000 L 360.000 26.000 L 360.000 8.000 L 402.000 8.000 Z" />
</g>
<g id="part-10">
<path d="M 446.000 8.000 L 446.000 52.000 L 431.000 52.000 L 431.000 26.000 L 404.000 26.000 L 404.000 8.000 L 446.000 8.000 Z" />
</g>
<g id="part-11">
<path d="M 490.000 8.000 L 490.000 52.000 L 475.000 52.000 L 475.000 26.000 L 448.000 26.000 L 448.000 8.000 L 490.000 8.000 Z" />
</g>
<g id="part-12">
<path d="M 534.000 8.000 L 534.000 52.000 L 519.000 52.000 L 519.000 26.000 L 492.000 26.000 L 492.000 8.000 L 534.000 8.000 Z" />
</g>
<g id="part-13">
<path d="M 578.000 8.000 L 578.000 52.000 L 563.000 52.000 L 563.000 26.000 L 536.000 26.000 L 536.000 8.000 L 578.000 8.000 Z" />
</g>
<g id="part-14">
<path d="M 622.000 8.000 L 622.000 52.000 L 607.000 52.000 L 607.000 26.000 L 580.000 26.000 L 580.000 8.000 L 622.000 8.000 Z" />
</g>
<g id="part-15">
<path d="M 50.000 54.000 L 50.000 98.000 L 35.000 98.000 L 35.000 72.000 L 8.000 72.000 L 8.000 54.000 L 50.000 54.000 Z" />
</g>
<g id="part-16">
<path d="M 94.000 54.000 L 94.000 98.000 L 79.000 98.000 L 79.000 72.000 L 52.000 72.000 L 52.000 54.000 L 94.000 54.000 Z" />
</g>
<g id="part-17">
<path d="M 94.000 8.000 L 94.000 52.000 L 79.000 52.000 L 79.000 26.000 L 52.000 26.000 L 52.000 8.000 L 94.000 8.000 Z" />
</g>
<g id="part-18">
<path d="M 138.000 54.000 L 138.000 98.000 L 123.000 98.000 L 123.000 72.000 L 96.000 72.000 L 96.000 54.000 L 138.000 54.000 Z" />
</g>
<g id="part-19">
<path d="M 182.000 54.000 L 182.000 98.000 L 167.000 98.000 L 167.000 72.000 L 140.000 72.000 L 140.000 54.000 L 182.000 54.000 Z" />
</g>
<g id="part-20">
<path d="M 226.000 54.000 L 226.000 98.000 L 211.000 98.000 L 211.000 72.000 L 184.000 72.000 L 184.000 54.000 L 226.000 54.000 Z" />
</g>
<g id="part-21">
<path d="M 270.000 54.000 L 270.000 98.000 L 255.000 98.000 L 255.000 72.000 L 228.000 72.000 L 228.000 54.000 L 270.000 54.000 Z" />
</g>
<g id="part-22">
<path d="M 272.000 54.000 L 272.000 98.000 L 287.000 98.000 L 287.000 72.000 L 314.000 72.000 L 314.000 54.000 L 272.000 54.000 Z" />
</g>
<g id="part-23">
<path d="M 316.000 72.078 L 316.000 28.078 L 331.000 28.078 L 331.000 54.078 L 358.000 54.078 L 358.000 72.078 L 316.000 72.078 Z" />
</g>
<g id="part-24">
<path d="M 375.094 92.094 L 375.094 48.094 L 360.094 48.094 L 360.094 74.094 L 333.094 74.094 L 333.094 92.094 L 375.094 92.094 Z" />
</g>
<g id="part-25">
<path d="M 419.094 72.078 L 419.094 28.078 L 404.094 28.078 L 404.094 54.078 L 377.094 54.078 L 377.094 72.078 L 419.094 72.078 Z" />
</g>
<g id="part-26">
<path d="M 463.094 72.078 L 463.094 28.078 L 448.094 28.078 L 448.094 54.078 L 421.094 54.078 L 421.094 72.078 L 463.094 72.078 Z" />
</g>
<g id="part-27">
<path d="M 507.094 54.000 L 507.094 98.000 L 492.094 98.000 L 492.094 72.000 L 465.094 72.000 L 465.094 54.000 L 507.094 54.000 Z" />
</g>
</g>
<text x="10" y="20" font-size="14" fill="#222">mirror_required / Fast</text>
</svg>
