<svg xmlns="http://www.w3.org/2000/svg" width="760.000" height="420.000" viewBox="0 0 760.000 420.000">
<rect x="0" y="0" width="760.000" height="420.000" fill="#f7f7f2" />
<g fill="none" stroke="#2a2a2a" stroke-width="1.2">
<path d="M 0.000 0.000 L 760.000 0.000 L 760.000 420.000 L 0.000 420.000 L 0.000 0.000 Z" stroke="#1f5f8b" />
</g>
<g fill="#86b8e7" fill-opacity="0.58" stroke="#163b5c" stroke-width="0.8">
<g id="part-0">
<path d="M 138.000 8.000 L 138.000 52.000 L 123.000 52.000 L 123.000 26.000 L 96.000 26.000 L 96.000 8.000 L 138.000 8.000 Z" />
</g>
<g id="part-1">
<path d="M 182.000 8.000 L 182.000 52.000 L 167.000 52.000 L 167.000 26.000 L 140.000 26.000 L 140.000 8.000 L 182.000 8.000 Z" />
</g>
<g id="part-2">
<path d="M 94.000 52.000 L 94.000 8.000 L 79.000 8.000 L 79.000 34.000 L 52.000 34.000 L 52.000 52.000 L 94.000 52.000 Z" />
</g>
<g id="part-3">
<path d="M 226.000 8.000 L 226.000 52.000 L 211.000 52.000 L 211.000 26.000 L 184.000 26.000 L 184.000 8.000 L 226.000 8.000 Z" />
</g>
<g id="part-4">
<path d="M 270.000 8.000 L 270.000 52.000 L 255.000 52.000 L 255.000 26.000 L 228.000 26.000 L 228.000 8.000 L 270.000 8.000 Z" />
</g>
<g id="part-5">
<path d="M 314.000 8.000 L 314.000 52.000 L 299.000 52.000 L 299.000 26.000 L 272.000 26.000 L 272.000 8.000 L 314.000 8.000 Z" />
</g>
<g id="part-6">
<path d="M 331.094 100.000 L 331.094 144.000 L 316.094 144.000 L 316.094 118.000 L 289.094 118.000 L 289.094 100.000 L 331.094 100.000 Z" />
</g>
<g id="part-7">
<path d="M 358.000 8.000 L 358.000 52.000 L 343.000 52.000 L 343.000 26.000 L 316.000 26.000 L 316.000 8.000 L 358.000 8.000 Z" />
</g>
<g id="part-8">
<path d="M 402.000 8.000 L 402.000 52.000 L 387.000 52.000 L 387.000 26.000 L 360.000 26.000 L 360.000 8.000 L 402.000 8.000 Z" />
</g>
<g id="part-9">
<path d="M 446.000 8.000 L 446.000 52.000 L 431.000 52.000 L 431.000 26.000 L 404.000 26.000 L 404.000 8.000 L 446.000 8.000 Z" />
</g>
<g id="part-10">
<path d="M 50.000 54.000 L 50.000 98.000 L 35.000 98.000 L 35.000 72.000 L 8.000 72.000 L 8.000 54.000 L 50.000 54.000 Z" />
</g>
<g id="part-11">
<path d="M 94.000 54.000 L 94.000 98.000 L 79.000 98.000 L 79.000 72.000 L 52.000 72.000 L 52.000 54.000 L 94.000 54.000 Z" />
</g>
<g id="part-12">
<path d="M 138.000 54.000 L 138.000 98.000 L 123.000 98.000 L 123.000 72.000 L 96.000 72.000 L 96.000 54.000 L 138.000 54.000 Z" />
</g>
<g id="part-13">
<path d="M 182.000 54.000 L 182.000 98.000 L 167.000 98.000 L 167.000 72.000 L 140.000 72.000 L 140.000 54.000 L 182.000 54.000 Z" />
</g>
<g id="part-14">
<path d="M 226.000 54.000 L 226.000 98.000 L 211.000 98.000 L 211.000 72.000 L 184.000 72.000 L 184.000 54.000 L 226.000 54.000 Z" />
</g>
<g id="part-15">
<path d="M 270.000 54.000 L 270.000 98.000 L 255.000 98.000 L 255.000 72.000 L 228.000 72.000 L 228.000 54.000 L 270.000 54.000 Z" />
</g>
<g id="part-16">
<path d="M 314.000 54.000 L 314.000 98.000 L 299.000 98.000 L 299.000 72.000 L 272.000 72.000 L 272.000 54.000 L 314.000 54.000 Z" />
</g>
<g id="part-17">
<path d="M 50.000 8.000 L 50.000 52.000 L 35.000 52.000 L 35.000 26.000 L 8.000 26.000 L 8.000 8.000 L 50.000 8.000 Z" />
</g>
<g id="part-18">
<path d="M 358.000 54.000 L 358.000 98.000 L 343.000 98.000 L 343.000 72.000 L 316.000 72.000 L 316.000 54.000 L 358.000 54.000 Z" />
</g>
<g id="part-19">
<path d="M 402.000 54.000 L 402.000 98.000 L 387.000 98.000 L 387.000 72.000 L 360.000 72.000 L 360.000 54.000 L 402.000 54.000 Z" />
</g>
<g id="part-20">
<path d="M 446.000 54.000 L 446.000 98.000 L 431.000 98.000 L 431.000 72.000 L 404.000 72.000 L 404.000 54.000 L 446.000 54.000 Z" />
</g>
<g id="part-21">
<path d="M 50.000 100.000 L 50.000 144.000 L 35.000 144.000 L 35.000 118.000 L 8.000 118.000 L 8.000 100.000 L 50.000 100.000 Z" />
</g>
<g id="part-22">
<path d="M 52.000 100.000 L 52.000 144.000 L 67.000 144.000 L 67.000 118.000 L 94.000 118.000 L 94.000 100.000 L 52.000 100.000 Z" />
</g>
<g id="part-23">
<path d="M 96.000 118.078 L 96.000 74.078 L 111.000 74.078 L 111.000 100.078 L 138.000 100.078 L 138.000 118.078 L 96.000 118.078 Z" />
</g>
<g id="part-24">
<path d="M 155.094 138.094 L 155.094 94.094 L 140.094 94.094 L 140.094 120.094 L 113.094 120.094 L 113.094 138.094 L 155.094 138.094 Z" />
</g>
<g id="part-25">
<path d="M 199.094 118.078 L 199.094 74.078 L 184.094 74.078 L 184.094 100.078 L 157.094 100.078 L 157.094 118.078 L 199.094 118.078 Z" />
</g>
<g id="part-26">
<path d="M 243.094 118.078 L 243.094 74.078 L 228.094 74.078 L 228.094 100.078 L 201.094 100.078 L 201.094 118.078 L 243.094 118.078 Z" />
</g>
<g id="part-27">
<path d="M 287.094 100.000 L 287.094 144.000 L 272.094 144.000 L 272.094 118.000 L 245.094 118.000 L 245.094 100.000 L 287.094 100.000 Z" />
</g>
</g>
<text x="10" y="20" font-size="14" fill="#222">mirror_required / Maximum</text>
</svg>
