<svg xmlns="http://www.w3.org/2000/svg" width="760.000" height="420.000" viewBox="0 0 760.000 420.000">
<rect x="0" y="0" width="760.000" height="420.000" fill="#f7f7f2" />
<g fill="none" stroke="#2a2a2a" stroke-width="1.2">
<path d="M 0.000 0.000 L 760.000 0.000 L 760.000 420.000 L 0.000 420.000 L 0.000 0.000 Z" stroke="#1f5f8b" />
</g>
<g fill="#86b8e7" fill-opacity="0.58" stroke="#163b5c" stroke-width="0.8">
<g id="part-0">
<path d="M 50.000 368.000 L 50.000 412.000 L 35.000 412.000 L 35.000 386.000 L 8.000 386.000 L 8.000 368.000 L 50.000 368.000 Z" />
</g>
<g id="part-1">
<path d="M 94.000 368.000 L 94.000 412.000 L 79.000 412.000 L 79.000 386.000 L 52.000 386.000 L 52.000 368.000 L 94.000 368.000 Z" />
</g>
<g id="part-2">
<path d="M 138.000 368.000 L 138.000 412.000 L 123.000 412.000 L 123.000 386.000 L 96.000 386.000 L 96.000 368.000 L 138.000 368.000 Z" />
</g>
<g id="part-3">
<path d="M 182.000 368.000 L 182.000 412.000 L 167.000 412.000 L 167.000 386.000 L 140.000 386.000 L 140.000 368.000 L 182.000 368.000 Z" />
</g>
<g id="part-4">
<path d="M 226.000 368.000 L 226.000 412.000 L 211.000 412.000 L 211.000 386.000 L 184.000 386.000 L 184.000 368.000 L 226.000 368.000 Z" />
</g>
<g id="part-5">
<path d="M 270.000 368.000 L 270.000 412.000 L 255.000 412.000 L 255.000 386.000 L 228.000 386.000 L 228.000 368.000 L 270.000 368.000 Z" />
</g>
<g id="part-6">
<path d="M 314.000 368.000 L 314.000 412.000 L 299.000 412.000 L 299.000 386.000 L 272.000 386.000 L 272.000 368.000 L 314.000 368.000 Z" />
</g>
<g id="part-7">
<path d="M 358.000 368.000 L 358.000 412.000 L 343.000 412.000 L 343.000 386.000 L 316.000 386.000 L 316.000 368.000 L 358.000 368.000 Z" />
</g>
<g id="part-8">
<path d="M 402.000 368.000 L 402.000 412.000 L 387.000 412.000 L 387.000 386.000 L 360.000 386.000 L 360.000 368.000 L 402.000 368.000 Z" />
</g>
<g id="part-9">
<path d="M 446.000 368.000 L 446.000 412.000 L 431.000 412.000 L 431.000 386.000 L 404.000 386.000 L 404.000 368.000 L 446.000 368.000 Z" />
</g>
<g id="part-10">
<path d="M 490.000 368.000 L 490.000 412.000 L 475.000 412.000 L 475.000 386.000 L 448.000 386.000 L 448.000 368.000 L 490.000 368.000 Z" />
</g>
<g id="part-11">
<path d="M 534.000 368.000 L 534.000 412.000 L 519.000 412.000 L 519.000 386.000 L 492.000 386.000 L 492.000 368.000 L 534.000 368.000 Z" />
</g>
<g id="part-12">
<path d="M 578.000 361.700 L 578.000 405.700 L 563.000 405.700 L 563.000 379.700 L 536.000 379.700 L 536.000 361.700 L 578.000 361.700 Z" />
</g>
<g id="part-13">
<path d="M 622.000 368.000 L 622.000 412.000 L 607.000 412.000 L 607.000 386.000 L 580.000 386.000 L 580.000 368.000 L 622.000 368.000 Z" />
</g>
<g id="part-14">
<path d="M 666.000 368.000 L 666.000 412.000 L 651.000 412.000 L 651.000 386.000 L 624.000 386.000 L 624.000 368.000 L 666.000 368.000 Z" />
</g>
<g id="part-15">
<path d="M 710.000 368.000 L 710.000 412.000 L 695.000 412.000 L 695.000 386.000 L 668.000 386.000 L 668.000 368.000 L 710.000 368.000 Z" />
</g>
<g id="part-16">
<path d="M 50.000 322.000 L 50.000 366.000 L 35.000 366.000 L 35.000 340.000 L 8.000 340.000 L 8.000 322.000 L 50.000 322.000 Z" />
</g>
<g id="part-17">
<path d="M 94.000 322.000 L 94.000 366.000 L 79.000 366.000 L 79.000 340.000 L 52.000 340.000 L 52.000 322.000 L 94.000 322.000 Z" />
</g>
<g id="part-18">
<path d="M 138.000 322.000 L 138.000 366.000 L 123.000 366.000 L 123.000 340.000 L 96.000 340.000 L 96.000 322.000 L 138.000 322.000 Z" />
</g>
<g id="part-19">
<path d="M 182.000 322.000 L 182.000 366.000 L 167.000 366.000 L 167.000 340.000 L 140.000 340.000 L 140.000 322.000 L 182.000 322.000 Z" />
</g>
<g id="part-20">
<path d="M 226.000 322.000 L 226.000 366.000 L 211.000 366.000 L 211.000 340.000 L 184.000 340.000 L 184.000 322.000 L 226.000 322.000 Z" />
</g>
<g id="part-21">
<path d="M 270.000 322.000 L 270.000 366.000 L 255.000 366.000 L 255.000 340.000 L 228.000 340.000 L 228.000 322.000 L 270.000 322.000 Z" />
</g>
<g id="part-22">
<path d="M 314.000 322.000 L 314.000 366.000 L 299.000 366.000 L 299.000 340.000 L 272.000 340.000 L 272.000 322.000 L 314.000 322.000 Z" />
</g>
<g id="part-23">
<path d="M 316.000 366.000 L 316.000 322.000 L 331.000 322.000 L 331.000 348.000 L 358.000 348.000 L 358.000 366.000 L 316.000 366.000 Z" />
</g>
<g id="part-24">
<path d="M 360.000 366.000 L 360.000 322.000 L 375.000 322.000 L 375.000 348.000 L 402.000 348.000 L 402.000 366.000 L 360.000 366.000 Z" />
</g>
<g id="part-25">
<path d="M 404.000 366.000 L 404.000 322.000 L 419.000 322.000 L 419.000 348.000 L 446.000 348.000 L 446.000 366.000 L 404.000 366.000 Z" />
</g>
<g id="part-26">
<path d="M 490.000 322.000 L 490.000 366.000 L 475.000 366.000 L 475.000 340.000 L 448.000 340.000 L 448.000 322.000 L 490.000 322.000 Z" />
</g>
<g id="part-27">
<path d="M 534.000 322.000 L 534.000 366.000 L 519.000 366.000 L 519.000 340.000 L 492.000 340.000 L 492.000 322.000 L 534.000 322.000 Z" />
</g>
</g>
<text x="10" y="20" font-size="14" fill="#222">mirror_required_disabled / Balanced</text>
</svg>
