<svg xmlns="http://www.w3.org/2000/svg" width="1450.000" height="940.000" viewBox="0 0 1450.000 940.000">
<rect x="0" y="0" width="1450.000" height="940.000" fill="#f7f7f2" />
<g fill="none" stroke="#2a2a2a" stroke-width="1.2">
<path d="M 0.000 0.000 L 1450.000 0.000 L 1450.000 940.000 L 0.000 940.000 L 0.000 0.000 Z" stroke="#1f5f8b" />
</g>
<g fill="#86b8e7" fill-opacity="0.58" stroke="#163b5c" stroke-width="0.8">
<g id="part-0">
<path d="M 692.000 10.000 L 721.000 10.000 L 721.000 45.000 L 692.000 45.000 L 692.000 10.000 Z" />
<path d="M 701.280 21.200 L 701.280 33.800 L 711.720 33.800 L 711.720 21.200 L 701.280 21.200 Z" fill="#f7f7f2" fill-opacity="1" stroke="#163b5c" />
</g>
<g id="part-1">
<path d="M 289.000 10.000 L 333.000 10.000 L 333.000 52.000 L 289.000 52.000 L 289.000 10.000 Z" />
<path d="M 303.960 17.560 L 303.960 26.800 L 323.320 26.800 L 323.320 17.560 L 303.960 17.560 Z" fill="#f7f7f2" fill-opacity="1" stroke="#163b5c" />
<path d="M 303.960 35.200 L 303.960 44.440 L 323.320 44.440 L 323.320 35.200 L 303.960 35.200 Z" fill="#f7f7f2" fill-opacity="1" stroke="#163b5c" />
</g>
<g id="part-2">
<path d="M 816.000 10.000 L 856.000 10.000 L 856.000 16.820 L 829.600 16.820 L 829.600 34.180 L 856.000 34.180 L 856.000 41.000 L 816.000 41.000 L 816.000 10.000 Z" />
</g>
<g id="part-3">
<path d="M 324.932 54.000 L 342.932 58.000 L 337.892 80.000 L 327.932 75.320 L 324.932 54.000 Z" />
</g>
<g id="part-4">
<path d="M 483.433 97.706 L 482.287 101.233 L 479.287 103.413 L 475.579 103.413 L 472.579 101.233 L 471.433 97.706 L 472.579 94.180 L 475.579 92.000 L 479.287 92.000 L 482.287 94.180 L 483.433 97.706 Z" />
</g>
<g id="part-5">
<path d="M 646.793 47.000 L 674.793 47.000 L 674.793 69.000 L 646.793 69.000 L 646.793 47.000 Z" />
</g>
<g id="part-6">
<path d="M 617.433 90.000 L 638.433 90.000 L 638.433 99.000 L 617.433 99.000 L 617.433 90.000 Z" />
</g>
<g id="part-7">
<path d="M 10.000 96.000 L 24.000 96.000 L 24.000 114.000 L 10.000 114.000 L 10.000 96.000 Z" />
</g>
<g id="part-8">
<path d="M 218.432 56.000 L 249.432 56.000 L 249.432 83.000 L 218.432 83.000 L 218.432 56.000 Z" />
</g>
<g id="part-9">
<path d="M 303.433 94.000 L 327.433 94.000 L 327.433 108.000 L 303.433 108.000 L 303.433 94.000 Z" />
</g>
<g id="part-10">
<path d="M 613.000 10.000 L 644.000 10.000 L 644.000 47.000 L 613.000 47.000 L 613.000 10.000 Z" />
<path d="M 622.920 21.840 L 622.920 35.160 L 634.080 35.160 L 634.080 21.840 L 622.920 21.840 Z" fill="#f7f7f2" fill-opacity="1" stroke="#163b5c" />
</g>
<g id="part-11">
<path d="M 363.000 10.000 L 387.000 10.000 L 387.000 52.000 L 363.000 52.000 L 363.000 10.000 Z" />
<path d="M 371.160 17.560 L 371.160 26.800 L 381.720 26.800 L 381.720 17.560 L 371.160 17.560 Z" fill="#f7f7f2" fill-opacity="1" stroke="#163b5c" />
<path d="M 371.160 35.200 L 371.160 44.440 L 381.720 44.440 L 381.720 35.200 L 371.160 35.200 Z" fill="#f7f7f2" fill-opacity="1" stroke="#163b5c" />
</g>
<g id="part-12">
<path d="M 723.000 10.000 L 765.000 10.000 L 765.000 17.260 L 737.280 17.260 L 737.280 35.740 L 765.000 35.740 L 765.000 43.000 L 723.000 43.000 L 723.000 10.000 Z" />
</g>
<g id="part-13">
<path d="M 67.750 64.000 L 87.750 68.000 L 82.150 92.000 L 70.750 86.960 L 67.750 64.000 Z" />
</g>
<g id="part-14">
<path d="M 189.433 102.919 L 188.480 107.244 L 185.925 110.196 L 182.579 110.837 L 179.504 108.965 L 177.676 105.172 L 177.676 100.665 L 179.504 96.873 L 182.579 95.000 L 185.925 95.642 L 188.480 98.593 L 189.433 102.919 Z" />
</g>
<g id="part-15">
<path d="M 418.432 53.000 L 448.432 53.000 L 448.432 77.000 L 418.432 77.000 L 418.432 53.000 Z" />
</g>
<g id="part-16">
<path d="M 485.433 92.000 L 508.433 92.000 L 508.433 103.000 L 485.433 103.000 L 485.433 92.000 Z" />
</g>
<g id="part-17">
<path d="M 767.043 43.000 L 783.043 43.000 L 783.043 63.000 L 767.043 63.000 L 767.043 43.000 Z" />
</g>
<g id="part-18">
<path d="M 905.000 10.000 L 938.000 10.000 L 938.000 39.000 L 905.000 39.000 L 905.000 10.000 Z" />
</g>
<g id="part-19">
<path d="M 110.000 96.000 L 136.000 96.000 L 136.000 112.000 L 110.000 112.000 L 110.000 96.000 Z" />
</g>
<g id="part-20">
<path d="M 530.000 10.000 L 563.000 10.000 L 563.000 49.000 L 530.000 49.000 L 530.000 10.000 Z" />
<path d="M 540.560 22.480 L 540.560 36.520 L 552.440 36.520 L 552.440 22.480 L 540.560 22.480 Z" fill="#f7f7f2" fill-opacity="1" stroke="#163b5c" />
</g>
<g id="part-21">
<path d="M 389.000 10.000 L 413.000 10.000 L 413.000 52.000 L 389.000 52.000 L 389.000 10.000 Z" />
<path d="M 397.160 17.560 L 397.160 26.800 L 407.720 26.800 L 407.720 17.560 L 397.160 17.560 Z" fill="#f7f7f2" fill-opacity="1" stroke="#163b5c" />
<path d="M 397.160 35.200 L 397.160 44.440 L 407.720 44.440 L 407.720 35.200 L 397.160 35.200 Z" fill="#f7f7f2" fill-opacity="1" stroke="#163b5c" />
</g>
<g id="part-22">
<path d="M 646.000 10.000 L 690.000 10.000 L 690.000 17.700 L 660.960 17.700 L 660.960 37.300 L 690.000 37.300 L 690.000 45.000 L 646.000 45.000 L 646.000 10.000 Z" />
</g>
<g id="part-23">
<path d="M 651.683 85.250 L 673.683 89.250 L 667.523 93.250 L 654.683 91.810 L 651.683 85.250 Z" />
</g>
<g id="part-24">
<path d="M 175.676 101.919 L 174.406 106.244 L 170.999 109.196 L 166.537 109.837 L 162.437 107.965 L 160.000 104.172 L 160.000 99.665 L 162.437 95.873 L 166.537 94.000 L 170.999 94.642 L 174.406 97.593 L 175.676 101.919 Z" />
</g>
<g id="part-25">
<path d="M 268.432 55.000 L 300.432 55.000 L 300.432 81.000 L 268.432 81.000 L 268.432 55.000 Z" />
</g>
<g id="part-26">
<path d="M 349.433 94.000 L 374.433 94.000 L 374.433 107.000 L 349.433 107.000 L 349.433 94.000 Z" />
</g>
<g id="part-27">
<path d="M 676.793 47.000 L 694.793 47.000 L 694.793 69.000 L 676.793 69.000 L 676.793 47.000 Z" />
</g>
<g id="part-28">
<path d="M 640.433 90.000 L 651.433 90.000 L 651.433 99.000 L 640.433 99.000 L 640.433 90.000 Z" />
</g>
<g id="part-29">
<path d="M 939.793 40.000 L 967.793 40.000 L 967.793 58.000 L 939.793 58.000 L 939.793 40.000 Z" />
</g>
<g id="part-30">
<path d="M 415.000 10.000 L 450.000 10.000 L 450.000 51.000 L 415.000 51.000 L 415.000 10.000 Z" />
<path d="M 426.200 23.120 L 426.200 37.880 L 438.800 37.880 L 438.800 23.120 L 426.200 23.120 Z" fill="#f7f7f2" fill-opacity="1" stroke="#163b5c" />
</g>
<g id="part-31">
<path d="M 335.000 10.000 L 361.000 10.000 L 361.000 52.000 L 335.000 52.000 L 335.000 10.000 Z" />
<path d="M 343.840 17.560 L 343.840 26.800 L 355.280 26.800 L 355.280 17.560 L 343.840 17.560 Z" fill="#f7f7f2" fill-opacity="1" stroke="#163b5c" />
<path d="M 343.840 35.200 L 343.840 44.440 L 355.280 44.440 L 355.280 35.200 L 343.840 35.200 Z" fill="#f7f7f2" fill-opacity="1" stroke="#163b5c" />
</g>
<g id="part-32">
<path d="M 565.000 10.000 L 611.000 10.000 L 611.000 18.140 L 580.640 18.140 L 580.640 38.860 L 611.000 38.860 L 611.000 47.000 L 565.000 47.000 L 565.000 10.000 Z" />
</g>
<g id="part-33">
<path d="M 553.933 91.000 L 577.933 95.000 L 571.213 101.000 L 556.933 99.200 L 553.933 91.000 Z" />
</g>
<g id="part-34">
<path d="M 801.043 53.000 L 799.971 58.000 L 797.043 61.660 L 793.043 63.000 L 789.043 61.660 L 786.114 58.000 L 785.043 53.000 L 786.114 48.000 L 789.043 44.340 L 793.043 43.000 L 797.043 44.340 L 799.971 48.000 L 801.043 53.000 Z" />
</g>
<g id="part-35">
<path d="M 106.000 62.000 L 116.000 62.000 L 116.000 90.000 L 106.000 90.000 L 106.000 62.000 Z" />
</g>
<g id="part-36">
<path d="M 191.433 96.000 L 218.433 96.000 L 218.433 111.000 L 191.433 111.000 L 191.433 96.000 Z" />
</g>
<g id="part-37">
<path d="M 450.432 66.000 L 470.432 66.000 L 470.432 90.000 L 450.432 90.000 L 450.432 66.000 Z" />
</g>
<g id="part-38">
<path d="M 510.433 96.000 L 523.433 96.000 L 523.433 107.000 L 510.433 107.000 L 510.433 96.000 Z" />
</g>
<g id="part-39">
<path d="M 770.793 66.000 L 800.793 66.000 L 800.793 86.000 L 770.793 86.000 L 770.793 66.000 Z" />
</g>
<g id="part-40">
<path d="M 220.000 10.000 L 257.000 10.000 L 257.000 53.000 L 220.000 53.000 L 220.000 10.000 Z" />
<path d="M 231.840 23.760 L 231.840 39.240 L 245.160 39.240 L 245.160 23.760 L 231.840 23.760 Z" fill="#f7f7f2" fill-opacity="1" stroke="#163b5c" />
</g>
<g id="part-41">
<path d="M 190.000 10.000 L 218.000 10.000 L 218.000 54.000 L 190.000 54.000 L 190.000 10.000 Z" />
<path d="M 199.520 17.920 L 199.520 27.600 L 211.840 27.600 L 211.840 17.920 L 199.520 17.920 Z" fill="#f7f7f2" fill-opacity="1" stroke="#163b5c" />
<path d="M 199.520 36.400 L 199.520 46.080 L 211.840 46.080 L 211.840 36.400 L 199.520 36.400 Z" fill="#f7f7f2" fill-opacity="1" stroke="#163b5c" />
</g>
<g id="part-42">
<path d="M 480.000 10.000 L 528.000 10.000 L 528.000 18.580 L 496.320 18.580 L 496.320 40.420 L 528.000 40.420 L 528.000 49.000 L 480.000 49.000 L 480.000 10.000 Z" />
</g>
<g id="part-43">
<path d="M 425.433 96.000 L 451.433 100.000 L 444.153 108.000 L 428.433 105.840 L 425.433 96.000 Z" />
</g>
<g id="part-44">
<path d="M 822.793 76.000 L 821.453 81.000 L 817.793 84.660 L 812.793 86.000 L 807.793 84.660 L 804.132 81.000 L 802.793 76.000 L 804.132 71.000 L 807.793 67.340 L 812.793 66.000 L 817.793 67.340 L 821.453 71.000 L 822.793 76.000 Z" />
</g>
<g id="part-45">
<path d="M 723.433 96.000 L 735.433 96.000 L 735.433 104.000 L 723.433 104.000 L 723.433 96.000 Z" />
</g>
<g id="part-46">
<path d="M 26.000 96.000 L 55.000 96.000 L 55.000 113.000 L 26.000 113.000 L 26.000 96.000 Z" />
</g>
<g id="part-47">
<path d="M 302.432 66.000 L 324.432 66.000 L 324.432 92.000 L 302.432 92.000 L 302.432 66.000 Z" />
</g>
<g id="part-48">
<path d="M 376.433 96.000 L 391.433 96.000 L 391.433 109.000 L 376.433 109.000 L 376.433 96.000 Z" />
</g>
<g id="part-49">
<path d="M 612.793 66.000 L 644.793 66.000 L 644.793 88.000 L 612.793 88.000 L 612.793 66.000 Z" />
</g>
<g id="part-50">
<path d="M 531.793 66.000 L 570.793 66.000 L 570.793 89.000 L 531.793 89.000 L 531.793 66.000 Z" />
<path d="M 544.273 73.360 L 544.273 81.640 L 558.313 81.640 L 558.313 73.360 L 544.273 73.360 Z" fill="#f7f7f2" fill-opacity="1" stroke="#163b5c" />
</g>
<g id="part-51">
<path d="M 158.000 10.000 L 188.000 10.000 L 188.000 56.000 L 158.000 56.000 L 158.000 10.000 Z" />
<path d="M 168.200 18.280 L 168.200 28.400 L 181.400 28.400 L 181.400 18.280 L 168.200 18.280 Z" fill="#f7f7f2" fill-opacity="1" stroke="#163b5c" />
<path d="M 168.200 37.600 L 168.200 47.720 L 181.400 47.720 L 181.400 37.600 L 168.200 37.600 Z" fill="#f7f7f2" fill-opacity="1" stroke="#163b5c" />
</g>
<g id="part-52">
<path d="M 452.000 10.000 L 478.000 10.000 L 478.000 19.020 L 460.840 19.020 L 460.840 41.980 L 478.000 41.980 L 478.000 51.000 L 452.000 51.000 L 452.000 10.000 Z" />
</g>
<g id="part-53">
<path d="M 273.433 96.000 L 301.433 100.000 L 293.593 110.000 L 276.433 107.480 L 273.433 96.000 Z" />
</g>
<g id="part-54">
<path d="M 529.793 77.913 L 528.647 83.489 L 525.473 87.788 L 520.998 89.825 L 516.247 89.133 L 512.307 85.870 L 510.083 80.784 L 510.083 75.041 L 512.307 69.955 L 516.247 66.692 L 520.998 66.000 L 525.473 68.037 L 528.647 72.336 L 529.793 77.913 Z" />
</g>
<g id="part-55">
<path d="M 601.433 96.000 L 615.433 96.000 L 615.433 106.000 L 601.433 106.000 L 601.433 96.000 Z" />
</g>
<g id="part-56">
<path d="M 872.793 66.000 L 903.793 66.000 L 903.793 85.000 L 872.793 85.000 L 872.793 66.000 Z" />
</g>
<g id="part-57">
<path d="M 42.000 66.000 L 66.000 66.000 L 66.000 94.000 L 42.000 94.000 L 42.000 66.000 Z" />
</g>
<g id="part-58">
<path d="M 220.433 96.000 L 237.433 96.000 L 237.433 111.000 L 220.433 111.000 L 220.433 96.000 Z" />
</g>
<g id="part-59">
<path d="M 472.432 66.000 L 482.432 66.000 L 482.432 90.000 L 472.432 90.000 L 472.432 66.000 Z" />
</g>
<g id="part-60">
<path d="M 360.432 66.000 L 401.432 66.000 L 401.432 91.000 L 360.432 91.000 L 360.432 66.000 Z" />
<path d="M 373.552 74.000 L 373.552 83.000 L 388.312 83.000 L 388.312 74.000 L 373.552 74.000 Z" fill="#f7f7f2" fill-opacity="1" stroke="#163b5c" />
</g>
<g id="part-61">
<path d="M 124.000 10.000 L 156.000 10.000 L 156.000 58.000 L 124.000 58.000 L 124.000 10.000 Z" />
<path d="M 134.880 18.640 L 134.880 29.200 L 148.960 29.200 L 148.960 18.640 L 134.880 18.640 Z" fill="#f7f7f2" fill-opacity="1" stroke="#163b5c" />
<path d="M 134.880 38.800 L 134.880 49.360 L 148.960 49.360 L 148.960 38.800 L 134.880 38.800 Z" fill="#f7f7f2" fill-opacity="1" stroke="#163b5c" />
</g>
<g id="part-62">
<path d="M 259.000 10.000 L 287.000 10.000 L 287.000 19.460 L 268.520 19.460 L 268.520 43.540 L 287.000 43.540 L 287.000 53.000 L 259.000 53.000 L 259.000 10.000 Z" />
</g>
<g id="part-63">
<path d="M 78.000 96.000 L 108.000 100.000 L 99.600 112.000 L 81.000 109.120 L 78.000 96.000 Z" />
</g>
<g id="part-64">
<path d="M 508.083 77.913 L 506.709 83.489 L 502.900 87.788 L 497.530 89.825 L 491.828 89.133 L 487.101 85.870 L 484.432 80.784 L 484.432 75.041 L 487.101 69.955 L 491.828 66.692 L 497.530 66.000 L 502.900 68.037 L 506.709 72.336 L 508.083 77.913 Z" />
</g>
<g id="part-65">
<path d="M 453.433 96.000 L 469.433 96.000 L 469.433 108.000 L 453.433 108.000 L 453.433 96.000 Z" />
</g>
<g id="part-66">
<path d="M 710.793 66.000 L 743.793 66.000 L 743.793 87.000 L 710.793 87.000 L 710.793 66.000 Z" />
</g>
<g id="part-67">
<path d="M 653.433 96.000 L 679.433 96.000 L 679.433 104.000 L 653.433 104.000 L 653.433 96.000 Z" />
</g>
<g id="part-68">
<path d="M 57.000 96.000 L 76.000 96.000 L 76.000 113.000 L 57.000 113.000 L 57.000 96.000 Z" />
</g>
<g id="part-69">
<path d="M 346.432 66.000 L 358.432 66.000 L 358.432 92.000 L 346.432 92.000 L 346.432 66.000 Z" />
</g>
<g id="part-70">
<path d="M 173.432 66.000 L 216.432 66.000 L 216.432 93.000 L 173.432 93.000 L 173.432 66.000 Z" />
<path d="M 187.192 74.640 L 187.192 84.360 L 202.672 84.360 L 202.672 74.640 L 187.192 74.640 Z" fill="#f7f7f2" fill-opacity="1" stroke="#163b5c" />
</g>
<g id="part-71">
<path d="M 88.000 10.000 L 122.000 10.000 L 122.000 60.000 L 88.000 60.000 L 88.000 10.000 Z" />
<path d="M 99.560 19.000 L 99.560 30.000 L 114.520 30.000 L 114.520 19.000 L 99.560 19.000 Z" fill="#f7f7f2" fill-opacity="1" stroke="#163b5c" />
<path d="M 99.560 40.000 L 99.560 51.000 L 114.520 51.000 L 114.520 40.000 L 99.560 40.000 Z" fill="#f7f7f2" fill-opacity="1" stroke="#163b5c" />
</g>
<g id="part-72">
<path d="M 10.000 66.000 L 40.000 66.000 L 40.000 72.160 L 20.200 72.160 L 20.200 87.840 L 40.000 87.840 L 40.000 94.000 L 10.000 94.000 L 10.000 66.000 Z" />
</g>
<g id="part-73">
<path d="M 928.793 66.000 L 960.793 70.000 L 951.833 84.000 L 931.793 80.760 L 928.793 66.000 Z" />
</g>
<g id="part-74">
<path d="M 171.432 79.923 L 170.394 85.618 L 167.461 90.327 L 163.140 93.238 L 158.177 93.847 L 153.432 92.048 L 149.724 88.152 L 147.694 82.834 L 147.694 77.013 L 149.724 71.694 L 153.432 67.799 L 158.177 66.000 L 163.140 66.609 L 167.461 69.519 L 170.394 74.229 L 171.432 79.923 Z" />
</g>
<g id="part-75">
<path d="M 329.433 96.000 L 347.433 96.000 L 347.433 110.000 L 329.433 110.000 L 329.433 96.000 Z" />
</g>
<g id="part-76">
<path d="M 599.793 66.000 L 610.793 66.000 L 610.793 89.000 L 599.793 89.000 L 599.793 66.000 Z" />
</g>
<g id="part-77">
<path d="M 525.433 96.000 L 553.433 96.000 L 553.433 106.000 L 525.433 106.000 L 525.433 96.000 Z" />
</g>
<g id="part-78">
<path d="M 905.793 66.000 L 926.793 66.000 L 926.793 85.000 L 905.793 85.000 L 905.793 66.000 Z" />
</g>
<g id="part-79">
<path d="M 90.000 66.000 L 104.000 66.000 L 104.000 94.000 L 90.000 94.000 L 90.000 66.000 Z" />
</g>
<g id="part-80">
<path d="M 858.000 10.000 L 903.000 10.000 L 903.000 39.000 L 858.000 39.000 L 858.000 10.000 Z" />
<path d="M 872.400 19.280 L 872.400 29.720 L 888.600 29.720 L 888.600 19.280 L 872.400 19.280 Z" fill="#f7f7f2" fill-opacity="1" stroke="#163b5c" />
</g>
<g id="part-81">
<path d="M 50.000 10.000 L 86.000 10.000 L 86.000 62.000 L 50.000 62.000 L 50.000 10.000 Z" />
<path d="M 62.240 19.360 L 62.240 30.800 L 78.080 30.800 L 78.080 19.360 L 62.240 19.360 Z" fill="#f7f7f2" fill-opacity="1" stroke="#163b5c" />
<path d="M 62.240 41.200 L 62.240 52.640 L 78.080 52.640 L 78.080 41.200 L 62.240 41.200 Z" fill="#f7f7f2" fill-opacity="1" stroke="#163b5c" />
</g>
<g id="part-82">
<path d="M 976.000 10.000 L 1008.000 10.000 L 1008.000 16.160 L 986.880 16.160 L 986.880 31.840 L 1008.000 31.840 L 1008.000 38.000 L 976.000 38.000 L 976.000 10.000 Z" />
</g>
<g id="part-83">
<path d="M 860.793 66.000 L 870.793 70.000 L 867.993 86.000 L 863.793 82.400 L 860.793 66.000 Z" />
</g>
<g id="part-84">
<path d="M 145.694 79.923 L 144.484 85.618 L 141.062 90.327 L 136.020 93.238 L 130.231 93.847 L 124.694 92.048 L 120.368 88.152 L 118.000 82.834 L 118.000 77.013 L 120.368 71.694 L 124.694 67.799 L 130.231 66.000 L 136.020 66.609 L 141.062 69.519 L 144.484 74.229 L 145.694 79.923 Z" />
</g>
<g id="part-85">
<path d="M 138.000 96.000 L 158.000 96.000 L 158.000 112.000 L 138.000 112.000 L 138.000 96.000 Z" />
</g>
<g id="part-86">
<path d="M 403.432 66.000 L 416.432 66.000 L 416.432 91.000 L 403.432 91.000 L 403.432 66.000 Z" />
</g>
<g id="part-87">
<path d="M 393.433 96.000 L 423.433 96.000 L 423.433 108.000 L 393.433 108.000 L 393.433 96.000 Z" />
</g>
<g id="part-88">
<path d="M 745.793 66.000 L 768.793 66.000 L 768.793 87.000 L 745.793 87.000 L 745.793 66.000 Z" />
</g>
<g id="part-89">
<path d="M 705.433 96.000 L 721.433 96.000 L 721.433 104.000 L 705.433 104.000 L 705.433 96.000 Z" />
</g>
<g id="part-90">
<path d="M 767.000 10.000 L 814.000 10.000 L 814.000 41.000 L 767.000 41.000 L 767.000 10.000 Z" />
<path d="M 782.040 19.920 L 782.040 31.080 L 798.960 31.080 L 798.960 19.920 L 782.040 19.920 Z" fill="#f7f7f2" fill-opacity="1" stroke="#163b5c" />
</g>
<g id="part-91">
<path d="M 10.000 10.000 L 48.000 10.000 L 48.000 64.000 L 10.000 64.000 L 10.000 10.000 Z" />
<path d="M 22.920 19.720 L 22.920 31.600 L 39.640 31.600 L 39.640 19.720 L 22.920 19.720 Z" fill="#f7f7f2" fill-opacity="1" stroke="#163b5c" />
<path d="M 22.920 42.400 L 22.920 54.280 L 39.640 54.280 L 39.640 42.400 L 22.920 42.400 Z" fill="#f7f7f2" fill-opacity="1" stroke="#163b5c" />
</g>
<g id="part-92">
<path d="M 940.000 10.000 L 974.000 10.000 L 974.000 16.160 L 951.560 16.160 L 951.560 31.840 L 974.000 31.840 L 974.000 38.000 L 940.000 38.000 L 940.000 10.000 Z" />
</g>
<g id="part-93">
<path d="M 696.793 66.000 L 708.793 70.000 L 705.433 88.000 L 699.793 84.040 L 696.793 66.000 Z" />
</g>
<g id="part-94">
<path d="M 765.127 99.978 L 763.917 101.605 L 760.495 102.951 L 755.453 103.782 L 749.664 103.956 L 744.127 103.442 L 739.801 102.329 L 737.433 100.810 L 737.433 99.146 L 739.801 97.627 L 744.127 96.514 L 749.664 96.000 L 755.453 96.174 L 760.495 97.006 L 763.917 98.351 L 765.127 99.978 Z" />
</g>
<g id="part-95">
<path d="M 992.793 66.000 L 1014.793 66.000 L 1014.793 84.000 L 992.793 84.000 L 992.793 66.000 Z" />
</g>
<g id="part-96">
<path d="M 251.432 66.000 L 266.432 66.000 L 266.432 93.000 L 251.432 93.000 L 251.432 66.000 Z" />
</g>
<g id="part-97">
<path d="M 239.433 96.000 L 271.433 96.000 L 271.433 110.000 L 239.433 110.000 L 239.433 96.000 Z" />
</g>
<g id="part-98">
<path d="M 572.793 66.000 L 597.793 66.000 L 597.793 89.000 L 572.793 89.000 L 572.793 66.000 Z" />
</g>
<g id="part-99">
<path d="M 581.433 96.000 L 599.433 96.000 L 599.433 106.000 L 581.433 106.000 L 581.433 96.000 Z" />
</g>
</g>
<text x="10" y="20" font-size="14" fill="#222">mixed_100_parts / Maximum</text>
</svg>
