<svg xmlns="http://www.w3.org/2000/svg" width="2250.000" height="1450.000" viewBox="0 0 2250.000 1450.000">
<rect x="0" y="0" width="2250.000" height="1450.000" fill="#f7f7f2" />
<g fill="none" stroke="#2a2a2a" stroke-width="1.2">
<path d="M 0.000 0.000 L 2250.000 0.000 L 2250.000 1450.000 L 0.000 1450.000 L 0.000 0.000 Z" stroke="#1f5f8b" />
</g>
<g fill="#86b8e7" fill-opacity="0.58" stroke="#163b5c" stroke-width="0.8">
<g id="part-0">
<path d="M 563.000 56.000 L 598.000 56.000 L 598.000 87.000 L 563.000 87.000 L 563.000 56.000 Z" />
<path d="M 574.200 65.920 L 574.200 77.080 L 586.800 77.080 L 586.800 65.920 L 574.200 65.920 Z" fill="#f7f7f2" fill-opacity="1" stroke="#163b5c" />
</g>
<g id="part-1">
<path d="M 94.000 10.000 L 120.000 10.000 L 120.000 64.000 L 94.000 64.000 L 94.000 10.000 Z" />
<path d="M 102.840 19.720 L 102.840 31.600 L 114.280 31.600 L 114.280 19.720 L 102.840 19.720 Z" fill="#f7f7f2" fill-opacity="1" stroke="#163b5c" />
<path d="M 102.840 42.400 L 102.840 54.280 L 114.280 54.280 L 114.280 42.400 L 102.840 42.400 Z" fill="#f7f7f2" fill-opacity="1" stroke="#163b5c" />
</g>
<g id="part-2">
<path d="M 1031.000 54.000 L 1077.000 54.000 L 1077.000 60.160 L 1046.640 60.160 L 1046.640 75.840 L 1077.000 75.840 L 1077.000 82.000 L 1031.000 82.000 L 1031.000 54.000 Z" />
</g>
<g id="part-3">
<path d="M 1350.652 98.000 L 1374.652 102.000 L 1367.932 120.000 L 1353.652 116.040 L 1350.652 98.000 Z" />
</g>
<g id="part-4">
<path d="M 1208.630 157.959 L 1207.360 160.122 L 1203.953 161.598 L 1199.491 161.919 L 1195.391 160.982 L 1192.954 159.086 L 1192.954 156.832 L 1195.391 154.936 L 1199.491 154.000 L 1203.953 154.321 L 1207.360 155.797 L 1208.630 157.959 Z" />
</g>
<g id="part-5">
<path d="M 808.734 133.000 L 818.734 133.000 L 818.734 151.000 L 808.734 151.000 L 808.734 133.000 Z" />
</g>
<g id="part-6">
<path d="M 220.257 105.000 L 247.257 105.000 L 247.257 132.000 L 220.257 132.000 L 220.257 105.000 Z" />
</g>
<g id="part-7">
<path d="M 1407.687 131.000 L 1427.687 131.000 L 1427.687 145.000 L 1407.687 145.000 L 1407.687 131.000 Z" />
</g>
<g id="part-8">
<path d="M 1265.902 98.000 L 1278.902 98.000 L 1278.902 121.000 L 1265.902 121.000 L 1265.902 98.000 Z" />
</g>
<g id="part-9">
<path d="M 669.028 157.000 L 699.028 157.000 L 699.028 167.000 L 669.028 167.000 L 669.028 157.000 Z" />
</g>
<g id="part-10">
<path d="M 296.000 62.000 L 333.000 62.000 L 333.000 95.000 L 296.000 95.000 L 296.000 62.000 Z" />
<path d="M 307.840 72.560 L 307.840 84.440 L 321.160 84.440 L 321.160 72.560 L 307.840 72.560 Z" fill="#f7f7f2" fill-opacity="1" stroke="#163b5c" />
</g>
<g id="part-11">
<path d="M 10.000 10.000 L 38.000 10.000 L 38.000 66.000 L 10.000 66.000 L 10.000 10.000 Z" />
<path d="M 19.520 20.080 L 19.520 32.400 L 31.840 32.400 L 31.840 20.080 L 19.520 20.080 Z" fill="#f7f7f2" fill-opacity="1" stroke="#163b5c" />
<path d="M 19.520 43.600 L 19.520 55.920 L 31.840 55.920 L 31.840 43.600 L 19.520 43.600 Z" fill="#f7f7f2" fill-opacity="1" stroke="#163b5c" />
</g>
<g id="part-12">
<path d="M 696.000 55.000 L 744.000 55.000 L 744.000 61.380 L 712.320 61.380 L 712.320 77.620 L 744.000 77.620 L 744.000 84.000 L 696.000 84.000 L 696.000 55.000 Z" />
</g>
<g id="part-13">
<path d="M 825.257 99.000 L 851.257 103.000 L 843.977 123.000 L 828.257 118.680 L 825.257 99.000 Z" />
</g>
<g id="part-14">
<path d="M 403.000 164.000 L 401.660 167.000 L 398.000 169.196 L 393.000 170.000 L 388.000 169.196 L 384.340 167.000 L 383.000 164.000 L 384.340 161.000 L 388.000 158.804 L 393.000 158.000 L 398.000 158.804 L 401.660 161.000 L 403.000 164.000 Z" />
</g>
<g id="part-15">
<path d="M 362.000 136.000 L 374.000 136.000 L 374.000 156.000 L 362.000 156.000 L 362.000 136.000 Z" />
</g>
<g id="part-16">
<path d="M 873.000 54.000 L 902.000 54.000 L 902.000 83.000 L 873.000 83.000 L 873.000 54.000 Z" />
</g>
<g id="part-17">
<path d="M 974.734 133.000 L 996.734 133.000 L 996.734 149.000 L 974.734 149.000 L 974.734 133.000 Z" />
</g>
<g id="part-18">
<path d="M 719.257 86.000 L 734.257 86.000 L 734.257 111.000 L 719.257 111.000 L 719.257 86.000 Z" />
</g>
<g id="part-19">
<path d="M 190.000 160.000 L 222.000 160.000 L 222.000 172.000 L 190.000 172.000 L 190.000 160.000 Z" />
</g>
<g id="part-20">
<path d="M 117.000 66.000 L 156.000 66.000 L 156.000 101.000 L 117.000 101.000 L 117.000 66.000 Z" />
<path d="M 129.480 77.200 L 129.480 89.800 L 143.520 89.800 L 143.520 77.200 L 129.480 77.200 Z" fill="#f7f7f2" fill-opacity="1" stroke="#163b5c" />
</g>
<g id="part-21">
<path d="M 966.000 10.000 L 996.000 10.000 L 996.000 52.000 L 966.000 52.000 L 966.000 10.000 Z" />
<path d="M 976.200 17.560 L 976.200 26.800 L 989.400 26.800 L 989.400 17.560 L 976.200 17.560 Z" fill="#f7f7f2" fill-opacity="1" stroke="#163b5c" />
<path d="M 976.200 35.200 L 976.200 44.440 L 989.400 44.440 L 989.400 35.200 L 976.200 35.200 Z" fill="#f7f7f2" fill-opacity="1" stroke="#163b5c" />
</g>
<g id="part-22">
<path d="M 668.000 55.000 L 694.000 55.000 L 694.000 61.820 L 676.840 61.820 L 676.840 79.180 L 694.000 79.180 L 694.000 86.000 L 668.000 86.000 L 668.000 55.000 Z" />
</g>
<g id="part-23">
<path d="M 446.757 103.000 L 474.757 107.000 L 466.917 129.000 L 449.757 124.320 L 446.757 103.000 Z" />
</g>
<g id="part-24">
<path d="M 360.000 165.000 L 358.660 168.000 L 355.000 170.196 L 350.000 171.000 L 345.000 170.196 L 341.340 168.000 L 340.000 165.000 L 341.340 162.000 L 345.000 159.804 L 350.000 159.000 L 355.000 159.804 L 358.660 162.000 L 360.000 165.000 Z" />
</g>
<g id="part-25">
<path d="M 48.000 137.000 L 62.000 137.000 L 62.000 159.000 L 48.000 159.000 L 48.000 137.000 Z" />
</g>
<g id="part-26">
<path d="M 851.028 156.000 L 882.028 156.000 L 882.028 165.000 L 851.028 165.000 L 851.028 156.000 Z" />
</g>
<g id="part-27">
<path d="M 668.734 134.000 L 692.734 134.000 L 692.734 152.000 L 668.734 152.000 L 668.734 134.000 Z" />
</g>
<g id="part-28">
<path d="M 330.257 103.000 L 347.257 103.000 L 347.257 130.000 L 330.257 130.000 L 330.257 103.000 Z" />
</g>
<g id="part-29">
<path d="M 78.000 161.000 L 88.000 161.000 L 88.000 175.000 L 78.000 175.000 L 78.000 161.000 Z" />
</g>
<g id="part-30">
<path d="M 1380.000 10.000 L 1421.000 10.000 L 1421.000 47.000 L 1380.000 47.000 L 1380.000 10.000 Z" />
<path d="M 1393.120 21.840 L 1393.120 35.160 L 1407.880 35.160 L 1407.880 21.840 L 1393.120 21.840 Z" fill="#f7f7f2" fill-opacity="1" stroke="#163b5c" />
</g>
<g id="part-31">
<path d="M 900.000 10.000 L 932.000 10.000 L 932.000 52.000 L 900.000 52.000 L 900.000 10.000 Z" />
<path d="M 910.880 17.560 L 910.880 26.800 L 924.960 26.800 L 924.960 17.560 L 910.880 17.560 Z" fill="#f7f7f2" fill-opacity="1" stroke="#163b5c" />
<path d="M 910.880 35.200 L 910.880 44.440 L 924.960 44.440 L 924.960 35.200 L 910.880 35.200 Z" fill="#f7f7f2" fill-opacity="1" stroke="#163b5c" />
</g>
<g id="part-32">
<path d="M 407.000 60.000 L 435.000 60.000 L 435.000 67.260 L 416.520 67.260 L 416.520 85.740 L 435.000 85.740 L 435.000 93.000 L 407.000 93.000 L 407.000 60.000 Z" />
</g>
<g id="part-33">
<path d="M 1369.000 51.000 L 1399.000 55.000 L 1390.600 79.000 L 1372.000 73.960 L 1369.000 51.000 Z" />
</g>
<g id="part-34">
<path d="M 1196.687 139.942 L 1195.313 143.659 L 1191.504 146.526 L 1186.134 147.883 L 1180.432 147.422 L 1175.705 145.247 L 1173.036 141.856 L 1173.036 138.027 L 1175.705 134.637 L 1180.432 132.462 L 1186.134 132.000 L 1191.504 133.358 L 1195.313 136.224 L 1196.687 139.942 Z" />
</g>
<g id="part-35">
<path d="M 946.257 99.000 L 962.257 99.000 L 962.257 123.000 L 946.257 123.000 L 946.257 99.000 Z" />
</g>
<g id="part-36">
<path d="M 519.028 161.000 L 552.028 161.000 L 552.028 172.000 L 519.028 172.000 L 519.028 161.000 Z" />
</g>
<g id="part-37">
<path d="M 232.000 137.000 L 258.000 137.000 L 258.000 157.000 L 232.000 157.000 L 232.000 137.000 Z" />
</g>
<g id="part-38">
<path d="M 991.000 68.000 L 1010.000 68.000 L 1010.000 97.000 L 991.000 97.000 L 991.000 68.000 Z" />
</g>
<g id="part-39">
<path d="M 1096.734 137.000 L 1108.734 137.000 L 1108.734 153.000 L 1096.734 153.000 L 1096.734 137.000 Z" />
</g>
<g id="part-40">
<path d="M 1222.000 10.000 L 1265.000 10.000 L 1265.000 49.000 L 1222.000 49.000 L 1222.000 10.000 Z" />
<path d="M 1235.760 22.480 L 1235.760 36.520 L 1251.240 36.520 L 1251.240 22.480 L 1235.760 22.480 Z" fill="#f7f7f2" fill-opacity="1" stroke="#163b5c" />
</g>
<g id="part-41">
<path d="M 830.000 10.000 L 864.000 10.000 L 864.000 52.000 L 830.000 52.000 L 830.000 10.000 Z" />
<path d="M 841.560 17.560 L 841.560 26.800 L 856.520 26.800 L 856.520 17.560 L 841.560 17.560 Z" fill="#f7f7f2" fill-opacity="1" stroke="#163b5c" />
<path d="M 841.560 35.200 L 841.560 44.440 L 856.520 44.440 L 856.520 35.200 L 841.560 35.200 Z" fill="#f7f7f2" fill-opacity="1" stroke="#163b5c" />
</g>
<g id="part-42">
<path d="M 234.000 68.000 L 264.000 68.000 L 264.000 75.700 L 244.200 75.700 L 244.200 95.300 L 264.000 95.300 L 264.000 103.000 L 234.000 103.000 L 234.000 68.000 Z" />
</g>
<g id="part-43">
<path d="M 988.028 161.000 L 1020.028 165.000 L 1011.068 169.000 L 991.028 167.560 L 988.028 161.000 Z" />
</g>
<g id="part-44">
<path d="M 1146.385 144.942 L 1145.010 148.659 L 1141.202 151.526 L 1135.831 152.883 L 1130.130 152.422 L 1125.403 150.247 L 1122.734 146.856 L 1122.734 143.027 L 1125.403 139.637 L 1130.130 137.462 L 1135.831 137.000 L 1141.202 138.358 L 1145.010 141.224 L 1146.385 144.942 Z" />
</g>
<g id="part-45">
<path d="M 577.257 107.000 L 595.257 107.000 L 595.257 133.000 L 577.257 133.000 L 577.257 107.000 Z" />
</g>
<g id="part-46">
<path d="M 177.000 161.000 L 188.000 161.000 L 188.000 174.000 L 177.000 174.000 L 177.000 161.000 Z" />
</g>
<g id="part-47">
<path d="M 1293.902 107.000 L 1321.902 107.000 L 1321.902 129.000 L 1293.902 129.000 L 1293.902 107.000 Z" />
</g>
<g id="part-48">
<path d="M 944.028 161.000 L 965.028 161.000 L 965.028 170.000 L 944.028 170.000 L 944.028 161.000 Z" />
</g>
<g id="part-49">
<path d="M 778.734 137.000 L 792.734 137.000 L 792.734 155.000 L 778.734 155.000 L 778.734 137.000 Z" />
</g>
<g id="part-50">
<path d="M 1056.000 10.000 L 1101.000 10.000 L 1101.000 51.000 L 1056.000 51.000 L 1056.000 10.000 Z" />
<path d="M 1070.400 23.120 L 1070.400 37.880 L 1086.600 37.880 L 1086.600 23.120 L 1070.400 23.120 Z" fill="#f7f7f2" fill-opacity="1" stroke="#163b5c" />
</g>
<g id="part-51">
<path d="M 756.000 10.000 L 792.000 10.000 L 792.000 52.000 L 756.000 52.000 L 756.000 10.000 Z" />
<path d="M 768.240 17.560 L 768.240 26.800 L 784.080 26.800 L 784.080 17.560 L 768.240 17.560 Z" fill="#f7f7f2" fill-opacity="1" stroke="#163b5c" />
<path d="M 768.240 35.200 L 768.240 44.440 L 784.080 44.440 L 784.080 35.200 L 768.240 35.200 Z" fill="#f7f7f2" fill-opacity="1" stroke="#163b5c" />
</g>
<g id="part-52">
<path d="M 51.000 68.000 L 83.000 68.000 L 83.000 76.140 L 61.880 76.140 L 61.880 96.860 L 83.000 96.860 L 83.000 105.000 L 51.000 105.000 L 51.000 68.000 Z" />
</g>
<g id="part-53">
<path d="M 839.028 161.000 L 849.028 165.000 L 846.228 171.000 L 842.028 169.200 L 839.028 161.000 Z" />
</g>
<g id="part-54">
<path d="M 445.388 146.945 L 444.178 151.013 L 440.756 154.377 L 435.714 156.456 L 429.925 156.890 L 424.388 155.605 L 420.062 152.823 L 417.694 149.024 L 417.694 144.866 L 420.062 141.067 L 424.388 138.285 L 429.925 137.000 L 435.714 137.435 L 440.756 139.514 L 444.178 142.878 L 445.388 146.945 Z" />
</g>
<g id="part-55">
<path d="M 60.000 107.000 L 80.000 107.000 L 80.000 135.000 L 60.000 135.000 L 60.000 107.000 Z" />
</g>
<g id="part-56">
<path d="M 1255.687 137.000 L 1268.687 137.000 L 1268.687 152.000 L 1255.687 152.000 L 1255.687 137.000 Z" />
</g>
<g id="part-57">
<path d="M 764.257 107.000 L 794.257 107.000 L 794.257 131.000 L 764.257 131.000 L 764.257 107.000 Z" />
</g>
<g id="part-58">
<path d="M 587.028 161.000 L 610.028 161.000 L 610.028 172.000 L 587.028 172.000 L 587.028 161.000 Z" />
</g>
<g id="part-59">
<path d="M 328.000 137.000 L 344.000 137.000 L 344.000 157.000 L 328.000 157.000 L 328.000 137.000 Z" />
</g>
<g id="part-60">
<path d="M 582.000 10.000 L 629.000 10.000 L 629.000 53.000 L 582.000 53.000 L 582.000 10.000 Z" />
<path d="M 597.040 23.760 L 597.040 39.240 L 613.960 39.240 L 613.960 23.760 L 597.040 23.760 Z" fill="#f7f7f2" fill-opacity="1" stroke="#163b5c" />
</g>
<g id="part-61">
<path d="M 504.000 10.000 L 542.000 10.000 L 542.000 54.000 L 504.000 54.000 L 504.000 10.000 Z" />
<path d="M 516.920 17.920 L 516.920 27.600 L 533.640 27.600 L 533.640 17.920 L 516.920 17.920 Z" fill="#f7f7f2" fill-opacity="1" stroke="#163b5c" />
<path d="M 516.920 36.400 L 516.920 46.080 L 533.640 46.080 L 533.640 36.400 L 516.920 36.400 Z" fill="#f7f7f2" fill-opacity="1" stroke="#163b5c" />
</g>
<g id="part-62">
<path d="M 1310.000 10.000 L 1344.000 10.000 L 1344.000 18.580 L 1321.560 18.580 L 1321.560 40.420 L 1344.000 40.420 L 1344.000 49.000 L 1310.000 49.000 L 1310.000 10.000 Z" />
</g>
<g id="part-63">
<path d="M 440.000 161.000 L 452.000 165.000 L 448.640 173.000 L 443.000 170.840 L 440.000 161.000 Z" />
</g>
<g id="part-64">
<path d="M 415.694 146.945 L 414.484 151.013 L 411.062 154.377 L 406.020 156.456 L 400.231 156.890 L 394.694 155.605 L 390.368 152.823 L 388.000 149.024 L 388.000 144.866 L 390.368 141.067 L 394.694 138.285 L 400.231 137.000 L 406.020 137.435 L 411.062 139.514 L 414.484 142.878 L 415.694 146.945 Z" />
</g>
<g id="part-65">
<path d="M 1108.028 161.000 L 1130.028 161.000 L 1130.028 169.000 L 1108.028 169.000 L 1108.028 161.000 Z" />
</g>
<g id="part-66">
<path d="M 880.734 137.000 L 895.734 137.000 L 895.734 154.000 L 880.734 154.000 L 880.734 137.000 Z" />
</g>
<g id="part-67">
<path d="M 381.257 107.000 L 413.257 107.000 L 413.257 133.000 L 381.257 133.000 L 381.257 107.000 Z" />
</g>
<g id="part-68">
<path d="M 125.000 161.000 L 150.000 161.000 L 150.000 174.000 L 125.000 174.000 L 125.000 161.000 Z" />
</g>
<g id="part-69">
<path d="M 10.000 137.000 L 28.000 137.000 L 28.000 159.000 L 10.000 159.000 L 10.000 137.000 Z" />
</g>
<g id="part-70">
<path d="M 1194.902 107.000 L 1219.902 107.000 L 1219.902 130.000 L 1194.902 130.000 L 1194.902 107.000 Z" />
<path d="M 1202.902 114.360 L 1202.902 122.640 L 1211.902 122.640 L 1211.902 114.360 L 1202.902 114.360 Z" fill="#f7f7f2" fill-opacity="1" stroke="#163b5c" />
</g>
<g id="part-71">
<path d="M 422.000 10.000 L 462.000 10.000 L 462.000 56.000 L 422.000 56.000 L 422.000 10.000 Z" />
<path d="M 435.600 18.280 L 435.600 28.400 L 453.200 28.400 L 453.200 18.280 L 435.600 18.280 Z" fill="#f7f7f2" fill-opacity="1" stroke="#163b5c" />
<path d="M 435.600 37.600 L 435.600 47.720 L 453.200 47.720 L 453.200 37.600 L 435.600 37.600 Z" fill="#f7f7f2" fill-opacity="1" stroke="#163b5c" />
</g>
<g id="part-72">
<path d="M 1148.000 10.000 L 1184.000 10.000 L 1184.000 19.020 L 1160.240 19.020 L 1160.240 41.980 L 1184.000 41.980 L 1184.000 51.000 L 1148.000 51.000 L 1148.000 10.000 Z" />
</g>
<g id="part-73">
<path d="M 48.000 161.000 L 62.000 165.000 L 58.080 175.000 L 51.000 172.480 L 48.000 161.000 Z" />
</g>
<g id="part-74">
<path d="M 1011.907 118.934 L 1010.524 123.815 L 1006.613 127.852 L 1000.852 130.347 L 994.235 130.869 L 987.907 129.327 L 982.963 125.988 L 980.257 121.429 L 980.257 116.439 L 982.963 111.881 L 987.907 108.542 L 994.235 107.000 L 1000.852 107.522 L 1006.613 110.017 L 1010.524 114.053 L 1011.907 118.934 Z" />
</g>
<g id="part-75">
<path d="M 759.028 161.000 L 783.028 161.000 L 783.028 171.000 L 759.028 171.000 L 759.028 161.000 Z" />
</g>
<g id="part-76">
<path d="M 566.734 137.000 L 583.734 137.000 L 583.734 156.000 L 566.734 156.000 L 566.734 137.000 Z" />
</g>
<g id="part-77">
<path d="M 102.000 107.000 L 112.000 107.000 L 112.000 135.000 L 102.000 135.000 L 102.000 107.000 Z" />
</g>
<g id="part-78">
<path d="M 1199.687 137.000 L 1226.687 137.000 L 1226.687 152.000 L 1199.687 152.000 L 1199.687 137.000 Z" />
</g>
<g id="part-79">
<path d="M 904.257 107.000 L 924.257 107.000 L 924.257 131.000 L 904.257 131.000 L 904.257 107.000 Z" />
</g>
<g id="part-80">
<path d="M 615.257 107.000 L 642.257 107.000 L 642.257 132.000 L 615.257 132.000 L 615.257 107.000 Z" />
<path d="M 623.897 115.000 L 623.897 124.000 L 633.617 124.000 L 633.617 115.000 L 623.897 115.000 Z" fill="#f7f7f2" fill-opacity="1" stroke="#163b5c" />
</g>
<g id="part-81">
<path d="M 336.000 10.000 L 378.000 10.000 L 378.000 58.000 L 336.000 58.000 L 336.000 10.000 Z" />
<path d="M 350.280 18.640 L 350.280 29.200 L 368.760 29.200 L 368.760 18.640 L 350.280 18.640 Z" fill="#f7f7f2" fill-opacity="1" stroke="#163b5c" />
<path d="M 350.280 38.800 L 350.280 49.360 L 368.760 49.360 L 368.760 38.800 L 350.280 38.800 Z" fill="#f7f7f2" fill-opacity="1" stroke="#163b5c" />
</g>
<g id="part-82">
<path d="M 678.000 10.000 L 716.000 10.000 L 716.000 19.460 L 690.920 19.460 L 690.920 43.540 L 716.000 43.540 L 716.000 53.000 L 678.000 53.000 L 678.000 10.000 Z" />
</g>
<g id="part-83">
<path d="M 1062.734 137.000 L 1078.734 141.000 L 1074.254 153.000 L 1065.734 150.120 L 1062.734 137.000 Z" />
</g>
<g id="part-84">
<path d="M 1079.208 118.934 L 1077.825 123.815 L 1073.914 127.852 L 1068.152 130.347 L 1061.536 130.869 L 1055.208 129.327 L 1050.264 125.988 L 1047.558 121.429 L 1047.558 116.439 L 1050.264 111.881 L 1055.208 108.542 L 1061.536 107.000 L 1068.152 107.522 L 1073.914 110.017 L 1077.825 114.053 L 1079.208 118.934 Z" />
</g>
<g id="part-85">
<path d="M 286.000 161.000 L 312.000 161.000 L 312.000 173.000 L 286.000 173.000 L 286.000 161.000 Z" />
</g>
<g id="part-86">
<path d="M 158.000 137.000 L 177.000 137.000 L 177.000 158.000 L 158.000 158.000 L 158.000 137.000 Z" />
</g>
<g id="part-87">
<path d="M 1154.028 161.000 L 1166.028 161.000 L 1166.028 169.000 L 1154.028 169.000 L 1154.028 161.000 Z" />
</g>
<g id="part-88">
<path d="M 820.734 137.000 L 849.734 137.000 L 849.734 154.000 L 820.734 154.000 L 820.734 137.000 Z" />
</g>
<g id="part-89">
<path d="M 531.257 107.000 L 553.257 107.000 L 553.257 133.000 L 531.257 133.000 L 531.257 107.000 Z" />
</g>
<g id="part-90">
<path d="M 189.257 107.000 L 218.257 107.000 L 218.257 134.000 L 189.257 134.000 L 189.257 107.000 Z" />
<path d="M 198.537 115.640 L 198.537 125.360 L 208.977 125.360 L 208.977 115.640 L 198.537 115.640 Z" fill="#f7f7f2" fill-opacity="1" stroke="#163b5c" />
</g>
<g id="part-91">
<path d="M 246.000 10.000 L 290.000 10.000 L 290.000 60.000 L 246.000 60.000 L 246.000 10.000 Z" />
<path d="M 260.960 19.000 L 260.960 30.000 L 280.320 30.000 L 280.320 19.000 L 260.960 19.000 Z" fill="#f7f7f2" fill-opacity="1" stroke="#163b5c" />
<path d="M 260.960 40.000 L 260.960 51.000 L 280.320 51.000 L 280.320 40.000 L 260.960 40.000 Z" fill="#f7f7f2" fill-opacity="1" stroke="#163b5c" />
</g>
<g id="part-92">
<path d="M 1255.000 68.000 L 1295.000 68.000 L 1295.000 74.160 L 1268.600 74.160 L 1268.600 89.840 L 1295.000 89.840 L 1295.000 96.000 L 1255.000 96.000 L 1255.000 68.000 Z" />
</g>
<g id="part-93">
<path d="M 740.734 137.000 L 758.734 141.000 L 753.694 155.000 L 743.734 151.760 L 740.734 137.000 Z" />
</g>
<g id="part-94">
<path d="M 173.388 120.923 L 172.869 126.618 L 171.403 131.327 L 169.242 134.238 L 166.761 134.847 L 164.388 133.048 L 162.534 129.152 L 161.519 123.834 L 161.519 118.013 L 162.534 112.694 L 164.388 108.799 L 166.761 107.000 L 169.242 107.609 L 171.403 110.519 L 172.869 115.229 L 173.388 120.923 Z" />
</g>
<g id="part-95">
<path d="M 1349.687 137.000 L 1377.687 137.000 L 1377.687 151.000 L 1349.687 151.000 L 1349.687 137.000 Z" />
</g>
<g id="part-96">
<path d="M 1221.902 107.000 L 1242.902 107.000 L 1242.902 130.000 L 1221.902 130.000 L 1221.902 107.000 Z" />
</g>
<g id="part-97">
<path d="M 809.028 161.000 L 823.028 161.000 L 823.028 171.000 L 809.028 171.000 L 809.028 161.000 Z" />
</g>
<g id="part-98">
<path d="M 502.734 137.000 L 533.734 137.000 L 533.734 156.000 L 502.734 156.000 L 502.734 137.000 Z" />
</g>
<g id="part-99">
<path d="M 10.000 107.000 L 34.000 107.000 L 34.000 135.000 L 10.000 135.000 L 10.000 107.000 Z" />
</g>
<g id="part-100">
<path d="M 840.000 68.000 L 871.000 68.000 L 871.000 97.000 L 840.000 97.000 L 840.000 68.000 Z" />
<path d="M 849.920 77.280 L 849.920 87.720 L 861.080 87.720 L 861.080 77.280 L 849.920 77.280 Z" fill="#f7f7f2" fill-opacity="1" stroke="#163b5c" />
</g>
<g id="part-101">
<path d="M 220.000 10.000 L 244.000 10.000 L 244.000 62.000 L 220.000 62.000 L 220.000 10.000 Z" />
<path d="M 228.160 19.360 L 228.160 30.800 L 238.720 30.800 L 238.720 19.360 L 228.160 19.360 Z" fill="#f7f7f2" fill-opacity="1" stroke="#163b5c" />
<path d="M 228.160 41.200 L 228.160 52.640 L 238.720 52.640 L 238.720 41.200 L 228.160 41.200 Z" fill="#f7f7f2" fill-opacity="1" stroke="#163b5c" />
</g>
<g id="part-102">
<path d="M 1169.000 68.000 L 1211.000 68.000 L 1211.000 74.160 L 1183.280 74.160 L 1183.280 89.840 L 1211.000 89.840 L 1211.000 96.000 L 1169.000 96.000 L 1169.000 68.000 Z" />
</g>
<g id="part-103">
<path d="M 286.000 137.000 L 306.000 141.000 L 300.400 157.000 L 289.000 153.400 L 286.000 137.000 Z" />
</g>
<g id="part-104">
<path d="M 187.257 120.923 L 186.738 126.618 L 185.272 131.327 L 183.111 134.238 L 180.630 134.847 L 178.257 133.048 L 176.403 129.152 L 175.388 123.834 L 175.388 118.013 L 176.403 112.694 L 178.257 108.799 L 180.630 107.000 L 183.111 107.609 L 185.272 110.519 L 186.738 115.229 L 187.257 120.923 Z" />
</g>
<g id="part-105">
<path d="M 912.734 137.000 L 942.734 137.000 L 942.734 153.000 L 912.734 153.000 L 912.734 137.000 Z" />
</g>
<g id="part-106">
<path d="M 671.257 107.000 L 694.257 107.000 L 694.257 132.000 L 671.257 132.000 L 671.257 107.000 Z" />
</g>
<g id="part-107">
<path d="M 406.000 161.000 L 422.000 161.000 L 422.000 173.000 L 406.000 173.000 L 406.000 161.000 Z" />
</g>
<g id="part-108">
<path d="M 90.000 137.000 L 123.000 137.000 L 123.000 158.000 L 90.000 158.000 L 90.000 137.000 Z" />
</g>
<g id="part-109">
<path d="M 1054.028 161.000 L 1080.028 161.000 L 1080.028 169.000 L 1054.028 169.000 L 1054.028 161.000 Z" />
</g>
<g id="part-110">
<path d="M 600.000 68.000 L 633.000 68.000 L 633.000 99.000 L 600.000 99.000 L 600.000 68.000 Z" />
<path d="M 610.560 77.920 L 610.560 89.080 L 622.440 89.080 L 622.440 77.920 L 610.560 77.920 Z" fill="#f7f7f2" fill-opacity="1" stroke="#163b5c" />
</g>
<g id="part-111">
<path d="M 148.000 10.000 L 172.000 10.000 L 172.000 64.000 L 148.000 64.000 L 148.000 10.000 Z" />
<path d="M 156.160 19.720 L 156.160 31.600 L 166.720 31.600 L 166.720 19.720 L 156.160 19.720 Z" fill="#f7f7f2" fill-opacity="1" stroke="#163b5c" />
<path d="M 156.160 42.400 L 156.160 54.280 L 166.720 54.280 L 166.720 42.400 L 156.160 42.400 Z" fill="#f7f7f2" fill-opacity="1" stroke="#163b5c" />
</g>
<g id="part-112">
<path d="M 1079.000 68.000 L 1123.000 68.000 L 1123.000 74.160 L 1093.960 74.160 L 1093.960 89.840 L 1123.000 89.840 L 1123.000 96.000 L 1079.000 96.000 L 1079.000 68.000 Z" />
</g>
<g id="part-113">
<path d="M 1377.902 107.000 L 1399.902 111.000 L 1393.742 129.000 L 1380.902 125.040 L 1377.902 107.000 Z" />
</g>
<g id="part-114">
<path d="M 1195.704 164.959 L 1194.434 167.122 L 1191.027 168.598 L 1186.565 168.919 L 1182.465 167.982 L 1180.028 166.086 L 1180.028 163.832 L 1182.465 161.936 L 1186.565 161.000 L 1191.027 161.321 L 1194.434 162.797 L 1195.704 164.959 Z" />
</g>
<g id="part-115">
<path d="M 602.734 137.000 L 634.734 137.000 L 634.734 155.000 L 602.734 155.000 L 602.734 137.000 Z" />
</g>
<g id="part-116">
<path d="M 278.257 107.000 L 303.257 107.000 L 303.257 134.000 L 278.257 134.000 L 278.257 107.000 Z" />
</g>
<g id="part-117">
<path d="M 10.000 161.000 L 28.000 161.000 L 28.000 175.000 L 10.000 175.000 L 10.000 161.000 Z" />
</g>
<g id="part-118">
<path d="M 1280.902 107.000 L 1291.902 107.000 L 1291.902 130.000 L 1280.902 130.000 L 1280.902 107.000 Z" />
</g>
<g id="part-119">
<path d="M 701.028 161.000 L 729.028 161.000 L 729.028 171.000 L 701.028 171.000 L 701.028 161.000 Z" />
</g>
<g id="part-120">
<path d="M 335.000 68.000 L 370.000 68.000 L 370.000 101.000 L 335.000 101.000 L 335.000 68.000 Z" />
<path d="M 346.200 78.560 L 346.200 90.440 L 358.800 90.440 L 358.800 78.560 L 346.200 78.560 Z" fill="#f7f7f2" fill-opacity="1" stroke="#163b5c" />
</g>
<g id="part-121">
<path d="M 40.000 10.000 L 66.000 10.000 L 66.000 66.000 L 40.000 66.000 L 40.000 10.000 Z" />
<path d="M 48.840 20.080 L 48.840 32.400 L 60.280 32.400 L 60.280 20.080 L 48.840 20.080 Z" fill="#f7f7f2" fill-opacity="1" stroke="#163b5c" />
<path d="M 48.840 43.600 L 48.840 55.920 L 60.280 55.920 L 60.280 43.600 L 48.840 43.600 Z" fill="#f7f7f2" fill-opacity="1" stroke="#163b5c" />
</g>
<g id="part-122">
<path d="M 746.000 68.000 L 792.000 68.000 L 792.000 74.380 L 761.640 74.380 L 761.640 90.620 L 792.000 90.620 L 792.000 97.000 L 746.000 97.000 L 746.000 68.000 Z" />
</g>
<g id="part-123">
<path d="M 854.257 107.000 L 878.257 111.000 L 871.537 131.000 L 857.257 126.680 L 854.257 107.000 Z" />
</g>
<g id="part-124">
<path d="M 517.028 166.939 L 515.758 170.183 L 512.351 172.397 L 507.889 172.878 L 503.789 171.473 L 501.352 168.629 L 501.352 165.249 L 503.789 162.404 L 507.889 161.000 L 512.351 161.481 L 515.758 163.695 L 517.028 166.939 Z" />
</g>
<g id="part-125">
<path d="M 376.000 137.000 L 386.000 137.000 L 386.000 157.000 L 376.000 157.000 L 376.000 137.000 Z" />
</g>
<g id="part-126">
<path d="M 935.000 68.000 L 962.000 68.000 L 962.000 97.000 L 935.000 97.000 L 935.000 68.000 Z" />
</g>
<g id="part-127">
<path d="M 998.734 137.000 L 1018.734 137.000 L 1018.734 153.000 L 998.734 153.000 L 998.734 137.000 Z" />
</g>
<g id="part-128">
<path d="M 736.257 107.000 L 749.257 107.000 L 749.257 132.000 L 736.257 132.000 L 736.257 107.000 Z" />
</g>
<g id="part-129">
<path d="M 224.000 161.000 L 254.000 161.000 L 254.000 173.000 L 224.000 173.000 L 224.000 161.000 Z" />
</g>
<g id="part-130">
<path d="M 158.000 68.000 L 195.000 68.000 L 195.000 103.000 L 158.000 103.000 L 158.000 68.000 Z" />
<path d="M 169.840 79.200 L 169.840 91.800 L 183.160 91.800 L 183.160 79.200 L 169.840 79.200 Z" fill="#f7f7f2" fill-opacity="1" stroke="#163b5c" />
</g>
<g id="part-131">
<path d="M 998.000 10.000 L 1026.000 10.000 L 1026.000 52.000 L 998.000 52.000 L 998.000 10.000 Z" />
<path d="M 1007.520 17.560 L 1007.520 26.800 L 1019.840 26.800 L 1019.840 17.560 L 1007.520 17.560 Z" fill="#f7f7f2" fill-opacity="1" stroke="#163b5c" />
<path d="M 1007.520 35.200 L 1007.520 44.440 L 1019.840 44.440 L 1019.840 35.200 L 1007.520 35.200 Z" fill="#f7f7f2" fill-opacity="1" stroke="#163b5c" />
</g>
<g id="part-132">
<path d="M 465.000 68.000 L 513.000 68.000 L 513.000 74.820 L 481.320 74.820 L 481.320 92.180 L 513.000 92.180 L 513.000 99.000 L 465.000 99.000 L 465.000 68.000 Z" />
</g>
<g id="part-133">
<path d="M 477.257 107.000 L 503.257 111.000 L 495.977 133.000 L 480.257 128.320 L 477.257 107.000 Z" />
</g>
<g id="part-134">
<path d="M 382.000 167.000 L 380.660 170.000 L 377.000 172.196 L 372.000 173.000 L 367.000 172.196 L 363.340 170.000 L 362.000 167.000 L 363.340 164.000 L 367.000 161.804 L 372.000 161.000 L 377.000 161.804 L 380.660 164.000 L 382.000 167.000 Z" />
</g>
<g id="part-135">
<path d="M 64.000 137.000 L 76.000 137.000 L 76.000 159.000 L 64.000 159.000 L 64.000 137.000 Z" />
</g>
<g id="part-136">
<path d="M 884.028 161.000 L 913.028 161.000 L 913.028 170.000 L 884.028 170.000 L 884.028 161.000 Z" />
</g>
<g id="part-137">
<path d="M 694.734 137.000 L 716.734 137.000 L 716.734 155.000 L 694.734 155.000 L 694.734 137.000 Z" />
</g>
<g id="part-138">
<path d="M 349.257 107.000 L 364.257 107.000 L 364.257 134.000 L 349.257 134.000 L 349.257 107.000 Z" />
</g>
<g id="part-139">
<path d="M 1283.687 137.000 L 1315.687 137.000 L 1315.687 151.000 L 1283.687 151.000 L 1283.687 137.000 Z" />
</g>
<g id="part-140">
<path d="M 10.000 68.000 L 49.000 68.000 L 49.000 105.000 L 10.000 105.000 L 10.000 68.000 Z" />
<path d="M 22.480 79.840 L 22.480 93.160 L 36.520 93.160 L 36.520 79.840 L 22.480 79.840 Z" fill="#f7f7f2" fill-opacity="1" stroke="#163b5c" />
</g>
<g id="part-141">
<path d="M 934.000 10.000 L 964.000 10.000 L 964.000 52.000 L 934.000 52.000 L 934.000 10.000 Z" />
<path d="M 944.200 17.560 L 944.200 26.800 L 957.400 26.800 L 957.400 17.560 L 944.200 17.560 Z" fill="#f7f7f2" fill-opacity="1" stroke="#163b5c" />
<path d="M 944.200 35.200 L 944.200 44.440 L 957.400 44.440 L 957.400 35.200 L 944.200 35.200 Z" fill="#f7f7f2" fill-opacity="1" stroke="#163b5c" />
</g>
<g id="part-142">
<path d="M 437.000 68.000 L 463.000 68.000 L 463.000 75.260 L 445.840 75.260 L 445.840 93.740 L 463.000 93.740 L 463.000 101.000 L 437.000 101.000 L 437.000 68.000 Z" />
</g>
<g id="part-143">
<path d="M 1403.000 68.000 L 1431.000 72.000 L 1423.160 96.000 L 1406.000 90.960 L 1403.000 68.000 Z" />
</g>
<g id="part-144">
<path d="M 1040.734 145.000 L 1039.394 149.000 L 1035.734 151.928 L 1030.734 153.000 L 1025.734 151.928 L 1022.073 149.000 L 1020.734 145.000 L 1022.073 141.000 L 1025.734 138.072 L 1030.734 137.000 L 1035.734 138.072 L 1039.394 141.000 L 1040.734 145.000 Z" />
</g>
<g id="part-145">
<path d="M 964.257 107.000 L 978.257 107.000 L 978.257 131.000 L 964.257 131.000 L 964.257 107.000 Z" />
</g>
<g id="part-146">
<path d="M 554.028 161.000 L 585.028 161.000 L 585.028 172.000 L 554.028 172.000 L 554.028 161.000 Z" />
</g>
<g id="part-147">
<path d="M 260.000 137.000 L 284.000 137.000 L 284.000 157.000 L 260.000 157.000 L 260.000 137.000 Z" />
</g>
<g id="part-148">
<path d="M 1012.000 68.000 L 1029.000 68.000 L 1029.000 97.000 L 1012.000 97.000 L 1012.000 68.000 Z" />
</g>
<g id="part-149">
<path d="M 1110.734 137.000 L 1120.734 137.000 L 1120.734 153.000 L 1110.734 153.000 L 1110.734 137.000 Z" />
</g>
<g id="part-150">
<path d="M 1267.000 10.000 L 1308.000 10.000 L 1308.000 49.000 L 1267.000 49.000 L 1267.000 10.000 Z" />
<path d="M 1280.120 22.480 L 1280.120 36.520 L 1294.880 36.520 L 1294.880 22.480 L 1280.120 22.480 Z" fill="#f7f7f2" fill-opacity="1" stroke="#163b5c" />
</g>
<g id="part-151">
<path d="M 866.000 10.000 L 898.000 10.000 L 898.000 52.000 L 866.000 52.000 L 866.000 10.000 Z" />
<path d="M 876.880 17.560 L 876.880 26.800 L 890.960 26.800 L 890.960 17.560 L 876.880 17.560 Z" fill="#f7f7f2" fill-opacity="1" stroke="#163b5c" />
<path d="M 876.880 35.200 L 876.880 44.440 L 890.960 44.440 L 890.960 35.200 L 876.880 35.200 Z" fill="#f7f7f2" fill-opacity="1" stroke="#163b5c" />
</g>
<g id="part-152">
<path d="M 266.000 68.000 L 294.000 68.000 L 294.000 75.700 L 275.520 75.700 L 275.520 95.300 L 294.000 95.300 L 294.000 103.000 L 266.000 103.000 L 266.000 68.000 Z" />
</g>
<g id="part-153">
<path d="M 1022.028 161.000 L 1052.028 165.000 L 1043.628 169.000 L 1025.028 167.560 L 1022.028 161.000 Z" />
</g>
<g id="part-154">
<path d="M 1172.036 144.942 L 1170.662 148.659 L 1166.853 151.526 L 1161.483 152.883 L 1155.781 152.422 L 1151.054 150.247 L 1148.385 146.856 L 1148.385 143.027 L 1151.054 139.637 L 1155.781 137.462 L 1161.483 137.000 L 1166.853 138.358 L 1170.662 141.224 L 1172.036 144.942 Z" />
</g>
<g id="part-155">
<path d="M 597.257 107.000 L 613.257 107.000 L 613.257 133.000 L 597.257 133.000 L 597.257 107.000 Z" />
</g>
<g id="part-156">
<path d="M 90.000 161.000 L 123.000 161.000 L 123.000 174.000 L 90.000 174.000 L 90.000 161.000 Z" />
</g>
<g id="part-157">
<path d="M 1323.902 107.000 L 1349.902 107.000 L 1349.902 129.000 L 1323.902 129.000 L 1323.902 107.000 Z" />
</g>
<g id="part-158">
<path d="M 967.028 161.000 L 986.028 161.000 L 986.028 170.000 L 967.028 170.000 L 967.028 161.000 Z" />
</g>
<g id="part-159">
<path d="M 794.734 137.000 L 806.734 137.000 L 806.734 155.000 L 794.734 155.000 L 794.734 137.000 Z" />
</g>
<g id="part-160">
<path d="M 1103.000 10.000 L 1146.000 10.000 L 1146.000 51.000 L 1103.000 51.000 L 1103.000 10.000 Z" />
<path d="M 1116.760 23.120 L 1116.760 37.880 L 1132.240 37.880 L 1132.240 23.120 L 1116.760 23.120 Z" fill="#f7f7f2" fill-opacity="1" stroke="#163b5c" />
</g>
<g id="part-161">
<path d="M 794.000 10.000 L 828.000 10.000 L 828.000 52.000 L 794.000 52.000 L 794.000 10.000 Z" />
<path d="M 805.560 17.560 L 805.560 26.800 L 820.520 26.800 L 820.520 17.560 L 805.560 17.560 Z" fill="#f7f7f2" fill-opacity="1" stroke="#163b5c" />
<path d="M 805.560 35.200 L 805.560 44.440 L 820.520 44.440 L 820.520 35.200 L 805.560 35.200 Z" fill="#f7f7f2" fill-opacity="1" stroke="#163b5c" />
</g>
<g id="part-162">
<path d="M 85.000 68.000 L 115.000 68.000 L 115.000 76.140 L 95.200 76.140 L 95.200 96.860 L 115.000 96.860 L 115.000 105.000 L 85.000 105.000 L 85.000 68.000 Z" />
</g>
<g id="part-163">
<path d="M 635.028 161.000 L 667.028 165.000 L 658.068 171.000 L 638.028 169.200 L 635.028 161.000 Z" />
</g>
<g id="part-164">
<path d="M 500.734 146.927 L 499.359 151.574 L 495.550 155.157 L 490.180 156.854 L 484.478 156.277 L 479.751 153.558 L 477.082 149.320 L 477.082 144.534 L 479.751 140.296 L 484.478 137.577 L 490.180 137.000 L 495.550 138.697 L 499.359 142.280 L 500.734 146.927 Z" />
</g>
<g id="part-165">
<path d="M 82.000 107.000 L 100.000 107.000 L 100.000 135.000 L 82.000 135.000 L 82.000 107.000 Z" />
</g>
<g id="part-166">
<path d="M 1270.687 137.000 L 1281.687 137.000 L 1281.687 152.000 L 1270.687 152.000 L 1270.687 137.000 Z" />
</g>
<g id="part-167">
<path d="M 796.257 107.000 L 824.257 107.000 L 824.257 131.000 L 796.257 131.000 L 796.257 107.000 Z" />
</g>
<g id="part-168">
<path d="M 612.028 161.000 L 633.028 161.000 L 633.028 172.000 L 612.028 172.000 L 612.028 161.000 Z" />
</g>
<g id="part-169">
<path d="M 346.000 137.000 L 360.000 137.000 L 360.000 157.000 L 346.000 157.000 L 346.000 137.000 Z" />
</g>
<g id="part-170">
<path d="M 631.000 10.000 L 676.000 10.000 L 676.000 53.000 L 631.000 53.000 L 631.000 10.000 Z" />
<path d="M 645.400 23.760 L 645.400 39.240 L 661.600 39.240 L 661.600 23.760 L 645.400 23.760 Z" fill="#f7f7f2" fill-opacity="1" stroke="#163b5c" />
</g>
<g id="part-171">
<path d="M 544.000 10.000 L 580.000 10.000 L 580.000 54.000 L 544.000 54.000 L 544.000 10.000 Z" />
<path d="M 556.240 17.920 L 556.240 27.600 L 572.080 27.600 L 572.080 17.920 L 556.240 17.920 Z" fill="#f7f7f2" fill-opacity="1" stroke="#163b5c" />
<path d="M 556.240 36.400 L 556.240 46.080 L 572.080 46.080 L 572.080 36.400 L 556.240 36.400 Z" fill="#f7f7f2" fill-opacity="1" stroke="#163b5c" />
</g>
<g id="part-172">
<path d="M 1346.000 10.000 L 1378.000 10.000 L 1378.000 18.580 L 1356.880 18.580 L 1356.880 40.420 L 1378.000 40.420 L 1378.000 49.000 L 1346.000 49.000 L 1346.000 10.000 Z" />
</g>
<g id="part-173">
<path d="M 454.000 161.000 L 464.000 165.000 L 461.200 173.000 L 457.000 170.840 L 454.000 161.000 Z" />
</g>
<g id="part-174">
<path d="M 475.082 146.945 L 473.872 151.013 L 470.450 154.377 L 465.408 156.456 L 459.619 156.890 L 454.082 155.605 L 449.756 152.823 L 447.388 149.024 L 447.388 144.866 L 449.756 141.067 L 454.082 138.285 L 459.619 137.000 L 465.408 137.435 L 470.450 139.514 L 473.872 142.878 L 475.082 146.945 Z" />
</g>
<g id="part-175">
<path d="M 1132.028 161.000 L 1152.028 161.000 L 1152.028 169.000 L 1132.028 169.000 L 1132.028 161.000 Z" />
</g>
<g id="part-176">
<path d="M 897.734 137.000 L 910.734 137.000 L 910.734 154.000 L 897.734 154.000 L 897.734 137.000 Z" />
</g>
<g id="part-177">
<path d="M 415.257 107.000 L 445.257 107.000 L 445.257 133.000 L 415.257 133.000 L 415.257 107.000 Z" />
</g>
<g id="part-178">
<path d="M 152.000 161.000 L 175.000 161.000 L 175.000 174.000 L 152.000 174.000 L 152.000 161.000 Z" />
</g>
<g id="part-179">
<path d="M 30.000 137.000 L 46.000 137.000 L 46.000 159.000 L 30.000 159.000 L 30.000 137.000 Z" />
</g>
<g id="part-180">
<path d="M 1110.902 107.000 L 1157.902 107.000 L 1157.902 130.000 L 1110.902 130.000 L 1110.902 107.000 Z" />
<path d="M 1125.942 114.360 L 1125.942 122.640 L 1142.862 122.640 L 1142.862 114.360 L 1125.942 114.360 Z" fill="#f7f7f2" fill-opacity="1" stroke="#163b5c" />
</g>
<g id="part-181">
<path d="M 464.000 10.000 L 502.000 10.000 L 502.000 56.000 L 464.000 56.000 L 464.000 10.000 Z" />
<path d="M 476.920 18.280 L 476.920 28.400 L 493.640 28.400 L 493.640 18.280 L 476.920 18.280 Z" fill="#f7f7f2" fill-opacity="1" stroke="#163b5c" />
<path d="M 476.920 37.600 L 476.920 47.720 L 493.640 47.720 L 493.640 37.600 L 476.920 37.600 Z" fill="#f7f7f2" fill-opacity="1" stroke="#163b5c" />
</g>
<g id="part-182">
<path d="M 1186.000 10.000 L 1220.000 10.000 L 1220.000 19.020 L 1197.560 19.020 L 1197.560 41.980 L 1220.000 41.980 L 1220.000 51.000 L 1186.000 51.000 L 1186.000 10.000 Z" />
</g>
<g id="part-183">
<path d="M 64.000 161.000 L 76.000 165.000 L 72.640 175.000 L 67.000 172.480 L 64.000 161.000 Z" />
</g>
<g id="part-184">
<path d="M 1108.902 118.934 L 1107.692 123.815 L 1104.270 127.852 L 1099.228 130.347 L 1093.439 130.869 L 1087.902 129.327 L 1083.576 125.988 L 1081.208 121.429 L 1081.208 116.439 L 1083.576 111.881 L 1087.902 108.542 L 1093.439 107.000 L 1099.228 107.522 L 1104.270 110.017 L 1107.692 114.053 L 1108.902 118.934 Z" />
</g>
<g id="part-185">
<path d="M 785.028 161.000 L 807.028 161.000 L 807.028 171.000 L 785.028 171.000 L 785.028 161.000 Z" />
</g>
<g id="part-186">
<path d="M 585.734 137.000 L 600.734 137.000 L 600.734 156.000 L 585.734 156.000 L 585.734 137.000 Z" />
</g>
<g id="part-187">
<path d="M 1337.000 68.000 L 1369.000 68.000 L 1369.000 96.000 L 1337.000 96.000 L 1337.000 68.000 Z" />
</g>
<g id="part-188">
<path d="M 1228.687 137.000 L 1253.687 137.000 L 1253.687 152.000 L 1228.687 152.000 L 1228.687 137.000 Z" />
</g>
<g id="part-189">
<path d="M 926.257 107.000 L 944.257 107.000 L 944.257 131.000 L 926.257 131.000 L 926.257 107.000 Z" />
</g>
<g id="part-190">
<path d="M 644.257 107.000 L 669.257 107.000 L 669.257 132.000 L 644.257 132.000 L 644.257 107.000 Z" />
<path d="M 652.257 115.000 L 652.257 124.000 L 661.257 124.000 L 661.257 115.000 L 652.257 115.000 Z" fill="#f7f7f2" fill-opacity="1" stroke="#163b5c" />
</g>
<g id="part-191">
<path d="M 380.000 10.000 L 420.000 10.000 L 420.000 58.000 L 380.000 58.000 L 380.000 10.000 Z" />
<path d="M 393.600 18.640 L 393.600 29.200 L 411.200 29.200 L 411.200 18.640 L 393.600 18.640 Z" fill="#f7f7f2" fill-opacity="1" stroke="#163b5c" />
<path d="M 393.600 38.800 L 393.600 49.360 L 411.200 49.360 L 411.200 38.800 L 393.600 38.800 Z" fill="#f7f7f2" fill-opacity="1" stroke="#163b5c" />
</g>
<g id="part-192">
<path d="M 718.000 10.000 L 754.000 10.000 L 754.000 19.460 L 730.240 19.460 L 730.240 43.540 L 754.000 43.540 L 754.000 53.000 L 718.000 53.000 L 718.000 10.000 Z" />
</g>
<g id="part-193">
<path d="M 1080.734 137.000 L 1094.734 141.000 L 1090.814 153.000 L 1083.734 150.120 L 1080.734 137.000 Z" />
</g>
<g id="part-194">
<path d="M 1045.558 118.934 L 1044.174 123.815 L 1040.264 127.852 L 1034.502 130.347 L 1027.885 130.869 L 1021.558 129.327 L 1016.613 125.988 L 1013.907 121.429 L 1013.907 116.439 L 1016.613 111.881 L 1021.558 108.542 L 1027.885 107.000 L 1034.502 107.522 L 1040.264 110.017 L 1044.174 114.053 L 1045.558 118.934 Z" />
</g>
<g id="part-195">
<path d="M 314.000 161.000 L 338.000 161.000 L 338.000 173.000 L 314.000 173.000 L 314.000 161.000 Z" />
</g>
<g id="part-196">
<path d="M 179.000 137.000 L 196.000 137.000 L 196.000 158.000 L 179.000 158.000 L 179.000 137.000 Z" />
</g>
<g id="part-197">
<path d="M 1168.028 161.000 L 1178.028 161.000 L 1178.028 169.000 L 1168.028 169.000 L 1168.028 161.000 Z" />
</g>
<g id="part-198">
<path d="M 851.734 137.000 L 878.734 137.000 L 878.734 154.000 L 851.734 154.000 L 851.734 137.000 Z" />
</g>
<g id="part-199">
<path d="M 555.257 107.000 L 575.257 107.000 L 575.257 133.000 L 555.257 133.000 L 555.257 107.000 Z" />
</g>
<g id="part-200">
<path d="M 249.257 107.000 L 276.257 107.000 L 276.257 134.000 L 249.257 134.000 L 249.257 107.000 Z" />
<path d="M 257.897 115.640 L 257.897 125.360 L 267.617 125.360 L 267.617 115.640 L 257.897 115.640 Z" fill="#f7f7f2" fill-opacity="1" stroke="#163b5c" />
</g>
<g id="part-201">
<path d="M 292.000 10.000 L 334.000 10.000 L 334.000 60.000 L 292.000 60.000 L 292.000 10.000 Z" />
<path d="M 306.280 19.000 L 306.280 30.000 L 324.760 30.000 L 324.760 19.000 L 306.280 19.000 Z" fill="#f7f7f2" fill-opacity="1" stroke="#163b5c" />
<path d="M 306.280 40.000 L 306.280 51.000 L 324.760 51.000 L 324.760 40.000 L 306.280 40.000 Z" fill="#f7f7f2" fill-opacity="1" stroke="#163b5c" />
</g>
<g id="part-202">
<path d="M 1297.000 68.000 L 1335.000 68.000 L 1335.000 74.160 L 1309.920 74.160 L 1309.920 89.840 L 1335.000 89.840 L 1335.000 96.000 L 1297.000 96.000 L 1297.000 68.000 Z" />
</g>
<g id="part-203">
<path d="M 760.734 137.000 L 776.734 141.000 L 772.254 155.000 L 763.734 151.760 L 760.734 137.000 Z" />
</g>
<g id="part-204">
<path d="M 145.650 120.923 L 144.267 126.618 L 140.356 131.327 L 134.595 134.238 L 127.978 134.847 L 121.650 133.048 L 116.706 129.152 L 114.000 123.834 L 114.000 118.013 L 116.706 112.694 L 121.650 108.799 L 127.978 107.000 L 134.595 107.609 L 140.356 110.519 L 144.267 115.229 L 145.650 120.923 Z" />
</g>
<g id="part-205">
<path d="M 1379.687 137.000 L 1405.687 137.000 L 1405.687 151.000 L 1379.687 151.000 L 1379.687 137.000 Z" />
</g>
<g id="part-206">
<path d="M 1244.902 107.000 L 1263.902 107.000 L 1263.902 130.000 L 1244.902 130.000 L 1244.902 107.000 Z" />
</g>
<g id="part-207">
<path d="M 825.028 161.000 L 837.028 161.000 L 837.028 171.000 L 825.028 171.000 L 825.028 161.000 Z" />
</g>
<g id="part-208">
<path d="M 535.734 137.000 L 564.734 137.000 L 564.734 156.000 L 535.734 156.000 L 535.734 137.000 Z" />
</g>
<g id="part-209">
<path d="M 36.000 107.000 L 58.000 107.000 L 58.000 135.000 L 36.000 135.000 L 36.000 107.000 Z" />
</g>
<g id="part-210">
<path d="M 904.000 68.000 L 933.000 68.000 L 933.000 97.000 L 904.000 97.000 L 904.000 68.000 Z" />
<path d="M 913.280 77.280 L 913.280 87.720 L 923.720 87.720 L 923.720 77.280 L 913.280 77.280 Z" fill="#f7f7f2" fill-opacity="1" stroke="#163b5c" />
</g>
<g id="part-211">
<path d="M 174.000 10.000 L 218.000 10.000 L 218.000 62.000 L 174.000 62.000 L 174.000 10.000 Z" />
<path d="M 188.960 19.360 L 188.960 30.800 L 208.320 30.800 L 208.320 19.360 L 188.960 19.360 Z" fill="#f7f7f2" fill-opacity="1" stroke="#163b5c" />
<path d="M 188.960 41.200 L 188.960 52.640 L 208.320 52.640 L 208.320 41.200 L 188.960 41.200 Z" fill="#f7f7f2" fill-opacity="1" stroke="#163b5c" />
</g>
<g id="part-212">
<path d="M 1213.000 68.000 L 1253.000 68.000 L 1253.000 74.160 L 1226.600 74.160 L 1226.600 89.840 L 1253.000 89.840 L 1253.000 96.000 L 1213.000 96.000 L 1213.000 68.000 Z" />
</g>
<g id="part-213">
<path d="M 308.000 137.000 L 326.000 141.000 L 320.960 157.000 L 311.000 153.400 L 308.000 137.000 Z" />
</g>
<g id="part-214">
<path d="M 159.519 120.923 L 159.001 126.618 L 157.534 131.327 L 155.373 134.238 L 152.892 134.847 L 150.519 133.048 L 148.665 129.152 L 147.650 123.834 L 147.650 118.013 L 148.665 112.694 L 150.519 108.799 L 152.892 107.000 L 155.373 107.609 L 157.534 110.519 L 159.001 115.229 L 159.519 120.923 Z" />
</g>
<g id="part-215">
<path d="M 944.734 137.000 L 972.734 137.000 L 972.734 153.000 L 944.734 153.000 L 944.734 137.000 Z" />
</g>
<g id="part-216">
<path d="M 696.257 107.000 L 717.257 107.000 L 717.257 132.000 L 696.257 132.000 L 696.257 107.000 Z" />
</g>
<g id="part-217">
<path d="M 424.000 161.000 L 438.000 161.000 L 438.000 173.000 L 424.000 173.000 L 424.000 161.000 Z" />
</g>
<g id="part-218">
<path d="M 125.000 137.000 L 156.000 137.000 L 156.000 158.000 L 125.000 158.000 L 125.000 137.000 Z" />
</g>
<g id="part-219">
<path d="M 1082.028 161.000 L 1106.028 161.000 L 1106.028 169.000 L 1082.028 169.000 L 1082.028 161.000 Z" />
</g>
<g id="part-220">
<path d="M 635.000 68.000 L 666.000 68.000 L 666.000 99.000 L 635.000 99.000 L 635.000 68.000 Z" />
<path d="M 644.920 77.920 L 644.920 89.080 L 656.080 89.080 L 656.080 77.920 L 644.920 77.920 Z" fill="#f7f7f2" fill-opacity="1" stroke="#163b5c" />
</g>
<g id="part-221">
<path d="M 122.000 10.000 L 146.000 10.000 L 146.000 64.000 L 122.000 64.000 L 122.000 10.000 Z" />
<path d="M 130.160 19.720 L 130.160 31.600 L 140.720 31.600 L 140.720 19.720 L 130.160 19.720 Z" fill="#f7f7f2" fill-opacity="1" stroke="#163b5c" />
<path d="M 130.160 42.400 L 130.160 54.280 L 140.720 54.280 L 140.720 42.400 L 130.160 42.400 Z" fill="#f7f7f2" fill-opacity="1" stroke="#163b5c" />
</g>
<g id="part-222">
<path d="M 1125.000 68.000 L 1167.000 68.000 L 1167.000 74.160 L 1139.280 74.160 L 1139.280 89.840 L 1167.000 89.840 L 1167.000 96.000 L 1125.000 96.000 L 1125.000 68.000 Z" />
</g>
<g id="part-223">
<path d="M 1401.902 107.000 L 1421.902 111.000 L 1416.302 129.000 L 1404.902 125.040 L 1401.902 107.000 Z" />
</g>
<g id="part-224">
<path d="M 1227.380 164.804 L 1226.234 167.155 L 1223.234 168.608 L 1219.526 168.608 L 1216.526 167.155 L 1215.380 164.804 L 1216.526 162.453 L 1219.526 161.000 L 1223.234 161.000 L 1226.234 162.453 L 1227.380 164.804 Z" />
</g>
<g id="part-225">
<path d="M 636.734 137.000 L 666.734 137.000 L 666.734 155.000 L 636.734 155.000 L 636.734 137.000 Z" />
</g>
<g id="part-226">
<path d="M 305.257 107.000 L 328.257 107.000 L 328.257 134.000 L 305.257 134.000 L 305.257 107.000 Z" />
</g>
<g id="part-227">
<path d="M 30.000 161.000 L 46.000 161.000 L 46.000 175.000 L 30.000 175.000 L 30.000 161.000 Z" />
</g>
<g id="part-228">
<path d="M 1159.902 107.000 L 1192.902 107.000 L 1192.902 130.000 L 1159.902 130.000 L 1159.902 107.000 Z" />
</g>
<g id="part-229">
<path d="M 731.028 161.000 L 757.028 161.000 L 757.028 171.000 L 731.028 171.000 L 731.028 161.000 Z" />
</g>
<g id="part-230">
<path d="M 372.000 68.000 L 405.000 68.000 L 405.000 101.000 L 372.000 101.000 L 372.000 68.000 Z" />
<path d="M 382.560 78.560 L 382.560 90.440 L 394.440 90.440 L 394.440 78.560 L 382.560 78.560 Z" fill="#f7f7f2" fill-opacity="1" stroke="#163b5c" />
</g>
<g id="part-231">
<path d="M 68.000 10.000 L 92.000 10.000 L 92.000 66.000 L 68.000 66.000 L 68.000 10.000 Z" />
<path d="M 76.160 20.080 L 76.160 32.400 L 86.720 32.400 L 86.720 20.080 L 76.160 20.080 Z" fill="#f7f7f2" fill-opacity="1" stroke="#163b5c" />
<path d="M 76.160 43.600 L 76.160 55.920 L 86.720 55.920 L 86.720 43.600 L 76.160 43.600 Z" fill="#f7f7f2" fill-opacity="1" stroke="#163b5c" />
</g>
<g id="part-232">
<path d="M 794.000 68.000 L 838.000 68.000 L 838.000 74.380 L 808.960 74.380 L 808.960 90.620 L 838.000 90.620 L 838.000 97.000 L 794.000 97.000 L 794.000 68.000 Z" />
</g>
<g id="part-233">
<path d="M 880.257 107.000 L 902.257 111.000 L 896.097 131.000 L 883.257 126.680 L 880.257 107.000 Z" />
</g>
<g id="part-234">
<path d="M 499.352 166.939 L 498.082 170.183 L 494.675 172.397 L 490.213 172.878 L 486.113 171.473 L 483.676 168.629 L 483.676 165.249 L 486.113 162.404 L 490.213 161.000 L 494.675 161.481 L 498.082 163.695 L 499.352 166.939 Z" />
</g>
<g id="part-235">
<path d="M 198.000 137.000 L 230.000 137.000 L 230.000 157.000 L 198.000 157.000 L 198.000 137.000 Z" />
</g>
<g id="part-236">
<path d="M 964.000 68.000 L 989.000 68.000 L 989.000 97.000 L 964.000 97.000 L 964.000 68.000 Z" />
</g>
<g id="part-237">
<path d="M 1042.734 137.000 L 1060.734 137.000 L 1060.734 153.000 L 1042.734 153.000 L 1042.734 137.000 Z" />
</g>
<g id="part-238">
<path d="M 751.257 107.000 L 762.257 107.000 L 762.257 132.000 L 751.257 132.000 L 751.257 107.000 Z" />
</g>
<g id="part-239">
<path d="M 256.000 161.000 L 284.000 161.000 L 284.000 173.000 L 256.000 173.000 L 256.000 161.000 Z" />
</g>
<g id="part-240">
<path d="M 197.000 68.000 L 232.000 68.000 L 232.000 103.000 L 197.000 103.000 L 197.000 68.000 Z" />
<path d="M 208.200 79.200 L 208.200 91.800 L 220.800 91.800 L 220.800 79.200 L 208.200 79.200 Z" fill="#f7f7f2" fill-opacity="1" stroke="#163b5c" />
</g>
<g id="part-241">
<path d="M 1028.000 10.000 L 1054.000 10.000 L 1054.000 52.000 L 1028.000 52.000 L 1028.000 10.000 Z" />
<path d="M 1036.840 17.560 L 1036.840 26.800 L 1048.280 26.800 L 1048.280 17.560 L 1036.840 17.560 Z" fill="#f7f7f2" fill-opacity="1" stroke="#163b5c" />
<path d="M 1036.840 35.200 L 1036.840 44.440 L 1048.280 44.440 L 1048.280 35.200 L 1036.840 35.200 Z" fill="#f7f7f2" fill-opacity="1" stroke="#163b5c" />
</g>
<g id="part-242">
<path d="M 515.000 68.000 L 561.000 68.000 L 561.000 74.820 L 530.640 74.820 L 530.640 92.180 L 561.000 92.180 L 561.000 99.000 L 515.000 99.000 L 515.000 68.000 Z" />
</g>
<g id="part-243">
<path d="M 505.257 107.000 L 529.257 111.000 L 522.537 133.000 L 508.257 128.320 L 505.257 107.000 Z" />
</g>
<g id="part-244">
<path d="M 481.676 166.939 L 480.406 170.183 L 476.999 172.397 L 472.537 172.878 L 468.437 171.473 L 466.000 168.629 L 466.000 165.249 L 468.437 162.404 L 472.537 161.000 L 476.999 161.481 L 480.406 163.695 L 481.676 166.939 Z" />
</g>
<g id="part-245">
<path d="M 78.000 137.000 L 88.000 137.000 L 88.000 159.000 L 78.000 159.000 L 78.000 137.000 Z" />
</g>
<g id="part-246">
<path d="M 915.028 161.000 L 942.028 161.000 L 942.028 170.000 L 915.028 170.000 L 915.028 161.000 Z" />
</g>
<g id="part-247">
<path d="M 718.734 137.000 L 738.734 137.000 L 738.734 155.000 L 718.734 155.000 L 718.734 137.000 Z" />
</g>
<g id="part-248">
<path d="M 366.257 107.000 L 379.257 107.000 L 379.257 134.000 L 366.257 134.000 L 366.257 107.000 Z" />
</g>
<g id="part-249">
<path d="M 1317.687 137.000 L 1347.687 137.000 L 1347.687 151.000 L 1317.687 151.000 L 1317.687 137.000 Z" />
</g>
</g>
<text x="10" y="20" font-size="14" fill="#222">mixed_250_parts / Maximum</text>
</svg>
