<svg xmlns="http://www.w3.org/2000/svg" width="2250.000" height="1450.000" viewBox="0 0 2250.000 1450.000">
<rect x="0" y="0" width="2250.000" height="1450.000" fill="#f7f7f2" />
<g fill="none" stroke="#2a2a2a" stroke-width="1.2">
<path d="M 0.000 0.000 L 2250.000 0.000 L 2250.000 1450.000 L 0.000 1450.000 L 0.000 0.000 Z" stroke="#1f5f8b" />
</g>
<g fill="#86b8e7" fill-opacity="0.58" stroke="#163b5c" stroke-width="0.8">
<g id="part-0">
<path d="M 1994.000 10.000 L 2029.000 10.000 L 2029.000 41.000 L 1994.000 41.000 L 1994.000 10.000 Z" />
<path d="M 2005.200 19.920 L 2005.200 31.080 L 2017.800 31.080 L 2017.800 19.920 L 2005.200 19.920 Z" fill="#f7f7f2" fill-opacity="1" stroke="#163b5c" />
</g>
<g id="part-1">
<path d="M 94.000 10.000 L 120.000 10.000 L 120.000 64.000 L 94.000 64.000 L 94.000 10.000 Z" />
<path d="M 102.840 19.720 L 102.840 31.600 L 114.280 31.600 L 114.280 19.720 L 102.840 19.720 Z" fill="#f7f7f2" fill-opacity="1" stroke="#163b5c" />
<path d="M 102.840 42.400 L 102.840 54.280 L 114.280 54.280 L 114.280 42.400 L 102.840 42.400 Z" fill="#f7f7f2" fill-opacity="1" stroke="#163b5c" />
</g>
<g id="part-2">
<path d="M 558.000 68.000 L 604.000 68.000 L 604.000 74.160 L 573.640 74.160 L 573.640 89.840 L 604.000 89.840 L 604.000 96.000 L 558.000 96.000 L 558.000 68.000 Z" />
</g>
<g id="part-3">
<path d="M 1899.902 68.000 L 1923.902 72.000 L 1917.182 90.000 L 1902.902 86.040 L 1899.902 68.000 Z" />
</g>
<g id="part-4">
<path d="M 235.352 124.959 L 234.082 127.122 L 230.675 128.598 L 226.213 128.919 L 222.113 127.982 L 219.676 126.086 L 219.676 123.832 L 222.113 121.936 L 226.213 121.000 L 230.675 121.321 L 234.082 122.797 L 235.352 124.959 Z" />
</g>
<g id="part-5">
<path d="M 528.734 99.000 L 538.734 99.000 L 538.734 117.000 L 528.734 117.000 L 528.734 99.000 Z" />
</g>
<g id="part-6">
<path d="M 841.257 68.000 L 868.257 68.000 L 868.257 95.000 L 841.257 95.000 L 841.257 68.000 Z" />
</g>
<g id="part-7">
<path d="M 1249.687 99.000 L 1269.687 99.000 L 1269.687 113.000 L 1249.687 113.000 L 1249.687 99.000 Z" />
</g>
<g id="part-8">
<path d="M 1849.902 68.000 L 1862.902 68.000 L 1862.902 91.000 L 1849.902 91.000 L 1849.902 68.000 Z" />
</g>
<g id="part-9">
<path d="M 1950.715 99.000 L 1980.715 99.000 L 1980.715 109.000 L 1950.715 109.000 L 1950.715 99.000 Z" />
</g>
<g id="part-10">
<path d="M 1774.000 10.000 L 1811.000 10.000 L 1811.000 43.000 L 1774.000 43.000 L 1774.000 10.000 Z" />
<path d="M 1785.840 20.560 L 1785.840 32.440 L 1799.160 32.440 L 1799.160 20.560 L 1785.840 20.560 Z" fill="#f7f7f2" fill-opacity="1" stroke="#163b5c" />
</g>
<g id="part-11">
<path d="M 64.000 10.000 L 92.000 10.000 L 92.000 66.000 L 64.000 66.000 L 64.000 10.000 Z" />
<path d="M 73.520 20.080 L 73.520 32.400 L 85.840 32.400 L 85.840 20.080 L 73.520 20.080 Z" fill="#f7f7f2" fill-opacity="1" stroke="#163b5c" />
<path d="M 73.520 43.600 L 73.520 55.920 L 85.840 55.920 L 85.840 43.600 L 73.520 43.600 Z" fill="#f7f7f2" fill-opacity="1" stroke="#163b5c" />
</g>
<g id="part-12">
<path d="M 2157.000 10.000 L 2205.000 10.000 L 2205.000 16.380 L 2173.320 16.380 L 2173.320 32.620 L 2205.000 32.620 L 2205.000 39.000 L 2157.000 39.000 L 2157.000 10.000 Z" />
</g>
<g id="part-13">
<path d="M 1396.257 68.000 L 1422.257 72.000 L 1414.977 92.000 L 1399.257 87.680 L 1396.257 68.000 Z" />
</g>
<g id="part-14">
<path d="M 1599.687 105.000 L 1598.348 108.000 L 1594.687 110.196 L 1589.687 111.000 L 1584.687 110.196 L 1581.027 108.000 L 1579.687 105.000 L 1581.027 102.000 L 1584.687 99.804 L 1589.687 99.000 L 1594.687 99.804 L 1598.348 102.000 L 1599.687 105.000 Z" />
</g>
<g id="part-15">
<path d="M 168.000 99.000 L 180.000 99.000 L 180.000 119.000 L 168.000 119.000 L 168.000 99.000 Z" />
</g>
<g id="part-16">
<path d="M 60.000 68.000 L 89.000 68.000 L 89.000 97.000 L 60.000 97.000 L 60.000 68.000 Z" />
</g>
<g id="part-17">
<path d="M 836.734 99.000 L 858.734 99.000 L 858.734 115.000 L 836.734 115.000 L 836.734 99.000 Z" />
</g>
<g id="part-18">
<path d="M 1221.257 68.000 L 1236.257 68.000 L 1236.257 93.000 L 1221.257 93.000 L 1221.257 68.000 Z" />
</g>
<g id="part-19">
<path d="M 1515.687 99.000 L 1547.687 99.000 L 1547.687 111.000 L 1515.687 111.000 L 1515.687 99.000 Z" />
</g>
<g id="part-20">
<path d="M 1592.000 10.000 L 1631.000 10.000 L 1631.000 45.000 L 1592.000 45.000 L 1592.000 10.000 Z" />
<path d="M 1604.480 21.200 L 1604.480 33.800 L 1618.520 33.800 L 1618.520 21.200 L 1604.480 21.200 Z" fill="#f7f7f2" fill-opacity="1" stroke="#163b5c" />
</g>
<g id="part-21">
<path d="M 814.000 10.000 L 844.000 10.000 L 844.000 52.000 L 814.000 52.000 L 814.000 10.000 Z" />
<path d="M 824.200 17.560 L 824.200 26.800 L 837.400 26.800 L 837.400 17.560 L 824.200 17.560 Z" fill="#f7f7f2" fill-opacity="1" stroke="#163b5c" />
<path d="M 824.200 35.200 L 824.200 44.440 L 837.400 44.440 L 837.400 35.200 L 824.200 35.200 Z" fill="#f7f7f2" fill-opacity="1" stroke="#163b5c" />
</g>
<g id="part-22">
<path d="M 2081.000 10.000 L 2107.000 10.000 L 2107.000 16.820 L 2089.840 16.820 L 2089.840 34.180 L 2107.000 34.180 L 2107.000 41.000 L 2081.000 41.000 L 2081.000 10.000 Z" />
</g>
<g id="part-23">
<path d="M 1079.257 68.000 L 1107.257 72.000 L 1099.417 94.000 L 1082.257 89.320 L 1079.257 68.000 Z" />
</g>
<g id="part-24">
<path d="M 1513.687 105.000 L 1512.348 108.000 L 1508.687 110.196 L 1503.687 111.000 L 1498.687 110.196 L 1495.027 108.000 L 1493.687 105.000 L 1495.027 102.000 L 1498.687 99.804 L 1503.687 99.000 L 1508.687 99.804 L 1512.348 102.000 L 1513.687 105.000 Z" />
</g>
<g id="part-25">
<path d="M 2035.902 68.000 L 2049.902 68.000 L 2049.902 90.000 L 2035.902 90.000 L 2035.902 68.000 Z" />
</g>
<g id="part-26">
<path d="M 2082.715 99.000 L 2113.715 99.000 L 2113.715 108.000 L 2082.715 108.000 L 2082.715 99.000 Z" />
</g>
<g id="part-27">
<path d="M 574.734 99.000 L 598.734 99.000 L 598.734 117.000 L 574.734 117.000 L 574.734 99.000 Z" />
</g>
<g id="part-28">
<path d="M 941.257 68.000 L 958.257 68.000 L 958.257 95.000 L 941.257 95.000 L 941.257 68.000 Z" />
</g>
<g id="part-29">
<path d="M 1187.687 99.000 L 1197.687 99.000 L 1197.687 113.000 L 1187.687 113.000 L 1187.687 99.000 Z" />
</g>
<g id="part-30">
<path d="M 1446.000 10.000 L 1487.000 10.000 L 1487.000 47.000 L 1446.000 47.000 L 1446.000 10.000 Z" />
<path d="M 1459.120 21.840 L 1459.120 35.160 L 1473.880 35.160 L 1473.880 21.840 L 1459.120 21.840 Z" fill="#f7f7f2" fill-opacity="1" stroke="#163b5c" />
</g>
<g id="part-31">
<path d="M 846.000 10.000 L 878.000 10.000 L 878.000 52.000 L 846.000 52.000 L 846.000 10.000 Z" />
<path d="M 856.880 17.560 L 856.880 26.800 L 870.960 26.800 L 870.960 17.560 L 856.880 17.560 Z" fill="#f7f7f2" fill-opacity="1" stroke="#163b5c" />
<path d="M 856.880 35.200 L 856.880 44.440 L 870.960 44.440 L 870.960 35.200 L 856.880 35.200 Z" fill="#f7f7f2" fill-opacity="1" stroke="#163b5c" />
</g>
<g id="part-32">
<path d="M 1709.000 10.000 L 1737.000 10.000 L 1737.000 17.260 L 1718.520 17.260 L 1718.520 35.740 L 1737.000 35.740 L 1737.000 43.000 L 1709.000 43.000 L 1709.000 10.000 Z" />
</g>
<g id="part-33">
<path d="M 688.000 68.000 L 718.000 72.000 L 709.600 96.000 L 691.000 90.960 L 688.000 68.000 Z" />
</g>
<g id="part-34">
<path d="M 1009.687 106.942 L 1008.313 110.659 L 1004.504 113.526 L 999.134 114.883 L 993.432 114.422 L 988.705 112.247 L 986.036 108.856 L 986.036 105.027 L 988.705 101.637 L 993.432 99.462 L 999.134 99.000 L 1004.504 100.358 L 1008.313 103.224 L 1009.687 106.942 Z" />
</g>
<g id="part-35">
<path d="M 1490.257 68.000 L 1506.257 68.000 L 1506.257 92.000 L 1490.257 92.000 L 1490.257 68.000 Z" />
</g>
<g id="part-36">
<path d="M 1808.715 99.000 L 1841.715 99.000 L 1841.715 110.000 L 1808.715 110.000 L 1808.715 99.000 Z" />
</g>
<g id="part-37">
<path d="M 92.000 99.000 L 118.000 99.000 L 118.000 119.000 L 92.000 119.000 L 92.000 99.000 Z" />
</g>
<g id="part-38">
<path d="M 10.000 68.000 L 29.000 68.000 L 29.000 97.000 L 10.000 97.000 L 10.000 68.000 Z" />
</g>
<g id="part-39">
<path d="M 776.734 99.000 L 788.734 99.000 L 788.734 115.000 L 776.734 115.000 L 776.734 99.000 Z" />
</g>
<g id="part-40">
<path d="M 1265.000 10.000 L 1308.000 10.000 L 1308.000 49.000 L 1265.000 49.000 L 1265.000 10.000 Z" />
<path d="M 1278.760 22.480 L 1278.760 36.520 L 1294.240 36.520 L 1294.240 22.480 L 1278.760 22.480 Z" fill="#f7f7f2" fill-opacity="1" stroke="#163b5c" />
</g>
<g id="part-41">
<path d="M 916.000 10.000 L 950.000 10.000 L 950.000 52.000 L 916.000 52.000 L 916.000 10.000 Z" />
<path d="M 927.560 17.560 L 927.560 26.800 L 942.520 26.800 L 942.520 17.560 L 927.560 17.560 Z" fill="#f7f7f2" fill-opacity="1" stroke="#163b5c" />
<path d="M 927.560 35.200 L 927.560 44.440 L 942.520 44.440 L 942.520 35.200 L 927.560 35.200 Z" fill="#f7f7f2" fill-opacity="1" stroke="#163b5c" />
</g>
<g id="part-42">
<path d="M 1560.000 10.000 L 1590.000 10.000 L 1590.000 17.700 L 1570.200 17.700 L 1570.200 37.300 L 1590.000 37.300 L 1590.000 45.000 L 1560.000 45.000 L 1560.000 10.000 Z" />
</g>
<g id="part-43">
<path d="M 144.000 121.000 L 176.000 125.000 L 167.040 129.000 L 147.000 127.560 L 144.000 121.000 Z" />
</g>
<g id="part-44">
<path d="M 984.036 106.942 L 982.662 110.659 L 978.853 113.526 L 973.483 114.883 L 967.781 114.422 L 963.054 112.247 L 960.385 108.856 L 960.385 105.027 L 963.054 101.637 L 967.781 99.462 L 973.483 99.000 L 978.853 100.358 L 982.662 103.224 L 984.036 106.942 Z" />
</g>
<g id="part-45">
<path d="M 1167.257 68.000 L 1185.257 68.000 L 1185.257 94.000 L 1167.257 94.000 L 1167.257 68.000 Z" />
</g>
<g id="part-46">
<path d="M 1408.687 99.000 L 1419.687 99.000 L 1419.687 112.000 L 1408.687 112.000 L 1408.687 99.000 Z" />
</g>
<g id="part-47">
<path d="M 2005.902 68.000 L 2033.902 68.000 L 2033.902 90.000 L 2005.902 90.000 L 2005.902 68.000 Z" />
</g>
<g id="part-48">
<path d="M 2115.715 99.000 L 2136.715 99.000 L 2136.715 108.000 L 2115.715 108.000 L 2115.715 99.000 Z" />
</g>
<g id="part-49">
<path d="M 540.734 99.000 L 554.734 99.000 L 554.734 117.000 L 540.734 117.000 L 540.734 99.000 Z" />
</g>
<g id="part-50">
<path d="M 1175.000 10.000 L 1220.000 10.000 L 1220.000 51.000 L 1175.000 51.000 L 1175.000 10.000 Z" />
<path d="M 1189.400 23.120 L 1189.400 37.880 L 1205.600 37.880 L 1205.600 23.120 L 1189.400 23.120 Z" fill="#f7f7f2" fill-opacity="1" stroke="#163b5c" />
</g>
<g id="part-51">
<path d="M 1018.000 10.000 L 1054.000 10.000 L 1054.000 52.000 L 1018.000 52.000 L 1018.000 10.000 Z" />
<path d="M 1030.240 17.560 L 1030.240 26.800 L 1046.080 26.800 L 1046.080 17.560 L 1030.240 17.560 Z" fill="#f7f7f2" fill-opacity="1" stroke="#163b5c" />
<path d="M 1030.240 35.200 L 1030.240 44.440 L 1046.080 44.440 L 1046.080 35.200 L 1030.240 35.200 Z" fill="#f7f7f2" fill-opacity="1" stroke="#163b5c" />
</g>
<g id="part-52">
<path d="M 1412.000 10.000 L 1444.000 10.000 L 1444.000 18.140 L 1422.880 18.140 L 1422.880 38.860 L 1444.000 38.860 L 1444.000 47.000 L 1412.000 47.000 L 1412.000 10.000 Z" />
</g>
<g id="part-53">
<path d="M 1896.715 99.000 L 1906.715 103.000 L 1903.915 109.000 L 1899.715 107.200 L 1896.715 99.000 Z" />
</g>
<g id="part-54">
<path d="M 257.388 108.945 L 256.178 113.013 L 252.756 116.377 L 247.714 118.456 L 241.925 118.890 L 236.388 117.605 L 232.062 114.823 L 229.694 111.024 L 229.694 106.866 L 232.062 103.067 L 236.388 100.285 L 241.925 99.000 L 247.714 99.435 L 252.756 101.514 L 256.178 104.878 L 257.388 108.945 Z" />
</g>
<g id="part-55">
<path d="M 248.000 68.000 L 268.000 68.000 L 268.000 96.000 L 248.000 96.000 L 248.000 68.000 Z" />
</g>
<g id="part-56">
<path d="M 1080.687 99.000 L 1093.687 99.000 L 1093.687 114.000 L 1080.687 114.000 L 1080.687 99.000 Z" />
</g>
<g id="part-57">
<path d="M 1554.257 68.000 L 1584.257 68.000 L 1584.257 92.000 L 1554.257 92.000 L 1554.257 68.000 Z" />
</g>
<g id="part-58">
<path d="M 1783.715 99.000 L 1806.715 99.000 L 1806.715 110.000 L 1783.715 110.000 L 1783.715 99.000 Z" />
</g>
<g id="part-59">
<path d="M 182.000 99.000 L 198.000 99.000 L 198.000 119.000 L 182.000 119.000 L 182.000 99.000 Z" />
</g>
<g id="part-60">
<path d="M 582.000 10.000 L 629.000 10.000 L 629.000 53.000 L 582.000 53.000 L 582.000 10.000 Z" />
<path d="M 597.040 23.760 L 597.040 39.240 L 613.960 39.240 L 613.960 23.760 L 597.040 23.760 Z" fill="#f7f7f2" fill-opacity="1" stroke="#163b5c" />
</g>
<g id="part-61">
<path d="M 542.000 10.000 L 580.000 10.000 L 580.000 54.000 L 542.000 54.000 L 542.000 10.000 Z" />
<path d="M 554.920 17.920 L 554.920 27.600 L 571.640 27.600 L 571.640 17.920 L 554.920 17.920 Z" fill="#f7f7f2" fill-opacity="1" stroke="#163b5c" />
<path d="M 554.920 36.400 L 554.920 46.080 L 571.640 46.080 L 571.640 36.400 L 554.920 36.400 Z" fill="#f7f7f2" fill-opacity="1" stroke="#163b5c" />
</g>
<g id="part-62">
<path d="M 1344.000 10.000 L 1378.000 10.000 L 1378.000 18.580 L 1355.560 18.580 L 1355.560 40.420 L 1378.000 40.420 L 1378.000 49.000 L 1344.000 49.000 L 1344.000 10.000 Z" />
</g>
<g id="part-63">
<path d="M 1645.687 99.000 L 1657.687 103.000 L 1654.327 111.000 L 1648.687 108.840 L 1645.687 99.000 Z" />
</g>
<g id="part-64">
<path d="M 227.694 108.945 L 226.484 113.013 L 223.062 116.377 L 218.020 118.456 L 212.231 118.890 L 206.694 117.605 L 202.368 114.823 L 200.000 111.024 L 200.000 106.866 L 202.368 103.067 L 206.694 100.285 L 212.231 99.000 L 218.020 99.435 L 223.062 101.514 L 226.484 104.878 L 227.694 108.945 Z" />
</g>
<g id="part-65">
<path d="M 178.000 121.000 L 200.000 121.000 L 200.000 129.000 L 178.000 129.000 L 178.000 121.000 Z" />
</g>
<g id="part-66">
<path d="M 663.734 99.000 L 678.734 99.000 L 678.734 116.000 L 663.734 116.000 L 663.734 99.000 Z" />
</g>
<g id="part-67">
<path d="M 1187.257 68.000 L 1219.257 68.000 L 1219.257 94.000 L 1187.257 94.000 L 1187.257 68.000 Z" />
</g>
<g id="part-68">
<path d="M 1346.687 99.000 L 1371.687 99.000 L 1371.687 112.000 L 1346.687 112.000 L 1346.687 99.000 Z" />
</g>
<g id="part-69">
<path d="M 1925.902 68.000 L 1943.902 68.000 L 1943.902 90.000 L 1925.902 90.000 L 1925.902 68.000 Z" />
</g>
<g id="part-70">
<path d="M 1765.902 68.000 L 1790.902 68.000 L 1790.902 91.000 L 1765.902 91.000 L 1765.902 68.000 Z" />
<path d="M 1773.902 75.360 L 1773.902 83.640 L 1782.902 83.640 L 1782.902 75.360 L 1773.902 75.360 Z" fill="#f7f7f2" fill-opacity="1" stroke="#163b5c" />
</g>
<g id="part-71">
<path d="M 422.000 10.000 L 462.000 10.000 L 462.000 56.000 L 422.000 56.000 L 422.000 10.000 Z" />
<path d="M 435.600 18.280 L 435.600 28.400 L 453.200 28.400 L 453.200 18.280 L 435.600 18.280 Z" fill="#f7f7f2" fill-opacity="1" stroke="#163b5c" />
<path d="M 435.600 37.600 L 435.600 47.720 L 453.200 47.720 L 453.200 37.600 L 435.600 37.600 Z" fill="#f7f7f2" fill-opacity="1" stroke="#163b5c" />
</g>
<g id="part-72">
<path d="M 1056.000 10.000 L 1092.000 10.000 L 1092.000 19.020 L 1068.240 19.020 L 1068.240 41.980 L 1092.000 41.980 L 1092.000 51.000 L 1056.000 51.000 L 1056.000 10.000 Z" />
</g>
<g id="part-73">
<path d="M 1199.687 99.000 L 1213.687 103.000 L 1209.767 113.000 L 1202.687 110.480 L 1199.687 99.000 Z" />
</g>
<g id="part-74">
<path d="M 1651.558 79.934 L 1650.174 84.815 L 1646.264 88.852 L 1640.502 91.347 L 1633.885 91.869 L 1627.558 90.327 L 1622.613 86.988 L 1619.907 82.429 L 1619.907 77.439 L 1622.613 72.881 L 1627.558 69.542 L 1633.885 68.000 L 1640.502 68.522 L 1646.264 71.017 L 1650.174 75.053 L 1651.558 79.934 Z" />
</g>
<g id="part-75">
<path d="M 2016.715 99.000 L 2040.715 99.000 L 2040.715 109.000 L 2016.715 109.000 L 2016.715 99.000 Z" />
</g>
<g id="part-76">
<path d="M 395.734 99.000 L 412.734 99.000 L 412.734 118.000 L 395.734 118.000 L 395.734 99.000 Z" />
</g>
<g id="part-77">
<path d="M 314.000 68.000 L 324.000 68.000 L 324.000 96.000 L 314.000 96.000 L 314.000 68.000 Z" />
</g>
<g id="part-78">
<path d="M 1038.687 99.000 L 1065.687 99.000 L 1065.687 114.000 L 1038.687 114.000 L 1038.687 99.000 Z" />
</g>
<g id="part-79">
<path d="M 1532.257 68.000 L 1552.257 68.000 L 1552.257 92.000 L 1532.257 92.000 L 1532.257 68.000 Z" />
</g>
<g id="part-80">
<path d="M 1341.257 68.000 L 1368.257 68.000 L 1368.257 93.000 L 1341.257 93.000 L 1341.257 68.000 Z" />
<path d="M 1349.897 76.000 L 1349.897 85.000 L 1359.617 85.000 L 1359.617 76.000 L 1349.897 76.000 Z" fill="#f7f7f2" fill-opacity="1" stroke="#163b5c" />
</g>
<g id="part-81">
<path d="M 336.000 10.000 L 378.000 10.000 L 378.000 58.000 L 336.000 58.000 L 336.000 10.000 Z" />
<path d="M 350.280 18.640 L 350.280 29.200 L 368.760 29.200 L 368.760 18.640 L 350.280 18.640 Z" fill="#f7f7f2" fill-opacity="1" stroke="#163b5c" />
<path d="M 350.280 38.800 L 350.280 49.360 L 368.760 49.360 L 368.760 38.800 L 350.280 38.800 Z" fill="#f7f7f2" fill-opacity="1" stroke="#163b5c" />
</g>
<g id="part-82">
<path d="M 669.000 10.000 L 707.000 10.000 L 707.000 19.460 L 681.920 19.460 L 681.920 43.540 L 707.000 43.540 L 707.000 53.000 L 669.000 53.000 L 669.000 10.000 Z" />
</g>
<g id="part-83">
<path d="M 758.734 99.000 L 774.734 103.000 L 770.254 115.000 L 761.734 112.120 L 758.734 99.000 Z" />
</g>
<g id="part-84">
<path d="M 1617.907 79.934 L 1616.524 84.815 L 1612.613 88.852 L 1606.852 91.347 L 1600.235 91.869 L 1593.907 90.327 L 1588.963 86.988 L 1586.257 82.429 L 1586.257 77.439 L 1588.963 72.881 L 1593.907 69.542 L 1600.235 68.000 L 1606.852 68.522 L 1612.613 71.017 L 1616.524 75.053 L 1617.907 79.934 Z" />
</g>
<g id="part-85">
<path d="M 1617.687 99.000 L 1643.687 99.000 L 1643.687 111.000 L 1617.687 111.000 L 1617.687 99.000 Z" />
</g>
<g id="part-86">
<path d="M 2196.902 68.000 L 2215.902 68.000 L 2215.902 89.000 L 2196.902 89.000 L 2196.902 68.000 Z" />
</g>
<g id="part-87">
<path d="M 68.000 121.000 L 80.000 121.000 L 80.000 129.000 L 68.000 129.000 L 68.000 121.000 Z" />
</g>
<g id="part-88">
<path d="M 632.734 99.000 L 661.734 99.000 L 661.734 116.000 L 632.734 116.000 L 632.734 99.000 Z" />
</g>
<g id="part-89">
<path d="M 987.257 68.000 L 1009.257 68.000 L 1009.257 94.000 L 987.257 94.000 L 987.257 68.000 Z" />
</g>
<g id="part-90">
<path d="M 895.257 68.000 L 924.257 68.000 L 924.257 95.000 L 895.257 95.000 L 895.257 68.000 Z" />
<path d="M 904.537 76.640 L 904.537 86.360 L 914.977 86.360 L 914.977 76.640 L 904.537 76.640 Z" fill="#f7f7f2" fill-opacity="1" stroke="#163b5c" />
</g>
<g id="part-91">
<path d="M 290.000 10.000 L 334.000 10.000 L 334.000 60.000 L 290.000 60.000 L 290.000 10.000 Z" />
<path d="M 304.960 19.000 L 304.960 30.000 L 324.320 30.000 L 324.320 19.000 L 304.960 19.000 Z" fill="#f7f7f2" fill-opacity="1" stroke="#163b5c" />
<path d="M 304.960 40.000 L 304.960 51.000 L 324.320 51.000 L 324.320 40.000 L 304.960 40.000 Z" fill="#f7f7f2" fill-opacity="1" stroke="#163b5c" />
</g>
<g id="part-92">
<path d="M 326.000 68.000 L 366.000 68.000 L 366.000 74.160 L 339.600 74.160 L 339.600 89.840 L 366.000 89.840 L 366.000 96.000 L 326.000 96.000 L 326.000 68.000 Z" />
</g>
<g id="part-93">
<path d="M 414.734 99.000 L 432.734 103.000 L 427.694 117.000 L 417.734 113.760 L 414.734 99.000 Z" />
</g>
<g id="part-94">
<path d="M 745.738 81.923 L 745.219 87.618 L 743.753 92.327 L 741.592 95.238 L 739.111 95.847 L 736.738 94.048 L 734.884 90.152 L 733.869 84.834 L 733.869 79.013 L 734.884 73.694 L 736.738 69.799 L 739.111 68.000 L 741.592 68.609 L 743.753 71.519 L 745.219 76.229 L 745.738 81.923 Z" />
</g>
<g id="part-95">
<path d="M 1291.687 99.000 L 1319.687 99.000 L 1319.687 113.000 L 1291.687 113.000 L 1291.687 99.000 Z" />
</g>
<g id="part-96">
<path d="M 1792.902 68.000 L 1813.902 68.000 L 1813.902 91.000 L 1792.902 91.000 L 1792.902 68.000 Z" />
</g>
<g id="part-97">
<path d="M 2042.715 99.000 L 2056.715 99.000 L 2056.715 109.000 L 2042.715 109.000 L 2042.715 99.000 Z" />
</g>
<g id="part-98">
<path d="M 314.734 99.000 L 345.734 99.000 L 345.734 118.000 L 314.734 118.000 L 314.734 99.000 Z" />
</g>
<g id="part-99">
<path d="M 398.000 68.000 L 422.000 68.000 L 422.000 96.000 L 398.000 96.000 L 398.000 68.000 Z" />
</g>
<g id="part-100">
<path d="M 2207.000 10.000 L 2238.000 10.000 L 2238.000 39.000 L 2207.000 39.000 L 2207.000 10.000 Z" />
<path d="M 2216.920 19.280 L 2216.920 29.720 L 2228.080 29.720 L 2228.080 19.280 L 2216.920 19.280 Z" fill="#f7f7f2" fill-opacity="1" stroke="#163b5c" />
</g>
<g id="part-101">
<path d="M 174.000 10.000 L 198.000 10.000 L 198.000 62.000 L 174.000 62.000 L 174.000 10.000 Z" />
<path d="M 182.160 19.360 L 182.160 30.800 L 192.720 30.800 L 192.720 19.360 L 182.160 19.360 Z" fill="#f7f7f2" fill-opacity="1" stroke="#163b5c" />
<path d="M 182.160 41.200 L 182.160 52.640 L 192.720 52.640 L 192.720 41.200 L 182.160 41.200 Z" fill="#f7f7f2" fill-opacity="1" stroke="#163b5c" />
</g>
<g id="part-102">
<path d="M 424.000 68.000 L 466.000 68.000 L 466.000 74.160 L 438.280 74.160 L 438.280 89.840 L 466.000 89.840 L 466.000 96.000 L 424.000 96.000 L 424.000 68.000 Z" />
</g>
<g id="part-103">
<path d="M 36.000 99.000 L 56.000 103.000 L 50.400 119.000 L 39.000 115.400 L 36.000 99.000 Z" />
</g>
<g id="part-104">
<path d="M 759.607 81.923 L 759.088 87.618 L 757.621 92.327 L 755.461 95.238 L 752.979 95.847 L 750.607 94.048 L 748.753 90.152 L 747.738 84.834 L 747.738 79.013 L 748.753 73.694 L 750.607 69.799 L 752.979 68.000 L 755.461 68.609 L 757.621 71.519 L 759.088 76.229 L 759.607 81.923 Z" />
</g>
<g id="part-105">
<path d="M 902.734 99.000 L 932.734 99.000 L 932.734 115.000 L 902.734 115.000 L 902.734 99.000 Z" />
</g>
<g id="part-106">
<path d="M 1280.257 68.000 L 1303.257 68.000 L 1303.257 93.000 L 1280.257 93.000 L 1280.257 68.000 Z" />
</g>
<g id="part-107">
<path d="M 1443.687 99.000 L 1459.687 99.000 L 1459.687 111.000 L 1443.687 111.000 L 1443.687 99.000 Z" />
</g>
<g id="part-108">
<path d="M 2109.902 68.000 L 2142.902 68.000 L 2142.902 89.000 L 2109.902 89.000 L 2109.902 68.000 Z" />
</g>
<g id="part-109">
<path d="M 82.000 121.000 L 108.000 121.000 L 108.000 129.000 L 82.000 129.000 L 82.000 121.000 Z" />
</g>
<g id="part-110">
<path d="M 1911.000 10.000 L 1944.000 10.000 L 1944.000 41.000 L 1911.000 41.000 L 1911.000 10.000 Z" />
<path d="M 1921.560 19.920 L 1921.560 31.080 L 1933.440 31.080 L 1933.440 19.920 L 1921.560 19.920 Z" fill="#f7f7f2" fill-opacity="1" stroke="#163b5c" />
</g>
<g id="part-111">
<path d="M 148.000 10.000 L 172.000 10.000 L 172.000 64.000 L 148.000 64.000 L 148.000 10.000 Z" />
<path d="M 156.160 19.720 L 156.160 31.600 L 166.720 31.600 L 166.720 19.720 L 156.160 19.720 Z" fill="#f7f7f2" fill-opacity="1" stroke="#163b5c" />
<path d="M 156.160 42.400 L 156.160 54.280 L 166.720 54.280 L 166.720 42.400 L 156.160 42.400 Z" fill="#f7f7f2" fill-opacity="1" stroke="#163b5c" />
</g>
<g id="part-112">
<path d="M 468.000 68.000 L 512.000 68.000 L 512.000 74.160 L 482.960 74.160 L 482.960 89.840 L 512.000 89.840 L 512.000 96.000 L 468.000 96.000 L 468.000 68.000 Z" />
</g>
<g id="part-113">
<path d="M 2051.902 68.000 L 2073.902 72.000 L 2067.742 90.000 L 2054.902 86.040 L 2051.902 68.000 Z" />
</g>
<g id="part-114">
<path d="M 217.676 124.959 L 216.406 127.122 L 212.999 128.598 L 208.537 128.919 L 204.437 127.982 L 202.000 126.086 L 202.000 123.832 L 204.437 121.936 L 208.537 121.000 L 212.999 121.321 L 216.406 122.797 L 217.676 124.959 Z" />
</g>
<g id="part-115">
<path d="M 434.734 99.000 L 466.734 99.000 L 466.734 117.000 L 434.734 117.000 L 434.734 99.000 Z" />
</g>
<g id="part-116">
<path d="M 960.257 68.000 L 985.257 68.000 L 985.257 95.000 L 960.257 95.000 L 960.257 68.000 Z" />
</g>
<g id="part-117">
<path d="M 1271.687 99.000 L 1289.687 99.000 L 1289.687 113.000 L 1271.687 113.000 L 1271.687 99.000 Z" />
</g>
<g id="part-118">
<path d="M 1836.902 68.000 L 1847.902 68.000 L 1847.902 91.000 L 1836.902 91.000 L 1836.902 68.000 Z" />
</g>
<g id="part-119">
<path d="M 1866.715 99.000 L 1894.715 99.000 L 1894.715 109.000 L 1866.715 109.000 L 1866.715 99.000 Z" />
</g>
<g id="part-120">
<path d="M 1813.000 10.000 L 1848.000 10.000 L 1848.000 43.000 L 1813.000 43.000 L 1813.000 10.000 Z" />
<path d="M 1824.200 20.560 L 1824.200 32.440 L 1836.800 32.440 L 1836.800 20.560 L 1824.200 20.560 Z" fill="#f7f7f2" fill-opacity="1" stroke="#163b5c" />
</g>
<g id="part-121">
<path d="M 10.000 10.000 L 36.000 10.000 L 36.000 66.000 L 10.000 66.000 L 10.000 10.000 Z" />
<path d="M 18.840 20.080 L 18.840 32.400 L 30.280 32.400 L 30.280 20.080 L 18.840 20.080 Z" fill="#f7f7f2" fill-opacity="1" stroke="#163b5c" />
<path d="M 18.840 43.600 L 18.840 55.920 L 30.280 55.920 L 30.280 43.600 L 18.840 43.600 Z" fill="#f7f7f2" fill-opacity="1" stroke="#163b5c" />
</g>
<g id="part-122">
<path d="M 2109.000 10.000 L 2155.000 10.000 L 2155.000 16.380 L 2124.640 16.380 L 2124.640 32.620 L 2155.000 32.620 L 2155.000 39.000 L 2109.000 39.000 L 2109.000 10.000 Z" />
</g>
<g id="part-123">
<path d="M 1370.257 68.000 L 1394.257 72.000 L 1387.537 92.000 L 1373.257 87.680 L 1370.257 68.000 Z" />
</g>
<g id="part-124">
<path d="M 1713.363 104.939 L 1712.093 108.183 L 1708.687 110.397 L 1704.225 110.878 L 1700.124 109.473 L 1697.687 106.629 L 1697.687 103.249 L 1700.124 100.404 L 1704.225 99.000 L 1708.687 99.481 L 1712.093 101.695 L 1713.363 104.939 Z" />
</g>
<g id="part-125">
<path d="M 140.000 99.000 L 150.000 99.000 L 150.000 119.000 L 140.000 119.000 L 140.000 99.000 Z" />
</g>
<g id="part-126">
<path d="M 31.000 68.000 L 58.000 68.000 L 58.000 97.000 L 31.000 97.000 L 31.000 68.000 Z" />
</g>
<g id="part-127">
<path d="M 736.734 99.000 L 756.734 99.000 L 756.734 115.000 L 736.734 115.000 L 736.734 99.000 Z" />
</g>
<g id="part-128">
<path d="M 1265.257 68.000 L 1278.257 68.000 L 1278.257 93.000 L 1265.257 93.000 L 1265.257 68.000 Z" />
</g>
<g id="part-129">
<path d="M 1461.687 99.000 L 1491.687 99.000 L 1491.687 111.000 L 1461.687 111.000 L 1461.687 99.000 Z" />
</g>
<g id="part-130">
<path d="M 1633.000 10.000 L 1670.000 10.000 L 1670.000 45.000 L 1633.000 45.000 L 1633.000 10.000 Z" />
<path d="M 1644.840 21.200 L 1644.840 33.800 L 1658.160 33.800 L 1658.160 21.200 L 1644.840 21.200 Z" fill="#f7f7f2" fill-opacity="1" stroke="#163b5c" />
</g>
<g id="part-131">
<path d="M 784.000 10.000 L 812.000 10.000 L 812.000 52.000 L 784.000 52.000 L 784.000 10.000 Z" />
<path d="M 793.520 17.560 L 793.520 26.800 L 805.840 26.800 L 805.840 17.560 L 793.520 17.560 Z" fill="#f7f7f2" fill-opacity="1" stroke="#163b5c" />
<path d="M 793.520 35.200 L 793.520 44.440 L 805.840 44.440 L 805.840 35.200 L 793.520 35.200 Z" fill="#f7f7f2" fill-opacity="1" stroke="#163b5c" />
</g>
<g id="part-132">
<path d="M 2031.000 10.000 L 2079.000 10.000 L 2079.000 16.820 L 2047.320 16.820 L 2047.320 34.180 L 2079.000 34.180 L 2079.000 41.000 L 2031.000 41.000 L 2031.000 10.000 Z" />
</g>
<g id="part-133">
<path d="M 1033.257 68.000 L 1059.257 72.000 L 1051.977 94.000 L 1036.257 89.320 L 1033.257 68.000 Z" />
</g>
<g id="part-134">
<path d="M 1441.687 105.000 L 1440.348 108.000 L 1436.687 110.196 L 1431.687 111.000 L 1426.687 110.196 L 1423.027 108.000 L 1421.687 105.000 L 1423.027 102.000 L 1426.687 99.804 L 1431.687 99.000 L 1436.687 99.804 L 1440.348 102.000 L 1441.687 105.000 Z" />
</g>
<g id="part-135">
<path d="M 1991.902 68.000 L 2003.902 68.000 L 2003.902 90.000 L 1991.902 90.000 L 1991.902 68.000 Z" />
</g>
<g id="part-136">
<path d="M 2188.715 99.000 L 2217.715 99.000 L 2217.715 108.000 L 2188.715 108.000 L 2188.715 99.000 Z" />
</g>
<g id="part-137">
<path d="M 482.734 99.000 L 504.734 99.000 L 504.734 117.000 L 482.734 117.000 L 482.734 99.000 Z" />
</g>
<g id="part-138">
<path d="M 824.257 68.000 L 839.257 68.000 L 839.257 95.000 L 824.257 95.000 L 824.257 68.000 Z" />
</g>
<g id="part-139">
<path d="M 1215.687 99.000 L 1247.687 99.000 L 1247.687 113.000 L 1215.687 113.000 L 1215.687 99.000 Z" />
</g>
<g id="part-140">
<path d="M 1489.000 10.000 L 1528.000 10.000 L 1528.000 47.000 L 1489.000 47.000 L 1489.000 10.000 Z" />
<path d="M 1501.480 21.840 L 1501.480 35.160 L 1515.520 35.160 L 1515.520 21.840 L 1501.480 21.840 Z" fill="#f7f7f2" fill-opacity="1" stroke="#163b5c" />
</g>
<g id="part-141">
<path d="M 952.000 10.000 L 982.000 10.000 L 982.000 52.000 L 952.000 52.000 L 952.000 10.000 Z" />
<path d="M 962.200 17.560 L 962.200 26.800 L 975.400 26.800 L 975.400 17.560 L 962.200 17.560 Z" fill="#f7f7f2" fill-opacity="1" stroke="#163b5c" />
<path d="M 962.200 35.200 L 962.200 44.440 L 975.400 44.440 L 975.400 35.200 L 962.200 35.200 Z" fill="#f7f7f2" fill-opacity="1" stroke="#163b5c" />
</g>
<g id="part-142">
<path d="M 1850.000 10.000 L 1876.000 10.000 L 1876.000 17.260 L 1858.840 17.260 L 1858.840 35.740 L 1876.000 35.740 L 1876.000 43.000 L 1850.000 43.000 L 1850.000 10.000 Z" />
</g>
<g id="part-143">
<path d="M 368.000 68.000 L 396.000 72.000 L 388.160 96.000 L 371.000 90.960 L 368.000 68.000 Z" />
</g>
<g id="part-144">
<path d="M 880.734 107.000 L 879.394 111.000 L 875.734 113.928 L 870.734 115.000 L 865.734 113.928 L 862.073 111.000 L 860.734 107.000 L 862.073 103.000 L 865.734 100.072 L 870.734 99.000 L 875.734 100.072 L 879.394 103.000 L 880.734 107.000 Z" />
</g>
<g id="part-145">
<path d="M 1424.257 68.000 L 1438.257 68.000 L 1438.257 92.000 L 1424.257 92.000 L 1424.257 68.000 Z" />
</g>
<g id="part-146">
<path d="M 1750.715 99.000 L 1781.715 99.000 L 1781.715 110.000 L 1750.715 110.000 L 1750.715 99.000 Z" />
</g>
<g id="part-147">
<path d="M 10.000 99.000 L 34.000 99.000 L 34.000 119.000 L 10.000 119.000 L 10.000 99.000 Z" />
</g>
<g id="part-148">
<path d="M 149.000 68.000 L 166.000 68.000 L 166.000 97.000 L 149.000 97.000 L 149.000 68.000 Z" />
</g>
<g id="part-149">
<path d="M 724.734 99.000 L 734.734 99.000 L 734.734 115.000 L 724.734 115.000 L 724.734 99.000 Z" />
</g>
<g id="part-150">
<path d="M 1222.000 10.000 L 1263.000 10.000 L 1263.000 49.000 L 1222.000 49.000 L 1222.000 10.000 Z" />
<path d="M 1235.120 22.480 L 1235.120 36.520 L 1249.880 36.520 L 1249.880 22.480 L 1235.120 22.480 Z" fill="#f7f7f2" fill-opacity="1" stroke="#163b5c" />
</g>
<g id="part-151">
<path d="M 984.000 10.000 L 1016.000 10.000 L 1016.000 52.000 L 984.000 52.000 L 984.000 10.000 Z" />
<path d="M 994.880 17.560 L 994.880 26.800 L 1008.960 26.800 L 1008.960 17.560 L 994.880 17.560 Z" fill="#f7f7f2" fill-opacity="1" stroke="#163b5c" />
<path d="M 994.880 35.200 L 994.880 44.440 L 1008.960 44.440 L 1008.960 35.200 L 994.880 35.200 Z" fill="#f7f7f2" fill-opacity="1" stroke="#163b5c" />
</g>
<g id="part-152">
<path d="M 1530.000 10.000 L 1558.000 10.000 L 1558.000 17.700 L 1539.520 17.700 L 1539.520 37.300 L 1558.000 37.300 L 1558.000 45.000 L 1530.000 45.000 L 1530.000 10.000 Z" />
</g>
<g id="part-153">
<path d="M 10.000 121.000 L 40.000 125.000 L 31.600 129.000 L 13.000 127.560 L 10.000 121.000 Z" />
</g>
<g id="part-154">
<path d="M 958.385 106.942 L 957.010 110.659 L 953.202 113.526 L 947.831 114.883 L 942.130 114.422 L 937.403 112.247 L 934.734 108.856 L 934.734 105.027 L 937.403 101.637 L 942.130 99.462 L 947.831 99.000 L 953.202 100.358 L 957.010 103.224 L 958.385 106.942 Z" />
</g>
<g id="part-155">
<path d="M 1061.257 68.000 L 1077.257 68.000 L 1077.257 94.000 L 1061.257 94.000 L 1061.257 68.000 Z" />
</g>
<g id="part-156">
<path d="M 1373.687 99.000 L 1406.687 99.000 L 1406.687 112.000 L 1373.687 112.000 L 1373.687 99.000 Z" />
</g>
<g id="part-157">
<path d="M 1945.902 68.000 L 1971.902 68.000 L 1971.902 90.000 L 1945.902 90.000 L 1945.902 68.000 Z" />
</g>
<g id="part-158">
<path d="M 2167.715 99.000 L 2186.715 99.000 L 2186.715 108.000 L 2167.715 108.000 L 2167.715 99.000 Z" />
</g>
<g id="part-159">
<path d="M 468.734 99.000 L 480.734 99.000 L 480.734 117.000 L 468.734 117.000 L 468.734 99.000 Z" />
</g>
<g id="part-160">
<path d="M 1094.000 10.000 L 1137.000 10.000 L 1137.000 51.000 L 1094.000 51.000 L 1094.000 10.000 Z" />
<path d="M 1107.760 23.120 L 1107.760 37.880 L 1123.240 37.880 L 1123.240 23.120 L 1107.760 23.120 Z" fill="#f7f7f2" fill-opacity="1" stroke="#163b5c" />
</g>
<g id="part-161">
<path d="M 880.000 10.000 L 914.000 10.000 L 914.000 52.000 L 880.000 52.000 L 880.000 10.000 Z" />
<path d="M 891.560 17.560 L 891.560 26.800 L 906.520 26.800 L 906.520 17.560 L 891.560 17.560 Z" fill="#f7f7f2" fill-opacity="1" stroke="#163b5c" />
<path d="M 891.560 35.200 L 891.560 44.440 L 906.520 44.440 L 906.520 35.200 L 891.560 35.200 Z" fill="#f7f7f2" fill-opacity="1" stroke="#163b5c" />
</g>
<g id="part-162">
<path d="M 1380.000 10.000 L 1410.000 10.000 L 1410.000 18.140 L 1390.200 18.140 L 1390.200 38.860 L 1410.000 38.860 L 1410.000 47.000 L 1380.000 47.000 L 1380.000 10.000 Z" />
</g>
<g id="part-163">
<path d="M 1982.715 99.000 L 2014.715 103.000 L 2005.755 109.000 L 1985.715 107.200 L 1982.715 99.000 Z" />
</g>
<g id="part-164">
<path d="M 312.734 108.927 L 311.359 113.574 L 307.550 117.157 L 302.180 118.854 L 296.478 118.277 L 291.751 115.558 L 289.082 111.320 L 289.082 106.534 L 291.751 102.296 L 296.478 99.577 L 302.180 99.000 L 307.550 100.697 L 311.359 104.280 L 312.734 108.927 Z" />
</g>
<g id="part-165">
<path d="M 270.000 68.000 L 288.000 68.000 L 288.000 96.000 L 270.000 96.000 L 270.000 68.000 Z" />
</g>
<g id="part-166">
<path d="M 1067.687 99.000 L 1078.687 99.000 L 1078.687 114.000 L 1067.687 114.000 L 1067.687 99.000 Z" />
</g>
<g id="part-167">
<path d="M 1440.257 68.000 L 1468.257 68.000 L 1468.257 92.000 L 1440.257 92.000 L 1440.257 68.000 Z" />
</g>
<g id="part-168">
<path d="M 1843.715 99.000 L 1864.715 99.000 L 1864.715 110.000 L 1843.715 110.000 L 1843.715 99.000 Z" />
</g>
<g id="part-169">
<path d="M 152.000 99.000 L 166.000 99.000 L 166.000 119.000 L 152.000 119.000 L 152.000 99.000 Z" />
</g>
<g id="part-170">
<path d="M 709.000 10.000 L 754.000 10.000 L 754.000 53.000 L 709.000 53.000 L 709.000 10.000 Z" />
<path d="M 723.400 23.760 L 723.400 39.240 L 739.600 39.240 L 739.600 23.760 L 723.400 23.760 Z" fill="#f7f7f2" fill-opacity="1" stroke="#163b5c" />
</g>
<g id="part-171">
<path d="M 504.000 10.000 L 540.000 10.000 L 540.000 54.000 L 504.000 54.000 L 504.000 10.000 Z" />
<path d="M 516.240 17.920 L 516.240 27.600 L 532.080 27.600 L 532.080 17.920 L 516.240 17.920 Z" fill="#f7f7f2" fill-opacity="1" stroke="#163b5c" />
<path d="M 516.240 36.400 L 516.240 46.080 L 532.080 46.080 L 532.080 36.400 L 516.240 36.400 Z" fill="#f7f7f2" fill-opacity="1" stroke="#163b5c" />
</g>
<g id="part-172">
<path d="M 1310.000 10.000 L 1342.000 10.000 L 1342.000 18.580 L 1320.880 18.580 L 1320.880 40.420 L 1342.000 40.420 L 1342.000 49.000 L 1310.000 49.000 L 1310.000 10.000 Z" />
</g>
<g id="part-173">
<path d="M 1659.687 99.000 L 1669.687 103.000 L 1666.887 111.000 L 1662.687 108.840 L 1659.687 99.000 Z" />
</g>
<g id="part-174">
<path d="M 287.082 108.945 L 285.872 113.013 L 282.450 116.377 L 277.408 118.456 L 271.619 118.890 L 266.082 117.605 L 261.756 114.823 L 259.388 111.024 L 259.388 106.866 L 261.756 103.067 L 266.082 100.285 L 271.619 99.000 L 277.408 99.435 L 282.450 101.514 L 285.872 104.878 L 287.082 108.945 Z" />
</g>
<g id="part-175">
<path d="M 110.000 121.000 L 130.000 121.000 L 130.000 129.000 L 110.000 129.000 L 110.000 121.000 Z" />
</g>
<g id="part-176">
<path d="M 709.734 99.000 L 722.734 99.000 L 722.734 116.000 L 709.734 116.000 L 709.734 99.000 Z" />
</g>
<g id="part-177">
<path d="M 1135.257 68.000 L 1165.257 68.000 L 1165.257 94.000 L 1135.257 94.000 L 1135.257 68.000 Z" />
</g>
<g id="part-178">
<path d="M 1321.687 99.000 L 1344.687 99.000 L 1344.687 112.000 L 1321.687 112.000 L 1321.687 99.000 Z" />
</g>
<g id="part-179">
<path d="M 1973.902 68.000 L 1989.902 68.000 L 1989.902 90.000 L 1973.902 90.000 L 1973.902 68.000 Z" />
</g>
<g id="part-180">
<path d="M 1716.902 68.000 L 1763.902 68.000 L 1763.902 91.000 L 1716.902 91.000 L 1716.902 68.000 Z" />
<path d="M 1731.942 75.360 L 1731.942 83.640 L 1748.862 83.640 L 1748.862 75.360 L 1731.942 75.360 Z" fill="#f7f7f2" fill-opacity="1" stroke="#163b5c" />
</g>
<g id="part-181">
<path d="M 464.000 10.000 L 502.000 10.000 L 502.000 56.000 L 464.000 56.000 L 464.000 10.000 Z" />
<path d="M 476.920 18.280 L 476.920 28.400 L 493.640 28.400 L 493.640 18.280 L 476.920 18.280 Z" fill="#f7f7f2" fill-opacity="1" stroke="#163b5c" />
<path d="M 476.920 37.600 L 476.920 47.720 L 493.640 47.720 L 493.640 37.600 L 476.920 37.600 Z" fill="#f7f7f2" fill-opacity="1" stroke="#163b5c" />
</g>
<g id="part-182">
<path d="M 1139.000 10.000 L 1173.000 10.000 L 1173.000 19.020 L 1150.560 19.020 L 1150.560 41.980 L 1173.000 41.980 L 1173.000 51.000 L 1139.000 51.000 L 1139.000 10.000 Z" />
</g>
<g id="part-183">
<path d="M 1113.687 99.000 L 1125.687 103.000 L 1122.327 113.000 L 1116.687 110.480 L 1113.687 99.000 Z" />
</g>
<g id="part-184">
<path d="M 1681.252 79.934 L 1680.041 84.815 L 1676.620 88.852 L 1671.578 91.347 L 1665.788 91.869 L 1660.252 90.327 L 1655.926 86.988 L 1653.558 82.429 L 1653.558 77.439 L 1655.926 72.881 L 1660.252 69.542 L 1665.788 68.000 L 1671.578 68.522 L 1676.620 71.017 L 1680.041 75.053 L 1681.252 79.934 Z" />
</g>
<g id="part-185">
<path d="M 2058.715 99.000 L 2080.715 99.000 L 2080.715 109.000 L 2058.715 109.000 L 2058.715 99.000 Z" />
</g>
<g id="part-186">
<path d="M 378.734 99.000 L 393.734 99.000 L 393.734 118.000 L 378.734 118.000 L 378.734 99.000 Z" />
</g>
<g id="part-187">
<path d="M 214.000 68.000 L 246.000 68.000 L 246.000 96.000 L 214.000 96.000 L 214.000 68.000 Z" />
</g>
<g id="part-188">
<path d="M 1011.687 99.000 L 1036.687 99.000 L 1036.687 114.000 L 1011.687 114.000 L 1011.687 99.000 Z" />
</g>
<g id="part-189">
<path d="M 1470.257 68.000 L 1488.257 68.000 L 1488.257 92.000 L 1470.257 92.000 L 1470.257 68.000 Z" />
</g>
<g id="part-190">
<path d="M 1238.257 68.000 L 1263.257 68.000 L 1263.257 93.000 L 1238.257 93.000 L 1238.257 68.000 Z" />
<path d="M 1246.257 76.000 L 1246.257 85.000 L 1255.257 85.000 L 1255.257 76.000 L 1246.257 76.000 Z" fill="#f7f7f2" fill-opacity="1" stroke="#163b5c" />
</g>
<g id="part-191">
<path d="M 380.000 10.000 L 420.000 10.000 L 420.000 58.000 L 380.000 58.000 L 380.000 10.000 Z" />
<path d="M 393.600 18.640 L 393.600 29.200 L 411.200 29.200 L 411.200 18.640 L 393.600 18.640 Z" fill="#f7f7f2" fill-opacity="1" stroke="#163b5c" />
<path d="M 393.600 38.800 L 393.600 49.360 L 411.200 49.360 L 411.200 38.800 L 393.600 38.800 Z" fill="#f7f7f2" fill-opacity="1" stroke="#163b5c" />
</g>
<g id="part-192">
<path d="M 631.000 10.000 L 667.000 10.000 L 667.000 19.460 L 643.240 19.460 L 643.240 43.540 L 667.000 43.540 L 667.000 53.000 L 631.000 53.000 L 631.000 10.000 Z" />
</g>
<g id="part-193">
<path d="M 790.734 99.000 L 804.734 103.000 L 800.814 115.000 L 793.734 112.120 L 790.734 99.000 Z" />
</g>
<g id="part-194">
<path d="M 1714.902 79.934 L 1713.519 84.815 L 1709.608 88.852 L 1703.846 91.347 L 1697.230 91.869 L 1690.902 90.327 L 1685.958 86.988 L 1683.252 82.429 L 1683.252 77.439 L 1685.958 72.881 L 1690.902 69.542 L 1697.230 68.000 L 1703.846 68.522 L 1709.608 71.017 L 1713.519 75.053 L 1714.902 79.934 Z" />
</g>
<g id="part-195">
<path d="M 1671.687 99.000 L 1695.687 99.000 L 1695.687 111.000 L 1671.687 111.000 L 1671.687 99.000 Z" />
</g>
<g id="part-196">
<path d="M 2177.902 68.000 L 2194.902 68.000 L 2194.902 89.000 L 2177.902 89.000 L 2177.902 68.000 Z" />
</g>
<g id="part-197">
<path d="M 132.000 121.000 L 142.000 121.000 L 142.000 129.000 L 132.000 129.000 L 132.000 121.000 Z" />
</g>
<g id="part-198">
<path d="M 680.734 99.000 L 707.734 99.000 L 707.734 116.000 L 680.734 116.000 L 680.734 99.000 Z" />
</g>
<g id="part-199">
<path d="M 1011.257 68.000 L 1031.257 68.000 L 1031.257 94.000 L 1011.257 94.000 L 1011.257 68.000 Z" />
</g>
<g id="part-200">
<path d="M 795.257 68.000 L 822.257 68.000 L 822.257 95.000 L 795.257 95.000 L 795.257 68.000 Z" />
<path d="M 803.897 76.640 L 803.897 86.360 L 813.617 86.360 L 813.617 76.640 L 803.897 76.640 Z" fill="#f7f7f2" fill-opacity="1" stroke="#163b5c" />
</g>
<g id="part-201">
<path d="M 246.000 10.000 L 288.000 10.000 L 288.000 60.000 L 246.000 60.000 L 246.000 10.000 Z" />
<path d="M 260.280 19.000 L 260.280 30.000 L 278.760 30.000 L 278.760 19.000 L 260.280 19.000 Z" fill="#f7f7f2" fill-opacity="1" stroke="#163b5c" />
<path d="M 260.280 40.000 L 260.280 51.000 L 278.760 51.000 L 278.760 40.000 L 260.280 40.000 Z" fill="#f7f7f2" fill-opacity="1" stroke="#163b5c" />
</g>
<g id="part-202">
<path d="M 648.000 68.000 L 686.000 68.000 L 686.000 74.160 L 660.920 74.160 L 660.920 89.840 L 686.000 89.840 L 686.000 96.000 L 648.000 96.000 L 648.000 68.000 Z" />
</g>
<g id="part-203">
<path d="M 556.734 99.000 L 572.734 103.000 L 568.254 117.000 L 559.734 113.760 L 556.734 99.000 Z" />
</g>
<g id="part-204">
<path d="M 793.257 81.923 L 791.874 87.618 L 787.963 92.327 L 782.201 95.238 L 775.585 95.847 L 769.257 94.048 L 764.313 90.152 L 761.607 84.834 L 761.607 79.013 L 764.313 73.694 L 769.257 69.799 L 775.585 68.000 L 782.201 68.609 L 787.963 71.519 L 791.874 76.229 L 793.257 81.923 Z" />
</g>
<g id="part-205">
<path d="M 1127.687 99.000 L 1153.687 99.000 L 1153.687 113.000 L 1127.687 113.000 L 1127.687 99.000 Z" />
</g>
<g id="part-206">
<path d="M 1815.902 68.000 L 1834.902 68.000 L 1834.902 91.000 L 1815.902 91.000 L 1815.902 68.000 Z" />
</g>
<g id="part-207">
<path d="M 1936.715 99.000 L 1948.715 99.000 L 1948.715 109.000 L 1936.715 109.000 L 1936.715 99.000 Z" />
</g>
<g id="part-208">
<path d="M 347.734 99.000 L 376.734 99.000 L 376.734 118.000 L 347.734 118.000 L 347.734 99.000 Z" />
</g>
<g id="part-209">
<path d="M 290.000 68.000 L 312.000 68.000 L 312.000 96.000 L 290.000 96.000 L 290.000 68.000 Z" />
</g>
<g id="part-210">
<path d="M 118.000 68.000 L 147.000 68.000 L 147.000 97.000 L 118.000 97.000 L 118.000 68.000 Z" />
<path d="M 127.280 77.280 L 127.280 87.720 L 137.720 87.720 L 137.720 77.280 L 127.280 77.280 Z" fill="#f7f7f2" fill-opacity="1" stroke="#163b5c" />
</g>
<g id="part-211">
<path d="M 200.000 10.000 L 244.000 10.000 L 244.000 62.000 L 200.000 62.000 L 200.000 10.000 Z" />
<path d="M 214.960 19.360 L 214.960 30.800 L 234.320 30.800 L 234.320 19.360 L 214.960 19.360 Z" fill="#f7f7f2" fill-opacity="1" stroke="#163b5c" />
<path d="M 214.960 41.200 L 214.960 52.640 L 234.320 52.640 L 234.320 41.200 L 214.960 41.200 Z" fill="#f7f7f2" fill-opacity="1" stroke="#163b5c" />
</g>
<g id="part-212">
<path d="M 606.000 68.000 L 646.000 68.000 L 646.000 74.160 L 619.600 74.160 L 619.600 89.840 L 646.000 89.840 L 646.000 96.000 L 606.000 96.000 L 606.000 68.000 Z" />
</g>
<g id="part-213">
<path d="M 120.000 99.000 L 138.000 103.000 L 132.960 119.000 L 123.000 115.400 L 120.000 99.000 Z" />
</g>
<g id="part-214">
<path d="M 731.869 81.923 L 731.350 87.618 L 729.884 92.327 L 727.723 95.238 L 725.242 95.847 L 722.869 94.048 L 721.015 90.152 L 720.000 84.834 L 720.000 79.013 L 721.015 73.694 L 722.869 69.799 L 725.242 68.000 L 727.723 68.609 L 729.884 71.519 L 731.350 76.229 L 731.869 81.923 Z" />
</g>
<g id="part-215">
<path d="M 806.734 99.000 L 834.734 99.000 L 834.734 115.000 L 806.734 115.000 L 806.734 99.000 Z" />
</g>
<g id="part-216">
<path d="M 1305.257 68.000 L 1326.257 68.000 L 1326.257 93.000 L 1305.257 93.000 L 1305.257 68.000 Z" />
</g>
<g id="part-217">
<path d="M 1601.687 99.000 L 1615.687 99.000 L 1615.687 111.000 L 1601.687 111.000 L 1601.687 99.000 Z" />
</g>
<g id="part-218">
<path d="M 2144.902 68.000 L 2175.902 68.000 L 2175.902 89.000 L 2144.902 89.000 L 2144.902 68.000 Z" />
</g>
<g id="part-219">
<path d="M 42.000 121.000 L 66.000 121.000 L 66.000 129.000 L 42.000 129.000 L 42.000 121.000 Z" />
</g>
<g id="part-220">
<path d="M 1878.000 10.000 L 1909.000 10.000 L 1909.000 41.000 L 1878.000 41.000 L 1878.000 10.000 Z" />
<path d="M 1887.920 19.920 L 1887.920 31.080 L 1899.080 31.080 L 1899.080 19.920 L 1887.920 19.920 Z" fill="#f7f7f2" fill-opacity="1" stroke="#163b5c" />
</g>
<g id="part-221">
<path d="M 122.000 10.000 L 146.000 10.000 L 146.000 64.000 L 122.000 64.000 L 122.000 10.000 Z" />
<path d="M 130.160 19.720 L 130.160 31.600 L 140.720 31.600 L 140.720 19.720 L 130.160 19.720 Z" fill="#f7f7f2" fill-opacity="1" stroke="#163b5c" />
<path d="M 130.160 42.400 L 130.160 54.280 L 140.720 54.280 L 140.720 42.400 L 130.160 42.400 Z" fill="#f7f7f2" fill-opacity="1" stroke="#163b5c" />
</g>
<g id="part-222">
<path d="M 514.000 68.000 L 556.000 68.000 L 556.000 74.160 L 528.280 74.160 L 528.280 89.840 L 556.000 89.840 L 556.000 96.000 L 514.000 96.000 L 514.000 68.000 Z" />
</g>
<g id="part-223">
<path d="M 2087.902 68.000 L 2107.902 72.000 L 2102.302 90.000 L 2090.902 86.040 L 2087.902 68.000 Z" />
</g>
<g id="part-224">
<path d="M 249.352 124.804 L 248.206 127.155 L 245.206 128.608 L 241.498 128.608 L 238.498 127.155 L 237.352 124.804 L 238.498 122.453 L 241.498 121.000 L 245.206 121.000 L 248.206 122.453 L 249.352 124.804 Z" />
</g>
<g id="part-225">
<path d="M 600.734 99.000 L 630.734 99.000 L 630.734 117.000 L 600.734 117.000 L 600.734 99.000 Z" />
</g>
<g id="part-226">
<path d="M 870.257 68.000 L 893.257 68.000 L 893.257 95.000 L 870.257 95.000 L 870.257 68.000 Z" />
</g>
<g id="part-227">
<path d="M 1095.687 99.000 L 1111.687 99.000 L 1111.687 113.000 L 1095.687 113.000 L 1095.687 99.000 Z" />
</g>
<g id="part-228">
<path d="M 1864.902 68.000 L 1897.902 68.000 L 1897.902 91.000 L 1864.902 91.000 L 1864.902 68.000 Z" />
</g>
<g id="part-229">
<path d="M 1908.715 99.000 L 1934.715 99.000 L 1934.715 109.000 L 1908.715 109.000 L 1908.715 99.000 Z" />
</g>
<g id="part-230">
<path d="M 1739.000 10.000 L 1772.000 10.000 L 1772.000 43.000 L 1739.000 43.000 L 1739.000 10.000 Z" />
<path d="M 1749.560 20.560 L 1749.560 32.440 L 1761.440 32.440 L 1761.440 20.560 L 1749.560 20.560 Z" fill="#f7f7f2" fill-opacity="1" stroke="#163b5c" />
</g>
<g id="part-231">
<path d="M 38.000 10.000 L 62.000 10.000 L 62.000 66.000 L 38.000 66.000 L 38.000 10.000 Z" />
<path d="M 46.160 20.080 L 46.160 32.400 L 56.720 32.400 L 56.720 20.080 L 46.160 20.080 Z" fill="#f7f7f2" fill-opacity="1" stroke="#163b5c" />
<path d="M 46.160 43.600 L 46.160 55.920 L 56.720 55.920 L 56.720 43.600 L 46.160 43.600 Z" fill="#f7f7f2" fill-opacity="1" stroke="#163b5c" />
</g>
<g id="part-232">
<path d="M 168.000 68.000 L 212.000 68.000 L 212.000 74.380 L 182.960 74.380 L 182.960 90.620 L 212.000 90.620 L 212.000 97.000 L 168.000 97.000 L 168.000 68.000 Z" />
</g>
<g id="part-233">
<path d="M 1508.257 68.000 L 1530.257 72.000 L 1524.097 92.000 L 1511.257 87.680 L 1508.257 68.000 Z" />
</g>
<g id="part-234">
<path d="M 1731.039 104.939 L 1729.769 108.183 L 1726.363 110.397 L 1721.901 110.878 L 1717.800 109.473 L 1715.363 106.629 L 1715.363 103.249 L 1717.800 100.404 L 1721.901 99.000 L 1726.363 99.481 L 1729.769 101.695 L 1731.039 104.939 Z" />
</g>
<g id="part-235">
<path d="M 58.000 99.000 L 90.000 99.000 L 90.000 119.000 L 58.000 119.000 L 58.000 99.000 Z" />
</g>
<g id="part-236">
<path d="M 91.000 68.000 L 116.000 68.000 L 116.000 97.000 L 91.000 97.000 L 91.000 68.000 Z" />
</g>
<g id="part-237">
<path d="M 882.734 99.000 L 900.734 99.000 L 900.734 115.000 L 882.734 115.000 L 882.734 99.000 Z" />
</g>
<g id="part-238">
<path d="M 1328.257 68.000 L 1339.257 68.000 L 1339.257 93.000 L 1328.257 93.000 L 1328.257 68.000 Z" />
</g>
<g id="part-239">
<path d="M 1549.687 99.000 L 1577.687 99.000 L 1577.687 111.000 L 1549.687 111.000 L 1549.687 99.000 Z" />
</g>
<g id="part-240">
<path d="M 1672.000 10.000 L 1707.000 10.000 L 1707.000 45.000 L 1672.000 45.000 L 1672.000 10.000 Z" />
<path d="M 1683.200 21.200 L 1683.200 33.800 L 1695.800 33.800 L 1695.800 21.200 L 1683.200 21.200 Z" fill="#f7f7f2" fill-opacity="1" stroke="#163b5c" />
</g>
<g id="part-241">
<path d="M 756.000 10.000 L 782.000 10.000 L 782.000 52.000 L 756.000 52.000 L 756.000 10.000 Z" />
<path d="M 764.840 17.560 L 764.840 26.800 L 776.280 26.800 L 776.280 17.560 L 764.840 17.560 Z" fill="#f7f7f2" fill-opacity="1" stroke="#163b5c" />
<path d="M 764.840 35.200 L 764.840 44.440 L 776.280 44.440 L 776.280 35.200 L 764.840 35.200 Z" fill="#f7f7f2" fill-opacity="1" stroke="#163b5c" />
</g>
<g id="part-242">
<path d="M 1946.000 10.000 L 1992.000 10.000 L 1992.000 16.820 L 1961.640 16.820 L 1961.640 34.180 L 1992.000 34.180 L 1992.000 41.000 L 1946.000 41.000 L 1946.000 10.000 Z" />
</g>
<g id="part-243">
<path d="M 1109.257 68.000 L 1133.257 72.000 L 1126.537 94.000 L 1112.257 89.320 L 1109.257 68.000 Z" />
</g>
<g id="part-244">
<path d="M 1748.715 104.939 L 1747.445 108.183 L 1744.039 110.397 L 1739.577 110.878 L 1735.476 109.473 L 1733.039 106.629 L 1733.039 103.249 L 1735.476 100.404 L 1739.577 99.000 L 1744.039 99.481 L 1747.445 101.695 L 1748.715 104.939 Z" />
</g>
<g id="part-245">
<path d="M 2075.902 68.000 L 2085.902 68.000 L 2085.902 90.000 L 2075.902 90.000 L 2075.902 68.000 Z" />
</g>
<g id="part-246">
<path d="M 2138.715 99.000 L 2165.715 99.000 L 2165.715 108.000 L 2138.715 108.000 L 2138.715 99.000 Z" />
</g>
<g id="part-247">
<path d="M 506.734 99.000 L 526.734 99.000 L 526.734 117.000 L 506.734 117.000 L 506.734 99.000 Z" />
</g>
<g id="part-248">
<path d="M 926.257 68.000 L 939.257 68.000 L 939.257 95.000 L 926.257 95.000 L 926.257 68.000 Z" />
</g>
<g id="part-249">
<path d="M 1155.687 99.000 L 1185.687 99.000 L 1185.687 113.000 L 1155.687 113.000 L 1155.687 99.000 Z" />
</g>
</g>
<text x="10" y="20" font-size="14" fill="#222">mixed_250_parts / Fast</text>
</svg>
