<svg xmlns="http://www.w3.org/2000/svg" width="2250.000" height="1450.000" viewBox="0 0 2250.000 1450.000">
<rect x="0" y="0" width="2250.000" height="1450.000" fill="#f7f7f2" />
<g fill="none" stroke="#2a2a2a" stroke-width="1.2">
<path d="M 0.000 0.000 L 2250.000 0.000 L 2250.000 1450.000 L 0.000 1450.000 L 0.000 0.000 Z" stroke="#1f5f8b" />
</g>
<g fill="#86b8e7" fill-opacity="0.58" stroke="#163b5c" stroke-width="0.8">
<g id="part-0">
<path d="M 201.000 64.000 L 236.000 64.000 L 236.000 95.000 L 201.000 95.000 L 201.000 64.000 Z" />
<path d="M 212.200 73.920 L 212.200 85.080 L 224.800 85.080 L 224.800 73.920 L 212.200 73.920 Z" fill="#f7f7f2" fill-opacity="1" stroke="#163b5c" />
</g>
<g id="part-1">
<path d="M 94.000 10.000 L 120.000 10.000 L 120.000 64.000 L 94.000 64.000 L 94.000 10.000 Z" />
<path d="M 102.840 19.720 L 102.840 31.600 L 114.280 31.600 L 114.280 19.720 L 102.840 19.720 Z" fill="#f7f7f2" fill-opacity="1" stroke="#163b5c" />
<path d="M 102.840 42.400 L 102.840 54.280 L 114.280 54.280 L 114.280 42.400 L 102.840 42.400 Z" fill="#f7f7f2" fill-opacity="1" stroke="#163b5c" />
</g>
<g id="part-2">
<path d="M 669.000 55.000 L 715.000 55.000 L 715.000 61.160 L 684.640 61.160 L 684.640 76.840 L 715.000 76.840 L 715.000 83.000 L 669.000 83.000 L 669.000 55.000 Z" />
</g>
<g id="part-3">
<path d="M 642.145 99.000 L 666.145 103.000 L 659.425 121.000 L 645.145 117.040 L 642.145 99.000 Z" />
</g>
<g id="part-4">
<path d="M 1555.334 125.959 L 1554.064 128.122 L 1550.657 129.598 L 1546.195 129.919 L 1542.095 128.982 L 1539.658 127.086 L 1539.658 124.832 L 1542.095 122.936 L 1546.195 122.000 L 1550.657 122.321 L 1554.064 123.797 L 1555.334 125.959 Z" />
</g>
<g id="part-5">
<path d="M 1508.379 75.750 L 1518.379 75.750 L 1518.379 93.750 L 1508.379 93.750 L 1508.379 75.750 Z" />
</g>
<g id="part-6">
<path d="M 1281.257 51.000 L 1308.257 51.000 L 1308.257 78.000 L 1281.257 78.000 L 1281.257 51.000 Z" />
</g>
<g id="part-7">
<path d="M 336.954 129.000 L 356.954 129.000 L 356.954 143.000 L 336.954 143.000 L 336.954 129.000 Z" />
</g>
<g id="part-8">
<path d="M 556.645 99.000 L 569.645 99.000 L 569.645 122.000 L 556.645 122.000 L 556.645 99.000 Z" />
</g>
<g id="part-9">
<path d="M 1017.982 125.000 L 1047.982 125.000 L 1047.982 135.000 L 1017.982 135.000 L 1017.982 125.000 Z" />
</g>
<g id="part-10">
<path d="M 1709.000 10.000 L 1746.000 10.000 L 1746.000 43.000 L 1709.000 43.000 L 1709.000 10.000 Z" />
<path d="M 1720.840 20.560 L 1720.840 32.440 L 1734.160 32.440 L 1734.160 20.560 L 1720.840 20.560 Z" fill="#f7f7f2" fill-opacity="1" stroke="#163b5c" />
</g>
<g id="part-11">
<path d="M 10.000 10.000 L 38.000 10.000 L 38.000 66.000 L 10.000 66.000 L 10.000 10.000 Z" />
<path d="M 19.520 20.080 L 19.520 32.400 L 31.840 32.400 L 31.840 20.080 L 19.520 20.080 Z" fill="#f7f7f2" fill-opacity="1" stroke="#163b5c" />
<path d="M 19.520 43.600 L 19.520 55.920 L 31.840 55.920 L 31.840 43.600 L 19.520 43.600 Z" fill="#f7f7f2" fill-opacity="1" stroke="#163b5c" />
</g>
<g id="part-12">
<path d="M 334.000 62.000 L 382.000 62.000 L 382.000 68.380 L 350.320 68.380 L 350.320 84.620 L 382.000 84.620 L 382.000 91.000 L 334.000 91.000 L 334.000 62.000 Z" />
</g>
<g id="part-13">
<path d="M 116.750 101.000 L 142.750 105.000 L 135.470 125.000 L 119.750 120.680 L 116.750 101.000 Z" />
</g>
<g id="part-14">
<path d="M 751.954 133.000 L 750.614 136.000 L 746.954 138.196 L 741.954 139.000 L 736.954 138.196 L 733.294 136.000 L 731.954 133.000 L 733.294 130.000 L 736.954 127.804 L 741.954 127.000 L 746.954 127.804 L 750.614 130.000 L 751.954 133.000 Z" />
</g>
<g id="part-15">
<path d="M 1066.645 98.000 L 1078.645 98.000 L 1078.645 118.000 L 1066.645 118.000 L 1066.645 98.000 Z" />
</g>
<g id="part-16">
<path d="M 511.000 56.000 L 540.000 56.000 L 540.000 85.000 L 511.000 85.000 L 511.000 56.000 Z" />
</g>
<g id="part-17">
<path d="M 1679.379 95.000 L 1701.379 95.000 L 1701.379 111.000 L 1679.379 111.000 L 1679.379 95.000 Z" />
</g>
<g id="part-18">
<path d="M 10.000 103.000 L 25.000 103.000 L 25.000 128.000 L 10.000 128.000 L 10.000 103.000 Z" />
</g>
<g id="part-19">
<path d="M 538.954 128.000 L 570.954 128.000 L 570.954 140.000 L 538.954 140.000 L 538.954 128.000 Z" />
</g>
<g id="part-20">
<path d="M 1530.000 10.000 L 1569.000 10.000 L 1569.000 45.000 L 1530.000 45.000 L 1530.000 10.000 Z" />
<path d="M 1542.480 21.200 L 1542.480 33.800 L 1556.520 33.800 L 1556.520 21.200 L 1542.480 21.200 Z" fill="#f7f7f2" fill-opacity="1" stroke="#163b5c" />
</g>
<g id="part-21">
<path d="M 966.000 10.000 L 996.000 10.000 L 996.000 52.000 L 966.000 52.000 L 966.000 10.000 Z" />
<path d="M 976.200 17.560 L 976.200 26.800 L 989.400 26.800 L 989.400 17.560 L 976.200 17.560 Z" fill="#f7f7f2" fill-opacity="1" stroke="#163b5c" />
<path d="M 976.200 35.200 L 976.200 44.440 L 989.400 44.440 L 989.400 35.200 L 976.200 35.200 Z" fill="#f7f7f2" fill-opacity="1" stroke="#163b5c" />
</g>
<g id="part-22">
<path d="M 306.000 62.000 L 332.000 62.000 L 332.000 68.820 L 314.840 68.820 L 314.840 86.180 L 332.000 86.180 L 332.000 93.000 L 306.000 93.000 L 306.000 62.000 Z" />
</g>
<g id="part-23">
<path d="M 1505.757 49.000 L 1533.757 53.000 L 1525.917 75.000 L 1508.757 70.320 L 1505.757 49.000 Z" />
</g>
<g id="part-24">
<path d="M 708.954 131.250 L 707.614 134.250 L 703.954 136.446 L 698.954 137.250 L 693.954 136.446 L 690.294 134.250 L 688.954 131.250 L 690.294 128.250 L 693.954 126.054 L 698.954 125.250 L 703.954 126.054 L 707.614 128.250 L 708.954 131.250 Z" />
</g>
<g id="part-25">
<path d="M 752.645 98.000 L 766.645 98.000 L 766.645 120.000 L 752.645 120.000 L 752.645 98.000 Z" />
</g>
<g id="part-26">
<path d="M 1199.732 124.000 L 1230.732 124.000 L 1230.732 133.000 L 1199.732 133.000 L 1199.732 124.000 Z" />
</g>
<g id="part-27">
<path d="M 1373.379 97.000 L 1397.379 97.000 L 1397.379 115.000 L 1373.379 115.000 L 1373.379 97.000 Z" />
</g>
<g id="part-28">
<path d="M 1391.257 68.000 L 1408.257 68.000 L 1408.257 95.000 L 1391.257 95.000 L 1391.257 68.000 Z" />
</g>
<g id="part-29">
<path d="M 426.954 130.000 L 436.954 130.000 L 436.954 144.000 L 426.954 144.000 L 426.954 130.000 Z" />
</g>
<g id="part-30">
<path d="M 1380.000 10.000 L 1421.000 10.000 L 1421.000 47.000 L 1380.000 47.000 L 1380.000 10.000 Z" />
<path d="M 1393.120 21.840 L 1393.120 35.160 L 1407.880 35.160 L 1407.880 21.840 L 1393.120 21.840 Z" fill="#f7f7f2" fill-opacity="1" stroke="#163b5c" />
</g>
<g id="part-31">
<path d="M 900.000 10.000 L 932.000 10.000 L 932.000 52.000 L 900.000 52.000 L 900.000 10.000 Z" />
<path d="M 910.880 17.560 L 910.880 26.800 L 924.960 26.800 L 924.960 17.560 L 910.880 17.560 Z" fill="#f7f7f2" fill-opacity="1" stroke="#163b5c" />
<path d="M 910.880 35.200 L 910.880 44.440 L 924.960 44.440 L 924.960 35.200 L 910.880 35.200 Z" fill="#f7f7f2" fill-opacity="1" stroke="#163b5c" />
</g>
<g id="part-32">
<path d="M 45.000 68.000 L 73.000 68.000 L 73.000 75.260 L 54.520 75.260 L 54.520 93.740 L 73.000 93.740 L 73.000 101.000 L 45.000 101.000 L 45.000 68.000 Z" />
</g>
<g id="part-33">
<path d="M 1009.000 68.000 L 1039.000 72.000 L 1030.600 96.000 L 1012.000 90.960 L 1009.000 68.000 Z" />
</g>
<g id="part-34">
<path d="M 126.954 137.942 L 125.579 141.659 L 121.771 144.526 L 116.400 145.883 L 110.699 145.422 L 105.972 143.247 L 103.303 139.856 L 103.303 136.027 L 105.972 132.637 L 110.699 130.462 L 116.400 130.000 L 121.771 131.358 L 125.579 134.224 L 126.954 137.942 Z" />
</g>
<g id="part-35">
<path d="M 237.000 103.000 L 253.000 103.000 L 253.000 127.000 L 237.000 127.000 L 237.000 103.000 Z" />
</g>
<g id="part-36">
<path d="M 867.982 130.000 L 900.982 130.000 L 900.982 141.000 L 867.982 141.000 L 867.982 130.000 Z" />
</g>
<g id="part-37">
<path d="M 936.645 103.000 L 962.645 103.000 L 962.645 123.000 L 936.645 123.000 L 936.645 103.000 Z" />
</g>
<g id="part-38">
<path d="M 629.000 68.000 L 648.000 68.000 L 648.000 97.000 L 629.000 97.000 L 629.000 68.000 Z" />
</g>
<g id="part-39">
<path d="M 26.000 130.000 L 38.000 130.000 L 38.000 146.000 L 26.000 146.000 L 26.000 130.000 Z" />
</g>
<g id="part-40">
<path d="M 1222.000 10.000 L 1265.000 10.000 L 1265.000 49.000 L 1222.000 49.000 L 1222.000 10.000 Z" />
<path d="M 1235.760 22.480 L 1235.760 36.520 L 1251.240 36.520 L 1251.240 22.480 L 1235.760 22.480 Z" fill="#f7f7f2" fill-opacity="1" stroke="#163b5c" />
</g>
<g id="part-41">
<path d="M 830.000 10.000 L 864.000 10.000 L 864.000 52.000 L 830.000 52.000 L 830.000 10.000 Z" />
<path d="M 841.560 17.560 L 841.560 26.800 L 856.520 26.800 L 856.520 17.560 L 841.560 17.560 Z" fill="#f7f7f2" fill-opacity="1" stroke="#163b5c" />
<path d="M 841.560 35.200 L 841.560 44.440 L 856.520 44.440 L 856.520 35.200 L 841.560 35.200 Z" fill="#f7f7f2" fill-opacity="1" stroke="#163b5c" />
</g>
<g id="part-42">
<path d="M 1647.000 10.000 L 1677.000 10.000 L 1677.000 17.700 L 1657.200 17.700 L 1657.200 37.300 L 1677.000 37.300 L 1677.000 45.000 L 1647.000 45.000 L 1647.000 10.000 Z" />
</g>
<g id="part-43">
<path d="M 1336.982 130.000 L 1368.982 134.000 L 1360.022 138.000 L 1339.982 136.560 L 1336.982 130.000 Z" />
</g>
<g id="part-44">
<path d="M 75.651 137.942 L 74.277 141.659 L 70.468 144.526 L 65.098 145.883 L 59.396 145.422 L 54.669 143.247 L 52.000 139.856 L 52.000 136.027 L 54.669 132.637 L 59.396 130.462 L 65.098 130.000 L 70.468 131.358 L 74.277 134.224 L 75.651 137.942 Z" />
</g>
<g id="part-45">
<path d="M 1638.257 68.000 L 1656.257 68.000 L 1656.257 94.000 L 1638.257 94.000 L 1638.257 68.000 Z" />
</g>
<g id="part-46">
<path d="M 525.954 130.000 L 536.954 130.000 L 536.954 143.000 L 525.954 143.000 L 525.954 130.000 Z" />
</g>
<g id="part-47">
<path d="M 584.645 103.000 L 612.645 103.000 L 612.645 125.000 L 584.645 125.000 L 584.645 103.000 Z" />
</g>
<g id="part-48">
<path d="M 1292.982 130.000 L 1313.982 130.000 L 1313.982 139.000 L 1292.982 139.000 L 1292.982 130.000 Z" />
</g>
<g id="part-49">
<path d="M 1483.379 103.000 L 1497.379 103.000 L 1497.379 121.000 L 1483.379 121.000 L 1483.379 103.000 Z" />
</g>
<g id="part-50">
<path d="M 1056.000 10.000 L 1101.000 10.000 L 1101.000 51.000 L 1056.000 51.000 L 1056.000 10.000 Z" />
<path d="M 1070.400 23.120 L 1070.400 37.880 L 1086.600 37.880 L 1086.600 23.120 L 1070.400 23.120 Z" fill="#f7f7f2" fill-opacity="1" stroke="#163b5c" />
</g>
<g id="part-51">
<path d="M 756.000 10.000 L 792.000 10.000 L 792.000 52.000 L 756.000 52.000 L 756.000 10.000 Z" />
<path d="M 768.240 17.560 L 768.240 26.800 L 784.080 26.800 L 784.080 17.560 L 768.240 17.560 Z" fill="#f7f7f2" fill-opacity="1" stroke="#163b5c" />
<path d="M 768.240 35.200 L 768.240 44.440 L 784.080 44.440 L 784.080 35.200 L 768.240 35.200 Z" fill="#f7f7f2" fill-opacity="1" stroke="#163b5c" />
</g>
<g id="part-52">
<path d="M 1464.000 10.000 L 1496.000 10.000 L 1496.000 18.140 L 1474.880 18.140 L 1474.880 38.860 L 1496.000 38.860 L 1496.000 47.000 L 1464.000 47.000 L 1464.000 10.000 Z" />
</g>
<g id="part-53">
<path d="M 1187.982 130.000 L 1197.982 134.000 L 1195.182 140.000 L 1190.982 138.200 L 1187.982 130.000 Z" />
</g>
<g id="part-54">
<path d="M 1150.033 112.945 L 1148.823 117.013 L 1145.401 120.377 L 1140.360 122.456 L 1134.570 122.890 L 1129.033 121.605 L 1124.707 118.823 L 1122.339 115.024 L 1122.339 110.866 L 1124.707 107.067 L 1129.033 104.285 L 1134.570 103.000 L 1140.360 103.435 L 1145.401 105.514 L 1148.823 108.878 L 1150.033 112.945 Z" />
</g>
<g id="part-55">
<path d="M 1121.000 68.000 L 1141.000 68.000 L 1141.000 96.000 L 1121.000 96.000 L 1121.000 68.000 Z" />
</g>
<g id="part-56">
<path d="M 184.954 130.000 L 197.954 130.000 L 197.954 145.000 L 184.954 145.000 L 184.954 130.000 Z" />
</g>
<g id="part-57">
<path d="M 55.000 103.000 L 85.000 103.000 L 85.000 127.000 L 55.000 127.000 L 55.000 103.000 Z" />
</g>
<g id="part-58">
<path d="M 935.982 130.000 L 958.982 130.000 L 958.982 141.000 L 935.982 141.000 L 935.982 130.000 Z" />
</g>
<g id="part-59">
<path d="M 1032.645 103.000 L 1048.645 103.000 L 1048.645 123.000 L 1032.645 123.000 L 1032.645 103.000 Z" />
</g>
<g id="part-60">
<path d="M 582.000 10.000 L 629.000 10.000 L 629.000 53.000 L 582.000 53.000 L 582.000 10.000 Z" />
<path d="M 597.040 23.760 L 597.040 39.240 L 613.960 39.240 L 613.960 23.760 L 597.040 23.760 Z" fill="#f7f7f2" fill-opacity="1" stroke="#163b5c" />
</g>
<g id="part-61">
<path d="M 504.000 10.000 L 542.000 10.000 L 542.000 54.000 L 504.000 54.000 L 504.000 10.000 Z" />
<path d="M 516.920 17.920 L 516.920 27.600 L 533.640 27.600 L 533.640 17.920 L 516.920 17.920 Z" fill="#f7f7f2" fill-opacity="1" stroke="#163b5c" />
<path d="M 516.920 36.400 L 516.920 46.080 L 533.640 46.080 L 533.640 36.400 L 516.920 36.400 Z" fill="#f7f7f2" fill-opacity="1" stroke="#163b5c" />
</g>
<g id="part-62">
<path d="M 1310.000 10.000 L 1344.000 10.000 L 1344.000 18.580 L 1321.560 18.580 L 1321.560 40.420 L 1344.000 40.420 L 1344.000 49.000 L 1310.000 49.000 L 1310.000 10.000 Z" />
</g>
<g id="part-63">
<path d="M 788.954 130.000 L 800.954 134.000 L 797.594 142.000 L 791.954 139.840 L 788.954 130.000 Z" />
</g>
<g id="part-64">
<path d="M 1120.339 112.945 L 1119.129 117.013 L 1115.707 120.377 L 1110.665 122.456 L 1104.876 122.890 L 1099.339 121.605 L 1095.013 118.823 L 1092.645 115.024 L 1092.645 110.866 L 1095.013 107.067 L 1099.339 104.285 L 1104.876 103.000 L 1110.665 103.435 L 1115.707 105.514 L 1119.129 108.878 L 1120.339 112.945 Z" />
</g>
<g id="part-65">
<path d="M 1456.982 130.000 L 1478.982 130.000 L 1478.982 138.000 L 1456.982 138.000 L 1456.982 130.000 Z" />
</g>
<g id="part-66">
<path d="M 1585.379 103.000 L 1600.379 103.000 L 1600.379 120.000 L 1585.379 120.000 L 1585.379 103.000 Z" />
</g>
<g id="part-67">
<path d="M 1442.257 68.000 L 1474.257 68.000 L 1474.257 94.000 L 1442.257 94.000 L 1442.257 68.000 Z" />
</g>
<g id="part-68">
<path d="M 473.954 130.000 L 498.954 130.000 L 498.954 143.000 L 473.954 143.000 L 473.954 130.000 Z" />
</g>
<g id="part-69">
<path d="M 714.645 103.000 L 732.645 103.000 L 732.645 125.000 L 714.645 125.000 L 714.645 103.000 Z" />
</g>
<g id="part-70">
<path d="M 485.645 103.000 L 510.645 103.000 L 510.645 126.000 L 485.645 126.000 L 485.645 103.000 Z" />
<path d="M 493.645 110.360 L 493.645 118.640 L 502.645 118.640 L 502.645 110.360 L 493.645 110.360 Z" fill="#f7f7f2" fill-opacity="1" stroke="#163b5c" />
</g>
<g id="part-71">
<path d="M 422.000 10.000 L 462.000 10.000 L 462.000 56.000 L 422.000 56.000 L 422.000 10.000 Z" />
<path d="M 435.600 18.280 L 435.600 28.400 L 453.200 28.400 L 453.200 18.280 L 435.600 18.280 Z" fill="#f7f7f2" fill-opacity="1" stroke="#163b5c" />
<path d="M 435.600 37.600 L 435.600 47.720 L 453.200 47.720 L 453.200 37.600 L 435.600 37.600 Z" fill="#f7f7f2" fill-opacity="1" stroke="#163b5c" />
</g>
<g id="part-72">
<path d="M 1148.000 10.000 L 1184.000 10.000 L 1184.000 19.020 L 1160.240 19.020 L 1160.240 41.980 L 1184.000 41.980 L 1184.000 51.000 L 1148.000 51.000 L 1148.000 10.000 Z" />
</g>
<g id="part-73">
<path d="M 396.954 130.000 L 410.954 134.000 L 407.034 144.000 L 399.954 141.480 L 396.954 130.000 Z" />
</g>
<g id="part-74">
<path d="M 302.650 114.934 L 301.267 119.815 L 297.356 123.852 L 291.595 126.347 L 284.978 126.869 L 278.650 125.327 L 273.706 121.988 L 271.000 117.429 L 271.000 112.439 L 273.706 107.881 L 278.650 104.542 L 284.978 103.000 L 291.595 103.522 L 297.356 106.017 L 301.267 110.053 L 302.650 114.934 Z" />
</g>
<g id="part-75">
<path d="M 1107.982 130.000 L 1131.982 130.000 L 1131.982 140.000 L 1107.982 140.000 L 1107.982 130.000 Z" />
</g>
<g id="part-76">
<path d="M 1271.379 103.000 L 1288.379 103.000 L 1288.379 122.000 L 1271.379 122.000 L 1271.379 103.000 Z" />
</g>
<g id="part-77">
<path d="M 1163.000 68.000 L 1173.000 68.000 L 1173.000 96.000 L 1163.000 96.000 L 1163.000 68.000 Z" />
</g>
<g id="part-78">
<path d="M 128.954 130.000 L 155.954 130.000 L 155.954 145.000 L 128.954 145.000 L 128.954 130.000 Z" />
</g>
<g id="part-79">
<path d="M 195.000 103.000 L 215.000 103.000 L 215.000 127.000 L 195.000 127.000 L 195.000 103.000 Z" />
</g>
<g id="part-80">
<path d="M 1676.257 68.000 L 1703.257 68.000 L 1703.257 93.000 L 1676.257 93.000 L 1676.257 68.000 Z" />
<path d="M 1684.897 76.000 L 1684.897 85.000 L 1694.617 85.000 L 1694.617 76.000 L 1684.897 76.000 Z" fill="#f7f7f2" fill-opacity="1" stroke="#163b5c" />
</g>
<g id="part-81">
<path d="M 336.000 10.000 L 378.000 10.000 L 378.000 58.000 L 336.000 58.000 L 336.000 10.000 Z" />
<path d="M 350.280 18.640 L 350.280 29.200 L 368.760 29.200 L 368.760 18.640 L 350.280 18.640 Z" fill="#f7f7f2" fill-opacity="1" stroke="#163b5c" />
<path d="M 350.280 38.800 L 350.280 49.360 L 368.760 49.360 L 368.760 38.800 L 350.280 38.800 Z" fill="#f7f7f2" fill-opacity="1" stroke="#163b5c" />
</g>
<g id="part-82">
<path d="M 678.000 10.000 L 716.000 10.000 L 716.000 19.460 L 690.920 19.460 L 690.920 43.540 L 716.000 43.540 L 716.000 53.000 L 678.000 53.000 L 678.000 10.000 Z" />
</g>
<g id="part-83">
<path d="M 1767.379 103.000 L 1783.379 107.000 L 1778.899 119.000 L 1770.379 116.120 L 1767.379 103.000 Z" />
</g>
<g id="part-84">
<path d="M 369.951 114.934 L 368.568 119.815 L 364.657 123.852 L 358.895 126.347 L 352.279 126.869 L 345.951 125.327 L 341.007 121.988 L 338.301 117.429 L 338.301 112.439 L 341.007 107.881 L 345.951 104.542 L 352.279 103.000 L 358.895 103.522 L 364.657 106.017 L 368.568 110.053 L 369.951 114.934 Z" />
</g>
<g id="part-85">
<path d="M 634.954 130.000 L 660.954 130.000 L 660.954 142.000 L 634.954 142.000 L 634.954 130.000 Z" />
</g>
<g id="part-86">
<path d="M 862.645 103.000 L 881.645 103.000 L 881.645 124.000 L 862.645 124.000 L 862.645 103.000 Z" />
</g>
<g id="part-87">
<path d="M 1502.982 130.000 L 1514.982 130.000 L 1514.982 138.000 L 1502.982 138.000 L 1502.982 130.000 Z" />
</g>
<g id="part-88">
<path d="M 1525.379 103.000 L 1554.379 103.000 L 1554.379 120.000 L 1525.379 120.000 L 1525.379 103.000 Z" />
</g>
<g id="part-89">
<path d="M 1592.257 68.000 L 1614.257 68.000 L 1614.257 94.000 L 1592.257 94.000 L 1592.257 68.000 Z" />
</g>
<g id="part-90">
<path d="M 1250.257 68.000 L 1279.257 68.000 L 1279.257 95.000 L 1250.257 95.000 L 1250.257 68.000 Z" />
<path d="M 1259.537 76.640 L 1259.537 86.360 L 1269.977 86.360 L 1269.977 76.640 L 1259.537 76.640 Z" fill="#f7f7f2" fill-opacity="1" stroke="#163b5c" />
</g>
<g id="part-91">
<path d="M 246.000 10.000 L 290.000 10.000 L 290.000 60.000 L 246.000 60.000 L 246.000 10.000 Z" />
<path d="M 260.960 19.000 L 260.960 30.000 L 280.320 30.000 L 280.320 19.000 L 260.960 19.000 Z" fill="#f7f7f2" fill-opacity="1" stroke="#163b5c" />
<path d="M 260.960 40.000 L 260.960 51.000 L 280.320 51.000 L 280.320 40.000 L 260.960 40.000 Z" fill="#f7f7f2" fill-opacity="1" stroke="#163b5c" />
</g>
<g id="part-92">
<path d="M 893.000 68.000 L 933.000 68.000 L 933.000 74.160 L 906.600 74.160 L 906.600 89.840 L 933.000 89.840 L 933.000 96.000 L 893.000 96.000 L 893.000 68.000 Z" />
</g>
<g id="part-93">
<path d="M 1445.379 103.000 L 1463.379 107.000 L 1458.339 121.000 L 1448.379 117.760 L 1445.379 103.000 Z" />
</g>
<g id="part-94">
<path d="M 1234.388 81.923 L 1233.869 87.618 L 1232.403 92.327 L 1230.242 95.238 L 1227.761 95.847 L 1225.388 94.048 L 1223.534 90.152 L 1222.519 84.834 L 1222.519 79.013 L 1223.534 73.694 L 1225.388 69.799 L 1227.761 68.000 L 1230.242 68.609 L 1232.403 71.519 L 1233.869 76.229 L 1234.388 81.923 Z" />
</g>
<g id="part-95">
<path d="M 278.954 130.000 L 306.954 130.000 L 306.954 144.000 L 278.954 144.000 L 278.954 130.000 Z" />
</g>
<g id="part-96">
<path d="M 512.645 103.000 L 533.645 103.000 L 533.645 126.000 L 512.645 126.000 L 512.645 103.000 Z" />
</g>
<g id="part-97">
<path d="M 1157.982 130.000 L 1171.982 130.000 L 1171.982 140.000 L 1157.982 140.000 L 1157.982 130.000 Z" />
</g>
<g id="part-98">
<path d="M 1207.379 103.000 L 1238.379 103.000 L 1238.379 122.000 L 1207.379 122.000 L 1207.379 103.000 Z" />
</g>
<g id="part-99">
<path d="M 1071.000 68.000 L 1095.000 68.000 L 1095.000 96.000 L 1071.000 96.000 L 1071.000 68.000 Z" />
</g>
<g id="part-100">
<path d="M 478.000 68.000 L 509.000 68.000 L 509.000 97.000 L 478.000 97.000 L 478.000 68.000 Z" />
<path d="M 487.920 77.280 L 487.920 87.720 L 499.080 87.720 L 499.080 77.280 L 487.920 77.280 Z" fill="#f7f7f2" fill-opacity="1" stroke="#163b5c" />
</g>
<g id="part-101">
<path d="M 220.000 10.000 L 244.000 10.000 L 244.000 62.000 L 220.000 62.000 L 220.000 10.000 Z" />
<path d="M 228.160 19.360 L 228.160 30.800 L 238.720 30.800 L 238.720 19.360 L 228.160 19.360 Z" fill="#f7f7f2" fill-opacity="1" stroke="#163b5c" />
<path d="M 228.160 41.200 L 228.160 52.640 L 238.720 52.640 L 238.720 41.200 L 228.160 41.200 Z" fill="#f7f7f2" fill-opacity="1" stroke="#163b5c" />
</g>
<g id="part-102">
<path d="M 807.000 68.000 L 849.000 68.000 L 849.000 74.160 L 821.280 74.160 L 821.280 89.840 L 849.000 89.840 L 849.000 96.000 L 807.000 96.000 L 807.000 68.000 Z" />
</g>
<g id="part-103">
<path d="M 990.645 103.000 L 1010.645 107.000 L 1005.045 123.000 L 993.645 119.400 L 990.645 103.000 Z" />
</g>
<g id="part-104">
<path d="M 1248.257 81.923 L 1247.738 87.618 L 1246.272 92.327 L 1244.111 95.238 L 1241.630 95.847 L 1239.257 94.048 L 1237.403 90.152 L 1236.388 84.834 L 1236.388 79.013 L 1237.403 73.694 L 1239.257 69.799 L 1241.630 68.000 L 1244.111 68.609 L 1246.272 71.519 L 1247.738 76.229 L 1248.257 81.923 Z" />
</g>
<g id="part-105">
<path d="M 1617.379 103.000 L 1647.379 103.000 L 1647.379 119.000 L 1617.379 119.000 L 1617.379 103.000 Z" />
</g>
<g id="part-106">
<path d="M 1732.257 68.000 L 1755.257 68.000 L 1755.257 93.000 L 1732.257 93.000 L 1732.257 68.000 Z" />
</g>
<g id="part-107">
<path d="M 754.954 130.000 L 770.954 130.000 L 770.954 142.000 L 754.954 142.000 L 754.954 130.000 Z" />
</g>
<g id="part-108">
<path d="M 794.645 103.000 L 827.645 103.000 L 827.645 124.000 L 794.645 124.000 L 794.645 103.000 Z" />
</g>
<g id="part-109">
<path d="M 1402.982 130.000 L 1428.982 130.000 L 1428.982 138.000 L 1402.982 138.000 L 1402.982 130.000 Z" />
</g>
<g id="part-110">
<path d="M 238.000 68.000 L 271.000 68.000 L 271.000 99.000 L 238.000 99.000 L 238.000 68.000 Z" />
<path d="M 248.560 77.920 L 248.560 89.080 L 260.440 89.080 L 260.440 77.920 L 248.560 77.920 Z" fill="#f7f7f2" fill-opacity="1" stroke="#163b5c" />
</g>
<g id="part-111">
<path d="M 148.000 10.000 L 172.000 10.000 L 172.000 64.000 L 148.000 64.000 L 148.000 10.000 Z" />
<path d="M 156.160 19.720 L 156.160 31.600 L 166.720 31.600 L 166.720 19.720 L 156.160 19.720 Z" fill="#f7f7f2" fill-opacity="1" stroke="#163b5c" />
<path d="M 156.160 42.400 L 156.160 54.280 L 166.720 54.280 L 166.720 42.400 L 156.160 42.400 Z" fill="#f7f7f2" fill-opacity="1" stroke="#163b5c" />
</g>
<g id="part-112">
<path d="M 717.000 68.000 L 761.000 68.000 L 761.000 74.160 L 731.960 74.160 L 731.960 89.840 L 761.000 89.840 L 761.000 96.000 L 717.000 96.000 L 717.000 68.000 Z" />
</g>
<g id="part-113">
<path d="M 668.645 103.000 L 690.645 107.000 L 684.485 125.000 L 671.645 121.040 L 668.645 103.000 Z" />
</g>
<g id="part-114">
<path d="M 1544.658 133.959 L 1543.388 136.122 L 1539.981 137.598 L 1535.519 137.919 L 1531.419 136.982 L 1528.982 135.086 L 1528.982 132.832 L 1531.419 130.936 L 1535.519 130.000 L 1539.981 130.321 L 1543.388 131.797 L 1544.658 133.959 Z" />
</g>
<g id="part-115">
<path d="M 1307.379 103.000 L 1339.379 103.000 L 1339.379 121.000 L 1307.379 121.000 L 1307.379 103.000 Z" />
</g>
<g id="part-116">
<path d="M 1339.257 68.000 L 1364.257 68.000 L 1364.257 95.000 L 1339.257 95.000 L 1339.257 68.000 Z" />
</g>
<g id="part-117">
<path d="M 358.954 130.000 L 376.954 130.000 L 376.954 144.000 L 358.954 144.000 L 358.954 130.000 Z" />
</g>
<g id="part-118">
<path d="M 571.645 103.000 L 582.645 103.000 L 582.645 126.000 L 571.645 126.000 L 571.645 103.000 Z" />
</g>
<g id="part-119">
<path d="M 1049.982 130.000 L 1077.982 130.000 L 1077.982 140.000 L 1049.982 140.000 L 1049.982 130.000 Z" />
</g>
<g id="part-120">
<path d="M 1748.000 10.000 L 1783.000 10.000 L 1783.000 43.000 L 1748.000 43.000 L 1748.000 10.000 Z" />
<path d="M 1759.200 20.560 L 1759.200 32.440 L 1771.800 32.440 L 1771.800 20.560 L 1759.200 20.560 Z" fill="#f7f7f2" fill-opacity="1" stroke="#163b5c" />
</g>
<g id="part-121">
<path d="M 40.000 10.000 L 66.000 10.000 L 66.000 66.000 L 40.000 66.000 L 40.000 10.000 Z" />
<path d="M 48.840 20.080 L 48.840 32.400 L 60.280 32.400 L 60.280 20.080 L 48.840 20.080 Z" fill="#f7f7f2" fill-opacity="1" stroke="#163b5c" />
<path d="M 48.840 43.600 L 48.840 55.920 L 60.280 55.920 L 60.280 43.600 L 48.840 43.600 Z" fill="#f7f7f2" fill-opacity="1" stroke="#163b5c" />
</g>
<g id="part-122">
<path d="M 384.000 68.000 L 430.000 68.000 L 430.000 74.380 L 399.640 74.380 L 399.640 90.620 L 430.000 90.620 L 430.000 97.000 L 384.000 97.000 L 384.000 68.000 Z" />
</g>
<g id="part-123">
<path d="M 145.000 103.000 L 169.000 107.000 L 162.280 127.000 L 148.000 122.680 L 145.000 103.000 Z" />
</g>
<g id="part-124">
<path d="M 865.982 135.939 L 864.712 139.183 L 861.305 141.397 L 856.843 141.878 L 852.743 140.473 L 850.306 137.629 L 850.306 134.249 L 852.743 131.404 L 856.843 130.000 L 861.305 130.481 L 864.712 132.695 L 865.982 135.939 Z" />
</g>
<g id="part-125">
<path d="M 1080.645 103.000 L 1090.645 103.000 L 1090.645 123.000 L 1080.645 123.000 L 1080.645 103.000 Z" />
</g>
<g id="part-126">
<path d="M 573.000 68.000 L 600.000 68.000 L 600.000 97.000 L 573.000 97.000 L 573.000 68.000 Z" />
</g>
<g id="part-127">
<path d="M 1703.379 103.000 L 1723.379 103.000 L 1723.379 119.000 L 1703.379 119.000 L 1703.379 103.000 Z" />
</g>
<g id="part-128">
<path d="M 27.000 103.000 L 40.000 103.000 L 40.000 128.000 L 27.000 128.000 L 27.000 103.000 Z" />
</g>
<g id="part-129">
<path d="M 572.954 130.000 L 602.954 130.000 L 602.954 142.000 L 572.954 142.000 L 572.954 130.000 Z" />
</g>
<g id="part-130">
<path d="M 1571.000 10.000 L 1608.000 10.000 L 1608.000 45.000 L 1571.000 45.000 L 1571.000 10.000 Z" />
<path d="M 1582.840 21.200 L 1582.840 33.800 L 1596.160 33.800 L 1596.160 21.200 L 1582.840 21.200 Z" fill="#f7f7f2" fill-opacity="1" stroke="#163b5c" />
</g>
<g id="part-131">
<path d="M 998.000 10.000 L 1026.000 10.000 L 1026.000 52.000 L 998.000 52.000 L 998.000 10.000 Z" />
<path d="M 1007.520 17.560 L 1007.520 26.800 L 1019.840 26.800 L 1019.840 17.560 L 1007.520 17.560 Z" fill="#f7f7f2" fill-opacity="1" stroke="#163b5c" />
<path d="M 1007.520 35.200 L 1007.520 44.440 L 1019.840 44.440 L 1019.840 35.200 L 1007.520 35.200 Z" fill="#f7f7f2" fill-opacity="1" stroke="#163b5c" />
</g>
<g id="part-132">
<path d="M 103.000 68.000 L 151.000 68.000 L 151.000 74.820 L 119.320 74.820 L 119.320 92.180 L 151.000 92.180 L 151.000 99.000 L 103.000 99.000 L 103.000 68.000 Z" />
</g>
<g id="part-133">
<path d="M 1538.257 68.000 L 1564.257 72.000 L 1556.977 94.000 L 1541.257 89.320 L 1538.257 68.000 Z" />
</g>
<g id="part-134">
<path d="M 730.954 136.000 L 729.614 139.000 L 725.954 141.196 L 720.954 142.000 L 715.954 141.196 L 712.294 139.000 L 710.954 136.000 L 712.294 133.000 L 715.954 130.804 L 720.954 130.000 L 725.954 130.804 L 729.614 133.000 L 730.954 136.000 Z" />
</g>
<g id="part-135">
<path d="M 768.645 103.000 L 780.645 103.000 L 780.645 125.000 L 768.645 125.000 L 768.645 103.000 Z" />
</g>
<g id="part-136">
<path d="M 1232.982 130.000 L 1261.982 130.000 L 1261.982 139.000 L 1232.982 139.000 L 1232.982 130.000 Z" />
</g>
<g id="part-137">
<path d="M 1399.379 103.000 L 1421.379 103.000 L 1421.379 121.000 L 1399.379 121.000 L 1399.379 103.000 Z" />
</g>
<g id="part-138">
<path d="M 1410.257 68.000 L 1425.257 68.000 L 1425.257 95.000 L 1410.257 95.000 L 1410.257 68.000 Z" />
</g>
<g id="part-139">
<path d="M 212.954 130.000 L 244.954 130.000 L 244.954 144.000 L 212.954 144.000 L 212.954 130.000 Z" />
</g>
<g id="part-140">
<path d="M 1423.000 10.000 L 1462.000 10.000 L 1462.000 47.000 L 1423.000 47.000 L 1423.000 10.000 Z" />
<path d="M 1435.480 21.840 L 1435.480 35.160 L 1449.520 35.160 L 1449.520 21.840 L 1435.480 21.840 Z" fill="#f7f7f2" fill-opacity="1" stroke="#163b5c" />
</g>
<g id="part-141">
<path d="M 934.000 10.000 L 964.000 10.000 L 964.000 52.000 L 934.000 52.000 L 934.000 10.000 Z" />
<path d="M 944.200 17.560 L 944.200 26.800 L 957.400 26.800 L 957.400 17.560 L 944.200 17.560 Z" fill="#f7f7f2" fill-opacity="1" stroke="#163b5c" />
<path d="M 944.200 35.200 L 944.200 44.440 L 957.400 44.440 L 957.400 35.200 L 944.200 35.200 Z" fill="#f7f7f2" fill-opacity="1" stroke="#163b5c" />
</g>
<g id="part-142">
<path d="M 75.000 68.000 L 101.000 68.000 L 101.000 75.260 L 83.840 75.260 L 83.840 93.740 L 101.000 93.740 L 101.000 101.000 L 75.000 101.000 L 75.000 68.000 Z" />
</g>
<g id="part-143">
<path d="M 1041.000 68.000 L 1069.000 72.000 L 1061.160 96.000 L 1044.000 90.960 L 1041.000 68.000 Z" />
</g>
<g id="part-144">
<path d="M 1745.379 111.000 L 1744.039 115.000 L 1740.379 117.928 L 1735.379 119.000 L 1730.379 117.928 L 1726.718 115.000 L 1725.379 111.000 L 1726.718 107.000 L 1730.379 104.072 L 1735.379 103.000 L 1740.379 104.072 L 1744.039 107.000 L 1745.379 111.000 Z" />
</g>
<g id="part-145">
<path d="M 255.000 103.000 L 269.000 103.000 L 269.000 127.000 L 255.000 127.000 L 255.000 103.000 Z" />
</g>
<g id="part-146">
<path d="M 902.982 130.000 L 933.982 130.000 L 933.982 141.000 L 902.982 141.000 L 902.982 130.000 Z" />
</g>
<g id="part-147">
<path d="M 964.645 103.000 L 988.645 103.000 L 988.645 123.000 L 964.645 123.000 L 964.645 103.000 Z" />
</g>
<g id="part-148">
<path d="M 650.000 68.000 L 667.000 68.000 L 667.000 97.000 L 650.000 97.000 L 650.000 68.000 Z" />
</g>
<g id="part-149">
<path d="M 40.000 130.000 L 50.000 130.000 L 50.000 146.000 L 40.000 146.000 L 40.000 130.000 Z" />
</g>
<g id="part-150">
<path d="M 1267.000 10.000 L 1308.000 10.000 L 1308.000 49.000 L 1267.000 49.000 L 1267.000 10.000 Z" />
<path d="M 1280.120 22.480 L 1280.120 36.520 L 1294.880 36.520 L 1294.880 22.480 L 1280.120 22.480 Z" fill="#f7f7f2" fill-opacity="1" stroke="#163b5c" />
</g>
<g id="part-151">
<path d="M 866.000 10.000 L 898.000 10.000 L 898.000 52.000 L 866.000 52.000 L 866.000 10.000 Z" />
<path d="M 876.880 17.560 L 876.880 26.800 L 890.960 26.800 L 890.960 17.560 L 876.880 17.560 Z" fill="#f7f7f2" fill-opacity="1" stroke="#163b5c" />
<path d="M 876.880 35.200 L 876.880 44.440 L 890.960 44.440 L 890.960 35.200 L 876.880 35.200 Z" fill="#f7f7f2" fill-opacity="1" stroke="#163b5c" />
</g>
<g id="part-152">
<path d="M 1679.000 10.000 L 1707.000 10.000 L 1707.000 17.700 L 1688.520 17.700 L 1688.520 37.300 L 1707.000 37.300 L 1707.000 45.000 L 1679.000 45.000 L 1679.000 10.000 Z" />
</g>
<g id="part-153">
<path d="M 1370.982 130.000 L 1400.982 134.000 L 1392.582 138.000 L 1373.982 136.560 L 1370.982 130.000 Z" />
</g>
<g id="part-154">
<path d="M 101.303 137.942 L 99.928 141.659 L 96.119 144.526 L 90.749 145.883 L 85.047 145.422 L 80.320 143.247 L 77.651 139.856 L 77.651 136.027 L 80.320 132.637 L 85.047 130.462 L 90.749 130.000 L 96.119 131.358 L 99.928 134.224 L 101.303 137.942 Z" />
</g>
<g id="part-155">
<path d="M 1658.257 68.000 L 1674.257 68.000 L 1674.257 94.000 L 1658.257 94.000 L 1658.257 68.000 Z" />
</g>
<g id="part-156">
<path d="M 438.954 130.000 L 471.954 130.000 L 471.954 143.000 L 438.954 143.000 L 438.954 130.000 Z" />
</g>
<g id="part-157">
<path d="M 614.645 103.000 L 640.645 103.000 L 640.645 125.000 L 614.645 125.000 L 614.645 103.000 Z" />
</g>
<g id="part-158">
<path d="M 1315.982 130.000 L 1334.982 130.000 L 1334.982 139.000 L 1315.982 139.000 L 1315.982 130.000 Z" />
</g>
<g id="part-159">
<path d="M 1499.379 103.000 L 1511.379 103.000 L 1511.379 121.000 L 1499.379 121.000 L 1499.379 103.000 Z" />
</g>
<g id="part-160">
<path d="M 1103.000 10.000 L 1146.000 10.000 L 1146.000 51.000 L 1103.000 51.000 L 1103.000 10.000 Z" />
<path d="M 1116.760 23.120 L 1116.760 37.880 L 1132.240 37.880 L 1132.240 23.120 L 1116.760 23.120 Z" fill="#f7f7f2" fill-opacity="1" stroke="#163b5c" />
</g>
<g id="part-161">
<path d="M 794.000 10.000 L 828.000 10.000 L 828.000 52.000 L 794.000 52.000 L 794.000 10.000 Z" />
<path d="M 805.560 17.560 L 805.560 26.800 L 820.520 26.800 L 820.520 17.560 L 805.560 17.560 Z" fill="#f7f7f2" fill-opacity="1" stroke="#163b5c" />
<path d="M 805.560 35.200 L 805.560 44.440 L 820.520 44.440 L 820.520 35.200 L 805.560 35.200 Z" fill="#f7f7f2" fill-opacity="1" stroke="#163b5c" />
</g>
<g id="part-162">
<path d="M 1498.000 10.000 L 1528.000 10.000 L 1528.000 18.140 L 1508.200 18.140 L 1508.200 38.860 L 1528.000 38.860 L 1528.000 47.000 L 1498.000 47.000 L 1498.000 10.000 Z" />
</g>
<g id="part-163">
<path d="M 983.982 130.000 L 1015.982 134.000 L 1007.022 140.000 L 986.982 138.200 L 983.982 130.000 Z" />
</g>
<g id="part-164">
<path d="M 1205.379 112.927 L 1204.004 117.574 L 1200.195 121.157 L 1194.825 122.854 L 1189.123 122.277 L 1184.397 119.558 L 1181.727 115.320 L 1181.727 110.534 L 1184.397 106.296 L 1189.123 103.577 L 1194.825 103.000 L 1200.195 104.697 L 1204.004 108.280 L 1205.379 112.927 Z" />
</g>
<g id="part-165">
<path d="M 1143.000 68.000 L 1161.000 68.000 L 1161.000 96.000 L 1143.000 96.000 L 1143.000 68.000 Z" />
</g>
<g id="part-166">
<path d="M 199.954 130.000 L 210.954 130.000 L 210.954 145.000 L 199.954 145.000 L 199.954 130.000 Z" />
</g>
<g id="part-167">
<path d="M 87.000 103.000 L 115.000 103.000 L 115.000 127.000 L 87.000 127.000 L 87.000 103.000 Z" />
</g>
<g id="part-168">
<path d="M 960.982 130.000 L 981.982 130.000 L 981.982 141.000 L 960.982 141.000 L 960.982 130.000 Z" />
</g>
<g id="part-169">
<path d="M 1050.645 103.000 L 1064.645 103.000 L 1064.645 123.000 L 1050.645 123.000 L 1050.645 103.000 Z" />
</g>
<g id="part-170">
<path d="M 631.000 10.000 L 676.000 10.000 L 676.000 53.000 L 631.000 53.000 L 631.000 10.000 Z" />
<path d="M 645.400 23.760 L 645.400 39.240 L 661.600 39.240 L 661.600 23.760 L 645.400 23.760 Z" fill="#f7f7f2" fill-opacity="1" stroke="#163b5c" />
</g>
<g id="part-171">
<path d="M 544.000 10.000 L 580.000 10.000 L 580.000 54.000 L 544.000 54.000 L 544.000 10.000 Z" />
<path d="M 556.240 17.920 L 556.240 27.600 L 572.080 27.600 L 572.080 17.920 L 556.240 17.920 Z" fill="#f7f7f2" fill-opacity="1" stroke="#163b5c" />
<path d="M 556.240 36.400 L 556.240 46.080 L 572.080 46.080 L 572.080 36.400 L 556.240 36.400 Z" fill="#f7f7f2" fill-opacity="1" stroke="#163b5c" />
</g>
<g id="part-172">
<path d="M 1346.000 10.000 L 1378.000 10.000 L 1378.000 18.580 L 1356.880 18.580 L 1356.880 40.420 L 1378.000 40.420 L 1378.000 49.000 L 1346.000 49.000 L 1346.000 10.000 Z" />
</g>
<g id="part-173">
<path d="M 802.954 130.000 L 812.954 134.000 L 810.154 142.000 L 805.954 139.840 L 802.954 130.000 Z" />
</g>
<g id="part-174">
<path d="M 1179.727 112.945 L 1178.517 117.013 L 1175.095 120.377 L 1170.054 122.456 L 1164.264 122.890 L 1158.727 121.605 L 1154.401 118.823 L 1152.033 115.024 L 1152.033 110.866 L 1154.401 107.067 L 1158.727 104.285 L 1164.264 103.000 L 1170.054 103.435 L 1175.095 105.514 L 1178.517 108.878 L 1179.727 112.945 Z" />
</g>
<g id="part-175">
<path d="M 1480.982 130.000 L 1500.982 130.000 L 1500.982 138.000 L 1480.982 138.000 L 1480.982 130.000 Z" />
</g>
<g id="part-176">
<path d="M 1602.379 103.000 L 1615.379 103.000 L 1615.379 120.000 L 1602.379 120.000 L 1602.379 103.000 Z" />
</g>
<g id="part-177">
<path d="M 1476.257 68.000 L 1506.257 68.000 L 1506.257 94.000 L 1476.257 94.000 L 1476.257 68.000 Z" />
</g>
<g id="part-178">
<path d="M 500.954 130.000 L 523.954 130.000 L 523.954 143.000 L 500.954 143.000 L 500.954 130.000 Z" />
</g>
<g id="part-179">
<path d="M 734.645 103.000 L 750.645 103.000 L 750.645 125.000 L 734.645 125.000 L 734.645 103.000 Z" />
</g>
<g id="part-180">
<path d="M 401.645 103.000 L 448.645 103.000 L 448.645 126.000 L 401.645 126.000 L 401.645 103.000 Z" />
<path d="M 416.685 110.360 L 416.685 118.640 L 433.605 118.640 L 433.605 110.360 L 416.685 110.360 Z" fill="#f7f7f2" fill-opacity="1" stroke="#163b5c" />
</g>
<g id="part-181">
<path d="M 464.000 10.000 L 502.000 10.000 L 502.000 56.000 L 464.000 56.000 L 464.000 10.000 Z" />
<path d="M 476.920 18.280 L 476.920 28.400 L 493.640 28.400 L 493.640 18.280 L 476.920 18.280 Z" fill="#f7f7f2" fill-opacity="1" stroke="#163b5c" />
<path d="M 476.920 37.600 L 476.920 47.720 L 493.640 47.720 L 493.640 37.600 L 476.920 37.600 Z" fill="#f7f7f2" fill-opacity="1" stroke="#163b5c" />
</g>
<g id="part-182">
<path d="M 1186.000 10.000 L 1220.000 10.000 L 1220.000 19.020 L 1197.560 19.020 L 1197.560 41.980 L 1220.000 41.980 L 1220.000 51.000 L 1186.000 51.000 L 1186.000 10.000 Z" />
</g>
<g id="part-183">
<path d="M 412.954 130.000 L 424.954 134.000 L 421.594 144.000 L 415.954 141.480 L 412.954 130.000 Z" />
</g>
<g id="part-184">
<path d="M 399.645 114.934 L 398.435 119.815 L 395.013 123.852 L 389.971 126.347 L 384.182 126.869 L 378.645 125.327 L 374.319 121.988 L 371.951 117.429 L 371.951 112.439 L 374.319 107.881 L 378.645 104.542 L 384.182 103.000 L 389.971 103.522 L 395.013 106.017 L 398.435 110.053 L 399.645 114.934 Z" />
</g>
<g id="part-185">
<path d="M 1133.982 130.000 L 1155.982 130.000 L 1155.982 140.000 L 1133.982 140.000 L 1133.982 130.000 Z" />
</g>
<g id="part-186">
<path d="M 1290.379 103.000 L 1305.379 103.000 L 1305.379 122.000 L 1290.379 122.000 L 1290.379 103.000 Z" />
</g>
<g id="part-187">
<path d="M 975.000 68.000 L 1007.000 68.000 L 1007.000 96.000 L 975.000 96.000 L 975.000 68.000 Z" />
</g>
<g id="part-188">
<path d="M 157.954 130.000 L 182.954 130.000 L 182.954 145.000 L 157.954 145.000 L 157.954 130.000 Z" />
</g>
<g id="part-189">
<path d="M 217.000 103.000 L 235.000 103.000 L 235.000 127.000 L 217.000 127.000 L 217.000 103.000 Z" />
</g>
<g id="part-190">
<path d="M 1705.257 68.000 L 1730.257 68.000 L 1730.257 93.000 L 1705.257 93.000 L 1705.257 68.000 Z" />
<path d="M 1713.257 76.000 L 1713.257 85.000 L 1722.257 85.000 L 1722.257 76.000 L 1713.257 76.000 Z" fill="#f7f7f2" fill-opacity="1" stroke="#163b5c" />
</g>
<g id="part-191">
<path d="M 380.000 10.000 L 420.000 10.000 L 420.000 58.000 L 380.000 58.000 L 380.000 10.000 Z" />
<path d="M 393.600 18.640 L 393.600 29.200 L 411.200 29.200 L 411.200 18.640 L 393.600 18.640 Z" fill="#f7f7f2" fill-opacity="1" stroke="#163b5c" />
<path d="M 393.600 38.800 L 393.600 49.360 L 411.200 49.360 L 411.200 38.800 L 393.600 38.800 Z" fill="#f7f7f2" fill-opacity="1" stroke="#163b5c" />
</g>
<g id="part-192">
<path d="M 718.000 10.000 L 754.000 10.000 L 754.000 19.460 L 730.240 19.460 L 730.240 43.540 L 754.000 43.540 L 754.000 53.000 L 718.000 53.000 L 718.000 10.000 Z" />
</g>
<g id="part-193">
<path d="M 10.000 130.000 L 24.000 134.000 L 20.080 146.000 L 13.000 143.120 L 10.000 130.000 Z" />
</g>
<g id="part-194">
<path d="M 336.301 114.934 L 334.917 119.815 L 331.007 123.852 L 325.245 126.347 L 318.628 126.869 L 312.301 125.327 L 307.356 121.988 L 304.650 117.429 L 304.650 112.439 L 307.356 107.881 L 312.301 104.542 L 318.628 103.000 L 325.245 103.522 L 331.007 106.017 L 334.917 110.053 L 336.301 114.934 Z" />
</g>
<g id="part-195">
<path d="M 662.954 130.000 L 686.954 130.000 L 686.954 142.000 L 662.954 142.000 L 662.954 130.000 Z" />
</g>
<g id="part-196">
<path d="M 883.645 103.000 L 900.645 103.000 L 900.645 124.000 L 883.645 124.000 L 883.645 103.000 Z" />
</g>
<g id="part-197">
<path d="M 1516.982 130.000 L 1526.982 130.000 L 1526.982 138.000 L 1516.982 138.000 L 1516.982 130.000 Z" />
</g>
<g id="part-198">
<path d="M 1556.379 103.000 L 1583.379 103.000 L 1583.379 120.000 L 1556.379 120.000 L 1556.379 103.000 Z" />
</g>
<g id="part-199">
<path d="M 1616.257 68.000 L 1636.257 68.000 L 1636.257 94.000 L 1616.257 94.000 L 1616.257 68.000 Z" />
</g>
<g id="part-200">
<path d="M 1310.257 68.000 L 1337.257 68.000 L 1337.257 95.000 L 1310.257 95.000 L 1310.257 68.000 Z" />
<path d="M 1318.897 76.640 L 1318.897 86.360 L 1328.617 86.360 L 1328.617 76.640 L 1318.897 76.640 Z" fill="#f7f7f2" fill-opacity="1" stroke="#163b5c" />
</g>
<g id="part-201">
<path d="M 292.000 10.000 L 334.000 10.000 L 334.000 60.000 L 292.000 60.000 L 292.000 10.000 Z" />
<path d="M 306.280 19.000 L 306.280 30.000 L 324.760 30.000 L 324.760 19.000 L 306.280 19.000 Z" fill="#f7f7f2" fill-opacity="1" stroke="#163b5c" />
<path d="M 306.280 40.000 L 306.280 51.000 L 324.760 51.000 L 324.760 40.000 L 306.280 40.000 Z" fill="#f7f7f2" fill-opacity="1" stroke="#163b5c" />
</g>
<g id="part-202">
<path d="M 935.000 68.000 L 973.000 68.000 L 973.000 74.160 L 947.920 74.160 L 947.920 89.840 L 973.000 89.840 L 973.000 96.000 L 935.000 96.000 L 935.000 68.000 Z" />
</g>
<g id="part-203">
<path d="M 1465.379 103.000 L 1481.379 107.000 L 1476.899 121.000 L 1468.379 117.760 L 1465.379 103.000 Z" />
</g>
<g id="part-204">
<path d="M 1206.650 81.923 L 1205.267 87.618 L 1201.356 92.327 L 1195.595 95.238 L 1188.978 95.847 L 1182.650 94.048 L 1177.706 90.152 L 1175.000 84.834 L 1175.000 79.013 L 1177.706 73.694 L 1182.650 69.799 L 1188.978 68.000 L 1195.595 68.609 L 1201.356 71.519 L 1205.267 76.229 L 1206.650 81.923 Z" />
</g>
<g id="part-205">
<path d="M 308.954 130.000 L 334.954 130.000 L 334.954 144.000 L 308.954 144.000 L 308.954 130.000 Z" />
</g>
<g id="part-206">
<path d="M 535.645 103.000 L 554.645 103.000 L 554.645 126.000 L 535.645 126.000 L 535.645 103.000 Z" />
</g>
<g id="part-207">
<path d="M 1173.982 130.000 L 1185.982 130.000 L 1185.982 140.000 L 1173.982 140.000 L 1173.982 130.000 Z" />
</g>
<g id="part-208">
<path d="M 1240.379 103.000 L 1269.379 103.000 L 1269.379 122.000 L 1240.379 122.000 L 1240.379 103.000 Z" />
</g>
<g id="part-209">
<path d="M 1097.000 68.000 L 1119.000 68.000 L 1119.000 96.000 L 1097.000 96.000 L 1097.000 68.000 Z" />
</g>
<g id="part-210">
<path d="M 542.000 68.000 L 571.000 68.000 L 571.000 97.000 L 542.000 97.000 L 542.000 68.000 Z" />
<path d="M 551.280 77.280 L 551.280 87.720 L 561.720 87.720 L 561.720 77.280 L 551.280 77.280 Z" fill="#f7f7f2" fill-opacity="1" stroke="#163b5c" />
</g>
<g id="part-211">
<path d="M 174.000 10.000 L 218.000 10.000 L 218.000 62.000 L 174.000 62.000 L 174.000 10.000 Z" />
<path d="M 188.960 19.360 L 188.960 30.800 L 208.320 30.800 L 208.320 19.360 L 188.960 19.360 Z" fill="#f7f7f2" fill-opacity="1" stroke="#163b5c" />
<path d="M 188.960 41.200 L 188.960 52.640 L 208.320 52.640 L 208.320 41.200 L 188.960 41.200 Z" fill="#f7f7f2" fill-opacity="1" stroke="#163b5c" />
</g>
<g id="part-212">
<path d="M 851.000 68.000 L 891.000 68.000 L 891.000 74.160 L 864.600 74.160 L 864.600 89.840 L 891.000 89.840 L 891.000 96.000 L 851.000 96.000 L 851.000 68.000 Z" />
</g>
<g id="part-213">
<path d="M 1012.645 103.000 L 1030.645 107.000 L 1025.605 123.000 L 1015.645 119.400 L 1012.645 103.000 Z" />
</g>
<g id="part-214">
<path d="M 1220.519 81.923 L 1220.001 87.618 L 1218.534 92.327 L 1216.373 95.238 L 1213.892 95.847 L 1211.519 94.048 L 1209.665 90.152 L 1208.650 84.834 L 1208.650 79.013 L 1209.665 73.694 L 1211.519 69.799 L 1213.892 68.000 L 1216.373 68.609 L 1218.534 71.519 L 1220.001 76.229 L 1220.519 81.923 Z" />
</g>
<g id="part-215">
<path d="M 1649.379 103.000 L 1677.379 103.000 L 1677.379 119.000 L 1649.379 119.000 L 1649.379 103.000 Z" />
</g>
<g id="part-216">
<path d="M 1757.257 68.000 L 1778.257 68.000 L 1778.257 93.000 L 1757.257 93.000 L 1757.257 68.000 Z" />
</g>
<g id="part-217">
<path d="M 772.954 130.000 L 786.954 130.000 L 786.954 142.000 L 772.954 142.000 L 772.954 130.000 Z" />
</g>
<g id="part-218">
<path d="M 829.645 103.000 L 860.645 103.000 L 860.645 124.000 L 829.645 124.000 L 829.645 103.000 Z" />
</g>
<g id="part-219">
<path d="M 1430.982 130.000 L 1454.982 130.000 L 1454.982 138.000 L 1430.982 138.000 L 1430.982 130.000 Z" />
</g>
<g id="part-220">
<path d="M 273.000 68.000 L 304.000 68.000 L 304.000 99.000 L 273.000 99.000 L 273.000 68.000 Z" />
<path d="M 282.920 77.920 L 282.920 89.080 L 294.080 89.080 L 294.080 77.920 L 282.920 77.920 Z" fill="#f7f7f2" fill-opacity="1" stroke="#163b5c" />
</g>
<g id="part-221">
<path d="M 122.000 10.000 L 146.000 10.000 L 146.000 64.000 L 122.000 64.000 L 122.000 10.000 Z" />
<path d="M 130.160 19.720 L 130.160 31.600 L 140.720 31.600 L 140.720 19.720 L 130.160 19.720 Z" fill="#f7f7f2" fill-opacity="1" stroke="#163b5c" />
<path d="M 130.160 42.400 L 130.160 54.280 L 140.720 54.280 L 140.720 42.400 L 130.160 42.400 Z" fill="#f7f7f2" fill-opacity="1" stroke="#163b5c" />
</g>
<g id="part-222">
<path d="M 763.000 68.000 L 805.000 68.000 L 805.000 74.160 L 777.280 74.160 L 777.280 89.840 L 805.000 89.840 L 805.000 96.000 L 763.000 96.000 L 763.000 68.000 Z" />
</g>
<g id="part-223">
<path d="M 692.645 103.000 L 712.645 107.000 L 707.045 125.000 L 695.645 121.040 L 692.645 103.000 Z" />
</g>
<g id="part-224">
<path d="M 1576.334 133.804 L 1575.188 136.155 L 1572.188 137.608 L 1568.480 137.608 L 1565.480 136.155 L 1564.334 133.804 L 1565.480 131.453 L 1568.480 130.000 L 1572.188 130.000 L 1575.188 131.453 L 1576.334 133.804 Z" />
</g>
<g id="part-225">
<path d="M 1341.379 103.000 L 1371.379 103.000 L 1371.379 121.000 L 1341.379 121.000 L 1341.379 103.000 Z" />
</g>
<g id="part-226">
<path d="M 1366.257 68.000 L 1389.257 68.000 L 1389.257 95.000 L 1366.257 95.000 L 1366.257 68.000 Z" />
</g>
<g id="part-227">
<path d="M 378.954 130.000 L 394.954 130.000 L 394.954 144.000 L 378.954 144.000 L 378.954 130.000 Z" />
</g>
<g id="part-228">
<path d="M 450.645 103.000 L 483.645 103.000 L 483.645 126.000 L 450.645 126.000 L 450.645 103.000 Z" />
</g>
<g id="part-229">
<path d="M 1079.982 130.000 L 1105.982 130.000 L 1105.982 140.000 L 1079.982 140.000 L 1079.982 130.000 Z" />
</g>
<g id="part-230">
<path d="M 10.000 68.000 L 43.000 68.000 L 43.000 101.000 L 10.000 101.000 L 10.000 68.000 Z" />
<path d="M 20.560 78.560 L 20.560 90.440 L 32.440 90.440 L 32.440 78.560 L 20.560 78.560 Z" fill="#f7f7f2" fill-opacity="1" stroke="#163b5c" />
</g>
<g id="part-231">
<path d="M 68.000 10.000 L 92.000 10.000 L 92.000 66.000 L 68.000 66.000 L 68.000 10.000 Z" />
<path d="M 76.160 20.080 L 76.160 32.400 L 86.720 32.400 L 86.720 20.080 L 76.160 20.080 Z" fill="#f7f7f2" fill-opacity="1" stroke="#163b5c" />
<path d="M 76.160 43.600 L 76.160 55.920 L 86.720 55.920 L 86.720 43.600 L 76.160 43.600 Z" fill="#f7f7f2" fill-opacity="1" stroke="#163b5c" />
</g>
<g id="part-232">
<path d="M 432.000 68.000 L 476.000 68.000 L 476.000 74.380 L 446.960 74.380 L 446.960 90.620 L 476.000 90.620 L 476.000 97.000 L 432.000 97.000 L 432.000 68.000 Z" />
</g>
<g id="part-233">
<path d="M 171.000 103.000 L 193.000 107.000 L 186.840 127.000 L 174.000 122.680 L 171.000 103.000 Z" />
</g>
<g id="part-234">
<path d="M 848.306 135.939 L 847.036 139.183 L 843.629 141.397 L 839.167 141.878 L 835.067 140.473 L 832.630 137.629 L 832.630 134.249 L 835.067 131.404 L 839.167 130.000 L 843.629 130.481 L 847.036 132.695 L 848.306 135.939 Z" />
</g>
<g id="part-235">
<path d="M 902.645 103.000 L 934.645 103.000 L 934.645 123.000 L 902.645 123.000 L 902.645 103.000 Z" />
</g>
<g id="part-236">
<path d="M 602.000 68.000 L 627.000 68.000 L 627.000 97.000 L 602.000 97.000 L 602.000 68.000 Z" />
</g>
<g id="part-237">
<path d="M 1747.379 103.000 L 1765.379 103.000 L 1765.379 119.000 L 1747.379 119.000 L 1747.379 103.000 Z" />
</g>
<g id="part-238">
<path d="M 42.000 103.000 L 53.000 103.000 L 53.000 128.000 L 42.000 128.000 L 42.000 103.000 Z" />
</g>
<g id="part-239">
<path d="M 604.954 130.000 L 632.954 130.000 L 632.954 142.000 L 604.954 142.000 L 604.954 130.000 Z" />
</g>
<g id="part-240">
<path d="M 1610.000 10.000 L 1645.000 10.000 L 1645.000 45.000 L 1610.000 45.000 L 1610.000 10.000 Z" />
<path d="M 1621.200 21.200 L 1621.200 33.800 L 1633.800 33.800 L 1633.800 21.200 L 1621.200 21.200 Z" fill="#f7f7f2" fill-opacity="1" stroke="#163b5c" />
</g>
<g id="part-241">
<path d="M 1028.000 10.000 L 1054.000 10.000 L 1054.000 52.000 L 1028.000 52.000 L 1028.000 10.000 Z" />
<path d="M 1036.840 17.560 L 1036.840 26.800 L 1048.280 26.800 L 1048.280 17.560 L 1036.840 17.560 Z" fill="#f7f7f2" fill-opacity="1" stroke="#163b5c" />
<path d="M 1036.840 35.200 L 1036.840 44.440 L 1048.280 44.440 L 1048.280 35.200 L 1036.840 35.200 Z" fill="#f7f7f2" fill-opacity="1" stroke="#163b5c" />
</g>
<g id="part-242">
<path d="M 153.000 68.000 L 199.000 68.000 L 199.000 74.820 L 168.640 74.820 L 168.640 92.180 L 199.000 92.180 L 199.000 99.000 L 153.000 99.000 L 153.000 68.000 Z" />
</g>
<g id="part-243">
<path d="M 1566.257 68.000 L 1590.257 72.000 L 1583.537 94.000 L 1569.257 89.320 L 1566.257 68.000 Z" />
</g>
<g id="part-244">
<path d="M 830.630 135.939 L 829.360 139.183 L 825.953 141.397 L 821.491 141.878 L 817.391 140.473 L 814.954 137.629 L 814.954 134.249 L 817.391 131.404 L 821.491 130.000 L 825.953 130.481 L 829.360 132.695 L 830.630 135.939 Z" />
</g>
<g id="part-245">
<path d="M 782.645 103.000 L 792.645 103.000 L 792.645 125.000 L 782.645 125.000 L 782.645 103.000 Z" />
</g>
<g id="part-246">
<path d="M 1263.982 130.000 L 1290.982 130.000 L 1290.982 139.000 L 1263.982 139.000 L 1263.982 130.000 Z" />
</g>
<g id="part-247">
<path d="M 1423.379 103.000 L 1443.379 103.000 L 1443.379 121.000 L 1423.379 121.000 L 1423.379 103.000 Z" />
</g>
<g id="part-248">
<path d="M 1427.257 68.000 L 1440.257 68.000 L 1440.257 95.000 L 1427.257 95.000 L 1427.257 68.000 Z" />
</g>
<g id="part-249">
<path d="M 246.954 130.000 L 276.954 130.000 L 276.954 144.000 L 246.954 144.000 L 246.954 130.000 Z" />
</g>
</g>
<text x="10" y="20" font-size="14" fill="#222">mixed_250_parts / Balanced</text>
</svg>
