<svg xmlns="http://www.w3.org/2000/svg" width="1450.000" height="940.000" viewBox="0 0 1450.000 940.000">
<rect x="0" y="0" width="1450.000" height="940.000" fill="#f7f7f2" />
<g fill="none" stroke="#2a2a2a" stroke-width="1.2">
<path d="M 0.000 0.000 L 1450.000 0.000 L 1450.000 940.000 L 0.000 940.000 L 0.000 0.000 Z" stroke="#1f5f8b" />
</g>
<g fill="#86b8e7" fill-opacity="0.58" stroke="#163b5c" stroke-width="0.8">
<g id="part-0">
<path d="M 746.000 462.000 L 775.000 462.000 L 775.000 497.000 L 746.000 497.000 L 746.000 462.000 Z" />
<path d="M 755.280 473.200 L 755.280 485.800 L 765.720 485.800 L 765.720 473.200 L 755.280 473.200 Z" fill="#f7f7f2" fill-opacity="1" stroke="#163b5c" />
</g>
<g id="part-1">
<path d="M 630.616 367.172 L 674.616 367.172 L 674.616 409.172 L 630.616 409.172 L 630.616 367.172 Z" />
<path d="M 645.576 374.732 L 645.576 383.972 L 664.936 383.972 L 664.936 374.732 L 645.576 374.732 Z" fill="#f7f7f2" fill-opacity="1" stroke="#163b5c" />
<path d="M 645.576 392.372 L 645.576 401.612 L 664.936 401.612 L 664.936 392.372 L 645.576 392.372 Z" fill="#f7f7f2" fill-opacity="1" stroke="#163b5c" />
</g>
<g id="part-2">
<path d="M 733.000 243.000 L 773.000 243.000 L 773.000 249.820 L 746.600 249.820 L 746.600 267.180 L 773.000 267.180 L 773.000 274.000 L 733.000 274.000 L 733.000 243.000 Z" />
</g>
<g id="part-3">
<path d="M 760.000 190.000 L 778.000 194.000 L 772.960 216.000 L 763.000 211.320 L 760.000 190.000 Z" />
</g>
<g id="part-4">
<path d="M 701.616 403.465 L 700.470 406.992 L 697.470 409.172 L 693.762 409.172 L 690.762 406.992 L 689.616 403.465 L 690.762 399.939 L 693.762 397.759 L 697.470 397.759 L 700.470 399.939 L 701.616 403.465 Z" />
</g>
<g id="part-5">
<path d="M 757.500 94.500 L 785.500 94.500 L 785.500 116.500 L 757.500 116.500 L 757.500 94.500 Z" />
</g>
<g id="part-6">
<path d="M 772.116 534.172 L 793.116 534.172 L 793.116 543.172 L 772.116 543.172 L 772.116 534.172 Z" />
</g>
<g id="part-7">
<path d="M 731.500 312.000 L 745.500 312.000 L 745.500 330.000 L 731.500 330.000 L 731.500 312.000 Z" />
</g>
<g id="part-8">
<path d="M 698.500 336.000 L 729.500 336.000 L 729.500 363.000 L 698.500 363.000 L 698.500 336.000 Z" />
</g>
<g id="part-9">
<path d="M 756.500 18.653 L 780.500 18.653 L 780.500 32.653 L 756.500 32.653 L 756.500 18.653 Z" />
</g>
<g id="part-10">
<path d="M 630.116 587.172 L 661.116 587.172 L 661.116 624.172 L 630.116 624.172 L 630.116 587.172 Z" />
<path d="M 640.036 599.012 L 640.036 612.332 L 651.196 612.332 L 651.196 599.012 L 640.036 599.012 Z" fill="#f7f7f2" fill-opacity="1" stroke="#163b5c" />
</g>
<g id="part-11">
<path d="M 749.500 289.000 L 773.500 289.000 L 773.500 331.000 L 749.500 331.000 L 749.500 289.000 Z" />
<path d="M 757.660 296.560 L 757.660 305.800 L 768.220 305.800 L 768.220 296.560 L 757.660 296.560 Z" fill="#f7f7f2" fill-opacity="1" stroke="#163b5c" />
<path d="M 757.660 314.200 L 757.660 323.440 L 768.220 323.440 L 768.220 314.200 L 757.660 314.200 Z" fill="#f7f7f2" fill-opacity="1" stroke="#163b5c" />
</g>
<g id="part-12">
<path d="M 731.500 333.000 L 773.500 333.000 L 773.500 340.260 L 745.780 340.260 L 745.780 358.740 L 773.500 358.740 L 773.500 366.000 L 731.500 366.000 L 731.500 333.000 Z" />
</g>
<g id="part-13">
<path d="M 653.500 50.000 L 673.500 54.000 L 667.900 78.000 L 656.500 72.960 L 653.500 50.000 Z" />
</g>
<g id="part-14">
<path d="M 663.116 467.253 L 662.164 471.578 L 659.609 474.530 L 656.262 475.172 L 653.187 473.299 L 651.359 469.507 L 651.359 464.999 L 653.187 461.207 L 656.262 459.334 L 659.609 459.976 L 662.164 462.928 L 663.116 467.253 Z" />
</g>
<g id="part-15">
<path d="M 738.000 162.000 L 768.000 162.000 L 768.000 186.000 L 738.000 186.000 L 738.000 162.000 Z" />
</g>
<g id="part-16">
<path d="M 750.000 276.000 L 773.000 276.000 L 773.000 287.000 L 750.000 287.000 L 750.000 276.000 Z" />
</g>
<g id="part-17">
<path d="M 771.500 140.000 L 787.500 140.000 L 787.500 160.000 L 771.500 160.000 L 771.500 140.000 Z" />
</g>
<g id="part-18">
<path d="M 708.500 412.000 L 741.500 412.000 L 741.500 441.000 L 708.500 441.000 L 708.500 412.000 Z" />
</g>
<g id="part-19">
<path d="M 668.616 331.172 L 694.616 331.172 L 694.616 347.172 L 668.616 347.172 L 668.616 331.172 Z" />
</g>
<g id="part-20">
<path d="M 629.116 546.172 L 662.116 546.172 L 662.116 585.172 L 629.116 585.172 L 629.116 546.172 Z" />
<path d="M 639.676 558.652 L 639.676 572.692 L 651.556 572.692 L 651.556 558.652 L 639.676 558.652 Z" fill="#f7f7f2" fill-opacity="1" stroke="#163b5c" />
</g>
<g id="part-21">
<path d="M 705.500 264.000 L 729.500 264.000 L 729.500 306.000 L 705.500 306.000 L 705.500 264.000 Z" />
<path d="M 713.660 271.560 L 713.660 280.800 L 724.220 280.800 L 724.220 271.560 L 713.660 271.560 Z" fill="#f7f7f2" fill-opacity="1" stroke="#163b5c" />
<path d="M 713.660 289.200 L 713.660 298.440 L 724.220 298.440 L 724.220 289.200 L 713.660 289.200 Z" fill="#f7f7f2" fill-opacity="1" stroke="#163b5c" />
</g>
<g id="part-22">
<path d="M 663.116 661.590 L 707.116 661.590 L 707.116 669.290 L 678.076 669.290 L 678.076 688.890 L 707.116 688.890 L 707.116 696.590 L 663.116 696.590 L 663.116 661.590 Z" />
</g>
<g id="part-23">
<path d="M 678.791 180.347 L 700.791 184.347 L 694.631 188.347 L 681.791 186.907 L 678.791 180.347 Z" />
</g>
<g id="part-24">
<path d="M 678.792 605.672 L 677.522 609.997 L 674.115 612.949 L 669.654 613.590 L 665.553 611.718 L 663.116 607.925 L 663.116 603.418 L 665.553 599.626 L 669.654 597.753 L 674.115 598.395 L 677.522 601.346 L 678.792 605.672 Z" />
</g>
<g id="part-25">
<path d="M 697.500 308.000 L 729.500 308.000 L 729.500 334.000 L 697.500 334.000 L 697.500 308.000 Z" />
</g>
<g id="part-26">
<path d="M 711.500 45.500 L 736.500 45.500 L 736.500 58.500 L 711.500 58.500 L 711.500 45.500 Z" />
</g>
<g id="part-27">
<path d="M 654.291 211.347 L 672.291 211.347 L 672.291 233.347 L 654.291 233.347 L 654.291 211.347 Z" />
</g>
<g id="part-28">
<path d="M 676.616 400.172 L 687.616 400.172 L 687.616 409.172 L 676.616 409.172 L 676.616 400.172 Z" />
</g>
<g id="part-29">
<path d="M 648.791 172.347 L 676.791 172.347 L 676.791 190.347 L 648.791 190.347 L 648.791 172.347 Z" />
</g>
<g id="part-30">
<path d="M 628.116 503.172 L 663.116 503.172 L 663.116 544.172 L 628.116 544.172 L 628.116 503.172 Z" />
<path d="M 639.316 516.292 L 639.316 531.052 L 651.916 531.052 L 651.916 516.292 L 639.316 516.292 Z" fill="#f7f7f2" fill-opacity="1" stroke="#163b5c" />
</g>
<g id="part-31">
<path d="M 747.500 368.000 L 773.500 368.000 L 773.500 410.000 L 747.500 410.000 L 747.500 368.000 Z" />
<path d="M 756.340 375.560 L 756.340 384.800 L 767.780 384.800 L 767.780 375.560 L 756.340 375.560 Z" fill="#f7f7f2" fill-opacity="1" stroke="#163b5c" />
<path d="M 756.340 393.200 L 756.340 402.440 L 767.780 402.440 L 767.780 393.200 L 756.340 393.200 Z" fill="#f7f7f2" fill-opacity="1" stroke="#163b5c" />
</g>
<g id="part-32">
<path d="M 747.116 625.172 L 793.116 625.172 L 793.116 633.312 L 762.756 633.312 L 762.756 654.032 L 793.116 654.032 L 793.116 662.172 L 747.116 662.172 L 747.116 625.172 Z" />
</g>
<g id="part-33">
<path d="M 699.116 541.172 L 723.116 545.172 L 716.396 551.172 L 702.116 549.372 L 699.116 541.172 Z" />
</g>
<g id="part-34">
<path d="M 773.000 509.000 L 771.928 514.000 L 769.000 517.660 L 765.000 519.000 L 761.000 517.660 L 758.072 514.000 L 757.000 509.000 L 758.072 504.000 L 761.000 500.340 L 765.000 499.000 L 769.000 500.340 L 771.928 504.000 L 773.000 509.000 Z" />
</g>
<g id="part-35">
<path d="M 748.000 188.000 L 758.000 188.000 L 758.000 216.000 L 748.000 216.000 L 748.000 188.000 Z" />
</g>
<g id="part-36">
<path d="M 640.791 288.847 L 667.791 288.847 L 667.791 303.847 L 640.791 303.847 L 640.791 288.847 Z" />
</g>
<g id="part-37">
<path d="M 675.791 234.347 L 695.791 234.347 L 695.791 258.347 L 675.791 258.347 L 675.791 234.347 Z" />
</g>
<g id="part-38">
<path d="M 749.116 553.172 L 762.116 553.172 L 762.116 564.172 L 749.116 564.172 L 749.116 553.172 Z" />
</g>
<g id="part-39">
<path d="M 706.500 60.500 L 736.500 60.500 L 736.500 80.500 L 706.500 80.500 L 706.500 60.500 Z" />
</g>
<g id="part-40">
<path d="M 663.616 411.172 L 700.616 411.172 L 700.616 454.172 L 663.616 454.172 L 663.616 411.172 Z" />
<path d="M 675.456 424.932 L 675.456 440.412 L 688.776 440.412 L 688.776 424.932 L 675.456 424.932 Z" fill="#f7f7f2" fill-opacity="1" stroke="#163b5c" />
</g>
<g id="part-41">
<path d="M 663.116 615.590 L 691.116 615.590 L 691.116 659.590 L 663.116 659.590 L 663.116 615.590 Z" />
<path d="M 672.636 623.510 L 672.636 633.190 L 684.956 633.190 L 684.956 623.510 L 672.636 623.510 Z" fill="#f7f7f2" fill-opacity="1" stroke="#163b5c" />
<path d="M 672.636 641.990 L 672.636 651.670 L 684.956 651.670 L 684.956 641.990 L 672.636 641.990 Z" fill="#f7f7f2" fill-opacity="1" stroke="#163b5c" />
</g>
<g id="part-42">
<path d="M 699.116 553.172 L 747.116 553.172 L 747.116 561.752 L 715.436 561.752 L 715.436 583.592 L 747.116 583.592 L 747.116 592.172 L 699.116 592.172 L 699.116 553.172 Z" />
</g>
<g id="part-43">
<path d="M 712.000 499.000 L 738.000 503.000 L 730.720 511.000 L 715.000 508.840 L 712.000 499.000 Z" />
</g>
<g id="part-44">
<path d="M 746.000 202.000 L 744.660 207.000 L 741.000 210.660 L 736.000 212.000 L 731.000 210.660 L 727.340 207.000 L 726.000 202.000 L 727.340 197.000 L 731.000 193.340 L 736.000 192.000 L 741.000 193.340 L 744.660 197.000 L 746.000 202.000 Z" />
</g>
<g id="part-45">
<path d="M 675.616 349.172 L 687.616 349.172 L 687.616 357.172 L 675.616 357.172 L 675.616 349.172 Z" />
</g>
<g id="part-46">
<path d="M 648.791 192.347 L 677.791 192.347 L 677.791 209.347 L 648.791 209.347 L 648.791 192.347 Z" />
</g>
<g id="part-47">
<path d="M 681.500 47.500 L 703.500 47.500 L 703.500 73.500 L 681.500 73.500 L 681.500 47.500 Z" />
</g>
<g id="part-48">
<path d="M 740.000 499.000 L 755.000 499.000 L 755.000 512.000 L 740.000 512.000 L 740.000 499.000 Z" />
</g>
<g id="part-49">
<path d="M 701.500 155.500 L 733.500 155.500 L 733.500 177.500 L 701.500 177.500 L 701.500 155.500 Z" />
</g>
<g id="part-50">
<path d="M 733.500 218.000 L 772.500 218.000 L 772.500 241.000 L 733.500 241.000 L 733.500 218.000 Z" />
<path d="M 745.980 225.360 L 745.980 233.640 L 760.020 233.640 L 760.020 225.360 L 745.980 225.360 Z" fill="#f7f7f2" fill-opacity="1" stroke="#163b5c" />
</g>
<g id="part-51">
<path d="M 755.116 577.172 L 785.116 577.172 L 785.116 623.172 L 755.116 623.172 L 755.116 577.172 Z" />
<path d="M 765.316 585.452 L 765.316 595.572 L 778.516 595.572 L 778.516 585.452 L 765.316 585.452 Z" fill="#f7f7f2" fill-opacity="1" stroke="#163b5c" />
<path d="M 765.316 604.772 L 765.316 614.892 L 778.516 614.892 L 778.516 604.772 L 765.316 604.772 Z" fill="#f7f7f2" fill-opacity="1" stroke="#163b5c" />
</g>
<g id="part-52">
<path d="M 707.500 112.500 L 733.500 112.500 L 733.500 121.520 L 716.340 121.520 L 716.340 144.480 L 733.500 144.480 L 733.500 153.500 L 707.500 153.500 L 707.500 112.500 Z" />
</g>
<g id="part-53">
<path d="M 746.500 446.000 L 774.500 450.000 L 766.660 460.000 L 749.500 457.480 L 746.500 446.000 Z" />
</g>
<g id="part-54">
<path d="M 692.500 96.500 L 691.355 102.077 L 688.181 106.376 L 683.705 108.413 L 678.954 107.720 L 675.015 104.457 L 672.791 99.372 L 672.791 93.628 L 675.015 88.543 L 678.954 85.280 L 683.705 84.587 L 688.181 86.624 L 691.355 90.923 L 692.500 96.500 Z" />
</g>
<g id="part-55">
<path d="M 649.116 491.172 L 663.116 491.172 L 663.116 501.172 L 649.116 501.172 L 649.116 491.172 Z" />
</g>
<g id="part-56">
<path d="M 708.500 24.500 L 739.500 24.500 L 739.500 43.500 L 708.500 43.500 L 708.500 24.500 Z" />
</g>
<g id="part-57">
<path d="M 709.500 82.500 L 733.500 82.500 L 733.500 110.500 L 709.500 110.500 L 709.500 82.500 Z" />
</g>
<g id="part-58">
<path d="M 712.500 247.000 L 729.500 247.000 L 729.500 262.000 L 712.500 262.000 L 712.500 247.000 Z" />
</g>
<g id="part-59">
<path d="M 743.500 417.000 L 753.500 417.000 L 753.500 441.000 L 743.500 441.000 L 743.500 417.000 Z" />
</g>
<g id="part-60">
<path d="M 704.500 385.000 L 745.500 385.000 L 745.500 410.000 L 704.500 410.000 L 704.500 385.000 Z" />
<path d="M 717.620 393.000 L 717.620 402.000 L 732.380 402.000 L 732.380 393.000 L 717.620 393.000 Z" fill="#f7f7f2" fill-opacity="1" stroke="#163b5c" />
</g>
<g id="part-61">
<path d="M 665.116 541.172 L 697.116 541.172 L 697.116 589.172 L 665.116 589.172 L 665.116 541.172 Z" />
<path d="M 675.996 549.812 L 675.996 560.372 L 690.076 560.372 L 690.076 549.812 L 675.996 549.812 Z" fill="#f7f7f2" fill-opacity="1" stroke="#163b5c" />
<path d="M 675.996 569.972 L 675.996 580.532 L 690.076 580.532 L 690.076 569.972 L 675.996 569.972 Z" fill="#f7f7f2" fill-opacity="1" stroke="#163b5c" />
</g>
<g id="part-62">
<path d="M 703.500 179.500 L 731.500 179.500 L 731.500 188.960 L 713.020 188.960 L 713.020 213.040 L 731.500 213.040 L 731.500 222.500 L 703.500 222.500 L 703.500 179.500 Z" />
</g>
<g id="part-63">
<path d="M 738.000 121.000 L 768.000 125.000 L 759.600 137.000 L 741.000 134.120 L 738.000 121.000 Z" />
</g>
<g id="part-64">
<path d="M 693.442 317.259 L 692.067 322.836 L 688.259 327.135 L 682.888 329.172 L 677.187 328.479 L 672.460 325.217 L 669.791 320.131 L 669.791 314.387 L 672.460 309.302 L 677.187 306.039 L 682.888 305.347 L 688.259 307.383 L 692.067 311.682 L 693.442 317.259 Z" />
</g>
<g id="part-65">
<path d="M 680.792 601.590 L 696.792 601.590 L 696.792 613.590 L 680.792 613.590 L 680.792 601.590 Z" />
</g>
<g id="part-66">
<path d="M 736.500 139.000 L 769.500 139.000 L 769.500 160.000 L 736.500 160.000 L 736.500 139.000 Z" />
</g>
<g id="part-67">
<path d="M 712.000 375.000 L 738.000 375.000 L 738.000 383.000 L 712.000 383.000 L 712.000 375.000 Z" />
</g>
<g id="part-68">
<path d="M 770.000 120.000 L 789.000 120.000 L 789.000 137.000 L 770.000 137.000 L 770.000 120.000 Z" />
</g>
<g id="part-69">
<path d="M 770.000 162.000 L 782.000 162.000 L 782.000 188.000 L 770.000 188.000 L 770.000 162.000 Z" />
</g>
<g id="part-70">
<path d="M 702.116 630.172 L 745.116 630.172 L 745.116 657.172 L 702.116 657.172 L 702.116 630.172 Z" />
<path d="M 715.876 638.812 L 715.876 648.532 L 731.356 648.532 L 731.356 638.812 L 715.876 638.812 Z" fill="#f7f7f2" fill-opacity="1" stroke="#163b5c" />
</g>
<g id="part-71">
<path d="M 665.116 456.172 L 699.116 456.172 L 699.116 506.172 L 665.116 506.172 L 665.116 456.172 Z" />
<path d="M 676.676 465.172 L 676.676 476.172 L 691.636 476.172 L 691.636 465.172 L 676.676 465.172 Z" fill="#f7f7f2" fill-opacity="1" stroke="#163b5c" />
<path d="M 676.676 486.172 L 676.676 497.172 L 691.636 497.172 L 691.636 486.172 L 676.676 486.172 Z" fill="#f7f7f2" fill-opacity="1" stroke="#163b5c" />
</g>
<g id="part-72">
<path d="M 640.791 82.500 L 670.791 82.500 L 670.791 88.660 L 650.991 88.660 L 650.991 104.340 L 670.791 104.340 L 670.791 110.500 L 640.791 110.500 L 640.791 82.500 Z" />
</g>
<g id="part-73">
<path d="M 672.791 110.413 L 704.791 114.413 L 695.831 128.413 L 675.791 125.173 L 672.791 110.413 Z" />
</g>
<g id="part-74">
<path d="M 667.659 126.423 L 666.622 132.118 L 663.689 136.827 L 659.368 139.738 L 654.405 140.347 L 649.659 138.548 L 645.951 134.652 L 643.922 129.334 L 643.922 123.513 L 645.951 118.194 L 649.659 114.299 L 654.405 112.500 L 659.368 113.109 L 663.689 116.019 L 666.622 120.729 L 667.659 126.423 Z" />
</g>
<g id="part-75">
<path d="M 755.500 427.000 L 773.500 427.000 L 773.500 441.000 L 755.500 441.000 L 755.500 427.000 Z" />
</g>
<g id="part-76">
<path d="M 733.000 287.000 L 744.000 287.000 L 744.000 310.000 L 733.000 310.000 L 733.000 287.000 Z" />
</g>
<g id="part-77">
<path d="M 703.500 224.500 L 731.500 224.500 L 731.500 234.500 L 703.500 234.500 L 703.500 224.500 Z" />
</g>
<g id="part-78">
<path d="M 679.791 190.347 L 700.791 190.347 L 700.791 209.347 L 679.791 209.347 L 679.791 190.347 Z" />
</g>
<g id="part-79">
<path d="M 648.791 142.347 L 662.791 142.347 L 662.791 170.347 L 648.791 170.347 L 648.791 142.347 Z" />
</g>
<g id="part-80">
<path d="M 725.116 522.172 L 770.116 522.172 L 770.116 551.172 L 725.116 551.172 L 725.116 522.172 Z" />
<path d="M 739.516 531.452 L 739.516 541.892 L 755.716 541.892 L 755.716 531.452 L 739.516 531.452 Z" fill="#f7f7f2" fill-opacity="1" stroke="#163b5c" />
</g>
<g id="part-81">
<path d="M 630.616 313.172 L 666.616 313.172 L 666.616 365.172 L 630.616 365.172 L 630.616 313.172 Z" />
<path d="M 642.856 322.532 L 642.856 333.972 L 658.696 333.972 L 658.696 322.532 L 642.856 322.532 Z" fill="#f7f7f2" fill-opacity="1" stroke="#163b5c" />
<path d="M 642.856 344.372 L 642.856 355.812 L 658.696 355.812 L 658.696 344.372 L 642.856 344.372 Z" fill="#f7f7f2" fill-opacity="1" stroke="#163b5c" />
</g>
<g id="part-82">
<path d="M 647.500 20.000 L 679.500 20.000 L 679.500 26.160 L 658.380 26.160 L 658.380 41.840 L 679.500 41.840 L 679.500 48.000 L 647.500 48.000 L 647.500 20.000 Z" />
</g>
<g id="part-83">
<path d="M 676.616 378.172 L 686.616 382.172 L 683.816 398.172 L 679.616 394.572 L 676.616 378.172 Z" />
</g>
<g id="part-84">
<path d="M 782.347 48.577 L 781.137 54.271 L 777.715 58.981 L 772.673 61.891 L 766.884 62.500 L 761.347 60.701 L 757.021 56.806 L 754.653 51.487 L 754.653 45.666 L 757.021 40.348 L 761.347 36.452 L 766.884 34.653 L 772.673 35.262 L 777.715 38.173 L 781.137 42.882 L 782.347 48.577 Z" />
</g>
<g id="part-85">
<path d="M 735.500 94.500 L 755.500 94.500 L 755.500 110.500 L 735.500 110.500 L 735.500 94.500 Z" />
</g>
<g id="part-86">
<path d="M 694.500 84.000 L 707.500 84.000 L 707.500 109.000 L 694.500 109.000 L 694.500 84.000 Z" />
</g>
<g id="part-87">
<path d="M 709.500 10.500 L 739.500 10.500 L 739.500 22.500 L 709.500 22.500 L 709.500 10.500 Z" />
</g>
<g id="part-88">
<path d="M 674.291 211.347 L 697.291 211.347 L 697.291 232.347 L 674.291 232.347 L 674.291 211.347 Z" />
</g>
<g id="part-89">
<path d="M 647.116 477.172 L 663.116 477.172 L 663.116 485.172 L 647.116 485.172 L 647.116 477.172 Z" />
</g>
<g id="part-90">
<path d="M 665.116 508.172 L 712.116 508.172 L 712.116 539.172 L 665.116 539.172 L 665.116 508.172 Z" />
<path d="M 680.156 518.092 L 680.156 529.252 L 697.076 529.252 L 697.076 518.092 L 680.156 518.092 Z" fill="#f7f7f2" fill-opacity="1" stroke="#163b5c" />
</g>
<g id="part-91">
<path d="M 706.000 443.000 L 744.000 443.000 L 744.000 497.000 L 706.000 497.000 L 706.000 443.000 Z" />
<path d="M 718.920 452.720 L 718.920 464.600 L 735.640 464.600 L 735.640 452.720 L 718.920 452.720 Z" fill="#f7f7f2" fill-opacity="1" stroke="#163b5c" />
<path d="M 718.920 475.400 L 718.920 487.280 L 735.640 487.280 L 735.640 475.400 L 718.920 475.400 Z" fill="#f7f7f2" fill-opacity="1" stroke="#163b5c" />
</g>
<g id="part-92">
<path d="M 751.500 64.500 L 785.500 64.500 L 785.500 70.660 L 763.060 70.660 L 763.060 86.340 L 785.500 86.340 L 785.500 92.500 L 751.500 92.500 L 751.500 64.500 Z" />
</g>
<g id="part-93">
<path d="M 764.116 553.172 L 776.116 557.172 L 772.756 575.172 L 767.116 571.212 L 764.116 553.172 Z" />
</g>
<g id="part-94">
<path d="M 753.116 600.172 L 751.906 601.799 L 748.484 603.144 L 743.442 603.976 L 737.653 604.150 L 732.116 603.636 L 727.790 602.523 L 725.422 601.003 L 725.422 599.340 L 727.790 597.820 L 732.116 596.708 L 737.653 596.194 L 743.442 596.367 L 748.484 597.199 L 751.906 598.545 L 753.116 600.172 Z" />
</g>
<g id="part-95">
<path d="M 664.791 152.347 L 686.791 152.347 L 686.791 170.347 L 664.791 170.347 L 664.791 152.347 Z" />
</g>
<g id="part-96">
<path d="M 678.291 260.347 L 693.291 260.347 L 693.291 287.347 L 678.291 287.347 L 678.291 260.347 Z" />
</g>
<g id="part-97">
<path d="M 669.791 289.347 L 701.791 289.347 L 701.791 303.347 L 669.791 303.347 L 669.791 289.347 Z" />
</g>
<g id="part-98">
<path d="M 681.500 22.500 L 706.500 22.500 L 706.500 45.500 L 681.500 45.500 L 681.500 22.500 Z" />
</g>
<g id="part-99">
<path d="M 772.116 522.172 L 790.116 522.172 L 790.116 532.172 L 772.116 532.172 L 772.116 522.172 Z" />
</g>
</g>
<text x="10" y="20" font-size="14" fill="#222">mixed_100_parts / Balanced</text>
</svg>
