<svg xmlns="http://www.w3.org/2000/svg" width="3300.000" height="2150.000" viewBox="0 0 3300.000 2150.000">
<rect x="0" y="0" width="3300.000" height="2150.000" fill="#f7f7f2" />
<g fill="none" stroke="#2a2a2a" stroke-width="1.2">
<path d="M 0.000 0.000 L 3300.000 0.000 L 3300.000 2150.000 L 0.000 2150.000 L 0.000 0.000 Z" stroke="#1f5f8b" />
</g>
<g fill="#86b8e7" fill-opacity="0.58" stroke="#163b5c" stroke-width="0.8">
<g id="part-0">
<path d="M 2183.000 12.000 L 2230.000 12.000 L 2230.000 53.000 L 2183.000 53.000 L 2183.000 12.000 Z" />
<path d="M 2198.040 25.120 L 2198.040 39.880 L 2214.960 39.880 L 2214.960 25.120 L 2198.040 25.120 Z" fill="#f7f7f2" fill-opacity="1" stroke="#163b5c" />
</g>
<g id="part-1">
<path d="M 1631.000 12.000 L 1669.000 12.000 L 1669.000 54.000 L 1631.000 54.000 L 1631.000 12.000 Z" />
<path d="M 1643.920 19.560 L 1643.920 28.800 L 1660.640 28.800 L 1660.640 19.560 L 1643.920 19.560 Z" fill="#f7f7f2" fill-opacity="1" stroke="#163b5c" />
<path d="M 1643.920 37.200 L 1643.920 46.440 L 1660.640 46.440 L 1660.640 37.200 L 1643.920 37.200 Z" fill="#f7f7f2" fill-opacity="1" stroke="#163b5c" />
</g>
<g id="part-2">
<path d="M 172.000 68.000 L 206.000 68.000 L 206.000 76.140 L 183.560 76.140 L 183.560 96.860 L 206.000 96.860 L 206.000 105.000 L 172.000 105.000 L 172.000 68.000 Z" />
</g>
<g id="part-3">
<path d="M 1304.704 157.847 L 1316.704 161.847 L 1313.344 167.847 L 1307.704 166.047 L 1304.704 157.847 Z" />
</g>
<g id="part-4">
<path d="M 556.427 146.542 L 555.216 150.609 L 551.794 153.973 L 546.753 156.052 L 540.963 156.487 L 535.427 155.202 L 531.100 152.420 L 528.733 148.621 L 528.733 144.463 L 531.100 140.664 L 535.427 137.882 L 540.963 136.597 L 546.753 137.031 L 551.794 139.110 L 555.216 142.474 L 556.427 146.542 Z" />
</g>
<g id="part-5">
<path d="M 2615.000 53.000 L 2637.000 53.000 L 2637.000 81.000 L 2615.000 81.000 L 2615.000 53.000 Z" />
</g>
<g id="part-6">
<path d="M 2302.662 134.097 L 2317.662 134.097 L 2317.662 149.097 L 2302.662 149.097 L 2302.662 134.097 Z" />
</g>
<g id="part-7">
<path d="M 1251.995 101.000 L 1283.995 101.000 L 1283.995 125.000 L 1251.995 125.000 L 1251.995 101.000 Z" />
</g>
<g id="part-8">
<path d="M 789.704 159.847 L 814.704 159.847 L 814.704 170.847 L 789.704 170.847 L 789.704 159.847 Z" />
</g>
<g id="part-9">
<path d="M 246.000 138.097 L 264.000 138.097 L 264.000 158.097 L 246.000 158.097 L 246.000 138.097 Z" />
</g>
<g id="part-10">
<path d="M 1604.000 12.000 L 1629.000 12.000 L 1629.000 55.000 L 1604.000 55.000 L 1604.000 12.000 Z" />
<path d="M 1612.000 25.760 L 1612.000 41.240 L 1621.000 41.240 L 1621.000 25.760 L 1612.000 25.760 Z" fill="#f7f7f2" fill-opacity="1" stroke="#163b5c" />
</g>
<g id="part-11">
<path d="M 1040.000 12.000 L 1080.000 12.000 L 1080.000 56.000 L 1040.000 56.000 L 1040.000 12.000 Z" />
<path d="M 1053.600 19.920 L 1053.600 29.600 L 1071.200 29.600 L 1071.200 19.920 L 1053.600 19.920 Z" fill="#f7f7f2" fill-opacity="1" stroke="#163b5c" />
<path d="M 1053.600 38.400 L 1053.600 48.080 L 1071.200 48.080 L 1071.200 38.400 L 1053.600 38.400 Z" fill="#f7f7f2" fill-opacity="1" stroke="#163b5c" />
</g>
<g id="part-12">
<path d="M 2756.000 12.000 L 2792.000 12.000 L 2792.000 20.580 L 2768.240 20.580 L 2768.240 42.420 L 2792.000 42.420 L 2792.000 51.000 L 2756.000 51.000 L 2756.000 12.000 Z" />
</g>
<g id="part-13">
<path d="M 509.000 160.347 L 523.000 164.347 L 519.080 172.347 L 512.000 170.187 L 509.000 160.347 Z" />
</g>
<g id="part-14">
<path d="M 437.650 148.042 L 436.267 152.109 L 432.356 155.473 L 426.595 157.552 L 419.978 157.987 L 413.650 156.702 L 408.706 153.920 L 406.000 150.121 L 406.000 145.963 L 408.706 142.164 L 413.650 139.382 L 419.978 138.097 L 426.595 138.531 L 432.356 140.610 L 436.267 143.974 L 437.650 148.042 Z" />
</g>
<g id="part-15">
<path d="M 1830.704 156.847 L 1854.704 156.847 L 1854.704 164.847 L 1830.704 164.847 L 1830.704 156.847 Z" />
</g>
<g id="part-16">
<path d="M 1447.032 135.097 L 1464.032 135.097 L 1464.032 152.097 L 1447.032 152.097 L 1447.032 135.097 Z" />
</g>
<g id="part-17">
<path d="M 861.995 105.000 L 871.995 105.000 L 871.995 131.000 L 861.995 131.000 L 861.995 105.000 Z" />
</g>
<g id="part-18">
<path d="M 2864.662 138.847 L 2891.662 138.847 L 2891.662 151.847 L 2864.662 151.847 L 2864.662 138.847 Z" />
</g>
<g id="part-19">
<path d="M 2544.849 109.000 L 2564.849 109.000 L 2564.849 131.000 L 2544.849 131.000 L 2544.849 109.000 Z" />
</g>
<g id="part-20">
<path d="M 2163.849 109.000 L 2190.849 109.000 L 2190.849 132.000 L 2163.849 132.000 L 2163.849 109.000 Z" />
<path d="M 2172.489 116.360 L 2172.489 124.640 L 2182.209 124.640 L 2182.209 116.360 L 2172.489 116.360 Z" fill="#f7f7f2" fill-opacity="1" stroke="#163b5c" />
</g>
<g id="part-21">
<path d="M 840.000 12.000 L 882.000 12.000 L 882.000 58.000 L 840.000 58.000 L 840.000 12.000 Z" />
<path d="M 854.280 20.280 L 854.280 30.400 L 872.760 30.400 L 872.760 20.280 L 854.280 20.280 Z" fill="#f7f7f2" fill-opacity="1" stroke="#163b5c" />
<path d="M 854.280 39.600 L 854.280 49.720 L 872.760 49.720 L 872.760 39.600 L 854.280 39.600 Z" fill="#f7f7f2" fill-opacity="1" stroke="#163b5c" />
</g>
<g id="part-22">
<path d="M 2408.000 12.000 L 2446.000 12.000 L 2446.000 21.020 L 2420.920 21.020 L 2420.920 43.980 L 2446.000 43.980 L 2446.000 53.000 L 2408.000 53.000 L 2408.000 12.000 Z" />
</g>
<g id="part-23">
<path d="M 2659.662 138.847 L 2675.662 142.847 L 2671.182 152.847 L 2662.662 150.327 L 2659.662 138.847 Z" />
</g>
<g id="part-24">
<path d="M 1760.946 120.934 L 1759.563 125.815 L 1755.652 129.852 L 1749.890 132.347 L 1743.273 132.869 L 1736.946 131.327 L 1732.002 127.988 L 1729.296 123.429 L 1729.296 118.439 L 1732.002 113.881 L 1736.946 110.542 L 1743.273 109.000 L 1749.890 109.522 L 1755.652 112.017 L 1759.563 116.053 L 1760.946 120.934 Z" />
</g>
<g id="part-25">
<path d="M 1096.704 160.847 L 1122.704 160.847 L 1122.704 170.847 L 1096.704 170.847 L 1096.704 160.847 Z" />
</g>
<g id="part-26">
<path d="M 816.032 138.847 L 835.032 138.847 L 835.032 157.847 L 816.032 157.847 L 816.032 138.847 Z" />
</g>
<g id="part-27">
<path d="M 2781.000 70.000 L 2793.000 70.000 L 2793.000 98.000 L 2781.000 98.000 L 2781.000 70.000 Z" />
</g>
<g id="part-28">
<path d="M 2167.662 138.847 L 2196.662 138.847 L 2196.662 153.847 L 2167.662 153.847 L 2167.662 138.847 Z" />
</g>
<g id="part-29">
<path d="M 1455.995 109.000 L 1477.995 109.000 L 1477.995 133.000 L 1455.995 133.000 L 1455.995 109.000 Z" />
</g>
<g id="part-30">
<path d="M 1004.995 109.000 L 1033.995 109.000 L 1033.995 134.000 L 1004.995 134.000 L 1004.995 109.000 Z" />
<path d="M 1014.275 117.000 L 1014.275 126.000 L 1024.715 126.000 L 1024.715 117.000 L 1014.275 117.000 Z" fill="#f7f7f2" fill-opacity="1" stroke="#163b5c" />
</g>
<g id="part-31">
<path d="M 630.000 12.000 L 674.000 12.000 L 674.000 60.000 L 630.000 60.000 L 630.000 12.000 Z" />
<path d="M 644.960 20.640 L 644.960 31.200 L 664.320 31.200 L 664.320 20.640 L 644.960 20.640 Z" fill="#f7f7f2" fill-opacity="1" stroke="#163b5c" />
<path d="M 644.960 40.800 L 644.960 51.360 L 664.320 51.360 L 664.320 40.800 L 644.960 40.800 Z" fill="#f7f7f2" fill-opacity="1" stroke="#163b5c" />
</g>
<g id="part-32">
<path d="M 1414.000 12.000 L 1454.000 12.000 L 1454.000 21.460 L 1427.600 21.460 L 1427.600 45.540 L 1454.000 45.540 L 1454.000 55.000 L 1414.000 55.000 L 1414.000 12.000 Z" />
</g>
<g id="part-33">
<path d="M 1881.032 138.847 L 1899.032 142.847 L 1893.992 154.847 L 1884.032 151.967 L 1881.032 138.847 Z" />
</g>
<g id="part-34">
<path d="M 1952.849 120.913 L 1952.162 126.489 L 1950.258 130.788 L 1947.573 132.825 L 1944.722 132.133 L 1942.358 128.870 L 1941.024 123.784 L 1941.024 118.041 L 1942.358 112.955 L 1944.722 109.692 L 1947.573 109.000 L 1950.258 111.037 L 1952.162 115.336 L 1952.849 120.913 Z" />
</g>
<g id="part-35">
<path d="M 201.000 160.847 L 229.000 160.847 L 229.000 172.847 L 201.000 172.847 L 201.000 160.847 Z" />
</g>
<g id="part-36">
<path d="M 2846.849 109.000 L 2867.849 109.000 L 2867.849 130.000 L 2846.849 130.000 L 2846.849 109.000 Z" />
</g>
<g id="part-37">
<path d="M 1986.704 160.847 L 2000.704 160.847 L 2000.704 168.847 L 1986.704 168.847 L 1986.704 160.847 Z" />
</g>
<g id="part-38">
<path d="M 1302.032 138.847 L 1333.032 138.847 L 1333.032 155.847 L 1302.032 155.847 L 1302.032 138.847 Z" />
</g>
<g id="part-39">
<path d="M 633.995 109.000 L 657.995 109.000 L 657.995 135.000 L 633.995 135.000 L 633.995 109.000 Z" />
</g>
<g id="part-40">
<path d="M 163.995 109.000 L 194.995 109.000 L 194.995 136.000 L 163.995 136.000 L 163.995 109.000 Z" />
<path d="M 173.915 117.640 L 173.915 127.360 L 185.075 127.360 L 185.075 117.640 L 173.915 117.640 Z" fill="#f7f7f2" fill-opacity="1" stroke="#163b5c" />
</g>
<g id="part-41">
<path d="M 604.000 12.000 L 628.000 12.000 L 628.000 62.000 L 604.000 62.000 L 604.000 12.000 Z" />
<path d="M 612.160 21.000 L 612.160 32.000 L 622.720 32.000 L 622.720 21.000 L 612.160 21.000 Z" fill="#f7f7f2" fill-opacity="1" stroke="#163b5c" />
<path d="M 612.160 42.000 L 612.160 53.000 L 622.720 53.000 L 622.720 42.000 L 612.160 42.000 Z" fill="#f7f7f2" fill-opacity="1" stroke="#163b5c" />
</g>
<g id="part-42">
<path d="M 1987.000 70.000 L 2029.000 70.000 L 2029.000 76.160 L 2001.280 76.160 L 2001.280 91.840 L 2029.000 91.840 L 2029.000 98.000 L 1987.000 98.000 L 1987.000 70.000 Z" />
</g>
<g id="part-43">
<path d="M 1081.032 138.847 L 1101.032 142.847 L 1095.432 156.847 L 1084.032 153.607 L 1081.032 138.847 Z" />
</g>
<g id="part-44">
<path d="M 112.995 122.923 L 112.476 128.618 L 111.010 133.327 L 108.849 136.238 L 106.368 136.847 L 103.995 135.048 L 102.141 131.152 L 101.126 125.834 L 101.126 120.013 L 102.141 114.694 L 103.995 110.799 L 106.368 109.000 L 108.849 109.609 L 111.010 112.519 L 112.476 117.229 L 112.995 122.923 Z" />
</g>
<g id="part-45">
<path d="M 2447.662 138.847 L 2477.662 138.847 L 2477.662 152.847 L 2447.662 152.847 L 2447.662 138.847 Z" />
</g>
<g id="part-46">
<path d="M 2219.849 109.000 L 2242.849 109.000 L 2242.849 132.000 L 2219.849 132.000 L 2219.849 109.000 Z" />
</g>
<g id="part-47">
<path d="M 1270.704 160.847 L 1286.704 160.847 L 1286.704 170.847 L 1270.704 170.847 L 1270.704 160.847 Z" />
</g>
<g id="part-48">
<path d="M 661.032 138.847 L 694.032 138.847 L 694.032 157.847 L 661.032 157.847 L 661.032 138.847 Z" />
</g>
<g id="part-49">
<path d="M 2535.000 70.000 L 2561.000 70.000 L 2561.000 98.000 L 2535.000 98.000 L 2535.000 70.000 Z" />
</g>
<g id="part-50">
<path d="M 1420.000 70.000 L 1453.000 70.000 L 1453.000 99.000 L 1420.000 99.000 L 1420.000 70.000 Z" />
<path d="M 1430.560 79.280 L 1430.560 89.720 L 1442.440 89.720 L 1442.440 79.280 L 1430.560 79.280 Z" fill="#f7f7f2" fill-opacity="1" stroke="#163b5c" />
</g>
<g id="part-51">
<path d="M 380.000 12.000 L 404.000 12.000 L 404.000 64.000 L 380.000 64.000 L 380.000 12.000 Z" />
<path d="M 388.160 21.360 L 388.160 32.800 L 398.720 32.800 L 398.720 21.360 L 388.160 21.360 Z" fill="#f7f7f2" fill-opacity="1" stroke="#163b5c" />
<path d="M 388.160 43.200 L 388.160 54.640 L 398.720 54.640 L 398.720 43.200 L 388.160 43.200 Z" fill="#f7f7f2" fill-opacity="1" stroke="#163b5c" />
</g>
<g id="part-52">
<path d="M 1807.000 70.000 L 1851.000 70.000 L 1851.000 76.160 L 1821.960 76.160 L 1821.960 91.840 L 1851.000 91.840 L 1851.000 98.000 L 1807.000 98.000 L 1807.000 70.000 Z" />
</g>
<g id="part-53">
<path d="M 156.000 138.847 L 178.000 142.847 L 171.840 158.847 L 159.000 155.247 L 156.000 138.847 Z" />
</g>
<g id="part-54">
<path d="M 57.519 122.923 L 56.828 128.618 L 54.872 133.327 L 51.991 136.238 L 48.683 136.847 L 45.519 135.048 L 43.047 131.152 L 41.694 125.834 L 41.694 120.013 L 43.047 114.694 L 45.519 110.799 L 48.683 109.000 L 51.991 109.609 L 54.872 112.519 L 56.828 117.229 L 57.519 122.923 Z" />
</g>
<g id="part-55">
<path d="M 1511.032 138.847 L 1543.032 138.847 L 1543.032 154.847 L 1511.032 154.847 L 1511.032 138.847 Z" />
</g>
<g id="part-56">
<path d="M 1064.995 109.000 L 1089.995 109.000 L 1089.995 134.000 L 1064.995 134.000 L 1064.995 109.000 Z" />
</g>
<g id="part-57">
<path d="M 455.000 160.847 L 473.000 160.847 L 473.000 172.847 L 455.000 172.847 L 455.000 160.847 Z" />
</g>
<g id="part-58">
<path d="M 2941.849 109.000 L 2952.849 109.000 L 2952.849 130.000 L 2941.849 130.000 L 2941.849 109.000 Z" />
</g>
<g id="part-59">
<path d="M 1718.704 160.847 L 1746.704 160.847 L 1746.704 168.847 L 1718.704 168.847 L 1718.704 160.847 Z" />
</g>
<g id="part-60">
<path d="M 1068.000 70.000 L 1103.000 70.000 L 1103.000 101.000 L 1068.000 101.000 L 1068.000 70.000 Z" />
<path d="M 1079.200 79.920 L 1079.200 91.080 L 1091.800 91.080 L 1091.800 79.920 L 1079.200 79.920 Z" fill="#f7f7f2" fill-opacity="1" stroke="#163b5c" />
</g>
<g id="part-61">
<path d="M 168.000 12.000 L 194.000 12.000 L 194.000 66.000 L 168.000 66.000 L 168.000 12.000 Z" />
<path d="M 176.840 21.720 L 176.840 33.600 L 188.280 33.600 L 188.280 21.720 L 176.840 21.720 Z" fill="#f7f7f2" fill-opacity="1" stroke="#163b5c" />
<path d="M 176.840 44.400 L 176.840 56.280 L 188.280 56.280 L 188.280 44.400 L 176.840 44.400 Z" fill="#f7f7f2" fill-opacity="1" stroke="#163b5c" />
</g>
<g id="part-62">
<path d="M 1759.000 70.000 L 1805.000 70.000 L 1805.000 76.160 L 1774.640 76.160 L 1774.640 91.840 L 1805.000 91.840 L 1805.000 98.000 L 1759.000 98.000 L 1759.000 70.000 Z" />
</g>
<g id="part-63">
<path d="M 2444.849 109.000 L 2468.849 113.000 L 2462.129 131.000 L 2447.849 127.040 L 2444.849 109.000 Z" />
</g>
<g id="part-64">
<path d="M 2062.056 164.806 L 2060.786 166.968 L 2057.379 168.444 L 2052.917 168.765 L 2048.817 167.829 L 2046.380 165.933 L 2046.380 163.679 L 2048.817 161.783 L 2052.917 160.847 L 2057.379 161.167 L 2060.786 162.643 L 2062.056 164.806 Z" />
</g>
<g id="part-65">
<path d="M 1243.032 138.847 L 1253.032 138.847 L 1253.032 156.847 L 1243.032 156.847 L 1243.032 138.847 Z" />
</g>
<g id="part-66">
<path d="M 256.995 109.000 L 283.995 109.000 L 283.995 136.000 L 256.995 136.000 L 256.995 109.000 Z" />
</g>
<g id="part-67">
<path d="M 2617.662 138.847 L 2637.662 138.847 L 2637.662 152.847 L 2617.662 152.847 L 2617.662 138.847 Z" />
</g>
<g id="part-68">
<path d="M 2324.849 109.000 L 2337.849 109.000 L 2337.849 132.000 L 2324.849 132.000 L 2324.849 109.000 Z" />
</g>
<g id="part-69">
<path d="M 1004.704 160.847 L 1034.704 160.847 L 1034.704 170.847 L 1004.704 170.847 L 1004.704 160.847 Z" />
</g>
<g id="part-70">
<path d="M 722.000 70.000 L 759.000 70.000 L 759.000 103.000 L 722.000 103.000 L 722.000 70.000 Z" />
<path d="M 733.840 80.560 L 733.840 92.440 L 747.160 92.440 L 747.160 80.560 L 733.840 80.560 Z" fill="#f7f7f2" fill-opacity="1" stroke="#163b5c" />
</g>
<g id="part-71">
<path d="M 12.000 12.000 L 40.000 12.000 L 40.000 68.000 L 12.000 68.000 L 12.000 12.000 Z" />
<path d="M 21.520 22.080 L 21.520 34.400 L 33.840 34.400 L 33.840 22.080 L 21.520 22.080 Z" fill="#f7f7f2" fill-opacity="1" stroke="#163b5c" />
<path d="M 21.520 45.600 L 21.520 57.920 L 33.840 57.920 L 33.840 45.600 L 21.520 45.600 Z" fill="#f7f7f2" fill-opacity="1" stroke="#163b5c" />
</g>
<g id="part-72">
<path d="M 1232.000 70.000 L 1280.000 70.000 L 1280.000 76.380 L 1248.320 76.380 L 1248.320 92.620 L 1280.000 92.620 L 1280.000 99.000 L 1232.000 99.000 L 1232.000 70.000 Z" />
</g>
<g id="part-73">
<path d="M 1375.995 109.000 L 1401.995 113.000 L 1394.715 133.000 L 1378.995 128.680 L 1375.995 109.000 Z" />
</g>
<g id="part-74">
<path d="M 387.000 166.847 L 385.660 169.847 L 382.000 172.043 L 377.000 172.847 L 372.000 172.043 L 368.340 169.847 L 367.000 166.847 L 368.340 163.847 L 372.000 161.650 L 377.000 160.847 L 382.000 161.650 L 385.660 163.847 L 387.000 166.847 Z" />
</g>
<g id="part-75">
<path d="M 354.000 138.847 L 366.000 138.847 L 366.000 158.847 L 354.000 158.847 L 354.000 138.847 Z" />
</g>
<g id="part-76">
<path d="M 1488.000 70.000 L 1517.000 70.000 L 1517.000 99.000 L 1488.000 99.000 L 1488.000 70.000 Z" />
</g>
<g id="part-77">
<path d="M 1727.032 138.847 L 1749.032 138.847 L 1749.032 154.847 L 1727.032 154.847 L 1727.032 138.847 Z" />
</g>
<g id="part-78">
<path d="M 1206.995 109.000 L 1221.995 109.000 L 1221.995 134.000 L 1206.995 134.000 L 1206.995 109.000 Z" />
</g>
<g id="part-79">
<path d="M 69.000 160.847 L 101.000 160.847 L 101.000 172.847 L 69.000 172.847 L 69.000 160.847 Z" />
</g>
<g id="part-80">
<path d="M 382.000 70.000 L 421.000 70.000 L 421.000 105.000 L 382.000 105.000 L 382.000 70.000 Z" />
<path d="M 394.480 81.200 L 394.480 93.800 L 408.520 93.800 L 408.520 81.200 L 394.480 81.200 Z" fill="#f7f7f2" fill-opacity="1" stroke="#163b5c" />
</g>
<g id="part-81">
<path d="M 1979.000 12.000 L 2009.000 12.000 L 2009.000 54.000 L 1979.000 54.000 L 1979.000 12.000 Z" />
<path d="M 1989.200 19.560 L 1989.200 28.800 L 2002.400 28.800 L 2002.400 19.560 L 1989.200 19.560 Z" fill="#f7f7f2" fill-opacity="1" stroke="#163b5c" />
<path d="M 1989.200 37.200 L 1989.200 46.440 L 2002.400 46.440 L 2002.400 37.200 L 1989.200 37.200 Z" fill="#f7f7f2" fill-opacity="1" stroke="#163b5c" />
</g>
<g id="part-82">
<path d="M 1204.000 70.000 L 1230.000 70.000 L 1230.000 76.820 L 1212.840 76.820 L 1212.840 94.180 L 1230.000 94.180 L 1230.000 101.000 L 1204.000 101.000 L 1204.000 70.000 Z" />
</g>
<g id="part-83">
<path d="M 517.995 109.000 L 545.995 113.000 L 538.155 135.000 L 520.995 130.320 L 517.995 109.000 Z" />
</g>
<g id="part-84">
<path d="M 409.000 166.847 L 407.660 169.847 L 404.000 172.043 L 399.000 172.847 L 394.000 172.043 L 390.340 169.847 L 389.000 166.847 L 390.340 163.847 L 394.000 161.650 L 399.000 160.847 L 404.000 161.650 L 407.660 163.847 L 409.000 166.847 Z" />
</g>
<g id="part-85">
<path d="M 2646.849 109.000 L 2660.849 109.000 L 2660.849 131.000 L 2646.849 131.000 L 2646.849 109.000 Z" />
</g>
<g id="part-86">
<path d="M 1356.704 160.847 L 1387.704 160.847 L 1387.704 169.847 L 1356.704 169.847 L 1356.704 160.847 Z" />
</g>
<g id="part-87">
<path d="M 1031.032 138.847 L 1055.032 138.847 L 1055.032 156.847 L 1031.032 156.847 L 1031.032 138.847 Z" />
</g>
<g id="part-88">
<path d="M 387.995 109.000 L 404.995 109.000 L 404.995 136.000 L 387.995 136.000 L 387.995 109.000 Z" />
</g>
<g id="part-89">
<path d="M 2753.662 138.847 L 2763.662 138.847 L 2763.662 152.847 L 2753.662 152.847 L 2753.662 138.847 Z" />
</g>
<g id="part-90">
<path d="M 12.000 70.000 L 53.000 70.000 L 53.000 107.000 L 12.000 107.000 L 12.000 70.000 Z" />
<path d="M 25.120 81.840 L 25.120 95.160 L 39.880 95.160 L 39.880 81.840 L 25.120 81.840 Z" fill="#f7f7f2" fill-opacity="1" stroke="#163b5c" />
</g>
<g id="part-91">
<path d="M 1849.000 12.000 L 1881.000 12.000 L 1881.000 54.000 L 1849.000 54.000 L 1849.000 12.000 Z" />
<path d="M 1859.880 19.560 L 1859.880 28.800 L 1873.960 28.800 L 1873.960 19.560 L 1859.880 19.560 Z" fill="#f7f7f2" fill-opacity="1" stroke="#163b5c" />
<path d="M 1859.880 37.200 L 1859.880 46.440 L 1873.960 46.440 L 1873.960 37.200 L 1859.880 37.200 Z" fill="#f7f7f2" fill-opacity="1" stroke="#163b5c" />
</g>
<g id="part-92">
<path d="M 866.000 70.000 L 894.000 70.000 L 894.000 77.260 L 875.520 77.260 L 875.520 95.740 L 894.000 95.740 L 894.000 103.000 L 866.000 103.000 L 866.000 70.000 Z" />
</g>
<g id="part-93">
<path d="M 2383.000 70.000 L 2413.000 74.000 L 2404.600 98.000 L 2386.000 92.960 L 2383.000 70.000 Z" />
</g>
<g id="part-94">
<path d="M 2079.986 146.788 L 2078.611 150.506 L 2074.803 153.372 L 2069.432 154.730 L 2063.730 154.268 L 2059.004 152.093 L 2056.334 148.703 L 2056.334 144.874 L 2059.004 141.483 L 2063.730 139.308 L 2069.432 138.847 L 2074.803 140.204 L 2078.611 143.070 L 2079.986 146.788 Z" />
</g>
<g id="part-95">
<path d="M 1585.995 109.000 L 1601.995 109.000 L 1601.995 133.000 L 1585.995 133.000 L 1585.995 109.000 Z" />
</g>
<g id="part-96">
<path d="M 661.704 160.847 L 694.704 160.847 L 694.704 171.847 L 661.704 171.847 L 661.704 160.847 Z" />
</g>
<g id="part-97">
<path d="M 78.000 138.847 L 104.000 138.847 L 104.000 158.847 L 78.000 158.847 L 78.000 138.847 Z" />
</g>
<g id="part-98">
<path d="M 1687.000 70.000 L 1706.000 70.000 L 1706.000 99.000 L 1687.000 99.000 L 1687.000 70.000 Z" />
</g>
<g id="part-99">
<path d="M 1967.032 138.847 L 1979.032 138.847 L 1979.032 154.847 L 1967.032 154.847 L 1967.032 138.847 Z" />
</g>
<g id="part-100">
<path d="M 2588.000 12.000 L 2631.000 12.000 L 2631.000 51.000 L 2588.000 51.000 L 2588.000 12.000 Z" />
<path d="M 2601.760 24.480 L 2601.760 38.520 L 2617.240 38.520 L 2617.240 24.480 L 2601.760 24.480 Z" fill="#f7f7f2" fill-opacity="1" stroke="#163b5c" />
</g>
<g id="part-101">
<path d="M 1745.000 12.000 L 1779.000 12.000 L 1779.000 54.000 L 1745.000 54.000 L 1745.000 12.000 Z" />
<path d="M 1756.560 19.560 L 1756.560 28.800 L 1771.520 28.800 L 1771.520 19.560 L 1756.560 19.560 Z" fill="#f7f7f2" fill-opacity="1" stroke="#163b5c" />
<path d="M 1756.560 37.200 L 1756.560 46.440 L 1771.520 46.440 L 1771.520 37.200 L 1756.560 37.200 Z" fill="#f7f7f2" fill-opacity="1" stroke="#163b5c" />
</g>
<g id="part-102">
<path d="M 534.000 70.000 L 564.000 70.000 L 564.000 77.700 L 544.200 77.700 L 544.200 97.300 L 564.000 97.300 L 564.000 105.000 L 534.000 105.000 L 534.000 70.000 Z" />
</g>
<g id="part-103">
<path d="M 1590.704 160.847 L 1622.704 164.847 L 1613.744 168.847 L 1593.704 167.407 L 1590.704 160.847 Z" />
</g>
<g id="part-104">
<path d="M 2054.334 146.788 L 2052.960 150.506 L 2049.151 153.372 L 2043.781 154.730 L 2038.079 154.268 L 2033.352 152.093 L 2030.683 148.703 L 2030.683 144.874 L 2033.352 141.483 L 2038.079 139.308 L 2043.781 138.847 L 2049.151 140.204 L 2052.960 143.070 L 2054.334 146.788 Z" />
</g>
<g id="part-105">
<path d="M 755.995 109.000 L 773.995 109.000 L 773.995 135.000 L 755.995 135.000 L 755.995 109.000 Z" />
</g>
<g id="part-106">
<path d="M 56.000 160.847 L 67.000 160.847 L 67.000 173.847 L 56.000 173.847 L 56.000 160.847 Z" />
</g>
<g id="part-107">
<path d="M 2386.849 109.000 L 2414.849 109.000 L 2414.849 131.000 L 2386.849 131.000 L 2386.849 109.000 Z" />
</g>
<g id="part-108">
<path d="M 1476.704 160.847 L 1497.704 160.847 L 1497.704 169.847 L 1476.704 169.847 L 1476.704 160.847 Z" />
</g>
<g id="part-109">
<path d="M 1199.032 138.847 L 1213.032 138.847 L 1213.032 156.847 L 1199.032 156.847 L 1199.032 138.847 Z" />
</g>
<g id="part-110">
<path d="M 2232.000 12.000 L 2277.000 12.000 L 2277.000 53.000 L 2232.000 53.000 L 2232.000 12.000 Z" />
<path d="M 2246.400 25.120 L 2246.400 39.880 L 2262.600 39.880 L 2262.600 25.120 L 2246.400 25.120 Z" fill="#f7f7f2" fill-opacity="1" stroke="#163b5c" />
</g>
<g id="part-111">
<path d="M 1671.000 12.000 L 1707.000 12.000 L 1707.000 54.000 L 1671.000 54.000 L 1671.000 12.000 Z" />
<path d="M 1683.240 19.560 L 1683.240 28.800 L 1699.080 28.800 L 1699.080 19.560 L 1683.240 19.560 Z" fill="#f7f7f2" fill-opacity="1" stroke="#163b5c" />
<path d="M 1683.240 37.200 L 1683.240 46.440 L 1699.080 46.440 L 1699.080 37.200 L 1683.240 37.200 Z" fill="#f7f7f2" fill-opacity="1" stroke="#163b5c" />
</g>
<g id="part-112">
<path d="M 208.000 70.000 L 240.000 70.000 L 240.000 78.140 L 218.880 78.140 L 218.880 98.860 L 240.000 98.860 L 240.000 107.000 L 208.000 107.000 L 208.000 70.000 Z" />
</g>
<g id="part-113">
<path d="M 1344.704 160.847 L 1354.704 164.847 L 1351.904 170.847 L 1347.704 169.047 L 1344.704 160.847 Z" />
</g>
<g id="part-114">
<path d="M 526.733 148.792 L 525.522 152.859 L 522.100 156.223 L 517.059 158.302 L 511.269 158.737 L 505.733 157.452 L 501.406 154.670 L 499.038 150.871 L 499.038 146.713 L 501.406 142.914 L 505.733 140.132 L 511.269 138.847 L 517.059 139.281 L 522.100 141.360 L 525.522 144.724 L 526.733 148.792 Z" />
</g>
<g id="part-115">
<path d="M 2663.000 70.000 L 2683.000 70.000 L 2683.000 98.000 L 2663.000 98.000 L 2663.000 70.000 Z" />
</g>
<g id="part-116">
<path d="M 2319.662 138.847 L 2332.662 138.847 L 2332.662 153.847 L 2319.662 153.847 L 2319.662 138.847 Z" />
</g>
<g id="part-117">
<path d="M 1285.995 109.000 L 1315.995 109.000 L 1315.995 133.000 L 1285.995 133.000 L 1285.995 109.000 Z" />
</g>
<g id="part-118">
<path d="M 816.704 160.847 L 839.704 160.847 L 839.704 171.847 L 816.704 171.847 L 816.704 160.847 Z" />
</g>
<g id="part-119">
<path d="M 304.000 138.847 L 320.000 138.847 L 320.000 158.847 L 304.000 158.847 L 304.000 138.847 Z" />
</g>
<g id="part-120">
<path d="M 1230.000 12.000 L 1277.000 12.000 L 1277.000 55.000 L 1230.000 55.000 L 1230.000 12.000 Z" />
<path d="M 1245.040 25.760 L 1245.040 41.240 L 1261.960 41.240 L 1261.960 25.760 L 1245.040 25.760 Z" fill="#f7f7f2" fill-opacity="1" stroke="#163b5c" />
</g>
<g id="part-121">
<path d="M 1082.000 12.000 L 1120.000 12.000 L 1120.000 56.000 L 1082.000 56.000 L 1082.000 12.000 Z" />
<path d="M 1094.920 19.920 L 1094.920 29.600 L 1111.640 29.600 L 1111.640 19.920 L 1094.920 19.920 Z" fill="#f7f7f2" fill-opacity="1" stroke="#163b5c" />
<path d="M 1094.920 38.400 L 1094.920 48.080 L 1111.640 48.080 L 1111.640 38.400 L 1094.920 38.400 Z" fill="#f7f7f2" fill-opacity="1" stroke="#163b5c" />
</g>
<g id="part-122">
<path d="M 2794.000 12.000 L 2828.000 12.000 L 2828.000 20.580 L 2805.560 20.580 L 2805.560 42.420 L 2828.000 42.420 L 2828.000 51.000 L 2794.000 51.000 L 2794.000 12.000 Z" />
</g>
<g id="part-123">
<path d="M 525.000 160.847 L 537.000 164.847 L 533.640 172.847 L 528.000 170.687 L 525.000 160.847 Z" />
</g>
<g id="part-124">
<path d="M 497.038 148.792 L 495.828 152.859 L 492.406 156.223 L 487.365 158.302 L 481.575 158.737 L 476.038 157.452 L 471.712 154.670 L 469.344 150.871 L 469.344 146.713 L 471.712 142.914 L 476.038 140.132 L 481.575 138.847 L 487.365 139.281 L 492.406 141.360 L 495.828 144.724 L 497.038 148.792 Z" />
</g>
<g id="part-125">
<path d="M 1880.704 160.847 L 1902.704 160.847 L 1902.704 168.847 L 1880.704 168.847 L 1880.704 160.847 Z" />
</g>
<g id="part-126">
<path d="M 1466.032 138.847 L 1481.032 138.847 L 1481.032 155.847 L 1466.032 155.847 L 1466.032 138.847 Z" />
</g>
<g id="part-127">
<path d="M 451.995 109.000 L 483.995 109.000 L 483.995 135.000 L 451.995 135.000 L 451.995 109.000 Z" />
</g>
<g id="part-128">
<path d="M 2893.662 138.847 L 2918.662 138.847 L 2918.662 151.847 L 2893.662 151.847 L 2893.662 138.847 Z" />
</g>
<g id="part-129">
<path d="M 2608.849 109.000 L 2626.849 109.000 L 2626.849 131.000 L 2608.849 131.000 L 2608.849 109.000 Z" />
</g>
<g id="part-130">
<path d="M 2192.849 109.000 L 2217.849 109.000 L 2217.849 132.000 L 2192.849 132.000 L 2192.849 109.000 Z" />
<path d="M 2200.849 116.360 L 2200.849 124.640 L 2209.849 124.640 L 2209.849 116.360 L 2200.849 116.360 Z" fill="#f7f7f2" fill-opacity="1" stroke="#163b5c" />
</g>
<g id="part-131">
<path d="M 884.000 12.000 L 924.000 12.000 L 924.000 58.000 L 884.000 58.000 L 884.000 12.000 Z" />
<path d="M 897.600 20.280 L 897.600 30.400 L 915.200 30.400 L 915.200 20.280 L 897.600 20.280 Z" fill="#f7f7f2" fill-opacity="1" stroke="#163b5c" />
<path d="M 897.600 39.600 L 897.600 49.720 L 915.200 49.720 L 915.200 39.600 L 897.600 39.600 Z" fill="#f7f7f2" fill-opacity="1" stroke="#163b5c" />
</g>
<g id="part-132">
<path d="M 2448.000 12.000 L 2484.000 12.000 L 2484.000 21.020 L 2460.240 21.020 L 2460.240 43.980 L 2484.000 43.980 L 2484.000 53.000 L 2448.000 53.000 L 2448.000 12.000 Z" />
</g>
<g id="part-133">
<path d="M 2695.662 138.847 L 2709.662 142.847 L 2705.742 152.847 L 2698.662 150.327 L 2695.662 138.847 Z" />
</g>
<g id="part-134">
<path d="M 1794.596 120.934 L 1793.213 125.815 L 1789.302 129.852 L 1783.541 132.347 L 1776.924 132.869 L 1770.596 131.327 L 1765.652 127.988 L 1762.946 123.429 L 1762.946 118.439 L 1765.652 113.881 L 1770.596 110.542 L 1776.924 109.000 L 1783.541 109.522 L 1789.302 112.017 L 1793.213 116.053 L 1794.596 120.934 Z" />
</g>
<g id="part-135">
<path d="M 1152.704 160.847 L 1176.704 160.847 L 1176.704 170.847 L 1152.704 170.847 L 1152.704 160.847 Z" />
</g>
<g id="part-136">
<path d="M 837.032 138.847 L 854.032 138.847 L 854.032 157.847 L 837.032 157.847 L 837.032 138.847 Z" />
</g>
<g id="part-137">
<path d="M 2795.000 70.000 L 2805.000 70.000 L 2805.000 98.000 L 2795.000 98.000 L 2795.000 70.000 Z" />
</g>
<g id="part-138">
<path d="M 2198.662 138.847 L 2225.662 138.847 L 2225.662 153.847 L 2198.662 153.847 L 2198.662 138.847 Z" />
</g>
<g id="part-139">
<path d="M 1525.995 109.000 L 1545.995 109.000 L 1545.995 133.000 L 1525.995 133.000 L 1525.995 109.000 Z" />
</g>
<g id="part-140">
<path d="M 1035.995 109.000 L 1062.995 109.000 L 1062.995 134.000 L 1035.995 134.000 L 1035.995 109.000 Z" />
<path d="M 1044.635 117.000 L 1044.635 126.000 L 1054.355 126.000 L 1054.355 117.000 L 1044.635 117.000 Z" fill="#f7f7f2" fill-opacity="1" stroke="#163b5c" />
</g>
<g id="part-141">
<path d="M 676.000 12.000 L 718.000 12.000 L 718.000 60.000 L 676.000 60.000 L 676.000 12.000 Z" />
<path d="M 690.280 20.640 L 690.280 31.200 L 708.760 31.200 L 708.760 20.640 L 690.280 20.640 Z" fill="#f7f7f2" fill-opacity="1" stroke="#163b5c" />
<path d="M 690.280 40.800 L 690.280 51.360 L 708.760 51.360 L 708.760 40.800 L 690.280 40.800 Z" fill="#f7f7f2" fill-opacity="1" stroke="#163b5c" />
</g>
<g id="part-142">
<path d="M 1456.000 12.000 L 1494.000 12.000 L 1494.000 21.460 L 1468.920 21.460 L 1468.920 45.540 L 1494.000 45.540 L 1494.000 55.000 L 1456.000 55.000 L 1456.000 12.000 Z" />
</g>
<g id="part-143">
<path d="M 1901.032 138.847 L 1917.032 142.847 L 1912.552 154.847 L 1904.032 151.967 L 1901.032 138.847 Z" />
</g>
<g id="part-144">
<path d="M 1727.296 120.934 L 1725.912 125.815 L 1722.002 129.852 L 1716.240 132.347 L 1709.623 132.869 L 1703.296 131.327 L 1698.351 127.988 L 1695.645 123.429 L 1695.645 118.439 L 1698.351 113.881 L 1703.296 110.542 L 1709.623 109.000 L 1716.240 109.522 L 1722.002 112.017 L 1725.912 116.053 L 1727.296 120.934 Z" />
</g>
<g id="part-145">
<path d="M 261.000 160.847 L 287.000 160.847 L 287.000 172.847 L 261.000 172.847 L 261.000 160.847 Z" />
</g>
<g id="part-146">
<path d="M 2869.849 109.000 L 2888.849 109.000 L 2888.849 130.000 L 2869.849 130.000 L 2869.849 109.000 Z" />
</g>
<g id="part-147">
<path d="M 2002.704 160.847 L 2014.704 160.847 L 2014.704 168.847 L 2002.704 168.847 L 2002.704 160.847 Z" />
</g>
<g id="part-148">
<path d="M 1335.032 138.847 L 1364.032 138.847 L 1364.032 155.847 L 1335.032 155.847 L 1335.032 138.847 Z" />
</g>
<g id="part-149">
<path d="M 709.995 109.000 L 731.995 109.000 L 731.995 135.000 L 709.995 135.000 L 709.995 109.000 Z" />
</g>
<g id="part-150">
<path d="M 196.995 109.000 L 225.995 109.000 L 225.995 136.000 L 196.995 136.000 L 196.995 109.000 Z" />
<path d="M 206.275 117.640 L 206.275 127.360 L 216.715 127.360 L 216.715 117.640 L 206.275 117.640 Z" fill="#f7f7f2" fill-opacity="1" stroke="#163b5c" />
</g>
<g id="part-151">
<path d="M 432.000 12.000 L 476.000 12.000 L 476.000 62.000 L 432.000 62.000 L 432.000 12.000 Z" />
<path d="M 446.960 21.000 L 446.960 32.000 L 466.320 32.000 L 466.320 21.000 L 446.960 21.000 Z" fill="#f7f7f2" fill-opacity="1" stroke="#163b5c" />
<path d="M 446.960 42.000 L 446.960 53.000 L 466.320 53.000 L 466.320 42.000 L 446.960 42.000 Z" fill="#f7f7f2" fill-opacity="1" stroke="#163b5c" />
</g>
<g id="part-152">
<path d="M 2115.000 70.000 L 2155.000 70.000 L 2155.000 76.160 L 2128.600 76.160 L 2128.600 91.840 L 2155.000 91.840 L 2155.000 98.000 L 2115.000 98.000 L 2115.000 70.000 Z" />
</g>
<g id="part-153">
<path d="M 1145.032 138.847 L 1163.032 142.847 L 1157.992 156.847 L 1148.032 153.607 L 1145.032 138.847 Z" />
</g>
<g id="part-154">
<path d="M 85.257 122.923 L 84.738 128.618 L 83.272 133.327 L 81.111 136.238 L 78.630 136.847 L 76.257 135.048 L 74.403 131.152 L 73.388 125.834 L 73.388 120.013 L 74.403 114.694 L 76.257 110.799 L 78.630 109.000 L 81.111 109.609 L 83.272 112.519 L 84.738 117.229 L 85.257 122.923 Z" />
</g>
<g id="part-155">
<path d="M 2509.662 138.847 L 2537.662 138.847 L 2537.662 152.847 L 2509.662 152.847 L 2509.662 138.847 Z" />
</g>
<g id="part-156">
<path d="M 2244.849 109.000 L 2265.849 109.000 L 2265.849 132.000 L 2244.849 132.000 L 2244.849 109.000 Z" />
</g>
<g id="part-157">
<path d="M 1288.704 160.847 L 1302.704 160.847 L 1302.704 170.847 L 1288.704 170.847 L 1288.704 160.847 Z" />
</g>
<g id="part-158">
<path d="M 696.032 138.847 L 727.032 138.847 L 727.032 157.847 L 696.032 157.847 L 696.032 138.847 Z" />
</g>
<g id="part-159">
<path d="M 2589.000 70.000 L 2613.000 70.000 L 2613.000 98.000 L 2589.000 98.000 L 2589.000 70.000 Z" />
</g>
<g id="part-160">
<path d="M 1455.000 70.000 L 1486.000 70.000 L 1486.000 99.000 L 1455.000 99.000 L 1455.000 70.000 Z" />
<path d="M 1464.920 79.280 L 1464.920 89.720 L 1476.080 89.720 L 1476.080 79.280 L 1464.920 79.280 Z" fill="#f7f7f2" fill-opacity="1" stroke="#163b5c" />
</g>
<g id="part-161">
<path d="M 406.000 12.000 L 430.000 12.000 L 430.000 64.000 L 406.000 64.000 L 406.000 12.000 Z" />
<path d="M 414.160 21.360 L 414.160 32.800 L 424.720 32.800 L 424.720 21.360 L 414.160 21.360 Z" fill="#f7f7f2" fill-opacity="1" stroke="#163b5c" />
<path d="M 414.160 43.200 L 414.160 54.640 L 424.720 54.640 L 424.720 43.200 L 414.160 43.200 Z" fill="#f7f7f2" fill-opacity="1" stroke="#163b5c" />
</g>
<g id="part-162">
<path d="M 1899.000 70.000 L 1941.000 70.000 L 1941.000 76.160 L 1913.280 76.160 L 1913.280 91.840 L 1941.000 91.840 L 1941.000 98.000 L 1899.000 98.000 L 1899.000 70.000 Z" />
</g>
<g id="part-163">
<path d="M 224.000 138.847 L 244.000 142.847 L 238.400 158.847 L 227.000 155.247 L 224.000 138.847 Z" />
</g>
<g id="part-164">
<path d="M 99.126 122.923 L 98.607 128.618 L 97.141 133.327 L 94.980 136.238 L 92.499 136.847 L 90.126 135.048 L 88.272 131.152 L 87.257 125.834 L 87.257 120.013 L 88.272 114.694 L 90.126 110.799 L 92.499 109.000 L 94.980 109.609 L 97.141 112.519 L 98.607 117.229 L 99.126 122.923 Z" />
</g>
<g id="part-165">
<path d="M 1611.032 138.847 L 1641.032 138.847 L 1641.032 154.847 L 1611.032 154.847 L 1611.032 138.847 Z" />
</g>
<g id="part-166">
<path d="M 1118.995 109.000 L 1141.995 109.000 L 1141.995 134.000 L 1118.995 134.000 L 1118.995 109.000 Z" />
</g>
<g id="part-167">
<path d="M 475.000 160.847 L 491.000 160.847 L 491.000 172.847 L 475.000 172.847 L 475.000 160.847 Z" />
</g>
<g id="part-168">
<path d="M 2718.849 109.000 L 2751.849 109.000 L 2751.849 130.000 L 2718.849 130.000 L 2718.849 109.000 Z" />
</g>
<g id="part-169">
<path d="M 1776.704 160.847 L 1802.704 160.847 L 1802.704 168.847 L 1776.704 168.847 L 1776.704 160.847 Z" />
</g>
<g id="part-170">
<path d="M 1105.000 70.000 L 1138.000 70.000 L 1138.000 101.000 L 1105.000 101.000 L 1105.000 70.000 Z" />
<path d="M 1115.560 79.920 L 1115.560 91.080 L 1127.440 91.080 L 1127.440 79.920 L 1115.560 79.920 Z" fill="#f7f7f2" fill-opacity="1" stroke="#163b5c" />
</g>
<g id="part-171">
<path d="M 222.000 12.000 L 246.000 12.000 L 246.000 66.000 L 222.000 66.000 L 222.000 12.000 Z" />
<path d="M 230.160 21.720 L 230.160 33.600 L 240.720 33.600 L 240.720 21.720 L 230.160 21.720 Z" fill="#f7f7f2" fill-opacity="1" stroke="#163b5c" />
<path d="M 230.160 44.400 L 230.160 56.280 L 240.720 56.280 L 240.720 44.400 L 230.160 44.400 Z" fill="#f7f7f2" fill-opacity="1" stroke="#163b5c" />
</g>
<g id="part-172">
<path d="M 1853.000 70.000 L 1897.000 70.000 L 1897.000 76.160 L 1867.960 76.160 L 1867.960 91.840 L 1897.000 91.840 L 1897.000 98.000 L 1853.000 98.000 L 1853.000 70.000 Z" />
</g>
<g id="part-173">
<path d="M 2520.849 109.000 L 2542.849 113.000 L 2536.689 131.000 L 2523.849 127.040 L 2520.849 109.000 Z" />
</g>
<g id="part-174">
<path d="M 2044.380 164.806 L 2043.110 166.968 L 2039.703 168.444 L 2035.241 168.765 L 2031.141 167.829 L 2028.704 165.933 L 2028.704 163.679 L 2031.141 161.783 L 2035.241 160.847 L 2039.703 161.167 L 2043.110 162.643 L 2044.380 164.806 Z" />
</g>
<g id="part-175">
<path d="M 935.032 138.847 L 967.032 138.847 L 967.032 156.847 L 935.032 156.847 L 935.032 138.847 Z" />
</g>
<g id="part-176">
<path d="M 285.995 109.000 L 310.995 109.000 L 310.995 136.000 L 285.995 136.000 L 285.995 109.000 Z" />
</g>
<g id="part-177">
<path d="M 2639.662 138.847 L 2657.662 138.847 L 2657.662 152.847 L 2639.662 152.847 L 2639.662 138.847 Z" />
</g>
<g id="part-178">
<path d="M 2339.849 109.000 L 2350.849 109.000 L 2350.849 132.000 L 2339.849 132.000 L 2339.849 109.000 Z" />
</g>
<g id="part-179">
<path d="M 1066.704 160.847 L 1094.704 160.847 L 1094.704 170.847 L 1066.704 170.847 L 1066.704 160.847 Z" />
</g>
<g id="part-180">
<path d="M 761.000 70.000 L 796.000 70.000 L 796.000 103.000 L 761.000 103.000 L 761.000 70.000 Z" />
<path d="M 772.200 80.560 L 772.200 92.440 L 784.800 92.440 L 784.800 80.560 L 772.200 80.560 Z" fill="#f7f7f2" fill-opacity="1" stroke="#163b5c" />
</g>
<g id="part-181">
<path d="M 42.000 12.000 L 68.000 12.000 L 68.000 68.000 L 42.000 68.000 L 42.000 12.000 Z" />
<path d="M 50.840 22.080 L 50.840 34.400 L 62.280 34.400 L 62.280 22.080 L 50.840 22.080 Z" fill="#f7f7f2" fill-opacity="1" stroke="#163b5c" />
<path d="M 50.840 45.600 L 50.840 57.920 L 62.280 57.920 L 62.280 45.600 L 50.840 45.600 Z" fill="#f7f7f2" fill-opacity="1" stroke="#163b5c" />
</g>
<g id="part-182">
<path d="M 1282.000 70.000 L 1328.000 70.000 L 1328.000 76.380 L 1297.640 76.380 L 1297.640 92.620 L 1328.000 92.620 L 1328.000 99.000 L 1282.000 99.000 L 1282.000 70.000 Z" />
</g>
<g id="part-183">
<path d="M 1429.995 109.000 L 1453.995 113.000 L 1447.275 133.000 L 1432.995 128.680 L 1429.995 109.000 Z" />
</g>
<g id="part-184">
<path d="M 628.028 166.786 L 626.758 170.029 L 623.351 172.243 L 618.889 172.724 L 614.789 171.320 L 612.352 168.476 L 612.352 165.095 L 614.789 162.251 L 618.889 160.847 L 623.351 161.328 L 626.758 163.542 L 628.028 166.786 Z" />
</g>
<g id="part-185">
<path d="M 394.000 138.847 L 404.000 138.847 L 404.000 158.847 L 394.000 158.847 L 394.000 138.847 Z" />
</g>
<g id="part-186">
<path d="M 1550.000 70.000 L 1577.000 70.000 L 1577.000 99.000 L 1550.000 99.000 L 1550.000 70.000 Z" />
</g>
<g id="part-187">
<path d="M 1817.032 138.847 L 1837.032 138.847 L 1837.032 154.847 L 1817.032 154.847 L 1817.032 138.847 Z" />
</g>
<g id="part-188">
<path d="M 1223.995 109.000 L 1236.995 109.000 L 1236.995 134.000 L 1223.995 134.000 L 1223.995 109.000 Z" />
</g>
<g id="part-189">
<path d="M 137.000 160.847 L 167.000 160.847 L 167.000 172.847 L 137.000 172.847 L 137.000 160.847 Z" />
</g>
<g id="part-190">
<path d="M 423.000 70.000 L 460.000 70.000 L 460.000 105.000 L 423.000 105.000 L 423.000 70.000 Z" />
<path d="M 434.840 81.200 L 434.840 93.800 L 448.160 93.800 L 448.160 81.200 L 434.840 81.200 Z" fill="#f7f7f2" fill-opacity="1" stroke="#163b5c" />
</g>
<g id="part-191">
<path d="M 2041.000 12.000 L 2069.000 12.000 L 2069.000 54.000 L 2041.000 54.000 L 2041.000 12.000 Z" />
<path d="M 2050.520 19.560 L 2050.520 28.800 L 2062.840 28.800 L 2062.840 19.560 L 2050.520 19.560 Z" fill="#f7f7f2" fill-opacity="1" stroke="#163b5c" />
<path d="M 2050.520 37.200 L 2050.520 46.440 L 2062.840 46.440 L 2062.840 37.200 L 2050.520 37.200 Z" fill="#f7f7f2" fill-opacity="1" stroke="#163b5c" />
</g>
<g id="part-192">
<path d="M 924.000 70.000 L 972.000 70.000 L 972.000 76.820 L 940.320 76.820 L 940.320 94.180 L 972.000 94.180 L 972.000 101.000 L 924.000 101.000 L 924.000 70.000 Z" />
</g>
<g id="part-193">
<path d="M 577.995 109.000 L 603.995 113.000 L 596.715 135.000 L 580.995 130.320 L 577.995 109.000 Z" />
</g>
<g id="part-194">
<path d="M 453.000 166.847 L 451.660 169.847 L 448.000 172.043 L 443.000 172.847 L 438.000 172.043 L 434.340 169.847 L 433.000 166.847 L 434.340 163.847 L 438.000 161.650 L 443.000 160.847 L 448.000 161.650 L 451.660 163.847 L 453.000 166.847 Z" />
</g>
<g id="part-195">
<path d="M 2692.849 109.000 L 2704.849 109.000 L 2704.849 131.000 L 2692.849 131.000 L 2692.849 109.000 Z" />
</g>
<g id="part-196">
<path d="M 1389.704 160.847 L 1418.704 160.847 L 1418.704 169.847 L 1389.704 169.847 L 1389.704 160.847 Z" />
</g>
<g id="part-197">
<path d="M 1057.032 138.847 L 1079.032 138.847 L 1079.032 156.847 L 1057.032 156.847 L 1057.032 138.847 Z" />
</g>
<g id="part-198">
<path d="M 406.995 109.000 L 421.995 109.000 L 421.995 136.000 L 406.995 136.000 L 406.995 109.000 Z" />
</g>
<g id="part-199">
<path d="M 2381.662 138.847 L 2413.662 138.847 L 2413.662 152.847 L 2381.662 152.847 L 2381.662 138.847 Z" />
</g>
<g id="part-200">
<path d="M 55.000 70.000 L 94.000 70.000 L 94.000 107.000 L 55.000 107.000 L 55.000 70.000 Z" />
<path d="M 67.480 81.840 L 67.480 95.160 L 81.520 95.160 L 81.520 81.840 L 67.480 81.840 Z" fill="#f7f7f2" fill-opacity="1" stroke="#163b5c" />
</g>
<g id="part-201">
<path d="M 1883.000 12.000 L 1913.000 12.000 L 1913.000 54.000 L 1883.000 54.000 L 1883.000 12.000 Z" />
<path d="M 1893.200 19.560 L 1893.200 28.800 L 1906.400 28.800 L 1906.400 19.560 L 1893.200 19.560 Z" fill="#f7f7f2" fill-opacity="1" stroke="#163b5c" />
<path d="M 1893.200 37.200 L 1893.200 46.440 L 1906.400 46.440 L 1906.400 37.200 L 1893.200 37.200 Z" fill="#f7f7f2" fill-opacity="1" stroke="#163b5c" />
</g>
<g id="part-202">
<path d="M 896.000 70.000 L 922.000 70.000 L 922.000 77.260 L 904.840 77.260 L 904.840 95.740 L 922.000 95.740 L 922.000 103.000 L 896.000 103.000 L 896.000 70.000 Z" />
</g>
<g id="part-203">
<path d="M 2447.000 70.000 L 2475.000 74.000 L 2467.160 98.000 L 2450.000 92.960 L 2447.000 70.000 Z" />
</g>
<g id="part-204">
<path d="M 1771.032 146.847 L 1769.692 150.847 L 1766.032 153.775 L 1761.032 154.847 L 1756.032 153.775 L 1752.372 150.847 L 1751.032 146.847 L 1752.372 142.847 L 1756.032 139.918 L 1761.032 138.847 L 1766.032 139.918 L 1769.692 142.847 L 1771.032 146.847 Z" />
</g>
<g id="part-205">
<path d="M 1603.995 109.000 L 1617.995 109.000 L 1617.995 133.000 L 1603.995 133.000 L 1603.995 109.000 Z" />
</g>
<g id="part-206">
<path d="M 696.704 160.847 L 727.704 160.847 L 727.704 171.847 L 696.704 171.847 L 696.704 160.847 Z" />
</g>
<g id="part-207">
<path d="M 106.000 138.847 L 130.000 138.847 L 130.000 158.847 L 106.000 158.847 L 106.000 138.847 Z" />
</g>
<g id="part-208">
<path d="M 1708.000 70.000 L 1725.000 70.000 L 1725.000 99.000 L 1708.000 99.000 L 1708.000 70.000 Z" />
</g>
<g id="part-209">
<path d="M 1981.032 138.847 L 1991.032 138.847 L 1991.032 154.847 L 1981.032 154.847 L 1981.032 138.847 Z" />
</g>
<g id="part-210">
<path d="M 2633.000 12.000 L 2674.000 12.000 L 2674.000 51.000 L 2633.000 51.000 L 2633.000 12.000 Z" />
<path d="M 2646.120 24.480 L 2646.120 38.520 L 2660.880 38.520 L 2660.880 24.480 L 2646.120 24.480 Z" fill="#f7f7f2" fill-opacity="1" stroke="#163b5c" />
</g>
<g id="part-211">
<path d="M 1781.000 12.000 L 1813.000 12.000 L 1813.000 54.000 L 1781.000 54.000 L 1781.000 12.000 Z" />
<path d="M 1791.880 19.560 L 1791.880 28.800 L 1805.960 28.800 L 1805.960 19.560 L 1791.880 19.560 Z" fill="#f7f7f2" fill-opacity="1" stroke="#163b5c" />
<path d="M 1791.880 37.200 L 1791.880 46.440 L 1805.960 46.440 L 1805.960 37.200 L 1791.880 37.200 Z" fill="#f7f7f2" fill-opacity="1" stroke="#163b5c" />
</g>
<g id="part-212">
<path d="M 566.000 70.000 L 594.000 70.000 L 594.000 77.700 L 575.520 77.700 L 575.520 97.300 L 594.000 97.300 L 594.000 105.000 L 566.000 105.000 L 566.000 70.000 Z" />
</g>
<g id="part-213">
<path d="M 1624.704 160.847 L 1654.704 164.847 L 1646.304 168.847 L 1627.704 167.407 L 1624.704 160.847 Z" />
</g>
<g id="part-214">
<path d="M 2028.683 146.788 L 2027.309 150.506 L 2023.500 153.372 L 2018.130 154.730 L 2012.428 154.268 L 2007.701 152.093 L 2005.032 148.703 L 2005.032 144.874 L 2007.701 141.483 L 2012.428 139.308 L 2018.130 138.847 L 2023.500 140.204 L 2027.309 143.070 L 2028.683 146.788 Z" />
</g>
<g id="part-215">
<path d="M 813.995 109.000 L 829.995 109.000 L 829.995 135.000 L 813.995 135.000 L 813.995 109.000 Z" />
</g>
<g id="part-216">
<path d="M 2765.662 138.847 L 2798.662 138.847 L 2798.662 151.847 L 2765.662 151.847 L 2765.662 138.847 Z" />
</g>
<g id="part-217">
<path d="M 2416.849 109.000 L 2442.849 109.000 L 2442.849 131.000 L 2416.849 131.000 L 2416.849 109.000 Z" />
</g>
<g id="part-218">
<path d="M 1499.704 160.847 L 1518.704 160.847 L 1518.704 169.847 L 1499.704 169.847 L 1499.704 160.847 Z" />
</g>
<g id="part-219">
<path d="M 1229.032 138.847 L 1241.032 138.847 L 1241.032 156.847 L 1229.032 156.847 L 1229.032 138.847 Z" />
</g>
<g id="part-220">
<path d="M 2279.000 12.000 L 2322.000 12.000 L 2322.000 53.000 L 2279.000 53.000 L 2279.000 12.000 Z" />
<path d="M 2292.760 25.120 L 2292.760 39.880 L 2308.240 39.880 L 2308.240 25.120 L 2292.760 25.120 Z" fill="#f7f7f2" fill-opacity="1" stroke="#163b5c" />
</g>
<g id="part-221">
<path d="M 1709.000 12.000 L 1743.000 12.000 L 1743.000 54.000 L 1709.000 54.000 L 1709.000 12.000 Z" />
<path d="M 1720.560 19.560 L 1720.560 28.800 L 1735.520 28.800 L 1735.520 19.560 L 1720.560 19.560 Z" fill="#f7f7f2" fill-opacity="1" stroke="#163b5c" />
<path d="M 1720.560 37.200 L 1720.560 46.440 L 1735.520 46.440 L 1735.520 37.200 L 1720.560 37.200 Z" fill="#f7f7f2" fill-opacity="1" stroke="#163b5c" />
</g>
<g id="part-222">
<path d="M 242.000 70.000 L 272.000 70.000 L 272.000 78.140 L 252.200 78.140 L 252.200 98.860 L 272.000 98.860 L 272.000 107.000 L 242.000 107.000 L 242.000 70.000 Z" />
</g>
<g id="part-223">
<path d="M 938.704 160.847 L 970.704 164.847 L 961.744 170.847 L 941.704 169.047 L 938.704 160.847 Z" />
</g>
<g id="part-224">
<path d="M 582.078 148.774 L 580.703 153.421 L 576.895 157.004 L 571.524 158.701 L 565.823 158.124 L 561.096 155.405 L 558.427 151.167 L 558.427 146.381 L 561.096 142.142 L 565.823 139.424 L 571.524 138.847 L 576.895 140.544 L 580.703 144.126 L 582.078 148.774 Z" />
</g>
<g id="part-225">
<path d="M 2707.000 70.000 L 2725.000 70.000 L 2725.000 98.000 L 2707.000 98.000 L 2707.000 70.000 Z" />
</g>
<g id="part-226">
<path d="M 2334.662 138.847 L 2345.662 138.847 L 2345.662 153.847 L 2334.662 153.847 L 2334.662 138.847 Z" />
</g>
<g id="part-227">
<path d="M 1317.995 109.000 L 1345.995 109.000 L 1345.995 133.000 L 1317.995 133.000 L 1317.995 109.000 Z" />
</g>
<g id="part-228">
<path d="M 841.704 160.847 L 862.704 160.847 L 862.704 171.847 L 841.704 171.847 L 841.704 160.847 Z" />
</g>
<g id="part-229">
<path d="M 338.000 138.847 L 352.000 138.847 L 352.000 158.847 L 338.000 158.847 L 338.000 138.847 Z" />
</g>
<g id="part-230">
<path d="M 1279.000 12.000 L 1324.000 12.000 L 1324.000 55.000 L 1279.000 55.000 L 1279.000 12.000 Z" />
<path d="M 1293.400 25.760 L 1293.400 41.240 L 1309.600 41.240 L 1309.600 25.760 L 1293.400 25.760 Z" fill="#f7f7f2" fill-opacity="1" stroke="#163b5c" />
</g>
<g id="part-231">
<path d="M 1122.000 12.000 L 1158.000 12.000 L 1158.000 56.000 L 1122.000 56.000 L 1122.000 12.000 Z" />
<path d="M 1134.240 19.920 L 1134.240 29.600 L 1150.080 29.600 L 1150.080 19.920 L 1134.240 19.920 Z" fill="#f7f7f2" fill-opacity="1" stroke="#163b5c" />
<path d="M 1134.240 38.400 L 1134.240 48.080 L 1150.080 48.080 L 1150.080 38.400 L 1134.240 38.400 Z" fill="#f7f7f2" fill-opacity="1" stroke="#163b5c" />
</g>
<g id="part-232">
<path d="M 2830.000 12.000 L 2862.000 12.000 L 2862.000 20.580 L 2840.880 20.580 L 2840.880 42.420 L 2862.000 42.420 L 2862.000 51.000 L 2830.000 51.000 L 2830.000 12.000 Z" />
</g>
<g id="part-233">
<path d="M 553.000 160.847 L 563.000 164.847 L 560.200 172.847 L 556.000 170.687 L 553.000 160.847 Z" />
</g>
<g id="part-234">
<path d="M 467.344 148.792 L 466.134 152.859 L 462.712 156.223 L 457.671 158.302 L 451.881 158.737 L 446.344 157.452 L 442.018 154.670 L 439.650 150.871 L 439.650 146.713 L 442.018 142.914 L 446.344 140.132 L 451.881 138.847 L 457.671 139.281 L 462.712 141.360 L 466.134 144.724 L 467.344 148.792 Z" />
</g>
<g id="part-235">
<path d="M 1904.704 160.847 L 1924.704 160.847 L 1924.704 168.847 L 1904.704 168.847 L 1904.704 160.847 Z" />
</g>
<g id="part-236">
<path d="M 1483.032 138.847 L 1496.032 138.847 L 1496.032 155.847 L 1483.032 155.847 L 1483.032 138.847 Z" />
</g>
<g id="part-237">
<path d="M 485.995 109.000 L 515.995 109.000 L 515.995 135.000 L 485.995 135.000 L 485.995 109.000 Z" />
</g>
<g id="part-238">
<path d="M 2920.662 138.847 L 2943.662 138.847 L 2943.662 151.847 L 2920.662 151.847 L 2920.662 138.847 Z" />
</g>
<g id="part-239">
<path d="M 2628.849 109.000 L 2644.849 109.000 L 2644.849 131.000 L 2628.849 131.000 L 2628.849 109.000 Z" />
</g>
<g id="part-240">
<path d="M 1954.849 109.000 L 2001.849 109.000 L 2001.849 132.000 L 1954.849 132.000 L 1954.849 109.000 Z" />
<path d="M 1969.889 116.360 L 1969.889 124.640 L 1986.809 124.640 L 1986.809 116.360 L 1969.889 116.360 Z" fill="#f7f7f2" fill-opacity="1" stroke="#163b5c" />
</g>
<g id="part-241">
<path d="M 926.000 12.000 L 964.000 12.000 L 964.000 58.000 L 926.000 58.000 L 926.000 12.000 Z" />
<path d="M 938.920 20.280 L 938.920 30.400 L 955.640 30.400 L 955.640 20.280 L 938.920 20.280 Z" fill="#f7f7f2" fill-opacity="1" stroke="#163b5c" />
<path d="M 938.920 39.600 L 938.920 49.720 L 955.640 49.720 L 955.640 39.600 L 938.920 39.600 Z" fill="#f7f7f2" fill-opacity="1" stroke="#163b5c" />
</g>
<g id="part-242">
<path d="M 2486.000 12.000 L 2520.000 12.000 L 2520.000 21.020 L 2497.560 21.020 L 2497.560 43.980 L 2520.000 43.980 L 2520.000 53.000 L 2486.000 53.000 L 2486.000 12.000 Z" />
</g>
<g id="part-243">
<path d="M 2727.662 138.847 L 2739.662 142.847 L 2736.302 152.847 L 2730.662 150.327 L 2727.662 138.847 Z" />
</g>
<g id="part-244">
<path d="M 1824.290 120.934 L 1823.080 125.815 L 1819.658 129.852 L 1814.617 132.347 L 1808.827 132.869 L 1803.290 131.327 L 1798.964 127.988 L 1796.596 123.429 L 1796.596 118.439 L 1798.964 113.881 L 1803.290 110.542 L 1808.827 109.000 L 1814.617 109.522 L 1819.658 112.017 L 1823.080 116.053 L 1824.290 120.934 Z" />
</g>
<g id="part-245">
<path d="M 1204.704 160.847 L 1226.704 160.847 L 1226.704 170.847 L 1204.704 170.847 L 1204.704 160.847 Z" />
</g>
<g id="part-246">
<path d="M 856.032 138.847 L 871.032 138.847 L 871.032 157.847 L 856.032 157.847 L 856.032 138.847 Z" />
</g>
<g id="part-247">
<path d="M 2349.000 70.000 L 2381.000 70.000 L 2381.000 98.000 L 2349.000 98.000 L 2349.000 70.000 Z" />
</g>
<g id="part-248">
<path d="M 2227.662 138.847 L 2252.662 138.847 L 2252.662 153.847 L 2227.662 153.847 L 2227.662 138.847 Z" />
</g>
<g id="part-249">
<path d="M 1547.995 109.000 L 1565.995 109.000 L 1565.995 133.000 L 1547.995 133.000 L 1547.995 109.000 Z" />
</g>
<g id="part-250">
<path d="M 1091.995 109.000 L 1116.995 109.000 L 1116.995 134.000 L 1091.995 134.000 L 1091.995 109.000 Z" />
<path d="M 1099.995 117.000 L 1099.995 126.000 L 1108.995 126.000 L 1108.995 117.000 L 1099.995 117.000 Z" fill="#f7f7f2" fill-opacity="1" stroke="#163b5c" />
</g>
<g id="part-251">
<path d="M 720.000 12.000 L 760.000 12.000 L 760.000 60.000 L 720.000 60.000 L 720.000 12.000 Z" />
<path d="M 733.600 20.640 L 733.600 31.200 L 751.200 31.200 L 751.200 20.640 L 733.600 20.640 Z" fill="#f7f7f2" fill-opacity="1" stroke="#163b5c" />
<path d="M 733.600 40.800 L 733.600 51.360 L 751.200 51.360 L 751.200 40.800 L 733.600 40.800 Z" fill="#f7f7f2" fill-opacity="1" stroke="#163b5c" />
</g>
<g id="part-252">
<path d="M 1496.000 12.000 L 1532.000 12.000 L 1532.000 21.460 L 1508.240 21.460 L 1508.240 45.540 L 1532.000 45.540 L 1532.000 55.000 L 1496.000 55.000 L 1496.000 12.000 Z" />
</g>
<g id="part-253">
<path d="M 1937.032 138.847 L 1951.032 142.847 L 1947.112 154.847 L 1940.032 151.967 L 1937.032 138.847 Z" />
</g>
<g id="part-254">
<path d="M 1693.645 120.934 L 1692.262 125.815 L 1688.351 129.852 L 1682.589 132.347 L 1675.973 132.869 L 1669.645 131.327 L 1664.701 127.988 L 1661.995 123.429 L 1661.995 118.439 L 1664.701 113.881 L 1669.645 110.542 L 1675.973 109.000 L 1682.589 109.522 L 1688.351 112.017 L 1692.262 116.053 L 1693.645 120.934 Z" />
</g>
<g id="part-255">
<path d="M 317.000 160.847 L 341.000 160.847 L 341.000 172.847 L 317.000 172.847 L 317.000 160.847 Z" />
</g>
<g id="part-256">
<path d="M 2890.849 109.000 L 2907.849 109.000 L 2907.849 130.000 L 2890.849 130.000 L 2890.849 109.000 Z" />
</g>
<g id="part-257">
<path d="M 2016.704 160.847 L 2026.704 160.847 L 2026.704 168.847 L 2016.704 168.847 L 2016.704 160.847 Z" />
</g>
<g id="part-258">
<path d="M 1366.032 138.847 L 1393.032 138.847 L 1393.032 155.847 L 1366.032 155.847 L 1366.032 138.847 Z" />
</g>
<g id="part-259">
<path d="M 733.995 109.000 L 753.995 109.000 L 753.995 135.000 L 733.995 135.000 L 733.995 109.000 Z" />
</g>
<g id="part-260">
<path d="M 227.995 109.000 L 254.995 109.000 L 254.995 136.000 L 227.995 136.000 L 227.995 109.000 Z" />
<path d="M 236.635 117.640 L 236.635 127.360 L 246.355 127.360 L 246.355 117.640 L 236.635 117.640 Z" fill="#f7f7f2" fill-opacity="1" stroke="#163b5c" />
</g>
<g id="part-261">
<path d="M 478.000 12.000 L 520.000 12.000 L 520.000 62.000 L 478.000 62.000 L 478.000 12.000 Z" />
<path d="M 492.280 21.000 L 492.280 32.000 L 510.760 32.000 L 510.760 21.000 L 492.280 21.000 Z" fill="#f7f7f2" fill-opacity="1" stroke="#163b5c" />
<path d="M 492.280 42.000 L 492.280 53.000 L 510.760 53.000 L 510.760 42.000 L 492.280 42.000 Z" fill="#f7f7f2" fill-opacity="1" stroke="#163b5c" />
</g>
<g id="part-262">
<path d="M 2157.000 70.000 L 2195.000 70.000 L 2195.000 76.160 L 2169.920 76.160 L 2169.920 91.840 L 2195.000 91.840 L 2195.000 98.000 L 2157.000 98.000 L 2157.000 70.000 Z" />
</g>
<g id="part-263">
<path d="M 1165.032 138.847 L 1181.032 142.847 L 1176.552 156.847 L 1168.032 153.607 L 1165.032 138.847 Z" />
</g>
<g id="part-264">
<path d="M 2905.951 83.923 L 2904.568 89.618 L 2900.657 94.327 L 2894.895 97.238 L 2888.279 97.847 L 2881.951 96.048 L 2877.007 92.152 L 2874.301 86.834 L 2874.301 81.013 L 2877.007 75.694 L 2881.951 71.799 L 2888.279 70.000 L 2894.895 70.609 L 2900.657 73.519 L 2904.568 78.229 L 2905.951 83.923 Z" />
</g>
<g id="part-265">
<path d="M 2539.662 138.847 L 2565.662 138.847 L 2565.662 152.847 L 2539.662 152.847 L 2539.662 138.847 Z" />
</g>
<g id="part-266">
<path d="M 2267.849 109.000 L 2286.849 109.000 L 2286.849 132.000 L 2267.849 132.000 L 2267.849 109.000 Z" />
</g>
<g id="part-267">
<path d="M 1318.704 160.847 L 1330.704 160.847 L 1330.704 170.847 L 1318.704 170.847 L 1318.704 160.847 Z" />
</g>
<g id="part-268">
<path d="M 729.032 138.847 L 758.032 138.847 L 758.032 157.847 L 729.032 157.847 L 729.032 138.847 Z" />
</g>
<g id="part-269">
<path d="M 2639.000 70.000 L 2661.000 70.000 L 2661.000 98.000 L 2639.000 98.000 L 2639.000 70.000 Z" />
</g>
<g id="part-270">
<path d="M 1519.000 70.000 L 1548.000 70.000 L 1548.000 99.000 L 1519.000 99.000 L 1519.000 70.000 Z" />
<path d="M 1528.280 79.280 L 1528.280 89.720 L 1538.720 89.720 L 1538.720 79.280 L 1528.280 79.280 Z" fill="#f7f7f2" fill-opacity="1" stroke="#163b5c" />
</g>
<g id="part-271">
<path d="M 248.000 12.000 L 292.000 12.000 L 292.000 64.000 L 248.000 64.000 L 248.000 12.000 Z" />
<path d="M 262.960 21.360 L 262.960 32.800 L 282.320 32.800 L 282.320 21.360 L 262.960 21.360 Z" fill="#f7f7f2" fill-opacity="1" stroke="#163b5c" />
<path d="M 262.960 43.200 L 262.960 54.640 L 282.320 54.640 L 282.320 43.200 L 262.960 43.200 Z" fill="#f7f7f2" fill-opacity="1" stroke="#163b5c" />
</g>
<g id="part-272">
<path d="M 2031.000 70.000 L 2071.000 70.000 L 2071.000 76.160 L 2044.600 76.160 L 2044.600 91.840 L 2071.000 91.840 L 2071.000 98.000 L 2031.000 98.000 L 2031.000 70.000 Z" />
</g>
<g id="part-273">
<path d="M 266.000 138.847 L 284.000 142.847 L 278.960 158.847 L 269.000 155.247 L 266.000 138.847 Z" />
</g>
<g id="part-274">
<path d="M 71.388 122.923 L 70.869 128.618 L 69.403 133.327 L 67.242 136.238 L 64.761 136.847 L 62.388 135.048 L 60.534 131.152 L 59.519 125.834 L 59.519 120.013 L 60.534 114.694 L 62.388 110.799 L 64.761 109.000 L 67.242 109.609 L 69.403 112.519 L 70.869 117.229 L 71.388 122.923 Z" />
</g>
<g id="part-275">
<path d="M 1643.032 138.847 L 1671.032 138.847 L 1671.032 154.847 L 1643.032 154.847 L 1643.032 138.847 Z" />
</g>
<g id="part-276">
<path d="M 1143.995 109.000 L 1164.995 109.000 L 1164.995 134.000 L 1143.995 134.000 L 1143.995 109.000 Z" />
</g>
<g id="part-277">
<path d="M 493.000 160.847 L 507.000 160.847 L 507.000 172.847 L 493.000 172.847 L 493.000 160.847 Z" />
</g>
<g id="part-278">
<path d="M 2753.849 109.000 L 2784.849 109.000 L 2784.849 130.000 L 2753.849 130.000 L 2753.849 109.000 Z" />
</g>
<g id="part-279">
<path d="M 1804.704 160.847 L 1828.704 160.847 L 1828.704 168.847 L 1804.704 168.847 L 1804.704 160.847 Z" />
</g>
<g id="part-280">
<path d="M 1140.000 70.000 L 1171.000 70.000 L 1171.000 101.000 L 1140.000 101.000 L 1140.000 70.000 Z" />
<path d="M 1149.920 79.920 L 1149.920 91.080 L 1161.080 91.080 L 1161.080 79.920 L 1149.920 79.920 Z" fill="#f7f7f2" fill-opacity="1" stroke="#163b5c" />
</g>
<g id="part-281">
<path d="M 196.000 12.000 L 220.000 12.000 L 220.000 66.000 L 196.000 66.000 L 196.000 12.000 Z" />
<path d="M 204.160 21.720 L 204.160 33.600 L 214.720 33.600 L 214.720 21.720 L 204.160 21.720 Z" fill="#f7f7f2" fill-opacity="1" stroke="#163b5c" />
<path d="M 204.160 44.400 L 204.160 56.280 L 214.720 56.280 L 214.720 44.400 L 204.160 44.400 Z" fill="#f7f7f2" fill-opacity="1" stroke="#163b5c" />
</g>
<g id="part-282">
<path d="M 1943.000 70.000 L 1985.000 70.000 L 1985.000 76.160 L 1957.280 76.160 L 1957.280 91.840 L 1985.000 91.840 L 1985.000 98.000 L 1943.000 98.000 L 1943.000 70.000 Z" />
</g>
<g id="part-283">
<path d="M 2566.849 109.000 L 2586.849 113.000 L 2581.249 131.000 L 2569.849 127.040 L 2566.849 109.000 Z" />
</g>
<g id="part-284">
<path d="M 2076.056 164.651 L 2074.910 167.002 L 2071.910 168.455 L 2068.202 168.455 L 2065.202 167.002 L 2064.056 164.651 L 2065.202 162.300 L 2068.202 160.847 L 2071.910 160.847 L 2074.910 162.300 L 2076.056 164.651 Z" />
</g>
<g id="part-285">
<path d="M 969.032 138.847 L 999.032 138.847 L 999.032 156.847 L 969.032 156.847 L 969.032 138.847 Z" />
</g>
<g id="part-286">
<path d="M 339.995 109.000 L 362.995 109.000 L 362.995 136.000 L 339.995 136.000 L 339.995 109.000 Z" />
</g>
<g id="part-287">
<path d="M 2677.662 138.847 L 2693.662 138.847 L 2693.662 152.847 L 2677.662 152.847 L 2677.662 138.847 Z" />
</g>
<g id="part-288">
<path d="M 2095.849 109.000 L 2128.849 109.000 L 2128.849 132.000 L 2095.849 132.000 L 2095.849 109.000 Z" />
</g>
<g id="part-289">
<path d="M 1124.704 160.847 L 1150.704 160.847 L 1150.704 170.847 L 1124.704 170.847 L 1124.704 160.847 Z" />
</g>
<g id="part-290">
<path d="M 798.000 70.000 L 831.000 70.000 L 831.000 103.000 L 798.000 103.000 L 798.000 70.000 Z" />
<path d="M 808.560 80.560 L 808.560 92.440 L 820.440 92.440 L 820.440 80.560 L 808.560 80.560 Z" fill="#f7f7f2" fill-opacity="1" stroke="#163b5c" />
</g>
<g id="part-291">
<path d="M 70.000 12.000 L 94.000 12.000 L 94.000 68.000 L 70.000 68.000 L 70.000 12.000 Z" />
<path d="M 78.160 22.080 L 78.160 34.400 L 88.720 34.400 L 88.720 22.080 L 78.160 22.080 Z" fill="#f7f7f2" fill-opacity="1" stroke="#163b5c" />
<path d="M 78.160 45.600 L 78.160 57.920 L 88.720 57.920 L 88.720 45.600 L 78.160 45.600 Z" fill="#f7f7f2" fill-opacity="1" stroke="#163b5c" />
</g>
<g id="part-292">
<path d="M 1330.000 70.000 L 1374.000 70.000 L 1374.000 76.380 L 1344.960 76.380 L 1344.960 92.620 L 1374.000 92.620 L 1374.000 99.000 L 1330.000 99.000 L 1330.000 70.000 Z" />
</g>
<g id="part-293">
<path d="M 1479.995 109.000 L 1501.995 113.000 L 1495.835 133.000 L 1482.995 128.680 L 1479.995 109.000 Z" />
</g>
<g id="part-294">
<path d="M 645.704 166.786 L 644.434 170.029 L 641.027 172.243 L 636.565 172.724 L 632.465 171.320 L 630.028 168.476 L 630.028 165.095 L 632.465 162.251 L 636.565 160.847 L 641.027 161.328 L 644.434 163.542 L 645.704 166.786 Z" />
</g>
<g id="part-295">
<path d="M 12.000 138.847 L 44.000 138.847 L 44.000 158.847 L 12.000 158.847 L 12.000 138.847 Z" />
</g>
<g id="part-296">
<path d="M 1608.000 70.000 L 1633.000 70.000 L 1633.000 99.000 L 1608.000 99.000 L 1608.000 70.000 Z" />
</g>
<g id="part-297">
<path d="M 1861.032 138.847 L 1879.032 138.847 L 1879.032 154.847 L 1861.032 154.847 L 1861.032 138.847 Z" />
</g>
<g id="part-298">
<path d="M 1238.995 109.000 L 1249.995 109.000 L 1249.995 134.000 L 1238.995 134.000 L 1238.995 109.000 Z" />
</g>
<g id="part-299">
<path d="M 231.000 160.847 L 259.000 160.847 L 259.000 172.847 L 231.000 172.847 L 231.000 160.847 Z" />
</g>
<g id="part-300">
<path d="M 462.000 70.000 L 497.000 70.000 L 497.000 105.000 L 462.000 105.000 L 462.000 70.000 Z" />
<path d="M 473.200 81.200 L 473.200 93.800 L 485.800 93.800 L 485.800 81.200 L 473.200 81.200 Z" fill="#f7f7f2" fill-opacity="1" stroke="#163b5c" />
</g>
<g id="part-301">
<path d="M 2129.000 12.000 L 2155.000 12.000 L 2155.000 54.000 L 2129.000 54.000 L 2129.000 12.000 Z" />
<path d="M 2137.840 19.560 L 2137.840 28.800 L 2149.280 28.800 L 2149.280 19.560 L 2137.840 19.560 Z" fill="#f7f7f2" fill-opacity="1" stroke="#163b5c" />
<path d="M 2137.840 37.200 L 2137.840 46.440 L 2149.280 46.440 L 2149.280 37.200 L 2137.840 37.200 Z" fill="#f7f7f2" fill-opacity="1" stroke="#163b5c" />
</g>
<g id="part-302">
<path d="M 974.000 70.000 L 1020.000 70.000 L 1020.000 76.820 L 989.640 76.820 L 989.640 94.180 L 1020.000 94.180 L 1020.000 101.000 L 974.000 101.000 L 974.000 70.000 Z" />
</g>
<g id="part-303">
<path d="M 659.995 109.000 L 683.995 113.000 L 677.275 135.000 L 662.995 130.320 L 659.995 109.000 Z" />
</g>
<g id="part-304">
<path d="M 592.676 166.786 L 591.406 170.029 L 587.999 172.243 L 583.537 172.724 L 579.437 171.320 L 577.000 168.476 L 577.000 165.095 L 579.437 162.251 L 583.537 160.847 L 587.999 161.328 L 591.406 163.542 L 592.676 166.786 Z" />
</g>
<g id="part-305">
<path d="M 2706.849 109.000 L 2716.849 109.000 L 2716.849 131.000 L 2706.849 131.000 L 2706.849 109.000 Z" />
</g>
<g id="part-306">
<path d="M 1420.704 160.847 L 1447.704 160.847 L 1447.704 169.847 L 1420.704 169.847 L 1420.704 160.847 Z" />
</g>
<g id="part-307">
<path d="M 1103.032 138.847 L 1123.032 138.847 L 1123.032 156.847 L 1103.032 156.847 L 1103.032 138.847 Z" />
</g>
<g id="part-308">
<path d="M 423.995 109.000 L 436.995 109.000 L 436.995 136.000 L 423.995 136.000 L 423.995 109.000 Z" />
</g>
<g id="part-309">
<path d="M 2415.662 138.847 L 2445.662 138.847 L 2445.662 152.847 L 2415.662 152.847 L 2415.662 138.847 Z" />
</g>
<g id="part-310">
<path d="M 96.000 70.000 L 133.000 70.000 L 133.000 107.000 L 96.000 107.000 L 96.000 70.000 Z" />
<path d="M 107.840 81.840 L 107.840 95.160 L 121.160 95.160 L 121.160 81.840 L 107.840 81.840 Z" fill="#f7f7f2" fill-opacity="1" stroke="#163b5c" />
</g>
<g id="part-311">
<path d="M 2011.000 12.000 L 2039.000 12.000 L 2039.000 54.000 L 2011.000 54.000 L 2011.000 12.000 Z" />
<path d="M 2020.520 19.560 L 2020.520 28.800 L 2032.840 28.800 L 2032.840 19.560 L 2020.520 19.560 Z" fill="#f7f7f2" fill-opacity="1" stroke="#163b5c" />
<path d="M 2020.520 37.200 L 2020.520 46.440 L 2032.840 46.440 L 2032.840 37.200 L 2020.520 37.200 Z" fill="#f7f7f2" fill-opacity="1" stroke="#163b5c" />
</g>
<g id="part-312">
<path d="M 624.000 70.000 L 672.000 70.000 L 672.000 77.260 L 640.320 77.260 L 640.320 95.740 L 672.000 95.740 L 672.000 103.000 L 624.000 103.000 L 624.000 70.000 Z" />
</g>
<g id="part-313">
<path d="M 2507.000 70.000 L 2533.000 74.000 L 2525.720 98.000 L 2510.000 92.960 L 2507.000 70.000 Z" />
</g>
<g id="part-314">
<path d="M 1793.032 146.847 L 1791.692 150.847 L 1788.032 153.775 L 1783.032 154.847 L 1778.032 153.775 L 1774.372 150.847 L 1773.032 146.847 L 1774.372 142.847 L 1778.032 139.918 L 1783.032 138.847 L 1788.032 139.918 L 1791.692 142.847 L 1793.032 146.847 Z" />
</g>
<g id="part-315">
<path d="M 1635.995 109.000 L 1647.995 109.000 L 1647.995 133.000 L 1635.995 133.000 L 1635.995 109.000 Z" />
</g>
<g id="part-316">
<path d="M 729.704 160.847 L 758.704 160.847 L 758.704 171.847 L 729.704 171.847 L 729.704 160.847 Z" />
</g>
<g id="part-317">
<path d="M 132.000 138.847 L 154.000 138.847 L 154.000 158.847 L 132.000 158.847 L 132.000 138.847 Z" />
</g>
<g id="part-318">
<path d="M 1727.000 70.000 L 1742.000 70.000 L 1742.000 99.000 L 1727.000 99.000 L 1727.000 70.000 Z" />
</g>
<g id="part-319">
<path d="M 1545.032 138.847 L 1577.032 138.847 L 1577.032 154.847 L 1545.032 154.847 L 1545.032 138.847 Z" />
</g>
<g id="part-320">
<path d="M 2676.000 12.000 L 2715.000 12.000 L 2715.000 51.000 L 2676.000 51.000 L 2676.000 12.000 Z" />
<path d="M 2688.480 24.480 L 2688.480 38.520 L 2702.520 38.520 L 2702.520 24.480 L 2688.480 24.480 Z" fill="#f7f7f2" fill-opacity="1" stroke="#163b5c" />
</g>
<g id="part-321">
<path d="M 1947.000 12.000 L 1977.000 12.000 L 1977.000 54.000 L 1947.000 54.000 L 1947.000 12.000 Z" />
<path d="M 1957.200 19.560 L 1957.200 28.800 L 1970.400 28.800 L 1970.400 19.560 L 1957.200 19.560 Z" fill="#f7f7f2" fill-opacity="1" stroke="#163b5c" />
<path d="M 1957.200 37.200 L 1957.200 46.440 L 1970.400 46.440 L 1970.400 37.200 L 1957.200 37.200 Z" fill="#f7f7f2" fill-opacity="1" stroke="#163b5c" />
</g>
<g id="part-322">
<path d="M 596.000 70.000 L 622.000 70.000 L 622.000 77.700 L 604.840 77.700 L 604.840 97.300 L 622.000 97.300 L 622.000 105.000 L 596.000 105.000 L 596.000 70.000 Z" />
</g>
<g id="part-323">
<path d="M 1688.704 160.847 L 1716.704 164.847 L 1708.864 168.847 L 1691.704 167.407 L 1688.704 160.847 Z" />
</g>
<g id="part-324">
<path d="M 1815.032 146.847 L 1813.692 150.847 L 1810.032 153.775 L 1805.032 154.847 L 1800.032 153.775 L 1796.372 150.847 L 1795.032 146.847 L 1796.372 142.847 L 1800.032 139.918 L 1805.032 138.847 L 1810.032 139.918 L 1813.692 142.847 L 1815.032 146.847 Z" />
</g>
<g id="part-325">
<path d="M 831.995 109.000 L 845.995 109.000 L 845.995 135.000 L 831.995 135.000 L 831.995 109.000 Z" />
</g>
<g id="part-326">
<path d="M 2800.662 138.847 L 2831.662 138.847 L 2831.662 151.847 L 2800.662 151.847 L 2800.662 138.847 Z" />
</g>
<g id="part-327">
<path d="M 2470.849 109.000 L 2494.849 109.000 L 2494.849 131.000 L 2470.849 131.000 L 2470.849 109.000 Z" />
</g>
<g id="part-328">
<path d="M 1520.704 160.847 L 1537.704 160.847 L 1537.704 169.847 L 1520.704 169.847 L 1520.704 160.847 Z" />
</g>
<g id="part-329">
<path d="M 1255.032 138.847 L 1265.032 138.847 L 1265.032 156.847 L 1255.032 156.847 L 1255.032 138.847 Z" />
</g>
<g id="part-330">
<path d="M 2324.000 12.000 L 2365.000 12.000 L 2365.000 53.000 L 2324.000 53.000 L 2324.000 12.000 Z" />
<path d="M 2337.120 25.120 L 2337.120 39.880 L 2351.880 39.880 L 2351.880 25.120 L 2337.120 25.120 Z" fill="#f7f7f2" fill-opacity="1" stroke="#163b5c" />
</g>
<g id="part-331">
<path d="M 1815.000 12.000 L 1847.000 12.000 L 1847.000 54.000 L 1815.000 54.000 L 1815.000 12.000 Z" />
<path d="M 1825.880 19.560 L 1825.880 28.800 L 1839.960 28.800 L 1839.960 19.560 L 1825.880 19.560 Z" fill="#f7f7f2" fill-opacity="1" stroke="#163b5c" />
<path d="M 1825.880 37.200 L 1825.880 46.440 L 1839.960 46.440 L 1839.960 37.200 L 1825.880 37.200 Z" fill="#f7f7f2" fill-opacity="1" stroke="#163b5c" />
</g>
<g id="part-332">
<path d="M 274.000 70.000 L 302.000 70.000 L 302.000 78.140 L 283.520 78.140 L 283.520 98.860 L 302.000 98.860 L 302.000 107.000 L 274.000 107.000 L 274.000 70.000 Z" />
</g>
<g id="part-333">
<path d="M 972.704 160.847 L 1002.704 164.847 L 994.304 170.847 L 975.704 169.047 L 972.704 160.847 Z" />
</g>
<g id="part-334">
<path d="M 659.032 148.774 L 657.657 153.421 L 653.849 157.004 L 648.478 158.701 L 642.777 158.124 L 638.050 155.405 L 635.381 151.167 L 635.381 146.381 L 638.050 142.142 L 642.777 139.424 L 648.478 138.847 L 653.849 140.544 L 657.657 144.126 L 659.032 148.774 Z" />
</g>
<g id="part-335">
<path d="M 2747.000 70.000 L 2763.000 70.000 L 2763.000 98.000 L 2747.000 98.000 L 2747.000 70.000 Z" />
</g>
<g id="part-336">
<path d="M 2099.662 138.847 L 2132.662 138.847 L 2132.662 153.847 L 2099.662 153.847 L 2099.662 138.847 Z" />
</g>
<g id="part-337">
<path d="M 1347.995 109.000 L 1373.995 109.000 L 1373.995 133.000 L 1347.995 133.000 L 1347.995 109.000 Z" />
</g>
<g id="part-338">
<path d="M 864.704 160.847 L 883.704 160.847 L 883.704 171.847 L 864.704 171.847 L 864.704 160.847 Z" />
</g>
<g id="part-339">
<path d="M 368.000 138.847 L 380.000 138.847 L 380.000 158.847 L 368.000 158.847 L 368.000 138.847 Z" />
</g>
<g id="part-340">
<path d="M 1326.000 12.000 L 1369.000 12.000 L 1369.000 55.000 L 1326.000 55.000 L 1326.000 12.000 Z" />
<path d="M 1339.760 25.760 L 1339.760 41.240 L 1355.240 41.240 L 1355.240 25.760 L 1339.760 25.760 Z" fill="#f7f7f2" fill-opacity="1" stroke="#163b5c" />
</g>
<g id="part-341">
<path d="M 1160.000 12.000 L 1194.000 12.000 L 1194.000 56.000 L 1160.000 56.000 L 1160.000 12.000 Z" />
<path d="M 1171.560 19.920 L 1171.560 29.600 L 1186.520 29.600 L 1186.520 19.920 L 1171.560 19.920 Z" fill="#f7f7f2" fill-opacity="1" stroke="#163b5c" />
<path d="M 1171.560 38.400 L 1171.560 48.080 L 1186.520 48.080 L 1186.520 38.400 L 1171.560 38.400 Z" fill="#f7f7f2" fill-opacity="1" stroke="#163b5c" />
</g>
<g id="part-342">
<path d="M 2864.000 12.000 L 2894.000 12.000 L 2894.000 20.580 L 2874.200 20.580 L 2874.200 42.420 L 2894.000 42.420 L 2894.000 51.000 L 2864.000 51.000 L 2864.000 12.000 Z" />
</g>
<g id="part-343">
<path d="M 103.000 160.847 L 135.000 164.847 L 126.040 172.847 L 106.000 170.687 L 103.000 160.847 Z" />
</g>
<g id="part-344">
<path d="M 633.381 148.774 L 632.006 153.421 L 628.197 157.004 L 622.827 158.701 L 617.125 158.124 L 612.398 155.405 L 609.729 151.167 L 609.729 146.381 L 612.398 142.142 L 617.125 139.424 L 622.827 138.847 L 628.197 140.544 L 632.006 144.126 L 633.381 148.774 Z" />
</g>
<g id="part-345">
<path d="M 1948.704 160.847 L 1966.704 160.847 L 1966.704 168.847 L 1948.704 168.847 L 1948.704 160.847 Z" />
</g>
<g id="part-346">
<path d="M 1498.032 138.847 L 1509.032 138.847 L 1509.032 155.847 L 1498.032 155.847 L 1498.032 138.847 Z" />
</g>
<g id="part-347">
<path d="M 547.995 109.000 L 575.995 109.000 L 575.995 135.000 L 547.995 135.000 L 547.995 109.000 Z" />
</g>
<g id="part-348">
<path d="M 12.000 160.847 L 33.000 160.847 L 33.000 173.847 L 12.000 173.847 L 12.000 160.847 Z" />
</g>
<g id="part-349">
<path d="M 2662.849 109.000 L 2676.849 109.000 L 2676.849 131.000 L 2662.849 131.000 L 2662.849 109.000 Z" />
</g>
<g id="part-350">
<path d="M 2003.849 109.000 L 2048.849 109.000 L 2048.849 132.000 L 2003.849 132.000 L 2003.849 109.000 Z" />
<path d="M 2018.249 116.360 L 2018.249 124.640 L 2034.449 124.640 L 2034.449 116.360 L 2018.249 116.360 Z" fill="#f7f7f2" fill-opacity="1" stroke="#163b5c" />
</g>
<g id="part-351">
<path d="M 966.000 12.000 L 1002.000 12.000 L 1002.000 58.000 L 966.000 58.000 L 966.000 12.000 Z" />
<path d="M 978.240 20.280 L 978.240 30.400 L 994.080 30.400 L 994.080 20.280 L 978.240 20.280 Z" fill="#f7f7f2" fill-opacity="1" stroke="#163b5c" />
<path d="M 978.240 39.600 L 978.240 49.720 L 994.080 49.720 L 994.080 39.600 L 978.240 39.600 Z" fill="#f7f7f2" fill-opacity="1" stroke="#163b5c" />
</g>
<g id="part-352">
<path d="M 2522.000 12.000 L 2554.000 12.000 L 2554.000 21.020 L 2532.880 21.020 L 2532.880 43.980 L 2554.000 43.980 L 2554.000 53.000 L 2522.000 53.000 L 2522.000 12.000 Z" />
</g>
<g id="part-353">
<path d="M 2741.662 138.847 L 2751.662 142.847 L 2748.862 152.847 L 2744.662 150.327 L 2741.662 138.847 Z" />
</g>
<g id="part-354">
<path d="M 1883.678 120.934 L 1882.468 125.815 L 1879.046 129.852 L 1874.005 132.347 L 1868.215 132.869 L 1862.678 131.327 L 1858.352 127.988 L 1855.984 123.429 L 1855.984 118.439 L 1858.352 113.881 L 1862.678 110.542 L 1868.215 109.000 L 1874.005 109.522 L 1879.046 112.017 L 1882.468 116.053 L 1883.678 120.934 Z" />
</g>
<g id="part-355">
<path d="M 1228.704 160.847 L 1248.704 160.847 L 1248.704 170.847 L 1228.704 170.847 L 1228.704 160.847 Z" />
</g>
<g id="part-356">
<path d="M 873.032 138.847 L 886.032 138.847 L 886.032 157.847 L 873.032 157.847 L 873.032 138.847 Z" />
</g>
<g id="part-357">
<path d="M 2415.000 70.000 L 2445.000 70.000 L 2445.000 98.000 L 2415.000 98.000 L 2415.000 70.000 Z" />
</g>
<g id="part-358">
<path d="M 2254.662 138.847 L 2277.662 138.847 L 2277.662 153.847 L 2254.662 153.847 L 2254.662 138.847 Z" />
</g>
<g id="part-359">
<path d="M 1567.995 109.000 L 1583.995 109.000 L 1583.995 133.000 L 1567.995 133.000 L 1567.995 109.000 Z" />
</g>
<g id="part-360">
<path d="M 873.995 109.000 L 920.995 109.000 L 920.995 134.000 L 873.995 134.000 L 873.995 109.000 Z" />
<path d="M 889.035 117.000 L 889.035 126.000 L 905.955 126.000 L 905.955 117.000 L 889.035 117.000 Z" fill="#f7f7f2" fill-opacity="1" stroke="#163b5c" />
</g>
<g id="part-361">
<path d="M 762.000 12.000 L 800.000 12.000 L 800.000 60.000 L 762.000 60.000 L 762.000 12.000 Z" />
<path d="M 774.920 20.640 L 774.920 31.200 L 791.640 31.200 L 791.640 20.640 L 774.920 20.640 Z" fill="#f7f7f2" fill-opacity="1" stroke="#163b5c" />
<path d="M 774.920 40.800 L 774.920 51.360 L 791.640 51.360 L 791.640 40.800 L 774.920 40.800 Z" fill="#f7f7f2" fill-opacity="1" stroke="#163b5c" />
</g>
<g id="part-362">
<path d="M 1534.000 12.000 L 1568.000 12.000 L 1568.000 21.460 L 1545.560 21.460 L 1545.560 45.540 L 1568.000 45.540 L 1568.000 55.000 L 1534.000 55.000 L 1534.000 12.000 Z" />
</g>
<g id="part-363">
<path d="M 1953.032 138.847 L 1965.032 142.847 L 1961.672 154.847 L 1956.032 151.967 L 1953.032 138.847 Z" />
</g>
<g id="part-364">
<path d="M 1913.373 120.934 L 1912.162 125.815 L 1908.740 129.852 L 1903.699 132.347 L 1897.909 132.869 L 1892.373 131.327 L 1888.046 127.988 L 1885.678 123.429 L 1885.678 118.439 L 1888.046 113.881 L 1892.373 110.542 L 1897.909 109.000 L 1903.699 109.522 L 1908.740 112.017 L 1912.162 116.053 L 1913.373 120.934 Z" />
</g>
<g id="part-365">
<path d="M 343.000 160.847 L 365.000 160.847 L 365.000 172.847 L 343.000 172.847 L 343.000 160.847 Z" />
</g>
<g id="part-366">
<path d="M 2909.849 109.000 L 2924.849 109.000 L 2924.849 130.000 L 2909.849 130.000 L 2909.849 109.000 Z" />
</g>
<g id="part-367">
<path d="M 1556.704 160.847 L 1588.704 160.847 L 1588.704 168.847 L 1556.704 168.847 L 1556.704 160.847 Z" />
</g>
<g id="part-368">
<path d="M 1395.032 138.847 L 1420.032 138.847 L 1420.032 155.847 L 1395.032 155.847 L 1395.032 138.847 Z" />
</g>
<g id="part-369">
<path d="M 775.995 109.000 L 793.995 109.000 L 793.995 135.000 L 775.995 135.000 L 775.995 109.000 Z" />
</g>
<g id="part-370">
<path d="M 312.995 109.000 L 337.995 109.000 L 337.995 136.000 L 312.995 136.000 L 312.995 109.000 Z" />
<path d="M 320.995 117.640 L 320.995 127.360 L 329.995 127.360 L 329.995 117.640 L 320.995 117.640 Z" fill="#f7f7f2" fill-opacity="1" stroke="#163b5c" />
</g>
<g id="part-371">
<path d="M 522.000 12.000 L 562.000 12.000 L 562.000 62.000 L 522.000 62.000 L 522.000 12.000 Z" />
<path d="M 535.600 21.000 L 535.600 32.000 L 553.200 32.000 L 553.200 21.000 L 535.600 21.000 Z" fill="#f7f7f2" fill-opacity="1" stroke="#163b5c" />
<path d="M 535.600 42.000 L 535.600 53.000 L 553.200 53.000 L 553.200 42.000 L 535.600 42.000 Z" fill="#f7f7f2" fill-opacity="1" stroke="#163b5c" />
</g>
<g id="part-372">
<path d="M 2275.000 70.000 L 2311.000 70.000 L 2311.000 76.160 L 2287.240 76.160 L 2287.240 91.840 L 2311.000 91.840 L 2311.000 98.000 L 2275.000 98.000 L 2275.000 70.000 Z" />
</g>
<g id="part-373">
<path d="M 1183.032 138.847 L 1197.032 142.847 L 1193.112 156.847 L 1186.032 153.607 L 1183.032 138.847 Z" />
</g>
<g id="part-374">
<path d="M 2872.301 83.923 L 2870.917 89.618 L 2867.007 94.327 L 2861.245 97.238 L 2854.628 97.847 L 2848.301 96.048 L 2843.356 92.152 L 2840.650 86.834 L 2840.650 81.013 L 2843.356 75.694 L 2848.301 71.799 L 2854.628 70.000 L 2861.245 70.609 L 2867.007 73.519 L 2870.917 78.229 L 2872.301 83.923 Z" />
</g>
<g id="part-375">
<path d="M 2567.662 138.847 L 2591.662 138.847 L 2591.662 152.847 L 2567.662 152.847 L 2567.662 138.847 Z" />
</g>
<g id="part-376">
<path d="M 2288.849 109.000 L 2305.849 109.000 L 2305.849 132.000 L 2288.849 132.000 L 2288.849 109.000 Z" />
</g>
<g id="part-377">
<path d="M 1332.704 160.847 L 1342.704 160.847 L 1342.704 170.847 L 1332.704 170.847 L 1332.704 160.847 Z" />
</g>
<g id="part-378">
<path d="M 760.032 138.847 L 787.032 138.847 L 787.032 157.847 L 760.032 157.847 L 760.032 138.847 Z" />
</g>
<g id="part-379">
<path d="M 2685.000 70.000 L 2705.000 70.000 L 2705.000 98.000 L 2685.000 98.000 L 2685.000 70.000 Z" />
</g>
<g id="part-380">
<path d="M 1579.000 70.000 L 1606.000 70.000 L 1606.000 99.000 L 1579.000 99.000 L 1579.000 70.000 Z" />
<path d="M 1587.640 79.280 L 1587.640 89.720 L 1597.360 89.720 L 1597.360 79.280 L 1587.640 79.280 Z" fill="#f7f7f2" fill-opacity="1" stroke="#163b5c" />
</g>
<g id="part-381">
<path d="M 294.000 12.000 L 336.000 12.000 L 336.000 64.000 L 294.000 64.000 L 294.000 12.000 Z" />
<path d="M 308.280 21.360 L 308.280 32.800 L 326.760 32.800 L 326.760 21.360 L 308.280 21.360 Z" fill="#f7f7f2" fill-opacity="1" stroke="#163b5c" />
<path d="M 308.280 43.200 L 308.280 54.640 L 326.760 54.640 L 326.760 43.200 L 308.280 43.200 Z" fill="#f7f7f2" fill-opacity="1" stroke="#163b5c" />
</g>
<g id="part-382">
<path d="M 2197.000 70.000 L 2235.000 70.000 L 2235.000 76.160 L 2209.920 76.160 L 2209.920 91.840 L 2235.000 91.840 L 2235.000 98.000 L 2197.000 98.000 L 2197.000 70.000 Z" />
</g>
<g id="part-383">
<path d="M 286.000 138.847 L 302.000 142.847 L 297.520 158.847 L 289.000 155.247 L 286.000 138.847 Z" />
</g>
<g id="part-384">
<path d="M 2838.650 83.923 L 2837.267 89.618 L 2833.356 94.327 L 2827.595 97.238 L 2820.978 97.847 L 2814.650 96.048 L 2809.706 92.152 L 2807.000 86.834 L 2807.000 81.013 L 2809.706 75.694 L 2814.650 71.799 L 2820.978 70.000 L 2827.595 70.609 L 2833.356 73.519 L 2837.267 78.229 L 2838.650 83.923 Z" />
</g>
<g id="part-385">
<path d="M 1673.032 138.847 L 1699.032 138.847 L 1699.032 154.847 L 1673.032 154.847 L 1673.032 138.847 Z" />
</g>
<g id="part-386">
<path d="M 1166.995 109.000 L 1185.995 109.000 L 1185.995 134.000 L 1166.995 134.000 L 1166.995 109.000 Z" />
</g>
<g id="part-387">
<path d="M 539.000 160.847 L 551.000 160.847 L 551.000 172.847 L 539.000 172.847 L 539.000 160.847 Z" />
</g>
<g id="part-388">
<path d="M 2786.849 109.000 L 2815.849 109.000 L 2815.849 130.000 L 2786.849 130.000 L 2786.849 109.000 Z" />
</g>
<g id="part-389">
<path d="M 1856.704 160.847 L 1878.704 160.847 L 1878.704 168.847 L 1856.704 168.847 L 1856.704 160.847 Z" />
</g>
<g id="part-390">
<path d="M 1173.000 70.000 L 1202.000 70.000 L 1202.000 101.000 L 1173.000 101.000 L 1173.000 70.000 Z" />
<path d="M 1182.280 79.920 L 1182.280 91.080 L 1192.720 91.080 L 1192.720 79.920 L 1182.280 79.920 Z" fill="#f7f7f2" fill-opacity="1" stroke="#163b5c" />
</g>
<g id="part-391">
<path d="M 122.000 12.000 L 166.000 12.000 L 166.000 66.000 L 122.000 66.000 L 122.000 12.000 Z" />
<path d="M 136.960 21.720 L 136.960 33.600 L 156.320 33.600 L 156.320 21.720 L 136.960 21.720 Z" fill="#f7f7f2" fill-opacity="1" stroke="#163b5c" />
<path d="M 136.960 44.400 L 136.960 56.280 L 156.320 56.280 L 156.320 44.400 L 136.960 44.400 Z" fill="#f7f7f2" fill-opacity="1" stroke="#163b5c" />
</g>
<g id="part-392">
<path d="M 2073.000 70.000 L 2113.000 70.000 L 2113.000 76.160 L 2086.600 76.160 L 2086.600 91.840 L 2113.000 91.840 L 2113.000 98.000 L 2073.000 98.000 L 2073.000 70.000 Z" />
</g>
<g id="part-393">
<path d="M 2588.849 109.000 L 2606.849 113.000 L 2601.809 131.000 L 2591.849 127.040 L 2588.849 109.000 Z" />
</g>
<g id="part-394">
<path d="M 2090.056 164.651 L 2088.910 167.002 L 2085.910 168.455 L 2082.202 168.455 L 2079.202 167.002 L 2078.056 164.651 L 2079.202 162.300 L 2082.202 160.847 L 2085.910 160.847 L 2088.910 162.300 L 2090.056 164.651 Z" />
</g>
<g id="part-395">
<path d="M 1001.032 138.847 L 1029.032 138.847 L 1029.032 156.847 L 1001.032 156.847 L 1001.032 138.847 Z" />
</g>
<g id="part-396">
<path d="M 364.995 109.000 L 385.995 109.000 L 385.995 136.000 L 364.995 136.000 L 364.995 109.000 Z" />
</g>
<g id="part-397">
<path d="M 2711.662 138.847 L 2725.662 138.847 L 2725.662 152.847 L 2711.662 152.847 L 2711.662 138.847 Z" />
</g>
<g id="part-398">
<path d="M 2130.849 109.000 L 2161.849 109.000 L 2161.849 132.000 L 2130.849 132.000 L 2130.849 109.000 Z" />
</g>
<g id="part-399">
<path d="M 1178.704 160.847 L 1202.704 160.847 L 1202.704 170.847 L 1178.704 170.847 L 1178.704 160.847 Z" />
</g>
<g id="part-400">
<path d="M 833.000 70.000 L 864.000 70.000 L 864.000 103.000 L 833.000 103.000 L 833.000 70.000 Z" />
<path d="M 842.920 80.560 L 842.920 92.440 L 854.080 92.440 L 854.080 80.560 L 842.920 80.560 Z" fill="#f7f7f2" fill-opacity="1" stroke="#163b5c" />
</g>
<g id="part-401">
<path d="M 96.000 12.000 L 120.000 12.000 L 120.000 68.000 L 96.000 68.000 L 96.000 12.000 Z" />
<path d="M 104.160 22.080 L 104.160 34.400 L 114.720 34.400 L 114.720 22.080 L 104.160 22.080 Z" fill="#f7f7f2" fill-opacity="1" stroke="#163b5c" />
<path d="M 104.160 45.600 L 104.160 57.920 L 114.720 57.920 L 114.720 45.600 L 104.160 45.600 Z" fill="#f7f7f2" fill-opacity="1" stroke="#163b5c" />
</g>
<g id="part-402">
<path d="M 1376.000 70.000 L 1418.000 70.000 L 1418.000 76.380 L 1390.280 76.380 L 1390.280 92.620 L 1418.000 92.620 L 1418.000 99.000 L 1376.000 99.000 L 1376.000 70.000 Z" />
</g>
<g id="part-403">
<path d="M 1503.995 109.000 L 1523.995 113.000 L 1518.395 133.000 L 1506.995 128.680 L 1503.995 109.000 Z" />
</g>
<g id="part-404">
<path d="M 659.704 166.553 L 658.558 170.080 L 655.558 172.259 L 651.850 172.259 L 648.850 170.080 L 647.704 166.553 L 648.850 163.026 L 651.850 160.847 L 655.558 160.847 L 658.558 163.026 L 659.704 166.553 Z" />
</g>
<g id="part-405">
<path d="M 46.000 138.847 L 76.000 138.847 L 76.000 158.847 L 46.000 158.847 L 46.000 138.847 Z" />
</g>
<g id="part-406">
<path d="M 1662.000 70.000 L 1685.000 70.000 L 1685.000 99.000 L 1662.000 99.000 L 1662.000 70.000 Z" />
</g>
<g id="part-407">
<path d="M 1919.032 138.847 L 1935.032 138.847 L 1935.032 154.847 L 1919.032 154.847 L 1919.032 138.847 Z" />
</g>
<g id="part-408">
<path d="M 969.995 109.000 L 1002.995 109.000 L 1002.995 134.000 L 969.995 134.000 L 969.995 109.000 Z" />
</g>
<g id="part-409">
<path d="M 289.000 160.847 L 315.000 160.847 L 315.000 172.847 L 289.000 172.847 L 289.000 160.847 Z" />
</g>
<g id="part-410">
<path d="M 499.000 70.000 L 532.000 70.000 L 532.000 105.000 L 499.000 105.000 L 499.000 70.000 Z" />
<path d="M 509.560 81.200 L 509.560 93.800 L 521.440 93.800 L 521.440 81.200 L 509.560 81.200 Z" fill="#f7f7f2" fill-opacity="1" stroke="#163b5c" />
</g>
<g id="part-411">
<path d="M 2157.000 12.000 L 2181.000 12.000 L 2181.000 54.000 L 2157.000 54.000 L 2157.000 12.000 Z" />
<path d="M 2165.160 19.560 L 2165.160 28.800 L 2175.720 28.800 L 2175.720 19.560 L 2165.160 19.560 Z" fill="#f7f7f2" fill-opacity="1" stroke="#163b5c" />
<path d="M 2165.160 37.200 L 2165.160 46.440 L 2175.720 46.440 L 2175.720 37.200 L 2165.160 37.200 Z" fill="#f7f7f2" fill-opacity="1" stroke="#163b5c" />
</g>
<g id="part-412">
<path d="M 1022.000 70.000 L 1066.000 70.000 L 1066.000 76.820 L 1036.960 76.820 L 1036.960 94.180 L 1066.000 94.180 L 1066.000 101.000 L 1022.000 101.000 L 1022.000 70.000 Z" />
</g>
<g id="part-413">
<path d="M 685.995 109.000 L 707.995 113.000 L 701.835 135.000 L 688.995 130.320 L 685.995 109.000 Z" />
</g>
<g id="part-414">
<path d="M 610.352 166.786 L 609.082 170.029 L 605.675 172.243 L 601.213 172.724 L 597.113 171.320 L 594.676 168.476 L 594.676 165.095 L 597.113 162.251 L 601.213 160.847 L 605.675 161.328 L 609.082 163.542 L 610.352 166.786 Z" />
</g>
<g id="part-415">
<path d="M 2352.849 109.000 L 2384.849 109.000 L 2384.849 131.000 L 2352.849 131.000 L 2352.849 109.000 Z" />
</g>
<g id="part-416">
<path d="M 1449.704 160.847 L 1474.704 160.847 L 1474.704 169.847 L 1449.704 169.847 L 1449.704 160.847 Z" />
</g>
<g id="part-417">
<path d="M 1125.032 138.847 L 1143.032 138.847 L 1143.032 156.847 L 1125.032 156.847 L 1125.032 138.847 Z" />
</g>
<g id="part-418">
<path d="M 438.995 109.000 L 449.995 109.000 L 449.995 136.000 L 438.995 136.000 L 438.995 109.000 Z" />
</g>
<g id="part-419">
<path d="M 2479.662 138.847 L 2507.662 138.847 L 2507.662 152.847 L 2479.662 152.847 L 2479.662 138.847 Z" />
</g>
<g id="part-420">
<path d="M 135.000 70.000 L 170.000 70.000 L 170.000 107.000 L 135.000 107.000 L 135.000 70.000 Z" />
<path d="M 146.200 81.840 L 146.200 95.160 L 158.800 95.160 L 158.800 81.840 L 146.200 81.840 Z" fill="#f7f7f2" fill-opacity="1" stroke="#163b5c" />
</g>
<g id="part-421">
<path d="M 2101.000 12.000 L 2127.000 12.000 L 2127.000 54.000 L 2101.000 54.000 L 2101.000 12.000 Z" />
<path d="M 2109.840 19.560 L 2109.840 28.800 L 2121.280 28.800 L 2121.280 19.560 L 2109.840 19.560 Z" fill="#f7f7f2" fill-opacity="1" stroke="#163b5c" />
<path d="M 2109.840 37.200 L 2109.840 46.440 L 2121.280 46.440 L 2121.280 37.200 L 2109.840 37.200 Z" fill="#f7f7f2" fill-opacity="1" stroke="#163b5c" />
</g>
<g id="part-422">
<path d="M 674.000 70.000 L 720.000 70.000 L 720.000 77.260 L 689.640 77.260 L 689.640 95.740 L 720.000 95.740 L 720.000 103.000 L 674.000 103.000 L 674.000 70.000 Z" />
</g>
<g id="part-423">
<path d="M 2563.000 70.000 L 2587.000 74.000 L 2580.280 98.000 L 2566.000 92.960 L 2563.000 70.000 Z" />
</g>
<g id="part-424">
<path d="M 2097.662 146.765 L 2096.392 151.090 L 2092.985 154.042 L 2088.523 154.684 L 2084.423 152.811 L 2081.986 149.019 L 2081.986 144.511 L 2084.423 140.719 L 2088.523 138.847 L 2092.985 139.488 L 2096.392 142.440 L 2097.662 146.765 Z" />
</g>
<g id="part-425">
<path d="M 1649.995 109.000 L 1659.995 109.000 L 1659.995 133.000 L 1649.995 133.000 L 1649.995 109.000 Z" />
</g>
<g id="part-426">
<path d="M 760.704 160.847 L 787.704 160.847 L 787.704 171.847 L 760.704 171.847 L 760.704 160.847 Z" />
</g>
<g id="part-427">
<path d="M 202.000 138.847 L 222.000 138.847 L 222.000 158.847 L 202.000 158.847 L 202.000 138.847 Z" />
</g>
<g id="part-428">
<path d="M 1744.000 70.000 L 1757.000 70.000 L 1757.000 99.000 L 1744.000 99.000 L 1744.000 70.000 Z" />
</g>
<g id="part-429">
<path d="M 1579.032 138.847 L 1609.032 138.847 L 1609.032 154.847 L 1579.032 154.847 L 1579.032 138.847 Z" />
</g>
<g id="part-430">
<path d="M 2717.000 12.000 L 2754.000 12.000 L 2754.000 51.000 L 2717.000 51.000 L 2717.000 12.000 Z" />
<path d="M 2728.840 24.480 L 2728.840 38.520 L 2742.160 38.520 L 2742.160 24.480 L 2728.840 24.480 Z" fill="#f7f7f2" fill-opacity="1" stroke="#163b5c" />
</g>
<g id="part-431">
<path d="M 2071.000 12.000 L 2099.000 12.000 L 2099.000 54.000 L 2071.000 54.000 L 2071.000 12.000 Z" />
<path d="M 2080.520 19.560 L 2080.520 28.800 L 2092.840 28.800 L 2092.840 19.560 L 2080.520 19.560 Z" fill="#f7f7f2" fill-opacity="1" stroke="#163b5c" />
<path d="M 2080.520 37.200 L 2080.520 46.440 L 2092.840 46.440 L 2092.840 37.200 L 2080.520 37.200 Z" fill="#f7f7f2" fill-opacity="1" stroke="#163b5c" />
</g>
<g id="part-432">
<path d="M 332.000 70.000 L 380.000 70.000 L 380.000 77.700 L 348.320 77.700 L 348.320 97.300 L 380.000 97.300 L 380.000 105.000 L 332.000 105.000 L 332.000 70.000 Z" />
</g>
<g id="part-433">
<path d="M 1748.704 160.847 L 1774.704 164.847 L 1767.424 168.847 L 1751.704 167.407 L 1748.704 160.847 Z" />
</g>
<g id="part-434">
<path d="M 1859.032 146.847 L 1857.692 150.847 L 1854.032 153.775 L 1849.032 154.847 L 1844.032 153.775 L 1840.372 150.847 L 1839.032 146.847 L 1840.372 142.847 L 1844.032 139.918 L 1849.032 138.847 L 1854.032 139.918 L 1857.692 142.847 L 1859.032 146.847 Z" />
</g>
<g id="part-435">
<path d="M 847.995 109.000 L 859.995 109.000 L 859.995 135.000 L 847.995 135.000 L 847.995 109.000 Z" />
</g>
<g id="part-436">
<path d="M 2833.662 138.847 L 2862.662 138.847 L 2862.662 151.847 L 2833.662 151.847 L 2833.662 138.847 Z" />
</g>
<g id="part-437">
<path d="M 2496.849 109.000 L 2518.849 109.000 L 2518.849 131.000 L 2496.849 131.000 L 2496.849 109.000 Z" />
</g>
<g id="part-438">
<path d="M 1539.704 160.847 L 1554.704 160.847 L 1554.704 169.847 L 1539.704 169.847 L 1539.704 160.847 Z" />
</g>
<g id="part-439">
<path d="M 901.032 138.847 L 933.032 138.847 L 933.032 156.847 L 901.032 156.847 L 901.032 138.847 Z" />
</g>
<g id="part-440">
<path d="M 2367.000 12.000 L 2406.000 12.000 L 2406.000 53.000 L 2367.000 53.000 L 2367.000 12.000 Z" />
<path d="M 2379.480 25.120 L 2379.480 39.880 L 2393.520 39.880 L 2393.520 25.120 L 2379.480 25.120 Z" fill="#f7f7f2" fill-opacity="1" stroke="#163b5c" />
</g>
<g id="part-441">
<path d="M 1915.000 12.000 L 1945.000 12.000 L 1945.000 54.000 L 1915.000 54.000 L 1915.000 12.000 Z" />
<path d="M 1925.200 19.560 L 1925.200 28.800 L 1938.400 28.800 L 1938.400 19.560 L 1925.200 19.560 Z" fill="#f7f7f2" fill-opacity="1" stroke="#163b5c" />
<path d="M 1925.200 37.200 L 1925.200 46.440 L 1938.400 46.440 L 1938.400 37.200 L 1925.200 37.200 Z" fill="#f7f7f2" fill-opacity="1" stroke="#163b5c" />
</g>
<g id="part-442">
<path d="M 304.000 70.000 L 330.000 70.000 L 330.000 78.140 L 312.840 78.140 L 312.840 98.860 L 330.000 98.860 L 330.000 107.000 L 304.000 107.000 L 304.000 70.000 Z" />
</g>
<g id="part-443">
<path d="M 1036.704 160.847 L 1064.704 164.847 L 1056.864 170.847 L 1039.704 169.047 L 1036.704 160.847 Z" />
</g>
<g id="part-444">
<path d="M 200.000 148.847 L 198.660 153.847 L 195.000 157.507 L 190.000 158.847 L 185.000 157.507 L 181.340 153.847 L 180.000 148.847 L 181.340 143.847 L 185.000 140.186 L 190.000 138.847 L 195.000 140.186 L 198.660 143.847 L 200.000 148.847 Z" />
</g>
<g id="part-445">
<path d="M 2765.000 70.000 L 2779.000 70.000 L 2779.000 98.000 L 2765.000 98.000 L 2765.000 70.000 Z" />
</g>
<g id="part-446">
<path d="M 2134.662 138.847 L 2165.662 138.847 L 2165.662 153.847 L 2134.662 153.847 L 2134.662 138.847 Z" />
</g>
<g id="part-447">
<path d="M 1403.995 109.000 L 1427.995 109.000 L 1427.995 133.000 L 1403.995 133.000 L 1403.995 109.000 Z" />
</g>
<g id="part-448">
<path d="M 885.704 160.847 L 902.704 160.847 L 902.704 171.847 L 885.704 171.847 L 885.704 160.847 Z" />
</g>
<g id="part-449">
<path d="M 382.000 138.847 L 392.000 138.847 L 392.000 158.847 L 382.000 158.847 L 382.000 138.847 Z" />
</g>
<g id="part-450">
<path d="M 1371.000 12.000 L 1412.000 12.000 L 1412.000 55.000 L 1371.000 55.000 L 1371.000 12.000 Z" />
<path d="M 1384.120 25.760 L 1384.120 41.240 L 1398.880 41.240 L 1398.880 25.760 L 1384.120 25.760 Z" fill="#f7f7f2" fill-opacity="1" stroke="#163b5c" />
</g>
<g id="part-451">
<path d="M 1196.000 12.000 L 1228.000 12.000 L 1228.000 56.000 L 1196.000 56.000 L 1196.000 12.000 Z" />
<path d="M 1206.880 19.920 L 1206.880 29.600 L 1220.960 29.600 L 1220.960 19.920 L 1206.880 19.920 Z" fill="#f7f7f2" fill-opacity="1" stroke="#163b5c" />
<path d="M 1206.880 38.400 L 1206.880 48.080 L 1220.960 48.080 L 1220.960 38.400 L 1206.880 38.400 Z" fill="#f7f7f2" fill-opacity="1" stroke="#163b5c" />
</g>
<g id="part-452">
<path d="M 2896.000 12.000 L 2924.000 12.000 L 2924.000 20.580 L 2905.520 20.580 L 2905.520 42.420 L 2924.000 42.420 L 2924.000 51.000 L 2896.000 51.000 L 2896.000 12.000 Z" />
</g>
<g id="part-453">
<path d="M 169.000 160.847 L 199.000 164.847 L 190.600 172.847 L 172.000 170.687 L 169.000 160.847 Z" />
</g>
<g id="part-454">
<path d="M 607.729 148.774 L 606.355 153.421 L 602.546 157.004 L 597.176 158.701 L 591.474 158.124 L 586.747 155.405 L 584.078 151.167 L 584.078 146.381 L 586.747 142.142 L 591.474 139.424 L 597.176 138.847 L 602.546 140.544 L 606.355 144.126 L 607.729 148.774 Z" />
</g>
<g id="part-455">
<path d="M 1968.704 160.847 L 1984.704 160.847 L 1984.704 168.847 L 1968.704 168.847 L 1968.704 160.847 Z" />
</g>
<g id="part-456">
<path d="M 1267.032 138.847 L 1300.032 138.847 L 1300.032 155.847 L 1267.032 155.847 L 1267.032 138.847 Z" />
</g>
<g id="part-457">
<path d="M 605.995 109.000 L 631.995 109.000 L 631.995 135.000 L 605.995 135.000 L 605.995 109.000 Z" />
</g>
<g id="part-458">
<path d="M 35.000 160.847 L 54.000 160.847 L 54.000 173.847 L 35.000 173.847 L 35.000 160.847 Z" />
</g>
<g id="part-459">
<path d="M 2678.849 109.000 L 2690.849 109.000 L 2690.849 131.000 L 2678.849 131.000 L 2678.849 109.000 Z" />
</g>
<g id="part-460">
<path d="M 2050.849 109.000 L 2093.849 109.000 L 2093.849 132.000 L 2050.849 132.000 L 2050.849 109.000 Z" />
<path d="M 2064.609 116.360 L 2064.609 124.640 L 2080.089 124.640 L 2080.089 116.360 L 2064.609 116.360 Z" fill="#f7f7f2" fill-opacity="1" stroke="#163b5c" />
</g>
<g id="part-461">
<path d="M 1004.000 12.000 L 1038.000 12.000 L 1038.000 58.000 L 1004.000 58.000 L 1004.000 12.000 Z" />
<path d="M 1015.560 20.280 L 1015.560 30.400 L 1030.520 30.400 L 1030.520 20.280 L 1015.560 20.280 Z" fill="#f7f7f2" fill-opacity="1" stroke="#163b5c" />
<path d="M 1015.560 39.600 L 1015.560 49.720 L 1030.520 49.720 L 1030.520 39.600 L 1015.560 39.600 Z" fill="#f7f7f2" fill-opacity="1" stroke="#163b5c" />
</g>
<g id="part-462">
<path d="M 2556.000 12.000 L 2586.000 12.000 L 2586.000 21.020 L 2566.200 21.020 L 2566.200 43.980 L 2586.000 43.980 L 2586.000 53.000 L 2556.000 53.000 L 2556.000 12.000 Z" />
</g>
<g id="part-463">
<path d="M 2347.662 138.847 L 2379.662 142.847 L 2370.702 152.847 L 2350.662 150.327 L 2347.662 138.847 Z" />
</g>
<g id="part-464">
<path d="M 1939.024 120.913 L 1937.649 126.489 L 1933.841 130.788 L 1928.470 132.825 L 1922.769 132.133 L 1918.042 128.870 L 1915.373 123.784 L 1915.373 118.041 L 1918.042 112.955 L 1922.769 109.692 L 1928.470 109.000 L 1933.841 111.037 L 1937.649 115.336 L 1939.024 120.913 Z" />
</g>
<g id="part-465">
<path d="M 1250.704 160.847 L 1268.704 160.847 L 1268.704 170.847 L 1250.704 170.847 L 1250.704 160.847 Z" />
</g>
<g id="part-466">
<path d="M 888.032 138.847 L 899.032 138.847 L 899.032 157.847 L 888.032 157.847 L 888.032 138.847 Z" />
</g>
<g id="part-467">
<path d="M 2477.000 70.000 L 2505.000 70.000 L 2505.000 98.000 L 2477.000 98.000 L 2477.000 70.000 Z" />
</g>
<g id="part-468">
<path d="M 2279.662 138.847 L 2300.662 138.847 L 2300.662 153.847 L 2279.662 153.847 L 2279.662 138.847 Z" />
</g>
<g id="part-469">
<path d="M 1619.995 109.000 L 1633.995 109.000 L 1633.995 133.000 L 1619.995 133.000 L 1619.995 109.000 Z" />
</g>
<g id="part-470">
<path d="M 922.995 109.000 L 967.995 109.000 L 967.995 134.000 L 922.995 134.000 L 922.995 109.000 Z" />
<path d="M 937.395 117.000 L 937.395 126.000 L 953.595 126.000 L 953.595 117.000 L 937.395 117.000 Z" fill="#f7f7f2" fill-opacity="1" stroke="#163b5c" />
</g>
<g id="part-471">
<path d="M 802.000 12.000 L 838.000 12.000 L 838.000 60.000 L 802.000 60.000 L 802.000 12.000 Z" />
<path d="M 814.240 20.640 L 814.240 31.200 L 830.080 31.200 L 830.080 20.640 L 814.240 20.640 Z" fill="#f7f7f2" fill-opacity="1" stroke="#163b5c" />
<path d="M 814.240 40.800 L 814.240 51.360 L 830.080 51.360 L 830.080 40.800 L 814.240 40.800 Z" fill="#f7f7f2" fill-opacity="1" stroke="#163b5c" />
</g>
<g id="part-472">
<path d="M 1570.000 12.000 L 1602.000 12.000 L 1602.000 21.460 L 1580.880 21.460 L 1580.880 45.540 L 1602.000 45.540 L 1602.000 55.000 L 1570.000 55.000 L 1570.000 12.000 Z" />
</g>
<g id="part-473">
<path d="M 1993.032 138.847 L 2003.032 142.847 L 2000.232 154.847 L 1996.032 151.967 L 1993.032 138.847 Z" />
</g>
<g id="part-474">
<path d="M 1853.984 120.934 L 1852.774 125.815 L 1849.352 129.852 L 1844.311 132.347 L 1838.521 132.869 L 1832.984 131.327 L 1828.658 127.988 L 1826.290 123.429 L 1826.290 118.439 L 1828.658 113.881 L 1832.984 110.542 L 1838.521 109.000 L 1844.311 109.522 L 1849.352 112.017 L 1852.774 116.053 L 1853.984 120.934 Z" />
</g>
<g id="part-475">
<path d="M 411.000 160.847 L 431.000 160.847 L 431.000 172.847 L 411.000 172.847 L 411.000 160.847 Z" />
</g>
<g id="part-476">
<path d="M 2926.849 109.000 L 2939.849 109.000 L 2939.849 130.000 L 2926.849 130.000 L 2926.849 109.000 Z" />
</g>
<g id="part-477">
<path d="M 1656.704 160.847 L 1686.704 160.847 L 1686.704 168.847 L 1656.704 168.847 L 1656.704 160.847 Z" />
</g>
<g id="part-478">
<path d="M 1422.032 138.847 L 1445.032 138.847 L 1445.032 155.847 L 1422.032 155.847 L 1422.032 138.847 Z" />
</g>
<g id="part-479">
<path d="M 795.995 109.000 L 811.995 109.000 L 811.995 135.000 L 795.995 135.000 L 795.995 109.000 Z" />
</g>
<g id="part-480">
<path d="M 114.995 109.000 L 161.995 109.000 L 161.995 136.000 L 114.995 136.000 L 114.995 109.000 Z" />
<path d="M 130.035 117.640 L 130.035 127.360 L 146.955 127.360 L 146.955 117.640 L 130.035 117.640 Z" fill="#f7f7f2" fill-opacity="1" stroke="#163b5c" />
</g>
<g id="part-481">
<path d="M 564.000 12.000 L 602.000 12.000 L 602.000 62.000 L 564.000 62.000 L 564.000 12.000 Z" />
<path d="M 576.920 21.000 L 576.920 32.000 L 593.640 32.000 L 593.640 21.000 L 576.920 21.000 Z" fill="#f7f7f2" fill-opacity="1" stroke="#163b5c" />
<path d="M 576.920 42.000 L 576.920 53.000 L 593.640 53.000 L 593.640 42.000 L 576.920 42.000 Z" fill="#f7f7f2" fill-opacity="1" stroke="#163b5c" />
</g>
<g id="part-482">
<path d="M 2313.000 70.000 L 2347.000 70.000 L 2347.000 76.160 L 2324.560 76.160 L 2324.560 91.840 L 2347.000 91.840 L 2347.000 98.000 L 2313.000 98.000 L 2313.000 70.000 Z" />
</g>
<g id="part-483">
<path d="M 1215.032 138.847 L 1227.032 142.847 L 1223.672 156.847 L 1218.032 153.607 L 1215.032 138.847 Z" />
</g>
<g id="part-484">
<path d="M 39.694 122.923 L 38.484 128.618 L 35.062 133.327 L 30.020 136.238 L 24.231 136.847 L 18.694 135.048 L 14.368 131.152 L 12.000 125.834 L 12.000 120.013 L 14.368 114.694 L 18.694 110.799 L 24.231 109.000 L 30.020 109.609 L 35.062 112.519 L 38.484 117.229 L 39.694 122.923 Z" />
</g>
<g id="part-485">
<path d="M 2593.662 138.847 L 2615.662 138.847 L 2615.662 152.847 L 2593.662 152.847 L 2593.662 138.847 Z" />
</g>
<g id="part-486">
<path d="M 2307.849 109.000 L 2322.849 109.000 L 2322.849 132.000 L 2307.849 132.000 L 2307.849 109.000 Z" />
</g>
<g id="part-487">
<path d="M 904.704 160.847 L 936.704 160.847 L 936.704 170.847 L 904.704 170.847 L 904.704 160.847 Z" />
</g>
<g id="part-488">
<path d="M 789.032 138.847 L 814.032 138.847 L 814.032 157.847 L 789.032 157.847 L 789.032 138.847 Z" />
</g>
<g id="part-489">
<path d="M 2727.000 70.000 L 2745.000 70.000 L 2745.000 98.000 L 2727.000 98.000 L 2727.000 70.000 Z" />
</g>
<g id="part-490">
<path d="M 1635.000 70.000 L 1660.000 70.000 L 1660.000 99.000 L 1635.000 99.000 L 1635.000 70.000 Z" />
<path d="M 1643.000 79.280 L 1643.000 89.720 L 1652.000 89.720 L 1652.000 79.280 L 1643.000 79.280 Z" fill="#f7f7f2" fill-opacity="1" stroke="#163b5c" />
</g>
<g id="part-491">
<path d="M 338.000 12.000 L 378.000 12.000 L 378.000 64.000 L 338.000 64.000 L 338.000 12.000 Z" />
<path d="M 351.600 21.360 L 351.600 32.800 L 369.200 32.800 L 369.200 21.360 L 351.600 21.360 Z" fill="#f7f7f2" fill-opacity="1" stroke="#163b5c" />
<path d="M 351.600 43.200 L 351.600 54.640 L 369.200 54.640 L 369.200 43.200 L 351.600 43.200 Z" fill="#f7f7f2" fill-opacity="1" stroke="#163b5c" />
</g>
<g id="part-492">
<path d="M 2237.000 70.000 L 2273.000 70.000 L 2273.000 76.160 L 2249.240 76.160 L 2249.240 91.840 L 2273.000 91.840 L 2273.000 98.000 L 2237.000 98.000 L 2237.000 70.000 Z" />
</g>
<g id="part-493">
<path d="M 322.000 138.847 L 336.000 142.847 L 332.080 158.847 L 325.000 155.247 L 322.000 138.847 Z" />
</g>
<g id="part-494">
<path d="M 2939.601 83.923 L 2938.218 89.618 L 2934.308 94.327 L 2928.546 97.238 L 2921.929 97.847 L 2915.601 96.048 L 2910.657 92.152 L 2907.951 86.834 L 2907.951 81.013 L 2910.657 75.694 L 2915.601 71.799 L 2921.929 70.000 L 2928.546 70.609 L 2934.308 73.519 L 2938.218 78.229 L 2939.601 83.923 Z" />
</g>
<g id="part-495">
<path d="M 1701.032 138.847 L 1725.032 138.847 L 1725.032 154.847 L 1701.032 154.847 L 1701.032 138.847 Z" />
</g>
<g id="part-496">
<path d="M 1187.995 109.000 L 1204.995 109.000 L 1204.995 134.000 L 1187.995 134.000 L 1187.995 109.000 Z" />
</g>
<g id="part-497">
<path d="M 565.000 160.847 L 575.000 160.847 L 575.000 172.847 L 565.000 172.847 L 565.000 160.847 Z" />
</g>
<g id="part-498">
<path d="M 2817.849 109.000 L 2844.849 109.000 L 2844.849 130.000 L 2817.849 130.000 L 2817.849 109.000 Z" />
</g>
<g id="part-499">
<path d="M 1926.704 160.847 L 1946.704 160.847 L 1946.704 168.847 L 1926.704 168.847 L 1926.704 160.847 Z" />
</g>
</g>
<text x="10" y="20" font-size="14" fill="#222">mixed_500_parts / Fast</text>
</svg>
