<svg xmlns="http://www.w3.org/2000/svg" width="2250.000" height="1450.000" viewBox="0 0 2250.000 1450.000">
<rect x="0" y="0" width="2250.000" height="1450.000" fill="#f7f7f2" />
<g fill="none" stroke="#2a2a2a" stroke-width="1.2">
<path d="M 0.000 0.000 L 2250.000 0.000 L 2250.000 1450.000 L 0.000 1450.000 L 0.000 0.000 Z" stroke="#1f5f8b" />
</g>
<g fill="#86b8e7" fill-opacity="0.58" stroke="#163b5c" stroke-width="0.8">
<g id="part-0">
<path d="M 60.000 1326.000 L 95.000 1326.000 L 95.000 1357.000 L 60.000 1357.000 L 60.000 1326.000 Z" />
<path d="M 71.200 1335.920 L 71.200 1347.080 L 83.800 1347.080 L 83.800 1335.920 L 71.200 1335.920 Z" fill="#f7f7f2" fill-opacity="1" stroke="#163b5c" />
</g>
<g id="part-1">
<path d="M 98.000 487.460 L 124.000 487.460 L 124.000 541.460 L 98.000 541.460 L 98.000 487.460 Z" />
<path d="M 106.840 497.180 L 106.840 509.060 L 118.280 509.060 L 118.280 497.180 L 106.840 497.180 Z" fill="#f7f7f2" fill-opacity="1" stroke="#163b5c" />
<path d="M 106.840 519.860 L 106.840 531.740 L 118.280 531.740 L 118.280 519.860 L 106.840 519.860 Z" fill="#f7f7f2" fill-opacity="1" stroke="#163b5c" />
</g>
<g id="part-2">
<path d="M 10.000 1214.000 L 56.000 1214.000 L 56.000 1220.160 L 25.640 1220.160 L 25.640 1235.840 L 56.000 1235.840 L 56.000 1242.000 L 10.000 1242.000 L 10.000 1214.000 Z" />
</g>
<g id="part-3">
<path d="M 98.000 177.460 L 122.000 181.460 L 115.280 199.460 L 101.000 195.500 L 98.000 177.460 Z" />
</g>
<g id="part-4">
<path d="M 170.676 1410.122 L 169.406 1412.285 L 165.999 1413.761 L 161.537 1414.081 L 157.437 1413.145 L 155.000 1411.249 L 155.000 1408.995 L 157.437 1407.099 L 161.537 1406.163 L 165.999 1406.484 L 169.406 1407.960 L 170.676 1410.122 Z" />
</g>
<g id="part-5">
<path d="M 155.000 614.381 L 165.000 614.381 L 165.000 632.381 L 155.000 632.381 L 155.000 614.381 Z" />
</g>
<g id="part-6">
<path d="M 98.000 870.460 L 125.000 870.460 L 125.000 897.460 L 98.000 897.460 L 98.000 870.460 Z" />
</g>
<g id="part-7">
<path d="M 129.000 592.496 L 149.000 592.496 L 149.000 606.496 L 129.000 606.496 L 129.000 592.496 Z" />
</g>
<g id="part-8">
<path d="M 155.000 1045.529 L 168.000 1045.529 L 168.000 1068.529 L 155.000 1068.529 L 155.000 1045.529 Z" />
</g>
<g id="part-9">
<path d="M 60.000 187.548 L 90.000 187.548 L 90.000 197.548 L 60.000 197.548 L 60.000 187.548 Z" />
</g>
<g id="part-10">
<path d="M 10.000 195.000 L 47.000 195.000 L 47.000 228.000 L 10.000 228.000 L 10.000 195.000 Z" />
<path d="M 21.840 205.560 L 21.840 217.440 L 35.160 217.440 L 35.160 205.560 L 21.840 205.560 Z" fill="#f7f7f2" fill-opacity="1" stroke="#163b5c" />
</g>
<g id="part-11">
<path d="M 98.000 1280.000 L 126.000 1280.000 L 126.000 1336.000 L 98.000 1336.000 L 98.000 1280.000 Z" />
<path d="M 107.520 1290.080 L 107.520 1302.400 L 119.840 1302.400 L 119.840 1290.080 L 107.520 1290.080 Z" fill="#f7f7f2" fill-opacity="1" stroke="#163b5c" />
<path d="M 107.520 1313.600 L 107.520 1325.920 L 119.840 1325.920 L 119.840 1313.600 L 107.520 1313.600 Z" fill="#f7f7f2" fill-opacity="1" stroke="#163b5c" />
</g>
<g id="part-12">
<path d="M 10.000 1411.000 L 58.000 1411.000 L 58.000 1417.380 L 26.320 1417.380 L 26.320 1433.620 L 58.000 1433.620 L 58.000 1440.000 L 10.000 1440.000 L 10.000 1411.000 Z" />
</g>
<g id="part-13">
<path d="M 98.000 717.460 L 124.000 721.460 L 116.720 741.460 L 101.000 737.140 L 98.000 717.460 Z" />
</g>
<g id="part-14">
<path d="M 149.000 614.496 L 147.660 617.496 L 144.000 619.692 L 139.000 620.496 L 134.000 619.692 L 130.340 617.496 L 129.000 614.496 L 130.340 611.496 L 134.000 609.300 L 139.000 608.496 L 144.000 609.300 L 147.660 611.496 L 149.000 614.496 Z" />
</g>
<g id="part-15">
<path d="M 155.000 941.529 L 167.000 941.529 L 167.000 961.529 L 155.000 961.529 L 155.000 941.529 Z" />
</g>
<g id="part-16">
<path d="M 60.000 27.548 L 89.000 27.548 L 89.000 56.548 L 60.000 56.548 L 60.000 27.548 Z" />
</g>
<g id="part-17">
<path d="M 129.000 884.496 L 151.000 884.496 L 151.000 900.496 L 129.000 900.496 L 129.000 884.496 Z" />
</g>
<g id="part-18">
<path d="M 155.000 1318.529 L 170.000 1318.529 L 170.000 1343.529 L 155.000 1343.529 L 155.000 1318.529 Z" />
</g>
<g id="part-19">
<path d="M 60.000 929.000 L 92.000 929.000 L 92.000 941.000 L 60.000 941.000 L 60.000 929.000 Z" />
</g>
<g id="part-20">
<path d="M 10.000 438.000 L 49.000 438.000 L 49.000 473.000 L 10.000 473.000 L 10.000 438.000 Z" />
<path d="M 22.480 449.200 L 22.480 461.800 L 36.520 461.800 L 36.520 449.200 L 22.480 449.200 Z" fill="#f7f7f2" fill-opacity="1" stroke="#163b5c" />
</g>
<g id="part-21">
<path d="M 60.000 319.548 L 90.000 319.548 L 90.000 361.548 L 60.000 361.548 L 60.000 319.548 Z" />
<path d="M 70.200 327.108 L 70.200 336.348 L 83.400 336.348 L 83.400 327.108 L 70.200 327.108 Z" fill="#f7f7f2" fill-opacity="1" stroke="#163b5c" />
<path d="M 70.200 344.748 L 70.200 353.988 L 83.400 353.988 L 83.400 344.748 L 70.200 344.748 Z" fill="#f7f7f2" fill-opacity="1" stroke="#163b5c" />
</g>
<g id="part-22">
<path d="M 98.000 375.460 L 124.000 375.460 L 124.000 382.280 L 106.840 382.280 L 106.840 399.640 L 124.000 399.640 L 124.000 406.460 L 98.000 406.460 L 98.000 375.460 Z" />
</g>
<g id="part-23">
<path d="M 98.000 1158.000 L 126.000 1162.000 L 118.160 1184.000 L 101.000 1179.320 L 98.000 1158.000 Z" />
</g>
<g id="part-24">
<path d="M 149.000 676.496 L 147.660 679.496 L 144.000 681.692 L 139.000 682.496 L 134.000 681.692 L 130.340 679.496 L 129.000 676.496 L 130.340 673.496 L 134.000 671.300 L 139.000 670.496 L 144.000 671.300 L 147.660 673.496 L 149.000 676.496 Z" />
</g>
<g id="part-25">
<path d="M 155.000 1172.529 L 169.000 1172.529 L 169.000 1194.529 L 155.000 1194.529 L 155.000 1172.529 Z" />
</g>
<g id="part-26">
<path d="M 60.000 500.548 L 91.000 500.548 L 91.000 509.548 L 60.000 509.548 L 60.000 500.548 Z" />
</g>
<g id="part-27">
<path d="M 98.000 75.460 L 122.000 75.460 L 122.000 93.460 L 98.000 93.460 L 98.000 75.460 Z" />
</g>
<g id="part-28">
<path d="M 129.000 228.496 L 146.000 228.496 L 146.000 255.496 L 129.000 255.496 L 129.000 228.496 Z" />
</g>
<g id="part-29">
<path d="M 155.000 634.381 L 165.000 634.381 L 165.000 648.381 L 155.000 648.381 L 155.000 634.381 Z" />
</g>
<g id="part-30">
<path d="M 10.000 633.000 L 51.000 633.000 L 51.000 670.000 L 10.000 670.000 L 10.000 633.000 Z" />
<path d="M 23.120 644.840 L 23.120 658.160 L 37.880 658.160 L 37.880 644.840 L 23.120 644.840 Z" fill="#f7f7f2" fill-opacity="1" stroke="#163b5c" />
</g>
<g id="part-31">
<path d="M 60.000 695.000 L 92.000 695.000 L 92.000 737.000 L 60.000 737.000 L 60.000 695.000 Z" />
<path d="M 70.880 702.560 L 70.880 711.800 L 84.960 711.800 L 84.960 702.560 L 70.880 702.560 Z" fill="#f7f7f2" fill-opacity="1" stroke="#163b5c" />
<path d="M 70.880 720.200 L 70.880 729.440 L 84.960 729.440 L 84.960 720.200 L 70.880 720.200 Z" fill="#f7f7f2" fill-opacity="1" stroke="#163b5c" />
</g>
<g id="part-32">
<path d="M 98.000 1070.000 L 126.000 1070.000 L 126.000 1077.260 L 107.520 1077.260 L 107.520 1095.740 L 126.000 1095.740 L 126.000 1103.000 L 98.000 1103.000 L 98.000 1070.000 Z" />
</g>
<g id="part-33">
<path d="M 60.000 77.548 L 90.000 81.548 L 81.600 105.548 L 63.000 100.508 L 60.000 77.548 Z" />
</g>
<g id="part-34">
<path d="M 152.651 1166.292 L 151.277 1170.009 L 147.468 1172.876 L 142.098 1174.233 L 136.396 1173.772 L 131.669 1171.597 L 129.000 1168.206 L 129.000 1164.377 L 131.669 1160.987 L 136.396 1158.812 L 142.098 1158.350 L 147.468 1159.708 L 151.277 1162.574 L 152.651 1166.292 Z" />
</g>
<g id="part-35">
<path d="M 129.000 122.496 L 145.000 122.496 L 145.000 146.496 L 129.000 146.496 L 129.000 122.496 Z" />
</g>
<g id="part-36">
<path d="M 60.000 1008.000 L 93.000 1008.000 L 93.000 1019.000 L 60.000 1019.000 L 60.000 1008.000 Z" />
</g>
<g id="part-37">
<path d="M 98.000 651.460 L 124.000 651.460 L 124.000 671.460 L 98.000 671.460 L 98.000 651.460 Z" />
</g>
<g id="part-38">
<path d="M 129.000 523.496 L 148.000 523.496 L 148.000 552.496 L 129.000 552.496 L 129.000 523.496 Z" />
</g>
<g id="part-39">
<path d="M 155.000 883.529 L 167.000 883.529 L 167.000 899.529 L 155.000 899.529 L 155.000 883.529 Z" />
</g>
<g id="part-40">
<path d="M 10.000 875.000 L 53.000 875.000 L 53.000 914.000 L 10.000 914.000 L 10.000 875.000 Z" />
<path d="M 23.760 887.480 L 23.760 901.520 L 39.240 901.520 L 39.240 887.480 L 23.760 887.480 Z" fill="#f7f7f2" fill-opacity="1" stroke="#163b5c" />
</g>
<g id="part-41">
<path d="M 60.000 1247.000 L 94.000 1247.000 L 94.000 1289.000 L 60.000 1289.000 L 60.000 1247.000 Z" />
<path d="M 71.560 1254.560 L 71.560 1263.800 L 86.520 1263.800 L 86.520 1254.560 L 71.560 1254.560 Z" fill="#f7f7f2" fill-opacity="1" stroke="#163b5c" />
<path d="M 71.560 1272.200 L 71.560 1281.440 L 86.520 1281.440 L 86.520 1272.200 L 71.560 1272.200 Z" fill="#f7f7f2" fill-opacity="1" stroke="#163b5c" />
</g>
<g id="part-42">
<path d="M 60.000 243.548 L 90.000 243.548 L 90.000 251.248 L 70.200 251.248 L 70.200 270.848 L 90.000 270.848 L 90.000 278.548 L 60.000 278.548 L 60.000 243.548 Z" />
</g>
<g id="part-43">
<path d="M 60.000 965.000 L 92.000 969.000 L 83.040 973.000 L 63.000 971.560 L 60.000 965.000 Z" />
</g>
<g id="part-44">
<path d="M 152.651 1202.058 L 151.277 1205.776 L 147.468 1208.642 L 142.098 1210.000 L 136.396 1209.538 L 131.669 1207.363 L 129.000 1203.973 L 129.000 1200.144 L 131.669 1196.753 L 136.396 1194.578 L 142.098 1194.117 L 147.468 1195.474 L 151.277 1198.341 L 152.651 1202.058 Z" />
</g>
<g id="part-45">
<path d="M 129.000 304.496 L 147.000 304.496 L 147.000 330.496 L 129.000 330.496 L 129.000 304.496 Z" />
</g>
<g id="part-46">
<path d="M 155.000 680.381 L 166.000 680.381 L 166.000 693.381 L 155.000 693.381 L 155.000 680.381 Z" />
</g>
<g id="part-47">
<path d="M 98.000 1212.000 L 126.000 1212.000 L 126.000 1234.000 L 98.000 1234.000 L 98.000 1212.000 Z" />
</g>
<g id="part-48">
<path d="M 129.000 860.496 L 150.000 860.496 L 150.000 869.496 L 129.000 869.496 L 129.000 860.496 Z" />
</g>
<g id="part-49">
<path d="M 155.000 1196.529 L 169.000 1196.529 L 169.000 1214.529 L 155.000 1214.529 L 155.000 1196.529 Z" />
</g>
<g id="part-50">
<path d="M 10.000 1126.000 L 55.000 1126.000 L 55.000 1167.000 L 10.000 1167.000 L 10.000 1126.000 Z" />
<path d="M 24.400 1139.120 L 24.400 1153.880 L 40.600 1153.880 L 40.600 1139.120 L 24.400 1139.120 Z" fill="#f7f7f2" fill-opacity="1" stroke="#163b5c" />
</g>
<g id="part-51">
<path d="M 10.000 26.000 L 46.000 26.000 L 46.000 68.000 L 10.000 68.000 L 10.000 26.000 Z" />
<path d="M 22.240 33.560 L 22.240 42.800 L 38.080 42.800 L 38.080 33.560 L 22.240 33.560 Z" fill="#f7f7f2" fill-opacity="1" stroke="#163b5c" />
<path d="M 22.240 51.200 L 22.240 60.440 L 38.080 60.440 L 38.080 51.200 L 22.240 51.200 Z" fill="#f7f7f2" fill-opacity="1" stroke="#163b5c" />
</g>
<g id="part-52">
<path d="M 60.000 874.000 L 92.000 874.000 L 92.000 882.140 L 70.880 882.140 L 70.880 902.860 L 92.000 902.860 L 92.000 911.000 L 60.000 911.000 L 60.000 874.000 Z" />
</g>
<g id="part-53">
<path d="M 155.000 536.381 L 165.000 540.381 L 162.200 546.381 L 158.000 544.581 L 155.000 536.381 Z" />
</g>
<g id="part-54">
<path d="M 125.694 974.164 L 124.484 978.232 L 121.062 981.596 L 116.020 983.675 L 110.231 984.110 L 104.694 982.825 L 100.368 980.042 L 98.000 976.243 L 98.000 972.085 L 100.368 968.286 L 104.694 965.504 L 110.231 964.219 L 116.020 964.654 L 121.062 966.733 L 124.484 970.097 L 125.694 974.164 Z" />
</g>
<g id="part-55">
<path d="M 129.000 732.496 L 149.000 732.496 L 149.000 760.496 L 129.000 760.496 L 129.000 732.496 Z" />
</g>
<g id="part-56">
<path d="M 155.000 1028.529 L 168.000 1028.529 L 168.000 1043.529 L 155.000 1043.529 L 155.000 1028.529 Z" />
</g>
<g id="part-57">
<path d="M 60.000 373.548 L 90.000 373.548 L 90.000 397.548 L 60.000 397.548 L 60.000 373.548 Z" />
</g>
<g id="part-58">
<path d="M 129.000 1096.496 L 152.000 1096.496 L 152.000 1107.496 L 129.000 1107.496 L 129.000 1096.496 Z" />
</g>
<g id="part-59">
<path d="M 129.000 100.496 L 145.000 100.496 L 145.000 120.496 L 129.000 120.496 L 129.000 100.496 Z" />
</g>
<g id="part-60">
<path d="M 10.000 1308.000 L 57.000 1308.000 L 57.000 1351.000 L 10.000 1351.000 L 10.000 1308.000 Z" />
<path d="M 25.040 1321.760 L 25.040 1337.240 L 41.960 1337.240 L 41.960 1321.760 L 25.040 1321.760 Z" fill="#f7f7f2" fill-opacity="1" stroke="#163b5c" />
</g>
<g id="part-61">
<path d="M 10.000 353.000 L 48.000 353.000 L 48.000 397.000 L 10.000 397.000 L 10.000 353.000 Z" />
<path d="M 22.920 360.920 L 22.920 370.600 L 39.640 370.600 L 39.640 360.920 L 22.920 360.920 Z" fill="#f7f7f2" fill-opacity="1" stroke="#163b5c" />
<path d="M 22.920 379.400 L 22.920 389.080 L 39.640 389.080 L 39.640 379.400 L 22.920 379.400 Z" fill="#f7f7f2" fill-opacity="1" stroke="#163b5c" />
</g>
<g id="part-62">
<path d="M 60.000 1206.000 L 94.000 1206.000 L 94.000 1214.580 L 71.560 1214.580 L 71.560 1236.420 L 94.000 1236.420 L 94.000 1245.000 L 60.000 1245.000 L 60.000 1206.000 Z" />
</g>
<g id="part-63">
<path d="M 155.000 901.529 L 167.000 905.529 L 163.640 913.529 L 158.000 911.369 L 155.000 901.529 Z" />
</g>
<g id="part-64">
<path d="M 125.694 926.405 L 124.484 930.473 L 121.062 933.837 L 116.020 935.916 L 110.231 936.351 L 104.694 935.066 L 100.368 932.283 L 98.000 928.484 L 98.000 924.326 L 100.368 920.528 L 104.694 917.745 L 110.231 916.460 L 116.020 916.895 L 121.062 918.974 L 124.484 922.338 L 125.694 926.405 Z" />
</g>
<g id="part-65">
<path d="M 129.000 960.496 L 151.000 960.496 L 151.000 968.496 L 129.000 968.496 L 129.000 960.496 Z" />
</g>
<g id="part-66">
<path d="M 155.000 1345.529 L 170.000 1345.529 L 170.000 1362.529 L 155.000 1362.529 L 155.000 1345.529 Z" />
</g>
<g id="part-67">
<path d="M 60.000 667.000 L 92.000 667.000 L 92.000 693.000 L 60.000 693.000 L 60.000 667.000 Z" />
</g>
<g id="part-68">
<path d="M 98.000 331.460 L 123.000 331.460 L 123.000 344.460 L 98.000 344.460 L 98.000 331.460 Z" />
</g>
<g id="part-69">
<path d="M 129.000 280.496 L 147.000 280.496 L 147.000 302.496 L 129.000 302.496 L 129.000 280.496 Z" />
</g>
<g id="part-70">
<path d="M 98.000 289.460 L 123.000 289.460 L 123.000 312.460 L 98.000 312.460 L 98.000 289.460 Z" />
<path d="M 106.000 296.820 L 106.000 305.100 L 115.000 305.100 L 115.000 296.820 L 106.000 296.820 Z" fill="#f7f7f2" fill-opacity="1" stroke="#163b5c" />
</g>
<g id="part-71">
<path d="M 10.000 585.000 L 50.000 585.000 L 50.000 631.000 L 10.000 631.000 L 10.000 585.000 Z" />
<path d="M 23.600 593.280 L 23.600 603.400 L 41.200 603.400 L 41.200 593.280 L 23.600 593.280 Z" fill="#f7f7f2" fill-opacity="1" stroke="#163b5c" />
<path d="M 23.600 612.600 L 23.600 622.720 L 41.200 622.720 L 41.200 612.600 L 23.600 612.600 Z" fill="#f7f7f2" fill-opacity="1" stroke="#163b5c" />
</g>
<g id="part-72">
<path d="M 10.000 115.000 L 46.000 115.000 L 46.000 124.020 L 22.240 124.020 L 22.240 146.980 L 46.000 146.980 L 46.000 156.000 L 10.000 156.000 L 10.000 115.000 Z" />
</g>
<g id="part-73">
<path d="M 155.000 1230.529 L 169.000 1234.529 L 165.080 1244.529 L 158.000 1242.009 L 155.000 1230.529 Z" />
</g>
<g id="part-74">
<path d="M 91.650 559.482 L 90.267 564.363 L 86.356 568.400 L 80.595 570.895 L 73.978 571.416 L 67.650 569.874 L 62.706 566.535 L 60.000 561.977 L 60.000 556.987 L 62.706 552.429 L 67.650 549.090 L 73.978 547.548 L 80.595 548.069 L 86.356 550.564 L 90.267 554.601 L 91.650 559.482 Z" />
</g>
<g id="part-75">
<path d="M 129.000 1294.000 L 153.000 1294.000 L 153.000 1304.000 L 129.000 1304.000 L 129.000 1294.000 Z" />
</g>
<g id="part-76">
<path d="M 129.000 176.496 L 146.000 176.496 L 146.000 195.496 L 129.000 195.496 L 129.000 176.496 Z" />
</g>
<g id="part-77">
<path d="M 155.000 650.381 L 165.000 650.381 L 165.000 678.381 L 155.000 678.381 L 155.000 650.381 Z" />
</g>
<g id="part-78">
<path d="M 98.000 899.460 L 125.000 899.460 L 125.000 914.460 L 98.000 914.460 L 98.000 899.460 Z" />
</g>
<g id="part-79">
<path d="M 129.000 684.496 L 149.000 684.496 L 149.000 708.496 L 129.000 708.496 L 129.000 684.496 Z" />
</g>
<g id="part-80">
<path d="M 98.000 764.460 L 125.000 764.460 L 125.000 789.460 L 98.000 789.460 L 98.000 764.460 Z" />
<path d="M 106.640 772.460 L 106.640 781.460 L 116.360 781.460 L 116.360 772.460 L 106.640 772.460 Z" fill="#f7f7f2" fill-opacity="1" stroke="#163b5c" />
</g>
<g id="part-81">
<path d="M 10.000 825.000 L 52.000 825.000 L 52.000 873.000 L 10.000 873.000 L 10.000 825.000 Z" />
<path d="M 24.280 833.640 L 24.280 844.200 L 42.760 844.200 L 42.760 833.640 L 24.280 833.640 Z" fill="#f7f7f2" fill-opacity="1" stroke="#163b5c" />
<path d="M 24.280 853.800 L 24.280 864.360 L 42.760 864.360 L 42.760 853.800 L 24.280 853.800 Z" fill="#f7f7f2" fill-opacity="1" stroke="#163b5c" />
</g>
<g id="part-82">
<path d="M 10.000 308.000 L 48.000 308.000 L 48.000 317.460 L 22.920 317.460 L 22.920 341.540 L 48.000 341.540 L 48.000 351.000 L 10.000 351.000 L 10.000 308.000 Z" />
</g>
<g id="part-83">
<path d="M 129.000 38.496 L 145.000 42.496 L 140.520 54.496 L 132.000 51.616 L 129.000 38.496 Z" />
</g>
<g id="part-84">
<path d="M 91.650 641.066 L 90.267 645.947 L 86.356 649.983 L 80.595 652.478 L 73.978 653.000 L 67.650 651.458 L 62.706 648.119 L 60.000 643.561 L 60.000 638.571 L 62.706 634.012 L 67.650 630.673 L 73.978 629.131 L 80.595 629.653 L 86.356 632.148 L 90.267 636.185 L 91.650 641.066 Z" />
</g>
<g id="part-85">
<path d="M 98.000 543.460 L 124.000 543.460 L 124.000 555.460 L 98.000 555.460 L 98.000 543.460 Z" />
</g>
<g id="part-86">
<path d="M 129.000 489.496 L 148.000 489.496 L 148.000 510.496 L 129.000 510.496 L 129.000 489.496 Z" />
</g>
<g id="part-87">
<path d="M 155.000 931.529 L 167.000 931.529 L 167.000 939.529 L 155.000 939.529 L 155.000 931.529 Z" />
</g>
<g id="part-88">
<path d="M 60.000 58.548 L 89.000 58.548 L 89.000 75.548 L 60.000 75.548 L 60.000 58.548 Z" />
</g>
<g id="part-89">
<path d="M 129.000 932.496 L 151.000 932.496 L 151.000 958.496 L 129.000 958.496 L 129.000 932.496 Z" />
</g>
<g id="part-90">
<path d="M 98.000 1413.000 L 127.000 1413.000 L 127.000 1440.000 L 98.000 1440.000 L 98.000 1413.000 Z" />
<path d="M 107.280 1421.640 L 107.280 1431.360 L 117.720 1431.360 L 117.720 1421.640 L 107.280 1421.640 Z" fill="#f7f7f2" fill-opacity="1" stroke="#163b5c" />
</g>
<g id="part-91">
<path d="M 10.000 1044.000 L 54.000 1044.000 L 54.000 1094.000 L 10.000 1094.000 L 10.000 1044.000 Z" />
<path d="M 24.960 1053.000 L 24.960 1064.000 L 44.320 1064.000 L 44.320 1053.000 L 24.960 1053.000 Z" fill="#f7f7f2" fill-opacity="1" stroke="#163b5c" />
<path d="M 24.960 1074.000 L 24.960 1085.000 L 44.320 1085.000 L 44.320 1074.000 L 24.960 1074.000 Z" fill="#f7f7f2" fill-opacity="1" stroke="#163b5c" />
</g>
<g id="part-92">
<path d="M 10.000 475.000 L 50.000 475.000 L 50.000 481.160 L 23.600 481.160 L 23.600 496.840 L 50.000 496.840 L 50.000 503.000 L 10.000 503.000 L 10.000 475.000 Z" />
</g>
<g id="part-93">
<path d="M 129.000 422.496 L 147.000 426.496 L 141.960 440.496 L 132.000 437.256 L 129.000 422.496 Z" />
</g>
<g id="part-94">
<path d="M 166.869 778.304 L 166.350 783.999 L 164.884 788.708 L 162.723 791.619 L 160.242 792.228 L 157.869 790.429 L 156.015 786.533 L 155.000 781.215 L 155.000 775.394 L 156.015 770.075 L 157.869 766.180 L 160.242 764.381 L 162.723 764.990 L 164.884 767.900 L 166.350 772.610 L 166.869 778.304 Z" />
</g>
<g id="part-95">
<path d="M 98.000 1105.000 L 126.000 1105.000 L 126.000 1119.000 L 98.000 1119.000 L 98.000 1105.000 Z" />
</g>
<g id="part-96">
<path d="M 129.000 835.496 L 150.000 835.496 L 150.000 858.496 L 129.000 858.496 L 129.000 835.496 Z" />
</g>
<g id="part-97">
<path d="M 155.000 1142.529 L 169.000 1142.529 L 169.000 1152.529 L 155.000 1152.529 L 155.000 1142.529 Z" />
</g>
<g id="part-98">
<path d="M 60.000 446.548 L 91.000 446.548 L 91.000 465.548 L 60.000 465.548 L 60.000 446.548 Z" />
</g>
<g id="part-99">
<path d="M 98.000 201.460 L 122.000 201.460 L 122.000 229.460 L 98.000 229.460 L 98.000 201.460 Z" />
</g>
<g id="part-100">
<path d="M 60.000 415.548 L 91.000 415.548 L 91.000 444.548 L 60.000 444.548 L 60.000 415.548 Z" />
<path d="M 69.920 424.828 L 69.920 435.268 L 81.080 435.268 L 81.080 424.828 L 69.920 424.828 Z" fill="#f7f7f2" fill-opacity="1" stroke="#163b5c" />
</g>
<g id="part-101">
<path d="M 129.000 1212.000 L 153.000 1212.000 L 153.000 1264.000 L 129.000 1264.000 L 129.000 1212.000 Z" />
<path d="M 137.160 1221.360 L 137.160 1232.800 L 147.720 1232.800 L 147.720 1221.360 L 137.160 1221.360 Z" fill="#f7f7f2" fill-opacity="1" stroke="#163b5c" />
<path d="M 137.160 1243.200 L 137.160 1254.640 L 147.720 1254.640 L 147.720 1243.200 L 137.160 1243.200 Z" fill="#f7f7f2" fill-opacity="1" stroke="#163b5c" />
</g>
<g id="part-102">
<path d="M 10.000 713.000 L 52.000 713.000 L 52.000 719.160 L 24.280 719.160 L 24.280 734.840 L 52.000 734.840 L 52.000 741.000 L 10.000 741.000 L 10.000 713.000 Z" />
</g>
<g id="part-103">
<path d="M 129.000 710.496 L 149.000 714.496 L 143.400 730.496 L 132.000 726.896 L 129.000 710.496 Z" />
</g>
<g id="part-104">
<path d="M 166.869 837.998 L 166.350 843.692 L 164.884 848.402 L 162.723 851.312 L 160.242 851.921 L 157.869 850.122 L 156.015 846.227 L 155.000 840.908 L 155.000 835.087 L 156.015 829.769 L 157.869 825.873 L 160.242 824.074 L 162.723 824.683 L 164.884 827.593 L 166.350 832.303 L 166.869 837.998 Z" />
</g>
<g id="part-105">
<path d="M 60.000 169.548 L 90.000 169.548 L 90.000 185.548 L 60.000 185.548 L 60.000 169.548 Z" />
</g>
<g id="part-106">
<path d="M 129.000 1109.496 L 152.000 1109.496 L 152.000 1134.496 L 129.000 1134.496 L 129.000 1109.496 Z" />
</g>
<g id="part-107">
<path d="M 129.000 24.496 L 145.000 24.496 L 145.000 36.496 L 129.000 36.496 L 129.000 24.496 Z" />
</g>
<g id="part-108">
<path d="M 60.000 1021.000 L 93.000 1021.000 L 93.000 1042.000 L 60.000 1042.000 L 60.000 1021.000 Z" />
</g>
<g id="part-109">
<path d="M 98.000 743.460 L 124.000 743.460 L 124.000 751.460 L 98.000 751.460 L 98.000 743.460 Z" />
</g>
<g id="part-110">
<path d="M 60.000 975.000 L 93.000 975.000 L 93.000 1006.000 L 60.000 1006.000 L 60.000 975.000 Z" />
<path d="M 70.560 984.920 L 70.560 996.080 L 82.440 996.080 L 82.440 984.920 L 70.560 984.920 Z" fill="#f7f7f2" fill-opacity="1" stroke="#163b5c" />
</g>
<g id="part-111">
<path d="M 98.000 121.460 L 122.000 121.460 L 122.000 175.460 L 98.000 175.460 L 98.000 121.460 Z" />
<path d="M 106.160 131.180 L 106.160 143.060 L 116.720 143.060 L 116.720 131.180 L 106.160 131.180 Z" fill="#f7f7f2" fill-opacity="1" stroke="#163b5c" />
<path d="M 106.160 153.860 L 106.160 165.740 L 116.720 165.740 L 116.720 153.860 L 106.160 153.860 Z" fill="#f7f7f2" fill-opacity="1" stroke="#163b5c" />
</g>
<g id="part-112">
<path d="M 10.000 1096.000 L 54.000 1096.000 L 54.000 1102.160 L 24.960 1102.160 L 24.960 1117.840 L 54.000 1117.840 L 54.000 1124.000 L 10.000 1124.000 L 10.000 1096.000 Z" />
</g>
<g id="part-113">
<path d="M 129.000 1016.496 L 151.000 1020.496 L 144.840 1038.496 L 132.000 1034.536 L 129.000 1016.496 Z" />
</g>
<g id="part-114">
<path d="M 170.676 1420.041 L 169.406 1422.203 L 165.999 1423.679 L 161.537 1424.000 L 157.437 1423.064 L 155.000 1421.168 L 155.000 1418.914 L 157.437 1417.018 L 161.537 1416.081 L 165.999 1416.402 L 169.406 1417.878 L 170.676 1420.041 Z" />
</g>
<g id="part-115">
<path d="M 60.000 739.000 L 92.000 739.000 L 92.000 757.000 L 60.000 757.000 L 60.000 739.000 Z" />
</g>
<g id="part-116">
<path d="M 98.000 346.460 L 123.000 346.460 L 123.000 373.460 L 98.000 373.460 L 98.000 346.460 Z" />
</g>
<g id="part-117">
<path d="M 129.000 332.496 L 147.000 332.496 L 147.000 346.496 L 129.000 346.496 L 129.000 332.496 Z" />
</g>
<g id="part-118">
<path d="M 155.000 712.381 L 166.000 712.381 L 166.000 735.381 L 155.000 735.381 L 155.000 712.381 Z" />
</g>
<g id="part-119">
<path d="M 98.000 1338.000 L 126.000 1338.000 L 126.000 1348.000 L 98.000 1348.000 L 98.000 1338.000 Z" />
</g>
<g id="part-120">
<path d="M 60.000 1291.000 L 95.000 1291.000 L 95.000 1324.000 L 60.000 1324.000 L 60.000 1291.000 Z" />
<path d="M 71.200 1301.560 L 71.200 1313.440 L 83.800 1313.440 L 83.800 1301.560 L 71.200 1301.560 Z" fill="#f7f7f2" fill-opacity="1" stroke="#163b5c" />
</g>
<g id="part-121">
<path d="M 98.000 569.460 L 124.000 569.460 L 124.000 625.460 L 98.000 625.460 L 98.000 569.460 Z" />
<path d="M 106.840 579.540 L 106.840 591.860 L 118.280 591.860 L 118.280 579.540 L 106.840 579.540 Z" fill="#f7f7f2" fill-opacity="1" stroke="#163b5c" />
<path d="M 106.840 603.060 L 106.840 615.380 L 118.280 615.380 L 118.280 603.060 L 106.840 603.060 Z" fill="#f7f7f2" fill-opacity="1" stroke="#163b5c" />
</g>
<g id="part-122">
<path d="M 10.000 1277.000 L 56.000 1277.000 L 56.000 1283.380 L 25.640 1283.380 L 25.640 1299.620 L 56.000 1299.620 L 56.000 1306.000 L 10.000 1306.000 L 10.000 1277.000 Z" />
</g>
<g id="part-123">
<path d="M 98.000 95.460 L 122.000 99.460 L 115.280 119.460 L 101.000 115.140 L 98.000 95.460 Z" />
</g>
<g id="part-124">
<path d="M 170.676 1384.346 L 169.406 1387.590 L 165.999 1389.804 L 161.537 1390.285 L 157.437 1388.881 L 155.000 1386.036 L 155.000 1382.656 L 157.437 1379.812 L 161.537 1378.407 L 165.999 1378.888 L 169.406 1381.102 L 170.676 1384.346 Z" />
</g>
<g id="part-125">
<path d="M 155.000 514.381 L 165.000 514.381 L 165.000 534.381 L 155.000 534.381 L 155.000 514.381 Z" />
</g>
<g id="part-126">
<path d="M 98.000 839.460 L 125.000 839.460 L 125.000 868.460 L 98.000 868.460 L 98.000 839.460 Z" />
</g>
<g id="part-127">
<path d="M 129.000 790.496 L 149.000 790.496 L 149.000 806.496 L 129.000 806.496 L 129.000 790.496 Z" />
</g>
<g id="part-128">
<path d="M 155.000 1089.529 L 168.000 1089.529 L 168.000 1114.529 L 155.000 1114.529 L 155.000 1089.529 Z" />
</g>
<g id="part-129">
<path d="M 60.000 107.548 L 90.000 107.548 L 90.000 119.548 L 60.000 119.548 L 60.000 107.548 Z" />
</g>
<g id="part-130">
<path d="M 10.000 158.000 L 47.000 158.000 L 47.000 193.000 L 10.000 193.000 L 10.000 158.000 Z" />
<path d="M 21.840 169.200 L 21.840 181.800 L 35.160 181.800 L 35.160 169.200 L 21.840 169.200 Z" fill="#f7f7f2" fill-opacity="1" stroke="#163b5c" />
</g>
<g id="part-131">
<path d="M 98.000 1236.000 L 126.000 1236.000 L 126.000 1278.000 L 98.000 1278.000 L 98.000 1236.000 Z" />
<path d="M 107.520 1243.560 L 107.520 1252.800 L 119.840 1252.800 L 119.840 1243.560 L 107.520 1243.560 Z" fill="#f7f7f2" fill-opacity="1" stroke="#163b5c" />
<path d="M 107.520 1261.200 L 107.520 1270.440 L 119.840 1270.440 L 119.840 1261.200 L 107.520 1261.200 Z" fill="#f7f7f2" fill-opacity="1" stroke="#163b5c" />
</g>
<g id="part-132">
<path d="M 10.000 1378.000 L 58.000 1378.000 L 58.000 1384.820 L 26.320 1384.820 L 26.320 1402.180 L 58.000 1402.180 L 58.000 1409.000 L 10.000 1409.000 L 10.000 1378.000 Z" />
</g>
<g id="part-133">
<path d="M 98.000 689.460 L 124.000 693.460 L 116.720 715.460 L 101.000 710.780 L 98.000 689.460 Z" />
</g>
<g id="part-134">
<path d="M 149.000 584.496 L 147.660 587.496 L 144.000 589.692 L 139.000 590.496 L 134.000 589.692 L 130.340 587.496 L 129.000 584.496 L 130.340 581.496 L 134.000 579.300 L 139.000 578.496 L 144.000 579.300 L 147.660 581.496 L 149.000 584.496 Z" />
</g>
<g id="part-135">
<path d="M 153.000 975.529 L 165.000 975.529 L 165.000 997.529 L 153.000 997.529 L 153.000 975.529 Z" />
</g>
<g id="part-136">
<path d="M 98.000 1402.000 L 127.000 1402.000 L 127.000 1411.000 L 98.000 1411.000 L 98.000 1402.000 Z" />
</g>
<g id="part-137">
<path d="M 129.000 970.496 L 151.000 970.496 L 151.000 988.496 L 129.000 988.496 L 129.000 970.496 Z" />
</g>
<g id="part-138">
<path d="M 155.000 1268.529 L 170.000 1268.529 L 170.000 1295.529 L 155.000 1295.529 L 155.000 1268.529 Z" />
</g>
<g id="part-139">
<path d="M 60.000 913.000 L 92.000 913.000 L 92.000 927.000 L 60.000 927.000 L 60.000 913.000 Z" />
</g>
<g id="part-140">
<path d="M 10.000 399.000 L 49.000 399.000 L 49.000 436.000 L 10.000 436.000 L 10.000 399.000 Z" />
<path d="M 22.480 410.840 L 22.480 424.160 L 36.520 424.160 L 36.520 410.840 L 22.480 410.840 Z" fill="#f7f7f2" fill-opacity="1" stroke="#163b5c" />
</g>
<g id="part-141">
<path d="M 60.000 199.548 L 90.000 199.548 L 90.000 241.548 L 60.000 241.548 L 60.000 199.548 Z" />
<path d="M 70.200 207.108 L 70.200 216.348 L 83.400 216.348 L 83.400 207.108 L 70.200 207.108 Z" fill="#f7f7f2" fill-opacity="1" stroke="#163b5c" />
<path d="M 70.200 224.748 L 70.200 233.988 L 83.400 233.988 L 83.400 224.748 L 70.200 224.748 Z" fill="#f7f7f2" fill-opacity="1" stroke="#163b5c" />
</g>
<g id="part-142">
<path d="M 98.000 452.460 L 124.000 452.460 L 124.000 459.720 L 106.840 459.720 L 106.840 478.200 L 124.000 478.200 L 124.000 485.460 L 98.000 485.460 L 98.000 452.460 Z" />
</g>
<g id="part-143">
<path d="M 98.000 1022.000 L 126.000 1026.000 L 118.160 1050.000 L 101.000 1044.960 L 98.000 1022.000 Z" />
</g>
<g id="part-144">
<path d="M 149.000 770.496 L 147.660 774.496 L 144.000 777.424 L 139.000 778.496 L 134.000 777.424 L 130.340 774.496 L 129.000 770.496 L 130.340 766.496 L 134.000 763.568 L 139.000 762.496 L 144.000 763.568 L 147.660 766.496 L 149.000 770.496 Z" />
</g>
<g id="part-145">
<path d="M 155.000 1116.529 L 169.000 1116.529 L 169.000 1140.529 L 155.000 1140.529 L 155.000 1116.529 Z" />
</g>
<g id="part-146">
<path d="M 60.000 511.548 L 91.000 511.548 L 91.000 522.548 L 60.000 522.548 L 60.000 511.548 Z" />
</g>
<g id="part-147">
<path d="M 129.000 1364.000 L 153.000 1364.000 L 153.000 1384.000 L 129.000 1384.000 L 129.000 1364.000 Z" />
</g>
<g id="part-148">
<path d="M 129.000 197.496 L 146.000 197.496 L 146.000 226.496 L 129.000 226.496 L 129.000 197.496 Z" />
</g>
<g id="part-149">
<path d="M 155.000 586.381 L 165.000 586.381 L 165.000 602.381 L 155.000 602.381 L 155.000 586.381 Z" />
</g>
<g id="part-150">
<path d="M 10.000 672.000 L 51.000 672.000 L 51.000 711.000 L 10.000 711.000 L 10.000 672.000 Z" />
<path d="M 23.120 684.480 L 23.120 698.520 L 37.880 698.520 L 37.880 684.480 L 23.120 684.480 Z" fill="#f7f7f2" fill-opacity="1" stroke="#163b5c" />
</g>
<g id="part-151">
<path d="M 60.000 759.000 L 92.000 759.000 L 92.000 801.000 L 60.000 801.000 L 60.000 759.000 Z" />
<path d="M 70.880 766.560 L 70.880 775.800 L 84.960 775.800 L 84.960 766.560 L 70.880 766.560 Z" fill="#f7f7f2" fill-opacity="1" stroke="#163b5c" />
<path d="M 70.880 784.200 L 70.880 793.440 L 84.960 793.440 L 84.960 784.200 L 70.880 784.200 Z" fill="#f7f7f2" fill-opacity="1" stroke="#163b5c" />
</g>
<g id="part-152">
<path d="M 98.000 1121.000 L 126.000 1121.000 L 126.000 1128.700 L 107.520 1128.700 L 107.520 1148.300 L 126.000 1148.300 L 126.000 1156.000 L 98.000 1156.000 L 98.000 1121.000 Z" />
</g>
<g id="part-153">
<path d="M 60.000 363.548 L 90.000 367.548 L 81.600 371.548 L 63.000 370.108 L 60.000 363.548 Z" />
</g>
<g id="part-154">
<path d="M 152.651 1184.175 L 151.277 1187.893 L 147.468 1190.759 L 142.098 1192.117 L 136.396 1191.655 L 131.669 1189.480 L 129.000 1186.090 L 129.000 1182.260 L 131.669 1178.870 L 136.396 1176.695 L 142.098 1176.233 L 147.468 1177.591 L 151.277 1180.457 L 152.651 1184.175 Z" />
</g>
<g id="part-155">
<path d="M 129.000 148.496 L 145.000 148.496 L 145.000 174.496 L 129.000 174.496 L 129.000 148.496 Z" />
</g>
<g id="part-156">
<path d="M 60.000 1104.000 L 93.000 1104.000 L 93.000 1117.000 L 60.000 1117.000 L 60.000 1104.000 Z" />
</g>
<g id="part-157">
<path d="M 98.000 627.460 L 124.000 627.460 L 124.000 649.460 L 98.000 649.460 L 98.000 627.460 Z" />
</g>
<g id="part-158">
<path d="M 129.000 512.496 L 148.000 512.496 L 148.000 521.496 L 129.000 521.496 L 129.000 512.496 Z" />
</g>
<g id="part-159">
<path d="M 155.000 853.921 L 167.000 853.921 L 167.000 871.921 L 155.000 871.921 L 155.000 853.921 Z" />
</g>
<g id="part-160">
<path d="M 10.000 916.000 L 53.000 916.000 L 53.000 957.000 L 10.000 957.000 L 10.000 916.000 Z" />
<path d="M 23.760 929.120 L 23.760 943.880 L 39.240 943.880 L 39.240 929.120 L 23.760 929.120 Z" fill="#f7f7f2" fill-opacity="1" stroke="#163b5c" />
</g>
<g id="part-161">
<path d="M 60.000 1119.000 L 94.000 1119.000 L 94.000 1161.000 L 60.000 1161.000 L 60.000 1119.000 Z" />
<path d="M 71.560 1126.560 L 71.560 1135.800 L 86.520 1135.800 L 86.520 1126.560 L 71.560 1126.560 Z" fill="#f7f7f2" fill-opacity="1" stroke="#163b5c" />
<path d="M 71.560 1144.200 L 71.560 1153.440 L 86.520 1153.440 L 86.520 1144.200 L 71.560 1144.200 Z" fill="#f7f7f2" fill-opacity="1" stroke="#163b5c" />
</g>
<g id="part-162">
<path d="M 60.000 280.548 L 90.000 280.548 L 90.000 288.688 L 70.200 288.688 L 70.200 309.408 L 90.000 309.408 L 90.000 317.548 L 60.000 317.548 L 60.000 280.548 Z" />
</g>
<g id="part-163">
<path d="M 60.000 655.000 L 92.000 659.000 L 83.040 665.000 L 63.000 663.200 L 60.000 655.000 Z" />
</g>
<g id="part-164">
<path d="M 152.651 1146.423 L 151.277 1151.070 L 147.468 1154.653 L 142.098 1156.350 L 136.396 1155.773 L 131.669 1153.054 L 129.000 1148.816 L 129.000 1144.030 L 131.669 1139.792 L 136.396 1137.073 L 142.098 1136.496 L 147.468 1138.193 L 151.277 1141.776 L 152.651 1146.423 Z" />
</g>
<g id="part-165">
<path d="M 129.000 348.496 L 147.000 348.496 L 147.000 376.496 L 129.000 376.496 L 129.000 348.496 Z" />
</g>
<g id="part-166">
<path d="M 155.000 695.381 L 166.000 695.381 L 166.000 710.381 L 155.000 710.381 L 155.000 695.381 Z" />
</g>
<g id="part-167">
<path d="M 98.000 1186.000 L 126.000 1186.000 L 126.000 1210.000 L 98.000 1210.000 L 98.000 1186.000 Z" />
</g>
<g id="part-168">
<path d="M 129.000 871.496 L 150.000 871.496 L 150.000 882.496 L 129.000 882.496 L 129.000 871.496 Z" />
</g>
<g id="part-169">
<path d="M 155.000 1246.529 L 169.000 1246.529 L 169.000 1266.529 L 155.000 1266.529 L 155.000 1246.529 Z" />
</g>
<g id="part-170">
<path d="M 10.000 1169.000 L 55.000 1169.000 L 55.000 1212.000 L 10.000 1212.000 L 10.000 1169.000 Z" />
<path d="M 24.400 1182.760 L 24.400 1198.240 L 40.600 1198.240 L 40.600 1182.760 L 24.400 1182.760 Z" fill="#f7f7f2" fill-opacity="1" stroke="#163b5c" />
</g>
<g id="part-171">
<path d="M 60.000 1396.000 L 96.000 1396.000 L 96.000 1440.000 L 60.000 1440.000 L 60.000 1396.000 Z" />
<path d="M 72.240 1403.920 L 72.240 1413.600 L 88.080 1413.600 L 88.080 1403.920 L 72.240 1403.920 Z" fill="#f7f7f2" fill-opacity="1" stroke="#163b5c" />
<path d="M 72.240 1422.400 L 72.240 1432.080 L 88.080 1432.080 L 88.080 1422.400 L 72.240 1422.400 Z" fill="#f7f7f2" fill-opacity="1" stroke="#163b5c" />
</g>
<g id="part-172">
<path d="M 60.000 833.000 L 92.000 833.000 L 92.000 841.580 L 70.880 841.580 L 70.880 863.420 L 92.000 863.420 L 92.000 872.000 L 60.000 872.000 L 60.000 833.000 Z" />
</g>
<g id="part-173">
<path d="M 155.000 548.381 L 165.000 552.381 L 162.200 560.381 L 158.000 558.221 L 155.000 548.381 Z" />
</g>
<g id="part-174">
<path d="M 125.694 996.055 L 124.484 1000.122 L 121.062 1003.486 L 116.020 1005.565 L 110.231 1006.000 L 104.694 1004.715 L 100.368 1001.933 L 98.000 998.134 L 98.000 993.976 L 100.368 990.177 L 104.694 987.395 L 110.231 986.110 L 116.020 986.544 L 121.062 988.623 L 124.484 991.987 L 125.694 996.055 Z" />
</g>
<g id="part-175">
<path d="M 129.000 780.496 L 149.000 780.496 L 149.000 788.496 L 129.000 788.496 L 129.000 780.496 Z" />
</g>
<g id="part-176">
<path d="M 155.000 1070.529 L 168.000 1070.529 L 168.000 1087.529 L 155.000 1087.529 L 155.000 1070.529 Z" />
</g>
<g id="part-177">
<path d="M 60.000 141.548 L 90.000 141.548 L 90.000 167.548 L 60.000 167.548 L 60.000 141.548 Z" />
</g>
<g id="part-178">
<path d="M 129.000 1081.496 L 152.000 1081.496 L 152.000 1094.496 L 129.000 1094.496 L 129.000 1081.496 Z" />
</g>
<g id="part-179">
<path d="M 129.000 76.496 L 145.000 76.496 L 145.000 98.496 L 129.000 98.496 L 129.000 76.496 Z" />
</g>
<g id="part-180">
<path d="M 10.000 1353.000 L 57.000 1353.000 L 57.000 1376.000 L 10.000 1376.000 L 10.000 1353.000 Z" />
<path d="M 25.040 1360.360 L 25.040 1368.640 L 41.960 1368.640 L 41.960 1360.360 L 25.040 1360.360 Z" fill="#f7f7f2" fill-opacity="1" stroke="#163b5c" />
</g>
<g id="part-181">
<path d="M 10.000 260.000 L 48.000 260.000 L 48.000 306.000 L 10.000 306.000 L 10.000 260.000 Z" />
<path d="M 22.920 268.280 L 22.920 278.400 L 39.640 278.400 L 39.640 268.280 L 22.920 268.280 Z" fill="#f7f7f2" fill-opacity="1" stroke="#163b5c" />
<path d="M 22.920 287.600 L 22.920 297.720 L 39.640 297.720 L 39.640 287.600 L 22.920 287.600 Z" fill="#f7f7f2" fill-opacity="1" stroke="#163b5c" />
</g>
<g id="part-182">
<path d="M 60.000 1163.000 L 94.000 1163.000 L 94.000 1172.020 L 71.560 1172.020 L 71.560 1194.980 L 94.000 1194.980 L 94.000 1204.000 L 60.000 1204.000 L 60.000 1163.000 Z" />
</g>
<g id="part-183">
<path d="M 155.000 915.529 L 167.000 919.529 L 163.640 929.529 L 158.000 927.009 L 155.000 915.529 Z" />
</g>
<g id="part-184">
<path d="M 125.694 950.285 L 124.484 955.166 L 121.062 959.203 L 116.020 961.698 L 110.231 962.219 L 104.694 960.677 L 100.368 957.338 L 98.000 952.780 L 98.000 947.790 L 100.368 943.231 L 104.694 939.893 L 110.231 938.351 L 116.020 938.872 L 121.062 941.367 L 124.484 945.404 L 125.694 950.285 Z" />
</g>
<g id="part-185">
<path d="M 129.000 1040.496 L 151.000 1040.496 L 151.000 1050.496 L 129.000 1050.496 L 129.000 1040.496 Z" />
</g>
<g id="part-186">
<path d="M 155.000 1297.529 L 170.000 1297.529 L 170.000 1316.529 L 155.000 1316.529 L 155.000 1297.529 Z" />
</g>
<g id="part-187">
<path d="M 60.000 803.000 L 92.000 803.000 L 92.000 831.000 L 60.000 831.000 L 60.000 803.000 Z" />
</g>
<g id="part-188">
<path d="M 98.000 314.460 L 123.000 314.460 L 123.000 329.460 L 98.000 329.460 L 98.000 314.460 Z" />
</g>
<g id="part-189">
<path d="M 129.000 396.496 L 147.000 396.496 L 147.000 420.496 L 129.000 420.496 L 129.000 396.496 Z" />
</g>
<g id="part-190">
<path d="M 98.000 231.460 L 123.000 231.460 L 123.000 256.460 L 98.000 256.460 L 98.000 231.460 Z" />
<path d="M 106.000 239.460 L 106.000 248.460 L 115.000 248.460 L 115.000 239.460 L 106.000 239.460 Z" fill="#f7f7f2" fill-opacity="1" stroke="#163b5c" />
</g>
<g id="part-191">
<path d="M 10.000 535.000 L 50.000 535.000 L 50.000 583.000 L 10.000 583.000 L 10.000 535.000 Z" />
<path d="M 23.600 543.640 L 23.600 554.200 L 41.200 554.200 L 41.200 543.640 L 23.600 543.640 Z" fill="#f7f7f2" fill-opacity="1" stroke="#163b5c" />
<path d="M 23.600 563.800 L 23.600 574.360 L 41.200 574.360 L 41.200 563.800 L 23.600 563.800 Z" fill="#f7f7f2" fill-opacity="1" stroke="#163b5c" />
</g>
<g id="part-192">
<path d="M 10.000 70.000 L 46.000 70.000 L 46.000 79.460 L 22.240 79.460 L 22.240 103.540 L 46.000 103.540 L 46.000 113.000 L 10.000 113.000 L 10.000 70.000 Z" />
</g>
<g id="part-193">
<path d="M 155.000 1154.529 L 169.000 1158.529 L 165.080 1170.529 L 158.000 1167.649 L 155.000 1154.529 Z" />
</g>
<g id="part-194">
<path d="M 91.650 615.197 L 90.267 620.078 L 86.356 624.115 L 80.595 626.610 L 73.978 627.131 L 67.650 625.590 L 62.706 622.251 L 60.000 617.692 L 60.000 612.702 L 62.706 608.144 L 67.650 604.805 L 73.978 603.263 L 80.595 603.785 L 86.356 606.279 L 90.267 610.316 L 91.650 615.197 Z" />
</g>
<g id="part-195">
<path d="M 98.000 61.460 L 122.000 61.460 L 122.000 73.460 L 98.000 73.460 L 98.000 61.460 Z" />
</g>
<g id="part-196">
<path d="M 129.000 257.496 L 146.000 257.496 L 146.000 278.496 L 129.000 278.496 L 129.000 257.496 Z" />
</g>
<g id="part-197">
<path d="M 155.000 604.381 L 165.000 604.381 L 165.000 612.381 L 155.000 612.381 L 155.000 604.381 Z" />
</g>
<g id="part-198">
<path d="M 98.000 791.460 L 125.000 791.460 L 125.000 808.460 L 98.000 808.460 L 98.000 791.460 Z" />
</g>
<g id="part-199">
<path d="M 129.000 642.496 L 149.000 642.496 L 149.000 668.496 L 129.000 668.496 L 129.000 642.496 Z" />
</g>
<g id="part-200">
<path d="M 98.000 810.460 L 125.000 810.460 L 125.000 837.460 L 98.000 837.460 L 98.000 810.460 Z" />
<path d="M 106.640 819.100 L 106.640 828.820 L 116.360 828.820 L 116.360 819.100 L 106.640 819.100 Z" fill="#f7f7f2" fill-opacity="1" stroke="#163b5c" />
</g>
<g id="part-201">
<path d="M 10.000 773.000 L 52.000 773.000 L 52.000 823.000 L 10.000 823.000 L 10.000 773.000 Z" />
<path d="M 24.280 782.000 L 24.280 793.000 L 42.760 793.000 L 42.760 782.000 L 24.280 782.000 Z" fill="#f7f7f2" fill-opacity="1" stroke="#163b5c" />
<path d="M 24.280 803.000 L 24.280 814.000 L 42.760 814.000 L 42.760 803.000 L 24.280 803.000 Z" fill="#f7f7f2" fill-opacity="1" stroke="#163b5c" />
</g>
<g id="part-202">
<path d="M 10.000 230.000 L 48.000 230.000 L 48.000 236.160 L 22.920 236.160 L 22.920 251.840 L 48.000 251.840 L 48.000 258.000 L 10.000 258.000 L 10.000 230.000 Z" />
</g>
<g id="part-203">
<path d="M 129.000 56.496 L 145.000 60.496 L 140.520 74.496 L 132.000 71.256 L 129.000 56.496 Z" />
</g>
<g id="part-204">
<path d="M 91.650 587.340 L 90.267 593.034 L 86.356 597.744 L 80.595 600.654 L 73.978 601.263 L 67.650 599.464 L 62.706 595.569 L 60.000 590.250 L 60.000 584.429 L 62.706 579.111 L 67.650 575.215 L 73.978 573.416 L 80.595 574.025 L 86.356 576.936 L 90.267 581.645 L 91.650 587.340 Z" />
</g>
<g id="part-205">
<path d="M 98.000 673.460 L 124.000 673.460 L 124.000 687.460 L 98.000 687.460 L 98.000 673.460 Z" />
</g>
<g id="part-206">
<path d="M 129.000 464.496 L 148.000 464.496 L 148.000 487.496 L 129.000 487.496 L 129.000 464.496 Z" />
</g>
<g id="part-207">
<path d="M 155.000 963.529 L 167.000 963.529 L 167.000 973.529 L 155.000 973.529 L 155.000 963.529 Z" />
</g>
<g id="part-208">
<path d="M 98.000 1381.000 L 127.000 1381.000 L 127.000 1400.000 L 98.000 1400.000 L 98.000 1381.000 Z" />
</g>
<g id="part-209">
<path d="M 129.000 902.496 L 151.000 902.496 L 151.000 930.496 L 129.000 930.496 L 129.000 902.496 Z" />
</g>
<g id="part-210">
<path d="M 98.000 1350.000 L 127.000 1350.000 L 127.000 1379.000 L 98.000 1379.000 L 98.000 1350.000 Z" />
<path d="M 107.280 1359.280 L 107.280 1369.720 L 117.720 1369.720 L 117.720 1359.280 L 107.280 1359.280 Z" fill="#f7f7f2" fill-opacity="1" stroke="#163b5c" />
</g>
<g id="part-211">
<path d="M 10.000 990.000 L 54.000 990.000 L 54.000 1042.000 L 10.000 1042.000 L 10.000 990.000 Z" />
<path d="M 24.960 999.360 L 24.960 1010.800 L 44.320 1010.800 L 44.320 999.360 L 24.960 999.360 Z" fill="#f7f7f2" fill-opacity="1" stroke="#163b5c" />
<path d="M 24.960 1021.200 L 24.960 1032.640 L 44.320 1032.640 L 44.320 1021.200 L 24.960 1021.200 Z" fill="#f7f7f2" fill-opacity="1" stroke="#163b5c" />
</g>
<g id="part-212">
<path d="M 10.000 505.000 L 50.000 505.000 L 50.000 511.160 L 23.600 511.160 L 23.600 526.840 L 50.000 526.840 L 50.000 533.000 L 10.000 533.000 L 10.000 505.000 Z" />
</g>
<g id="part-213">
<path d="M 129.000 442.496 L 147.000 446.496 L 141.960 462.496 L 132.000 458.896 L 129.000 442.496 Z" />
</g>
<g id="part-214">
<path d="M 166.869 808.151 L 166.350 813.845 L 164.884 818.555 L 162.723 821.466 L 160.242 822.074 L 157.869 820.275 L 156.015 816.380 L 155.000 811.062 L 155.000 805.240 L 156.015 799.922 L 157.869 796.027 L 160.242 794.228 L 162.723 794.836 L 164.884 797.747 L 166.350 802.457 L 166.869 808.151 Z" />
</g>
<g id="part-215">
<path d="M 98.000 1052.000 L 126.000 1052.000 L 126.000 1068.000 L 98.000 1068.000 L 98.000 1052.000 Z" />
</g>
<g id="part-216">
<path d="M 129.000 808.496 L 150.000 808.496 L 150.000 833.496 L 129.000 833.496 L 129.000 808.496 Z" />
</g>
<g id="part-217">
<path d="M 155.000 1216.529 L 169.000 1216.529 L 169.000 1228.529 L 155.000 1228.529 L 155.000 1216.529 Z" />
</g>
<g id="part-218">
<path d="M 60.000 524.548 L 91.000 524.548 L 91.000 545.548 L 60.000 545.548 L 60.000 524.548 Z" />
</g>
<g id="part-219">
<path d="M 98.000 51.460 L 122.000 51.460 L 122.000 59.460 L 98.000 59.460 L 98.000 51.460 Z" />
</g>
<g id="part-220">
<path d="M 60.000 467.548 L 91.000 467.548 L 91.000 498.548 L 60.000 498.548 L 60.000 467.548 Z" />
<path d="M 69.920 477.468 L 69.920 488.628 L 81.080 488.628 L 81.080 477.468 L 69.920 477.468 Z" fill="#f7f7f2" fill-opacity="1" stroke="#163b5c" />
</g>
<g id="part-221">
<path d="M 129.000 1386.000 L 153.000 1386.000 L 153.000 1440.000 L 129.000 1440.000 L 129.000 1386.000 Z" />
<path d="M 137.160 1395.720 L 137.160 1407.600 L 147.720 1407.600 L 147.720 1395.720 L 137.160 1395.720 Z" fill="#f7f7f2" fill-opacity="1" stroke="#163b5c" />
<path d="M 137.160 1418.400 L 137.160 1430.280 L 147.720 1430.280 L 147.720 1418.400 L 137.160 1418.400 Z" fill="#f7f7f2" fill-opacity="1" stroke="#163b5c" />
</g>
<g id="part-222">
<path d="M 10.000 743.000 L 52.000 743.000 L 52.000 749.160 L 24.280 749.160 L 24.280 764.840 L 52.000 764.840 L 52.000 771.000 L 10.000 771.000 L 10.000 743.000 Z" />
</g>
<g id="part-223">
<path d="M 129.000 554.496 L 149.000 558.496 L 143.400 576.496 L 132.000 572.536 L 129.000 554.496 Z" />
</g>
<g id="part-224">
<path d="M 167.000 877.725 L 165.854 880.076 L 162.854 881.529 L 159.146 881.529 L 156.146 880.076 L 155.000 877.725 L 156.146 875.374 L 159.146 873.921 L 162.854 873.921 L 165.854 875.374 L 167.000 877.725 Z" />
</g>
<g id="part-225">
<path d="M 60.000 121.548 L 90.000 121.548 L 90.000 139.548 L 60.000 139.548 L 60.000 121.548 Z" />
</g>
<g id="part-226">
<path d="M 129.000 1052.496 L 152.000 1052.496 L 152.000 1079.496 L 129.000 1079.496 L 129.000 1052.496 Z" />
</g>
<g id="part-227">
<path d="M 155.000 1426.000 L 171.000 1426.000 L 171.000 1440.000 L 155.000 1440.000 L 155.000 1426.000 Z" />
</g>
<g id="part-228">
<path d="M 60.000 1079.000 L 93.000 1079.000 L 93.000 1102.000 L 60.000 1102.000 L 60.000 1079.000 Z" />
</g>
<g id="part-229">
<path d="M 98.000 557.460 L 124.000 557.460 L 124.000 567.460 L 98.000 567.460 L 98.000 557.460 Z" />
</g>
<g id="part-230">
<path d="M 60.000 1044.000 L 93.000 1044.000 L 93.000 1077.000 L 60.000 1077.000 L 60.000 1044.000 Z" />
<path d="M 70.560 1054.560 L 70.560 1066.440 L 82.440 1066.440 L 82.440 1054.560 L 70.560 1054.560 Z" fill="#f7f7f2" fill-opacity="1" stroke="#163b5c" />
</g>
<g id="part-231">
<path d="M 129.000 1306.000 L 153.000 1306.000 L 153.000 1362.000 L 129.000 1362.000 L 129.000 1306.000 Z" />
<path d="M 137.160 1316.080 L 137.160 1328.400 L 147.720 1328.400 L 147.720 1316.080 L 137.160 1316.080 Z" fill="#f7f7f2" fill-opacity="1" stroke="#163b5c" />
<path d="M 137.160 1339.600 L 137.160 1351.920 L 147.720 1351.920 L 147.720 1339.600 L 137.160 1339.600 Z" fill="#f7f7f2" fill-opacity="1" stroke="#163b5c" />
</g>
<g id="part-232">
<path d="M 10.000 959.000 L 54.000 959.000 L 54.000 965.380 L 24.960 965.380 L 24.960 981.620 L 54.000 981.620 L 54.000 988.000 L 10.000 988.000 L 10.000 959.000 Z" />
</g>
<g id="part-233">
<path d="M 129.000 990.496 L 151.000 994.496 L 144.840 1014.496 L 132.000 1010.176 L 129.000 990.496 Z" />
</g>
<g id="part-234">
<path d="M 170.676 1370.468 L 169.406 1373.712 L 165.999 1375.926 L 161.537 1376.407 L 157.437 1375.003 L 155.000 1372.159 L 155.000 1368.778 L 157.437 1365.934 L 161.537 1364.529 L 165.999 1365.010 L 169.406 1367.224 L 170.676 1370.468 Z" />
</g>
<g id="part-235">
<path d="M 60.000 943.000 L 92.000 943.000 L 92.000 963.000 L 60.000 963.000 L 60.000 943.000 Z" />
</g>
<g id="part-236">
<path d="M 98.000 258.460 L 123.000 258.460 L 123.000 287.460 L 98.000 287.460 L 98.000 258.460 Z" />
</g>
<g id="part-237">
<path d="M 129.000 378.496 L 147.000 378.496 L 147.000 394.496 L 129.000 394.496 L 129.000 378.496 Z" />
</g>
<g id="part-238">
<path d="M 155.000 737.381 L 166.000 737.381 L 166.000 762.381 L 155.000 762.381 L 155.000 737.381 Z" />
</g>
<g id="part-239">
<path d="M 98.000 1008.000 L 126.000 1008.000 L 126.000 1020.000 L 98.000 1020.000 L 98.000 1008.000 Z" />
</g>
<g id="part-240">
<path d="M 60.000 1359.000 L 95.000 1359.000 L 95.000 1394.000 L 60.000 1394.000 L 60.000 1359.000 Z" />
<path d="M 71.200 1370.200 L 71.200 1382.800 L 83.800 1382.800 L 83.800 1370.200 L 71.200 1370.200 Z" fill="#f7f7f2" fill-opacity="1" stroke="#163b5c" />
</g>
<g id="part-241">
<path d="M 98.000 408.460 L 124.000 408.460 L 124.000 450.460 L 98.000 450.460 L 98.000 408.460 Z" />
<path d="M 106.840 416.020 L 106.840 425.260 L 118.280 425.260 L 118.280 416.020 L 106.840 416.020 Z" fill="#f7f7f2" fill-opacity="1" stroke="#163b5c" />
<path d="M 106.840 433.660 L 106.840 442.900 L 118.280 442.900 L 118.280 433.660 L 106.840 433.660 Z" fill="#f7f7f2" fill-opacity="1" stroke="#163b5c" />
</g>
<g id="part-242">
<path d="M 10.000 1244.000 L 56.000 1244.000 L 56.000 1250.820 L 25.640 1250.820 L 25.640 1268.180 L 56.000 1268.180 L 56.000 1275.000 L 10.000 1275.000 L 10.000 1244.000 Z" />
</g>
<g id="part-243">
<path d="M 129.000 1266.000 L 153.000 1270.000 L 146.280 1292.000 L 132.000 1287.320 L 129.000 1266.000 Z" />
</g>
<g id="part-244">
<path d="M 170.676 1398.224 L 169.406 1401.468 L 165.999 1403.682 L 161.537 1404.163 L 157.437 1402.758 L 155.000 1399.914 L 155.000 1396.534 L 157.437 1393.689 L 161.537 1392.285 L 165.999 1392.766 L 169.406 1394.980 L 170.676 1398.224 Z" />
</g>
<g id="part-245">
<path d="M 155.000 562.381 L 165.000 562.381 L 165.000 584.381 L 155.000 584.381 L 155.000 562.381 Z" />
</g>
<g id="part-246">
<path d="M 98.000 753.460 L 125.000 753.460 L 125.000 762.460 L 98.000 762.460 L 98.000 753.460 Z" />
</g>
<g id="part-247">
<path d="M 129.000 622.496 L 149.000 622.496 L 149.000 640.496 L 129.000 640.496 L 129.000 622.496 Z" />
</g>
<g id="part-248">
<path d="M 155.000 999.529 L 168.000 999.529 L 168.000 1026.529 L 155.000 1026.529 L 155.000 999.529 Z" />
</g>
<g id="part-249">
<path d="M 60.000 399.548 L 90.000 399.548 L 90.000 413.548 L 60.000 413.548 L 60.000 399.548 Z" />
</g>
</g>
<text x="10" y="20" font-size="14" fill="#222">mixed_250_parts / Balanced</text>
</svg>
