<svg xmlns="http://www.w3.org/2000/svg" width="1450.000" height="940.000" viewBox="0 0 1450.000 940.000">
<rect x="0" y="0" width="1450.000" height="940.000" fill="#f7f7f2" />
<g fill="none" stroke="#2a2a2a" stroke-width="1.2">
<path d="M 0.000 0.000 L 1450.000 0.000 L 1450.000 940.000 L 0.000 940.000 L 0.000 0.000 Z" stroke="#1f5f8b" />
</g>
<g fill="#86b8e7" fill-opacity="0.58" stroke="#163b5c" stroke-width="0.8">
<g id="part-0">
<path d="M 746.000 462.000 L 775.000 462.000 L 775.000 497.000 L 746.000 497.000 L 746.000 462.000 Z" />
<path d="M 755.280 473.200 L 755.280 485.800 L 765.720 485.800 L 765.720 473.200 L 755.280 473.200 Z" fill="#f7f7f2" fill-opacity="1" stroke="#163b5c" />
</g>
<g id="part-1">
<path d="M 726.500 529.825 L 770.500 529.825 L 770.500 571.825 L 726.500 571.825 L 726.500 529.825 Z" />
<path d="M 741.460 537.385 L 741.460 546.625 L 760.820 546.625 L 760.820 537.385 L 741.460 537.385 Z" fill="#f7f7f2" fill-opacity="1" stroke="#163b5c" />
<path d="M 741.460 555.025 L 741.460 564.265 L 760.820 564.265 L 760.820 555.025 L 741.460 555.025 Z" fill="#f7f7f2" fill-opacity="1" stroke="#163b5c" />
</g>
<g id="part-2">
<path d="M 733.000 243.000 L 773.000 243.000 L 773.000 249.820 L 746.600 249.820 L 746.600 267.180 L 773.000 267.180 L 773.000 274.000 L 733.000 274.000 L 733.000 243.000 Z" />
</g>
<g id="part-3">
<path d="M 760.000 190.000 L 778.000 194.000 L 772.960 216.000 L 763.000 211.320 L 760.000 190.000 Z" />
</g>
<g id="part-4">
<path d="M 811.500 483.119 L 810.354 486.645 L 807.354 488.825 L 803.646 488.825 L 800.646 486.645 L 799.500 483.119 L 800.646 479.592 L 803.646 477.412 L 807.354 477.412 L 810.354 479.592 L 811.500 483.119 Z" />
</g>
<g id="part-5">
<path d="M 757.500 94.500 L 785.500 94.500 L 785.500 116.500 L 757.500 116.500 L 757.500 94.500 Z" />
</g>
<g id="part-6">
<path d="M 719.000 691.325 L 740.000 691.325 L 740.000 700.325 L 719.000 700.325 L 719.000 691.325 Z" />
</g>
<g id="part-7">
<path d="M 731.500 312.000 L 745.500 312.000 L 745.500 330.000 L 731.500 330.000 L 731.500 312.000 Z" />
</g>
<g id="part-8">
<path d="M 698.500 336.000 L 729.500 336.000 L 729.500 363.000 L 698.500 363.000 L 698.500 336.000 Z" />
</g>
<g id="part-9">
<path d="M 756.500 18.653 L 780.500 18.653 L 780.500 32.653 L 756.500 32.653 L 756.500 18.653 Z" />
</g>
<g id="part-10">
<path d="M 762.000 788.325 L 793.000 788.325 L 793.000 825.325 L 762.000 825.325 L 762.000 788.325 Z" />
<path d="M 771.920 800.165 L 771.920 813.485 L 783.080 813.485 L 783.080 800.165 L 771.920 800.165 Z" fill="#f7f7f2" fill-opacity="1" stroke="#163b5c" />
</g>
<g id="part-11">
<path d="M 749.500 289.000 L 773.500 289.000 L 773.500 331.000 L 749.500 331.000 L 749.500 289.000 Z" />
<path d="M 757.660 296.560 L 757.660 305.800 L 768.220 305.800 L 768.220 296.560 L 757.660 296.560 Z" fill="#f7f7f2" fill-opacity="1" stroke="#163b5c" />
<path d="M 757.660 314.200 L 757.660 323.440 L 768.220 323.440 L 768.220 314.200 L 757.660 314.200 Z" fill="#f7f7f2" fill-opacity="1" stroke="#163b5c" />
</g>
<g id="part-12">
<path d="M 731.500 333.000 L 773.500 333.000 L 773.500 340.260 L 745.780 340.260 L 745.780 358.740 L 773.500 358.740 L 773.500 366.000 L 731.500 366.000 L 731.500 333.000 Z" />
</g>
<g id="part-13">
<path d="M 787.500 64.500 L 807.500 68.500 L 801.900 92.500 L 790.500 87.460 L 787.500 64.500 Z" />
</g>
<g id="part-14">
<path d="M 724.500 550.825 L 723.548 555.150 L 720.992 558.102 L 717.646 558.744 L 714.571 556.871 L 712.743 553.079 L 712.743 548.571 L 714.571 544.779 L 717.646 542.906 L 720.992 543.548 L 723.548 546.500 L 724.500 550.825 Z" />
</g>
<g id="part-15">
<path d="M 738.000 162.000 L 768.000 162.000 L 768.000 186.000 L 738.000 186.000 L 738.000 162.000 Z" />
</g>
<g id="part-16">
<path d="M 750.000 276.000 L 773.000 276.000 L 773.000 287.000 L 750.000 287.000 L 750.000 276.000 Z" />
</g>
<g id="part-17">
<path d="M 771.500 140.000 L 787.500 140.000 L 787.500 160.000 L 771.500 160.000 L 771.500 140.000 Z" />
</g>
<g id="part-18">
<path d="M 708.500 412.000 L 741.500 412.000 L 741.500 441.000 L 708.500 441.000 L 708.500 412.000 Z" />
</g>
<g id="part-19">
<path d="M 777.500 533.825 L 803.500 533.825 L 803.500 549.825 L 777.500 549.825 L 777.500 533.825 Z" />
</g>
<g id="part-20">
<path d="M 694.500 650.325 L 727.500 650.325 L 727.500 689.325 L 694.500 689.325 L 694.500 650.325 Z" />
<path d="M 705.060 662.805 L 705.060 676.845 L 716.940 676.845 L 716.940 662.805 L 705.060 662.805 Z" fill="#f7f7f2" fill-opacity="1" stroke="#163b5c" />
</g>
<g id="part-21">
<path d="M 705.500 264.000 L 729.500 264.000 L 729.500 306.000 L 705.500 306.000 L 705.500 264.000 Z" />
<path d="M 713.660 271.560 L 713.660 280.800 L 724.220 280.800 L 724.220 271.560 L 713.660 271.560 Z" fill="#f7f7f2" fill-opacity="1" stroke="#163b5c" />
<path d="M 713.660 289.200 L 713.660 298.440 L 724.220 298.440 L 724.220 289.200 L 713.660 289.200 Z" fill="#f7f7f2" fill-opacity="1" stroke="#163b5c" />
</g>
<g id="part-22">
<path d="M 755.500 827.325 L 799.500 827.325 L 799.500 835.025 L 770.460 835.025 L 770.460 854.625 L 799.500 854.625 L 799.500 862.325 L 755.500 862.325 L 755.500 827.325 Z" />
</g>
<g id="part-23">
<path d="M 748.500 573.825 L 770.500 577.825 L 764.340 581.825 L 751.500 580.385 L 748.500 573.825 Z" />
</g>
<g id="part-24">
<path d="M 810.676 796.244 L 809.406 800.569 L 805.999 803.521 L 801.537 804.162 L 797.437 802.290 L 795.000 798.497 L 795.000 793.990 L 797.437 790.198 L 801.537 788.325 L 805.999 788.967 L 809.406 791.918 L 810.676 796.244 Z" />
</g>
<g id="part-25">
<path d="M 697.500 308.000 L 729.500 308.000 L 729.500 334.000 L 697.500 334.000 L 697.500 308.000 Z" />
</g>
<g id="part-26">
<path d="M 711.500 45.500 L 736.500 45.500 L 736.500 58.500 L 711.500 58.500 L 711.500 45.500 Z" />
</g>
<g id="part-27">
<path d="M 776.500 406.825 L 794.500 406.825 L 794.500 428.825 L 776.500 428.825 L 776.500 406.825 Z" />
</g>
<g id="part-28">
<path d="M 796.500 419.825 L 807.500 419.825 L 807.500 428.825 L 796.500 428.825 L 796.500 419.825 Z" />
</g>
<g id="part-29">
<path d="M 780.000 347.825 L 808.000 347.825 L 808.000 365.825 L 780.000 365.825 L 780.000 347.825 Z" />
</g>
<g id="part-30">
<path d="M 699.000 606.825 L 734.000 606.825 L 734.000 647.825 L 699.000 647.825 L 699.000 606.825 Z" />
<path d="M 710.200 619.945 L 710.200 634.705 L 722.800 634.705 L 722.800 619.945 L 710.200 619.945 Z" fill="#f7f7f2" fill-opacity="1" stroke="#163b5c" />
</g>
<g id="part-31">
<path d="M 747.500 368.000 L 773.500 368.000 L 773.500 410.000 L 747.500 410.000 L 747.500 368.000 Z" />
<path d="M 756.340 375.560 L 756.340 384.800 L 767.780 384.800 L 767.780 375.560 L 756.340 375.560 Z" fill="#f7f7f2" fill-opacity="1" stroke="#163b5c" />
<path d="M 756.340 393.200 L 756.340 402.440 L 767.780 402.440 L 767.780 393.200 L 756.340 393.200 Z" fill="#f7f7f2" fill-opacity="1" stroke="#163b5c" />
</g>
<g id="part-32">
<path d="M 755.500 749.325 L 801.500 749.325 L 801.500 757.465 L 771.140 757.465 L 771.140 778.185 L 801.500 778.185 L 801.500 786.325 L 755.500 786.325 L 755.500 749.325 Z" />
</g>
<g id="part-33">
<path d="M 736.500 517.825 L 760.500 521.825 L 753.780 527.825 L 739.500 526.025 L 736.500 517.825 Z" />
</g>
<g id="part-34">
<path d="M 773.000 509.000 L 771.928 514.000 L 769.000 517.660 L 765.000 519.000 L 761.000 517.660 L 758.072 514.000 L 757.000 509.000 L 758.072 504.000 L 761.000 500.340 L 765.000 499.000 L 769.000 500.340 L 771.928 504.000 L 773.000 509.000 Z" />
</g>
<g id="part-35">
<path d="M 748.000 188.000 L 758.000 188.000 L 758.000 216.000 L 748.000 216.000 L 748.000 188.000 Z" />
</g>
<g id="part-36">
<path d="M 777.500 516.825 L 804.500 516.825 L 804.500 531.825 L 777.500 531.825 L 777.500 516.825 Z" />
</g>
<g id="part-37">
<path d="M 777.500 474.825 L 797.500 474.825 L 797.500 498.825 L 777.500 498.825 L 777.500 474.825 Z" />
</g>
<g id="part-38">
<path d="M 711.500 529.906 L 724.500 529.906 L 724.500 540.906 L 711.500 540.906 L 711.500 529.906 Z" />
</g>
<g id="part-39">
<path d="M 706.500 60.500 L 736.500 60.500 L 736.500 80.500 L 706.500 80.500 L 706.500 60.500 Z" />
</g>
<g id="part-40">
<path d="M 772.000 605.825 L 809.000 605.825 L 809.000 648.825 L 772.000 648.825 L 772.000 605.825 Z" />
<path d="M 783.840 619.585 L 783.840 635.065 L 797.160 635.065 L 797.160 619.585 L 783.840 619.585 Z" fill="#f7f7f2" fill-opacity="1" stroke="#163b5c" />
</g>
<g id="part-41">
<path d="M 693.500 741.325 L 721.500 741.325 L 721.500 785.325 L 693.500 785.325 L 693.500 741.325 Z" />
<path d="M 703.020 749.245 L 703.020 758.925 L 715.340 758.925 L 715.340 749.245 L 703.020 749.245 Z" fill="#f7f7f2" fill-opacity="1" stroke="#163b5c" />
<path d="M 703.020 767.725 L 703.020 777.405 L 715.340 777.405 L 715.340 767.725 L 703.020 767.725 Z" fill="#f7f7f2" fill-opacity="1" stroke="#163b5c" />
</g>
<g id="part-42">
<path d="M 770.500 704.325 L 818.500 704.325 L 818.500 712.905 L 786.820 712.905 L 786.820 734.745 L 818.500 734.745 L 818.500 743.325 L 770.500 743.325 L 770.500 704.325 Z" />
</g>
<g id="part-43">
<path d="M 712.000 499.000 L 738.000 503.000 L 730.720 511.000 L 715.000 508.840 L 712.000 499.000 Z" />
</g>
<g id="part-44">
<path d="M 746.000 202.000 L 744.660 207.000 L 741.000 210.660 L 736.000 212.000 L 731.000 210.660 L 727.340 207.000 L 726.000 202.000 L 727.340 197.000 L 731.000 193.340 L 736.000 192.000 L 741.000 193.340 L 744.660 197.000 L 746.000 202.000 Z" />
</g>
<g id="part-45">
<path d="M 799.500 490.825 L 811.500 490.825 L 811.500 498.825 L 799.500 498.825 L 799.500 490.825 Z" />
</g>
<g id="part-46">
<path d="M 776.500 387.825 L 805.500 387.825 L 805.500 404.825 L 776.500 404.825 L 776.500 387.825 Z" />
</g>
<g id="part-47">
<path d="M 784.347 36.500 L 806.347 36.500 L 806.347 62.500 L 784.347 62.500 L 784.347 36.500 Z" />
</g>
<g id="part-48">
<path d="M 740.000 499.000 L 755.000 499.000 L 755.000 512.000 L 740.000 512.000 L 740.000 499.000 Z" />
</g>
<g id="part-49">
<path d="M 701.500 155.500 L 733.500 155.500 L 733.500 177.500 L 701.500 177.500 L 701.500 155.500 Z" />
</g>
<g id="part-50">
<path d="M 733.500 218.000 L 772.500 218.000 L 772.500 241.000 L 733.500 241.000 L 733.500 218.000 Z" />
<path d="M 745.980 225.360 L 745.980 233.640 L 760.020 233.640 L 760.020 225.360 L 745.980 225.360 Z" fill="#f7f7f2" fill-opacity="1" stroke="#163b5c" />
</g>
<g id="part-51">
<path d="M 723.500 740.325 L 753.500 740.325 L 753.500 786.325 L 723.500 786.325 L 723.500 740.325 Z" />
<path d="M 733.700 748.605 L 733.700 758.725 L 746.900 758.725 L 746.900 748.605 L 733.700 748.605 Z" fill="#f7f7f2" fill-opacity="1" stroke="#163b5c" />
<path d="M 733.700 767.925 L 733.700 778.045 L 746.900 778.045 L 746.900 767.925 L 733.700 767.925 Z" fill="#f7f7f2" fill-opacity="1" stroke="#163b5c" />
</g>
<g id="part-52">
<path d="M 707.500 112.500 L 733.500 112.500 L 733.500 121.520 L 716.340 121.520 L 716.340 144.480 L 733.500 144.480 L 733.500 153.500 L 707.500 153.500 L 707.500 112.500 Z" />
</g>
<g id="part-53">
<path d="M 746.000 443.000 L 774.000 447.000 L 766.160 457.000 L 749.000 454.480 L 746.000 443.000 Z" />
</g>
<g id="part-54">
<path d="M 799.709 253.913 L 798.564 259.489 L 795.390 263.788 L 790.915 265.825 L 786.163 265.133 L 782.224 261.870 L 780.000 256.784 L 780.000 251.041 L 782.224 245.955 L 786.163 242.692 L 790.915 242.000 L 795.390 244.037 L 798.564 248.336 L 799.709 253.913 Z" />
</g>
<g id="part-55">
<path d="M 720.000 594.825 L 734.000 594.825 L 734.000 604.825 L 720.000 604.825 L 720.000 594.825 Z" />
</g>
<g id="part-56">
<path d="M 708.500 24.500 L 739.500 24.500 L 739.500 43.500 L 708.500 43.500 L 708.500 24.500 Z" />
</g>
<g id="part-57">
<path d="M 709.500 82.500 L 733.500 82.500 L 733.500 110.500 L 709.500 110.500 L 709.500 82.500 Z" />
</g>
<g id="part-58">
<path d="M 712.500 247.000 L 729.500 247.000 L 729.500 262.000 L 712.500 262.000 L 712.500 247.000 Z" />
</g>
<g id="part-59">
<path d="M 743.500 417.000 L 753.500 417.000 L 753.500 441.000 L 743.500 441.000 L 743.500 417.000 Z" />
</g>
<g id="part-60">
<path d="M 704.500 385.000 L 745.500 385.000 L 745.500 410.000 L 704.500 410.000 L 704.500 385.000 Z" />
<path d="M 717.620 393.000 L 717.620 402.000 L 732.380 402.000 L 732.380 393.000 L 717.620 393.000 Z" fill="#f7f7f2" fill-opacity="1" stroke="#163b5c" />
</g>
<g id="part-61">
<path d="M 778.500 654.325 L 810.500 654.325 L 810.500 702.325 L 778.500 702.325 L 778.500 654.325 Z" />
<path d="M 789.380 662.965 L 789.380 673.525 L 803.460 673.525 L 803.460 662.965 L 789.380 662.965 Z" fill="#f7f7f2" fill-opacity="1" stroke="#163b5c" />
<path d="M 789.380 683.125 L 789.380 693.685 L 803.460 693.685 L 803.460 683.125 L 789.380 683.125 Z" fill="#f7f7f2" fill-opacity="1" stroke="#163b5c" />
</g>
<g id="part-62">
<path d="M 703.500 179.500 L 731.500 179.500 L 731.500 188.960 L 713.020 188.960 L 713.020 213.040 L 731.500 213.040 L 731.500 222.500 L 703.500 222.500 L 703.500 179.500 Z" />
</g>
<g id="part-63">
<path d="M 738.000 121.000 L 768.000 125.000 L 759.600 137.000 L 741.000 134.120 L 738.000 121.000 Z" />
</g>
<g id="part-64">
<path d="M 813.326 144.087 L 811.951 149.664 L 808.142 153.963 L 802.772 156.000 L 797.070 155.308 L 792.344 152.045 L 789.674 146.959 L 789.674 141.216 L 792.344 136.130 L 797.070 132.867 L 802.772 132.175 L 808.142 134.212 L 811.951 138.511 L 813.326 144.087 Z" />
</g>
<g id="part-65">
<path d="M 705.500 727.325 L 721.500 727.325 L 721.500 739.325 L 705.500 739.325 L 705.500 727.325 Z" />
</g>
<g id="part-66">
<path d="M 736.500 139.000 L 769.500 139.000 L 769.500 160.000 L 736.500 160.000 L 736.500 139.000 Z" />
</g>
<g id="part-67">
<path d="M 712.000 375.000 L 738.000 375.000 L 738.000 383.000 L 712.000 383.000 L 712.000 375.000 Z" />
</g>
<g id="part-68">
<path d="M 770.000 120.000 L 789.000 120.000 L 789.000 137.000 L 770.000 137.000 L 770.000 120.000 Z" />
</g>
<g id="part-69">
<path d="M 770.000 162.000 L 782.000 162.000 L 782.000 188.000 L 770.000 188.000 L 770.000 162.000 Z" />
</g>
<g id="part-70">
<path d="M 717.000 788.325 L 760.000 788.325 L 760.000 815.325 L 717.000 815.325 L 717.000 788.325 Z" />
<path d="M 730.760 796.965 L 730.760 806.685 L 746.240 806.685 L 746.240 796.965 L 730.760 796.965 Z" fill="#f7f7f2" fill-opacity="1" stroke="#163b5c" />
</g>
<g id="part-71">
<path d="M 736.000 602.325 L 770.000 602.325 L 770.000 652.325 L 736.000 652.325 L 736.000 602.325 Z" />
<path d="M 747.560 611.325 L 747.560 622.325 L 762.520 622.325 L 762.520 611.325 L 747.560 611.325 Z" fill="#f7f7f2" fill-opacity="1" stroke="#163b5c" />
<path d="M 747.560 632.325 L 747.560 643.325 L 762.520 643.325 L 762.520 632.325 L 747.560 632.325 Z" fill="#f7f7f2" fill-opacity="1" stroke="#163b5c" />
</g>
<g id="part-72">
<path d="M 780.000 297.825 L 810.000 297.825 L 810.000 303.985 L 790.200 303.985 L 790.200 319.665 L 810.000 319.665 L 810.000 325.825 L 780.000 325.825 L 780.000 297.825 Z" />
</g>
<g id="part-73">
<path d="M 780.000 327.825 L 812.000 331.825 L 803.040 345.825 L 783.000 342.585 L 780.000 327.825 Z" />
</g>
<g id="part-74">
<path d="M 811.238 108.423 L 810.200 114.118 L 807.267 118.827 L 802.946 121.738 L 797.983 122.347 L 793.238 120.548 L 789.530 116.652 L 787.500 111.334 L 787.500 105.513 L 789.530 100.194 L 793.238 96.299 L 797.983 94.500 L 802.946 95.109 L 807.267 98.019 L 810.200 102.729 L 811.238 108.423 Z" />
</g>
<g id="part-75">
<path d="M 755.500 427.000 L 773.500 427.000 L 773.500 441.000 L 755.500 441.000 L 755.500 427.000 Z" />
</g>
<g id="part-76">
<path d="M 733.000 287.000 L 744.000 287.000 L 744.000 310.000 L 733.000 310.000 L 733.000 287.000 Z" />
</g>
<g id="part-77">
<path d="M 703.500 224.500 L 731.500 224.500 L 731.500 234.500 L 703.500 234.500 L 703.500 224.500 Z" />
</g>
<g id="part-78">
<path d="M 777.500 453.825 L 798.500 453.825 L 798.500 472.825 L 777.500 472.825 L 777.500 453.825 Z" />
</g>
<g id="part-79">
<path d="M 795.000 187.000 L 809.000 187.000 L 809.000 215.000 L 795.000 215.000 L 795.000 187.000 Z" />
</g>
<g id="part-80">
<path d="M 723.500 709.325 L 768.500 709.325 L 768.500 738.325 L 723.500 738.325 L 723.500 709.325 Z" />
<path d="M 737.900 718.605 L 737.900 729.045 L 754.100 729.045 L 754.100 718.605 L 737.900 718.605 Z" fill="#f7f7f2" fill-opacity="1" stroke="#163b5c" />
</g>
<g id="part-81">
<path d="M 772.500 551.825 L 808.500 551.825 L 808.500 603.825 L 772.500 603.825 L 772.500 551.825 Z" />
<path d="M 784.740 561.185 L 784.740 572.625 L 800.580 572.625 L 800.580 561.185 L 784.740 561.185 Z" fill="#f7f7f2" fill-opacity="1" stroke="#163b5c" />
<path d="M 784.740 583.025 L 784.740 594.465 L 800.580 594.465 L 800.580 583.025 L 784.740 583.025 Z" fill="#f7f7f2" fill-opacity="1" stroke="#163b5c" />
</g>
<g id="part-82">
<path d="M 780.000 267.825 L 812.000 267.825 L 812.000 273.985 L 790.880 273.985 L 790.880 289.665 L 812.000 289.665 L 812.000 295.825 L 780.000 295.825 L 780.000 267.825 Z" />
</g>
<g id="part-83">
<path d="M 800.500 455.412 L 810.500 459.412 L 807.700 475.412 L 803.500 471.812 L 800.500 455.412 Z" />
</g>
<g id="part-84">
<path d="M 782.347 48.577 L 781.137 54.271 L 777.715 58.981 L 772.673 61.891 L 766.884 62.500 L 761.347 60.701 L 757.021 56.806 L 754.653 51.487 L 754.653 45.666 L 757.021 40.348 L 761.347 36.452 L 766.884 34.653 L 772.673 35.262 L 777.715 38.173 L 781.137 42.882 L 782.347 48.577 Z" />
</g>
<g id="part-85">
<path d="M 735.500 94.500 L 755.500 94.500 L 755.500 110.500 L 735.500 110.500 L 735.500 94.500 Z" />
</g>
<g id="part-86">
<path d="M 780.000 190.000 L 793.000 190.000 L 793.000 215.000 L 780.000 215.000 L 780.000 190.000 Z" />
</g>
<g id="part-87">
<path d="M 709.750 817.315 L 739.750 817.315 L 739.750 829.315 L 709.750 829.315 L 709.750 817.315 Z" />
</g>
<g id="part-88">
<path d="M 776.500 430.825 L 799.500 430.825 L 799.500 451.825 L 776.500 451.825 L 776.500 430.825 Z" />
</g>
<g id="part-89">
<path d="M 730.500 573.825 L 746.500 573.825 L 746.500 581.825 L 730.500 581.825 L 730.500 573.825 Z" />
</g>
<g id="part-90">
<path d="M 729.500 654.325 L 776.500 654.325 L 776.500 685.325 L 729.500 685.325 L 729.500 654.325 Z" />
<path d="M 744.540 664.245 L 744.540 675.405 L 761.460 675.405 L 761.460 664.245 L 744.540 664.245 Z" fill="#f7f7f2" fill-opacity="1" stroke="#163b5c" />
</g>
<g id="part-91">
<path d="M 706.000 443.000 L 744.000 443.000 L 744.000 497.000 L 706.000 497.000 L 706.000 443.000 Z" />
<path d="M 718.920 452.720 L 718.920 464.600 L 735.640 464.600 L 735.640 452.720 L 718.920 452.720 Z" fill="#f7f7f2" fill-opacity="1" stroke="#163b5c" />
<path d="M 718.920 475.400 L 718.920 487.280 L 735.640 487.280 L 735.640 475.400 L 718.920 475.400 Z" fill="#f7f7f2" fill-opacity="1" stroke="#163b5c" />
</g>
<g id="part-92">
<path d="M 751.500 64.500 L 785.500 64.500 L 785.500 70.660 L 763.060 70.660 L 763.060 86.340 L 785.500 86.340 L 785.500 92.500 L 751.500 92.500 L 751.500 64.500 Z" />
</g>
<g id="part-93">
<path d="M 705.000 691.325 L 717.000 695.325 L 713.640 713.325 L 708.000 709.365 L 705.000 691.325 Z" />
</g>
<g id="part-94">
<path d="M 766.847 596.347 L 765.637 597.974 L 762.215 599.320 L 757.173 600.151 L 751.384 600.325 L 745.847 599.811 L 741.521 598.698 L 739.153 597.179 L 739.153 595.515 L 741.521 593.996 L 745.847 592.883 L 751.384 592.369 L 757.173 592.543 L 762.215 593.374 L 765.637 594.720 L 766.847 596.347 Z" />
</g>
<g id="part-95">
<path d="M 780.000 367.825 L 802.000 367.825 L 802.000 385.825 L 780.000 385.825 L 780.000 367.825 Z" />
</g>
<g id="part-96">
<path d="M 794.000 158.000 L 809.000 158.000 L 809.000 185.000 L 794.000 185.000 L 794.000 158.000 Z" />
</g>
<g id="part-97">
<path d="M 777.500 500.825 L 809.500 500.825 L 809.500 514.825 L 777.500 514.825 L 777.500 500.825 Z" />
</g>
<g id="part-98">
<path d="M 780.000 217.000 L 805.000 217.000 L 805.000 240.000 L 780.000 240.000 L 780.000 217.000 Z" />
</g>
<g id="part-99">
<path d="M 716.500 517.825 L 734.500 517.825 L 734.500 527.825 L 716.500 527.825 L 716.500 517.825 Z" />
</g>
</g>
<text x="10" y="20" font-size="14" fill="#222">mixed_100_parts / Maximum</text>
</svg>
