<svg xmlns="http://www.w3.org/2000/svg" width="2250.000" height="1450.000" viewBox="0 0 2250.000 1450.000">
<rect x="0" y="0" width="2250.000" height="1450.000" fill="#f7f7f2" />
<g fill="none" stroke="#2a2a2a" stroke-width="1.2">
<path d="M 0.000 0.000 L 2250.000 0.000 L 2250.000 1450.000 L 0.000 1450.000 L 0.000 0.000 Z" stroke="#1f5f8b" />
</g>
<g fill="#86b8e7" fill-opacity="0.58" stroke="#163b5c" stroke-width="0.8">
<g id="part-0">
<path d="M 1150.500 832.000 L 1185.500 832.000 L 1185.500 863.000 L 1150.500 863.000 L 1150.500 832.000 Z" />
<path d="M 1161.700 841.920 L 1161.700 853.080 L 1174.300 853.080 L 1174.300 841.920 L 1161.700 841.920 Z" fill="#f7f7f2" fill-opacity="1" stroke="#163b5c" />
</g>
<g id="part-1">
<path d="M 1112.000 108.000 L 1138.000 108.000 L 1138.000 162.000 L 1112.000 162.000 L 1112.000 108.000 Z" />
<path d="M 1120.840 117.720 L 1120.840 129.600 L 1132.280 129.600 L 1132.280 117.720 L 1120.840 117.720 Z" fill="#f7f7f2" fill-opacity="1" stroke="#163b5c" />
<path d="M 1120.840 140.400 L 1120.840 152.280 L 1132.280 152.280 L 1132.280 140.400 L 1120.840 140.400 Z" fill="#f7f7f2" fill-opacity="1" stroke="#163b5c" />
</g>
<g id="part-2">
<path d="M 1185.576 1249.685 L 1231.576 1249.685 L 1231.576 1255.845 L 1201.216 1255.845 L 1201.216 1271.525 L 1231.576 1271.525 L 1231.576 1277.685 L 1185.576 1277.685 L 1185.576 1249.685 Z" />
</g>
<g id="part-3">
<path d="M 1175.959 403.497 L 1199.959 407.497 L 1193.239 425.497 L 1178.959 421.537 L 1175.959 403.497 Z" />
</g>
<g id="part-4">
<path d="M 1150.514 494.041 L 1149.244 496.203 L 1145.837 497.679 L 1141.375 498.000 L 1137.275 497.064 L 1134.838 495.168 L 1134.838 492.914 L 1137.275 491.018 L 1141.375 490.081 L 1145.837 490.402 L 1149.244 491.878 L 1150.514 494.041 Z" />
</g>
<g id="part-5">
<path d="M 1161.000 259.000 L 1171.000 259.000 L 1171.000 277.000 L 1161.000 277.000 L 1161.000 259.000 Z" />
</g>
<g id="part-6">
<path d="M 1233.576 1236.685 L 1260.576 1236.685 L 1260.576 1263.685 L 1233.576 1263.685 L 1233.576 1236.685 Z" />
</g>
<g id="part-7">
<path d="M 1238.011 1171.685 L 1258.011 1171.685 L 1258.011 1185.685 L 1238.011 1185.685 L 1238.011 1171.685 Z" />
</g>
<g id="part-8">
<path d="M 1247.434 695.307 L 1260.434 695.307 L 1260.434 718.307 L 1247.434 718.307 L 1247.434 695.307 Z" />
</g>
<g id="part-9">
<path d="M 1242.086 679.307 L 1272.086 679.307 L 1272.086 689.307 L 1242.086 689.307 L 1242.086 679.307 Z" />
</g>
<g id="part-10">
<path d="M 1143.000 279.000 L 1180.000 279.000 L 1180.000 312.000 L 1143.000 312.000 L 1143.000 279.000 Z" />
<path d="M 1154.840 289.560 L 1154.840 301.440 L 1168.160 301.440 L 1168.160 289.560 L 1154.840 289.560 Z" fill="#f7f7f2" fill-opacity="1" stroke="#163b5c" />
</g>
<g id="part-11">
<path d="M 1111.500 1156.878 L 1139.500 1156.878 L 1139.500 1212.878 L 1111.500 1212.878 L 1111.500 1156.878 Z" />
<path d="M 1121.020 1166.958 L 1121.020 1179.278 L 1133.340 1179.278 L 1133.340 1166.958 L 1121.020 1166.958 Z" fill="#f7f7f2" fill-opacity="1" stroke="#163b5c" />
<path d="M 1121.020 1190.478 L 1121.020 1202.798 L 1133.340 1202.798 L 1133.340 1190.478 L 1121.020 1190.478 Z" fill="#f7f7f2" fill-opacity="1" stroke="#163b5c" />
</g>
<g id="part-12">
<path d="M 1154.576 1218.685 L 1202.576 1218.685 L 1202.576 1225.065 L 1170.896 1225.065 L 1170.896 1241.305 L 1202.576 1241.305 L 1202.576 1247.685 L 1154.576 1247.685 L 1154.576 1218.685 Z" />
</g>
<g id="part-13">
<path d="M 1198.459 98.497 L 1224.459 102.497 L 1217.179 122.497 L 1201.459 118.177 L 1198.459 98.497 Z" />
</g>
<g id="part-14">
<path d="M 1158.500 1422.878 L 1157.160 1425.878 L 1153.500 1428.074 L 1148.500 1428.878 L 1143.500 1428.074 L 1139.840 1425.878 L 1138.500 1422.878 L 1139.840 1419.878 L 1143.500 1417.682 L 1148.500 1416.878 L 1153.500 1417.682 L 1157.160 1419.878 L 1158.500 1422.878 Z" />
</g>
<g id="part-15">
<path d="M 1185.500 957.000 L 1197.500 957.000 L 1197.500 977.000 L 1185.500 977.000 L 1185.500 957.000 Z" />
</g>
<g id="part-16">
<path d="M 1154.576 1249.685 L 1183.576 1249.685 L 1183.576 1278.685 L 1154.576 1278.685 L 1154.576 1249.685 Z" />
</g>
<g id="part-17">
<path d="M 1255.434 847.307 L 1277.434 847.307 L 1277.434 863.307 L 1255.434 863.307 L 1255.434 847.307 Z" />
</g>
<g id="part-18">
<path d="M 1186.959 298.497 L 1201.959 298.497 L 1201.959 323.497 L 1186.959 323.497 L 1186.959 298.497 Z" />
</g>
<g id="part-19">
<path d="M 1230.959 254.497 L 1262.959 254.497 L 1262.959 266.497 L 1230.959 266.497 L 1230.959 254.497 Z" />
</g>
<g id="part-20">
<path d="M 1106.000 1297.878 L 1145.000 1297.878 L 1145.000 1332.878 L 1106.000 1332.878 L 1106.000 1297.878 Z" />
<path d="M 1118.480 1309.078 L 1118.480 1321.678 L 1132.520 1321.678 L 1132.520 1309.078 L 1118.480 1309.078 Z" fill="#f7f7f2" fill-opacity="1" stroke="#163b5c" />
</g>
<g id="part-21">
<path d="M 1153.500 471.000 L 1183.500 471.000 L 1183.500 513.000 L 1153.500 513.000 L 1153.500 471.000 Z" />
<path d="M 1163.700 478.560 L 1163.700 487.800 L 1176.900 487.800 L 1176.900 478.560 L 1163.700 478.560 Z" fill="#f7f7f2" fill-opacity="1" stroke="#163b5c" />
<path d="M 1163.700 496.200 L 1163.700 505.440 L 1176.900 505.440 L 1176.900 496.200 L 1163.700 496.200 Z" fill="#f7f7f2" fill-opacity="1" stroke="#163b5c" />
</g>
<g id="part-22">
<path d="M 1200.959 193.497 L 1226.959 193.497 L 1226.959 200.317 L 1209.799 200.317 L 1209.799 217.677 L 1226.959 217.677 L 1226.959 224.497 L 1200.959 224.497 L 1200.959 193.497 Z" />
</g>
<g id="part-23">
<path d="M 1198.459 140.497 L 1226.459 144.497 L 1218.619 166.497 L 1201.459 161.817 L 1198.459 140.497 Z" />
</g>
<g id="part-24">
<path d="M 1165.500 170.000 L 1164.160 173.000 L 1160.500 175.196 L 1155.500 176.000 L 1150.500 175.196 L 1146.840 173.000 L 1145.500 170.000 L 1146.840 167.000 L 1150.500 164.804 L 1155.500 164.000 L 1160.500 164.804 L 1164.160 167.000 L 1165.500 170.000 Z" />
</g>
<g id="part-25">
<path d="M 1194.934 613.865 L 1208.934 613.865 L 1208.934 635.865 L 1194.934 635.865 L 1194.934 613.865 Z" />
</g>
<g id="part-26">
<path d="M 1224.434 903.153 L 1255.434 903.153 L 1255.434 912.153 L 1224.434 912.153 L 1224.434 903.153 Z" />
</g>
<g id="part-27">
<path d="M 1218.265 47.551 L 1242.265 47.551 L 1242.265 65.551 L 1218.265 65.551 L 1218.265 47.551 Z" />
</g>
<g id="part-28">
<path d="M 1261.459 56.497 L 1278.459 56.497 L 1278.459 83.497 L 1261.459 83.497 L 1261.459 56.497 Z" />
</g>
<g id="part-29">
<path d="M 1106.500 994.000 L 1116.500 994.000 L 1116.500 1008.000 L 1106.500 1008.000 L 1106.500 994.000 Z" />
</g>
<g id="part-30">
<path d="M 1105.000 1058.000 L 1146.000 1058.000 L 1146.000 1095.000 L 1105.000 1095.000 L 1105.000 1058.000 Z" />
<path d="M 1118.120 1069.840 L 1118.120 1083.160 L 1132.880 1083.160 L 1132.880 1069.840 L 1118.120 1069.840 Z" fill="#f7f7f2" fill-opacity="1" stroke="#163b5c" />
</g>
<g id="part-31">
<path d="M 1109.000 201.000 L 1141.000 201.000 L 1141.000 243.000 L 1109.000 243.000 L 1109.000 201.000 Z" />
<path d="M 1119.880 208.560 L 1119.880 217.800 L 1133.960 217.800 L 1133.960 208.560 L 1119.880 208.560 Z" fill="#f7f7f2" fill-opacity="1" stroke="#163b5c" />
<path d="M 1119.880 226.200 L 1119.880 235.440 L 1133.960 235.440 L 1133.960 226.200 L 1119.880 226.200 Z" fill="#f7f7f2" fill-opacity="1" stroke="#163b5c" />
</g>
<g id="part-32">
<path d="M 1235.959 420.497 L 1263.959 420.497 L 1263.959 427.757 L 1245.479 427.757 L 1245.479 446.237 L 1263.959 446.237 L 1263.959 453.497 L 1235.959 453.497 L 1235.959 420.497 Z" />
</g>
<g id="part-33">
<path d="M 1203.959 425.497 L 1233.959 429.497 L 1225.559 453.497 L 1206.959 448.457 L 1203.959 425.497 Z" />
</g>
<g id="part-34">
<path d="M 1240.086 681.365 L 1238.711 685.083 L 1234.903 687.949 L 1229.532 689.307 L 1223.830 688.845 L 1219.104 686.670 L 1216.434 683.280 L 1216.434 679.451 L 1219.104 676.060 L 1223.830 673.885 L 1229.532 673.423 L 1234.903 674.781 L 1238.711 677.647 L 1240.086 681.365 Z" />
</g>
<g id="part-35">
<path d="M 1261.459 352.497 L 1277.459 352.497 L 1277.459 376.497 L 1261.459 376.497 L 1261.459 352.497 Z" />
</g>
<g id="part-36">
<path d="M 1199.959 346.497 L 1232.959 346.497 L 1232.959 357.497 L 1199.959 357.497 L 1199.959 346.497 Z" />
</g>
<g id="part-37">
<path d="M 1200.959 226.497 L 1226.959 226.497 L 1226.959 246.497 L 1200.959 246.497 L 1200.959 226.497 Z" />
</g>
<g id="part-38">
<path d="M 1240.459 347.497 L 1259.459 347.497 L 1259.459 376.497 L 1240.459 376.497 L 1240.459 347.497 Z" />
</g>
<g id="part-39">
<path d="M 1150.500 623.000 L 1162.500 623.000 L 1162.500 639.000 L 1150.500 639.000 L 1150.500 623.000 Z" />
</g>
<g id="part-40">
<path d="M 1103.500 383.081 L 1146.500 383.081 L 1146.500 422.081 L 1103.500 422.081 L 1103.500 383.081 Z" />
<path d="M 1117.260 395.561 L 1117.260 409.601 L 1132.740 409.601 L 1132.740 395.561 L 1117.260 395.561 Z" fill="#f7f7f2" fill-opacity="1" stroke="#163b5c" />
</g>
<g id="part-41">
<path d="M 1108.000 10.000 L 1142.000 10.000 L 1142.000 52.000 L 1108.000 52.000 L 1108.000 10.000 Z" />
<path d="M 1119.560 17.560 L 1119.560 26.800 L 1134.520 26.800 L 1134.520 17.560 L 1119.560 17.560 Z" fill="#f7f7f2" fill-opacity="1" stroke="#163b5c" />
<path d="M 1119.560 35.200 L 1119.560 44.440 L 1134.520 44.440 L 1134.520 35.200 L 1119.560 35.200 Z" fill="#f7f7f2" fill-opacity="1" stroke="#163b5c" />
</g>
<g id="part-42">
<path d="M 1249.934 604.865 L 1279.934 604.865 L 1279.934 612.565 L 1260.134 612.565 L 1260.134 632.165 L 1279.934 632.165 L 1279.934 639.865 L 1249.934 639.865 L 1249.934 604.865 Z" />
</g>
<g id="part-43">
<path d="M 1109.500 1334.878 L 1141.500 1338.878 L 1132.540 1342.878 L 1112.500 1341.438 L 1109.500 1334.878 Z" />
</g>
<g id="part-44">
<path d="M 1214.434 704.807 L 1213.060 708.525 L 1209.251 711.391 L 1203.881 712.748 L 1198.179 712.287 L 1193.452 710.112 L 1190.783 706.721 L 1190.783 702.892 L 1193.452 699.502 L 1198.179 697.327 L 1203.881 696.865 L 1209.251 698.223 L 1213.060 701.089 L 1214.434 704.807 Z" />
</g>
<g id="part-45">
<path d="M 1198.265 39.551 L 1216.265 39.551 L 1216.265 65.551 L 1198.265 65.551 L 1198.265 39.551 Z" />
</g>
<g id="part-46">
<path d="M 1141.500 1199.878 L 1152.500 1199.878 L 1152.500 1212.878 L 1141.500 1212.878 L 1141.500 1199.878 Z" />
</g>
<g id="part-47">
<path d="M 1255.434 770.307 L 1283.434 770.307 L 1283.434 792.307 L 1255.434 792.307 L 1255.434 770.307 Z" />
</g>
<g id="part-48">
<path d="M 1154.000 116.000 L 1175.000 116.000 L 1175.000 125.000 L 1154.000 125.000 L 1154.000 116.000 Z" />
</g>
<g id="part-49">
<path d="M 1174.500 1039.000 L 1188.500 1039.000 L 1188.500 1057.000 L 1174.500 1057.000 L 1174.500 1039.000 Z" />
</g>
<g id="part-50">
<path d="M 1103.000 812.000 L 1148.000 812.000 L 1148.000 853.000 L 1103.000 853.000 L 1103.000 812.000 Z" />
<path d="M 1117.400 825.120 L 1117.400 839.880 L 1133.600 839.880 L 1133.600 825.120 L 1117.400 825.120 Z" fill="#f7f7f2" fill-opacity="1" stroke="#163b5c" />
</g>
<g id="part-51">
<path d="M 1107.500 1253.878 L 1143.500 1253.878 L 1143.500 1295.878 L 1107.500 1295.878 L 1107.500 1253.878 Z" />
<path d="M 1119.740 1261.438 L 1119.740 1270.678 L 1135.580 1270.678 L 1135.580 1261.438 L 1119.740 1261.438 Z" fill="#f7f7f2" fill-opacity="1" stroke="#163b5c" />
<path d="M 1119.740 1279.078 L 1119.740 1288.318 L 1135.580 1288.318 L 1135.580 1279.078 L 1119.740 1279.078 Z" fill="#f7f7f2" fill-opacity="1" stroke="#163b5c" />
</g>
<g id="part-52">
<path d="M 1216.500 1077.000 L 1248.500 1077.000 L 1248.500 1085.140 L 1227.380 1085.140 L 1227.380 1105.860 L 1248.500 1105.860 L 1248.500 1114.000 L 1216.500 1114.000 L 1216.500 1077.000 Z" />
</g>
<g id="part-53">
<path d="M 1120.000 753.000 L 1130.000 757.000 L 1127.200 763.000 L 1123.000 761.200 L 1120.000 753.000 Z" />
</g>
<g id="part-54">
<path d="M 1196.265 55.606 L 1195.054 59.674 L 1191.633 63.038 L 1186.591 65.117 L 1180.801 65.551 L 1175.265 64.266 L 1170.939 61.484 L 1168.571 57.685 L 1168.571 53.527 L 1170.939 49.728 L 1175.265 46.946 L 1180.801 45.661 L 1186.591 46.096 L 1191.633 48.175 L 1195.054 51.539 L 1196.265 55.606 Z" />
</g>
<g id="part-55">
<path d="M 1177.959 346.497 L 1197.959 346.497 L 1197.959 374.497 L 1177.959 374.497 L 1177.959 346.497 Z" />
</g>
<g id="part-56">
<path d="M 1164.500 623.000 L 1177.500 623.000 L 1177.500 638.000 L 1164.500 638.000 L 1164.500 623.000 Z" />
</g>
<g id="part-57">
<path d="M 1218.934 974.153 L 1248.934 974.153 L 1248.934 998.153 L 1218.934 998.153 L 1218.934 974.153 Z" />
</g>
<g id="part-58">
<path d="M 1194.500 1023.000 L 1217.500 1023.000 L 1217.500 1034.000 L 1194.500 1034.000 L 1194.500 1023.000 Z" />
</g>
<g id="part-59">
<path d="M 1223.434 556.865 L 1239.434 556.865 L 1239.434 576.865 L 1223.434 576.865 L 1223.434 556.865 Z" />
</g>
<g id="part-60">
<path d="M 1101.500 602.000 L 1148.500 602.000 L 1148.500 645.000 L 1101.500 645.000 L 1101.500 602.000 Z" />
<path d="M 1116.540 615.760 L 1116.540 631.240 L 1133.460 631.240 L 1133.460 615.760 L 1116.540 615.760 Z" fill="#f7f7f2" fill-opacity="1" stroke="#163b5c" />
</g>
<g id="part-61">
<path d="M 1106.500 1012.000 L 1144.500 1012.000 L 1144.500 1056.000 L 1106.500 1056.000 L 1106.500 1012.000 Z" />
<path d="M 1119.420 1019.920 L 1119.420 1029.600 L 1136.140 1029.600 L 1136.140 1019.920 L 1119.420 1019.920 Z" fill="#f7f7f2" fill-opacity="1" stroke="#163b5c" />
<path d="M 1119.420 1038.400 L 1119.420 1048.080 L 1136.140 1048.080 L 1136.140 1038.400 L 1119.420 1038.400 Z" fill="#f7f7f2" fill-opacity="1" stroke="#163b5c" />
</g>
<g id="part-62">
<path d="M 1153.076 1344.685 L 1187.076 1344.685 L 1187.076 1353.265 L 1164.636 1353.265 L 1164.636 1375.105 L 1187.076 1375.105 L 1187.076 1383.685 L 1153.076 1383.685 L 1153.076 1344.685 Z" />
</g>
<g id="part-63">
<path d="M 1103.000 753.000 L 1115.000 757.000 L 1111.640 765.000 L 1106.000 762.840 L 1103.000 753.000 Z" />
</g>
<g id="part-64">
<path d="M 1225.959 77.551 L 1224.749 81.619 L 1221.327 84.983 L 1216.285 87.062 L 1210.496 87.497 L 1204.959 86.212 L 1200.633 83.429 L 1198.265 79.630 L 1198.265 75.472 L 1200.633 71.674 L 1204.959 68.891 L 1210.496 67.606 L 1216.285 68.041 L 1221.327 70.120 L 1224.749 73.484 L 1225.959 77.551 Z" />
</g>
<g id="part-65">
<path d="M 1114.500 1420.878 L 1136.500 1420.878 L 1136.500 1428.878 L 1114.500 1428.878 L 1114.500 1420.878 Z" />
</g>
<g id="part-66">
<path d="M 1203.500 1004.000 L 1218.500 1004.000 L 1218.500 1021.000 L 1203.500 1021.000 L 1203.500 1004.000 Z" />
</g>
<g id="part-67">
<path d="M 1153.076 1385.685 L 1185.076 1385.685 L 1185.076 1411.685 L 1153.076 1411.685 L 1153.076 1385.685 Z" />
</g>
<g id="part-68">
<path d="M 1255.434 794.307 L 1280.434 794.307 L 1280.434 807.307 L 1255.434 807.307 L 1255.434 794.307 Z" />
</g>
<g id="part-69">
<path d="M 1176.112 250.431 L 1194.112 250.431 L 1194.112 272.431 L 1176.112 272.431 L 1176.112 250.431 Z" />
</g>
<g id="part-70">
<path d="M 1201.459 168.497 L 1226.459 168.497 L 1226.459 191.497 L 1201.459 191.497 L 1201.459 168.497 Z" />
<path d="M 1209.459 175.857 L 1209.459 184.137 L 1218.459 184.137 L 1218.459 175.857 L 1209.459 175.857 Z" fill="#f7f7f2" fill-opacity="1" stroke="#163b5c" />
</g>
<g id="part-71">
<path d="M 1105.500 898.000 L 1145.500 898.000 L 1145.500 944.000 L 1105.500 944.000 L 1105.500 898.000 Z" />
<path d="M 1119.100 906.280 L 1119.100 916.400 L 1136.700 916.400 L 1136.700 906.280 L 1119.100 906.280 Z" fill="#f7f7f2" fill-opacity="1" stroke="#163b5c" />
<path d="M 1119.100 925.600 L 1119.100 935.720 L 1136.700 935.720 L 1136.700 925.600 L 1119.100 925.600 Z" fill="#f7f7f2" fill-opacity="1" stroke="#163b5c" />
</g>
<g id="part-72">
<path d="M 1153.576 1059.685 L 1189.576 1059.685 L 1189.576 1068.705 L 1165.816 1068.705 L 1165.816 1091.665 L 1189.576 1091.665 L 1189.576 1100.685 L 1153.576 1100.685 L 1153.576 1059.685 Z" />
</g>
<g id="part-73">
<path d="M 1133.000 424.081 L 1147.000 428.081 L 1143.080 438.081 L 1136.000 435.561 L 1133.000 424.081 Z" />
</g>
<g id="part-74">
<path d="M 1239.434 505.931 L 1238.051 510.812 L 1234.141 514.849 L 1228.379 517.344 L 1221.762 517.865 L 1215.434 516.323 L 1210.490 512.984 L 1207.784 508.426 L 1207.784 503.436 L 1210.490 498.877 L 1215.434 495.539 L 1221.762 493.997 L 1228.379 494.518 L 1234.141 497.013 L 1238.051 501.050 L 1239.434 505.931 Z" />
</g>
<g id="part-75">
<path d="M 1170.500 990.000 L 1194.500 990.000 L 1194.500 1000.000 L 1170.500 1000.000 L 1170.500 990.000 Z" />
</g>
<g id="part-76">
<path d="M 1260.934 749.307 L 1277.934 749.307 L 1277.934 768.307 L 1260.934 768.307 L 1260.934 749.307 Z" />
</g>
<g id="part-77">
<path d="M 1250.576 1090.838 L 1260.576 1090.838 L 1260.576 1118.838 L 1250.576 1118.838 L 1250.576 1090.838 Z" />
</g>
<g id="part-78">
<path d="M 1255.459 179.497 L 1282.459 179.497 L 1282.459 194.497 L 1255.459 194.497 L 1255.459 179.497 Z" />
</g>
<g id="part-79">
<path d="M 1259.959 85.497 L 1279.959 85.497 L 1279.959 109.497 L 1259.959 109.497 L 1259.959 85.497 Z" />
</g>
<g id="part-80">
<path d="M 1241.434 494.365 L 1268.434 494.365 L 1268.434 519.365 L 1241.434 519.365 L 1241.434 494.365 Z" />
<path d="M 1250.074 502.365 L 1250.074 511.365 L 1259.794 511.365 L 1259.794 502.365 L 1250.074 502.365 Z" fill="#f7f7f2" fill-opacity="1" stroke="#163b5c" />
</g>
<g id="part-81">
<path d="M 1104.000 500.000 L 1146.000 500.000 L 1146.000 548.000 L 1104.000 548.000 L 1104.000 500.000 Z" />
<path d="M 1118.280 508.640 L 1118.280 519.200 L 1136.760 519.200 L 1136.760 508.640 L 1118.280 508.640 Z" fill="#f7f7f2" fill-opacity="1" stroke="#163b5c" />
<path d="M 1118.280 528.800 L 1118.280 539.360 L 1136.760 539.360 L 1136.760 528.800 L 1118.280 528.800 Z" fill="#f7f7f2" fill-opacity="1" stroke="#163b5c" />
</g>
<g id="part-82">
<path d="M 1149.500 426.000 L 1187.500 426.000 L 1187.500 435.460 L 1162.420 435.460 L 1162.420 459.540 L 1187.500 459.540 L 1187.500 469.000 L 1149.500 469.000 L 1149.500 426.000 Z" />
</g>
<g id="part-83">
<path d="M 1117.500 1402.878 L 1133.500 1406.878 L 1129.020 1418.878 L 1120.500 1415.998 L 1117.500 1402.878 Z" />
</g>
<g id="part-84">
<path d="M 1268.434 467.431 L 1267.051 472.312 L 1263.141 476.349 L 1257.379 478.844 L 1250.762 479.365 L 1244.434 477.823 L 1239.490 474.484 L 1236.784 469.926 L 1236.784 464.936 L 1239.490 460.377 L 1244.434 457.039 L 1250.762 455.497 L 1257.379 456.018 L 1263.141 458.513 L 1267.051 462.550 L 1268.434 467.431 Z" />
</g>
<g id="part-85">
<path d="M 1213.434 600.865 L 1239.434 600.865 L 1239.434 612.865 L 1213.434 612.865 L 1213.434 600.865 Z" />
</g>
<g id="part-86">
<path d="M 1179.959 201.562 L 1198.959 201.562 L 1198.959 222.562 L 1179.959 222.562 L 1179.959 201.562 Z" />
</g>
<g id="part-87">
<path d="M 1119.500 828.500 L 1131.500 828.500 L 1131.500 836.500 L 1119.500 836.500 L 1119.500 828.500 Z" />
</g>
<g id="part-88">
<path d="M 1230.959 136.497 L 1259.959 136.497 L 1259.959 153.497 L 1230.959 153.497 L 1230.959 136.497 Z" />
</g>
<g id="part-89">
<path d="M 1238.959 392.497 L 1260.959 392.497 L 1260.959 418.497 L 1238.959 418.497 L 1238.959 392.497 Z" />
</g>
<g id="part-90">
<path d="M 1216.434 691.307 L 1245.434 691.307 L 1245.434 718.307 L 1216.434 718.307 L 1216.434 691.307 Z" />
<path d="M 1225.714 699.947 L 1225.714 709.667 L 1236.154 709.667 L 1236.154 699.947 L 1225.714 699.947 Z" fill="#f7f7f2" fill-opacity="1" stroke="#163b5c" />
</g>
<g id="part-91">
<path d="M 1103.000 647.000 L 1147.000 647.000 L 1147.000 697.000 L 1103.000 697.000 L 1103.000 647.000 Z" />
<path d="M 1117.960 656.000 L 1117.960 667.000 L 1137.320 667.000 L 1137.320 656.000 L 1117.960 656.000 Z" fill="#f7f7f2" fill-opacity="1" stroke="#163b5c" />
<path d="M 1117.960 677.000 L 1117.960 688.000 L 1137.320 688.000 L 1137.320 677.000 L 1117.960 677.000 Z" fill="#f7f7f2" fill-opacity="1" stroke="#163b5c" />
</g>
<g id="part-92">
<path d="M 1212.434 842.153 L 1252.434 842.153 L 1252.434 848.313 L 1226.034 848.313 L 1226.034 863.993 L 1252.434 863.993 L 1252.434 870.153 L 1212.434 870.153 L 1212.434 842.153 Z" />
</g>
<g id="part-93">
<path d="M 1150.500 812.000 L 1168.500 816.000 L 1163.460 830.000 L 1153.500 826.760 L 1150.500 812.000 Z" />
</g>
<g id="part-94">
<path d="M 1222.011 1171.761 L 1221.492 1177.456 L 1220.026 1182.165 L 1217.865 1185.076 L 1215.384 1185.685 L 1213.011 1183.886 L 1211.157 1179.990 L 1210.142 1174.672 L 1210.142 1168.851 L 1211.157 1163.532 L 1213.011 1159.637 L 1215.384 1157.838 L 1217.865 1158.447 L 1220.026 1161.357 L 1221.492 1166.067 L 1222.011 1171.761 Z" />
</g>
<g id="part-95">
<path d="M 1228.959 232.497 L 1256.959 232.497 L 1256.959 246.497 L 1228.959 246.497 L 1228.959 232.497 Z" />
</g>
<g id="part-96">
<path d="M 1259.459 111.497 L 1280.459 111.497 L 1280.459 134.497 L 1259.459 134.497 L 1259.459 111.497 Z" />
</g>
<g id="part-97">
<path d="M 1134.500 994.000 L 1148.500 994.000 L 1148.500 1004.000 L 1134.500 1004.000 L 1134.500 994.000 Z" />
</g>
<g id="part-98">
<path d="M 1190.434 557.365 L 1221.434 557.365 L 1221.434 576.365 L 1190.434 576.365 L 1190.434 557.365 Z" />
</g>
<g id="part-99">
<path d="M 1189.934 637.865 L 1213.934 637.865 L 1213.934 665.865 L 1189.934 665.865 L 1189.934 637.865 Z" />
</g>
<g id="part-100">
<path d="M 1200.576 1187.685 L 1231.576 1187.685 L 1231.576 1216.685 L 1200.576 1216.685 L 1200.576 1187.685 Z" />
<path d="M 1210.496 1196.965 L 1210.496 1207.405 L 1221.656 1207.405 L 1221.656 1196.965 L 1210.496 1196.965 Z" fill="#f7f7f2" fill-opacity="1" stroke="#163b5c" />
</g>
<g id="part-101">
<path d="M 1150.500 569.000 L 1174.500 569.000 L 1174.500 621.000 L 1150.500 621.000 L 1150.500 569.000 Z" />
<path d="M 1158.660 578.360 L 1158.660 589.800 L 1169.220 589.800 L 1169.220 578.360 L 1158.660 578.360 Z" fill="#f7f7f2" fill-opacity="1" stroke="#163b5c" />
<path d="M 1158.660 600.200 L 1158.660 611.640 L 1169.220 611.640 L 1169.220 600.200 L 1158.660 600.200 Z" fill="#f7f7f2" fill-opacity="1" stroke="#163b5c" />
</g>
<g id="part-102">
<path d="M 1218.934 944.153 L 1260.934 944.153 L 1260.934 950.313 L 1233.214 950.313 L 1233.214 965.993 L 1260.934 965.993 L 1260.934 972.153 L 1218.934 972.153 L 1218.934 944.153 Z" />
</g>
<g id="part-103">
<path d="M 1194.500 1077.000 L 1214.500 1081.000 L 1208.900 1097.000 L 1197.500 1093.400 L 1194.500 1077.000 Z" />
</g>
<g id="part-104">
<path d="M 1216.934 958.230 L 1216.416 963.924 L 1214.949 968.634 L 1212.789 971.545 L 1210.307 972.153 L 1207.934 970.354 L 1206.080 966.459 L 1205.066 961.141 L 1205.066 955.319 L 1206.080 950.001 L 1207.934 946.106 L 1210.307 944.307 L 1212.789 944.915 L 1214.949 947.826 L 1216.416 952.536 L 1216.934 958.230 Z" />
</g>
<g id="part-105">
<path d="M 1227.959 69.551 L 1257.959 69.551 L 1257.959 85.551 L 1227.959 85.551 L 1227.959 69.551 Z" />
</g>
<g id="part-106">
<path d="M 1176.459 376.497 L 1199.459 376.497 L 1199.459 401.497 L 1176.459 401.497 L 1176.459 376.497 Z" />
</g>
<g id="part-107">
<path d="M 1167.500 187.000 L 1183.500 187.000 L 1183.500 199.000 L 1167.500 199.000 L 1167.500 187.000 Z" />
</g>
<g id="part-108">
<path d="M 1214.434 750.153 L 1247.434 750.153 L 1247.434 771.153 L 1214.434 771.153 L 1214.434 750.153 Z" />
</g>
<g id="part-109">
<path d="M 1150.500 865.000 L 1176.500 865.000 L 1176.500 873.000 L 1150.500 873.000 L 1150.500 865.000 Z" />
</g>
<g id="part-110">
<path d="M 1150.500 957.000 L 1183.500 957.000 L 1183.500 988.000 L 1150.500 988.000 L 1150.500 957.000 Z" />
<path d="M 1161.060 966.920 L 1161.060 978.080 L 1172.940 978.080 L 1172.940 966.920 L 1161.060 966.920 Z" fill="#f7f7f2" fill-opacity="1" stroke="#163b5c" />
</g>
<g id="part-111">
<path d="M 1149.500 314.000 L 1173.500 314.000 L 1173.500 368.000 L 1149.500 368.000 L 1149.500 314.000 Z" />
<path d="M 1157.660 323.720 L 1157.660 335.600 L 1168.220 335.600 L 1168.220 323.720 L 1157.660 323.720 Z" fill="#f7f7f2" fill-opacity="1" stroke="#163b5c" />
<path d="M 1157.660 346.400 L 1157.660 358.280 L 1168.220 358.280 L 1168.220 346.400 L 1157.660 346.400 Z" fill="#f7f7f2" fill-opacity="1" stroke="#163b5c" />
</g>
<g id="part-112">
<path d="M 1193.576 1339.685 L 1237.576 1339.685 L 1237.576 1345.845 L 1208.536 1345.845 L 1208.536 1361.525 L 1237.576 1361.525 L 1237.576 1367.685 L 1193.576 1367.685 L 1193.576 1339.685 Z" />
</g>
<g id="part-113">
<path d="M 1243.934 551.365 L 1265.934 555.365 L 1259.774 573.365 L 1246.934 569.405 L 1243.934 551.365 Z" />
</g>
<g id="part-114">
<path d="M 1132.838 494.041 L 1131.568 496.203 L 1128.161 497.679 L 1123.699 498.000 L 1119.599 497.064 L 1117.162 495.168 L 1117.162 492.914 L 1119.599 491.018 L 1123.699 490.081 L 1128.161 490.402 L 1131.568 491.878 L 1132.838 494.041 Z" />
</g>
<g id="part-115">
<path d="M 1201.959 405.497 L 1233.959 405.497 L 1233.959 423.497 L 1201.959 423.497 L 1201.959 405.497 Z" />
</g>
<g id="part-116">
<path d="M 1189.434 667.865 L 1214.434 667.865 L 1214.434 694.865 L 1189.434 694.865 L 1189.434 667.865 Z" />
</g>
<g id="part-117">
<path d="M 1174.500 1023.000 L 1192.500 1023.000 L 1192.500 1037.000 L 1174.500 1037.000 L 1174.500 1023.000 Z" />
</g>
<g id="part-118">
<path d="M 1187.576 1311.685 L 1198.576 1311.685 L 1198.576 1334.685 L 1187.576 1334.685 L 1187.576 1311.685 Z" />
</g>
<g id="part-119">
<path d="M 1232.576 1120.838 L 1260.576 1120.838 L 1260.576 1130.838 L 1232.576 1130.838 L 1232.576 1120.838 Z" />
</g>
<g id="part-120">
<path d="M 1150.500 641.000 L 1185.500 641.000 L 1185.500 674.000 L 1150.500 674.000 L 1150.500 641.000 Z" />
<path d="M 1161.700 651.560 L 1161.700 663.440 L 1174.300 663.440 L 1174.300 651.560 L 1161.700 651.560 Z" fill="#f7f7f2" fill-opacity="1" stroke="#163b5c" />
</g>
<g id="part-121">
<path d="M 1112.500 1344.878 L 1138.500 1344.878 L 1138.500 1400.878 L 1112.500 1400.878 L 1112.500 1344.878 Z" />
<path d="M 1121.340 1354.958 L 1121.340 1367.278 L 1132.780 1367.278 L 1132.780 1354.958 L 1121.340 1354.958 Z" fill="#f7f7f2" fill-opacity="1" stroke="#163b5c" />
<path d="M 1121.340 1378.478 L 1121.340 1390.798 L 1132.780 1390.798 L 1132.780 1378.478 L 1121.340 1378.478 Z" fill="#f7f7f2" fill-opacity="1" stroke="#163b5c" />
</g>
<g id="part-122">
<path d="M 1154.576 1280.685 L 1200.576 1280.685 L 1200.576 1287.065 L 1170.216 1287.065 L 1170.216 1303.305 L 1200.576 1303.305 L 1200.576 1309.685 L 1154.576 1309.685 L 1154.576 1280.685 Z" />
</g>
<g id="part-123">
<path d="M 1258.959 268.497 L 1282.959 272.497 L 1276.239 292.497 L 1261.959 288.177 L 1258.959 268.497 Z" />
</g>
<g id="part-124">
<path d="M 1115.662 1148.939 L 1114.392 1152.183 L 1110.985 1154.397 L 1106.524 1154.878 L 1102.423 1153.473 L 1099.986 1150.629 L 1099.986 1147.249 L 1102.423 1144.404 L 1106.524 1143.000 L 1110.985 1143.481 L 1114.392 1145.695 L 1115.662 1148.939 Z" />
</g>
<g id="part-125">
<path d="M 1176.500 569.000 L 1186.500 569.000 L 1186.500 589.000 L 1176.500 589.000 L 1176.500 569.000 Z" />
</g>
<g id="part-126">
<path d="M 1204.576 1218.685 L 1231.576 1218.685 L 1231.576 1247.685 L 1204.576 1247.685 L 1204.576 1218.685 Z" />
</g>
<g id="part-127">
<path d="M 1262.434 702.307 L 1282.434 702.307 L 1282.434 718.307 L 1262.434 718.307 L 1262.434 702.307 Z" />
</g>
<g id="part-128">
<path d="M 1267.934 548.365 L 1280.934 548.365 L 1280.934 573.365 L 1267.934 573.365 L 1267.934 548.365 Z" />
</g>
<g id="part-129">
<path d="M 1234.959 378.497 L 1264.959 378.497 L 1264.959 390.497 L 1234.959 390.497 L 1234.959 378.497 Z" />
</g>
<g id="part-130">
<path d="M 1106.500 164.000 L 1143.500 164.000 L 1143.500 199.000 L 1106.500 199.000 L 1106.500 164.000 Z" />
<path d="M 1118.340 175.200 L 1118.340 187.800 L 1131.660 187.800 L 1131.660 175.200 L 1118.340 175.200 Z" fill="#f7f7f2" fill-opacity="1" stroke="#163b5c" />
</g>
<g id="part-131">
<path d="M 1150.500 733.000 L 1178.500 733.000 L 1178.500 775.000 L 1150.500 775.000 L 1150.500 733.000 Z" />
<path d="M 1160.020 740.560 L 1160.020 749.800 L 1172.340 749.800 L 1172.340 740.560 L 1160.020 740.560 Z" fill="#f7f7f2" fill-opacity="1" stroke="#163b5c" />
<path d="M 1160.020 758.200 L 1160.020 767.440 L 1172.340 767.440 L 1172.340 758.200 L 1160.020 758.200 Z" fill="#f7f7f2" fill-opacity="1" stroke="#163b5c" />
</g>
<g id="part-132">
<path d="M 1150.500 875.000 L 1198.500 875.000 L 1198.500 881.820 L 1166.820 881.820 L 1166.820 899.180 L 1198.500 899.180 L 1198.500 906.000 L 1150.500 906.000 L 1150.500 875.000 Z" />
</g>
<g id="part-133">
<path d="M 1144.265 64.551 L 1170.265 68.551 L 1162.985 90.551 L 1147.265 85.871 L 1144.265 64.551 Z" />
</g>
<g id="part-134">
<path d="M 1165.500 193.000 L 1164.160 196.000 L 1160.500 198.196 L 1155.500 199.000 L 1150.500 198.196 L 1146.840 196.000 L 1145.500 193.000 L 1146.840 190.000 L 1150.500 187.804 L 1155.500 187.000 L 1160.500 187.804 L 1164.160 190.000 L 1165.500 193.000 Z" />
</g>
<g id="part-135">
<path d="M 1224.011 1163.685 L 1236.011 1163.685 L 1236.011 1185.685 L 1224.011 1185.685 L 1224.011 1163.685 Z" />
</g>
<g id="part-136">
<path d="M 1201.576 1121.838 L 1230.576 1121.838 L 1230.576 1130.838 L 1201.576 1130.838 L 1201.576 1121.838 Z" />
</g>
<g id="part-137">
<path d="M 1234.959 212.497 L 1256.959 212.497 L 1256.959 230.497 L 1234.959 230.497 L 1234.959 212.497 Z" />
</g>
<g id="part-138">
<path d="M 1238.459 183.497 L 1253.459 183.497 L 1253.459 210.497 L 1238.459 210.497 L 1238.459 183.497 Z" />
</g>
<g id="part-139">
<path d="M 1163.765 14.661 L 1195.765 14.661 L 1195.765 28.661 L 1163.765 28.661 L 1163.765 14.661 Z" />
</g>
<g id="part-140">
<path d="M 1106.000 1214.878 L 1145.000 1214.878 L 1145.000 1251.878 L 1106.000 1251.878 L 1106.000 1214.878 Z" />
<path d="M 1118.480 1226.718 L 1118.480 1240.038 L 1132.520 1240.038 L 1132.520 1226.718 L 1118.480 1226.718 Z" fill="#f7f7f2" fill-opacity="1" stroke="#163b5c" />
</g>
<g id="part-141">
<path d="M 1150.500 525.000 L 1180.500 525.000 L 1180.500 567.000 L 1150.500 567.000 L 1150.500 525.000 Z" />
<path d="M 1160.700 532.560 L 1160.700 541.800 L 1173.900 541.800 L 1173.900 532.560 L 1160.700 532.560 Z" fill="#f7f7f2" fill-opacity="1" stroke="#163b5c" />
<path d="M 1160.700 550.200 L 1160.700 559.440 L 1173.900 559.440 L 1173.900 550.200 L 1160.700 550.200 Z" fill="#f7f7f2" fill-opacity="1" stroke="#163b5c" />
</g>
<g id="part-142">
<path d="M 1230.959 268.497 L 1256.959 268.497 L 1256.959 275.757 L 1239.799 275.757 L 1239.799 294.237 L 1256.959 294.237 L 1256.959 301.497 L 1230.959 301.497 L 1230.959 268.497 Z" />
</g>
<g id="part-143">
<path d="M 1200.959 268.497 L 1228.959 272.497 L 1221.119 296.497 L 1203.959 291.457 L 1200.959 268.497 Z" />
</g>
<g id="part-144">
<path d="M 1174.576 1208.685 L 1173.237 1212.685 L 1169.576 1215.613 L 1164.576 1216.685 L 1159.576 1215.613 L 1155.916 1212.685 L 1154.576 1208.685 L 1155.916 1204.685 L 1159.576 1201.756 L 1164.576 1200.685 L 1169.576 1201.756 L 1173.237 1204.685 L 1174.576 1208.685 Z" />
</g>
<g id="part-145">
<path d="M 1267.934 521.365 L 1281.934 521.365 L 1281.934 545.365 L 1267.934 545.365 L 1267.934 521.365 Z" />
</g>
<g id="part-146">
<path d="M 1237.434 481.365 L 1268.434 481.365 L 1268.434 492.365 L 1237.434 492.365 L 1237.434 481.365 Z" />
</g>
<g id="part-147">
<path d="M 1172.265 67.551 L 1196.265 67.551 L 1196.265 87.551 L 1172.265 87.551 L 1172.265 67.551 Z" />
</g>
<g id="part-148">
<path d="M 1265.459 148.497 L 1282.459 148.497 L 1282.459 177.497 L 1265.459 177.497 L 1265.459 148.497 Z" />
</g>
<g id="part-149">
<path d="M 1105.500 1402.878 L 1115.500 1402.878 L 1115.500 1418.878 L 1105.500 1418.878 L 1105.500 1402.878 Z" />
</g>
<g id="part-150">
<path d="M 1104.500 342.081 L 1145.500 342.081 L 1145.500 381.081 L 1104.500 381.081 L 1104.500 342.081 Z" />
<path d="M 1117.620 354.561 L 1117.620 368.601 L 1132.380 368.601 L 1132.380 354.561 L 1117.620 354.561 Z" fill="#f7f7f2" fill-opacity="1" stroke="#163b5c" />
</g>
<g id="part-151">
<path d="M 1109.000 256.000 L 1141.000 256.000 L 1141.000 298.000 L 1109.000 298.000 L 1109.000 256.000 Z" />
<path d="M 1119.880 263.560 L 1119.880 272.800 L 1133.960 272.800 L 1133.960 263.560 L 1119.880 263.560 Z" fill="#f7f7f2" fill-opacity="1" stroke="#163b5c" />
<path d="M 1119.880 281.200 L 1119.880 290.440 L 1133.960 290.440 L 1133.960 281.200 L 1119.880 281.200 Z" fill="#f7f7f2" fill-opacity="1" stroke="#163b5c" />
</g>
<g id="part-152">
<path d="M 1211.434 519.865 L 1239.434 519.865 L 1239.434 527.565 L 1220.954 527.565 L 1220.954 547.165 L 1239.434 547.165 L 1239.434 554.865 L 1211.434 554.865 L 1211.434 519.865 Z" />
</g>
<g id="part-153">
<path d="M 1110.000 332.081 L 1140.000 336.081 L 1131.600 340.081 L 1113.000 338.641 L 1110.000 332.081 Z" />
</g>
<g id="part-154">
<path d="M 1213.109 734.230 L 1211.735 737.948 L 1207.926 740.814 L 1202.556 742.172 L 1196.854 741.710 L 1192.127 739.535 L 1189.458 736.145 L 1189.458 732.316 L 1192.127 728.925 L 1196.854 726.750 L 1202.556 726.288 L 1207.926 727.646 L 1211.735 730.512 L 1213.109 734.230 Z" />
</g>
<g id="part-155">
<path d="M 1237.459 155.497 L 1253.459 155.497 L 1253.459 181.497 L 1237.459 181.497 L 1237.459 155.497 Z" />
</g>
<g id="part-156">
<path d="M 1163.265 30.661 L 1196.265 30.661 L 1196.265 43.661 L 1163.265 43.661 L 1163.265 30.661 Z" />
</g>
<g id="part-157">
<path d="M 1204.959 381.497 L 1230.959 381.497 L 1230.959 403.497 L 1204.959 403.497 L 1204.959 381.497 Z" />
</g>
<g id="part-158">
<path d="M 1115.500 245.000 L 1134.500 245.000 L 1134.500 254.000 L 1115.500 254.000 L 1115.500 245.000 Z" />
</g>
<g id="part-159">
<path d="M 1170.500 812.000 L 1182.500 812.000 L 1182.500 830.000 L 1170.500 830.000 L 1170.500 812.000 Z" />
</g>
<g id="part-160">
<path d="M 1104.000 855.000 L 1147.000 855.000 L 1147.000 896.000 L 1104.000 896.000 L 1104.000 855.000 Z" />
<path d="M 1117.760 868.120 L 1117.760 882.880 L 1133.240 882.880 L 1133.240 868.120 L 1117.760 868.120 Z" fill="#f7f7f2" fill-opacity="1" stroke="#163b5c" />
</g>
<g id="part-161">
<path d="M 1108.000 64.000 L 1142.000 64.000 L 1142.000 106.000 L 1108.000 106.000 L 1108.000 64.000 Z" />
<path d="M 1119.560 71.560 L 1119.560 80.800 L 1134.520 80.800 L 1134.520 71.560 L 1119.560 71.560 Z" fill="#f7f7f2" fill-opacity="1" stroke="#163b5c" />
<path d="M 1119.560 89.200 L 1119.560 98.440 L 1134.520 98.440 L 1134.520 89.200 L 1119.560 89.200 Z" fill="#f7f7f2" fill-opacity="1" stroke="#163b5c" />
</g>
<g id="part-162">
<path d="M 1217.434 773.153 L 1247.434 773.153 L 1247.434 781.293 L 1227.634 781.293 L 1227.634 802.013 L 1247.434 802.013 L 1247.434 810.153 L 1217.434 810.153 L 1217.434 773.153 Z" />
</g>
<g id="part-163">
<path d="M 1150.500 676.000 L 1182.500 680.000 L 1173.540 686.000 L 1153.500 684.200 L 1150.500 676.000 Z" />
</g>
<g id="part-164">
<path d="M 1229.785 369.569 L 1228.410 374.217 L 1224.601 377.799 L 1219.231 379.497 L 1213.529 378.920 L 1208.802 376.201 L 1206.133 371.963 L 1206.133 367.176 L 1208.802 362.938 L 1213.529 360.219 L 1219.231 359.642 L 1224.601 361.340 L 1228.410 364.922 L 1229.785 369.569 Z" />
</g>
<g id="part-165">
<path d="M 1259.959 196.497 L 1277.959 196.497 L 1277.959 224.497 L 1259.959 224.497 L 1259.959 196.497 Z" />
</g>
<g id="part-166">
<path d="M 1140.000 108.000 L 1151.000 108.000 L 1151.000 123.000 L 1140.000 123.000 L 1140.000 108.000 Z" />
</g>
<g id="part-167">
<path d="M 1215.934 641.865 L 1243.934 641.865 L 1243.934 665.865 L 1215.934 665.865 L 1215.934 641.865 Z" />
</g>
<g id="part-168">
<path d="M 1168.500 944.000 L 1189.500 944.000 L 1189.500 955.000 L 1168.500 955.000 L 1168.500 944.000 Z" />
</g>
<g id="part-169">
<path d="M 1233.576 1214.685 L 1247.576 1214.685 L 1247.576 1234.685 L 1233.576 1234.685 L 1233.576 1214.685 Z" />
</g>
<g id="part-170">
<path d="M 1103.000 767.000 L 1148.000 767.000 L 1148.000 810.000 L 1103.000 810.000 L 1103.000 767.000 Z" />
<path d="M 1117.400 780.760 L 1117.400 796.240 L 1133.600 796.240 L 1133.600 780.760 L 1117.400 780.760 Z" fill="#f7f7f2" fill-opacity="1" stroke="#163b5c" />
</g>
<g id="part-171">
<path d="M 1107.500 1097.000 L 1143.500 1097.000 L 1143.500 1141.000 L 1107.500 1141.000 L 1107.500 1097.000 Z" />
<path d="M 1119.740 1104.920 L 1119.740 1114.600 L 1135.580 1114.600 L 1135.580 1104.920 L 1119.740 1104.920 Z" fill="#f7f7f2" fill-opacity="1" stroke="#163b5c" />
<path d="M 1119.740 1123.400 L 1119.740 1133.080 L 1135.580 1133.080 L 1135.580 1123.400 L 1119.740 1123.400 Z" fill="#f7f7f2" fill-opacity="1" stroke="#163b5c" />
</g>
<g id="part-172">
<path d="M 1194.500 1036.000 L 1226.500 1036.000 L 1226.500 1044.580 L 1205.380 1044.580 L 1205.380 1066.420 L 1226.500 1066.420 L 1226.500 1075.000 L 1194.500 1075.000 L 1194.500 1036.000 Z" />
</g>
<g id="part-173">
<path d="M 1132.000 753.000 L 1142.000 757.000 L 1139.200 765.000 L 1135.000 762.840 L 1132.000 753.000 Z" />
</g>
<g id="part-174">
<path d="M 1257.959 97.497 L 1256.749 101.564 L 1253.327 104.928 L 1248.285 107.007 L 1242.496 107.442 L 1236.959 106.157 L 1232.633 103.374 L 1230.265 99.576 L 1230.265 95.417 L 1232.633 91.619 L 1236.959 88.836 L 1242.496 87.551 L 1248.285 87.986 L 1253.327 90.065 L 1256.749 93.429 L 1257.959 97.497 Z" />
</g>
<g id="part-175">
<path d="M 1115.000 54.000 L 1135.000 54.000 L 1135.000 62.000 L 1115.000 62.000 L 1115.000 54.000 Z" />
</g>
<g id="part-176">
<path d="M 1176.500 603.000 L 1189.500 603.000 L 1189.500 620.000 L 1176.500 620.000 L 1176.500 603.000 Z" />
</g>
<g id="part-177">
<path d="M 1200.576 1311.685 L 1230.576 1311.685 L 1230.576 1337.685 L 1200.576 1337.685 L 1200.576 1311.685 Z" />
</g>
<g id="part-178">
<path d="M 1186.934 789.153 L 1209.934 789.153 L 1209.934 802.153 L 1186.934 802.153 L 1186.934 789.153 Z" />
</g>
<g id="part-179">
<path d="M 1255.434 823.307 L 1271.434 823.307 L 1271.434 845.307 L 1255.434 845.307 L 1255.434 823.307 Z" />
</g>
<g id="part-180">
<path d="M 1148.076 1102.685 L 1195.076 1102.685 L 1195.076 1125.685 L 1148.076 1125.685 L 1148.076 1102.685 Z" />
<path d="M 1163.116 1110.045 L 1163.116 1118.325 L 1180.036 1118.325 L 1180.036 1110.045 L 1163.116 1110.045 Z" fill="#f7f7f2" fill-opacity="1" stroke="#163b5c" />
</g>
<g id="part-181">
<path d="M 1106.500 946.000 L 1144.500 946.000 L 1144.500 992.000 L 1106.500 992.000 L 1106.500 946.000 Z" />
<path d="M 1119.420 954.280 L 1119.420 964.400 L 1136.140 964.400 L 1136.140 954.280 L 1119.420 954.280 Z" fill="#f7f7f2" fill-opacity="1" stroke="#163b5c" />
<path d="M 1119.420 973.600 L 1119.420 983.720 L 1136.140 983.720 L 1136.140 973.600 L 1119.420 973.600 Z" fill="#f7f7f2" fill-opacity="1" stroke="#163b5c" />
</g>
<g id="part-182">
<path d="M 1154.576 1157.685 L 1188.576 1157.685 L 1188.576 1166.705 L 1166.136 1166.705 L 1166.136 1189.665 L 1188.576 1189.665 L 1188.576 1198.685 L 1154.576 1198.685 L 1154.576 1157.685 Z" />
</g>
<g id="part-183">
<path d="M 1119.000 424.081 L 1131.000 428.081 L 1127.640 438.081 L 1122.000 435.561 L 1119.000 424.081 Z" />
</g>
<g id="part-184">
<path d="M 1198.959 236.497 L 1197.749 241.377 L 1194.327 245.414 L 1189.285 247.909 L 1183.496 248.431 L 1177.959 246.889 L 1173.633 243.550 L 1171.265 238.992 L 1171.265 234.002 L 1173.633 229.443 L 1177.959 226.104 L 1183.496 224.562 L 1189.285 225.084 L 1194.327 227.579 L 1197.749 231.616 L 1198.959 236.497 Z" />
</g>
<g id="part-185">
<path d="M 1176.500 591.000 L 1198.500 591.000 L 1198.500 601.000 L 1176.500 601.000 L 1176.500 591.000 Z" />
</g>
<g id="part-186">
<path d="M 1237.576 1311.685 L 1252.576 1311.685 L 1252.576 1330.685 L 1237.576 1330.685 L 1237.576 1311.685 Z" />
</g>
<g id="part-187">
<path d="M 1155.576 1127.685 L 1187.576 1127.685 L 1187.576 1155.685 L 1155.576 1155.685 L 1155.576 1127.685 Z" />
</g>
<g id="part-188">
<path d="M 1230.959 308.497 L 1255.959 308.497 L 1255.959 323.497 L 1230.959 323.497 L 1230.959 308.497 Z" />
</g>
<g id="part-189">
<path d="M 1178.459 98.497 L 1196.459 98.497 L 1196.459 122.497 L 1178.459 122.497 L 1178.459 98.497 Z" />
</g>
<g id="part-190">
<path d="M 1203.959 298.497 L 1228.959 298.497 L 1228.959 323.497 L 1203.959 323.497 L 1203.959 298.497 Z" />
<path d="M 1211.959 306.497 L 1211.959 315.497 L 1220.959 315.497 L 1220.959 306.497 L 1211.959 306.497 Z" fill="#f7f7f2" fill-opacity="1" stroke="#163b5c" />
</g>
<g id="part-191">
<path d="M 1105.000 440.081 L 1145.000 440.081 L 1145.000 488.081 L 1105.000 488.081 L 1105.000 440.081 Z" />
<path d="M 1118.600 448.721 L 1118.600 459.281 L 1136.200 459.281 L 1136.200 448.721 L 1118.600 448.721 Z" fill="#f7f7f2" fill-opacity="1" stroke="#163b5c" />
<path d="M 1118.600 468.881 L 1118.600 479.441 L 1136.200 479.441 L 1136.200 468.881 L 1118.600 468.881 Z" fill="#f7f7f2" fill-opacity="1" stroke="#163b5c" />
</g>
<g id="part-192">
<path d="M 1150.500 688.000 L 1186.500 688.000 L 1186.500 697.460 L 1162.740 697.460 L 1162.740 721.540 L 1186.500 721.540 L 1186.500 731.000 L 1150.500 731.000 L 1150.500 688.000 Z" />
</g>
<g id="part-193">
<path d="M 1118.500 994.000 L 1132.500 998.000 L 1128.580 1010.000 L 1121.500 1007.120 L 1118.500 994.000 Z" />
</g>
<g id="part-194">
<path d="M 1234.784 467.431 L 1233.401 472.312 L 1229.490 476.349 L 1223.728 478.844 L 1217.112 479.365 L 1210.784 477.823 L 1205.840 474.484 L 1203.134 469.926 L 1203.134 464.936 L 1205.840 460.377 L 1210.784 457.039 L 1217.112 455.497 L 1223.728 456.018 L 1229.490 458.513 L 1233.401 462.550 L 1234.784 467.431 Z" />
</g>
<g id="part-195">
<path d="M 1186.434 804.153 L 1210.434 804.153 L 1210.434 816.153 L 1186.434 816.153 L 1186.434 804.153 Z" />
</g>
<g id="part-196">
<path d="M 1265.959 432.497 L 1282.959 432.497 L 1282.959 453.497 L 1265.959 453.497 L 1265.959 432.497 Z" />
</g>
<g id="part-197">
<path d="M 1120.500 784.500 L 1130.500 784.500 L 1130.500 792.500 L 1120.500 792.500 L 1120.500 784.500 Z" />
</g>
<g id="part-198">
<path d="M 1251.459 37.497 L 1278.459 37.497 L 1278.459 54.497 L 1251.459 54.497 L 1251.459 37.497 Z" />
</g>
<g id="part-199">
<path d="M 1258.959 226.497 L 1278.959 226.497 L 1278.959 252.497 L 1258.959 252.497 L 1258.959 226.497 Z" />
</g>
<g id="part-200">
<path d="M 1241.434 575.365 L 1268.434 575.365 L 1268.434 602.365 L 1241.434 602.365 L 1241.434 575.365 Z" />
<path d="M 1250.074 584.005 L 1250.074 593.725 L 1259.794 593.725 L 1259.794 584.005 L 1250.074 584.005 Z" fill="#f7f7f2" fill-opacity="1" stroke="#163b5c" />
</g>
<g id="part-201">
<path d="M 1104.000 550.000 L 1146.000 550.000 L 1146.000 600.000 L 1104.000 600.000 L 1104.000 550.000 Z" />
<path d="M 1118.280 559.000 L 1118.280 570.000 L 1136.760 570.000 L 1136.760 559.000 L 1118.280 559.000 Z" fill="#f7f7f2" fill-opacity="1" stroke="#163b5c" />
<path d="M 1118.280 580.000 L 1118.280 591.000 L 1136.760 591.000 L 1136.760 580.000 L 1118.280 580.000 Z" fill="#f7f7f2" fill-opacity="1" stroke="#163b5c" />
</g>
<g id="part-202">
<path d="M 1245.934 641.865 L 1283.934 641.865 L 1283.934 648.025 L 1258.854 648.025 L 1258.854 663.705 L 1283.934 663.705 L 1283.934 669.865 L 1245.934 669.865 L 1245.934 641.865 Z" />
</g>
<g id="part-203">
<path d="M 1143.000 259.000 L 1159.000 263.000 L 1154.520 277.000 L 1146.000 273.760 L 1143.000 259.000 Z" />
</g>
<g id="part-204">
<path d="M 1246.760 734.230 L 1245.376 739.924 L 1241.466 744.634 L 1235.704 747.545 L 1229.087 748.153 L 1222.760 746.354 L 1217.815 742.459 L 1215.109 737.141 L 1215.109 731.319 L 1217.815 726.001 L 1222.760 722.106 L 1229.087 720.307 L 1235.704 720.915 L 1241.466 723.826 L 1245.376 728.536 L 1246.760 734.230 Z" />
</g>
<g id="part-205">
<path d="M 1232.959 330.497 L 1258.959 330.497 L 1258.959 344.497 L 1232.959 344.497 L 1232.959 330.497 Z" />
</g>
<g id="part-206">
<path d="M 1220.765 22.551 L 1239.765 22.551 L 1239.765 45.551 L 1220.765 45.551 L 1220.765 22.551 Z" />
</g>
<g id="part-207">
<path d="M 1103.500 424.081 L 1115.500 424.081 L 1115.500 434.081 L 1103.500 434.081 L 1103.500 424.081 Z" />
</g>
<g id="part-208">
<path d="M 1201.959 325.497 L 1230.959 325.497 L 1230.959 344.497 L 1201.959 344.497 L 1201.959 325.497 Z" />
</g>
<g id="part-209">
<path d="M 1243.934 521.365 L 1265.934 521.365 L 1265.934 549.365 L 1243.934 549.365 L 1243.934 521.365 Z" />
</g>
<g id="part-210">
<path d="M 1230.576 1280.685 L 1259.576 1280.685 L 1259.576 1309.685 L 1230.576 1309.685 L 1230.576 1280.685 Z" />
<path d="M 1239.856 1289.965 L 1239.856 1300.405 L 1250.296 1300.405 L 1250.296 1289.965 L 1239.856 1289.965 Z" fill="#f7f7f2" fill-opacity="1" stroke="#163b5c" />
</g>
<g id="part-211">
<path d="M 1103.000 699.000 L 1147.000 699.000 L 1147.000 751.000 L 1103.000 751.000 L 1103.000 699.000 Z" />
<path d="M 1117.960 708.360 L 1117.960 719.800 L 1137.320 719.800 L 1137.320 708.360 L 1117.960 708.360 Z" fill="#f7f7f2" fill-opacity="1" stroke="#163b5c" />
<path d="M 1117.960 730.200 L 1117.960 741.640 L 1137.320 741.640 L 1137.320 730.200 L 1117.960 730.200 Z" fill="#f7f7f2" fill-opacity="1" stroke="#163b5c" />
</g>
<g id="part-212">
<path d="M 1212.434 812.153 L 1252.434 812.153 L 1252.434 818.313 L 1226.034 818.313 L 1226.034 833.993 L 1252.434 833.993 L 1252.434 840.153 L 1212.434 840.153 L 1212.434 812.153 Z" />
</g>
<g id="part-213">
<path d="M 1150.500 990.000 L 1168.500 994.000 L 1163.460 1010.000 L 1153.500 1006.400 L 1150.500 990.000 Z" />
</g>
<g id="part-214">
<path d="M 1216.934 988.077 L 1216.416 993.771 L 1214.949 998.481 L 1212.789 1001.391 L 1210.307 1002.000 L 1207.934 1000.201 L 1206.080 996.306 L 1205.066 990.987 L 1205.066 985.166 L 1206.080 979.848 L 1207.934 975.952 L 1210.307 974.153 L 1212.789 974.762 L 1214.949 977.673 L 1216.416 982.382 L 1216.934 988.077 Z" />
</g>
<g id="part-215">
<path d="M 1250.459 19.497 L 1278.459 19.497 L 1278.459 35.497 L 1250.459 35.497 L 1250.459 19.497 Z" />
</g>
<g id="part-216">
<path d="M 1257.959 303.497 L 1278.959 303.497 L 1278.959 328.497 L 1257.959 328.497 L 1257.959 303.497 Z" />
</g>
<g id="part-217">
<path d="M 1135.500 1402.878 L 1149.500 1402.878 L 1149.500 1414.878 L 1135.500 1414.878 L 1135.500 1402.878 Z" />
</g>
<g id="part-218">
<path d="M 1210.934 614.865 L 1241.934 614.865 L 1241.934 635.865 L 1210.934 635.865 L 1210.934 614.865 Z" />
</g>
<g id="part-219">
<path d="M 1153.500 515.000 L 1177.500 515.000 L 1177.500 523.000 L 1153.500 523.000 L 1153.500 515.000 Z" />
</g>
<g id="part-220">
<path d="M 1154.576 1311.685 L 1185.576 1311.685 L 1185.576 1342.685 L 1154.576 1342.685 L 1154.576 1311.685 Z" />
<path d="M 1164.496 1321.605 L 1164.496 1332.765 L 1175.656 1332.765 L 1175.656 1321.605 L 1164.496 1321.605 Z" fill="#f7f7f2" fill-opacity="1" stroke="#163b5c" />
</g>
<g id="part-221">
<path d="M 1149.500 370.000 L 1173.500 370.000 L 1173.500 424.000 L 1149.500 424.000 L 1149.500 370.000 Z" />
<path d="M 1157.660 379.720 L 1157.660 391.600 L 1168.220 391.600 L 1168.220 379.720 L 1157.660 379.720 Z" fill="#f7f7f2" fill-opacity="1" stroke="#163b5c" />
<path d="M 1157.660 402.400 L 1157.660 414.280 L 1168.220 414.280 L 1168.220 402.400 L 1157.660 402.400 Z" fill="#f7f7f2" fill-opacity="1" stroke="#163b5c" />
</g>
<g id="part-222">
<path d="M 1218.934 914.153 L 1260.934 914.153 L 1260.934 920.313 L 1233.214 920.313 L 1233.214 935.993 L 1260.934 935.993 L 1260.934 942.153 L 1218.934 942.153 L 1218.934 914.153 Z" />
</g>
<g id="part-223">
<path d="M 1192.434 749.653 L 1212.434 753.653 L 1206.834 771.653 L 1195.434 767.693 L 1192.434 749.653 Z" />
</g>
<g id="part-224">
<path d="M 1131.000 623.500 L 1129.854 625.851 L 1126.854 627.304 L 1123.146 627.304 L 1120.146 625.851 L 1119.000 623.500 L 1120.146 621.149 L 1123.146 619.696 L 1126.854 619.696 L 1129.854 621.149 L 1131.000 623.500 Z" />
</g>
<g id="part-225">
<path d="M 1198.959 248.497 L 1228.959 248.497 L 1228.959 266.497 L 1198.959 266.497 L 1198.959 248.497 Z" />
</g>
<g id="part-226">
<path d="M 1260.934 720.307 L 1283.934 720.307 L 1283.934 747.307 L 1260.934 747.307 L 1260.934 720.307 Z" />
</g>
<g id="part-227">
<path d="M 1150.500 941.000 L 1166.500 941.000 L 1166.500 955.000 L 1150.500 955.000 L 1150.500 941.000 Z" />
</g>
<g id="part-228">
<path d="M 1199.576 1132.838 L 1232.576 1132.838 L 1232.576 1155.838 L 1199.576 1155.838 L 1199.576 1132.838 Z" />
</g>
<g id="part-229">
<path d="M 1202.576 1299.685 L 1228.576 1299.685 L 1228.576 1309.685 L 1202.576 1309.685 L 1202.576 1299.685 Z" />
</g>
<g id="part-230">
<path d="M 1150.500 777.000 L 1183.500 777.000 L 1183.500 810.000 L 1150.500 810.000 L 1150.500 777.000 Z" />
<path d="M 1161.060 787.560 L 1161.060 799.440 L 1172.940 799.440 L 1172.940 787.560 L 1161.060 787.560 Z" fill="#f7f7f2" fill-opacity="1" stroke="#163b5c" />
</g>
<g id="part-231">
<path d="M 1143.000 201.000 L 1167.000 201.000 L 1167.000 257.000 L 1143.000 257.000 L 1143.000 201.000 Z" />
<path d="M 1151.160 211.080 L 1151.160 223.400 L 1161.720 223.400 L 1161.720 211.080 L 1151.160 211.080 Z" fill="#f7f7f2" fill-opacity="1" stroke="#163b5c" />
<path d="M 1151.160 234.600 L 1151.160 246.920 L 1161.720 246.920 L 1161.720 234.600 L 1151.160 234.600 Z" fill="#f7f7f2" fill-opacity="1" stroke="#163b5c" />
</g>
<g id="part-232">
<path d="M 1187.076 1385.685 L 1231.076 1385.685 L 1231.076 1392.065 L 1202.036 1392.065 L 1202.036 1408.305 L 1231.076 1408.305 L 1231.076 1414.685 L 1187.076 1414.685 L 1187.076 1385.685 Z" />
</g>
<g id="part-233">
<path d="M 1255.434 865.307 L 1277.434 869.307 L 1271.274 889.307 L 1258.434 884.987 L 1255.434 865.307 Z" />
</g>
<g id="part-234">
<path d="M 1151.014 1148.939 L 1149.744 1152.183 L 1146.337 1154.397 L 1141.875 1154.878 L 1137.775 1153.473 L 1135.338 1150.629 L 1135.338 1147.249 L 1137.775 1144.404 L 1141.875 1143.000 L 1146.337 1143.481 L 1149.744 1145.695 L 1151.014 1148.939 Z" />
</g>
<g id="part-235">
<path d="M 1207.434 578.865 L 1239.434 578.865 L 1239.434 598.865 L 1207.434 598.865 L 1207.434 578.865 Z" />
</g>
<g id="part-236">
<path d="M 1227.434 872.153 L 1252.434 872.153 L 1252.434 901.153 L 1227.434 901.153 L 1227.434 872.153 Z" />
</g>
<g id="part-237">
<path d="M 1192.434 818.153 L 1210.434 818.153 L 1210.434 834.153 L 1192.434 834.153 L 1192.434 818.153 Z" />
</g>
<g id="part-238">
<path d="M 1233.576 1187.685 L 1244.576 1187.685 L 1244.576 1212.685 L 1233.576 1212.685 L 1233.576 1187.685 Z" />
</g>
<g id="part-239">
<path d="M 1255.434 809.307 L 1283.434 809.307 L 1283.434 821.307 L 1255.434 821.307 L 1255.434 809.307 Z" />
</g>
<g id="part-240">
<path d="M 1140.000 127.000 L 1175.000 127.000 L 1175.000 162.000 L 1140.000 162.000 L 1140.000 127.000 Z" />
<path d="M 1151.200 138.200 L 1151.200 150.800 L 1163.800 150.800 L 1163.800 138.200 L 1151.200 138.200 Z" fill="#f7f7f2" fill-opacity="1" stroke="#163b5c" />
</g>
<g id="part-241">
<path d="M 1146.500 1012.000 L 1172.500 1012.000 L 1172.500 1054.000 L 1146.500 1054.000 L 1146.500 1012.000 Z" />
<path d="M 1155.340 1019.560 L 1155.340 1028.800 L 1166.780 1028.800 L 1166.780 1019.560 L 1155.340 1019.560 Z" fill="#f7f7f2" fill-opacity="1" stroke="#163b5c" />
<path d="M 1155.340 1037.200 L 1155.340 1046.440 L 1166.780 1046.440 L 1166.780 1037.200 L 1155.340 1037.200 Z" fill="#f7f7f2" fill-opacity="1" stroke="#163b5c" />
</g>
<g id="part-242">
<path d="M 1150.500 908.000 L 1196.500 908.000 L 1196.500 914.820 L 1166.140 914.820 L 1166.140 932.180 L 1196.500 932.180 L 1196.500 939.000 L 1150.500 939.000 L 1150.500 908.000 Z" />
</g>
<g id="part-243">
<path d="M 1233.459 108.497 L 1257.459 112.497 L 1250.739 134.497 L 1236.459 129.817 L 1233.459 108.497 Z" />
</g>
<g id="part-244">
<path d="M 1133.338 1148.939 L 1132.068 1152.183 L 1128.661 1154.397 L 1124.199 1154.878 L 1120.099 1153.473 L 1117.662 1150.629 L 1117.662 1147.249 L 1120.099 1144.404 L 1124.199 1143.000 L 1128.661 1143.481 L 1132.068 1145.695 L 1133.338 1148.939 Z" />
</g>
<g id="part-245">
<path d="M 1180.500 753.000 L 1190.500 753.000 L 1190.500 775.000 L 1180.500 775.000 L 1180.500 753.000 Z" />
</g>
<g id="part-246">
<path d="M 1174.500 1012.000 L 1201.500 1012.000 L 1201.500 1021.000 L 1174.500 1021.000 L 1174.500 1012.000 Z" />
</g>
<g id="part-247">
<path d="M 1262.959 400.497 L 1282.959 400.497 L 1282.959 418.497 L 1262.959 418.497 L 1262.959 400.497 Z" />
</g>
<g id="part-248">
<path d="M 1270.434 492.365 L 1283.434 492.365 L 1283.434 519.365 L 1270.434 519.365 L 1270.434 492.365 Z" />
</g>
<g id="part-249">
<path d="M 1196.459 124.497 L 1226.459 124.497 L 1226.459 138.497 L 1196.459 138.497 L 1196.459 124.497 Z" />
</g>
</g>
<text x="10" y="20" font-size="14" fill="#222">mixed_250_parts / Maximum</text>
</svg>
