<svg xmlns="http://www.w3.org/2000/svg" width="1450.000" height="940.000" viewBox="0 0 1450.000 940.000">
<rect x="0" y="0" width="1450.000" height="940.000" fill="#f7f7f2" />
<g fill="none" stroke="#2a2a2a" stroke-width="1.2">
<path d="M 0.000 0.000 L 1450.000 0.000 L 1450.000 940.000 L 0.000 940.000 L 0.000 0.000 Z" stroke="#1f5f8b" />
</g>
<g fill="#86b8e7" fill-opacity="0.58" stroke="#163b5c" stroke-width="0.8">
<g id="part-0">
<path d="M 646.000 10.000 L 675.000 10.000 L 675.000 45.000 L 646.000 45.000 L 646.000 10.000 Z" />
<path d="M 655.280 21.200 L 655.280 33.800 L 665.720 33.800 L 665.720 21.200 L 655.280 21.200 Z" fill="#f7f7f2" fill-opacity="1" stroke="#163b5c" />
</g>
<g id="part-1">
<path d="M 289.000 10.000 L 333.000 10.000 L 333.000 52.000 L 289.000 52.000 L 289.000 10.000 Z" />
<path d="M 303.960 17.560 L 303.960 26.800 L 323.320 26.800 L 323.320 17.560 L 303.960 17.560 Z" fill="#f7f7f2" fill-opacity="1" stroke="#163b5c" />
<path d="M 303.960 35.200 L 303.960 44.440 L 323.320 44.440 L 323.320 35.200 L 303.960 35.200 Z" fill="#f7f7f2" fill-opacity="1" stroke="#163b5c" />
</g>
<g id="part-2">
<path d="M 767.000 10.000 L 807.000 10.000 L 807.000 16.820 L 780.600 16.820 L 780.600 34.180 L 807.000 34.180 L 807.000 41.000 L 767.000 41.000 L 767.000 10.000 Z" />
</g>
<g id="part-3">
<path d="M 1268.432 10.000 L 1286.432 14.000 L 1281.392 36.000 L 1271.432 31.320 L 1268.432 10.000 Z" />
</g>
<g id="part-4">
<path d="M 1081.794 71.706 L 1080.648 75.233 L 1077.648 77.413 L 1073.940 77.413 L 1070.940 75.233 L 1069.794 71.706 L 1070.940 68.180 L 1073.940 66.000 L 1077.648 66.000 L 1080.648 68.180 L 1081.794 71.706 Z" />
</g>
<g id="part-5">
<path d="M 204.361 66.000 L 232.361 66.000 L 232.361 88.000 L 204.361 88.000 L 204.361 66.000 Z" />
</g>
<g id="part-6">
<path d="M 1215.794 66.000 L 1236.794 66.000 L 1236.794 75.000 L 1215.794 75.000 L 1215.794 66.000 Z" />
</g>
<g id="part-7">
<path d="M 584.361 66.000 L 598.361 66.000 L 598.361 84.000 L 584.361 84.000 L 584.361 66.000 Z" />
</g>
<g id="part-8">
<path d="M 1235.432 10.000 L 1266.432 10.000 L 1266.432 37.000 L 1235.432 37.000 L 1235.432 10.000 Z" />
</g>
<g id="part-9">
<path d="M 887.794 66.000 L 911.794 66.000 L 911.794 80.000 L 887.794 80.000 L 887.794 66.000 Z" />
</g>
<g id="part-10">
<path d="M 565.000 10.000 L 596.000 10.000 L 596.000 47.000 L 565.000 47.000 L 565.000 10.000 Z" />
<path d="M 574.920 21.840 L 574.920 35.160 L 586.080 35.160 L 586.080 21.840 L 574.920 21.840 Z" fill="#f7f7f2" fill-opacity="1" stroke="#163b5c" />
</g>
<g id="part-11">
<path d="M 335.000 10.000 L 359.000 10.000 L 359.000 52.000 L 335.000 52.000 L 335.000 10.000 Z" />
<path d="M 343.160 17.560 L 343.160 26.800 L 353.720 26.800 L 353.720 17.560 L 343.160 17.560 Z" fill="#f7f7f2" fill-opacity="1" stroke="#163b5c" />
<path d="M 343.160 35.200 L 343.160 44.440 L 353.720 44.440 L 353.720 35.200 L 343.160 35.200 Z" fill="#f7f7f2" fill-opacity="1" stroke="#163b5c" />
</g>
<g id="part-12">
<path d="M 723.000 10.000 L 765.000 10.000 L 765.000 17.260 L 737.280 17.260 L 737.280 35.740 L 765.000 35.740 L 765.000 43.000 L 723.000 43.000 L 723.000 10.000 Z" />
</g>
<g id="part-13">
<path d="M 1022.000 10.000 L 1042.000 14.000 L 1036.400 38.000 L 1025.000 32.960 L 1022.000 10.000 Z" />
</g>
<g id="part-14">
<path d="M 787.794 73.919 L 786.841 78.244 L 784.286 81.196 L 780.940 81.837 L 777.864 79.965 L 776.037 76.172 L 776.037 71.665 L 777.864 67.873 L 780.940 66.000 L 784.286 66.642 L 786.841 69.593 L 787.794 73.919 Z" />
</g>
<g id="part-15">
<path d="M 10.000 66.000 L 40.000 66.000 L 40.000 90.000 L 10.000 90.000 L 10.000 66.000 Z" />
</g>
<g id="part-16">
<path d="M 1083.794 66.000 L 1106.794 66.000 L 1106.794 77.000 L 1083.794 77.000 L 1083.794 66.000 Z" />
</g>
<g id="part-17">
<path d="M 446.361 66.000 L 462.361 66.000 L 462.361 86.000 L 446.361 86.000 L 446.361 66.000 Z" />
</g>
<g id="part-18">
<path d="M 905.000 10.000 L 938.000 10.000 L 938.000 39.000 L 905.000 39.000 L 905.000 10.000 Z" />
</g>
<g id="part-19">
<path d="M 708.361 66.000 L 734.361 66.000 L 734.361 82.000 L 708.361 82.000 L 708.361 66.000 Z" />
</g>
<g id="part-20">
<path d="M 530.000 10.000 L 563.000 10.000 L 563.000 49.000 L 530.000 49.000 L 530.000 10.000 Z" />
<path d="M 540.560 22.480 L 540.560 36.520 L 552.440 36.520 L 552.440 22.480 L 540.560 22.480 Z" fill="#f7f7f2" fill-opacity="1" stroke="#163b5c" />
</g>
<g id="part-21">
<path d="M 389.000 10.000 L 413.000 10.000 L 413.000 52.000 L 389.000 52.000 L 389.000 10.000 Z" />
<path d="M 397.160 17.560 L 397.160 26.800 L 407.720 26.800 L 407.720 17.560 L 397.160 17.560 Z" fill="#f7f7f2" fill-opacity="1" stroke="#163b5c" />
<path d="M 397.160 35.200 L 397.160 44.440 L 407.720 44.440 L 407.720 35.200 L 397.160 35.200 Z" fill="#f7f7f2" fill-opacity="1" stroke="#163b5c" />
</g>
<g id="part-22">
<path d="M 677.000 10.000 L 721.000 10.000 L 721.000 17.700 L 691.960 17.700 L 691.960 37.300 L 721.000 37.300 L 721.000 45.000 L 677.000 45.000 L 677.000 10.000 Z" />
</g>
<g id="part-23">
<path d="M 1311.794 66.000 L 1333.794 70.000 L 1327.634 74.000 L 1314.794 72.560 L 1311.794 66.000 Z" />
</g>
<g id="part-24">
<path d="M 774.037 73.919 L 772.767 78.244 L 769.360 81.196 L 764.898 81.837 L 760.798 79.965 L 758.361 76.172 L 758.361 71.665 L 760.798 67.873 L 764.898 66.000 L 769.360 66.642 L 772.767 69.593 L 774.037 73.919 Z" />
</g>
<g id="part-25">
<path d="M 1288.432 10.000 L 1320.432 10.000 L 1320.432 36.000 L 1288.432 36.000 L 1288.432 10.000 Z" />
</g>
<g id="part-26">
<path d="M 947.794 66.000 L 972.794 66.000 L 972.794 79.000 L 947.794 79.000 L 947.794 66.000 Z" />
</g>
<g id="part-27">
<path d="M 234.361 66.000 L 252.361 66.000 L 252.361 88.000 L 234.361 88.000 L 234.361 66.000 Z" />
</g>
<g id="part-28">
<path d="M 1238.794 66.000 L 1249.794 66.000 L 1249.794 75.000 L 1238.794 75.000 L 1238.794 66.000 Z" />
</g>
<g id="part-29">
<path d="M 554.361 66.000 L 582.361 66.000 L 582.361 84.000 L 554.361 84.000 L 554.361 66.000 Z" />
</g>
<g id="part-30">
<path d="M 443.000 10.000 L 478.000 10.000 L 478.000 51.000 L 443.000 51.000 L 443.000 10.000 Z" />
<path d="M 454.200 23.120 L 454.200 37.880 L 466.800 37.880 L 466.800 23.120 L 454.200 23.120 Z" fill="#f7f7f2" fill-opacity="1" stroke="#163b5c" />
</g>
<g id="part-31">
<path d="M 361.000 10.000 L 387.000 10.000 L 387.000 52.000 L 361.000 52.000 L 361.000 10.000 Z" />
<path d="M 369.840 17.560 L 369.840 26.800 L 381.280 26.800 L 381.280 17.560 L 369.840 17.560 Z" fill="#f7f7f2" fill-opacity="1" stroke="#163b5c" />
<path d="M 369.840 35.200 L 369.840 44.440 L 381.280 44.440 L 381.280 35.200 L 369.840 35.200 Z" fill="#f7f7f2" fill-opacity="1" stroke="#163b5c" />
</g>
<g id="part-32">
<path d="M 598.000 10.000 L 644.000 10.000 L 644.000 18.140 L 613.640 18.140 L 613.640 38.860 L 644.000 38.860 L 644.000 47.000 L 598.000 47.000 L 598.000 10.000 Z" />
</g>
<g id="part-33">
<path d="M 1123.794 66.000 L 1147.794 70.000 L 1141.074 76.000 L 1126.794 74.200 L 1123.794 66.000 Z" />
</g>
<g id="part-34">
<path d="M 444.361 76.000 L 443.289 81.000 L 440.361 84.660 L 436.361 86.000 L 432.361 84.660 L 429.433 81.000 L 428.361 76.000 L 429.433 71.000 L 432.361 67.340 L 436.361 66.000 L 440.361 67.340 L 443.289 71.000 L 444.361 76.000 Z" />
</g>
<g id="part-35">
<path d="M 1044.000 10.000 L 1054.000 10.000 L 1054.000 38.000 L 1044.000 38.000 L 1044.000 10.000 Z" />
</g>
<g id="part-36">
<path d="M 808.794 66.000 L 835.794 66.000 L 835.794 81.000 L 808.794 81.000 L 808.794 66.000 Z" />
</g>
<g id="part-37">
<path d="M 42.000 66.000 L 62.000 66.000 L 62.000 90.000 L 42.000 90.000 L 42.000 66.000 Z" />
</g>
<g id="part-38">
<path d="M 1108.794 66.000 L 1121.794 66.000 L 1121.794 77.000 L 1108.794 77.000 L 1108.794 66.000 Z" />
</g>
<g id="part-39">
<path d="M 396.361 66.000 L 426.361 66.000 L 426.361 86.000 L 396.361 86.000 L 396.361 66.000 Z" />
</g>
<g id="part-40">
<path d="M 220.000 10.000 L 257.000 10.000 L 257.000 53.000 L 220.000 53.000 L 220.000 10.000 Z" />
<path d="M 231.840 23.760 L 231.840 39.240 L 245.160 39.240 L 245.160 23.760 L 231.840 23.760 Z" fill="#f7f7f2" fill-opacity="1" stroke="#163b5c" />
</g>
<g id="part-41">
<path d="M 190.000 10.000 L 218.000 10.000 L 218.000 54.000 L 190.000 54.000 L 190.000 10.000 Z" />
<path d="M 199.520 17.920 L 199.520 27.600 L 211.840 27.600 L 211.840 17.920 L 199.520 17.920 Z" fill="#f7f7f2" fill-opacity="1" stroke="#163b5c" />
<path d="M 199.520 36.400 L 199.520 46.080 L 211.840 46.080 L 211.840 36.400 L 199.520 36.400 Z" fill="#f7f7f2" fill-opacity="1" stroke="#163b5c" />
</g>
<g id="part-42">
<path d="M 480.000 10.000 L 528.000 10.000 L 528.000 18.580 L 496.320 18.580 L 496.320 40.420 L 528.000 40.420 L 528.000 49.000 L 480.000 49.000 L 480.000 10.000 Z" />
</g>
<g id="part-43">
<path d="M 1041.794 66.000 L 1067.794 70.000 L 1060.514 78.000 L 1044.794 75.840 L 1041.794 66.000 Z" />
</g>
<g id="part-44">
<path d="M 394.361 76.000 L 393.021 81.000 L 389.361 84.660 L 384.361 86.000 L 379.361 84.660 L 375.700 81.000 L 374.361 76.000 L 375.700 71.000 L 379.361 67.340 L 384.361 66.000 L 389.361 67.340 L 393.021 71.000 L 394.361 76.000 Z" />
</g>
<g id="part-45">
<path d="M 1297.794 66.000 L 1309.794 66.000 L 1309.794 74.000 L 1297.794 74.000 L 1297.794 66.000 Z" />
</g>
<g id="part-46">
<path d="M 624.361 66.000 L 653.361 66.000 L 653.361 83.000 L 624.361 83.000 L 624.361 66.000 Z" />
</g>
<g id="part-47">
<path d="M 1336.432 10.000 L 1358.432 10.000 L 1358.432 36.000 L 1336.432 36.000 L 1336.432 10.000 Z" />
</g>
<g id="part-48">
<path d="M 974.794 66.000 L 989.794 66.000 L 989.794 79.000 L 974.794 79.000 L 974.794 66.000 Z" />
</g>
<g id="part-49">
<path d="M 254.361 66.000 L 286.361 66.000 L 286.361 88.000 L 254.361 88.000 L 254.361 66.000 Z" />
</g>
<g id="part-50">
<path d="M 163.361 66.000 L 202.361 66.000 L 202.361 89.000 L 163.361 89.000 L 163.361 66.000 Z" />
<path d="M 175.841 73.360 L 175.841 81.640 L 189.881 81.640 L 189.881 73.360 L 175.841 73.360 Z" fill="#f7f7f2" fill-opacity="1" stroke="#163b5c" />
</g>
<g id="part-51">
<path d="M 158.000 10.000 L 188.000 10.000 L 188.000 56.000 L 158.000 56.000 L 158.000 10.000 Z" />
<path d="M 168.200 18.280 L 168.200 28.400 L 181.400 28.400 L 181.400 18.280 L 168.200 18.280 Z" fill="#f7f7f2" fill-opacity="1" stroke="#163b5c" />
<path d="M 168.200 37.600 L 168.200 47.720 L 181.400 47.720 L 181.400 37.600 L 168.200 37.600 Z" fill="#f7f7f2" fill-opacity="1" stroke="#163b5c" />
</g>
<g id="part-52">
<path d="M 415.000 10.000 L 441.000 10.000 L 441.000 19.020 L 423.840 19.020 L 423.840 41.980 L 441.000 41.980 L 441.000 51.000 L 415.000 51.000 L 415.000 10.000 Z" />
</g>
<g id="part-53">
<path d="M 837.794 66.000 L 865.794 70.000 L 857.954 80.000 L 840.794 77.480 L 837.794 66.000 Z" />
</g>
<g id="part-54">
<path d="M 121.361 77.913 L 120.215 83.489 L 117.041 87.788 L 112.566 89.825 L 107.815 89.133 L 103.876 85.870 L 101.651 80.784 L 101.651 75.041 L 103.876 69.955 L 107.815 66.692 L 112.566 66.000 L 117.041 68.037 L 120.215 72.336 L 121.361 77.913 Z" />
</g>
<g id="part-55">
<path d="M 1149.794 66.000 L 1163.794 66.000 L 1163.794 76.000 L 1149.794 76.000 L 1149.794 66.000 Z" />
</g>
<g id="part-56">
<path d="M 464.361 66.000 L 495.361 66.000 L 495.361 85.000 L 464.361 85.000 L 464.361 66.000 Z" />
</g>
<g id="part-57">
<path d="M 1092.000 10.000 L 1116.000 10.000 L 1116.000 38.000 L 1092.000 38.000 L 1092.000 10.000 Z" />
</g>
<g id="part-58">
<path d="M 789.794 66.000 L 806.794 66.000 L 806.794 81.000 L 789.794 81.000 L 789.794 66.000 Z" />
</g>
<g id="part-59">
<path d="M 64.000 66.000 L 74.000 66.000 L 74.000 90.000 L 64.000 90.000 L 64.000 66.000 Z" />
</g>
<g id="part-60">
<path d="M 1375.432 10.000 L 1416.432 10.000 L 1416.432 35.000 L 1375.432 35.000 L 1375.432 10.000 Z" />
<path d="M 1388.552 18.000 L 1388.552 27.000 L 1403.312 27.000 L 1403.312 18.000 L 1388.552 18.000 Z" fill="#f7f7f2" fill-opacity="1" stroke="#163b5c" />
</g>
<g id="part-61">
<path d="M 124.000 10.000 L 156.000 10.000 L 156.000 58.000 L 124.000 58.000 L 124.000 10.000 Z" />
<path d="M 134.880 18.640 L 134.880 29.200 L 148.960 29.200 L 148.960 18.640 L 134.880 18.640 Z" fill="#f7f7f2" fill-opacity="1" stroke="#163b5c" />
<path d="M 134.880 38.800 L 134.880 49.360 L 148.960 49.360 L 148.960 38.800 L 134.880 38.800 Z" fill="#f7f7f2" fill-opacity="1" stroke="#163b5c" />
</g>
<g id="part-62">
<path d="M 259.000 10.000 L 287.000 10.000 L 287.000 19.460 L 268.520 19.460 L 268.520 43.540 L 287.000 43.540 L 287.000 53.000 L 259.000 53.000 L 259.000 10.000 Z" />
</g>
<g id="part-63">
<path d="M 676.361 66.000 L 706.361 70.000 L 697.961 82.000 L 679.361 79.120 L 676.361 66.000 Z" />
</g>
<g id="part-64">
<path d="M 99.651 77.913 L 98.277 83.489 L 94.468 87.788 L 89.098 89.825 L 83.396 89.133 L 78.669 85.870 L 76.000 80.784 L 76.000 75.041 L 78.669 69.955 L 83.396 66.692 L 89.098 66.000 L 94.468 68.037 L 98.277 72.336 L 99.651 77.913 Z" />
</g>
<g id="part-65">
<path d="M 991.794 66.000 L 1007.794 66.000 L 1007.794 78.000 L 991.794 78.000 L 991.794 66.000 Z" />
</g>
<g id="part-66">
<path d="M 302.361 66.000 L 335.361 66.000 L 335.361 87.000 L 302.361 87.000 L 302.361 66.000 Z" />
</g>
<g id="part-67">
<path d="M 1251.794 66.000 L 1277.794 66.000 L 1277.794 74.000 L 1251.794 74.000 L 1251.794 66.000 Z" />
</g>
<g id="part-68">
<path d="M 655.361 66.000 L 674.361 66.000 L 674.361 83.000 L 655.361 83.000 L 655.361 66.000 Z" />
</g>
<g id="part-69">
<path d="M 1322.432 10.000 L 1334.432 10.000 L 1334.432 36.000 L 1322.432 36.000 L 1322.432 10.000 Z" />
</g>
<g id="part-70">
<path d="M 1173.432 10.000 L 1216.432 10.000 L 1216.432 37.000 L 1173.432 37.000 L 1173.432 10.000 Z" />
<path d="M 1187.192 18.640 L 1187.192 28.360 L 1202.672 28.360 L 1202.672 18.640 L 1187.192 18.640 Z" fill="#f7f7f2" fill-opacity="1" stroke="#163b5c" />
</g>
<g id="part-71">
<path d="M 88.000 10.000 L 122.000 10.000 L 122.000 60.000 L 88.000 60.000 L 88.000 10.000 Z" />
<path d="M 99.560 19.000 L 99.560 30.000 L 114.520 30.000 L 114.520 19.000 L 99.560 19.000 Z" fill="#f7f7f2" fill-opacity="1" stroke="#163b5c" />
<path d="M 99.560 40.000 L 99.560 51.000 L 114.520 51.000 L 114.520 40.000 L 99.560 40.000 Z" fill="#f7f7f2" fill-opacity="1" stroke="#163b5c" />
</g>
<g id="part-72">
<path d="M 956.000 10.000 L 986.000 10.000 L 986.000 16.160 L 966.200 16.160 L 966.200 31.840 L 986.000 31.840 L 986.000 38.000 L 956.000 38.000 L 956.000 10.000 Z" />
</g>
<g id="part-73">
<path d="M 520.361 66.000 L 552.361 70.000 L 543.401 84.000 L 523.361 80.760 L 520.361 66.000 Z" />
</g>
<g id="part-74">
<path d="M 1141.738 23.923 L 1140.700 29.618 L 1137.767 34.327 L 1133.446 37.238 L 1128.483 37.847 L 1123.738 36.048 L 1120.030 32.152 L 1118.000 26.834 L 1118.000 21.013 L 1120.030 15.694 L 1123.738 11.799 L 1128.483 10.000 L 1133.446 10.609 L 1137.767 13.519 L 1140.700 18.229 L 1141.738 23.923 Z" />
</g>
<g id="part-75">
<path d="M 867.794 66.000 L 885.794 66.000 L 885.794 80.000 L 867.794 80.000 L 867.794 66.000 Z" />
</g>
<g id="part-76">
<path d="M 123.361 66.000 L 134.361 66.000 L 134.361 89.000 L 123.361 89.000 L 123.361 66.000 Z" />
</g>
<g id="part-77">
<path d="M 1165.794 66.000 L 1193.794 66.000 L 1193.794 76.000 L 1165.794 76.000 L 1165.794 66.000 Z" />
</g>
<g id="part-78">
<path d="M 497.361 66.000 L 518.361 66.000 L 518.361 85.000 L 497.361 85.000 L 497.361 66.000 Z" />
</g>
<g id="part-79">
<path d="M 940.000 10.000 L 954.000 10.000 L 954.000 38.000 L 940.000 38.000 L 940.000 10.000 Z" />
</g>
<g id="part-80">
<path d="M 858.000 10.000 L 903.000 10.000 L 903.000 39.000 L 858.000 39.000 L 858.000 10.000 Z" />
<path d="M 872.400 19.280 L 872.400 29.720 L 888.600 29.720 L 888.600 19.280 L 872.400 19.280 Z" fill="#f7f7f2" fill-opacity="1" stroke="#163b5c" />
</g>
<g id="part-81">
<path d="M 50.000 10.000 L 86.000 10.000 L 86.000 62.000 L 50.000 62.000 L 50.000 10.000 Z" />
<path d="M 62.240 19.360 L 62.240 30.800 L 78.080 30.800 L 78.080 19.360 L 62.240 19.360 Z" fill="#f7f7f2" fill-opacity="1" stroke="#163b5c" />
<path d="M 62.240 41.200 L 62.240 52.640 L 78.080 52.640 L 78.080 41.200 L 62.240 41.200 Z" fill="#f7f7f2" fill-opacity="1" stroke="#163b5c" />
</g>
<g id="part-82">
<path d="M 988.000 10.000 L 1020.000 10.000 L 1020.000 16.160 L 998.880 16.160 L 998.880 31.840 L 1020.000 31.840 L 1020.000 38.000 L 988.000 38.000 L 988.000 10.000 Z" />
</g>
<g id="part-83">
<path d="M 362.361 66.000 L 372.361 70.000 L 369.561 86.000 L 365.361 82.400 L 362.361 66.000 Z" />
</g>
<g id="part-84">
<path d="M 1171.432 23.923 L 1170.221 29.618 L 1166.800 34.327 L 1161.758 37.238 L 1155.968 37.847 L 1150.432 36.048 L 1146.106 32.152 L 1143.738 26.834 L 1143.738 21.013 L 1146.106 15.694 L 1150.432 11.799 L 1155.968 10.000 L 1161.758 10.609 L 1166.800 13.519 L 1170.221 18.229 L 1171.432 23.923 Z" />
</g>
<g id="part-85">
<path d="M 736.361 66.000 L 756.361 66.000 L 756.361 82.000 L 736.361 82.000 L 736.361 66.000 Z" />
</g>
<g id="part-86">
<path d="M 1360.432 10.000 L 1373.432 10.000 L 1373.432 35.000 L 1360.432 35.000 L 1360.432 10.000 Z" />
</g>
<g id="part-87">
<path d="M 1009.794 66.000 L 1039.794 66.000 L 1039.794 78.000 L 1009.794 78.000 L 1009.794 66.000 Z" />
</g>
<g id="part-88">
<path d="M 337.361 66.000 L 360.361 66.000 L 360.361 87.000 L 337.361 87.000 L 337.361 66.000 Z" />
</g>
<g id="part-89">
<path d="M 1279.794 66.000 L 1295.794 66.000 L 1295.794 74.000 L 1279.794 74.000 L 1279.794 66.000 Z" />
</g>
<g id="part-90">
<path d="M 809.000 10.000 L 856.000 10.000 L 856.000 41.000 L 809.000 41.000 L 809.000 10.000 Z" />
<path d="M 824.040 19.920 L 824.040 31.080 L 840.960 31.080 L 840.960 19.920 L 824.040 19.920 Z" fill="#f7f7f2" fill-opacity="1" stroke="#163b5c" />
</g>
<g id="part-91">
<path d="M 10.000 10.000 L 48.000 10.000 L 48.000 64.000 L 10.000 64.000 L 10.000 10.000 Z" />
<path d="M 22.920 19.720 L 22.920 31.600 L 39.640 31.600 L 39.640 19.720 L 22.920 19.720 Z" fill="#f7f7f2" fill-opacity="1" stroke="#163b5c" />
<path d="M 22.920 42.400 L 22.920 54.280 L 39.640 54.280 L 39.640 42.400 L 22.920 42.400 Z" fill="#f7f7f2" fill-opacity="1" stroke="#163b5c" />
</g>
<g id="part-92">
<path d="M 1056.000 10.000 L 1090.000 10.000 L 1090.000 16.160 L 1067.560 16.160 L 1067.560 31.840 L 1090.000 31.840 L 1090.000 38.000 L 1056.000 38.000 L 1056.000 10.000 Z" />
</g>
<g id="part-93">
<path d="M 288.361 66.000 L 300.361 70.000 L 297.001 88.000 L 291.361 84.040 L 288.361 66.000 Z" />
</g>
<g id="part-94">
<path d="M 1363.488 69.978 L 1362.277 71.605 L 1358.856 72.951 L 1353.814 73.782 L 1348.024 73.956 L 1342.488 73.442 L 1338.161 72.329 L 1335.794 70.810 L 1335.794 69.146 L 1338.161 67.627 L 1342.488 66.514 L 1348.024 66.000 L 1353.814 66.174 L 1358.856 67.006 L 1362.277 68.351 L 1363.488 69.978 Z" />
</g>
<g id="part-95">
<path d="M 600.361 66.000 L 622.361 66.000 L 622.361 84.000 L 600.361 84.000 L 600.361 66.000 Z" />
</g>
<g id="part-96">
<path d="M 1218.432 10.000 L 1233.432 10.000 L 1233.432 37.000 L 1218.432 37.000 L 1218.432 10.000 Z" />
</g>
<g id="part-97">
<path d="M 913.794 66.000 L 945.794 66.000 L 945.794 80.000 L 913.794 80.000 L 913.794 66.000 Z" />
</g>
<g id="part-98">
<path d="M 136.361 66.000 L 161.361 66.000 L 161.361 89.000 L 136.361 89.000 L 136.361 66.000 Z" />
</g>
<g id="part-99">
<path d="M 1195.794 66.000 L 1213.794 66.000 L 1213.794 76.000 L 1195.794 76.000 L 1195.794 66.000 Z" />
</g>
</g>
<text x="10" y="20" font-size="14" fill="#222">mixed_100_parts / Fast</text>
</svg>
