<svg xmlns="http://www.w3.org/2000/svg" width="3300.000" height="2150.000" viewBox="0 0 3300.000 2150.000">
<rect x="0" y="0" width="3300.000" height="2150.000" fill="#f7f7f2" />
<g fill="none" stroke="#2a2a2a" stroke-width="1.2">
<path d="M 0.000 0.000 L 3300.000 0.000 L 3300.000 2150.000 L 0.000 2150.000 L 0.000 0.000 Z" stroke="#1f5f8b" />
</g>
<g fill="#86b8e7" fill-opacity="0.58" stroke="#163b5c" stroke-width="0.8">
<g id="part-0">
<path d="M 2431.000 12.000 L 2478.000 12.000 L 2478.000 53.000 L 2431.000 53.000 L 2431.000 12.000 Z" />
<path d="M 2446.040 25.120 L 2446.040 39.880 L 2462.960 39.880 L 2462.960 25.120 L 2446.040 25.120 Z" fill="#f7f7f2" fill-opacity="1" stroke="#163b5c" />
</g>
<g id="part-1">
<path d="M 2045.000 12.000 L 2083.000 12.000 L 2083.000 54.000 L 2045.000 54.000 L 2045.000 12.000 Z" />
<path d="M 2057.920 19.560 L 2057.920 28.800 L 2074.640 28.800 L 2074.640 19.560 L 2057.920 19.560 Z" fill="#f7f7f2" fill-opacity="1" stroke="#163b5c" />
<path d="M 2057.920 37.200 L 2057.920 46.440 L 2074.640 46.440 L 2074.640 37.200 L 2057.920 37.200 Z" fill="#f7f7f2" fill-opacity="1" stroke="#163b5c" />
</g>
<g id="part-2">
<path d="M 3100.000 12.000 L 3134.000 12.000 L 3134.000 20.140 L 3111.560 20.140 L 3111.560 40.860 L 3134.000 40.860 L 3134.000 49.000 L 3100.000 49.000 L 3100.000 12.000 Z" />
</g>
<g id="part-3">
<path d="M 2973.334 135.000 L 2985.334 139.000 L 2981.974 145.000 L 2976.334 143.200 L 2973.334 135.000 Z" />
</g>
<g id="part-4">
<path d="M 2743.937 116.945 L 2742.727 121.013 L 2739.305 124.377 L 2734.263 126.456 L 2728.473 126.890 L 2722.937 125.605 L 2718.611 122.823 L 2716.243 119.024 L 2716.243 114.866 L 2718.611 111.067 L 2722.937 108.285 L 2728.473 107.000 L 2734.263 107.435 L 2739.305 109.514 L 2742.727 112.878 L 2743.937 116.945 Z" />
</g>
<g id="part-5">
<path d="M 1402.000 70.000 L 1424.000 70.000 L 1424.000 98.000 L 1402.000 98.000 L 1402.000 70.000 Z" />
</g>
<g id="part-6">
<path d="M 1203.630 135.000 L 1218.630 135.000 L 1218.630 150.000 L 1203.630 150.000 L 1203.630 135.000 Z" />
</g>
<g id="part-7">
<path d="M 624.000 107.000 L 656.000 107.000 L 656.000 131.000 L 624.000 131.000 L 624.000 107.000 Z" />
</g>
<g id="part-8">
<path d="M 2682.334 135.000 L 2707.334 135.000 L 2707.334 146.000 L 2682.334 146.000 L 2682.334 135.000 Z" />
</g>
<g id="part-9">
<path d="M 2278.855 107.000 L 2296.855 107.000 L 2296.855 127.000 L 2278.855 127.000 L 2278.855 107.000 Z" />
</g>
<g id="part-10">
<path d="M 1304.000 12.000 L 1329.000 12.000 L 1329.000 55.000 L 1304.000 55.000 L 1304.000 12.000 Z" />
<path d="M 1312.000 25.760 L 1312.000 41.240 L 1321.000 41.240 L 1321.000 25.760 L 1312.000 25.760 Z" fill="#f7f7f2" fill-opacity="1" stroke="#163b5c" />
</g>
<g id="part-11">
<path d="M 1040.000 12.000 L 1080.000 12.000 L 1080.000 56.000 L 1040.000 56.000 L 1040.000 12.000 Z" />
<path d="M 1053.600 19.920 L 1053.600 29.600 L 1071.200 29.600 L 1071.200 19.920 L 1053.600 19.920 Z" fill="#f7f7f2" fill-opacity="1" stroke="#163b5c" />
<path d="M 1053.600 38.400 L 1053.600 48.080 L 1071.200 48.080 L 1071.200 38.400 L 1053.600 38.400 Z" fill="#f7f7f2" fill-opacity="1" stroke="#163b5c" />
</g>
<g id="part-12">
<path d="M 2588.000 12.000 L 2624.000 12.000 L 2624.000 20.580 L 2600.240 20.580 L 2600.240 42.420 L 2624.000 42.420 L 2624.000 51.000 L 2588.000 51.000 L 2588.000 12.000 Z" />
</g>
<g id="part-13">
<path d="M 2281.630 135.000 L 2295.630 139.000 L 2291.710 147.000 L 2284.630 144.840 L 2281.630 135.000 Z" />
</g>
<g id="part-14">
<path d="M 2777.587 116.945 L 2776.204 121.013 L 2772.293 124.377 L 2766.531 126.456 L 2759.915 126.890 L 2753.587 125.605 L 2748.643 122.823 L 2745.937 119.024 L 2745.937 114.866 L 2748.643 111.067 L 2753.587 108.285 L 2759.915 107.000 L 2766.531 107.435 L 2772.293 109.514 L 2776.204 112.878 L 2777.587 116.945 Z" />
</g>
<g id="part-15">
<path d="M 212.000 155.000 L 236.000 155.000 L 236.000 163.000 L 212.000 163.000 L 212.000 155.000 Z" />
</g>
<g id="part-16">
<path d="M 334.000 135.000 L 351.000 135.000 L 351.000 152.000 L 334.000 152.000 L 334.000 135.000 Z" />
</g>
<g id="part-17">
<path d="M 46.000 107.000 L 56.000 107.000 L 56.000 133.000 L 46.000 133.000 L 46.000 107.000 Z" />
</g>
<g id="part-18">
<path d="M 1952.630 135.000 L 1979.630 135.000 L 1979.630 148.000 L 1952.630 148.000 L 1952.630 135.000 Z" />
</g>
<g id="part-19">
<path d="M 1828.855 107.000 L 1848.855 107.000 L 1848.855 129.000 L 1828.855 129.000 L 1828.855 107.000 Z" />
</g>
<g id="part-20">
<path d="M 1585.855 107.000 L 1612.855 107.000 L 1612.855 130.000 L 1585.855 130.000 L 1585.855 107.000 Z" />
<path d="M 1594.495 114.360 L 1594.495 122.640 L 1604.215 122.640 L 1604.215 114.360 L 1594.495 114.360 Z" fill="#f7f7f2" fill-opacity="1" stroke="#163b5c" />
</g>
<g id="part-21">
<path d="M 876.000 12.000 L 918.000 12.000 L 918.000 58.000 L 876.000 58.000 L 876.000 12.000 Z" />
<path d="M 890.280 20.280 L 890.280 30.400 L 908.760 30.400 L 908.760 20.280 L 890.280 20.280 Z" fill="#f7f7f2" fill-opacity="1" stroke="#163b5c" />
<path d="M 890.280 39.600 L 890.280 49.720 L 908.760 49.720 L 908.760 39.600 L 890.280 39.600 Z" fill="#f7f7f2" fill-opacity="1" stroke="#163b5c" />
</g>
<g id="part-22">
<path d="M 2226.000 12.000 L 2264.000 12.000 L 2264.000 21.020 L 2238.920 21.020 L 2238.920 43.980 L 2264.000 43.980 L 2264.000 53.000 L 2226.000 53.000 L 2226.000 12.000 Z" />
</g>
<g id="part-23">
<path d="M 1414.630 135.000 L 1430.630 139.000 L 1426.150 149.000 L 1417.630 146.480 L 1414.630 135.000 Z" />
</g>
<g id="part-24">
<path d="M 1124.383 118.934 L 1123.000 123.815 L 1119.089 127.852 L 1113.327 130.347 L 1106.710 130.869 L 1100.383 129.327 L 1095.439 125.988 L 1092.733 121.429 L 1092.733 116.439 L 1095.439 111.881 L 1100.383 108.542 L 1106.710 107.000 L 1113.327 107.522 L 1119.089 110.017 L 1123.000 114.053 L 1124.383 118.934 Z" />
</g>
<g id="part-25">
<path d="M 2817.334 135.000 L 2843.334 135.000 L 2843.334 145.000 L 2817.334 145.000 L 2817.334 135.000 Z" />
</g>
<g id="part-26">
<path d="M 2911.886 107.000 L 2930.886 107.000 L 2930.886 126.000 L 2911.886 126.000 L 2911.886 107.000 Z" />
</g>
<g id="part-27">
<path d="M 1524.000 70.000 L 1536.000 70.000 L 1536.000 98.000 L 1524.000 98.000 L 1524.000 70.000 Z" />
</g>
<g id="part-28">
<path d="M 1220.630 135.000 L 1249.630 135.000 L 1249.630 150.000 L 1220.630 150.000 L 1220.630 135.000 Z" />
</g>
<g id="part-29">
<path d="M 884.000 107.000 L 906.000 107.000 L 906.000 131.000 L 884.000 131.000 L 884.000 107.000 Z" />
</g>
<g id="part-30">
<path d="M 329.000 107.000 L 358.000 107.000 L 358.000 132.000 L 329.000 132.000 L 329.000 107.000 Z" />
<path d="M 338.280 115.000 L 338.280 124.000 L 348.720 124.000 L 348.720 115.000 L 338.280 115.000 Z" fill="#f7f7f2" fill-opacity="1" stroke="#163b5c" />
</g>
<g id="part-31">
<path d="M 668.000 12.000 L 712.000 12.000 L 712.000 60.000 L 668.000 60.000 L 668.000 12.000 Z" />
<path d="M 682.960 20.640 L 682.960 31.200 L 702.320 31.200 L 702.320 20.640 L 682.960 20.640 Z" fill="#f7f7f2" fill-opacity="1" stroke="#163b5c" />
<path d="M 682.960 40.800 L 682.960 51.360 L 702.320 51.360 L 702.320 40.800 L 682.960 40.800 Z" fill="#f7f7f2" fill-opacity="1" stroke="#163b5c" />
</g>
<g id="part-32">
<path d="M 1331.000 12.000 L 1371.000 12.000 L 1371.000 21.460 L 1344.600 21.460 L 1344.600 45.540 L 1371.000 45.540 L 1371.000 55.000 L 1331.000 55.000 L 1331.000 12.000 Z" />
</g>
<g id="part-33">
<path d="M 544.000 135.000 L 562.000 139.000 L 556.960 151.000 L 547.000 148.120 L 544.000 135.000 Z" />
</g>
<g id="part-34">
<path d="M 1235.203 118.913 L 1234.516 124.489 L 1232.612 128.788 L 1229.927 130.825 L 1227.076 130.133 L 1224.712 126.870 L 1223.378 121.784 L 1223.378 116.041 L 1224.712 110.955 L 1227.076 107.692 L 1229.927 107.000 L 1232.612 109.037 L 1234.516 113.336 L 1235.203 118.913 Z" />
</g>
<g id="part-35">
<path d="M 2297.630 135.000 L 2325.630 135.000 L 2325.630 147.000 L 2297.630 147.000 L 2297.630 135.000 Z" />
</g>
<g id="part-36">
<path d="M 2171.855 107.000 L 2192.855 107.000 L 2192.855 128.000 L 2171.855 128.000 L 2171.855 107.000 Z" />
</g>
<g id="part-37">
<path d="M 552.000 155.000 L 566.000 155.000 L 566.000 163.000 L 552.000 163.000 L 552.000 155.000 Z" />
</g>
<g id="part-38">
<path d="M 301.000 135.000 L 332.000 135.000 L 332.000 152.000 L 301.000 152.000 L 301.000 135.000 Z" />
</g>
<g id="part-39">
<path d="M 3068.596 70.000 L 3092.596 70.000 L 3092.596 96.000 L 3068.596 96.000 L 3068.596 70.000 Z" />
</g>
<g id="part-40">
<path d="M 2888.596 70.000 L 2919.596 70.000 L 2919.596 97.000 L 2888.596 97.000 L 2888.596 70.000 Z" />
<path d="M 2898.516 78.640 L 2898.516 88.360 L 2909.676 88.360 L 2909.676 78.640 L 2898.516 78.640 Z" fill="#f7f7f2" fill-opacity="1" stroke="#163b5c" />
</g>
<g id="part-41">
<path d="M 478.000 12.000 L 502.000 12.000 L 502.000 62.000 L 478.000 62.000 L 478.000 12.000 Z" />
<path d="M 486.160 21.000 L 486.160 32.000 L 496.720 32.000 L 496.720 21.000 L 486.160 21.000 Z" fill="#f7f7f2" fill-opacity="1" stroke="#163b5c" />
<path d="M 486.160 42.000 L 486.160 53.000 L 496.720 53.000 L 496.720 42.000 L 486.160 42.000 Z" fill="#f7f7f2" fill-opacity="1" stroke="#163b5c" />
</g>
<g id="part-42">
<path d="M 2328.000 70.000 L 2370.000 70.000 L 2370.000 76.160 L 2342.280 76.160 L 2342.280 91.840 L 2370.000 91.840 L 2370.000 98.000 L 2328.000 98.000 L 2328.000 70.000 Z" />
</g>
<g id="part-43">
<path d="M 42.000 135.000 L 62.000 139.000 L 56.400 153.000 L 45.000 149.760 L 42.000 135.000 Z" />
</g>
<g id="part-44">
<path d="M 2610.339 83.923 L 2609.820 89.618 L 2608.354 94.327 L 2606.193 97.238 L 2603.712 97.847 L 2601.339 96.048 L 2599.485 92.152 L 2598.470 86.834 L 2598.470 81.013 L 2599.485 75.694 L 2601.339 71.799 L 2603.712 70.000 L 2606.193 70.609 L 2608.354 73.519 L 2609.820 78.229 L 2610.339 83.923 Z" />
</g>
<g id="part-45">
<path d="M 1654.630 135.000 L 1684.630 135.000 L 1684.630 149.000 L 1654.630 149.000 L 1654.630 135.000 Z" />
</g>
<g id="part-46">
<path d="M 1404.855 107.000 L 1427.855 107.000 L 1427.855 130.000 L 1404.855 130.000 L 1404.855 107.000 Z" />
</g>
<g id="part-47">
<path d="M 2867.334 135.000 L 2883.334 135.000 L 2883.334 145.000 L 2867.334 145.000 L 2867.334 135.000 Z" />
</g>
<g id="part-48">
<path d="M 3072.886 107.000 L 3105.886 107.000 L 3105.886 126.000 L 3072.886 126.000 L 3072.886 107.000 Z" />
</g>
<g id="part-49">
<path d="M 2256.000 70.000 L 2282.000 70.000 L 2282.000 98.000 L 2256.000 98.000 L 2256.000 70.000 Z" />
</g>
<g id="part-50">
<path d="M 875.000 70.000 L 908.000 70.000 L 908.000 99.000 L 875.000 99.000 L 875.000 70.000 Z" />
<path d="M 885.560 79.280 L 885.560 89.720 L 897.440 89.720 L 897.440 79.280 L 885.560 79.280 Z" fill="#f7f7f2" fill-opacity="1" stroke="#163b5c" />
</g>
<g id="part-51">
<path d="M 320.000 12.000 L 344.000 12.000 L 344.000 64.000 L 320.000 64.000 L 320.000 12.000 Z" />
<path d="M 328.160 21.360 L 328.160 32.800 L 338.720 32.800 L 338.720 21.360 L 328.160 21.360 Z" fill="#f7f7f2" fill-opacity="1" stroke="#163b5c" />
<path d="M 328.160 43.200 L 328.160 54.640 L 338.720 54.640 L 338.720 43.200 L 328.160 43.200 Z" fill="#f7f7f2" fill-opacity="1" stroke="#163b5c" />
</g>
<g id="part-52">
<path d="M 2084.000 70.000 L 2128.000 70.000 L 2128.000 76.160 L 2098.960 76.160 L 2098.960 91.840 L 2128.000 91.840 L 2128.000 98.000 L 2084.000 98.000 L 2084.000 70.000 Z" />
</g>
<g id="part-53">
<path d="M 2332.855 107.000 L 2354.855 111.000 L 2348.695 127.000 L 2335.855 123.400 L 2332.855 107.000 Z" />
</g>
<g id="part-54">
<path d="M 2596.470 83.923 L 2595.779 89.618 L 2593.823 94.327 L 2590.942 97.238 L 2587.634 97.847 L 2584.470 96.048 L 2581.998 92.152 L 2580.645 86.834 L 2580.645 81.013 L 2581.998 75.694 L 2584.470 71.799 L 2587.634 70.000 L 2590.942 70.609 L 2593.823 73.519 L 2595.779 78.229 L 2596.470 83.923 Z" />
</g>
<g id="part-55">
<path d="M 828.000 135.000 L 860.000 135.000 L 860.000 151.000 L 828.000 151.000 L 828.000 135.000 Z" />
</g>
<g id="part-56">
<path d="M 360.000 107.000 L 385.000 107.000 L 385.000 132.000 L 360.000 132.000 L 360.000 107.000 Z" />
</g>
<g id="part-57">
<path d="M 2359.630 135.000 L 2377.630 135.000 L 2377.630 147.000 L 2359.630 147.000 L 2359.630 135.000 Z" />
</g>
<g id="part-58">
<path d="M 2228.855 107.000 L 2239.855 107.000 L 2239.855 128.000 L 2228.855 128.000 L 2228.855 107.000 Z" />
</g>
<g id="part-59">
<path d="M 266.000 155.000 L 294.000 155.000 L 294.000 163.000 L 266.000 163.000 L 266.000 155.000 Z" />
</g>
<g id="part-60">
<path d="M 674.000 70.000 L 709.000 70.000 L 709.000 101.000 L 674.000 101.000 L 674.000 70.000 Z" />
<path d="M 685.200 79.920 L 685.200 91.080 L 697.800 91.080 L 697.800 79.920 L 685.200 79.920 Z" fill="#f7f7f2" fill-opacity="1" stroke="#163b5c" />
</g>
<g id="part-61">
<path d="M 122.000 12.000 L 148.000 12.000 L 148.000 66.000 L 122.000 66.000 L 122.000 12.000 Z" />
<path d="M 130.840 21.720 L 130.840 33.600 L 142.280 33.600 L 142.280 21.720 L 130.840 21.720 Z" fill="#f7f7f2" fill-opacity="1" stroke="#163b5c" />
<path d="M 130.840 44.400 L 130.840 56.280 L 142.280 56.280 L 142.280 44.400 L 130.840 44.400 Z" fill="#f7f7f2" fill-opacity="1" stroke="#163b5c" />
</g>
<g id="part-62">
<path d="M 1916.000 70.000 L 1962.000 70.000 L 1962.000 76.160 L 1931.640 76.160 L 1931.640 91.840 L 1962.000 91.840 L 1962.000 98.000 L 1916.000 98.000 L 1916.000 70.000 Z" />
</g>
<g id="part-63">
<path d="M 1880.855 107.000 L 1904.855 111.000 L 1898.135 129.000 L 1883.855 125.040 L 1880.855 107.000 Z" />
</g>
<g id="part-64">
<path d="M 717.352 158.959 L 716.082 161.122 L 712.675 162.598 L 708.213 162.919 L 704.113 161.982 L 701.676 160.086 L 701.676 157.832 L 704.113 155.936 L 708.213 155.000 L 712.675 155.321 L 716.082 156.797 L 717.352 158.959 Z" />
</g>
<g id="part-65">
<path d="M 64.000 135.000 L 74.000 135.000 L 74.000 153.000 L 64.000 153.000 L 64.000 135.000 Z" />
</g>
<g id="part-66">
<path d="M 2921.596 70.000 L 2948.596 70.000 L 2948.596 97.000 L 2921.596 97.000 L 2921.596 70.000 Z" />
</g>
<g id="part-67">
<path d="M 1360.630 135.000 L 1380.630 135.000 L 1380.630 149.000 L 1360.630 149.000 L 1360.630 135.000 Z" />
</g>
<g id="part-68">
<path d="M 1344.855 107.000 L 1357.855 107.000 L 1357.855 130.000 L 1344.855 130.000 L 1344.855 107.000 Z" />
</g>
<g id="part-69">
<path d="M 2999.334 135.000 L 3029.334 135.000 L 3029.334 145.000 L 2999.334 145.000 L 2999.334 135.000 Z" />
</g>
<g id="part-70">
<path d="M 389.000 70.000 L 426.000 70.000 L 426.000 103.000 L 389.000 103.000 L 389.000 70.000 Z" />
<path d="M 400.840 80.560 L 400.840 92.440 L 414.160 92.440 L 414.160 80.560 L 400.840 80.560 Z" fill="#f7f7f2" fill-opacity="1" stroke="#163b5c" />
</g>
<g id="part-71">
<path d="M 92.000 12.000 L 120.000 12.000 L 120.000 68.000 L 92.000 68.000 L 92.000 12.000 Z" />
<path d="M 101.520 22.080 L 101.520 34.400 L 113.840 34.400 L 113.840 22.080 L 101.520 22.080 Z" fill="#f7f7f2" fill-opacity="1" stroke="#163b5c" />
<path d="M 101.520 45.600 L 101.520 57.920 L 113.840 57.920 L 113.840 45.600 L 101.520 45.600 Z" fill="#f7f7f2" fill-opacity="1" stroke="#163b5c" />
</g>
<g id="part-72">
<path d="M 1287.000 70.000 L 1335.000 70.000 L 1335.000 76.380 L 1303.320 76.380 L 1303.320 92.620 L 1335.000 92.620 L 1335.000 99.000 L 1287.000 99.000 L 1287.000 70.000 Z" />
</g>
<g id="part-73">
<path d="M 732.000 107.000 L 758.000 111.000 L 750.720 131.000 L 735.000 126.680 L 732.000 107.000 Z" />
</g>
<g id="part-74">
<path d="M 2013.630 141.000 L 2012.290 144.000 L 2008.630 146.196 L 2003.630 147.000 L 1998.630 146.196 L 1994.970 144.000 L 1993.630 141.000 L 1994.970 138.000 L 1998.630 135.804 L 2003.630 135.000 L 2008.630 135.804 L 2012.290 138.000 L 2013.630 141.000 Z" />
</g>
<g id="part-75">
<path d="M 2642.855 107.000 L 2654.855 107.000 L 2654.855 127.000 L 2642.855 127.000 L 2642.855 107.000 Z" />
</g>
<g id="part-76">
<path d="M 1352.000 70.000 L 1381.000 70.000 L 1381.000 99.000 L 1352.000 99.000 L 1352.000 70.000 Z" />
</g>
<g id="part-77">
<path d="M 876.000 135.000 L 898.000 135.000 L 898.000 151.000 L 876.000 151.000 L 876.000 135.000 Z" />
</g>
<g id="part-78">
<path d="M 283.000 107.000 L 298.000 107.000 L 298.000 132.000 L 283.000 132.000 L 283.000 107.000 Z" />
</g>
<g id="part-79">
<path d="M 2015.630 135.000 L 2047.630 135.000 L 2047.630 147.000 L 2015.630 147.000 L 2015.630 135.000 Z" />
</g>
<g id="part-80">
<path d="M 194.000 70.000 L 233.000 70.000 L 233.000 105.000 L 194.000 105.000 L 194.000 70.000 Z" />
<path d="M 206.480 81.200 L 206.480 93.800 L 220.520 93.800 L 220.520 81.200 L 206.480 81.200 Z" fill="#f7f7f2" fill-opacity="1" stroke="#163b5c" />
</g>
<g id="part-81">
<path d="M 1947.000 12.000 L 1977.000 12.000 L 1977.000 54.000 L 1947.000 54.000 L 1947.000 12.000 Z" />
<path d="M 1957.200 19.560 L 1957.200 28.800 L 1970.400 28.800 L 1970.400 19.560 L 1957.200 19.560 Z" fill="#f7f7f2" fill-opacity="1" stroke="#163b5c" />
<path d="M 1957.200 37.200 L 1957.200 46.440 L 1970.400 46.440 L 1970.400 37.200 L 1957.200 37.200 Z" fill="#f7f7f2" fill-opacity="1" stroke="#163b5c" />
</g>
<g id="part-82">
<path d="M 567.000 70.000 L 593.000 70.000 L 593.000 76.820 L 575.840 76.820 L 575.840 94.180 L 593.000 94.180 L 593.000 101.000 L 567.000 101.000 L 567.000 70.000 Z" />
</g>
<g id="part-83">
<path d="M 58.000 107.000 L 86.000 111.000 L 78.160 133.000 L 61.000 128.320 L 58.000 107.000 Z" />
</g>
<g id="part-84">
<path d="M 2097.630 141.000 L 2096.290 144.000 L 2092.630 146.196 L 2087.630 147.000 L 2082.630 146.196 L 2078.970 144.000 L 2077.630 141.000 L 2078.970 138.000 L 2082.630 135.804 L 2087.630 135.000 L 2092.630 135.804 L 2096.290 138.000 L 2097.630 141.000 Z" />
</g>
<g id="part-85">
<path d="M 1812.855 107.000 L 1826.855 107.000 L 1826.855 129.000 L 1812.855 129.000 L 1812.855 107.000 Z" />
</g>
<g id="part-86">
<path d="M 179.000 155.000 L 210.000 155.000 L 210.000 164.000 L 179.000 164.000 L 179.000 155.000 Z" />
</g>
<g id="part-87">
<path d="M 3173.886 107.000 L 3197.886 107.000 L 3197.886 125.000 L 3173.886 125.000 L 3173.886 107.000 Z" />
</g>
<g id="part-88">
<path d="M 2763.596 70.000 L 2780.596 70.000 L 2780.596 97.000 L 2763.596 97.000 L 2763.596 70.000 Z" />
</g>
<g id="part-89">
<path d="M 1686.630 135.000 L 1696.630 135.000 L 1696.630 149.000 L 1686.630 149.000 L 1686.630 135.000 Z" />
</g>
<g id="part-90">
<path d="M 3136.000 12.000 L 3177.000 12.000 L 3177.000 49.000 L 3136.000 49.000 L 3136.000 12.000 Z" />
<path d="M 3149.120 23.840 L 3149.120 37.160 L 3163.880 37.160 L 3163.880 23.840 L 3149.120 23.840 Z" fill="#f7f7f2" fill-opacity="1" stroke="#163b5c" />
</g>
<g id="part-91">
<path d="M 2085.000 12.000 L 2117.000 12.000 L 2117.000 54.000 L 2085.000 54.000 L 2085.000 12.000 Z" />
<path d="M 2095.880 19.560 L 2095.880 28.800 L 2109.960 28.800 L 2109.960 19.560 L 2095.880 19.560 Z" fill="#f7f7f2" fill-opacity="1" stroke="#163b5c" />
<path d="M 2095.880 37.200 L 2095.880 46.440 L 2109.960 46.440 L 2109.960 37.200 L 2095.880 37.200 Z" fill="#f7f7f2" fill-opacity="1" stroke="#163b5c" />
</g>
<g id="part-92">
<path d="M 428.000 70.000 L 456.000 70.000 L 456.000 77.260 L 437.520 77.260 L 437.520 95.740 L 456.000 95.740 L 456.000 103.000 L 428.000 103.000 L 428.000 70.000 Z" />
</g>
<g id="part-93">
<path d="M 1456.000 70.000 L 1486.000 74.000 L 1477.600 98.000 L 1459.000 92.960 L 1456.000 70.000 Z" />
</g>
<g id="part-94">
<path d="M 1033.303 142.942 L 1031.928 146.659 L 1028.119 149.526 L 1022.749 150.883 L 1017.047 150.422 L 1012.320 148.247 L 1009.651 144.856 L 1009.651 141.027 L 1012.320 137.637 L 1017.047 135.462 L 1022.749 135.000 L 1028.119 136.358 L 1031.928 139.224 L 1033.303 142.942 Z" />
</g>
<g id="part-95">
<path d="M 840.000 107.000 L 856.000 107.000 L 856.000 131.000 L 840.000 131.000 L 840.000 107.000 Z" />
</g>
<g id="part-96">
<path d="M 2628.334 135.000 L 2661.334 135.000 L 2661.334 146.000 L 2628.334 146.000 L 2628.334 135.000 Z" />
</g>
<g id="part-97">
<path d="M 2614.855 107.000 L 2640.855 107.000 L 2640.855 127.000 L 2614.855 127.000 L 2614.855 107.000 Z" />
</g>
<g id="part-98">
<path d="M 1249.000 70.000 L 1268.000 70.000 L 1268.000 99.000 L 1249.000 99.000 L 1249.000 70.000 Z" />
</g>
<g id="part-99">
<path d="M 786.000 135.000 L 798.000 135.000 L 798.000 151.000 L 786.000 151.000 L 786.000 135.000 Z" />
</g>
<g id="part-100">
<path d="M 2817.000 12.000 L 2860.000 12.000 L 2860.000 51.000 L 2817.000 51.000 L 2817.000 12.000 Z" />
<path d="M 2830.760 24.480 L 2830.760 38.520 L 2846.240 38.520 L 2846.240 24.480 L 2830.760 24.480 Z" fill="#f7f7f2" fill-opacity="1" stroke="#163b5c" />
</g>
<g id="part-101">
<path d="M 1845.000 12.000 L 1879.000 12.000 L 1879.000 54.000 L 1845.000 54.000 L 1845.000 12.000 Z" />
<path d="M 1856.560 19.560 L 1856.560 28.800 L 1871.520 28.800 L 1871.520 19.560 L 1856.560 19.560 Z" fill="#f7f7f2" fill-opacity="1" stroke="#163b5c" />
<path d="M 1856.560 37.200 L 1856.560 46.440 L 1871.520 46.440 L 1871.520 37.200 L 1856.560 37.200 Z" fill="#f7f7f2" fill-opacity="1" stroke="#163b5c" />
</g>
<g id="part-102">
<path d="M 235.000 70.000 L 265.000 70.000 L 265.000 77.700 L 245.200 77.700 L 245.200 97.300 L 265.000 97.300 L 265.000 105.000 L 235.000 105.000 L 235.000 70.000 Z" />
</g>
<g id="part-103">
<path d="M 474.000 155.000 L 506.000 159.000 L 497.040 163.000 L 477.000 161.560 L 474.000 155.000 Z" />
</g>
<g id="part-104">
<path d="M 1007.651 142.942 L 1006.277 146.659 L 1002.468 149.526 L 997.098 150.883 L 991.396 150.422 L 986.669 148.247 L 984.000 144.856 L 984.000 141.027 L 986.669 137.637 L 991.396 135.462 L 997.098 135.000 L 1002.468 136.358 L 1006.277 139.224 L 1007.651 142.942 Z" />
</g>
<g id="part-105">
<path d="M 3094.596 70.000 L 3112.596 70.000 L 3112.596 96.000 L 3094.596 96.000 L 3094.596 70.000 Z" />
</g>
<g id="part-106">
<path d="M 1908.630 135.000 L 1919.630 135.000 L 1919.630 148.000 L 1908.630 148.000 L 1908.630 135.000 Z" />
</g>
<g id="part-107">
<path d="M 1850.855 107.000 L 1878.855 107.000 L 1878.855 129.000 L 1850.855 129.000 L 1850.855 107.000 Z" />
</g>
<g id="part-108">
<path d="M 110.000 155.000 L 131.000 155.000 L 131.000 164.000 L 110.000 164.000 L 110.000 155.000 Z" />
</g>
<g id="part-109">
<path d="M 92.000 135.000 L 106.000 135.000 L 106.000 153.000 L 92.000 153.000 L 92.000 135.000 Z" />
</g>
<g id="part-110">
<path d="M 2384.000 12.000 L 2429.000 12.000 L 2429.000 53.000 L 2384.000 53.000 L 2384.000 12.000 Z" />
<path d="M 2398.400 25.120 L 2398.400 39.880 L 2414.600 39.880 L 2414.600 25.120 L 2398.400 25.120 Z" fill="#f7f7f2" fill-opacity="1" stroke="#163b5c" />
</g>
<g id="part-111">
<path d="M 1979.000 12.000 L 2015.000 12.000 L 2015.000 54.000 L 1979.000 54.000 L 1979.000 12.000 Z" />
<path d="M 1991.240 19.560 L 1991.240 28.800 L 2007.080 28.800 L 2007.080 19.560 L 1991.240 19.560 Z" fill="#f7f7f2" fill-opacity="1" stroke="#163b5c" />
<path d="M 1991.240 37.200 L 1991.240 46.440 L 2007.080 46.440 L 2007.080 37.200 L 1991.240 37.200 Z" fill="#f7f7f2" fill-opacity="1" stroke="#163b5c" />
</g>
<g id="part-112">
<path d="M 3034.000 12.000 L 3066.000 12.000 L 3066.000 20.140 L 3044.880 20.140 L 3044.880 40.860 L 3066.000 40.860 L 3066.000 49.000 L 3034.000 49.000 L 3034.000 12.000 Z" />
</g>
<g id="part-113">
<path d="M 2987.334 135.000 L 2997.334 139.000 L 2994.534 145.000 L 2990.334 143.200 L 2987.334 135.000 Z" />
</g>
<g id="part-114">
<path d="M 2684.549 116.945 L 2683.338 121.013 L 2679.917 124.377 L 2674.875 126.456 L 2669.085 126.890 L 2663.549 125.605 L 2659.222 122.823 L 2656.855 119.024 L 2656.855 114.866 L 2659.222 111.067 L 2663.549 108.285 L 2669.085 107.000 L 2674.875 107.435 L 2679.917 109.514 L 2683.338 112.878 L 2684.549 116.945 Z" />
</g>
<g id="part-115">
<path d="M 1656.000 70.000 L 1676.000 70.000 L 1676.000 98.000 L 1656.000 98.000 L 1656.000 70.000 Z" />
</g>
<g id="part-116">
<path d="M 1155.630 135.000 L 1168.630 135.000 L 1168.630 150.000 L 1155.630 150.000 L 1155.630 135.000 Z" />
</g>
<g id="part-117">
<path d="M 782.000 107.000 L 812.000 107.000 L 812.000 131.000 L 782.000 131.000 L 782.000 107.000 Z" />
</g>
<g id="part-118">
<path d="M 2603.334 135.000 L 2626.334 135.000 L 2626.334 146.000 L 2603.334 146.000 L 2603.334 135.000 Z" />
</g>
<g id="part-119">
<path d="M 2356.855 107.000 L 2372.855 107.000 L 2372.855 127.000 L 2356.855 127.000 L 2356.855 107.000 Z" />
</g>
<g id="part-120">
<path d="M 1411.000 12.000 L 1458.000 12.000 L 1458.000 55.000 L 1411.000 55.000 L 1411.000 12.000 Z" />
<path d="M 1426.040 25.760 L 1426.040 41.240 L 1442.960 41.240 L 1442.960 25.760 L 1426.040 25.760 Z" fill="#f7f7f2" fill-opacity="1" stroke="#163b5c" />
</g>
<g id="part-121">
<path d="M 1082.000 12.000 L 1120.000 12.000 L 1120.000 56.000 L 1082.000 56.000 L 1082.000 12.000 Z" />
<path d="M 1094.920 19.920 L 1094.920 29.600 L 1111.640 29.600 L 1111.640 19.920 L 1094.920 19.920 Z" fill="#f7f7f2" fill-opacity="1" stroke="#163b5c" />
<path d="M 1094.920 38.400 L 1094.920 48.080 L 1111.640 48.080 L 1111.640 38.400 L 1094.920 38.400 Z" fill="#f7f7f2" fill-opacity="1" stroke="#163b5c" />
</g>
<g id="part-122">
<path d="M 2665.000 12.000 L 2699.000 12.000 L 2699.000 20.580 L 2676.560 20.580 L 2676.560 42.420 L 2699.000 42.420 L 2699.000 51.000 L 2665.000 51.000 L 2665.000 12.000 Z" />
</g>
<g id="part-123">
<path d="M 2267.630 135.000 L 2279.630 139.000 L 2276.270 147.000 L 2270.630 144.840 L 2267.630 135.000 Z" />
</g>
<g id="part-124">
<path d="M 2714.243 116.945 L 2713.032 121.013 L 2709.611 124.377 L 2704.569 126.456 L 2698.779 126.890 L 2693.243 125.605 L 2688.917 122.823 L 2686.549 119.024 L 2686.549 114.866 L 2688.917 111.067 L 2693.243 108.285 L 2698.779 107.000 L 2704.569 107.435 L 2709.611 109.514 L 2713.032 112.878 L 2714.243 116.945 Z" />
</g>
<g id="part-125">
<path d="M 450.000 155.000 L 472.000 155.000 L 472.000 163.000 L 450.000 163.000 L 450.000 155.000 Z" />
</g>
<g id="part-126">
<path d="M 444.000 135.000 L 459.000 135.000 L 459.000 152.000 L 444.000 152.000 L 444.000 135.000 Z" />
</g>
<g id="part-127">
<path d="M 88.000 107.000 L 120.000 107.000 L 120.000 133.000 L 88.000 133.000 L 88.000 107.000 Z" />
</g>
<g id="part-128">
<path d="M 1802.630 135.000 L 1827.630 135.000 L 1827.630 148.000 L 1802.630 148.000 L 1802.630 135.000 Z" />
</g>
<g id="part-129">
<path d="M 1700.855 107.000 L 1718.855 107.000 L 1718.855 129.000 L 1700.855 129.000 L 1700.855 107.000 Z" />
</g>
<g id="part-130">
<path d="M 1469.855 107.000 L 1494.855 107.000 L 1494.855 130.000 L 1469.855 130.000 L 1469.855 107.000 Z" />
<path d="M 1477.855 114.360 L 1477.855 122.640 L 1486.855 122.640 L 1486.855 114.360 L 1477.855 114.360 Z" fill="#f7f7f2" fill-opacity="1" stroke="#163b5c" />
</g>
<g id="part-131">
<path d="M 920.000 12.000 L 960.000 12.000 L 960.000 58.000 L 920.000 58.000 L 920.000 12.000 Z" />
<path d="M 933.600 20.280 L 933.600 30.400 L 951.200 30.400 L 951.200 20.280 L 933.600 20.280 Z" fill="#f7f7f2" fill-opacity="1" stroke="#163b5c" />
<path d="M 933.600 39.600 L 933.600 49.720 L 951.200 49.720 L 951.200 39.600 L 933.600 39.600 Z" fill="#f7f7f2" fill-opacity="1" stroke="#163b5c" />
</g>
<g id="part-132">
<path d="M 2514.000 12.000 L 2550.000 12.000 L 2550.000 21.020 L 2526.240 21.020 L 2526.240 43.980 L 2550.000 43.980 L 2550.000 53.000 L 2514.000 53.000 L 2514.000 12.000 Z" />
</g>
<g id="part-133">
<path d="M 1638.630 135.000 L 1652.630 139.000 L 1648.710 149.000 L 1641.630 146.480 L 1638.630 135.000 Z" />
</g>
<g id="part-134">
<path d="M 1090.733 118.934 L 1089.349 123.815 L 1085.439 127.852 L 1079.677 130.347 L 1073.060 130.869 L 1066.733 129.327 L 1061.788 125.988 L 1059.082 121.429 L 1059.082 116.439 L 1061.788 111.881 L 1066.733 108.542 L 1073.060 107.000 L 1079.677 107.522 L 1085.439 110.017 L 1089.349 114.053 L 1090.733 118.934 Z" />
</g>
<g id="part-135">
<path d="M 2947.334 135.000 L 2971.334 135.000 L 2971.334 145.000 L 2947.334 145.000 L 2947.334 135.000 Z" />
</g>
<g id="part-136">
<path d="M 2932.886 107.000 L 2949.886 107.000 L 2949.886 126.000 L 2932.886 126.000 L 2932.886 107.000 Z" />
</g>
<g id="part-137">
<path d="M 1964.000 70.000 L 1974.000 70.000 L 1974.000 98.000 L 1964.000 98.000 L 1964.000 70.000 Z" />
</g>
<g id="part-138">
<path d="M 1126.630 135.000 L 1153.630 135.000 L 1153.630 150.000 L 1126.630 150.000 L 1126.630 135.000 Z" />
</g>
<g id="part-139">
<path d="M 760.000 107.000 L 780.000 107.000 L 780.000 131.000 L 760.000 131.000 L 760.000 107.000 Z" />
</g>
<g id="part-140">
<path d="M 300.000 107.000 L 327.000 107.000 L 327.000 132.000 L 300.000 132.000 L 300.000 107.000 Z" />
<path d="M 308.640 115.000 L 308.640 124.000 L 318.360 124.000 L 318.360 115.000 L 308.640 115.000 Z" fill="#f7f7f2" fill-opacity="1" stroke="#163b5c" />
</g>
<g id="part-141">
<path d="M 714.000 12.000 L 756.000 12.000 L 756.000 60.000 L 714.000 60.000 L 714.000 12.000 Z" />
<path d="M 728.280 20.640 L 728.280 31.200 L 746.760 31.200 L 746.760 20.640 L 728.280 20.640 Z" fill="#f7f7f2" fill-opacity="1" stroke="#163b5c" />
<path d="M 728.280 40.800 L 728.280 51.360 L 746.760 51.360 L 746.760 40.800 L 728.280 40.800 Z" fill="#f7f7f2" fill-opacity="1" stroke="#163b5c" />
</g>
<g id="part-142">
<path d="M 1230.000 12.000 L 1268.000 12.000 L 1268.000 21.460 L 1242.920 21.460 L 1242.920 45.540 L 1268.000 45.540 L 1268.000 55.000 L 1230.000 55.000 L 1230.000 12.000 Z" />
</g>
<g id="part-143">
<path d="M 966.000 135.000 L 982.000 139.000 L 977.520 151.000 L 969.000 148.120 L 966.000 135.000 Z" />
</g>
<g id="part-144">
<path d="M 1191.684 118.934 L 1190.300 123.815 L 1186.390 127.852 L 1180.628 130.347 L 1174.011 130.869 L 1167.684 129.327 L 1162.739 125.988 L 1160.033 121.429 L 1160.033 116.439 L 1162.739 111.881 L 1167.684 108.542 L 1174.011 107.000 L 1180.628 107.522 L 1186.390 110.017 L 1190.300 114.053 L 1191.684 118.934 Z" />
</g>
<g id="part-145">
<path d="M 2049.630 135.000 L 2075.630 135.000 L 2075.630 147.000 L 2049.630 147.000 L 2049.630 135.000 Z" />
</g>
<g id="part-146">
<path d="M 2241.855 107.000 L 2260.855 107.000 L 2260.855 128.000 L 2241.855 128.000 L 2241.855 107.000 Z" />
</g>
<g id="part-147">
<path d="M 538.000 155.000 L 550.000 155.000 L 550.000 163.000 L 538.000 163.000 L 538.000 155.000 Z" />
</g>
<g id="part-148">
<path d="M 413.000 135.000 L 442.000 135.000 L 442.000 152.000 L 413.000 152.000 L 413.000 135.000 Z" />
</g>
<g id="part-149">
<path d="M 3044.596 70.000 L 3066.596 70.000 L 3066.596 96.000 L 3044.596 96.000 L 3044.596 70.000 Z" />
</g>
<g id="part-150">
<path d="M 2807.596 70.000 L 2836.596 70.000 L 2836.596 97.000 L 2807.596 97.000 L 2807.596 70.000 Z" />
<path d="M 2816.876 78.640 L 2816.876 88.360 L 2827.316 88.360 L 2827.316 78.640 L 2816.876 78.640 Z" fill="#f7f7f2" fill-opacity="1" stroke="#163b5c" />
</g>
<g id="part-151">
<path d="M 432.000 12.000 L 476.000 12.000 L 476.000 62.000 L 432.000 62.000 L 432.000 12.000 Z" />
<path d="M 446.960 21.000 L 446.960 32.000 L 466.320 32.000 L 466.320 21.000 L 446.960 21.000 Z" fill="#f7f7f2" fill-opacity="1" stroke="#163b5c" />
<path d="M 446.960 42.000 L 446.960 53.000 L 466.320 53.000 L 466.320 42.000 L 446.960 42.000 Z" fill="#f7f7f2" fill-opacity="1" stroke="#163b5c" />
</g>
<g id="part-152">
<path d="M 1808.000 70.000 L 1848.000 70.000 L 1848.000 76.160 L 1821.600 76.160 L 1821.600 91.840 L 1848.000 91.840 L 1848.000 98.000 L 1808.000 98.000 L 1808.000 70.000 Z" />
</g>
<g id="part-153">
<path d="M 3199.886 107.000 L 3217.886 111.000 L 3212.846 125.000 L 3202.886 121.760 L 3199.886 107.000 Z" />
</g>
<g id="part-154">
<path d="M 2638.077 83.923 L 2637.558 89.618 L 2636.092 94.327 L 2633.931 97.238 L 2631.450 97.847 L 2629.077 96.048 L 2627.223 92.152 L 2626.208 86.834 L 2626.208 81.013 L 2627.223 75.694 L 2629.077 71.799 L 2631.450 70.000 L 2633.931 70.609 L 2636.092 73.519 L 2637.558 78.229 L 2638.077 83.923 Z" />
</g>
<g id="part-155">
<path d="M 1432.630 135.000 L 1460.630 135.000 L 1460.630 149.000 L 1432.630 149.000 L 1432.630 135.000 Z" />
</g>
<g id="part-156">
<path d="M 1496.855 107.000 L 1517.855 107.000 L 1517.855 130.000 L 1496.855 130.000 L 1496.855 107.000 Z" />
</g>
<g id="part-157">
<path d="M 3085.334 135.000 L 3099.334 135.000 L 3099.334 145.000 L 3085.334 145.000 L 3085.334 135.000 Z" />
</g>
<g id="part-158">
<path d="M 2979.886 107.000 L 3010.886 107.000 L 3010.886 126.000 L 2979.886 126.000 L 2979.886 107.000 Z" />
</g>
<g id="part-159">
<path d="M 2230.000 70.000 L 2254.000 70.000 L 2254.000 98.000 L 2230.000 98.000 L 2230.000 70.000 Z" />
</g>
<g id="part-160">
<path d="M 1129.000 70.000 L 1160.000 70.000 L 1160.000 99.000 L 1129.000 99.000 L 1129.000 70.000 Z" />
<path d="M 1138.920 79.280 L 1138.920 89.720 L 1150.080 89.720 L 1150.080 79.280 L 1138.920 79.280 Z" fill="#f7f7f2" fill-opacity="1" stroke="#163b5c" />
</g>
<g id="part-161">
<path d="M 294.000 12.000 L 318.000 12.000 L 318.000 64.000 L 294.000 64.000 L 294.000 12.000 Z" />
<path d="M 302.160 21.360 L 302.160 32.800 L 312.720 32.800 L 312.720 21.360 L 302.160 21.360 Z" fill="#f7f7f2" fill-opacity="1" stroke="#163b5c" />
<path d="M 302.160 43.200 L 302.160 54.640 L 312.720 54.640 L 312.720 43.200 L 302.160 43.200 Z" fill="#f7f7f2" fill-opacity="1" stroke="#163b5c" />
</g>
<g id="part-162">
<path d="M 2284.000 70.000 L 2326.000 70.000 L 2326.000 76.160 L 2298.280 76.160 L 2298.280 91.840 L 2326.000 91.840 L 2326.000 98.000 L 2284.000 98.000 L 2284.000 70.000 Z" />
</g>
<g id="part-163">
<path d="M 2566.855 107.000 L 2586.855 111.000 L 2581.255 127.000 L 2569.855 123.400 L 2566.855 107.000 Z" />
</g>
<g id="part-164">
<path d="M 2685.596 83.923 L 2685.078 89.618 L 2683.611 94.327 L 2681.450 97.238 L 2678.969 97.847 L 2676.596 96.048 L 2674.742 92.152 L 2673.727 86.834 L 2673.727 81.013 L 2674.742 75.694 L 2676.596 71.799 L 2678.969 70.000 L 2681.450 70.609 L 2683.611 73.519 L 2685.078 78.229 L 2685.596 83.923 Z" />
</g>
<g id="part-165">
<path d="M 490.000 135.000 L 520.000 135.000 L 520.000 151.000 L 490.000 151.000 L 490.000 135.000 Z" />
</g>
<g id="part-166">
<path d="M 387.000 107.000 L 410.000 107.000 L 410.000 132.000 L 387.000 132.000 L 387.000 107.000 Z" />
</g>
<g id="part-167">
<path d="M 2195.630 135.000 L 2211.630 135.000 L 2211.630 147.000 L 2195.630 147.000 L 2195.630 135.000 Z" />
</g>
<g id="part-168">
<path d="M 2105.855 107.000 L 2138.855 107.000 L 2138.855 128.000 L 2105.855 128.000 L 2105.855 107.000 Z" />
</g>
<g id="part-169">
<path d="M 314.000 155.000 L 340.000 155.000 L 340.000 163.000 L 314.000 163.000 L 314.000 155.000 Z" />
</g>
<g id="part-170">
<path d="M 790.000 70.000 L 823.000 70.000 L 823.000 101.000 L 790.000 101.000 L 790.000 70.000 Z" />
<path d="M 800.560 79.920 L 800.560 91.080 L 812.440 91.080 L 812.440 79.920 L 800.560 79.920 Z" fill="#f7f7f2" fill-opacity="1" stroke="#163b5c" />
</g>
<g id="part-171">
<path d="M 196.000 12.000 L 220.000 12.000 L 220.000 66.000 L 196.000 66.000 L 196.000 12.000 Z" />
<path d="M 204.160 21.720 L 204.160 33.600 L 214.720 33.600 L 214.720 21.720 L 204.160 21.720 Z" fill="#f7f7f2" fill-opacity="1" stroke="#163b5c" />
<path d="M 204.160 44.400 L 204.160 56.280 L 214.720 56.280 L 214.720 44.400 L 204.160 44.400 Z" fill="#f7f7f2" fill-opacity="1" stroke="#163b5c" />
</g>
<g id="part-172">
<path d="M 2372.000 70.000 L 2416.000 70.000 L 2416.000 76.160 L 2386.960 76.160 L 2386.960 91.840 L 2416.000 91.840 L 2416.000 98.000 L 2372.000 98.000 L 2372.000 70.000 Z" />
</g>
<g id="part-173">
<path d="M 1660.855 107.000 L 1682.855 111.000 L 1676.695 129.000 L 1663.855 125.040 L 1660.855 107.000 Z" />
</g>
<g id="part-174">
<path d="M 699.676 158.959 L 698.406 161.122 L 694.999 162.598 L 690.537 162.919 L 686.437 161.982 L 684.000 160.086 L 684.000 157.832 L 686.437 155.936 L 690.537 155.000 L 694.999 155.321 L 698.406 156.797 L 699.676 158.959 Z" />
</g>
<g id="part-175">
<path d="M 180.000 135.000 L 212.000 135.000 L 212.000 153.000 L 180.000 153.000 L 180.000 135.000 Z" />
</g>
<g id="part-176">
<path d="M 2838.596 70.000 L 2863.596 70.000 L 2863.596 97.000 L 2838.596 97.000 L 2838.596 70.000 Z" />
</g>
<g id="part-177">
<path d="M 1724.630 135.000 L 1742.630 135.000 L 1742.630 149.000 L 1724.630 149.000 L 1724.630 135.000 Z" />
</g>
<g id="part-178">
<path d="M 1614.855 107.000 L 1625.855 107.000 L 1625.855 130.000 L 1614.855 130.000 L 1614.855 107.000 Z" />
</g>
<g id="part-179">
<path d="M 3055.334 135.000 L 3083.334 135.000 L 3083.334 145.000 L 3055.334 145.000 L 3055.334 135.000 Z" />
</g>
<g id="part-180">
<path d="M 267.000 70.000 L 302.000 70.000 L 302.000 103.000 L 267.000 103.000 L 267.000 70.000 Z" />
<path d="M 278.200 80.560 L 278.200 92.440 L 290.800 92.440 L 290.800 80.560 L 278.200 80.560 Z" fill="#f7f7f2" fill-opacity="1" stroke="#163b5c" />
</g>
<g id="part-181">
<path d="M 38.000 12.000 L 64.000 12.000 L 64.000 68.000 L 38.000 68.000 L 38.000 12.000 Z" />
<path d="M 46.840 22.080 L 46.840 34.400 L 58.280 34.400 L 58.280 22.080 L 46.840 22.080 Z" fill="#f7f7f2" fill-opacity="1" stroke="#163b5c" />
<path d="M 46.840 45.600 L 46.840 57.920 L 58.280 57.920 L 58.280 45.600 L 46.840 45.600 Z" fill="#f7f7f2" fill-opacity="1" stroke="#163b5c" />
</g>
<g id="part-182">
<path d="M 1012.000 70.000 L 1058.000 70.000 L 1058.000 76.380 L 1027.640 76.380 L 1027.640 92.620 L 1058.000 92.620 L 1058.000 99.000 L 1012.000 99.000 L 1012.000 70.000 Z" />
</g>
<g id="part-183">
<path d="M 858.000 107.000 L 882.000 111.000 L 875.280 131.000 L 861.000 126.680 L 858.000 107.000 Z" />
</g>
<g id="part-184">
<path d="M 2522.982 140.939 L 2521.712 144.183 L 2518.305 146.397 L 2513.843 146.878 L 2509.743 145.473 L 2507.306 142.629 L 2507.306 139.249 L 2509.743 136.404 L 2513.843 135.000 L 2518.305 135.481 L 2521.712 137.695 L 2522.982 140.939 Z" />
</g>
<g id="part-185">
<path d="M 2602.855 107.000 L 2612.855 107.000 L 2612.855 127.000 L 2602.855 127.000 L 2602.855 107.000 Z" />
</g>
<g id="part-186">
<path d="M 937.000 70.000 L 964.000 70.000 L 964.000 99.000 L 937.000 99.000 L 937.000 70.000 Z" />
</g>
<g id="part-187">
<path d="M 900.000 135.000 L 920.000 135.000 L 920.000 151.000 L 900.000 151.000 L 900.000 135.000 Z" />
</g>
<g id="part-188">
<path d="M 412.000 107.000 L 425.000 107.000 L 425.000 132.000 L 412.000 132.000 L 412.000 107.000 Z" />
</g>
<g id="part-189">
<path d="M 2235.630 135.000 L 2265.630 135.000 L 2265.630 147.000 L 2235.630 147.000 L 2235.630 135.000 Z" />
</g>
<g id="part-190">
<path d="M 12.000 70.000 L 49.000 70.000 L 49.000 105.000 L 12.000 105.000 L 12.000 70.000 Z" />
<path d="M 23.840 81.200 L 23.840 93.800 L 37.160 93.800 L 37.160 81.200 L 23.840 81.200 Z" fill="#f7f7f2" fill-opacity="1" stroke="#163b5c" />
</g>
<g id="part-191">
<path d="M 1815.000 12.000 L 1843.000 12.000 L 1843.000 54.000 L 1815.000 54.000 L 1815.000 12.000 Z" />
<path d="M 1824.520 19.560 L 1824.520 28.800 L 1836.840 28.800 L 1836.840 19.560 L 1824.520 19.560 Z" fill="#f7f7f2" fill-opacity="1" stroke="#163b5c" />
<path d="M 1824.520 37.200 L 1824.520 46.440 L 1836.840 46.440 L 1836.840 37.200 L 1824.520 37.200 Z" fill="#f7f7f2" fill-opacity="1" stroke="#163b5c" />
</g>
<g id="part-192">
<path d="M 825.000 70.000 L 873.000 70.000 L 873.000 76.820 L 841.320 76.820 L 841.320 94.180 L 873.000 94.180 L 873.000 101.000 L 825.000 101.000 L 825.000 70.000 Z" />
</g>
<g id="part-193">
<path d="M 3222.596 70.000 L 3248.596 74.000 L 3241.316 96.000 L 3225.596 91.320 L 3222.596 70.000 Z" />
</g>
<g id="part-194">
<path d="M 2411.630 141.000 L 2410.290 144.000 L 2406.630 146.196 L 2401.630 147.000 L 2396.630 146.196 L 2392.970 144.000 L 2391.630 141.000 L 2392.970 138.000 L 2396.630 135.804 L 2401.630 135.000 L 2406.630 135.804 L 2410.290 138.000 L 2411.630 141.000 Z" />
</g>
<g id="part-195">
<path d="M 1964.855 107.000 L 1976.855 107.000 L 1976.855 129.000 L 1964.855 129.000 L 1964.855 107.000 Z" />
</g>
<g id="part-196">
<path d="M 12.000 155.000 L 41.000 155.000 L 41.000 164.000 L 12.000 164.000 L 12.000 155.000 Z" />
</g>
<g id="part-197">
<path d="M 156.000 135.000 L 178.000 135.000 L 178.000 153.000 L 156.000 153.000 L 156.000 135.000 Z" />
</g>
<g id="part-198">
<path d="M 3007.596 70.000 L 3022.596 70.000 L 3022.596 97.000 L 3007.596 97.000 L 3007.596 70.000 Z" />
</g>
<g id="part-199">
<path d="M 1326.630 135.000 L 1358.630 135.000 L 1358.630 149.000 L 1326.630 149.000 L 1326.630 135.000 Z" />
</g>
<g id="part-200">
<path d="M 2965.000 12.000 L 3004.000 12.000 L 3004.000 49.000 L 2965.000 49.000 L 2965.000 12.000 Z" />
<path d="M 2977.480 23.840 L 2977.480 37.160 L 2991.520 37.160 L 2991.520 23.840 L 2977.480 23.840 Z" fill="#f7f7f2" fill-opacity="1" stroke="#163b5c" />
</g>
<g id="part-201">
<path d="M 2119.000 12.000 L 2149.000 12.000 L 2149.000 54.000 L 2119.000 54.000 L 2119.000 12.000 Z" />
<path d="M 2129.200 19.560 L 2129.200 28.800 L 2142.400 28.800 L 2142.400 19.560 L 2129.200 19.560 Z" fill="#f7f7f2" fill-opacity="1" stroke="#163b5c" />
<path d="M 2129.200 37.200 L 2129.200 46.440 L 2142.400 46.440 L 2142.400 37.200 L 2129.200 37.200 Z" fill="#f7f7f2" fill-opacity="1" stroke="#163b5c" />
</g>
<g id="part-202">
<path d="M 539.000 70.000 L 565.000 70.000 L 565.000 77.260 L 547.840 77.260 L 547.840 95.740 L 565.000 95.740 L 565.000 103.000 L 539.000 103.000 L 539.000 70.000 Z" />
</g>
<g id="part-203">
<path d="M 1678.000 70.000 L 1706.000 74.000 L 1698.160 98.000 L 1681.000 92.960 L 1678.000 70.000 Z" />
</g>
<g id="part-204">
<path d="M 606.000 143.000 L 604.660 147.000 L 601.000 149.928 L 596.000 151.000 L 591.000 149.928 L 587.340 147.000 L 586.000 143.000 L 587.340 139.000 L 591.000 136.072 L 596.000 135.000 L 601.000 136.072 L 604.660 139.000 L 606.000 143.000 Z" />
</g>
<g id="part-205">
<path d="M 658.000 107.000 L 672.000 107.000 L 672.000 131.000 L 658.000 131.000 L 658.000 107.000 Z" />
</g>
<g id="part-206">
<path d="M 2761.334 135.000 L 2792.334 135.000 L 2792.334 146.000 L 2761.334 146.000 L 2761.334 135.000 Z" />
</g>
<g id="part-207">
<path d="M 2522.855 107.000 L 2546.855 107.000 L 2546.855 127.000 L 2522.855 127.000 L 2522.855 107.000 Z" />
</g>
<g id="part-208">
<path d="M 1383.000 70.000 L 1400.000 70.000 L 1400.000 99.000 L 1383.000 99.000 L 1383.000 70.000 Z" />
</g>
<g id="part-209">
<path d="M 774.000 135.000 L 784.000 135.000 L 784.000 151.000 L 774.000 151.000 L 774.000 135.000 Z" />
</g>
<g id="part-210">
<path d="M 2701.000 12.000 L 2742.000 12.000 L 2742.000 51.000 L 2701.000 51.000 L 2701.000 12.000 Z" />
<path d="M 2714.120 24.480 L 2714.120 38.520 L 2728.880 38.520 L 2728.880 24.480 L 2714.120 24.480 Z" fill="#f7f7f2" fill-opacity="1" stroke="#163b5c" />
</g>
<g id="part-211">
<path d="M 1747.000 12.000 L 1779.000 12.000 L 1779.000 54.000 L 1747.000 54.000 L 1747.000 12.000 Z" />
<path d="M 1757.880 19.560 L 1757.880 28.800 L 1771.960 28.800 L 1771.960 19.560 L 1757.880 19.560 Z" fill="#f7f7f2" fill-opacity="1" stroke="#163b5c" />
<path d="M 1757.880 37.200 L 1757.880 46.440 L 1771.960 46.440 L 1771.960 37.200 L 1757.880 37.200 Z" fill="#f7f7f2" fill-opacity="1" stroke="#163b5c" />
</g>
<g id="part-212">
<path d="M 79.000 70.000 L 107.000 70.000 L 107.000 77.700 L 88.520 77.700 L 88.520 97.300 L 107.000 97.300 L 107.000 105.000 L 79.000 105.000 L 79.000 70.000 Z" />
</g>
<g id="part-213">
<path d="M 618.000 155.000 L 648.000 159.000 L 639.600 163.000 L 621.000 161.560 L 618.000 155.000 Z" />
</g>
<g id="part-214">
<path d="M 1058.954 142.942 L 1057.579 146.659 L 1053.771 149.526 L 1048.400 150.883 L 1042.699 150.422 L 1037.972 148.247 L 1035.303 144.856 L 1035.303 141.027 L 1037.972 137.637 L 1042.699 135.462 L 1048.400 135.000 L 1053.771 136.358 L 1057.579 139.224 L 1058.954 142.942 Z" />
</g>
<g id="part-215">
<path d="M 3176.596 70.000 L 3192.596 70.000 L 3192.596 96.000 L 3176.596 96.000 L 3176.596 70.000 Z" />
</g>
<g id="part-216">
<path d="M 1852.630 135.000 L 1885.630 135.000 L 1885.630 148.000 L 1852.630 148.000 L 1852.630 135.000 Z" />
</g>
<g id="part-217">
<path d="M 1764.855 107.000 L 1790.855 107.000 L 1790.855 129.000 L 1764.855 129.000 L 1764.855 107.000 Z" />
</g>
<g id="part-218">
<path d="M 43.000 155.000 L 62.000 155.000 L 62.000 164.000 L 43.000 164.000 L 43.000 155.000 Z" />
</g>
<g id="part-219">
<path d="M 108.000 135.000 L 120.000 135.000 L 120.000 153.000 L 108.000 153.000 L 108.000 135.000 Z" />
</g>
<g id="part-220">
<path d="M 2339.000 12.000 L 2382.000 12.000 L 2382.000 53.000 L 2339.000 53.000 L 2339.000 12.000 Z" />
<path d="M 2352.760 25.120 L 2352.760 39.880 L 2368.240 39.880 L 2368.240 25.120 L 2352.760 25.120 Z" fill="#f7f7f2" fill-opacity="1" stroke="#163b5c" />
</g>
<g id="part-221">
<path d="M 1881.000 12.000 L 1915.000 12.000 L 1915.000 54.000 L 1881.000 54.000 L 1881.000 12.000 Z" />
<path d="M 1892.560 19.560 L 1892.560 28.800 L 1907.520 28.800 L 1907.520 19.560 L 1892.560 19.560 Z" fill="#f7f7f2" fill-opacity="1" stroke="#163b5c" />
<path d="M 1892.560 37.200 L 1892.560 46.440 L 1907.520 46.440 L 1907.520 37.200 L 1892.560 37.200 Z" fill="#f7f7f2" fill-opacity="1" stroke="#163b5c" />
</g>
<g id="part-222">
<path d="M 3068.000 12.000 L 3098.000 12.000 L 3098.000 20.140 L 3078.200 20.140 L 3078.200 40.860 L 3098.000 40.860 L 3098.000 49.000 L 3068.000 49.000 L 3068.000 12.000 Z" />
</g>
<g id="part-223">
<path d="M 2885.334 135.000 L 2917.334 139.000 L 2908.374 145.000 L 2888.334 143.200 L 2885.334 135.000 Z" />
</g>
<g id="part-224">
<path d="M 2832.933 116.927 L 2831.558 121.574 L 2827.749 125.157 L 2822.379 126.854 L 2816.677 126.277 L 2811.950 123.558 L 2809.281 119.320 L 2809.281 114.534 L 2811.950 110.296 L 2816.677 107.577 L 2822.379 107.000 L 2827.749 108.697 L 2831.558 112.280 L 2832.933 116.927 Z" />
</g>
<g id="part-225">
<path d="M 1488.000 70.000 L 1506.000 70.000 L 1506.000 98.000 L 1488.000 98.000 L 1488.000 70.000 Z" />
</g>
<g id="part-226">
<path d="M 1251.630 135.000 L 1262.630 135.000 L 1262.630 150.000 L 1251.630 150.000 L 1251.630 135.000 Z" />
</g>
<g id="part-227">
<path d="M 576.000 107.000 L 604.000 107.000 L 604.000 131.000 L 576.000 131.000 L 576.000 107.000 Z" />
</g>
<g id="part-228">
<path d="M 2794.334 135.000 L 2815.334 135.000 L 2815.334 146.000 L 2794.334 146.000 L 2794.334 135.000 Z" />
</g>
<g id="part-229">
<path d="M 2416.855 107.000 L 2430.855 107.000 L 2430.855 127.000 L 2416.855 127.000 L 2416.855 107.000 Z" />
</g>
<g id="part-230">
<path d="M 1584.000 12.000 L 1629.000 12.000 L 1629.000 55.000 L 1584.000 55.000 L 1584.000 12.000 Z" />
<path d="M 1598.400 25.760 L 1598.400 41.240 L 1614.600 41.240 L 1614.600 25.760 L 1598.400 25.760 Z" fill="#f7f7f2" fill-opacity="1" stroke="#163b5c" />
</g>
<g id="part-231">
<path d="M 1158.000 12.000 L 1194.000 12.000 L 1194.000 56.000 L 1158.000 56.000 L 1158.000 12.000 Z" />
<path d="M 1170.240 19.920 L 1170.240 29.600 L 1186.080 29.600 L 1186.080 19.920 L 1170.240 19.920 Z" fill="#f7f7f2" fill-opacity="1" stroke="#163b5c" />
<path d="M 1170.240 38.400 L 1170.240 48.080 L 1186.080 48.080 L 1186.080 38.400 L 1170.240 38.400 Z" fill="#f7f7f2" fill-opacity="1" stroke="#163b5c" />
</g>
<g id="part-232">
<path d="M 2862.000 12.000 L 2894.000 12.000 L 2894.000 20.580 L 2872.880 20.580 L 2872.880 42.420 L 2894.000 42.420 L 2894.000 51.000 L 2862.000 51.000 L 2862.000 12.000 Z" />
</g>
<g id="part-233">
<path d="M 2379.630 135.000 L 2389.630 139.000 L 2386.830 147.000 L 2382.630 144.840 L 2379.630 135.000 Z" />
</g>
<g id="part-234">
<path d="M 2807.281 116.945 L 2806.071 121.013 L 2802.649 124.377 L 2797.608 126.456 L 2791.818 126.890 L 2786.281 125.605 L 2781.955 122.823 L 2779.587 119.024 L 2779.587 114.866 L 2781.955 111.067 L 2786.281 108.285 L 2791.818 107.000 L 2797.608 107.435 L 2802.649 109.514 L 2806.071 112.878 L 2807.281 116.945 Z" />
</g>
<g id="part-235">
<path d="M 396.000 155.000 L 416.000 155.000 L 416.000 163.000 L 396.000 163.000 L 396.000 155.000 Z" />
</g>
<g id="part-236">
<path d="M 246.000 135.000 L 259.000 135.000 L 259.000 152.000 L 246.000 152.000 L 246.000 135.000 Z" />
</g>
<g id="part-237">
<path d="M 3114.596 70.000 L 3144.596 70.000 L 3144.596 96.000 L 3114.596 96.000 L 3114.596 70.000 Z" />
</g>
<g id="part-238">
<path d="M 1777.630 135.000 L 1800.630 135.000 L 1800.630 148.000 L 1777.630 148.000 L 1777.630 135.000 Z" />
</g>
<g id="part-239">
<path d="M 1746.855 107.000 L 1762.855 107.000 L 1762.855 129.000 L 1746.855 129.000 L 1746.855 107.000 Z" />
</g>
<g id="part-240">
<path d="M 1519.855 107.000 L 1566.855 107.000 L 1566.855 130.000 L 1519.855 130.000 L 1519.855 107.000 Z" />
<path d="M 1534.895 114.360 L 1534.895 122.640 L 1551.815 122.640 L 1551.815 114.360 L 1534.895 114.360 Z" fill="#f7f7f2" fill-opacity="1" stroke="#163b5c" />
</g>
<g id="part-241">
<path d="M 962.000 12.000 L 1000.000 12.000 L 1000.000 58.000 L 962.000 58.000 L 962.000 12.000 Z" />
<path d="M 974.920 20.280 L 974.920 30.400 L 991.640 30.400 L 991.640 20.280 L 974.920 20.280 Z" fill="#f7f7f2" fill-opacity="1" stroke="#163b5c" />
<path d="M 974.920 39.600 L 974.920 49.720 L 991.640 49.720 L 991.640 39.600 L 974.920 39.600 Z" fill="#f7f7f2" fill-opacity="1" stroke="#163b5c" />
</g>
<g id="part-242">
<path d="M 2552.000 12.000 L 2586.000 12.000 L 2586.000 21.020 L 2563.560 21.020 L 2563.560 43.980 L 2586.000 43.980 L 2586.000 53.000 L 2552.000 53.000 L 2552.000 12.000 Z" />
</g>
<g id="part-243">
<path d="M 1462.630 135.000 L 1474.630 139.000 L 1471.270 149.000 L 1465.630 146.480 L 1462.630 135.000 Z" />
</g>
<g id="part-244">
<path d="M 1221.378 118.934 L 1220.167 123.815 L 1216.746 127.852 L 1211.704 130.347 L 1205.914 130.869 L 1200.378 129.327 L 1196.051 125.988 L 1193.684 121.429 L 1193.684 116.439 L 1196.051 111.881 L 1200.378 108.542 L 1205.914 107.000 L 1211.704 107.522 L 1216.746 110.017 L 1220.167 114.053 L 1221.378 118.934 Z" />
</g>
<g id="part-245">
<path d="M 3031.334 135.000 L 3053.334 135.000 L 3053.334 145.000 L 3031.334 145.000 L 3031.334 135.000 Z" />
</g>
<g id="part-246">
<path d="M 3107.886 107.000 L 3122.886 107.000 L 3122.886 126.000 L 3107.886 126.000 L 3107.886 107.000 Z" />
</g>
<g id="part-247">
<path d="M 1736.000 70.000 L 1768.000 70.000 L 1768.000 98.000 L 1736.000 98.000 L 1736.000 70.000 Z" />
</g>
<g id="part-248">
<path d="M 1264.630 135.000 L 1289.630 135.000 L 1289.630 150.000 L 1264.630 150.000 L 1264.630 135.000 Z" />
</g>
<g id="part-249">
<path d="M 950.000 107.000 L 968.000 107.000 L 968.000 131.000 L 950.000 131.000 L 950.000 107.000 Z" />
</g>
<g id="part-250">
<path d="M 463.000 107.000 L 488.000 107.000 L 488.000 132.000 L 463.000 132.000 L 463.000 107.000 Z" />
<path d="M 471.000 115.000 L 471.000 124.000 L 480.000 124.000 L 480.000 115.000 L 471.000 115.000 Z" fill="#f7f7f2" fill-opacity="1" stroke="#163b5c" />
</g>
<g id="part-251">
<path d="M 758.000 12.000 L 798.000 12.000 L 798.000 60.000 L 758.000 60.000 L 758.000 12.000 Z" />
<path d="M 771.600 20.640 L 771.600 31.200 L 789.200 31.200 L 789.200 20.640 L 771.600 20.640 Z" fill="#f7f7f2" fill-opacity="1" stroke="#163b5c" />
<path d="M 771.600 40.800 L 771.600 51.360 L 789.200 51.360 L 789.200 40.800 L 771.600 40.800 Z" fill="#f7f7f2" fill-opacity="1" stroke="#163b5c" />
</g>
<g id="part-252">
<path d="M 1373.000 12.000 L 1409.000 12.000 L 1409.000 21.460 L 1385.240 21.460 L 1385.240 45.540 L 1409.000 45.540 L 1409.000 55.000 L 1373.000 55.000 L 1373.000 12.000 Z" />
</g>
<g id="part-253">
<path d="M 726.000 135.000 L 740.000 139.000 L 736.080 151.000 L 729.000 148.120 L 726.000 135.000 Z" />
</g>
<g id="part-254">
<path d="M 1158.033 118.934 L 1156.650 123.815 L 1152.739 127.852 L 1146.978 130.347 L 1140.361 130.869 L 1134.033 129.327 L 1129.089 125.988 L 1126.383 121.429 L 1126.383 116.439 L 1129.089 111.881 L 1134.033 108.542 L 1140.361 107.000 L 1146.978 107.522 L 1152.739 110.017 L 1156.650 114.053 L 1158.033 118.934 Z" />
</g>
<g id="part-255">
<path d="M 2463.630 135.000 L 2487.630 135.000 L 2487.630 147.000 L 2463.630 147.000 L 2463.630 135.000 Z" />
</g>
<g id="part-256">
<path d="M 2194.855 107.000 L 2211.855 107.000 L 2211.855 128.000 L 2194.855 128.000 L 2194.855 107.000 Z" />
</g>
<g id="part-257">
<path d="M 650.000 155.000 L 660.000 155.000 L 660.000 163.000 L 650.000 163.000 L 650.000 155.000 Z" />
</g>
<g id="part-258">
<path d="M 461.000 135.000 L 488.000 135.000 L 488.000 152.000 L 461.000 152.000 L 461.000 135.000 Z" />
</g>
<g id="part-259">
<path d="M 136.000 107.000 L 156.000 107.000 L 156.000 133.000 L 136.000 133.000 L 136.000 107.000 Z" />
</g>
<g id="part-260">
<path d="M 2963.596 70.000 L 2990.596 70.000 L 2990.596 97.000 L 2963.596 97.000 L 2963.596 70.000 Z" />
<path d="M 2972.236 78.640 L 2972.236 88.360 L 2981.956 88.360 L 2981.956 78.640 L 2972.236 78.640 Z" fill="#f7f7f2" fill-opacity="1" stroke="#163b5c" />
</g>
<g id="part-261">
<path d="M 546.000 12.000 L 588.000 12.000 L 588.000 62.000 L 546.000 62.000 L 546.000 12.000 Z" />
<path d="M 560.280 21.000 L 560.280 32.000 L 578.760 32.000 L 578.760 21.000 L 560.280 21.000 Z" fill="#f7f7f2" fill-opacity="1" stroke="#163b5c" />
<path d="M 560.280 42.000 L 560.280 53.000 L 578.760 53.000 L 578.760 42.000 L 560.280 42.000 Z" fill="#f7f7f2" fill-opacity="1" stroke="#163b5c" />
</g>
<g id="part-262">
<path d="M 1876.000 70.000 L 1914.000 70.000 L 1914.000 76.160 L 1888.920 76.160 L 1888.920 91.840 L 1914.000 91.840 L 1914.000 98.000 L 1876.000 98.000 L 1876.000 70.000 Z" />
</g>
<g id="part-263">
<path d="M 24.000 135.000 L 40.000 139.000 L 35.520 153.000 L 27.000 149.760 L 24.000 135.000 Z" />
</g>
<g id="part-264">
<path d="M 2671.727 83.923 L 2670.344 89.618 L 2666.433 94.327 L 2660.672 97.238 L 2654.055 97.847 L 2647.727 96.048 L 2642.783 92.152 L 2640.077 86.834 L 2640.077 81.013 L 2642.783 75.694 L 2647.727 71.799 L 2654.055 70.000 L 2660.672 70.609 L 2666.433 73.519 L 2670.344 78.229 L 2671.727 83.923 Z" />
</g>
<g id="part-265">
<path d="M 1522.630 135.000 L 1548.630 135.000 L 1548.630 149.000 L 1522.630 149.000 L 1522.630 135.000 Z" />
</g>
<g id="part-266">
<path d="M 1448.855 107.000 L 1467.855 107.000 L 1467.855 130.000 L 1448.855 130.000 L 1448.855 107.000 Z" />
</g>
<g id="part-267">
<path d="M 3135.334 135.000 L 3147.334 135.000 L 3147.334 145.000 L 3135.334 145.000 L 3135.334 135.000 Z" />
</g>
<g id="part-268">
<path d="M 3041.886 107.000 L 3070.886 107.000 L 3070.886 126.000 L 3041.886 126.000 L 3041.886 107.000 Z" />
</g>
<g id="part-269">
<path d="M 1976.000 70.000 L 1998.000 70.000 L 1998.000 98.000 L 1976.000 98.000 L 1976.000 70.000 Z" />
</g>
<g id="part-270">
<path d="M 1162.000 70.000 L 1191.000 70.000 L 1191.000 99.000 L 1162.000 99.000 L 1162.000 70.000 Z" />
<path d="M 1171.280 79.280 L 1171.280 89.720 L 1181.720 89.720 L 1181.720 79.280 L 1171.280 79.280 Z" fill="#f7f7f2" fill-opacity="1" stroke="#163b5c" />
</g>
<g id="part-271">
<path d="M 248.000 12.000 L 292.000 12.000 L 292.000 64.000 L 248.000 64.000 L 248.000 12.000 Z" />
<path d="M 262.960 21.360 L 262.960 32.800 L 282.320 32.800 L 282.320 21.360 L 262.960 21.360 Z" fill="#f7f7f2" fill-opacity="1" stroke="#163b5c" />
<path d="M 262.960 43.200 L 262.960 54.640 L 282.320 54.640 L 282.320 43.200 L 262.960 43.200 Z" fill="#f7f7f2" fill-opacity="1" stroke="#163b5c" />
</g>
<g id="part-272">
<path d="M 2000.000 70.000 L 2040.000 70.000 L 2040.000 76.160 L 2013.600 76.160 L 2013.600 91.840 L 2040.000 91.840 L 2040.000 98.000 L 2000.000 98.000 L 2000.000 70.000 Z" />
</g>
<g id="part-273">
<path d="M 2396.855 107.000 L 2414.855 111.000 L 2409.815 127.000 L 2399.855 123.400 L 2396.855 107.000 Z" />
</g>
<g id="part-274">
<path d="M 2624.208 83.923 L 2623.689 89.618 L 2622.223 94.327 L 2620.062 97.238 L 2617.581 97.847 L 2615.208 96.048 L 2613.354 92.152 L 2612.339 86.834 L 2612.339 81.013 L 2613.354 75.694 L 2615.208 71.799 L 2617.581 70.000 L 2620.062 70.609 L 2622.223 73.519 L 2623.689 78.229 L 2624.208 83.923 Z" />
</g>
<g id="part-275">
<path d="M 662.000 135.000 L 690.000 135.000 L 690.000 151.000 L 662.000 151.000 L 662.000 135.000 Z" />
</g>
<g id="part-276">
<path d="M 427.000 107.000 L 448.000 107.000 L 448.000 132.000 L 427.000 132.000 L 427.000 107.000 Z" />
</g>
<g id="part-277">
<path d="M 2447.630 135.000 L 2461.630 135.000 L 2461.630 147.000 L 2447.630 147.000 L 2447.630 135.000 Z" />
</g>
<g id="part-278">
<path d="M 2072.855 107.000 L 2103.855 107.000 L 2103.855 128.000 L 2072.855 128.000 L 2072.855 107.000 Z" />
</g>
<g id="part-279">
<path d="M 568.000 155.000 L 592.000 155.000 L 592.000 163.000 L 568.000 163.000 L 568.000 155.000 Z" />
</g>
<g id="part-280">
<path d="M 641.000 70.000 L 672.000 70.000 L 672.000 101.000 L 641.000 101.000 L 641.000 70.000 Z" />
<path d="M 650.920 79.920 L 650.920 91.080 L 662.080 91.080 L 662.080 79.920 L 650.920 79.920 Z" fill="#f7f7f2" fill-opacity="1" stroke="#163b5c" />
</g>
<g id="part-281">
<path d="M 222.000 12.000 L 246.000 12.000 L 246.000 66.000 L 222.000 66.000 L 222.000 12.000 Z" />
<path d="M 230.160 21.720 L 230.160 33.600 L 240.720 33.600 L 240.720 21.720 L 230.160 21.720 Z" fill="#f7f7f2" fill-opacity="1" stroke="#163b5c" />
<path d="M 230.160 44.400 L 230.160 56.280 L 240.720 56.280 L 240.720 44.400 L 230.160 44.400 Z" fill="#f7f7f2" fill-opacity="1" stroke="#163b5c" />
</g>
<g id="part-282">
<path d="M 1612.000 70.000 L 1654.000 70.000 L 1654.000 76.160 L 1626.280 76.160 L 1626.280 91.840 L 1654.000 91.840 L 1654.000 98.000 L 1612.000 98.000 L 1612.000 70.000 Z" />
</g>
<g id="part-283">
<path d="M 1992.855 107.000 L 2012.855 111.000 L 2007.255 129.000 L 1995.855 125.040 L 1992.855 107.000 Z" />
</g>
<g id="part-284">
<path d="M 731.352 158.804 L 730.206 161.155 L 727.206 162.608 L 723.498 162.608 L 720.498 161.155 L 719.352 158.804 L 720.498 156.453 L 723.498 155.000 L 727.206 155.000 L 730.206 156.453 L 731.352 158.804 Z" />
</g>
<g id="part-285">
<path d="M 214.000 135.000 L 244.000 135.000 L 244.000 153.000 L 214.000 153.000 L 214.000 135.000 Z" />
</g>
<g id="part-286">
<path d="M 2782.596 70.000 L 2805.596 70.000 L 2805.596 97.000 L 2782.596 97.000 L 2782.596 70.000 Z" />
</g>
<g id="part-287">
<path d="M 1596.630 135.000 L 1612.630 135.000 L 1612.630 149.000 L 1596.630 149.000 L 1596.630 135.000 Z" />
</g>
<g id="part-288">
<path d="M 1309.855 107.000 L 1342.855 107.000 L 1342.855 130.000 L 1309.855 130.000 L 1309.855 107.000 Z" />
</g>
<g id="part-289">
<path d="M 2919.334 135.000 L 2945.334 135.000 L 2945.334 145.000 L 2919.334 145.000 L 2919.334 135.000 Z" />
</g>
<g id="part-290">
<path d="M 354.000 70.000 L 387.000 70.000 L 387.000 103.000 L 354.000 103.000 L 354.000 70.000 Z" />
<path d="M 364.560 80.560 L 364.560 92.440 L 376.440 92.440 L 376.440 80.560 L 364.560 80.560 Z" fill="#f7f7f2" fill-opacity="1" stroke="#163b5c" />
</g>
<g id="part-291">
<path d="M 12.000 12.000 L 36.000 12.000 L 36.000 68.000 L 12.000 68.000 L 12.000 12.000 Z" />
<path d="M 20.160 22.080 L 20.160 34.400 L 30.720 34.400 L 30.720 22.080 L 20.160 22.080 Z" fill="#f7f7f2" fill-opacity="1" stroke="#163b5c" />
<path d="M 20.160 45.600 L 20.160 57.920 L 30.720 57.920 L 30.720 45.600 L 20.160 45.600 Z" fill="#f7f7f2" fill-opacity="1" stroke="#163b5c" />
</g>
<g id="part-292">
<path d="M 966.000 70.000 L 1010.000 70.000 L 1010.000 76.380 L 980.960 76.380 L 980.960 92.620 L 1010.000 92.620 L 1010.000 99.000 L 966.000 99.000 L 966.000 70.000 Z" />
</g>
<g id="part-293">
<path d="M 696.000 107.000 L 718.000 111.000 L 711.840 131.000 L 699.000 126.680 L 696.000 107.000 Z" />
</g>
<g id="part-294">
<path d="M 2540.658 140.939 L 2539.388 144.183 L 2535.981 146.397 L 2531.519 146.878 L 2527.419 145.473 L 2524.982 142.629 L 2524.982 139.249 L 2527.419 136.404 L 2531.519 135.000 L 2535.981 135.481 L 2539.388 137.695 L 2540.658 140.939 Z" />
</g>
<g id="part-295">
<path d="M 2464.855 107.000 L 2496.855 107.000 L 2496.855 127.000 L 2464.855 127.000 L 2464.855 107.000 Z" />
</g>
<g id="part-296">
<path d="M 910.000 70.000 L 935.000 70.000 L 935.000 99.000 L 910.000 99.000 L 910.000 70.000 Z" />
</g>
<g id="part-297">
<path d="M 642.000 135.000 L 660.000 135.000 L 660.000 151.000 L 642.000 151.000 L 642.000 135.000 Z" />
</g>
<g id="part-298">
<path d="M 450.000 107.000 L 461.000 107.000 L 461.000 132.000 L 450.000 132.000 L 450.000 107.000 Z" />
</g>
<g id="part-299">
<path d="M 2113.630 135.000 L 2141.630 135.000 L 2141.630 147.000 L 2113.630 147.000 L 2113.630 135.000 Z" />
</g>
<g id="part-300">
<path d="M 3246.000 12.000 L 3281.000 12.000 L 3281.000 47.000 L 3246.000 47.000 L 3246.000 12.000 Z" />
<path d="M 3257.200 23.200 L 3257.200 35.800 L 3269.800 35.800 L 3269.800 23.200 L 3257.200 23.200 Z" fill="#f7f7f2" fill-opacity="1" stroke="#163b5c" />
</g>
<g id="part-301">
<path d="M 2017.000 12.000 L 2043.000 12.000 L 2043.000 54.000 L 2017.000 54.000 L 2017.000 12.000 Z" />
<path d="M 2025.840 19.560 L 2025.840 28.800 L 2037.280 28.800 L 2037.280 19.560 L 2025.840 19.560 Z" fill="#f7f7f2" fill-opacity="1" stroke="#163b5c" />
<path d="M 2025.840 37.200 L 2025.840 46.440 L 2037.280 46.440 L 2037.280 37.200 L 2025.840 37.200 Z" fill="#f7f7f2" fill-opacity="1" stroke="#163b5c" />
</g>
<g id="part-302">
<path d="M 742.000 70.000 L 788.000 70.000 L 788.000 76.820 L 757.640 76.820 L 757.640 94.180 L 788.000 94.180 L 788.000 101.000 L 742.000 101.000 L 742.000 70.000 Z" />
</g>
<g id="part-303">
<path d="M 3250.596 70.000 L 3274.596 74.000 L 3267.876 96.000 L 3253.596 91.320 L 3250.596 70.000 Z" />
</g>
<g id="part-304">
<path d="M 2505.306 140.939 L 2504.036 144.183 L 2500.629 146.397 L 2496.167 146.878 L 2492.067 145.473 L 2489.630 142.629 L 2489.630 139.249 L 2492.067 136.404 L 2496.167 135.000 L 2500.629 135.481 L 2504.036 137.695 L 2505.306 140.939 Z" />
</g>
<g id="part-305">
<path d="M 2014.855 107.000 L 2024.855 107.000 L 2024.855 129.000 L 2014.855 129.000 L 2014.855 107.000 Z" />
</g>
<g id="part-306">
<path d="M 64.000 155.000 L 91.000 155.000 L 91.000 164.000 L 64.000 164.000 L 64.000 155.000 Z" />
</g>
<g id="part-307">
<path d="M 3151.886 107.000 L 3171.886 107.000 L 3171.886 125.000 L 3151.886 125.000 L 3151.886 107.000 Z" />
</g>
<g id="part-308">
<path d="M 2992.596 70.000 L 3005.596 70.000 L 3005.596 97.000 L 2992.596 97.000 L 2992.596 70.000 Z" />
</g>
<g id="part-309">
<path d="M 1382.630 135.000 L 1412.630 135.000 L 1412.630 149.000 L 1382.630 149.000 L 1382.630 135.000 Z" />
</g>
<g id="part-310">
<path d="M 2926.000 12.000 L 2963.000 12.000 L 2963.000 49.000 L 2926.000 49.000 L 2926.000 12.000 Z" />
<path d="M 2937.840 23.840 L 2937.840 37.160 L 2951.160 37.160 L 2951.160 23.840 L 2937.840 23.840 Z" fill="#f7f7f2" fill-opacity="1" stroke="#163b5c" />
</g>
<g id="part-311">
<path d="M 1631.000 12.000 L 1659.000 12.000 L 1659.000 54.000 L 1631.000 54.000 L 1631.000 12.000 Z" />
<path d="M 1640.520 19.560 L 1640.520 28.800 L 1652.840 28.800 L 1652.840 19.560 L 1640.520 19.560 Z" fill="#f7f7f2" fill-opacity="1" stroke="#163b5c" />
<path d="M 1640.520 37.200 L 1640.520 46.440 L 1652.840 46.440 L 1652.840 37.200 L 1640.520 37.200 Z" fill="#f7f7f2" fill-opacity="1" stroke="#163b5c" />
</g>
<g id="part-312">
<path d="M 304.000 70.000 L 352.000 70.000 L 352.000 77.260 L 320.320 77.260 L 320.320 95.740 L 352.000 95.740 L 352.000 103.000 L 304.000 103.000 L 304.000 70.000 Z" />
</g>
<g id="part-313">
<path d="M 1708.000 70.000 L 1734.000 74.000 L 1726.720 98.000 L 1711.000 92.960 L 1708.000 70.000 Z" />
</g>
<g id="part-314">
<path d="M 584.000 143.000 L 582.660 147.000 L 579.000 149.928 L 574.000 151.000 L 569.000 149.928 L 565.340 147.000 L 564.000 143.000 L 565.340 139.000 L 569.000 136.072 L 574.000 135.000 L 579.000 136.072 L 582.660 139.000 L 584.000 143.000 Z" />
</g>
<g id="part-315">
<path d="M 936.000 107.000 L 948.000 107.000 L 948.000 131.000 L 936.000 131.000 L 936.000 107.000 Z" />
</g>
<g id="part-316">
<path d="M 2730.334 135.000 L 2759.334 135.000 L 2759.334 146.000 L 2730.334 146.000 L 2730.334 135.000 Z" />
</g>
<g id="part-317">
<path d="M 2498.855 107.000 L 2520.855 107.000 L 2520.855 127.000 L 2498.855 127.000 L 2498.855 107.000 Z" />
</g>
<g id="part-318">
<path d="M 1270.000 70.000 L 1285.000 70.000 L 1285.000 99.000 L 1270.000 99.000 L 1270.000 70.000 Z" />
</g>
<g id="part-319">
<path d="M 608.000 135.000 L 640.000 135.000 L 640.000 151.000 L 608.000 151.000 L 608.000 135.000 Z" />
</g>
<g id="part-320">
<path d="M 2776.000 12.000 L 2815.000 12.000 L 2815.000 51.000 L 2776.000 51.000 L 2776.000 12.000 Z" />
<path d="M 2788.480 24.480 L 2788.480 38.520 L 2802.520 38.520 L 2802.520 24.480 L 2788.480 24.480 Z" fill="#f7f7f2" fill-opacity="1" stroke="#163b5c" />
</g>
<g id="part-321">
<path d="M 1661.000 12.000 L 1691.000 12.000 L 1691.000 54.000 L 1661.000 54.000 L 1661.000 12.000 Z" />
<path d="M 1671.200 19.560 L 1671.200 28.800 L 1684.400 28.800 L 1684.400 19.560 L 1671.200 19.560 Z" fill="#f7f7f2" fill-opacity="1" stroke="#163b5c" />
<path d="M 1671.200 37.200 L 1671.200 46.440 L 1684.400 46.440 L 1684.400 37.200 L 1671.200 37.200 Z" fill="#f7f7f2" fill-opacity="1" stroke="#163b5c" />
</g>
<g id="part-322">
<path d="M 51.000 70.000 L 77.000 70.000 L 77.000 77.700 L 59.840 77.700 L 59.840 97.300 L 77.000 97.300 L 77.000 105.000 L 51.000 105.000 L 51.000 70.000 Z" />
</g>
<g id="part-323">
<path d="M 508.000 155.000 L 536.000 159.000 L 528.160 163.000 L 511.000 161.560 L 508.000 155.000 Z" />
</g>
<g id="part-324">
<path d="M 542.000 143.000 L 540.660 147.000 L 537.000 149.928 L 532.000 151.000 L 527.000 149.928 L 523.340 147.000 L 522.000 143.000 L 523.340 139.000 L 527.000 136.072 L 532.000 135.000 L 537.000 136.072 L 540.660 139.000 L 542.000 143.000 Z" />
</g>
<g id="part-325">
<path d="M 30.000 107.000 L 44.000 107.000 L 44.000 133.000 L 30.000 133.000 L 30.000 107.000 Z" />
</g>
<g id="part-326">
<path d="M 1744.630 135.000 L 1775.630 135.000 L 1775.630 148.000 L 1744.630 148.000 L 1744.630 135.000 Z" />
</g>
<g id="part-327">
<path d="M 1720.855 107.000 L 1744.855 107.000 L 1744.855 129.000 L 1720.855 129.000 L 1720.855 107.000 Z" />
</g>
<g id="part-328">
<path d="M 160.000 155.000 L 177.000 155.000 L 177.000 164.000 L 160.000 164.000 L 160.000 155.000 Z" />
</g>
<g id="part-329">
<path d="M 12.000 135.000 L 22.000 135.000 L 22.000 153.000 L 12.000 153.000 L 12.000 135.000 Z" />
</g>
<g id="part-330">
<path d="M 2183.000 12.000 L 2224.000 12.000 L 2224.000 53.000 L 2183.000 53.000 L 2183.000 12.000 Z" />
<path d="M 2196.120 25.120 L 2196.120 39.880 L 2210.880 39.880 L 2210.880 25.120 L 2196.120 25.120 Z" fill="#f7f7f2" fill-opacity="1" stroke="#163b5c" />
</g>
<g id="part-331">
<path d="M 1781.000 12.000 L 1813.000 12.000 L 1813.000 54.000 L 1781.000 54.000 L 1781.000 12.000 Z" />
<path d="M 1791.880 19.560 L 1791.880 28.800 L 1805.960 28.800 L 1805.960 19.560 L 1791.880 19.560 Z" fill="#f7f7f2" fill-opacity="1" stroke="#163b5c" />
<path d="M 1791.880 37.200 L 1791.880 46.440 L 1805.960 46.440 L 1805.960 37.200 L 1791.880 37.200 Z" fill="#f7f7f2" fill-opacity="1" stroke="#163b5c" />
</g>
<g id="part-332">
<path d="M 3216.000 12.000 L 3244.000 12.000 L 3244.000 20.140 L 3225.520 20.140 L 3225.520 40.860 L 3244.000 40.860 L 3244.000 49.000 L 3216.000 49.000 L 3216.000 12.000 Z" />
</g>
<g id="part-333">
<path d="M 3237.334 135.000 L 3267.334 139.000 L 3258.934 145.000 L 3240.334 143.200 L 3237.334 135.000 Z" />
</g>
<g id="part-334">
<path d="M 2884.235 116.927 L 2882.861 121.574 L 2879.052 125.157 L 2873.682 126.854 L 2867.980 126.277 L 2863.253 123.558 L 2860.584 119.320 L 2860.584 114.534 L 2863.253 110.296 L 2867.980 107.577 L 2873.682 107.000 L 2879.052 108.697 L 2882.861 112.280 L 2884.235 116.927 Z" />
</g>
<g id="part-335">
<path d="M 1574.000 70.000 L 1590.000 70.000 L 1590.000 98.000 L 1574.000 98.000 L 1574.000 70.000 Z" />
</g>
<g id="part-336">
<path d="M 1291.630 135.000 L 1324.630 135.000 L 1324.630 150.000 L 1291.630 150.000 L 1291.630 135.000 Z" />
</g>
<g id="part-337">
<path d="M 908.000 107.000 L 934.000 107.000 L 934.000 131.000 L 908.000 131.000 L 908.000 107.000 Z" />
</g>
<g id="part-338">
<path d="M 2709.334 135.000 L 2728.334 135.000 L 2728.334 146.000 L 2709.334 146.000 L 2709.334 135.000 Z" />
</g>
<g id="part-339">
<path d="M 2588.855 107.000 L 2600.855 107.000 L 2600.855 127.000 L 2588.855 127.000 L 2588.855 107.000 Z" />
</g>
<g id="part-340">
<path d="M 1496.000 12.000 L 1539.000 12.000 L 1539.000 55.000 L 1496.000 55.000 L 1496.000 12.000 Z" />
<path d="M 1509.760 25.760 L 1509.760 41.240 L 1525.240 41.240 L 1525.240 25.760 L 1509.760 25.760 Z" fill="#f7f7f2" fill-opacity="1" stroke="#163b5c" />
</g>
<g id="part-341">
<path d="M 1122.000 12.000 L 1156.000 12.000 L 1156.000 56.000 L 1122.000 56.000 L 1122.000 12.000 Z" />
<path d="M 1133.560 19.920 L 1133.560 29.600 L 1148.520 29.600 L 1148.520 19.920 L 1133.560 19.920 Z" fill="#f7f7f2" fill-opacity="1" stroke="#163b5c" />
<path d="M 1133.560 38.400 L 1133.560 48.080 L 1148.520 48.080 L 1148.520 38.400 L 1133.560 38.400 Z" fill="#f7f7f2" fill-opacity="1" stroke="#163b5c" />
</g>
<g id="part-342">
<path d="M 2744.000 12.000 L 2774.000 12.000 L 2774.000 20.580 L 2754.200 20.580 L 2754.200 42.420 L 2774.000 42.420 L 2774.000 51.000 L 2744.000 51.000 L 2744.000 12.000 Z" />
</g>
<g id="part-343">
<path d="M 2413.630 135.000 L 2445.630 139.000 L 2436.670 147.000 L 2416.630 144.840 L 2413.630 135.000 Z" />
</g>
<g id="part-344">
<path d="M 2909.886 116.927 L 2908.512 121.574 L 2904.703 125.157 L 2899.333 126.854 L 2893.631 126.277 L 2888.904 123.558 L 2886.235 119.320 L 2886.235 114.534 L 2888.904 110.296 L 2893.631 107.577 L 2899.333 107.000 L 2904.703 108.697 L 2908.512 112.280 L 2909.886 116.927 Z" />
</g>
<g id="part-345">
<path d="M 376.000 155.000 L 394.000 155.000 L 394.000 163.000 L 376.000 163.000 L 376.000 155.000 Z" />
</g>
<g id="part-346">
<path d="M 288.000 135.000 L 299.000 135.000 L 299.000 152.000 L 288.000 152.000 L 288.000 135.000 Z" />
</g>
<g id="part-347">
<path d="M 3146.596 70.000 L 3174.596 70.000 L 3174.596 96.000 L 3146.596 96.000 L 3146.596 70.000 Z" />
</g>
<g id="part-348">
<path d="M 1829.630 135.000 L 1850.630 135.000 L 1850.630 148.000 L 1829.630 148.000 L 1829.630 135.000 Z" />
</g>
<g id="part-349">
<path d="M 1684.855 107.000 L 1698.855 107.000 L 1698.855 129.000 L 1684.855 129.000 L 1684.855 107.000 Z" />
</g>
<g id="part-350">
<path d="M 1262.855 107.000 L 1307.855 107.000 L 1307.855 130.000 L 1262.855 130.000 L 1262.855 107.000 Z" />
<path d="M 1277.255 114.360 L 1277.255 122.640 L 1293.455 122.640 L 1293.455 114.360 L 1277.255 114.360 Z" fill="#f7f7f2" fill-opacity="1" stroke="#163b5c" />
</g>
<g id="part-351">
<path d="M 1002.000 12.000 L 1038.000 12.000 L 1038.000 58.000 L 1002.000 58.000 L 1002.000 12.000 Z" />
<path d="M 1014.240 20.280 L 1014.240 30.400 L 1030.080 30.400 L 1030.080 20.280 L 1014.240 20.280 Z" fill="#f7f7f2" fill-opacity="1" stroke="#163b5c" />
<path d="M 1014.240 39.600 L 1014.240 49.720 L 1030.080 49.720 L 1030.080 39.600 L 1014.240 39.600 Z" fill="#f7f7f2" fill-opacity="1" stroke="#163b5c" />
</g>
<g id="part-352">
<path d="M 2480.000 12.000 L 2512.000 12.000 L 2512.000 21.020 L 2490.880 21.020 L 2490.880 43.980 L 2512.000 43.980 L 2512.000 53.000 L 2480.000 53.000 L 2480.000 12.000 Z" />
</g>
<g id="part-353">
<path d="M 1510.630 135.000 L 1520.630 139.000 L 1517.830 149.000 L 1513.630 146.480 L 1510.630 135.000 Z" />
</g>
<g id="part-354">
<path d="M 1057.082 118.934 L 1055.872 123.815 L 1052.450 127.852 L 1047.408 130.347 L 1041.619 130.869 L 1036.082 129.327 L 1031.756 125.988 L 1029.388 121.429 L 1029.388 116.439 L 1031.756 111.881 L 1036.082 108.542 L 1041.619 107.000 L 1047.408 107.522 L 1052.450 110.017 L 1055.872 114.053 L 1057.082 118.934 Z" />
</g>
<g id="part-355">
<path d="M 2845.334 135.000 L 2865.334 135.000 L 2865.334 145.000 L 2845.334 145.000 L 2845.334 135.000 Z" />
</g>
<g id="part-356">
<path d="M 2951.886 107.000 L 2964.886 107.000 L 2964.886 126.000 L 2951.886 126.000 L 2951.886 107.000 Z" />
</g>
<g id="part-357">
<path d="M 2418.000 70.000 L 2448.000 70.000 L 2448.000 98.000 L 2418.000 98.000 L 2418.000 70.000 Z" />
</g>
<g id="part-358">
<path d="M 1078.630 135.000 L 1101.630 135.000 L 1101.630 150.000 L 1078.630 150.000 L 1078.630 135.000 Z" />
</g>
<g id="part-359">
<path d="M 606.000 107.000 L 622.000 107.000 L 622.000 131.000 L 606.000 131.000 L 606.000 107.000 Z" />
</g>
<g id="part-360">
<path d="M 490.000 107.000 L 537.000 107.000 L 537.000 132.000 L 490.000 132.000 L 490.000 107.000 Z" />
<path d="M 505.040 115.000 L 505.040 124.000 L 521.960 124.000 L 521.960 115.000 L 505.040 115.000 Z" fill="#f7f7f2" fill-opacity="1" stroke="#163b5c" />
</g>
<g id="part-361">
<path d="M 800.000 12.000 L 838.000 12.000 L 838.000 60.000 L 800.000 60.000 L 800.000 12.000 Z" />
<path d="M 812.920 20.640 L 812.920 31.200 L 829.640 31.200 L 829.640 20.640 L 812.920 20.640 Z" fill="#f7f7f2" fill-opacity="1" stroke="#163b5c" />
<path d="M 812.920 40.800 L 812.920 51.360 L 829.640 51.360 L 829.640 40.800 L 812.920 40.800 Z" fill="#f7f7f2" fill-opacity="1" stroke="#163b5c" />
</g>
<g id="part-362">
<path d="M 1460.000 12.000 L 1494.000 12.000 L 1494.000 21.460 L 1471.560 21.460 L 1471.560 45.540 L 1494.000 45.540 L 1494.000 55.000 L 1460.000 55.000 L 1460.000 12.000 Z" />
</g>
<g id="part-363">
<path d="M 862.000 135.000 L 874.000 139.000 L 870.640 151.000 L 865.000 148.120 L 862.000 135.000 Z" />
</g>
<g id="part-364">
<path d="M 1027.388 118.934 L 1026.178 123.815 L 1022.756 127.852 L 1017.714 130.347 L 1011.925 130.869 L 1006.388 129.327 L 1002.062 125.988 L 999.694 121.429 L 999.694 116.439 L 1002.062 111.881 L 1006.388 108.542 L 1011.925 107.000 L 1017.714 107.522 L 1022.756 110.017 L 1026.178 114.053 L 1027.388 118.934 Z" />
</g>
<g id="part-365">
<path d="M 2171.630 135.000 L 2193.630 135.000 L 2193.630 147.000 L 2171.630 147.000 L 2171.630 135.000 Z" />
</g>
<g id="part-366">
<path d="M 2026.855 107.000 L 2041.855 107.000 L 2041.855 128.000 L 2026.855 128.000 L 2026.855 107.000 Z" />
</g>
<g id="part-367">
<path d="M 342.000 155.000 L 374.000 155.000 L 374.000 163.000 L 342.000 163.000 L 342.000 155.000 Z" />
</g>
<g id="part-368">
<path d="M 261.000 135.000 L 286.000 135.000 L 286.000 152.000 L 261.000 152.000 L 261.000 135.000 Z" />
</g>
<g id="part-369">
<path d="M 3024.596 70.000 L 3042.596 70.000 L 3042.596 96.000 L 3024.596 96.000 L 3024.596 70.000 Z" />
</g>
<g id="part-370">
<path d="M 2687.596 70.000 L 2712.596 70.000 L 2712.596 97.000 L 2687.596 97.000 L 2687.596 70.000 Z" />
<path d="M 2695.596 78.640 L 2695.596 88.360 L 2704.596 88.360 L 2704.596 78.640 L 2695.596 78.640 Z" fill="#f7f7f2" fill-opacity="1" stroke="#163b5c" />
</g>
<g id="part-371">
<path d="M 504.000 12.000 L 544.000 12.000 L 544.000 62.000 L 504.000 62.000 L 504.000 12.000 Z" />
<path d="M 517.600 21.000 L 517.600 32.000 L 535.200 32.000 L 535.200 21.000 L 517.600 21.000 Z" fill="#f7f7f2" fill-opacity="1" stroke="#163b5c" />
<path d="M 517.600 42.000 L 517.600 53.000 L 535.200 53.000 L 535.200 42.000 L 517.600 42.000 Z" fill="#f7f7f2" fill-opacity="1" stroke="#163b5c" />
</g>
<g id="part-372">
<path d="M 2130.000 70.000 L 2166.000 70.000 L 2166.000 76.160 L 2142.240 76.160 L 2142.240 91.840 L 2166.000 91.840 L 2166.000 98.000 L 2130.000 98.000 L 2130.000 70.000 Z" />
</g>
<g id="part-373">
<path d="M 76.000 135.000 L 90.000 139.000 L 86.080 153.000 L 79.000 149.760 L 76.000 135.000 Z" />
</g>
<g id="part-374">
<path d="M 2544.995 83.923 L 2543.612 89.618 L 2539.701 94.327 L 2533.939 97.238 L 2527.322 97.847 L 2520.995 96.048 L 2516.051 92.152 L 2513.344 86.834 L 2513.344 81.013 L 2516.051 75.694 L 2520.995 71.799 L 2527.322 70.000 L 2533.939 70.609 L 2539.701 73.519 L 2543.612 78.229 L 2544.995 83.923 Z" />
</g>
<g id="part-375">
<path d="M 1698.630 135.000 L 1722.630 135.000 L 1722.630 149.000 L 1698.630 149.000 L 1698.630 135.000 Z" />
</g>
<g id="part-376">
<path d="M 1429.855 107.000 L 1446.855 107.000 L 1446.855 130.000 L 1429.855 130.000 L 1429.855 107.000 Z" />
</g>
<g id="part-377">
<path d="M 3225.334 135.000 L 3235.334 135.000 L 3235.334 145.000 L 3225.334 145.000 L 3225.334 135.000 Z" />
</g>
<g id="part-378">
<path d="M 3012.886 107.000 L 3039.886 107.000 L 3039.886 126.000 L 3012.886 126.000 L 3012.886 107.000 Z" />
</g>
<g id="part-379">
<path d="M 2208.000 70.000 L 2228.000 70.000 L 2228.000 98.000 L 2208.000 98.000 L 2208.000 70.000 Z" />
</g>
<g id="part-380">
<path d="M 1220.000 70.000 L 1247.000 70.000 L 1247.000 99.000 L 1220.000 99.000 L 1220.000 70.000 Z" />
<path d="M 1228.640 79.280 L 1228.640 89.720 L 1238.360 89.720 L 1238.360 79.280 L 1228.640 79.280 Z" fill="#f7f7f2" fill-opacity="1" stroke="#163b5c" />
</g>
<g id="part-381">
<path d="M 346.000 12.000 L 388.000 12.000 L 388.000 64.000 L 346.000 64.000 L 346.000 12.000 Z" />
<path d="M 360.280 21.360 L 360.280 32.800 L 378.760 32.800 L 378.760 21.360 L 360.280 21.360 Z" fill="#f7f7f2" fill-opacity="1" stroke="#163b5c" />
<path d="M 360.280 43.200 L 360.280 54.640 L 378.760 54.640 L 378.760 43.200 L 360.280 43.200 Z" fill="#f7f7f2" fill-opacity="1" stroke="#163b5c" />
</g>
<g id="part-382">
<path d="M 2168.000 70.000 L 2206.000 70.000 L 2206.000 76.160 L 2180.920 76.160 L 2180.920 91.840 L 2206.000 91.840 L 2206.000 98.000 L 2168.000 98.000 L 2168.000 70.000 Z" />
</g>
<g id="part-383">
<path d="M 2548.855 107.000 L 2564.855 111.000 L 2560.375 127.000 L 2551.855 123.400 L 2548.855 107.000 Z" />
</g>
<g id="part-384">
<path d="M 2578.645 83.923 L 2577.262 89.618 L 2573.351 94.327 L 2567.589 97.238 L 2560.973 97.847 L 2554.645 96.048 L 2549.701 92.152 L 2546.995 86.834 L 2546.995 81.013 L 2549.701 75.694 L 2554.645 71.799 L 2560.973 70.000 L 2567.589 70.609 L 2573.351 73.519 L 2577.262 78.229 L 2578.645 83.923 Z" />
</g>
<g id="part-385">
<path d="M 800.000 135.000 L 826.000 135.000 L 826.000 151.000 L 800.000 151.000 L 800.000 135.000 Z" />
</g>
<g id="part-386">
<path d="M 539.000 107.000 L 558.000 107.000 L 558.000 132.000 L 539.000 132.000 L 539.000 107.000 Z" />
</g>
<g id="part-387">
<path d="M 2099.630 135.000 L 2111.630 135.000 L 2111.630 147.000 L 2099.630 147.000 L 2099.630 135.000 Z" />
</g>
<g id="part-388">
<path d="M 2140.855 107.000 L 2169.855 107.000 L 2169.855 128.000 L 2140.855 128.000 L 2140.855 107.000 Z" />
</g>
<g id="part-389">
<path d="M 594.000 155.000 L 616.000 155.000 L 616.000 163.000 L 594.000 163.000 L 594.000 155.000 Z" />
</g>
<g id="part-390">
<path d="M 711.000 70.000 L 740.000 70.000 L 740.000 101.000 L 711.000 101.000 L 711.000 70.000 Z" />
<path d="M 720.280 79.920 L 720.280 91.080 L 730.720 91.080 L 730.720 79.920 L 720.280 79.920 Z" fill="#f7f7f2" fill-opacity="1" stroke="#163b5c" />
</g>
<g id="part-391">
<path d="M 150.000 12.000 L 194.000 12.000 L 194.000 66.000 L 150.000 66.000 L 150.000 12.000 Z" />
<path d="M 164.960 21.720 L 164.960 33.600 L 184.320 33.600 L 184.320 21.720 L 164.960 21.720 Z" fill="#f7f7f2" fill-opacity="1" stroke="#163b5c" />
<path d="M 164.960 44.400 L 164.960 56.280 L 184.320 56.280 L 184.320 44.400 L 164.960 44.400 Z" fill="#f7f7f2" fill-opacity="1" stroke="#163b5c" />
</g>
<g id="part-392">
<path d="M 2042.000 70.000 L 2082.000 70.000 L 2082.000 76.160 L 2055.600 76.160 L 2055.600 91.840 L 2082.000 91.840 L 2082.000 98.000 L 2042.000 98.000 L 2042.000 70.000 Z" />
</g>
<g id="part-393">
<path d="M 1792.855 107.000 L 1810.855 111.000 L 1805.815 129.000 L 1795.855 125.040 L 1792.855 107.000 Z" />
</g>
<g id="part-394">
<path d="M 745.352 158.804 L 744.206 161.155 L 741.206 162.608 L 737.498 162.608 L 734.498 161.155 L 733.352 158.804 L 734.498 156.453 L 737.498 155.000 L 741.206 155.000 L 744.206 156.453 L 745.352 158.804 Z" />
</g>
<g id="part-395">
<path d="M 3253.886 107.000 L 3281.886 107.000 L 3281.886 125.000 L 3253.886 125.000 L 3253.886 107.000 Z" />
</g>
<g id="part-396">
<path d="M 2865.596 70.000 L 2886.596 70.000 L 2886.596 97.000 L 2865.596 97.000 L 2865.596 70.000 Z" />
</g>
<g id="part-397">
<path d="M 1580.630 135.000 L 1594.630 135.000 L 1594.630 149.000 L 1580.630 149.000 L 1580.630 135.000 Z" />
</g>
<g id="part-398">
<path d="M 1627.855 107.000 L 1658.855 107.000 L 1658.855 130.000 L 1627.855 130.000 L 1627.855 107.000 Z" />
</g>
<g id="part-399">
<path d="M 3199.334 135.000 L 3223.334 135.000 L 3223.334 145.000 L 3199.334 145.000 L 3199.334 135.000 Z" />
</g>
<g id="part-400">
<path d="M 506.000 70.000 L 537.000 70.000 L 537.000 103.000 L 506.000 103.000 L 506.000 70.000 Z" />
<path d="M 515.920 80.560 L 515.920 92.440 L 527.080 92.440 L 527.080 80.560 L 515.920 80.560 Z" fill="#f7f7f2" fill-opacity="1" stroke="#163b5c" />
</g>
<g id="part-401">
<path d="M 66.000 12.000 L 90.000 12.000 L 90.000 68.000 L 66.000 68.000 L 66.000 12.000 Z" />
<path d="M 74.160 22.080 L 74.160 34.400 L 84.720 34.400 L 84.720 22.080 L 74.160 22.080 Z" fill="#f7f7f2" fill-opacity="1" stroke="#163b5c" />
<path d="M 74.160 45.600 L 74.160 57.920 L 84.720 57.920 L 84.720 45.600 L 74.160 45.600 Z" fill="#f7f7f2" fill-opacity="1" stroke="#163b5c" />
</g>
<g id="part-402">
<path d="M 1085.000 70.000 L 1127.000 70.000 L 1127.000 76.380 L 1099.280 76.380 L 1099.280 92.620 L 1127.000 92.620 L 1127.000 99.000 L 1085.000 99.000 L 1085.000 70.000 Z" />
</g>
<g id="part-403">
<path d="M 674.000 107.000 L 694.000 111.000 L 688.400 131.000 L 677.000 126.680 L 674.000 107.000 Z" />
</g>
<g id="part-404">
<path d="M 2572.334 140.706 L 2571.188 144.233 L 2568.188 146.413 L 2564.480 146.413 L 2561.480 144.233 L 2560.334 140.706 L 2561.480 137.180 L 2564.480 135.000 L 2568.188 135.000 L 2571.188 137.180 L 2572.334 140.706 Z" />
</g>
<g id="part-405">
<path d="M 2432.855 107.000 L 2462.855 107.000 L 2462.855 127.000 L 2432.855 127.000 L 2432.855 107.000 Z" />
</g>
<g id="part-406">
<path d="M 1060.000 70.000 L 1083.000 70.000 L 1083.000 99.000 L 1060.000 99.000 L 1060.000 70.000 Z" />
</g>
<g id="part-407">
<path d="M 922.000 135.000 L 938.000 135.000 L 938.000 151.000 L 922.000 151.000 L 922.000 135.000 Z" />
</g>
<g id="part-408">
<path d="M 182.000 107.000 L 215.000 107.000 L 215.000 132.000 L 182.000 132.000 L 182.000 107.000 Z" />
</g>
<g id="part-409">
<path d="M 2143.630 135.000 L 2169.630 135.000 L 2169.630 147.000 L 2143.630 147.000 L 2143.630 135.000 Z" />
</g>
<g id="part-410">
<path d="M 109.000 70.000 L 142.000 70.000 L 142.000 105.000 L 109.000 105.000 L 109.000 70.000 Z" />
<path d="M 119.560 81.200 L 119.560 93.800 L 131.440 93.800 L 131.440 81.200 L 119.560 81.200 Z" fill="#f7f7f2" fill-opacity="1" stroke="#163b5c" />
</g>
<g id="part-411">
<path d="M 1693.000 12.000 L 1717.000 12.000 L 1717.000 54.000 L 1693.000 54.000 L 1693.000 12.000 Z" />
<path d="M 1701.160 19.560 L 1701.160 28.800 L 1711.720 28.800 L 1711.720 19.560 L 1701.160 19.560 Z" fill="#f7f7f2" fill-opacity="1" stroke="#163b5c" />
<path d="M 1701.160 37.200 L 1701.160 46.440 L 1711.720 46.440 L 1711.720 37.200 L 1701.160 37.200 Z" fill="#f7f7f2" fill-opacity="1" stroke="#163b5c" />
</g>
<g id="part-412">
<path d="M 595.000 70.000 L 639.000 70.000 L 639.000 76.820 L 609.960 76.820 L 609.960 94.180 L 639.000 94.180 L 639.000 101.000 L 595.000 101.000 L 595.000 70.000 Z" />
</g>
<g id="part-413">
<path d="M 158.000 107.000 L 180.000 111.000 L 173.840 133.000 L 161.000 128.320 L 158.000 107.000 Z" />
</g>
<g id="part-414">
<path d="M 2558.334 140.939 L 2557.064 144.183 L 2553.657 146.397 L 2549.195 146.878 L 2545.095 145.473 L 2542.658 142.629 L 2542.658 139.249 L 2545.095 136.404 L 2549.195 135.000 L 2553.657 135.481 L 2557.064 137.695 L 2558.334 140.939 Z" />
</g>
<g id="part-415">
<path d="M 1930.855 107.000 L 1962.855 107.000 L 1962.855 129.000 L 1930.855 129.000 L 1930.855 107.000 Z" />
</g>
<g id="part-416">
<path d="M 133.000 155.000 L 158.000 155.000 L 158.000 164.000 L 133.000 164.000 L 133.000 155.000 Z" />
</g>
<g id="part-417">
<path d="M 136.000 135.000 L 154.000 135.000 L 154.000 153.000 L 136.000 153.000 L 136.000 135.000 Z" />
</g>
<g id="part-418">
<path d="M 2950.596 70.000 L 2961.596 70.000 L 2961.596 97.000 L 2950.596 97.000 L 2950.596 70.000 Z" />
</g>
<g id="part-419">
<path d="M 1550.630 135.000 L 1578.630 135.000 L 1578.630 149.000 L 1550.630 149.000 L 1550.630 135.000 Z" />
</g>
<g id="part-420">
<path d="M 3179.000 12.000 L 3214.000 12.000 L 3214.000 49.000 L 3179.000 49.000 L 3179.000 12.000 Z" />
<path d="M 3190.200 23.840 L 3190.200 37.160 L 3202.800 37.160 L 3202.800 23.840 L 3190.200 23.840 Z" fill="#f7f7f2" fill-opacity="1" stroke="#163b5c" />
</g>
<g id="part-421">
<path d="M 1719.000 12.000 L 1745.000 12.000 L 1745.000 54.000 L 1719.000 54.000 L 1719.000 12.000 Z" />
<path d="M 1727.840 19.560 L 1727.840 28.800 L 1739.280 28.800 L 1739.280 19.560 L 1727.840 19.560 Z" fill="#f7f7f2" fill-opacity="1" stroke="#163b5c" />
<path d="M 1727.840 37.200 L 1727.840 46.440 L 1739.280 46.440 L 1739.280 37.200 L 1727.840 37.200 Z" fill="#f7f7f2" fill-opacity="1" stroke="#163b5c" />
</g>
<g id="part-422">
<path d="M 458.000 70.000 L 504.000 70.000 L 504.000 77.260 L 473.640 77.260 L 473.640 95.740 L 504.000 95.740 L 504.000 103.000 L 458.000 103.000 L 458.000 70.000 Z" />
</g>
<g id="part-423">
<path d="M 1850.000 70.000 L 1874.000 74.000 L 1867.280 98.000 L 1853.000 92.960 L 1850.000 70.000 Z" />
</g>
<g id="part-424">
<path d="M 1076.630 142.919 L 1075.360 147.244 L 1071.953 150.196 L 1067.491 150.837 L 1063.391 148.965 L 1060.954 145.172 L 1060.954 140.665 L 1063.391 136.873 L 1067.491 135.000 L 1071.953 135.642 L 1075.360 138.593 L 1076.630 142.919 Z" />
</g>
<g id="part-425">
<path d="M 720.000 107.000 L 730.000 107.000 L 730.000 131.000 L 720.000 131.000 L 720.000 107.000 Z" />
</g>
<g id="part-426">
<path d="M 2574.334 135.000 L 2601.334 135.000 L 2601.334 146.000 L 2574.334 146.000 L 2574.334 135.000 Z" />
</g>
<g id="part-427">
<path d="M 2374.855 107.000 L 2394.855 107.000 L 2394.855 127.000 L 2374.855 127.000 L 2374.855 107.000 Z" />
</g>
<g id="part-428">
<path d="M 1337.000 70.000 L 1350.000 70.000 L 1350.000 99.000 L 1337.000 99.000 L 1337.000 70.000 Z" />
</g>
<g id="part-429">
<path d="M 742.000 135.000 L 772.000 135.000 L 772.000 151.000 L 742.000 151.000 L 742.000 135.000 Z" />
</g>
<g id="part-430">
<path d="M 2626.000 12.000 L 2663.000 12.000 L 2663.000 51.000 L 2626.000 51.000 L 2626.000 12.000 Z" />
<path d="M 2637.840 24.480 L 2637.840 38.520 L 2651.160 38.520 L 2651.160 24.480 L 2637.840 24.480 Z" fill="#f7f7f2" fill-opacity="1" stroke="#163b5c" />
</g>
<g id="part-431">
<path d="M 1917.000 12.000 L 1945.000 12.000 L 1945.000 54.000 L 1917.000 54.000 L 1917.000 12.000 Z" />
<path d="M 1926.520 19.560 L 1926.520 28.800 L 1938.840 28.800 L 1938.840 19.560 L 1926.520 19.560 Z" fill="#f7f7f2" fill-opacity="1" stroke="#163b5c" />
<path d="M 1926.520 37.200 L 1926.520 46.440 L 1938.840 46.440 L 1938.840 37.200 L 1926.520 37.200 Z" fill="#f7f7f2" fill-opacity="1" stroke="#163b5c" />
</g>
<g id="part-432">
<path d="M 144.000 70.000 L 192.000 70.000 L 192.000 77.700 L 160.320 77.700 L 160.320 97.300 L 192.000 97.300 L 192.000 105.000 L 144.000 105.000 L 144.000 70.000 Z" />
</g>
<g id="part-433">
<path d="M 238.000 155.000 L 264.000 159.000 L 256.720 163.000 L 241.000 161.560 L 238.000 155.000 Z" />
</g>
<g id="part-434">
<path d="M 724.000 143.000 L 722.660 147.000 L 719.000 149.928 L 714.000 151.000 L 709.000 149.928 L 705.340 147.000 L 704.000 143.000 L 705.340 139.000 L 709.000 136.072 L 714.000 135.000 L 719.000 136.072 L 722.660 139.000 L 724.000 143.000 Z" />
</g>
<g id="part-435">
<path d="M 122.000 107.000 L 134.000 107.000 L 134.000 133.000 L 122.000 133.000 L 122.000 107.000 Z" />
</g>
<g id="part-436">
<path d="M 1921.630 135.000 L 1950.630 135.000 L 1950.630 148.000 L 1921.630 148.000 L 1921.630 135.000 Z" />
</g>
<g id="part-437">
<path d="M 1906.855 107.000 L 1928.855 107.000 L 1928.855 129.000 L 1906.855 129.000 L 1906.855 107.000 Z" />
</g>
<g id="part-438">
<path d="M 93.000 155.000 L 108.000 155.000 L 108.000 164.000 L 93.000 164.000 L 93.000 155.000 Z" />
</g>
<g id="part-439">
<path d="M 3219.886 107.000 L 3251.886 107.000 L 3251.886 125.000 L 3219.886 125.000 L 3219.886 107.000 Z" />
</g>
<g id="part-440">
<path d="M 2266.000 12.000 L 2305.000 12.000 L 2305.000 53.000 L 2266.000 53.000 L 2266.000 12.000 Z" />
<path d="M 2278.480 25.120 L 2278.480 39.880 L 2292.520 39.880 L 2292.520 25.120 L 2278.480 25.120 Z" fill="#f7f7f2" fill-opacity="1" stroke="#163b5c" />
</g>
<g id="part-441">
<path d="M 2151.000 12.000 L 2181.000 12.000 L 2181.000 54.000 L 2151.000 54.000 L 2151.000 12.000 Z" />
<path d="M 2161.200 19.560 L 2161.200 28.800 L 2174.400 28.800 L 2174.400 19.560 L 2161.200 19.560 Z" fill="#f7f7f2" fill-opacity="1" stroke="#163b5c" />
<path d="M 2161.200 37.200 L 2161.200 46.440 L 2174.400 46.440 L 2174.400 37.200 L 2161.200 37.200 Z" fill="#f7f7f2" fill-opacity="1" stroke="#163b5c" />
</g>
<g id="part-442">
<path d="M 3006.000 12.000 L 3032.000 12.000 L 3032.000 20.140 L 3014.840 20.140 L 3014.840 40.860 L 3032.000 40.860 L 3032.000 49.000 L 3006.000 49.000 L 3006.000 12.000 Z" />
</g>
<g id="part-443">
<path d="M 3149.334 135.000 L 3177.334 139.000 L 3169.494 145.000 L 3152.334 143.200 L 3149.334 135.000 Z" />
</g>
<g id="part-444">
<path d="M 2330.855 117.000 L 2329.515 122.000 L 2325.855 125.660 L 2320.855 127.000 L 2315.855 125.660 L 2312.194 122.000 L 2310.855 117.000 L 2312.194 112.000 L 2315.855 108.340 L 2320.855 107.000 L 2325.855 108.340 L 2329.515 112.000 L 2330.855 117.000 Z" />
</g>
<g id="part-445">
<path d="M 1508.000 70.000 L 1522.000 70.000 L 1522.000 98.000 L 1508.000 98.000 L 1508.000 70.000 Z" />
</g>
<g id="part-446">
<path d="M 1170.630 135.000 L 1201.630 135.000 L 1201.630 150.000 L 1170.630 150.000 L 1170.630 135.000 Z" />
</g>
<g id="part-447">
<path d="M 814.000 107.000 L 838.000 107.000 L 838.000 131.000 L 814.000 131.000 L 814.000 107.000 Z" />
</g>
<g id="part-448">
<path d="M 2663.334 135.000 L 2680.334 135.000 L 2680.334 146.000 L 2663.334 146.000 L 2663.334 135.000 Z" />
</g>
<g id="part-449">
<path d="M 2298.855 107.000 L 2308.855 107.000 L 2308.855 127.000 L 2298.855 127.000 L 2298.855 107.000 Z" />
</g>
<g id="part-450">
<path d="M 1541.000 12.000 L 1582.000 12.000 L 1582.000 55.000 L 1541.000 55.000 L 1541.000 12.000 Z" />
<path d="M 1554.120 25.760 L 1554.120 41.240 L 1568.880 41.240 L 1568.880 25.760 L 1554.120 25.760 Z" fill="#f7f7f2" fill-opacity="1" stroke="#163b5c" />
</g>
<g id="part-451">
<path d="M 1196.000 12.000 L 1228.000 12.000 L 1228.000 56.000 L 1196.000 56.000 L 1196.000 12.000 Z" />
<path d="M 1206.880 19.920 L 1206.880 29.600 L 1220.960 29.600 L 1220.960 19.920 L 1206.880 19.920 Z" fill="#f7f7f2" fill-opacity="1" stroke="#163b5c" />
<path d="M 1206.880 38.400 L 1206.880 48.080 L 1220.960 48.080 L 1220.960 38.400 L 1206.880 38.400 Z" fill="#f7f7f2" fill-opacity="1" stroke="#163b5c" />
</g>
<g id="part-452">
<path d="M 2896.000 12.000 L 2924.000 12.000 L 2924.000 20.580 L 2905.520 20.580 L 2905.520 42.420 L 2924.000 42.420 L 2924.000 51.000 L 2896.000 51.000 L 2896.000 12.000 Z" />
</g>
<g id="part-453">
<path d="M 2327.630 135.000 L 2357.630 139.000 L 2349.230 147.000 L 2330.630 144.840 L 2327.630 135.000 Z" />
</g>
<g id="part-454">
<path d="M 2858.584 116.927 L 2857.209 121.574 L 2853.401 125.157 L 2848.030 126.854 L 2842.329 126.277 L 2837.602 123.558 L 2834.933 119.320 L 2834.933 114.534 L 2837.602 110.296 L 2842.329 107.577 L 2848.030 107.000 L 2853.401 108.697 L 2857.209 112.280 L 2858.584 116.927 Z" />
</g>
<g id="part-455">
<path d="M 296.000 155.000 L 312.000 155.000 L 312.000 163.000 L 296.000 163.000 L 296.000 155.000 Z" />
</g>
<g id="part-456">
<path d="M 378.000 135.000 L 411.000 135.000 L 411.000 152.000 L 378.000 152.000 L 378.000 135.000 Z" />
</g>
<g id="part-457">
<path d="M 3194.596 70.000 L 3220.596 70.000 L 3220.596 96.000 L 3194.596 96.000 L 3194.596 70.000 Z" />
</g>
<g id="part-458">
<path d="M 1887.630 135.000 L 1906.630 135.000 L 1906.630 148.000 L 1887.630 148.000 L 1887.630 135.000 Z" />
</g>
<g id="part-459">
<path d="M 1978.855 107.000 L 1990.855 107.000 L 1990.855 129.000 L 1978.855 129.000 L 1978.855 107.000 Z" />
</g>
<g id="part-460">
<path d="M 1359.855 107.000 L 1402.855 107.000 L 1402.855 130.000 L 1359.855 130.000 L 1359.855 107.000 Z" />
<path d="M 1373.615 114.360 L 1373.615 122.640 L 1389.095 122.640 L 1389.095 114.360 L 1373.615 114.360 Z" fill="#f7f7f2" fill-opacity="1" stroke="#163b5c" />
</g>
<g id="part-461">
<path d="M 840.000 12.000 L 874.000 12.000 L 874.000 58.000 L 840.000 58.000 L 840.000 12.000 Z" />
<path d="M 851.560 20.280 L 851.560 30.400 L 866.520 30.400 L 866.520 20.280 L 851.560 20.280 Z" fill="#f7f7f2" fill-opacity="1" stroke="#163b5c" />
<path d="M 851.560 39.600 L 851.560 49.720 L 866.520 49.720 L 866.520 39.600 L 851.560 39.600 Z" fill="#f7f7f2" fill-opacity="1" stroke="#163b5c" />
</g>
<g id="part-462">
<path d="M 2307.000 12.000 L 2337.000 12.000 L 2337.000 21.020 L 2317.200 21.020 L 2317.200 43.980 L 2337.000 43.980 L 2337.000 53.000 L 2307.000 53.000 L 2307.000 12.000 Z" />
</g>
<g id="part-463">
<path d="M 1476.630 135.000 L 1508.630 139.000 L 1499.670 149.000 L 1479.630 146.480 L 1476.630 135.000 Z" />
</g>
<g id="part-464">
<path d="M 1260.855 118.913 L 1259.480 124.489 L 1255.671 128.788 L 1250.301 130.825 L 1244.599 130.133 L 1239.873 126.870 L 1237.203 121.784 L 1237.203 116.041 L 1239.873 110.955 L 1244.599 107.692 L 1250.301 107.000 L 1255.671 109.037 L 1259.480 113.336 L 1260.855 118.913 Z" />
</g>
<g id="part-465">
<path d="M 3179.334 135.000 L 3197.334 135.000 L 3197.334 145.000 L 3179.334 145.000 L 3179.334 135.000 Z" />
</g>
<g id="part-466">
<path d="M 2966.886 107.000 L 2977.886 107.000 L 2977.886 126.000 L 2966.886 126.000 L 2966.886 107.000 Z" />
</g>
<g id="part-467">
<path d="M 1426.000 70.000 L 1454.000 70.000 L 1454.000 98.000 L 1426.000 98.000 L 1426.000 70.000 Z" />
</g>
<g id="part-468">
<path d="M 1103.630 135.000 L 1124.630 135.000 L 1124.630 150.000 L 1103.630 150.000 L 1103.630 135.000 Z" />
</g>
<g id="part-469">
<path d="M 560.000 107.000 L 574.000 107.000 L 574.000 131.000 L 560.000 131.000 L 560.000 107.000 Z" />
</g>
<g id="part-470">
<path d="M 217.000 107.000 L 262.000 107.000 L 262.000 132.000 L 217.000 132.000 L 217.000 107.000 Z" />
<path d="M 231.400 115.000 L 231.400 124.000 L 247.600 124.000 L 247.600 115.000 L 231.400 115.000 Z" fill="#f7f7f2" fill-opacity="1" stroke="#163b5c" />
</g>
<g id="part-471">
<path d="M 630.000 12.000 L 666.000 12.000 L 666.000 60.000 L 630.000 60.000 L 630.000 12.000 Z" />
<path d="M 642.240 20.640 L 642.240 31.200 L 658.080 31.200 L 658.080 20.640 L 642.240 20.640 Z" fill="#f7f7f2" fill-opacity="1" stroke="#163b5c" />
<path d="M 642.240 40.800 L 642.240 51.360 L 658.080 51.360 L 658.080 40.800 L 642.240 40.800 Z" fill="#f7f7f2" fill-opacity="1" stroke="#163b5c" />
</g>
<g id="part-472">
<path d="M 1270.000 12.000 L 1302.000 12.000 L 1302.000 21.460 L 1280.880 21.460 L 1280.880 45.540 L 1302.000 45.540 L 1302.000 55.000 L 1270.000 55.000 L 1270.000 12.000 Z" />
</g>
<g id="part-473">
<path d="M 692.000 135.000 L 702.000 139.000 L 699.200 151.000 L 695.000 148.120 L 692.000 135.000 Z" />
</g>
<g id="part-474">
<path d="M 997.694 118.934 L 996.484 123.815 L 993.062 127.852 L 988.020 130.347 L 982.231 130.869 L 976.694 129.327 L 972.368 125.988 L 970.000 121.429 L 970.000 116.439 L 972.368 111.881 L 976.694 108.542 L 982.231 107.000 L 988.020 107.522 L 993.062 110.017 L 996.484 114.053 L 997.694 118.934 Z" />
</g>
<g id="part-475">
<path d="M 2213.630 135.000 L 2233.630 135.000 L 2233.630 147.000 L 2213.630 147.000 L 2213.630 135.000 Z" />
</g>
<g id="part-476">
<path d="M 2213.855 107.000 L 2226.855 107.000 L 2226.855 128.000 L 2213.855 128.000 L 2213.855 107.000 Z" />
</g>
<g id="part-477">
<path d="M 418.000 155.000 L 448.000 155.000 L 448.000 163.000 L 418.000 163.000 L 418.000 155.000 Z" />
</g>
<g id="part-478">
<path d="M 353.000 135.000 L 376.000 135.000 L 376.000 152.000 L 353.000 152.000 L 353.000 135.000 Z" />
</g>
<g id="part-479">
<path d="M 12.000 107.000 L 28.000 107.000 L 28.000 133.000 L 12.000 133.000 L 12.000 107.000 Z" />
</g>
<g id="part-480">
<path d="M 2714.596 70.000 L 2761.596 70.000 L 2761.596 97.000 L 2714.596 97.000 L 2714.596 70.000 Z" />
<path d="M 2729.636 78.640 L 2729.636 88.360 L 2746.556 88.360 L 2746.556 78.640 L 2729.636 78.640 Z" fill="#f7f7f2" fill-opacity="1" stroke="#163b5c" />
</g>
<g id="part-481">
<path d="M 590.000 12.000 L 628.000 12.000 L 628.000 62.000 L 590.000 62.000 L 590.000 12.000 Z" />
<path d="M 602.920 21.000 L 602.920 32.000 L 619.640 32.000 L 619.640 21.000 L 602.920 21.000 Z" fill="#f7f7f2" fill-opacity="1" stroke="#163b5c" />
<path d="M 602.920 42.000 L 602.920 53.000 L 619.640 53.000 L 619.640 42.000 L 602.920 42.000 Z" fill="#f7f7f2" fill-opacity="1" stroke="#163b5c" />
</g>
<g id="part-482">
<path d="M 1538.000 70.000 L 1572.000 70.000 L 1572.000 76.160 L 1549.560 76.160 L 1549.560 91.840 L 1572.000 91.840 L 1572.000 98.000 L 1538.000 98.000 L 1538.000 70.000 Z" />
</g>
<g id="part-483">
<path d="M 122.000 135.000 L 134.000 139.000 L 130.640 153.000 L 125.000 149.760 L 122.000 135.000 Z" />
</g>
<g id="part-484">
<path d="M 2477.694 83.923 L 2476.484 89.618 L 2473.062 94.327 L 2468.020 97.238 L 2462.231 97.847 L 2456.694 96.048 L 2452.368 92.152 L 2450.000 86.834 L 2450.000 81.013 L 2452.368 75.694 L 2456.694 71.799 L 2462.231 70.000 L 2468.020 70.609 L 2473.062 73.519 L 2476.484 78.229 L 2477.694 83.923 Z" />
</g>
<g id="part-485">
<path d="M 1614.630 135.000 L 1636.630 135.000 L 1636.630 149.000 L 1614.630 149.000 L 1614.630 135.000 Z" />
</g>
<g id="part-486">
<path d="M 1568.855 107.000 L 1583.855 107.000 L 1583.855 130.000 L 1568.855 130.000 L 1568.855 107.000 Z" />
</g>
<g id="part-487">
<path d="M 3101.334 135.000 L 3133.334 135.000 L 3133.334 145.000 L 3101.334 145.000 L 3101.334 135.000 Z" />
</g>
<g id="part-488">
<path d="M 3124.886 107.000 L 3149.886 107.000 L 3149.886 126.000 L 3124.886 126.000 L 3124.886 107.000 Z" />
</g>
<g id="part-489">
<path d="M 1592.000 70.000 L 1610.000 70.000 L 1610.000 98.000 L 1592.000 98.000 L 1592.000 70.000 Z" />
</g>
<g id="part-490">
<path d="M 1193.000 70.000 L 1218.000 70.000 L 1218.000 99.000 L 1193.000 99.000 L 1193.000 70.000 Z" />
<path d="M 1201.000 79.280 L 1201.000 89.720 L 1210.000 89.720 L 1210.000 79.280 L 1201.000 79.280 Z" fill="#f7f7f2" fill-opacity="1" stroke="#163b5c" />
</g>
<g id="part-491">
<path d="M 390.000 12.000 L 430.000 12.000 L 430.000 64.000 L 390.000 64.000 L 390.000 12.000 Z" />
<path d="M 403.600 21.360 L 403.600 32.800 L 421.200 32.800 L 421.200 21.360 L 403.600 21.360 Z" fill="#f7f7f2" fill-opacity="1" stroke="#163b5c" />
<path d="M 403.600 43.200 L 403.600 54.640 L 421.200 54.640 L 421.200 43.200 L 403.600 43.200 Z" fill="#f7f7f2" fill-opacity="1" stroke="#163b5c" />
</g>
<g id="part-492">
<path d="M 1770.000 70.000 L 1806.000 70.000 L 1806.000 76.160 L 1782.240 76.160 L 1782.240 91.840 L 1806.000 91.840 L 1806.000 98.000 L 1770.000 98.000 L 1770.000 70.000 Z" />
</g>
<g id="part-493">
<path d="M 2262.855 107.000 L 2276.855 111.000 L 2272.935 127.000 L 2265.855 123.400 L 2262.855 107.000 Z" />
</g>
<g id="part-494">
<path d="M 2511.344 83.923 L 2509.961 89.618 L 2506.051 94.327 L 2500.289 97.238 L 2493.672 97.847 L 2487.344 96.048 L 2482.400 92.152 L 2479.694 86.834 L 2479.694 81.013 L 2482.400 75.694 L 2487.344 71.799 L 2493.672 70.000 L 2500.289 70.609 L 2506.051 73.519 L 2509.961 78.229 L 2511.344 83.923 Z" />
</g>
<g id="part-495">
<path d="M 940.000 135.000 L 964.000 135.000 L 964.000 151.000 L 940.000 151.000 L 940.000 135.000 Z" />
</g>
<g id="part-496">
<path d="M 264.000 107.000 L 281.000 107.000 L 281.000 132.000 L 264.000 132.000 L 264.000 107.000 Z" />
</g>
<g id="part-497">
<path d="M 1981.630 135.000 L 1991.630 135.000 L 1991.630 147.000 L 1981.630 147.000 L 1981.630 135.000 Z" />
</g>
<g id="part-498">
<path d="M 2043.855 107.000 L 2070.855 107.000 L 2070.855 128.000 L 2043.855 128.000 L 2043.855 107.000 Z" />
</g>
<g id="part-499">
<path d="M 662.000 155.000 L 682.000 155.000 L 682.000 163.000 L 662.000 163.000 L 662.000 155.000 Z" />
</g>
</g>
<text x="10" y="20" font-size="14" fill="#222">mixed_500_parts / Fast</text>
</svg>
