<svg xmlns="http://www.w3.org/2000/svg" width="2250.000" height="1450.000" viewBox="0 0 2250.000 1450.000">
<rect x="0" y="0" width="2250.000" height="1450.000" fill="#f7f7f2" />
<g fill="none" stroke="#2a2a2a" stroke-width="1.2">
<path d="M 0.000 0.000 L 2250.000 0.000 L 2250.000 1450.000 L 0.000 1450.000 L 0.000 0.000 Z" stroke="#1f5f8b" />
</g>
<g fill="#86b8e7" fill-opacity="0.58" stroke="#163b5c" stroke-width="0.8">
<g id="part-0">
<path d="M 1976.000 10.000 L 2011.000 10.000 L 2011.000 41.000 L 1976.000 41.000 L 1976.000 10.000 Z" />
<path d="M 1987.200 19.920 L 1987.200 31.080 L 1999.800 31.080 L 1999.800 19.920 L 1987.200 19.920 Z" fill="#f7f7f2" fill-opacity="1" stroke="#163b5c" />
</g>
<g id="part-1">
<path d="M 94.000 10.000 L 120.000 10.000 L 120.000 64.000 L 94.000 64.000 L 94.000 10.000 Z" />
<path d="M 102.840 19.720 L 102.840 31.600 L 114.280 31.600 L 114.280 19.720 L 102.840 19.720 Z" fill="#f7f7f2" fill-opacity="1" stroke="#163b5c" />
<path d="M 102.840 42.400 L 102.840 54.280 L 114.280 54.280 L 114.280 42.400 L 102.840 42.400 Z" fill="#f7f7f2" fill-opacity="1" stroke="#163b5c" />
</g>
<g id="part-2">
<path d="M 441.000 58.000 L 487.000 58.000 L 487.000 64.160 L 456.640 64.160 L 456.640 79.840 L 487.000 79.840 L 487.000 86.000 L 441.000 86.000 L 441.000 58.000 Z" />
</g>
<g id="part-3">
<path d="M 202.000 99.000 L 226.000 103.000 L 219.280 121.000 L 205.000 117.040 L 202.000 99.000 Z" />
</g>
<g id="part-4">
<path d="M 909.380 124.959 L 908.110 127.122 L 904.703 128.598 L 900.241 128.919 L 896.141 127.982 L 893.704 126.086 L 893.704 123.832 L 896.141 121.936 L 900.241 121.000 L 904.703 121.321 L 908.110 122.797 L 909.380 124.959 Z" />
</g>
<g id="part-5">
<path d="M 1072.734 97.000 L 1082.734 97.000 L 1082.734 115.000 L 1072.734 115.000 L 1072.734 97.000 Z" />
</g>
<g id="part-6">
<path d="M 1053.257 54.000 L 1080.257 54.000 L 1080.257 81.000 L 1053.257 81.000 L 1053.257 54.000 Z" />
</g>
<g id="part-7">
<path d="M 1671.687 94.000 L 1691.687 94.000 L 1691.687 108.000 L 1671.687 108.000 L 1671.687 94.000 Z" />
</g>
<g id="part-8">
<path d="M 116.000 99.000 L 129.000 99.000 L 129.000 122.000 L 116.000 122.000 L 116.000 99.000 Z" />
</g>
<g id="part-9">
<path d="M 365.028 124.000 L 395.028 124.000 L 395.028 134.000 L 365.028 134.000 L 365.028 124.000 Z" />
</g>
<g id="part-10">
<path d="M 1709.000 10.000 L 1746.000 10.000 L 1746.000 43.000 L 1709.000 43.000 L 1709.000 10.000 Z" />
<path d="M 1720.840 20.560 L 1720.840 32.440 L 1734.160 32.440 L 1734.160 20.560 L 1720.840 20.560 Z" fill="#f7f7f2" fill-opacity="1" stroke="#163b5c" />
</g>
<g id="part-11">
<path d="M 10.000 10.000 L 38.000 10.000 L 38.000 66.000 L 10.000 66.000 L 10.000 10.000 Z" />
<path d="M 19.520 20.080 L 19.520 32.400 L 31.840 32.400 L 31.840 20.080 L 19.520 20.080 Z" fill="#f7f7f2" fill-opacity="1" stroke="#163b5c" />
<path d="M 19.520 43.600 L 19.520 55.920 L 31.840 55.920 L 31.840 43.600 L 19.520 43.600 Z" fill="#f7f7f2" fill-opacity="1" stroke="#163b5c" />
</g>
<g id="part-12">
<path d="M 106.000 66.000 L 154.000 66.000 L 154.000 72.380 L 122.320 72.380 L 122.320 88.620 L 154.000 88.620 L 154.000 95.000 L 106.000 95.000 L 106.000 66.000 Z" />
</g>
<g id="part-13">
<path d="M 1659.257 47.000 L 1685.257 51.000 L 1677.977 71.000 L 1662.257 66.680 L 1659.257 47.000 Z" />
</g>
<g id="part-14">
<path d="M 100.000 132.000 L 98.660 135.000 L 95.000 137.196 L 90.000 138.000 L 85.000 137.196 L 81.340 135.000 L 80.000 132.000 L 81.340 129.000 L 85.000 126.804 L 90.000 126.000 L 95.000 126.804 L 98.660 129.000 L 100.000 132.000 Z" />
</g>
<g id="part-15">
<path d="M 626.000 98.000 L 638.000 98.000 L 638.000 118.000 L 626.000 118.000 L 626.000 98.000 Z" />
</g>
<g id="part-16">
<path d="M 283.000 62.000 L 312.000 62.000 L 312.000 91.000 L 283.000 91.000 L 283.000 62.000 Z" />
</g>
<g id="part-17">
<path d="M 1238.734 96.000 L 1260.734 96.000 L 1260.734 112.000 L 1238.734 112.000 L 1238.734 96.000 Z" />
</g>
<g id="part-18">
<path d="M 1552.257 68.000 L 1567.257 68.000 L 1567.257 93.000 L 1552.257 93.000 L 1552.257 68.000 Z" />
</g>
<g id="part-19">
<path d="M 1873.687 101.000 L 1905.687 101.000 L 1905.687 113.000 L 1873.687 113.000 L 1873.687 101.000 Z" />
</g>
<g id="part-20">
<path d="M 1530.000 10.000 L 1569.000 10.000 L 1569.000 45.000 L 1530.000 45.000 L 1530.000 10.000 Z" />
<path d="M 1542.480 21.200 L 1542.480 33.800 L 1556.520 33.800 L 1556.520 21.200 L 1542.480 21.200 Z" fill="#f7f7f2" fill-opacity="1" stroke="#163b5c" />
</g>
<g id="part-21">
<path d="M 966.000 10.000 L 996.000 10.000 L 996.000 52.000 L 966.000 52.000 L 966.000 10.000 Z" />
<path d="M 976.200 17.560 L 976.200 26.800 L 989.400 26.800 L 989.400 17.560 L 976.200 17.560 Z" fill="#f7f7f2" fill-opacity="1" stroke="#163b5c" />
<path d="M 976.200 35.200 L 976.200 44.440 L 989.400 44.440 L 989.400 35.200 L 976.200 35.200 Z" fill="#f7f7f2" fill-opacity="1" stroke="#163b5c" />
</g>
<g id="part-22">
<path d="M 78.000 68.000 L 104.000 68.000 L 104.000 74.820 L 86.840 74.820 L 86.840 92.180 L 104.000 92.180 L 104.000 99.000 L 78.000 99.000 L 78.000 68.000 Z" />
</g>
<g id="part-23">
<path d="M 1280.257 68.000 L 1308.257 72.000 L 1300.417 94.000 L 1283.257 89.320 L 1280.257 68.000 Z" />
</g>
<g id="part-24">
<path d="M 56.000 132.000 L 54.660 135.000 L 51.000 137.196 L 46.000 138.000 L 41.000 137.196 L 37.340 135.000 L 36.000 132.000 L 37.340 129.000 L 41.000 126.804 L 46.000 126.000 L 51.000 126.804 L 54.660 129.000 L 56.000 132.000 Z" />
</g>
<g id="part-25">
<path d="M 312.000 101.000 L 326.000 101.000 L 326.000 123.000 L 312.000 123.000 L 312.000 101.000 Z" />
</g>
<g id="part-26">
<path d="M 547.028 126.000 L 578.028 126.000 L 578.028 135.000 L 547.028 135.000 L 547.028 126.000 Z" />
</g>
<g id="part-27">
<path d="M 932.734 101.000 L 956.734 101.000 L 956.734 119.000 L 932.734 119.000 L 932.734 101.000 Z" />
</g>
<g id="part-28">
<path d="M 1163.257 68.000 L 1180.257 68.000 L 1180.257 95.000 L 1163.257 95.000 L 1163.257 68.000 Z" />
</g>
<g id="part-29">
<path d="M 1761.687 101.000 L 1771.687 101.000 L 1771.687 115.000 L 1761.687 115.000 L 1761.687 101.000 Z" />
</g>
<g id="part-30">
<path d="M 1380.000 10.000 L 1421.000 10.000 L 1421.000 47.000 L 1380.000 47.000 L 1380.000 10.000 Z" />
<path d="M 1393.120 21.840 L 1393.120 35.160 L 1407.880 35.160 L 1407.880 21.840 L 1393.120 21.840 Z" fill="#f7f7f2" fill-opacity="1" stroke="#163b5c" />
</g>
<g id="part-31">
<path d="M 900.000 10.000 L 932.000 10.000 L 932.000 52.000 L 900.000 52.000 L 900.000 10.000 Z" />
<path d="M 910.880 17.560 L 910.880 26.800 L 924.960 26.800 L 924.960 17.560 L 910.880 17.560 Z" fill="#f7f7f2" fill-opacity="1" stroke="#163b5c" />
<path d="M 910.880 35.200 L 910.880 44.440 L 924.960 44.440 L 924.960 35.200 L 910.880 35.200 Z" fill="#f7f7f2" fill-opacity="1" stroke="#163b5c" />
</g>
<g id="part-32">
<path d="M 1820.000 10.000 L 1848.000 10.000 L 1848.000 17.260 L 1829.520 17.260 L 1829.520 35.740 L 1848.000 35.740 L 1848.000 43.000 L 1820.000 43.000 L 1820.000 10.000 Z" />
</g>
<g id="part-33">
<path d="M 781.000 68.000 L 811.000 72.000 L 802.600 96.000 L 784.000 90.960 L 781.000 68.000 Z" />
</g>
<g id="part-34">
<path d="M 1461.687 108.942 L 1460.313 112.659 L 1456.504 115.526 L 1451.134 116.883 L 1445.432 116.422 L 1440.705 114.247 L 1438.036 110.856 L 1438.036 107.027 L 1440.705 103.637 L 1445.432 101.462 L 1451.134 101.000 L 1456.504 102.358 L 1460.313 105.224 L 1461.687 108.942 Z" />
</g>
<g id="part-35">
<path d="M 1779.257 68.000 L 1795.257 68.000 L 1795.257 92.000 L 1779.257 92.000 L 1779.257 68.000 Z" />
</g>
<g id="part-36">
<path d="M 215.028 126.000 L 248.028 126.000 L 248.028 137.000 L 215.028 137.000 L 215.028 126.000 Z" />
</g>
<g id="part-37">
<path d="M 496.000 101.000 L 522.000 101.000 L 522.000 121.000 L 496.000 121.000 L 496.000 101.000 Z" />
</g>
<g id="part-38">
<path d="M 401.000 68.000 L 420.000 68.000 L 420.000 97.000 L 401.000 97.000 L 401.000 68.000 Z" />
</g>
<g id="part-39">
<path d="M 1360.734 101.000 L 1372.734 101.000 L 1372.734 117.000 L 1360.734 117.000 L 1360.734 101.000 Z" />
</g>
<g id="part-40">
<path d="M 1222.000 10.000 L 1265.000 10.000 L 1265.000 49.000 L 1222.000 49.000 L 1222.000 10.000 Z" />
<path d="M 1235.760 22.480 L 1235.760 36.520 L 1251.240 36.520 L 1251.240 22.480 L 1235.760 22.480 Z" fill="#f7f7f2" fill-opacity="1" stroke="#163b5c" />
</g>
<g id="part-41">
<path d="M 830.000 10.000 L 864.000 10.000 L 864.000 52.000 L 830.000 52.000 L 830.000 10.000 Z" />
<path d="M 841.560 17.560 L 841.560 26.800 L 856.520 26.800 L 856.520 17.560 L 841.560 17.560 Z" fill="#f7f7f2" fill-opacity="1" stroke="#163b5c" />
<path d="M 841.560 35.200 L 841.560 44.440 L 856.520 44.440 L 856.520 35.200 L 841.560 35.200 Z" fill="#f7f7f2" fill-opacity="1" stroke="#163b5c" />
</g>
<g id="part-42">
<path d="M 1647.000 10.000 L 1677.000 10.000 L 1677.000 17.700 L 1657.200 17.700 L 1657.200 37.300 L 1677.000 37.300 L 1677.000 45.000 L 1647.000 45.000 L 1647.000 10.000 Z" />
</g>
<g id="part-43">
<path d="M 684.028 126.000 L 716.028 130.000 L 707.068 134.000 L 687.028 132.560 L 684.028 126.000 Z" />
</g>
<g id="part-44">
<path d="M 1410.385 108.942 L 1409.010 112.659 L 1405.202 115.526 L 1399.831 116.883 L 1394.130 116.422 L 1389.403 114.247 L 1386.734 110.856 L 1386.734 107.027 L 1389.403 103.637 L 1394.130 101.462 L 1399.831 101.000 L 1405.202 102.358 L 1409.010 105.224 L 1410.385 108.942 Z" />
</g>
<g id="part-45">
<path d="M 1410.257 68.000 L 1428.257 68.000 L 1428.257 94.000 L 1410.257 94.000 L 1410.257 68.000 Z" />
</g>
<g id="part-46">
<path d="M 1860.687 101.000 L 1871.687 101.000 L 1871.687 114.000 L 1860.687 114.000 L 1860.687 101.000 Z" />
</g>
<g id="part-47">
<path d="M 144.000 101.000 L 172.000 101.000 L 172.000 123.000 L 144.000 123.000 L 144.000 101.000 Z" />
</g>
<g id="part-48">
<path d="M 640.028 126.000 L 661.028 126.000 L 661.028 135.000 L 640.028 135.000 L 640.028 126.000 Z" />
</g>
<g id="part-49">
<path d="M 1042.734 101.000 L 1056.734 101.000 L 1056.734 119.000 L 1042.734 119.000 L 1042.734 101.000 Z" />
</g>
<g id="part-50">
<path d="M 1056.000 10.000 L 1101.000 10.000 L 1101.000 51.000 L 1056.000 51.000 L 1056.000 10.000 Z" />
<path d="M 1070.400 23.120 L 1070.400 37.880 L 1086.600 37.880 L 1086.600 23.120 L 1070.400 23.120 Z" fill="#f7f7f2" fill-opacity="1" stroke="#163b5c" />
</g>
<g id="part-51">
<path d="M 756.000 10.000 L 792.000 10.000 L 792.000 52.000 L 756.000 52.000 L 756.000 10.000 Z" />
<path d="M 768.240 17.560 L 768.240 26.800 L 784.080 26.800 L 784.080 17.560 L 768.240 17.560 Z" fill="#f7f7f2" fill-opacity="1" stroke="#163b5c" />
<path d="M 768.240 35.200 L 768.240 44.440 L 784.080 44.440 L 784.080 35.200 L 768.240 35.200 Z" fill="#f7f7f2" fill-opacity="1" stroke="#163b5c" />
</g>
<g id="part-52">
<path d="M 1464.000 10.000 L 1496.000 10.000 L 1496.000 18.140 L 1474.880 18.140 L 1474.880 38.860 L 1496.000 38.860 L 1496.000 47.000 L 1464.000 47.000 L 1464.000 10.000 Z" />
</g>
<g id="part-53">
<path d="M 535.028 126.000 L 545.028 130.000 L 542.228 136.000 L 538.028 134.200 L 535.028 126.000 Z" />
</g>
<g id="part-54">
<path d="M 709.388 110.945 L 708.178 115.013 L 704.756 118.377 L 699.714 120.456 L 693.925 120.890 L 688.388 119.605 L 684.062 116.823 L 681.694 113.024 L 681.694 108.866 L 684.062 105.067 L 688.388 102.285 L 693.925 101.000 L 699.714 101.435 L 704.756 103.514 L 708.178 106.878 L 709.388 110.945 Z" />
</g>
<g id="part-55">
<path d="M 893.000 68.000 L 913.000 68.000 L 913.000 96.000 L 893.000 96.000 L 893.000 68.000 Z" />
</g>
<g id="part-56">
<path d="M 1519.687 101.000 L 1532.687 101.000 L 1532.687 116.000 L 1519.687 116.000 L 1519.687 101.000 Z" />
</g>
<g id="part-57">
<path d="M 1597.257 68.000 L 1627.257 68.000 L 1627.257 92.000 L 1597.257 92.000 L 1597.257 68.000 Z" />
</g>
<g id="part-58">
<path d="M 283.028 126.000 L 306.028 126.000 L 306.028 137.000 L 283.028 137.000 L 283.028 126.000 Z" />
</g>
<g id="part-59">
<path d="M 592.000 101.000 L 608.000 101.000 L 608.000 121.000 L 592.000 121.000 L 592.000 101.000 Z" />
</g>
<g id="part-60">
<path d="M 582.000 10.000 L 629.000 10.000 L 629.000 53.000 L 582.000 53.000 L 582.000 10.000 Z" />
<path d="M 597.040 23.760 L 597.040 39.240 L 613.960 39.240 L 613.960 23.760 L 597.040 23.760 Z" fill="#f7f7f2" fill-opacity="1" stroke="#163b5c" />
</g>
<g id="part-61">
<path d="M 504.000 10.000 L 542.000 10.000 L 542.000 54.000 L 504.000 54.000 L 504.000 10.000 Z" />
<path d="M 516.920 17.920 L 516.920 27.600 L 533.640 27.600 L 533.640 17.920 L 516.920 17.920 Z" fill="#f7f7f2" fill-opacity="1" stroke="#163b5c" />
<path d="M 516.920 36.400 L 516.920 46.080 L 533.640 46.080 L 533.640 36.400 L 516.920 36.400 Z" fill="#f7f7f2" fill-opacity="1" stroke="#163b5c" />
</g>
<g id="part-62">
<path d="M 1310.000 10.000 L 1344.000 10.000 L 1344.000 18.580 L 1321.560 18.580 L 1321.560 40.420 L 1344.000 40.420 L 1344.000 49.000 L 1310.000 49.000 L 1310.000 10.000 Z" />
</g>
<g id="part-63">
<path d="M 136.000 126.000 L 148.000 130.000 L 144.640 138.000 L 139.000 135.840 L 136.000 126.000 Z" />
</g>
<g id="part-64">
<path d="M 679.694 110.945 L 678.484 115.013 L 675.062 118.377 L 670.020 120.456 L 664.231 120.890 L 658.694 119.605 L 654.368 116.823 L 652.000 113.024 L 652.000 108.866 L 654.368 105.067 L 658.694 102.285 L 664.231 101.000 L 670.020 101.435 L 675.062 103.514 L 678.484 106.878 L 679.694 110.945 Z" />
</g>
<g id="part-65">
<path d="M 804.028 126.000 L 826.028 126.000 L 826.028 134.000 L 804.028 134.000 L 804.028 126.000 Z" />
</g>
<g id="part-66">
<path d="M 1144.734 101.000 L 1159.734 101.000 L 1159.734 118.000 L 1144.734 118.000 L 1144.734 101.000 Z" />
</g>
<g id="part-67">
<path d="M 1214.257 68.000 L 1246.257 68.000 L 1246.257 94.000 L 1214.257 94.000 L 1214.257 68.000 Z" />
</g>
<g id="part-68">
<path d="M 1808.687 101.000 L 1833.687 101.000 L 1833.687 114.000 L 1808.687 114.000 L 1808.687 101.000 Z" />
</g>
<g id="part-69">
<path d="M 274.000 101.000 L 292.000 101.000 L 292.000 123.000 L 274.000 123.000 L 274.000 101.000 Z" />
</g>
<g id="part-70">
<path d="M 45.000 101.000 L 70.000 101.000 L 70.000 124.000 L 45.000 124.000 L 45.000 101.000 Z" />
<path d="M 53.000 108.360 L 53.000 116.640 L 62.000 116.640 L 62.000 108.360 L 53.000 108.360 Z" fill="#f7f7f2" fill-opacity="1" stroke="#163b5c" />
</g>
<g id="part-71">
<path d="M 422.000 10.000 L 462.000 10.000 L 462.000 56.000 L 422.000 56.000 L 422.000 10.000 Z" />
<path d="M 435.600 18.280 L 435.600 28.400 L 453.200 28.400 L 453.200 18.280 L 435.600 18.280 Z" fill="#f7f7f2" fill-opacity="1" stroke="#163b5c" />
<path d="M 435.600 37.600 L 435.600 47.720 L 453.200 47.720 L 453.200 37.600 L 435.600 37.600 Z" fill="#f7f7f2" fill-opacity="1" stroke="#163b5c" />
</g>
<g id="part-72">
<path d="M 1148.000 10.000 L 1184.000 10.000 L 1184.000 19.020 L 1160.240 19.020 L 1160.240 41.980 L 1184.000 41.980 L 1184.000 51.000 L 1148.000 51.000 L 1148.000 10.000 Z" />
</g>
<g id="part-73">
<path d="M 1731.687 101.000 L 1745.687 105.000 L 1741.767 115.000 L 1734.687 112.480 L 1731.687 101.000 Z" />
</g>
<g id="part-74">
<path d="M 1844.907 79.934 L 1843.524 84.815 L 1839.613 88.852 L 1833.852 91.347 L 1827.235 91.869 L 1820.907 90.327 L 1815.963 86.988 L 1813.257 82.429 L 1813.257 77.439 L 1815.963 72.881 L 1820.907 69.542 L 1827.235 68.000 L 1833.852 68.522 L 1839.613 71.017 L 1843.524 75.053 L 1844.907 79.934 Z" />
</g>
<g id="part-75">
<path d="M 455.028 126.000 L 479.028 126.000 L 479.028 136.000 L 455.028 136.000 L 455.028 126.000 Z" />
</g>
<g id="part-76">
<path d="M 830.734 101.000 L 847.734 101.000 L 847.734 120.000 L 830.734 120.000 L 830.734 101.000 Z" />
</g>
<g id="part-77">
<path d="M 935.000 68.000 L 945.000 68.000 L 945.000 96.000 L 935.000 96.000 L 935.000 68.000 Z" />
</g>
<g id="part-78">
<path d="M 1463.687 101.000 L 1490.687 101.000 L 1490.687 116.000 L 1463.687 116.000 L 1463.687 101.000 Z" />
</g>
<g id="part-79">
<path d="M 1737.257 68.000 L 1757.257 68.000 L 1757.257 92.000 L 1737.257 92.000 L 1737.257 68.000 Z" />
</g>
<g id="part-80">
<path d="M 1448.257 68.000 L 1475.257 68.000 L 1475.257 93.000 L 1448.257 93.000 L 1448.257 68.000 Z" />
<path d="M 1456.897 76.000 L 1456.897 85.000 L 1466.617 85.000 L 1466.617 76.000 L 1456.897 76.000 Z" fill="#f7f7f2" fill-opacity="1" stroke="#163b5c" />
</g>
<g id="part-81">
<path d="M 336.000 10.000 L 378.000 10.000 L 378.000 58.000 L 336.000 58.000 L 336.000 10.000 Z" />
<path d="M 350.280 18.640 L 350.280 29.200 L 368.760 29.200 L 368.760 18.640 L 350.280 18.640 Z" fill="#f7f7f2" fill-opacity="1" stroke="#163b5c" />
<path d="M 350.280 38.800 L 350.280 49.360 L 368.760 49.360 L 368.760 38.800 L 350.280 38.800 Z" fill="#f7f7f2" fill-opacity="1" stroke="#163b5c" />
</g>
<g id="part-82">
<path d="M 678.000 10.000 L 716.000 10.000 L 716.000 19.460 L 690.920 19.460 L 690.920 43.540 L 716.000 43.540 L 716.000 53.000 L 678.000 53.000 L 678.000 10.000 Z" />
</g>
<g id="part-83">
<path d="M 1326.734 101.000 L 1342.734 105.000 L 1338.254 117.000 L 1329.734 114.120 L 1326.734 101.000 Z" />
</g>
<g id="part-84">
<path d="M 1912.208 79.934 L 1910.825 84.815 L 1906.914 88.852 L 1901.152 91.347 L 1894.536 91.869 L 1888.208 90.327 L 1883.264 86.988 L 1880.558 82.429 L 1880.558 77.439 L 1883.264 72.881 L 1888.208 69.542 L 1894.536 68.000 L 1901.152 68.522 L 1906.914 71.017 L 1910.825 75.053 L 1912.208 79.934 Z" />
</g>
<g id="part-85">
<path d="M 1969.687 101.000 L 1995.687 101.000 L 1995.687 113.000 L 1969.687 113.000 L 1969.687 101.000 Z" />
</g>
<g id="part-86">
<path d="M 422.000 101.000 L 441.000 101.000 L 441.000 122.000 L 422.000 122.000 L 422.000 101.000 Z" />
</g>
<g id="part-87">
<path d="M 850.028 126.000 L 862.028 126.000 L 862.028 134.000 L 850.028 134.000 L 850.028 126.000 Z" />
</g>
<g id="part-88">
<path d="M 1084.734 101.000 L 1113.734 101.000 L 1113.734 118.000 L 1084.734 118.000 L 1084.734 101.000 Z" />
</g>
<g id="part-89">
<path d="M 1364.257 68.000 L 1386.257 68.000 L 1386.257 94.000 L 1364.257 94.000 L 1364.257 68.000 Z" />
</g>
<g id="part-90">
<path d="M 1022.257 68.000 L 1051.257 68.000 L 1051.257 95.000 L 1022.257 95.000 L 1022.257 68.000 Z" />
<path d="M 1031.537 76.640 L 1031.537 86.360 L 1041.977 86.360 L 1041.977 76.640 L 1031.537 76.640 Z" fill="#f7f7f2" fill-opacity="1" stroke="#163b5c" />
</g>
<g id="part-91">
<path d="M 246.000 10.000 L 290.000 10.000 L 290.000 60.000 L 246.000 60.000 L 246.000 10.000 Z" />
<path d="M 260.960 19.000 L 260.960 30.000 L 280.320 30.000 L 280.320 19.000 L 260.960 19.000 Z" fill="#f7f7f2" fill-opacity="1" stroke="#163b5c" />
<path d="M 260.960 40.000 L 260.960 51.000 L 280.320 51.000 L 280.320 40.000 L 260.960 40.000 Z" fill="#f7f7f2" fill-opacity="1" stroke="#163b5c" />
</g>
<g id="part-92">
<path d="M 665.000 68.000 L 705.000 68.000 L 705.000 74.160 L 678.600 74.160 L 678.600 89.840 L 705.000 89.840 L 705.000 96.000 L 665.000 96.000 L 665.000 68.000 Z" />
</g>
<g id="part-93">
<path d="M 1004.734 101.000 L 1022.734 105.000 L 1017.694 119.000 L 1007.734 115.760 L 1004.734 101.000 Z" />
</g>
<g id="part-94">
<path d="M 1006.388 81.923 L 1005.869 87.618 L 1004.403 92.327 L 1002.242 95.238 L 999.761 95.847 L 997.388 94.048 L 995.534 90.152 L 994.519 84.834 L 994.519 79.013 L 995.534 73.694 L 997.388 69.799 L 999.761 68.000 L 1002.242 68.609 L 1004.403 71.519 L 1005.869 76.229 L 1006.388 81.923 Z" />
</g>
<g id="part-95">
<path d="M 1613.687 101.000 L 1641.687 101.000 L 1641.687 115.000 L 1613.687 115.000 L 1613.687 101.000 Z" />
</g>
<g id="part-96">
<path d="M 72.000 101.000 L 93.000 101.000 L 93.000 124.000 L 72.000 124.000 L 72.000 101.000 Z" />
</g>
<g id="part-97">
<path d="M 505.028 126.000 L 519.028 126.000 L 519.028 136.000 L 505.028 136.000 L 505.028 126.000 Z" />
</g>
<g id="part-98">
<path d="M 766.734 101.000 L 797.734 101.000 L 797.734 120.000 L 766.734 120.000 L 766.734 101.000 Z" />
</g>
<g id="part-99">
<path d="M 843.000 68.000 L 867.000 68.000 L 867.000 96.000 L 843.000 96.000 L 843.000 68.000 Z" />
</g>
<g id="part-100">
<path d="M 250.000 68.000 L 281.000 68.000 L 281.000 97.000 L 250.000 97.000 L 250.000 68.000 Z" />
<path d="M 259.920 77.280 L 259.920 87.720 L 271.080 87.720 L 271.080 77.280 L 259.920 77.280 Z" fill="#f7f7f2" fill-opacity="1" stroke="#163b5c" />
</g>
<g id="part-101">
<path d="M 220.000 10.000 L 244.000 10.000 L 244.000 62.000 L 220.000 62.000 L 220.000 10.000 Z" />
<path d="M 228.160 19.360 L 228.160 30.800 L 238.720 30.800 L 238.720 19.360 L 228.160 19.360 Z" fill="#f7f7f2" fill-opacity="1" stroke="#163b5c" />
<path d="M 228.160 41.200 L 228.160 52.640 L 238.720 52.640 L 238.720 41.200 L 228.160 41.200 Z" fill="#f7f7f2" fill-opacity="1" stroke="#163b5c" />
</g>
<g id="part-102">
<path d="M 579.000 68.000 L 621.000 68.000 L 621.000 74.160 L 593.280 74.160 L 593.280 89.840 L 621.000 89.840 L 621.000 96.000 L 579.000 96.000 L 579.000 68.000 Z" />
</g>
<g id="part-103">
<path d="M 550.000 101.000 L 570.000 105.000 L 564.400 121.000 L 553.000 117.400 L 550.000 101.000 Z" />
</g>
<g id="part-104">
<path d="M 1020.257 81.923 L 1019.738 87.618 L 1018.272 92.327 L 1016.111 95.238 L 1013.630 95.847 L 1011.257 94.048 L 1009.403 90.152 L 1008.388 84.834 L 1008.388 79.013 L 1009.403 73.694 L 1011.257 69.799 L 1013.630 68.000 L 1016.111 68.609 L 1018.272 71.519 L 1019.738 76.229 L 1020.257 81.923 Z" />
</g>
<g id="part-105">
<path d="M 1176.734 101.000 L 1206.734 101.000 L 1206.734 117.000 L 1176.734 117.000 L 1176.734 101.000 Z" />
</g>
<g id="part-106">
<path d="M 1504.257 68.000 L 1527.257 68.000 L 1527.257 93.000 L 1504.257 93.000 L 1504.257 68.000 Z" />
</g>
<g id="part-107">
<path d="M 102.000 126.000 L 118.000 126.000 L 118.000 138.000 L 102.000 138.000 L 102.000 126.000 Z" />
</g>
<g id="part-108">
<path d="M 354.000 101.000 L 387.000 101.000 L 387.000 122.000 L 354.000 122.000 L 354.000 101.000 Z" />
</g>
<g id="part-109">
<path d="M 750.028 126.000 L 776.028 126.000 L 776.028 134.000 L 750.028 134.000 L 750.028 126.000 Z" />
</g>
<g id="part-110">
<path d="M 10.000 68.000 L 43.000 68.000 L 43.000 99.000 L 10.000 99.000 L 10.000 68.000 Z" />
<path d="M 20.560 77.920 L 20.560 89.080 L 32.440 89.080 L 32.440 77.920 L 20.560 77.920 Z" fill="#f7f7f2" fill-opacity="1" stroke="#163b5c" />
</g>
<g id="part-111">
<path d="M 148.000 10.000 L 172.000 10.000 L 172.000 64.000 L 148.000 64.000 L 148.000 10.000 Z" />
<path d="M 156.160 19.720 L 156.160 31.600 L 166.720 31.600 L 166.720 19.720 L 156.160 19.720 Z" fill="#f7f7f2" fill-opacity="1" stroke="#163b5c" />
<path d="M 156.160 42.400 L 156.160 54.280 L 166.720 54.280 L 166.720 42.400 L 156.160 42.400 Z" fill="#f7f7f2" fill-opacity="1" stroke="#163b5c" />
</g>
<g id="part-112">
<path d="M 489.000 68.000 L 533.000 68.000 L 533.000 74.160 L 503.960 74.160 L 503.960 89.840 L 533.000 89.840 L 533.000 96.000 L 489.000 96.000 L 489.000 68.000 Z" />
</g>
<g id="part-113">
<path d="M 228.000 101.000 L 250.000 105.000 L 243.840 123.000 L 231.000 119.040 L 228.000 101.000 Z" />
</g>
<g id="part-114">
<path d="M 891.704 129.959 L 890.434 132.122 L 887.027 133.598 L 882.565 133.919 L 878.465 132.982 L 876.028 131.086 L 876.028 128.832 L 878.465 126.936 L 882.565 126.000 L 887.027 126.321 L 890.434 127.797 L 891.704 129.959 Z" />
</g>
<g id="part-115">
<path d="M 866.734 101.000 L 898.734 101.000 L 898.734 119.000 L 866.734 119.000 L 866.734 101.000 Z" />
</g>
<g id="part-116">
<path d="M 1111.257 68.000 L 1136.257 68.000 L 1136.257 95.000 L 1111.257 95.000 L 1111.257 68.000 Z" />
</g>
<g id="part-117">
<path d="M 1693.687 101.000 L 1711.687 101.000 L 1711.687 115.000 L 1693.687 115.000 L 1693.687 101.000 Z" />
</g>
<g id="part-118">
<path d="M 131.000 101.000 L 142.000 101.000 L 142.000 124.000 L 131.000 124.000 L 131.000 101.000 Z" />
</g>
<g id="part-119">
<path d="M 397.028 126.000 L 425.028 126.000 L 425.028 136.000 L 397.028 136.000 L 397.028 126.000 Z" />
</g>
<g id="part-120">
<path d="M 1748.000 10.000 L 1783.000 10.000 L 1783.000 43.000 L 1748.000 43.000 L 1748.000 10.000 Z" />
<path d="M 1759.200 20.560 L 1759.200 32.440 L 1771.800 32.440 L 1771.800 20.560 L 1759.200 20.560 Z" fill="#f7f7f2" fill-opacity="1" stroke="#163b5c" />
</g>
<g id="part-121">
<path d="M 40.000 10.000 L 66.000 10.000 L 66.000 66.000 L 40.000 66.000 L 40.000 10.000 Z" />
<path d="M 48.840 20.080 L 48.840 32.400 L 60.280 32.400 L 60.280 20.080 L 48.840 20.080 Z" fill="#f7f7f2" fill-opacity="1" stroke="#163b5c" />
<path d="M 48.840 43.600 L 48.840 55.920 L 60.280 55.920 L 60.280 43.600 L 48.840 43.600 Z" fill="#f7f7f2" fill-opacity="1" stroke="#163b5c" />
</g>
<g id="part-122">
<path d="M 156.000 68.000 L 202.000 68.000 L 202.000 74.380 L 171.640 74.380 L 171.640 90.620 L 202.000 90.620 L 202.000 97.000 L 156.000 97.000 L 156.000 68.000 Z" />
</g>
<g id="part-123">
<path d="M 1687.257 68.000 L 1711.257 72.000 L 1704.537 92.000 L 1690.257 87.680 L 1687.257 68.000 Z" />
</g>
<g id="part-124">
<path d="M 213.028 131.939 L 211.758 135.183 L 208.351 137.397 L 203.889 137.878 L 199.789 136.473 L 197.352 133.629 L 197.352 130.249 L 199.789 127.404 L 203.889 126.000 L 208.351 126.481 L 211.758 128.695 L 213.028 131.939 Z" />
</g>
<g id="part-125">
<path d="M 640.000 101.000 L 650.000 101.000 L 650.000 121.000 L 640.000 121.000 L 640.000 101.000 Z" />
</g>
<g id="part-126">
<path d="M 345.000 68.000 L 372.000 68.000 L 372.000 97.000 L 345.000 97.000 L 345.000 68.000 Z" />
</g>
<g id="part-127">
<path d="M 1262.734 101.000 L 1282.734 101.000 L 1282.734 117.000 L 1262.734 117.000 L 1262.734 101.000 Z" />
</g>
<g id="part-128">
<path d="M 1569.257 68.000 L 1582.257 68.000 L 1582.257 93.000 L 1569.257 93.000 L 1569.257 68.000 Z" />
</g>
<g id="part-129">
<path d="M 1907.687 101.000 L 1937.687 101.000 L 1937.687 113.000 L 1907.687 113.000 L 1907.687 101.000 Z" />
</g>
<g id="part-130">
<path d="M 1571.000 10.000 L 1608.000 10.000 L 1608.000 45.000 L 1571.000 45.000 L 1571.000 10.000 Z" />
<path d="M 1582.840 21.200 L 1582.840 33.800 L 1596.160 33.800 L 1596.160 21.200 L 1582.840 21.200 Z" fill="#f7f7f2" fill-opacity="1" stroke="#163b5c" />
</g>
<g id="part-131">
<path d="M 998.000 10.000 L 1026.000 10.000 L 1026.000 52.000 L 998.000 52.000 L 998.000 10.000 Z" />
<path d="M 1007.520 17.560 L 1007.520 26.800 L 1019.840 26.800 L 1019.840 17.560 L 1007.520 17.560 Z" fill="#f7f7f2" fill-opacity="1" stroke="#163b5c" />
<path d="M 1007.520 35.200 L 1007.520 44.440 L 1019.840 44.440 L 1019.840 35.200 L 1007.520 35.200 Z" fill="#f7f7f2" fill-opacity="1" stroke="#163b5c" />
</g>
<g id="part-132">
<path d="M 1878.000 10.000 L 1926.000 10.000 L 1926.000 16.820 L 1894.320 16.820 L 1894.320 34.180 L 1926.000 34.180 L 1926.000 41.000 L 1878.000 41.000 L 1878.000 10.000 Z" />
</g>
<g id="part-133">
<path d="M 1310.257 68.000 L 1336.257 72.000 L 1328.977 94.000 L 1313.257 89.320 L 1310.257 68.000 Z" />
</g>
<g id="part-134">
<path d="M 78.000 132.000 L 76.660 135.000 L 73.000 137.196 L 68.000 138.000 L 63.000 137.196 L 59.340 135.000 L 58.000 132.000 L 59.340 129.000 L 63.000 126.804 L 68.000 126.000 L 73.000 126.804 L 76.660 129.000 L 78.000 132.000 Z" />
</g>
<g id="part-135">
<path d="M 328.000 101.000 L 340.000 101.000 L 340.000 123.000 L 328.000 123.000 L 328.000 101.000 Z" />
</g>
<g id="part-136">
<path d="M 580.028 126.000 L 609.028 126.000 L 609.028 135.000 L 580.028 135.000 L 580.028 126.000 Z" />
</g>
<g id="part-137">
<path d="M 958.734 101.000 L 980.734 101.000 L 980.734 119.000 L 958.734 119.000 L 958.734 101.000 Z" />
</g>
<g id="part-138">
<path d="M 1182.257 68.000 L 1197.257 68.000 L 1197.257 95.000 L 1182.257 95.000 L 1182.257 68.000 Z" />
</g>
<g id="part-139">
<path d="M 1547.687 101.000 L 1579.687 101.000 L 1579.687 115.000 L 1547.687 115.000 L 1547.687 101.000 Z" />
</g>
<g id="part-140">
<path d="M 1423.000 10.000 L 1462.000 10.000 L 1462.000 47.000 L 1423.000 47.000 L 1423.000 10.000 Z" />
<path d="M 1435.480 21.840 L 1435.480 35.160 L 1449.520 35.160 L 1449.520 21.840 L 1435.480 21.840 Z" fill="#f7f7f2" fill-opacity="1" stroke="#163b5c" />
</g>
<g id="part-141">
<path d="M 934.000 10.000 L 964.000 10.000 L 964.000 52.000 L 934.000 52.000 L 934.000 10.000 Z" />
<path d="M 944.200 17.560 L 944.200 26.800 L 957.400 26.800 L 957.400 17.560 L 944.200 17.560 Z" fill="#f7f7f2" fill-opacity="1" stroke="#163b5c" />
<path d="M 944.200 35.200 L 944.200 44.440 L 957.400 44.440 L 957.400 35.200 L 944.200 35.200 Z" fill="#f7f7f2" fill-opacity="1" stroke="#163b5c" />
</g>
<g id="part-142">
<path d="M 1850.000 10.000 L 1876.000 10.000 L 1876.000 17.260 L 1858.840 17.260 L 1858.840 35.740 L 1876.000 35.740 L 1876.000 43.000 L 1850.000 43.000 L 1850.000 10.000 Z" />
</g>
<g id="part-143">
<path d="M 813.000 68.000 L 841.000 72.000 L 833.160 96.000 L 816.000 90.960 L 813.000 68.000 Z" />
</g>
<g id="part-144">
<path d="M 1304.734 109.000 L 1303.394 113.000 L 1299.734 115.928 L 1294.734 117.000 L 1289.734 115.928 L 1286.073 113.000 L 1284.734 109.000 L 1286.073 105.000 L 1289.734 102.072 L 1294.734 101.000 L 1299.734 102.072 L 1303.394 105.000 L 1304.734 109.000 Z" />
</g>
<g id="part-145">
<path d="M 1797.257 68.000 L 1811.257 68.000 L 1811.257 92.000 L 1797.257 92.000 L 1797.257 68.000 Z" />
</g>
<g id="part-146">
<path d="M 250.028 126.000 L 281.028 126.000 L 281.028 137.000 L 250.028 137.000 L 250.028 126.000 Z" />
</g>
<g id="part-147">
<path d="M 524.000 101.000 L 548.000 101.000 L 548.000 121.000 L 524.000 121.000 L 524.000 101.000 Z" />
</g>
<g id="part-148">
<path d="M 422.000 68.000 L 439.000 68.000 L 439.000 97.000 L 422.000 97.000 L 422.000 68.000 Z" />
</g>
<g id="part-149">
<path d="M 1374.734 101.000 L 1384.734 101.000 L 1384.734 117.000 L 1374.734 117.000 L 1374.734 101.000 Z" />
</g>
<g id="part-150">
<path d="M 1267.000 10.000 L 1308.000 10.000 L 1308.000 49.000 L 1267.000 49.000 L 1267.000 10.000 Z" />
<path d="M 1280.120 22.480 L 1280.120 36.520 L 1294.880 36.520 L 1294.880 22.480 L 1280.120 22.480 Z" fill="#f7f7f2" fill-opacity="1" stroke="#163b5c" />
</g>
<g id="part-151">
<path d="M 866.000 10.000 L 898.000 10.000 L 898.000 52.000 L 866.000 52.000 L 866.000 10.000 Z" />
<path d="M 876.880 17.560 L 876.880 26.800 L 890.960 26.800 L 890.960 17.560 L 876.880 17.560 Z" fill="#f7f7f2" fill-opacity="1" stroke="#163b5c" />
<path d="M 876.880 35.200 L 876.880 44.440 L 890.960 44.440 L 890.960 35.200 L 876.880 35.200 Z" fill="#f7f7f2" fill-opacity="1" stroke="#163b5c" />
</g>
<g id="part-152">
<path d="M 1679.000 10.000 L 1707.000 10.000 L 1707.000 17.700 L 1688.520 17.700 L 1688.520 37.300 L 1707.000 37.300 L 1707.000 45.000 L 1679.000 45.000 L 1679.000 10.000 Z" />
</g>
<g id="part-153">
<path d="M 718.028 126.000 L 748.028 130.000 L 739.628 134.000 L 721.028 132.560 L 718.028 126.000 Z" />
</g>
<g id="part-154">
<path d="M 1436.036 108.942 L 1434.662 112.659 L 1430.853 115.526 L 1425.483 116.883 L 1419.781 116.422 L 1415.054 114.247 L 1412.385 110.856 L 1412.385 107.027 L 1415.054 103.637 L 1419.781 101.462 L 1425.483 101.000 L 1430.853 102.358 L 1434.662 105.224 L 1436.036 108.942 Z" />
</g>
<g id="part-155">
<path d="M 1430.257 68.000 L 1446.257 68.000 L 1446.257 94.000 L 1430.257 94.000 L 1430.257 68.000 Z" />
</g>
<g id="part-156">
<path d="M 1773.687 101.000 L 1806.687 101.000 L 1806.687 114.000 L 1773.687 114.000 L 1773.687 101.000 Z" />
</g>
<g id="part-157">
<path d="M 174.000 101.000 L 200.000 101.000 L 200.000 123.000 L 174.000 123.000 L 174.000 101.000 Z" />
</g>
<g id="part-158">
<path d="M 663.028 126.000 L 682.028 126.000 L 682.028 135.000 L 663.028 135.000 L 663.028 126.000 Z" />
</g>
<g id="part-159">
<path d="M 1058.734 101.000 L 1070.734 101.000 L 1070.734 119.000 L 1058.734 119.000 L 1058.734 101.000 Z" />
</g>
<g id="part-160">
<path d="M 1103.000 10.000 L 1146.000 10.000 L 1146.000 51.000 L 1103.000 51.000 L 1103.000 10.000 Z" />
<path d="M 1116.760 23.120 L 1116.760 37.880 L 1132.240 37.880 L 1132.240 23.120 L 1116.760 23.120 Z" fill="#f7f7f2" fill-opacity="1" stroke="#163b5c" />
</g>
<g id="part-161">
<path d="M 794.000 10.000 L 828.000 10.000 L 828.000 52.000 L 794.000 52.000 L 794.000 10.000 Z" />
<path d="M 805.560 17.560 L 805.560 26.800 L 820.520 26.800 L 820.520 17.560 L 805.560 17.560 Z" fill="#f7f7f2" fill-opacity="1" stroke="#163b5c" />
<path d="M 805.560 35.200 L 805.560 44.440 L 820.520 44.440 L 820.520 35.200 L 805.560 35.200 Z" fill="#f7f7f2" fill-opacity="1" stroke="#163b5c" />
</g>
<g id="part-162">
<path d="M 1498.000 10.000 L 1528.000 10.000 L 1528.000 18.140 L 1508.200 18.140 L 1508.200 38.860 L 1528.000 38.860 L 1528.000 47.000 L 1498.000 47.000 L 1498.000 10.000 Z" />
</g>
<g id="part-163">
<path d="M 331.028 126.000 L 363.028 130.000 L 354.068 136.000 L 334.028 134.200 L 331.028 126.000 Z" />
</g>
<g id="part-164">
<path d="M 764.734 110.927 L 763.359 115.574 L 759.550 119.157 L 754.180 120.854 L 748.478 120.277 L 743.751 117.558 L 741.082 113.320 L 741.082 108.534 L 743.751 104.296 L 748.478 101.577 L 754.180 101.000 L 759.550 102.697 L 763.359 106.280 L 764.734 110.927 Z" />
</g>
<g id="part-165">
<path d="M 915.000 68.000 L 933.000 68.000 L 933.000 96.000 L 915.000 96.000 L 915.000 68.000 Z" />
</g>
<g id="part-166">
<path d="M 1534.687 101.000 L 1545.687 101.000 L 1545.687 116.000 L 1534.687 116.000 L 1534.687 101.000 Z" />
</g>
<g id="part-167">
<path d="M 1629.257 68.000 L 1657.257 68.000 L 1657.257 92.000 L 1629.257 92.000 L 1629.257 68.000 Z" />
</g>
<g id="part-168">
<path d="M 308.028 126.000 L 329.028 126.000 L 329.028 137.000 L 308.028 137.000 L 308.028 126.000 Z" />
</g>
<g id="part-169">
<path d="M 610.000 101.000 L 624.000 101.000 L 624.000 121.000 L 610.000 121.000 L 610.000 101.000 Z" />
</g>
<g id="part-170">
<path d="M 631.000 10.000 L 676.000 10.000 L 676.000 53.000 L 631.000 53.000 L 631.000 10.000 Z" />
<path d="M 645.400 23.760 L 645.400 39.240 L 661.600 39.240 L 661.600 23.760 L 645.400 23.760 Z" fill="#f7f7f2" fill-opacity="1" stroke="#163b5c" />
</g>
<g id="part-171">
<path d="M 544.000 10.000 L 580.000 10.000 L 580.000 54.000 L 544.000 54.000 L 544.000 10.000 Z" />
<path d="M 556.240 17.920 L 556.240 27.600 L 572.080 27.600 L 572.080 17.920 L 556.240 17.920 Z" fill="#f7f7f2" fill-opacity="1" stroke="#163b5c" />
<path d="M 556.240 36.400 L 556.240 46.080 L 572.080 46.080 L 572.080 36.400 L 556.240 36.400 Z" fill="#f7f7f2" fill-opacity="1" stroke="#163b5c" />
</g>
<g id="part-172">
<path d="M 1346.000 10.000 L 1378.000 10.000 L 1378.000 18.580 L 1356.880 18.580 L 1356.880 40.420 L 1378.000 40.420 L 1378.000 49.000 L 1346.000 49.000 L 1346.000 10.000 Z" />
</g>
<g id="part-173">
<path d="M 150.000 126.000 L 160.000 130.000 L 157.200 138.000 L 153.000 135.840 L 150.000 126.000 Z" />
</g>
<g id="part-174">
<path d="M 739.082 110.945 L 737.872 115.013 L 734.450 118.377 L 729.408 120.456 L 723.619 120.890 L 718.082 119.605 L 713.756 116.823 L 711.388 113.024 L 711.388 108.866 L 713.756 105.067 L 718.082 102.285 L 723.619 101.000 L 729.408 101.435 L 734.450 103.514 L 737.872 106.878 L 739.082 110.945 Z" />
</g>
<g id="part-175">
<path d="M 828.028 126.000 L 848.028 126.000 L 848.028 134.000 L 828.028 134.000 L 828.028 126.000 Z" />
</g>
<g id="part-176">
<path d="M 1161.734 101.000 L 1174.734 101.000 L 1174.734 118.000 L 1161.734 118.000 L 1161.734 101.000 Z" />
</g>
<g id="part-177">
<path d="M 1248.257 68.000 L 1278.257 68.000 L 1278.257 94.000 L 1248.257 94.000 L 1248.257 68.000 Z" />
</g>
<g id="part-178">
<path d="M 1835.687 101.000 L 1858.687 101.000 L 1858.687 114.000 L 1835.687 114.000 L 1835.687 101.000 Z" />
</g>
<g id="part-179">
<path d="M 294.000 101.000 L 310.000 101.000 L 310.000 123.000 L 294.000 123.000 L 294.000 101.000 Z" />
</g>
<g id="part-180">
<path d="M 1943.902 68.000 L 1990.902 68.000 L 1990.902 91.000 L 1943.902 91.000 L 1943.902 68.000 Z" />
<path d="M 1958.942 75.360 L 1958.942 83.640 L 1975.862 83.640 L 1975.862 75.360 L 1958.942 75.360 Z" fill="#f7f7f2" fill-opacity="1" stroke="#163b5c" />
</g>
<g id="part-181">
<path d="M 464.000 10.000 L 502.000 10.000 L 502.000 56.000 L 464.000 56.000 L 464.000 10.000 Z" />
<path d="M 476.920 18.280 L 476.920 28.400 L 493.640 28.400 L 493.640 18.280 L 476.920 18.280 Z" fill="#f7f7f2" fill-opacity="1" stroke="#163b5c" />
<path d="M 476.920 37.600 L 476.920 47.720 L 493.640 47.720 L 493.640 37.600 L 476.920 37.600 Z" fill="#f7f7f2" fill-opacity="1" stroke="#163b5c" />
</g>
<g id="part-182">
<path d="M 1186.000 10.000 L 1220.000 10.000 L 1220.000 19.020 L 1197.560 19.020 L 1197.560 41.980 L 1220.000 41.980 L 1220.000 51.000 L 1186.000 51.000 L 1186.000 10.000 Z" />
</g>
<g id="part-183">
<path d="M 1747.687 101.000 L 1759.687 105.000 L 1756.327 115.000 L 1750.687 112.480 L 1747.687 101.000 Z" />
</g>
<g id="part-184">
<path d="M 1941.902 79.934 L 1940.692 84.815 L 1937.270 88.852 L 1932.228 91.347 L 1926.439 91.869 L 1920.902 90.327 L 1916.576 86.988 L 1914.208 82.429 L 1914.208 77.439 L 1916.576 72.881 L 1920.902 69.542 L 1926.439 68.000 L 1932.228 68.522 L 1937.270 71.017 L 1940.692 75.053 L 1941.902 79.934 Z" />
</g>
<g id="part-185">
<path d="M 481.028 126.000 L 503.028 126.000 L 503.028 136.000 L 481.028 136.000 L 481.028 126.000 Z" />
</g>
<g id="part-186">
<path d="M 849.734 101.000 L 864.734 101.000 L 864.734 120.000 L 849.734 120.000 L 849.734 101.000 Z" />
</g>
<g id="part-187">
<path d="M 747.000 68.000 L 779.000 68.000 L 779.000 96.000 L 747.000 96.000 L 747.000 68.000 Z" />
</g>
<g id="part-188">
<path d="M 1492.687 101.000 L 1517.687 101.000 L 1517.687 116.000 L 1492.687 116.000 L 1492.687 101.000 Z" />
</g>
<g id="part-189">
<path d="M 1759.257 68.000 L 1777.257 68.000 L 1777.257 92.000 L 1759.257 92.000 L 1759.257 68.000 Z" />
</g>
<g id="part-190">
<path d="M 1477.257 68.000 L 1502.257 68.000 L 1502.257 93.000 L 1477.257 93.000 L 1477.257 68.000 Z" />
<path d="M 1485.257 76.000 L 1485.257 85.000 L 1494.257 85.000 L 1494.257 76.000 L 1485.257 76.000 Z" fill="#f7f7f2" fill-opacity="1" stroke="#163b5c" />
</g>
<g id="part-191">
<path d="M 380.000 10.000 L 420.000 10.000 L 420.000 58.000 L 380.000 58.000 L 380.000 10.000 Z" />
<path d="M 393.600 18.640 L 393.600 29.200 L 411.200 29.200 L 411.200 18.640 L 393.600 18.640 Z" fill="#f7f7f2" fill-opacity="1" stroke="#163b5c" />
<path d="M 393.600 38.800 L 393.600 49.360 L 411.200 49.360 L 411.200 38.800 L 393.600 38.800 Z" fill="#f7f7f2" fill-opacity="1" stroke="#163b5c" />
</g>
<g id="part-192">
<path d="M 718.000 10.000 L 754.000 10.000 L 754.000 19.460 L 730.240 19.460 L 730.240 43.540 L 754.000 43.540 L 754.000 53.000 L 718.000 53.000 L 718.000 10.000 Z" />
</g>
<g id="part-193">
<path d="M 1344.734 101.000 L 1358.734 105.000 L 1354.814 117.000 L 1347.734 114.120 L 1344.734 101.000 Z" />
</g>
<g id="part-194">
<path d="M 1878.558 79.934 L 1877.174 84.815 L 1873.264 88.852 L 1867.502 91.347 L 1860.885 91.869 L 1854.558 90.327 L 1849.613 86.988 L 1846.907 82.429 L 1846.907 77.439 L 1849.613 72.881 L 1854.558 69.542 L 1860.885 68.000 L 1867.502 68.522 L 1873.264 71.017 L 1877.174 75.053 L 1878.558 79.934 Z" />
</g>
<g id="part-195">
<path d="M 10.000 126.000 L 34.000 126.000 L 34.000 138.000 L 10.000 138.000 L 10.000 126.000 Z" />
</g>
<g id="part-196">
<path d="M 443.000 101.000 L 460.000 101.000 L 460.000 122.000 L 443.000 122.000 L 443.000 101.000 Z" />
</g>
<g id="part-197">
<path d="M 864.028 126.000 L 874.028 126.000 L 874.028 134.000 L 864.028 134.000 L 864.028 126.000 Z" />
</g>
<g id="part-198">
<path d="M 1115.734 101.000 L 1142.734 101.000 L 1142.734 118.000 L 1115.734 118.000 L 1115.734 101.000 Z" />
</g>
<g id="part-199">
<path d="M 1388.257 68.000 L 1408.257 68.000 L 1408.257 94.000 L 1388.257 94.000 L 1388.257 68.000 Z" />
</g>
<g id="part-200">
<path d="M 1082.257 68.000 L 1109.257 68.000 L 1109.257 95.000 L 1082.257 95.000 L 1082.257 68.000 Z" />
<path d="M 1090.897 76.640 L 1090.897 86.360 L 1100.617 86.360 L 1100.617 76.640 L 1090.897 76.640 Z" fill="#f7f7f2" fill-opacity="1" stroke="#163b5c" />
</g>
<g id="part-201">
<path d="M 292.000 10.000 L 334.000 10.000 L 334.000 60.000 L 292.000 60.000 L 292.000 10.000 Z" />
<path d="M 306.280 19.000 L 306.280 30.000 L 324.760 30.000 L 324.760 19.000 L 306.280 19.000 Z" fill="#f7f7f2" fill-opacity="1" stroke="#163b5c" />
<path d="M 306.280 40.000 L 306.280 51.000 L 324.760 51.000 L 324.760 40.000 L 306.280 40.000 Z" fill="#f7f7f2" fill-opacity="1" stroke="#163b5c" />
</g>
<g id="part-202">
<path d="M 707.000 68.000 L 745.000 68.000 L 745.000 74.160 L 719.920 74.160 L 719.920 89.840 L 745.000 89.840 L 745.000 96.000 L 707.000 96.000 L 707.000 68.000 Z" />
</g>
<g id="part-203">
<path d="M 1024.734 101.000 L 1040.734 105.000 L 1036.254 119.000 L 1027.734 115.760 L 1024.734 101.000 Z" />
</g>
<g id="part-204">
<path d="M 978.650 81.923 L 977.267 87.618 L 973.356 92.327 L 967.595 95.238 L 960.978 95.847 L 954.650 94.048 L 949.706 90.152 L 947.000 84.834 L 947.000 79.013 L 949.706 73.694 L 954.650 69.799 L 960.978 68.000 L 967.595 68.609 L 973.356 71.519 L 977.267 76.229 L 978.650 81.923 Z" />
</g>
<g id="part-205">
<path d="M 1643.687 101.000 L 1669.687 101.000 L 1669.687 115.000 L 1643.687 115.000 L 1643.687 101.000 Z" />
</g>
<g id="part-206">
<path d="M 95.000 101.000 L 114.000 101.000 L 114.000 124.000 L 95.000 124.000 L 95.000 101.000 Z" />
</g>
<g id="part-207">
<path d="M 521.028 126.000 L 533.028 126.000 L 533.028 136.000 L 521.028 136.000 L 521.028 126.000 Z" />
</g>
<g id="part-208">
<path d="M 799.734 101.000 L 828.734 101.000 L 828.734 120.000 L 799.734 120.000 L 799.734 101.000 Z" />
</g>
<g id="part-209">
<path d="M 869.000 68.000 L 891.000 68.000 L 891.000 96.000 L 869.000 96.000 L 869.000 68.000 Z" />
</g>
<g id="part-210">
<path d="M 314.000 68.000 L 343.000 68.000 L 343.000 97.000 L 314.000 97.000 L 314.000 68.000 Z" />
<path d="M 323.280 77.280 L 323.280 87.720 L 333.720 87.720 L 333.720 77.280 L 323.280 77.280 Z" fill="#f7f7f2" fill-opacity="1" stroke="#163b5c" />
</g>
<g id="part-211">
<path d="M 174.000 10.000 L 218.000 10.000 L 218.000 62.000 L 174.000 62.000 L 174.000 10.000 Z" />
<path d="M 188.960 19.360 L 188.960 30.800 L 208.320 30.800 L 208.320 19.360 L 188.960 19.360 Z" fill="#f7f7f2" fill-opacity="1" stroke="#163b5c" />
<path d="M 188.960 41.200 L 188.960 52.640 L 208.320 52.640 L 208.320 41.200 L 188.960 41.200 Z" fill="#f7f7f2" fill-opacity="1" stroke="#163b5c" />
</g>
<g id="part-212">
<path d="M 623.000 68.000 L 663.000 68.000 L 663.000 74.160 L 636.600 74.160 L 636.600 89.840 L 663.000 89.840 L 663.000 96.000 L 623.000 96.000 L 623.000 68.000 Z" />
</g>
<g id="part-213">
<path d="M 572.000 101.000 L 590.000 105.000 L 584.960 121.000 L 575.000 117.400 L 572.000 101.000 Z" />
</g>
<g id="part-214">
<path d="M 992.519 81.923 L 992.001 87.618 L 990.534 92.327 L 988.373 95.238 L 985.892 95.847 L 983.519 94.048 L 981.665 90.152 L 980.650 84.834 L 980.650 79.013 L 981.665 73.694 L 983.519 69.799 L 985.892 68.000 L 988.373 68.609 L 990.534 71.519 L 992.001 76.229 L 992.519 81.923 Z" />
</g>
<g id="part-215">
<path d="M 1208.734 101.000 L 1236.734 101.000 L 1236.734 117.000 L 1208.734 117.000 L 1208.734 101.000 Z" />
</g>
<g id="part-216">
<path d="M 1529.257 68.000 L 1550.257 68.000 L 1550.257 93.000 L 1529.257 93.000 L 1529.257 68.000 Z" />
</g>
<g id="part-217">
<path d="M 120.000 126.000 L 134.000 126.000 L 134.000 138.000 L 120.000 138.000 L 120.000 126.000 Z" />
</g>
<g id="part-218">
<path d="M 389.000 101.000 L 420.000 101.000 L 420.000 122.000 L 389.000 122.000 L 389.000 101.000 Z" />
</g>
<g id="part-219">
<path d="M 778.028 126.000 L 802.028 126.000 L 802.028 134.000 L 778.028 134.000 L 778.028 126.000 Z" />
</g>
<g id="part-220">
<path d="M 45.000 68.000 L 76.000 68.000 L 76.000 99.000 L 45.000 99.000 L 45.000 68.000 Z" />
<path d="M 54.920 77.920 L 54.920 89.080 L 66.080 89.080 L 66.080 77.920 L 54.920 77.920 Z" fill="#f7f7f2" fill-opacity="1" stroke="#163b5c" />
</g>
<g id="part-221">
<path d="M 122.000 10.000 L 146.000 10.000 L 146.000 64.000 L 122.000 64.000 L 122.000 10.000 Z" />
<path d="M 130.160 19.720 L 130.160 31.600 L 140.720 31.600 L 140.720 19.720 L 130.160 19.720 Z" fill="#f7f7f2" fill-opacity="1" stroke="#163b5c" />
<path d="M 130.160 42.400 L 130.160 54.280 L 140.720 54.280 L 140.720 42.400 L 130.160 42.400 Z" fill="#f7f7f2" fill-opacity="1" stroke="#163b5c" />
</g>
<g id="part-222">
<path d="M 535.000 68.000 L 577.000 68.000 L 577.000 74.160 L 549.280 74.160 L 549.280 89.840 L 577.000 89.840 L 577.000 96.000 L 535.000 96.000 L 535.000 68.000 Z" />
</g>
<g id="part-223">
<path d="M 252.000 101.000 L 272.000 105.000 L 266.400 123.000 L 255.000 119.040 L 252.000 101.000 Z" />
</g>
<g id="part-224">
<path d="M 923.380 129.804 L 922.234 132.155 L 919.234 133.608 L 915.526 133.608 L 912.526 132.155 L 911.380 129.804 L 912.526 127.453 L 915.526 126.000 L 919.234 126.000 L 922.234 127.453 L 923.380 129.804 Z" />
</g>
<g id="part-225">
<path d="M 900.734 101.000 L 930.734 101.000 L 930.734 119.000 L 900.734 119.000 L 900.734 101.000 Z" />
</g>
<g id="part-226">
<path d="M 1138.257 68.000 L 1161.257 68.000 L 1161.257 95.000 L 1138.257 95.000 L 1138.257 68.000 Z" />
</g>
<g id="part-227">
<path d="M 1713.687 101.000 L 1729.687 101.000 L 1729.687 115.000 L 1713.687 115.000 L 1713.687 101.000 Z" />
</g>
<g id="part-228">
<path d="M 10.000 101.000 L 43.000 101.000 L 43.000 124.000 L 10.000 124.000 L 10.000 101.000 Z" />
</g>
<g id="part-229">
<path d="M 427.028 126.000 L 453.028 126.000 L 453.028 136.000 L 427.028 136.000 L 427.028 126.000 Z" />
</g>
<g id="part-230">
<path d="M 1785.000 10.000 L 1818.000 10.000 L 1818.000 43.000 L 1785.000 43.000 L 1785.000 10.000 Z" />
<path d="M 1795.560 20.560 L 1795.560 32.440 L 1807.440 32.440 L 1807.440 20.560 L 1795.560 20.560 Z" fill="#f7f7f2" fill-opacity="1" stroke="#163b5c" />
</g>
<g id="part-231">
<path d="M 68.000 10.000 L 92.000 10.000 L 92.000 66.000 L 68.000 66.000 L 68.000 10.000 Z" />
<path d="M 76.160 20.080 L 76.160 32.400 L 86.720 32.400 L 86.720 20.080 L 76.160 20.080 Z" fill="#f7f7f2" fill-opacity="1" stroke="#163b5c" />
<path d="M 76.160 43.600 L 76.160 55.920 L 86.720 55.920 L 86.720 43.600 L 76.160 43.600 Z" fill="#f7f7f2" fill-opacity="1" stroke="#163b5c" />
</g>
<g id="part-232">
<path d="M 204.000 68.000 L 248.000 68.000 L 248.000 74.380 L 218.960 74.380 L 218.960 90.620 L 248.000 90.620 L 248.000 97.000 L 204.000 97.000 L 204.000 68.000 Z" />
</g>
<g id="part-233">
<path d="M 1713.257 68.000 L 1735.257 72.000 L 1729.097 92.000 L 1716.257 87.680 L 1713.257 68.000 Z" />
</g>
<g id="part-234">
<path d="M 195.352 131.939 L 194.082 135.183 L 190.675 137.397 L 186.213 137.878 L 182.113 136.473 L 179.676 133.629 L 179.676 130.249 L 182.113 127.404 L 186.213 126.000 L 190.675 126.481 L 194.082 128.695 L 195.352 131.939 Z" />
</g>
<g id="part-235">
<path d="M 462.000 101.000 L 494.000 101.000 L 494.000 121.000 L 462.000 121.000 L 462.000 101.000 Z" />
</g>
<g id="part-236">
<path d="M 374.000 68.000 L 399.000 68.000 L 399.000 97.000 L 374.000 97.000 L 374.000 68.000 Z" />
</g>
<g id="part-237">
<path d="M 1306.734 101.000 L 1324.734 101.000 L 1324.734 117.000 L 1306.734 117.000 L 1306.734 101.000 Z" />
</g>
<g id="part-238">
<path d="M 1584.257 68.000 L 1595.257 68.000 L 1595.257 93.000 L 1584.257 93.000 L 1584.257 68.000 Z" />
</g>
<g id="part-239">
<path d="M 1939.687 101.000 L 1967.687 101.000 L 1967.687 113.000 L 1939.687 113.000 L 1939.687 101.000 Z" />
</g>
<g id="part-240">
<path d="M 1610.000 10.000 L 1645.000 10.000 L 1645.000 45.000 L 1610.000 45.000 L 1610.000 10.000 Z" />
<path d="M 1621.200 21.200 L 1621.200 33.800 L 1633.800 33.800 L 1633.800 21.200 L 1621.200 21.200 Z" fill="#f7f7f2" fill-opacity="1" stroke="#163b5c" />
</g>
<g id="part-241">
<path d="M 1028.000 10.000 L 1054.000 10.000 L 1054.000 52.000 L 1028.000 52.000 L 1028.000 10.000 Z" />
<path d="M 1036.840 17.560 L 1036.840 26.800 L 1048.280 26.800 L 1048.280 17.560 L 1036.840 17.560 Z" fill="#f7f7f2" fill-opacity="1" stroke="#163b5c" />
<path d="M 1036.840 35.200 L 1036.840 44.440 L 1048.280 44.440 L 1048.280 35.200 L 1036.840 35.200 Z" fill="#f7f7f2" fill-opacity="1" stroke="#163b5c" />
</g>
<g id="part-242">
<path d="M 1928.000 10.000 L 1974.000 10.000 L 1974.000 16.820 L 1943.640 16.820 L 1943.640 34.180 L 1974.000 34.180 L 1974.000 41.000 L 1928.000 41.000 L 1928.000 10.000 Z" />
</g>
<g id="part-243">
<path d="M 1338.257 68.000 L 1362.257 72.000 L 1355.537 94.000 L 1341.257 89.320 L 1338.257 68.000 Z" />
</g>
<g id="part-244">
<path d="M 177.676 131.939 L 176.406 135.183 L 172.999 137.397 L 168.537 137.878 L 164.437 136.473 L 162.000 133.629 L 162.000 130.249 L 164.437 127.404 L 168.537 126.000 L 172.999 126.481 L 176.406 128.695 L 177.676 131.939 Z" />
</g>
<g id="part-245">
<path d="M 342.000 101.000 L 352.000 101.000 L 352.000 123.000 L 342.000 123.000 L 342.000 101.000 Z" />
</g>
<g id="part-246">
<path d="M 611.028 126.000 L 638.028 126.000 L 638.028 135.000 L 611.028 135.000 L 611.028 126.000 Z" />
</g>
<g id="part-247">
<path d="M 982.734 101.000 L 1002.734 101.000 L 1002.734 119.000 L 982.734 119.000 L 982.734 101.000 Z" />
</g>
<g id="part-248">
<path d="M 1199.257 68.000 L 1212.257 68.000 L 1212.257 95.000 L 1199.257 95.000 L 1199.257 68.000 Z" />
</g>
<g id="part-249">
<path d="M 1581.687 101.000 L 1611.687 101.000 L 1611.687 115.000 L 1581.687 115.000 L 1581.687 101.000 Z" />
</g>
</g>
<text x="10" y="20" font-size="14" fill="#222">mixed_250_parts / Fast</text>
</svg>
