<svg xmlns="http://www.w3.org/2000/svg" width="2250.000" height="1450.000" viewBox="0 0 2250.000 1450.000">
<rect x="0" y="0" width="2250.000" height="1450.000" fill="#f7f7f2" />
<g fill="none" stroke="#2a2a2a" stroke-width="1.2">
<path d="M 0.000 0.000 L 2250.000 0.000 L 2250.000 1450.000 L 0.000 1450.000 L 0.000 0.000 Z" stroke="#1f5f8b" />
</g>
<g fill="#86b8e7" fill-opacity="0.58" stroke="#163b5c" stroke-width="0.8">
<g id="part-0">
<path d="M 1230.540 957.846 L 1265.540 957.846 L 1265.540 988.846 L 1230.540 988.846 L 1230.540 957.846 Z" />
<path d="M 1241.740 967.766 L 1241.740 978.926 L 1254.340 978.926 L 1254.340 967.766 L 1241.740 967.766 Z" fill="#f7f7f2" fill-opacity="1" stroke="#163b5c" />
</g>
<g id="part-1">
<path d="M 1311.540 351.846 L 1337.540 351.846 L 1337.540 405.846 L 1311.540 405.846 L 1311.540 351.846 Z" />
<path d="M 1320.380 361.566 L 1320.380 373.446 L 1331.820 373.446 L 1331.820 361.566 L 1320.380 361.566 Z" fill="#f7f7f2" fill-opacity="1" stroke="#163b5c" />
<path d="M 1320.380 384.246 L 1320.380 396.126 L 1331.820 396.126 L 1331.820 384.246 L 1320.380 384.246 Z" fill="#f7f7f2" fill-opacity="1" stroke="#163b5c" />
</g>
<g id="part-2">
<path d="M 1230.000 829.500 L 1276.000 829.500 L 1276.000 835.660 L 1245.640 835.660 L 1245.640 851.340 L 1276.000 851.340 L 1276.000 857.500 L 1230.000 857.500 L 1230.000 829.500 Z" />
</g>
<g id="part-3">
<path d="M 1112.346 419.414 L 1136.346 423.414 L 1129.626 441.414 L 1115.346 437.454 L 1112.346 419.414 Z" />
</g>
<g id="part-4">
<path d="M 1197.892 198.928 L 1196.622 201.090 L 1193.215 202.566 L 1188.754 202.887 L 1184.653 201.951 L 1182.216 200.055 L 1182.216 197.801 L 1184.653 195.905 L 1188.754 194.969 L 1193.215 195.289 L 1196.622 196.765 L 1197.892 198.928 Z" />
</g>
<g id="part-5">
<path d="M 1330.040 651.846 L 1340.040 651.846 L 1340.040 669.846 L 1330.040 669.846 L 1330.040 651.846 Z" />
</g>
<g id="part-6">
<path d="M 1256.869 629.140 L 1283.869 629.140 L 1283.869 656.140 L 1256.869 656.140 L 1256.869 629.140 Z" />
</g>
<g id="part-7">
<path d="M 1191.869 605.640 L 1211.869 605.640 L 1211.869 619.640 L 1191.869 619.640 L 1191.869 605.640 Z" />
</g>
<g id="part-8">
<path d="M 1270.996 546.717 L 1283.996 546.717 L 1283.996 569.717 L 1270.996 569.717 L 1270.996 546.717 Z" />
</g>
<g id="part-9">
<path d="M 1213.996 529.717 L 1243.996 529.717 L 1243.996 539.717 L 1213.996 539.717 L 1213.996 529.717 Z" />
</g>
<g id="part-10">
<path d="M 1291.040 651.846 L 1328.040 651.846 L 1328.040 684.846 L 1291.040 684.846 L 1291.040 651.846 Z" />
<path d="M 1302.880 662.406 L 1302.880 674.286 L 1316.200 674.286 L 1316.200 662.406 L 1302.880 662.406 Z" fill="#f7f7f2" fill-opacity="1" stroke="#163b5c" />
</g>
<g id="part-11">
<path d="M 1301.540 51.969 L 1329.540 51.969 L 1329.540 107.969 L 1301.540 107.969 L 1301.540 51.969 Z" />
<path d="M 1311.060 62.049 L 1311.060 74.369 L 1323.380 74.369 L 1323.380 62.049 L 1311.060 62.049 Z" fill="#f7f7f2" fill-opacity="1" stroke="#163b5c" />
<path d="M 1311.060 85.569 L 1311.060 97.889 L 1323.380 97.889 L 1323.380 85.569 L 1311.060 85.569 Z" fill="#f7f7f2" fill-opacity="1" stroke="#163b5c" />
</g>
<g id="part-12">
<path d="M 1175.000 630.000 L 1223.000 630.000 L 1223.000 636.380 L 1191.320 636.380 L 1191.320 652.620 L 1223.000 652.620 L 1223.000 659.000 L 1175.000 659.000 L 1175.000 630.000 Z" />
</g>
<g id="part-13">
<path d="M 1112.846 259.914 L 1138.846 263.914 L 1131.566 283.914 L 1115.846 279.594 L 1112.846 259.914 Z" />
</g>
<g id="part-14">
<path d="M 1337.040 692.846 L 1335.700 695.846 L 1332.040 698.043 L 1327.040 698.846 L 1322.040 698.043 L 1318.380 695.846 L 1317.040 692.846 L 1318.380 689.846 L 1322.040 687.650 L 1327.040 686.846 L 1332.040 687.650 L 1335.700 689.846 L 1337.040 692.846 Z" />
</g>
<g id="part-15">
<path d="M 1222.000 745.000 L 1234.000 745.000 L 1234.000 765.000 L 1222.000 765.000 L 1222.000 745.000 Z" />
</g>
<g id="part-16">
<path d="M 1225.000 648.000 L 1254.000 648.000 L 1254.000 677.000 L 1225.000 677.000 L 1225.000 648.000 Z" />
</g>
<g id="part-17">
<path d="M 1200.346 424.414 L 1222.346 424.414 L 1222.346 440.414 L 1200.346 440.414 L 1200.346 424.414 Z" />
</g>
<g id="part-18">
<path d="M 1264.846 367.914 L 1279.846 367.914 L 1279.846 392.914 L 1264.846 392.914 L 1264.846 367.914 Z" />
</g>
<g id="part-19">
<path d="M 1116.846 338.414 L 1148.846 338.414 L 1148.846 350.414 L 1116.846 350.414 L 1116.846 338.414 Z" />
</g>
<g id="part-20">
<path d="M 1221.040 13.969 L 1260.040 13.969 L 1260.040 48.969 L 1221.040 48.969 L 1221.040 13.969 Z" />
<path d="M 1233.520 25.169 L 1233.520 37.769 L 1247.560 37.769 L 1247.560 25.169 L 1233.520 25.169 Z" fill="#f7f7f2" fill-opacity="1" stroke="#163b5c" />
</g>
<g id="part-21">
<path d="M 1278.040 757.346 L 1308.040 757.346 L 1308.040 799.346 L 1278.040 799.346 L 1278.040 757.346 Z" />
<path d="M 1288.240 764.906 L 1288.240 774.146 L 1301.440 774.146 L 1301.440 764.906 L 1288.240 764.906 Z" fill="#f7f7f2" fill-opacity="1" stroke="#163b5c" />
<path d="M 1288.240 782.546 L 1288.240 791.786 L 1301.440 791.786 L 1301.440 782.546 L 1288.240 782.546 Z" fill="#f7f7f2" fill-opacity="1" stroke="#163b5c" />
</g>
<g id="part-22">
<path d="M 1202.846 289.414 L 1228.846 289.414 L 1228.846 296.234 L 1211.686 296.234 L 1211.686 313.594 L 1228.846 313.594 L 1228.846 320.414 L 1202.846 320.414 L 1202.846 289.414 Z" />
</g>
<g id="part-23">
<path d="M 1271.846 271.414 L 1299.846 275.414 L 1292.006 297.414 L 1274.846 292.734 L 1271.846 271.414 Z" />
</g>
<g id="part-24">
<path d="M 1341.540 643.846 L 1340.200 646.846 L 1336.540 649.043 L 1331.540 649.846 L 1326.540 649.043 L 1322.880 646.846 L 1321.540 643.846 L 1322.880 640.846 L 1326.540 638.650 L 1331.540 637.846 L 1336.540 638.650 L 1340.200 640.846 L 1341.540 643.846 Z" />
</g>
<g id="part-25">
<path d="M 1275.996 571.717 L 1289.996 571.717 L 1289.996 593.717 L 1275.996 593.717 L 1275.996 571.717 Z" />
</g>
<g id="part-26">
<path d="M 1245.197 865.423 L 1276.197 865.423 L 1276.197 874.423 L 1245.197 874.423 L 1245.197 865.423 Z" />
</g>
<g id="part-27">
<path d="M 1202.540 221.969 L 1226.540 221.969 L 1226.540 239.969 L 1202.540 239.969 L 1202.540 221.969 Z" />
</g>
<g id="part-28">
<path d="M 1276.540 230.969 L 1293.540 230.969 L 1293.540 257.969 L 1276.540 257.969 L 1276.540 230.969 Z" />
</g>
<g id="part-29">
<path d="M 1220.540 90.969 L 1230.540 90.969 L 1230.540 104.969 L 1220.540 104.969 L 1220.540 90.969 Z" />
</g>
<g id="part-30">
<path d="M 1220.540 51.969 L 1261.540 51.969 L 1261.540 88.969 L 1220.540 88.969 L 1220.540 51.969 Z" />
<path d="M 1233.660 63.809 L 1233.660 77.129 L 1248.420 77.129 L 1248.420 63.809 L 1233.660 63.809 Z" fill="#f7f7f2" fill-opacity="1" stroke="#163b5c" />
</g>
<g id="part-31">
<path d="M 1306.040 444.846 L 1338.040 444.846 L 1338.040 486.846 L 1306.040 486.846 L 1306.040 444.846 Z" />
<path d="M 1316.920 452.406 L 1316.920 461.646 L 1331.000 461.646 L 1331.000 452.406 L 1316.920 452.406 Z" fill="#f7f7f2" fill-opacity="1" stroke="#163b5c" />
<path d="M 1316.920 470.046 L 1316.920 479.286 L 1331.000 479.286 L 1331.000 470.046 L 1316.920 470.046 Z" fill="#f7f7f2" fill-opacity="1" stroke="#163b5c" />
</g>
<g id="part-32">
<path d="M 1170.346 391.914 L 1198.346 391.914 L 1198.346 399.174 L 1179.866 399.174 L 1179.866 417.654 L 1198.346 417.654 L 1198.346 424.914 L 1170.346 424.914 L 1170.346 391.914 Z" />
</g>
<g id="part-33">
<path d="M 1200.346 394.414 L 1230.346 398.414 L 1221.946 422.414 L 1203.346 417.374 L 1200.346 394.414 Z" />
</g>
<g id="part-34">
<path d="M 1190.996 542.892 L 1189.622 546.609 L 1185.813 549.475 L 1180.443 550.833 L 1174.741 550.372 L 1170.014 548.197 L 1167.345 544.806 L 1167.345 540.977 L 1170.014 537.587 L 1174.741 535.411 L 1180.443 534.950 L 1185.813 536.308 L 1189.622 539.174 L 1190.996 542.892 Z" />
</g>
<g id="part-35">
<path d="M 1210.846 336.914 L 1226.846 336.914 L 1226.846 360.914 L 1210.846 360.914 L 1210.846 336.914 Z" />
</g>
<g id="part-36">
<path d="M 1116.846 357.914 L 1149.846 357.914 L 1149.846 368.914 L 1116.846 368.914 L 1116.846 357.914 Z" />
</g>
<g id="part-37">
<path d="M 1154.846 313.414 L 1180.846 313.414 L 1180.846 333.414 L 1154.846 333.414 L 1154.846 313.414 Z" />
</g>
<g id="part-38">
<path d="M 1095.846 339.914 L 1114.846 339.914 L 1114.846 368.914 L 1095.846 368.914 L 1095.846 339.914 Z" />
</g>
<g id="part-39">
<path d="M 1287.040 855.346 L 1299.040 855.346 L 1299.040 871.346 L 1287.040 871.346 L 1287.040 855.346 Z" />
</g>
<g id="part-40">
<path d="M 1076.540 78.469 L 1119.540 78.469 L 1119.540 117.469 L 1076.540 117.469 L 1076.540 78.469 Z" />
<path d="M 1090.300 90.949 L 1090.300 104.989 L 1105.780 104.989 L 1105.780 90.949 L 1090.300 90.949 Z" fill="#f7f7f2" fill-opacity="1" stroke="#163b5c" />
</g>
<g id="part-41">
<path d="M 1304.540 253.846 L 1338.540 253.846 L 1338.540 295.846 L 1304.540 295.846 L 1304.540 253.846 Z" />
<path d="M 1316.100 261.406 L 1316.100 270.646 L 1331.060 270.646 L 1331.060 261.406 L 1316.100 261.406 Z" fill="#f7f7f2" fill-opacity="1" stroke="#163b5c" />
<path d="M 1316.100 279.046 L 1316.100 288.286 L 1331.060 288.286 L 1331.060 279.046 L 1316.100 279.046 Z" fill="#f7f7f2" fill-opacity="1" stroke="#163b5c" />
</g>
<g id="part-42">
<path d="M 1213.996 492.717 L 1243.996 492.717 L 1243.996 500.417 L 1224.196 500.417 L 1224.196 520.017 L 1243.996 520.017 L 1243.996 527.717 L 1213.996 527.717 L 1213.996 492.717 Z" />
</g>
<g id="part-43">
<path d="M 1301.540 167.846 L 1333.540 171.846 L 1324.580 175.846 L 1304.540 174.406 L 1301.540 167.846 Z" />
</g>
<g id="part-44">
<path d="M 1190.996 560.775 L 1189.622 564.493 L 1185.813 567.359 L 1180.443 568.717 L 1174.741 568.255 L 1170.014 566.080 L 1167.345 562.689 L 1167.345 558.860 L 1170.014 555.470 L 1174.741 553.295 L 1180.443 552.833 L 1185.813 554.191 L 1189.622 557.057 L 1190.996 560.775 Z" />
</g>
<g id="part-45">
<path d="M 1065.999 233.969 L 1083.999 233.969 L 1083.999 259.969 L 1065.999 259.969 L 1065.999 233.969 Z" />
</g>
<g id="part-46">
<path d="M 1320.716 36.969 L 1331.716 36.969 L 1331.716 49.969 L 1320.716 49.969 L 1320.716 36.969 Z" />
</g>
<g id="part-47">
<path d="M 1120.996 447.217 L 1148.996 447.217 L 1148.996 469.217 L 1120.996 469.217 L 1120.996 447.217 Z" />
</g>
<g id="part-48">
<path d="M 1291.040 742.846 L 1312.040 742.846 L 1312.040 751.846 L 1291.040 751.846 L 1291.040 742.846 Z" />
</g>
<g id="part-49">
<path d="M 1244.500 719.500 L 1258.500 719.500 L 1258.500 737.500 L 1244.500 737.500 L 1244.500 719.500 Z" />
</g>
<g id="part-50">
<path d="M 1208.540 106.969 L 1253.540 106.969 L 1253.540 147.969 L 1208.540 147.969 L 1208.540 106.969 Z" />
<path d="M 1222.940 120.089 L 1222.940 134.849 L 1239.140 134.849 L 1239.140 120.089 L 1222.940 120.089 Z" fill="#f7f7f2" fill-opacity="1" stroke="#163b5c" />
</g>
<g id="part-51">
<path d="M 1301.540 123.846 L 1337.540 123.846 L 1337.540 165.846 L 1301.540 165.846 L 1301.540 123.846 Z" />
<path d="M 1313.780 131.406 L 1313.780 140.646 L 1329.620 140.646 L 1329.620 131.406 L 1313.780 131.406 Z" fill="#f7f7f2" fill-opacity="1" stroke="#163b5c" />
<path d="M 1313.780 149.046 L 1313.780 158.286 L 1329.620 158.286 L 1329.620 149.046 L 1313.780 149.046 Z" fill="#f7f7f2" fill-opacity="1" stroke="#163b5c" />
</g>
<g id="part-52">
<path d="M 1187.197 876.423 L 1219.197 876.423 L 1219.197 884.563 L 1198.077 884.563 L 1198.077 905.283 L 1219.197 905.283 L 1219.197 913.423 L 1187.197 913.423 L 1187.197 876.423 Z" />
</g>
<g id="part-53">
<path d="M 1164.540 222.969 L 1174.540 226.969 L 1171.740 232.969 L 1167.540 231.169 L 1164.540 222.969 Z" />
</g>
<g id="part-54">
<path d="M 1088.846 271.914 L 1087.636 275.981 L 1084.214 279.345 L 1079.172 281.424 L 1073.383 281.859 L 1067.846 280.574 L 1063.520 277.792 L 1061.152 273.993 L 1061.152 269.835 L 1063.520 266.036 L 1067.846 263.254 L 1073.383 261.969 L 1079.172 262.403 L 1084.214 264.482 L 1087.636 267.846 L 1088.846 271.914 Z" />
</g>
<g id="part-55">
<path d="M 1066.846 367.914 L 1086.846 367.914 L 1086.846 395.914 L 1066.846 395.914 L 1066.846 367.914 Z" />
</g>
<g id="part-56">
<path d="M 1324.312 923.896 L 1337.312 923.896 L 1337.312 938.896 L 1324.312 938.896 L 1324.312 923.896 Z" />
</g>
<g id="part-57">
<path d="M 1213.869 600.640 L 1243.869 600.640 L 1243.869 624.640 L 1213.869 624.640 L 1213.869 600.640 Z" />
</g>
<g id="part-58">
<path d="M 1205.000 838.000 L 1228.000 838.000 L 1228.000 849.000 L 1205.000 849.000 L 1205.000 838.000 Z" />
</g>
<g id="part-59">
<path d="M 1162.996 482.217 L 1178.996 482.217 L 1178.996 502.217 L 1162.996 502.217 L 1162.996 482.217 Z" />
</g>
<g id="part-60">
<path d="M 1115.540 142.969 L 1162.540 142.969 L 1162.540 185.969 L 1115.540 185.969 L 1115.540 142.969 Z" />
<path d="M 1130.580 156.729 L 1130.580 172.209 L 1147.500 172.209 L 1147.500 156.729 L 1130.580 156.729 Z" fill="#f7f7f2" fill-opacity="1" stroke="#163b5c" />
</g>
<g id="part-61">
<path d="M 1164.540 31.469 L 1202.540 31.469 L 1202.540 75.469 L 1164.540 75.469 L 1164.540 31.469 Z" />
<path d="M 1177.460 39.389 L 1177.460 49.069 L 1194.180 49.069 L 1194.180 39.389 L 1177.460 39.389 Z" fill="#f7f7f2" fill-opacity="1" stroke="#163b5c" />
<path d="M 1177.460 57.869 L 1177.460 67.549 L 1194.180 67.549 L 1194.180 57.869 L 1177.460 57.869 Z" fill="#f7f7f2" fill-opacity="1" stroke="#163b5c" />
</g>
<g id="part-62">
<path d="M 1236.000 788.500 L 1270.000 788.500 L 1270.000 797.080 L 1247.560 797.080 L 1247.560 818.920 L 1270.000 818.920 L 1270.000 827.500 L 1236.000 827.500 L 1236.000 788.500 Z" />
</g>
<g id="part-63">
<path d="M 1104.540 206.969 L 1116.540 210.969 L 1113.180 218.969 L 1107.540 216.809 L 1104.540 206.969 Z" />
</g>
<g id="part-64">
<path d="M 1191.540 248.469 L 1190.330 252.536 L 1186.908 255.900 L 1181.866 257.979 L 1176.077 258.414 L 1170.540 257.129 L 1166.214 254.346 L 1163.846 250.548 L 1163.846 246.389 L 1166.214 242.591 L 1170.540 239.808 L 1176.077 238.523 L 1181.866 238.958 L 1186.908 241.037 L 1190.330 244.401 L 1191.540 248.469 Z" />
</g>
<g id="part-65">
<path d="M 1306.040 532.846 L 1328.040 532.846 L 1328.040 540.846 L 1306.040 540.846 L 1306.040 532.846 Z" />
</g>
<g id="part-66">
<path d="M 1198.500 810.000 L 1213.500 810.000 L 1213.500 827.000 L 1198.500 827.000 L 1198.500 810.000 Z" />
</g>
<g id="part-67">
<path d="M 1235.500 691.500 L 1267.500 691.500 L 1267.500 717.500 L 1235.500 717.500 L 1235.500 691.500 Z" />
</g>
<g id="part-68">
<path d="M 1193.996 446.217 L 1218.996 446.217 L 1218.996 459.217 L 1193.996 459.217 L 1193.996 446.217 Z" />
</g>
<g id="part-69">
<path d="M 1182.846 289.414 L 1200.846 289.414 L 1200.846 311.414 L 1182.846 311.414 L 1182.846 289.414 Z" />
</g>
<g id="part-70">
<path d="M 1266.846 329.414 L 1291.846 329.414 L 1291.846 352.414 L 1266.846 352.414 L 1266.846 329.414 Z" />
<path d="M 1274.846 336.774 L 1274.846 345.054 L 1283.846 345.054 L 1283.846 336.774 L 1274.846 336.774 Z" fill="#f7f7f2" fill-opacity="1" stroke="#163b5c" />
</g>
<g id="part-71">
<path d="M 1121.540 74.969 L 1161.540 74.969 L 1161.540 120.969 L 1121.540 120.969 L 1121.540 74.969 Z" />
<path d="M 1135.140 83.249 L 1135.140 93.369 L 1152.740 93.369 L 1152.740 83.249 L 1135.140 83.249 Z" fill="#f7f7f2" fill-opacity="1" stroke="#163b5c" />
<path d="M 1135.140 102.569 L 1135.140 112.689 L 1152.740 112.689 L 1152.740 102.569 L 1135.140 102.569 Z" fill="#f7f7f2" fill-opacity="1" stroke="#163b5c" />
</g>
<g id="part-72">
<path d="M 1107.000 656.000 L 1143.000 656.000 L 1143.000 665.020 L 1119.240 665.020 L 1119.240 687.980 L 1143.000 687.980 L 1143.000 697.000 L 1107.000 697.000 L 1107.000 656.000 Z" />
</g>
<g id="part-73">
<path d="M 1163.540 120.469 L 1177.540 124.469 L 1173.620 134.469 L 1166.540 131.949 L 1163.540 120.469 Z" />
</g>
<g id="part-74">
<path d="M 1290.822 500.151 L 1289.438 505.032 L 1285.528 509.069 L 1279.766 511.564 L 1273.149 512.085 L 1266.822 510.543 L 1261.877 507.204 L 1259.171 502.646 L 1259.171 497.656 L 1261.877 493.097 L 1266.822 489.759 L 1273.149 488.217 L 1279.766 488.738 L 1285.528 491.233 L 1289.438 495.270 L 1290.822 500.151 Z" />
</g>
<g id="part-75">
<path d="M 1149.000 639.500 L 1173.000 639.500 L 1173.000 649.500 L 1149.000 649.500 L 1149.000 639.500 Z" />
</g>
<g id="part-76">
<path d="M 1180.996 461.217 L 1197.996 461.217 L 1197.996 480.217 L 1180.996 480.217 L 1180.996 461.217 Z" />
</g>
<g id="part-77">
<path d="M 1245.869 598.640 L 1255.869 598.640 L 1255.869 626.640 L 1245.869 626.640 L 1245.869 598.640 Z" />
</g>
<g id="part-78">
<path d="M 1242.846 282.414 L 1269.846 282.414 L 1269.846 297.414 L 1242.846 297.414 L 1242.846 282.414 Z" />
</g>
<g id="part-79">
<path d="M 1090.846 259.914 L 1110.846 259.914 L 1110.846 283.914 L 1090.846 283.914 L 1090.846 259.914 Z" />
</g>
<g id="part-80">
<path d="M 1238.996 461.217 L 1265.996 461.217 L 1265.996 486.217 L 1238.996 486.217 L 1238.996 461.217 Z" />
<path d="M 1247.636 469.217 L 1247.636 478.217 L 1257.356 478.217 L 1257.356 469.217 L 1247.636 469.217 Z" fill="#f7f7f2" fill-opacity="1" stroke="#163b5c" />
</g>
<g id="part-81">
<path d="M 1255.540 149.969 L 1297.540 149.969 L 1297.540 197.969 L 1255.540 197.969 L 1255.540 149.969 Z" />
<path d="M 1269.820 158.609 L 1269.820 169.169 L 1288.300 169.169 L 1288.300 158.609 L 1269.820 158.609 Z" fill="#f7f7f2" fill-opacity="1" stroke="#163b5c" />
<path d="M 1269.820 178.769 L 1269.820 189.329 L 1288.300 189.329 L 1288.300 178.769 L 1269.820 178.769 Z" fill="#f7f7f2" fill-opacity="1" stroke="#163b5c" />
</g>
<g id="part-82">
<path d="M 1310.040 756.846 L 1348.040 756.846 L 1348.040 766.306 L 1322.960 766.306 L 1322.960 790.386 L 1348.040 790.386 L 1348.040 799.846 L 1310.040 799.846 L 1310.040 756.846 Z" />
</g>
<g id="part-83">
<path d="M 1304.540 235.846 L 1320.540 239.846 L 1316.060 251.846 L 1307.540 248.966 L 1304.540 235.846 Z" />
</g>
<g id="part-84">
<path d="M 1281.996 434.282 L 1280.613 439.163 L 1276.703 443.200 L 1270.941 445.695 L 1264.324 446.217 L 1257.996 444.675 L 1253.052 441.336 L 1250.346 436.777 L 1250.346 431.787 L 1253.052 427.229 L 1257.996 423.890 L 1264.324 422.348 L 1270.941 422.870 L 1276.703 425.365 L 1280.613 429.402 L 1281.996 434.282 Z" />
</g>
<g id="part-85">
<path d="M 1152.996 504.217 L 1178.996 504.217 L 1178.996 516.217 L 1152.996 516.217 L 1152.996 504.217 Z" />
</g>
<g id="part-86">
<path d="M 1230.846 299.414 L 1249.846 299.414 L 1249.846 320.414 L 1230.846 320.414 L 1230.846 299.414 Z" />
</g>
<g id="part-87">
<path d="M 1225.040 123.469 L 1237.040 123.469 L 1237.040 131.469 L 1225.040 131.469 L 1225.040 123.469 Z" />
</g>
<g id="part-88">
<path d="M 1240.846 263.414 L 1269.846 263.414 L 1269.846 280.414 L 1240.846 280.414 L 1240.846 263.414 Z" />
</g>
<g id="part-89">
<path d="M 1122.346 371.414 L 1144.346 371.414 L 1144.346 397.414 L 1122.346 397.414 L 1122.346 371.414 Z" />
</g>
<g id="part-90">
<path d="M 1136.345 541.717 L 1165.345 541.717 L 1165.345 568.717 L 1136.345 568.717 L 1136.345 541.717 Z" />
<path d="M 1145.625 550.357 L 1145.625 560.077 L 1156.065 560.077 L 1156.065 550.357 L 1145.625 550.357 Z" fill="#f7f7f2" fill-opacity="1" stroke="#163b5c" />
</g>
<g id="part-91">
<path d="M 1118.540 187.969 L 1162.540 187.969 L 1162.540 237.969 L 1118.540 237.969 L 1118.540 187.969 Z" />
<path d="M 1133.500 196.969 L 1133.500 207.969 L 1152.860 207.969 L 1152.860 196.969 L 1133.500 196.969 Z" fill="#f7f7f2" fill-opacity="1" stroke="#163b5c" />
<path d="M 1133.500 217.969 L 1133.500 228.969 L 1152.860 228.969 L 1152.860 217.969 L 1133.500 217.969 Z" fill="#f7f7f2" fill-opacity="1" stroke="#163b5c" />
</g>
<g id="part-92">
<path d="M 1171.869 575.640 L 1211.869 575.640 L 1211.869 581.800 L 1185.469 581.800 L 1185.469 597.480 L 1211.869 597.480 L 1211.869 603.640 L 1171.869 603.640 L 1171.869 575.640 Z" />
</g>
<g id="part-93">
<path d="M 1282.540 936.846 L 1300.540 940.846 L 1295.500 954.846 L 1285.540 951.606 L 1282.540 936.846 Z" />
</g>
<g id="part-94">
<path d="M 1120.262 843.500 L 1119.744 849.194 L 1118.277 853.904 L 1116.116 856.815 L 1113.635 857.423 L 1111.262 855.624 L 1109.408 851.729 L 1108.393 846.411 L 1108.393 840.589 L 1109.408 835.271 L 1111.262 831.376 L 1113.635 829.577 L 1116.116 830.185 L 1118.277 833.096 L 1119.744 837.806 L 1120.262 843.500 Z" />
</g>
<g id="part-95">
<path d="M 1071.846 316.914 L 1099.846 316.914 L 1099.846 330.914 L 1071.846 330.914 L 1071.846 316.914 Z" />
</g>
<g id="part-96">
<path d="M 1140.846 260.414 L 1161.846 260.414 L 1161.846 283.414 L 1140.846 283.414 L 1140.846 260.414 Z" />
</g>
<g id="part-97">
<path d="M 1204.540 65.469 L 1218.540 65.469 L 1218.540 75.469 L 1204.540 75.469 L 1204.540 65.469 Z" />
</g>
<g id="part-98">
<path d="M 1087.996 448.717 L 1118.996 448.717 L 1118.996 467.717 L 1087.996 467.717 L 1087.996 448.717 Z" />
</g>
<g id="part-99">
<path d="M 1219.996 541.717 L 1243.996 541.717 L 1243.996 569.717 L 1219.996 569.717 L 1219.996 541.717 Z" />
</g>
<g id="part-100">
<path d="M 1112.697 859.423 L 1143.697 859.423 L 1143.697 888.423 L 1112.697 888.423 L 1112.697 859.423 Z" />
<path d="M 1122.617 868.703 L 1122.617 879.143 L 1133.777 879.143 L 1133.777 868.703 L 1122.617 868.703 Z" fill="#f7f7f2" fill-opacity="1" stroke="#163b5c" />
</g>
<g id="part-101">
<path d="M 1310.040 806.346 L 1334.040 806.346 L 1334.040 858.346 L 1310.040 858.346 L 1310.040 806.346 Z" />
<path d="M 1318.200 815.706 L 1318.200 827.146 L 1328.760 827.146 L 1328.760 815.706 L 1318.200 815.706 Z" fill="#f7f7f2" fill-opacity="1" stroke="#163b5c" />
<path d="M 1318.200 837.546 L 1318.200 848.986 L 1328.760 848.986 L 1328.760 837.546 L 1318.200 837.546 Z" fill="#f7f7f2" fill-opacity="1" stroke="#163b5c" />
</g>
<g id="part-102">
<path d="M 1221.197 876.423 L 1263.197 876.423 L 1263.197 882.583 L 1235.477 882.583 L 1235.477 898.263 L 1263.197 898.263 L 1263.197 904.423 L 1221.197 904.423 L 1221.197 876.423 Z" />
</g>
<g id="part-103">
<path d="M 1090.697 863.923 L 1110.697 867.923 L 1105.097 883.923 L 1093.697 880.323 L 1090.697 863.923 Z" />
</g>
<g id="part-104">
<path d="M 1134.131 843.500 L 1133.612 849.194 L 1132.146 853.904 L 1129.985 856.815 L 1127.504 857.423 L 1125.131 855.624 L 1123.277 851.729 L 1122.262 846.411 L 1122.262 840.589 L 1123.277 835.271 L 1125.131 831.376 L 1127.504 829.577 L 1129.985 830.185 L 1132.146 833.096 L 1133.612 837.806 L 1134.131 843.500 Z" />
</g>
<g id="part-105">
<path d="M 1131.846 242.414 L 1161.846 242.414 L 1161.846 258.414 L 1131.846 258.414 L 1131.846 242.414 Z" />
</g>
<g id="part-106">
<path d="M 1087.346 417.914 L 1110.346 417.914 L 1110.346 442.914 L 1087.346 442.914 L 1087.346 417.914 Z" />
</g>
<g id="part-107">
<path d="M 1260.040 799.346 L 1276.040 799.346 L 1276.040 811.346 L 1260.040 811.346 L 1260.040 799.346 Z" />
</g>
<g id="part-108">
<path d="M 1080.869 624.140 L 1113.869 624.140 L 1113.869 645.140 L 1080.869 645.140 L 1080.869 624.140 Z" />
</g>
<g id="part-109">
<path d="M 1235.040 947.846 L 1261.040 947.846 L 1261.040 955.846 L 1235.040 955.846 L 1235.040 947.846 Z" />
</g>
<g id="part-110">
<path d="M 1165.000 772.000 L 1198.000 772.000 L 1198.000 803.000 L 1165.000 803.000 L 1165.000 772.000 Z" />
<path d="M 1175.560 781.920 L 1175.560 793.080 L 1187.440 793.080 L 1187.440 781.920 L 1175.560 781.920 Z" fill="#f7f7f2" fill-opacity="1" stroke="#163b5c" />
</g>
<g id="part-111">
<path d="M 1291.040 686.846 L 1315.040 686.846 L 1315.040 740.846 L 1291.040 740.846 L 1291.040 686.846 Z" />
<path d="M 1299.200 696.566 L 1299.200 708.446 L 1309.760 708.446 L 1309.760 696.566 L 1299.200 696.566 Z" fill="#f7f7f2" fill-opacity="1" stroke="#163b5c" />
<path d="M 1299.200 719.246 L 1299.200 731.126 L 1309.760 731.126 L 1309.760 719.246 L 1299.200 719.246 Z" fill="#f7f7f2" fill-opacity="1" stroke="#163b5c" />
</g>
<g id="part-112">
<path d="M 1106.197 890.423 L 1150.197 890.423 L 1150.197 896.583 L 1121.157 896.583 L 1121.157 912.263 L 1150.197 912.263 L 1150.197 918.423 L 1106.197 918.423 L 1106.197 890.423 Z" />
</g>
<g id="part-113">
<path d="M 1094.996 472.717 L 1116.996 476.717 L 1110.836 494.717 L 1097.996 490.757 L 1094.996 472.717 Z" />
</g>
<g id="part-114">
<path d="M 1180.216 198.928 L 1178.946 201.090 L 1175.539 202.566 L 1171.078 202.887 L 1166.977 201.951 L 1164.540 200.055 L 1164.540 197.801 L 1166.977 195.905 L 1171.078 194.969 L 1175.539 195.289 L 1178.946 196.765 L 1180.216 198.928 Z" />
</g>
<g id="part-115">
<path d="M 1112.346 399.414 L 1144.346 399.414 L 1144.346 417.414 L 1112.346 417.414 L 1112.346 399.414 Z" />
</g>
<g id="part-116">
<path d="M 1192.996 541.717 L 1217.996 541.717 L 1217.996 568.717 L 1192.996 568.717 L 1192.996 541.717 Z" />
</g>
<g id="part-117">
<path d="M 1236.000 772.500 L 1254.000 772.500 L 1254.000 786.500 L 1236.000 786.500 L 1236.000 772.500 Z" />
</g>
<g id="part-118">
<path d="M 1256.500 666.500 L 1267.500 666.500 L 1267.500 689.500 L 1256.500 689.500 L 1256.500 666.500 Z" />
</g>
<g id="part-119">
<path d="M 1191.197 915.423 L 1219.197 915.423 L 1219.197 925.423 L 1191.197 925.423 L 1191.197 915.423 Z" />
</g>
<g id="part-120">
<path d="M 1304.540 860.346 L 1339.540 860.346 L 1339.540 893.346 L 1304.540 893.346 L 1304.540 860.346 Z" />
<path d="M 1315.740 870.906 L 1315.740 882.786 L 1328.340 882.786 L 1328.340 870.906 L 1315.740 870.906 Z" fill="#f7f7f2" fill-opacity="1" stroke="#163b5c" />
</g>
<g id="part-121">
<path d="M 1304.540 177.846 L 1330.540 177.846 L 1330.540 233.846 L 1304.540 233.846 L 1304.540 177.846 Z" />
<path d="M 1313.380 187.926 L 1313.380 200.246 L 1324.820 200.246 L 1324.820 187.926 L 1313.380 187.926 Z" fill="#f7f7f2" fill-opacity="1" stroke="#163b5c" />
<path d="M 1313.380 211.446 L 1313.380 223.766 L 1324.820 223.766 L 1324.820 211.446 L 1313.380 211.446 Z" fill="#f7f7f2" fill-opacity="1" stroke="#163b5c" />
</g>
<g id="part-122">
<path d="M 1127.000 608.500 L 1173.000 608.500 L 1173.000 614.880 L 1142.640 614.880 L 1142.640 631.120 L 1173.000 631.120 L 1173.000 637.500 L 1127.000 637.500 L 1127.000 608.500 Z" />
</g>
<g id="part-123">
<path d="M 1101.846 311.914 L 1125.846 315.914 L 1119.126 335.914 L 1104.846 331.594 L 1101.846 311.914 Z" />
</g>
<g id="part-124">
<path d="M 1318.716 44.030 L 1317.446 47.274 L 1314.039 49.487 L 1309.578 49.969 L 1305.477 48.564 L 1303.040 45.720 L 1303.040 42.339 L 1305.477 39.495 L 1309.578 38.091 L 1314.039 38.572 L 1317.446 40.786 L 1318.716 44.030 Z" />
</g>
<g id="part-125">
<path d="M 1332.540 952.346 L 1342.540 952.346 L 1342.540 972.346 L 1332.540 972.346 L 1332.540 952.346 Z" />
</g>
<g id="part-126">
<path d="M 1121.000 798.577 L 1148.000 798.577 L 1148.000 827.577 L 1121.000 827.577 L 1121.000 798.577 Z" />
</g>
<g id="part-127">
<path d="M 1118.996 522.217 L 1138.996 522.217 L 1138.996 538.217 L 1118.996 538.217 L 1118.996 522.217 Z" />
</g>
<g id="part-128">
<path d="M 1199.996 461.217 L 1212.996 461.217 L 1212.996 486.217 L 1199.996 486.217 L 1199.996 461.217 Z" />
</g>
<g id="part-129">
<path d="M 1160.346 429.414 L 1190.346 429.414 L 1190.346 441.414 L 1160.346 441.414 L 1160.346 429.414 Z" />
</g>
<g id="part-130">
<path d="M 1306.040 407.846 L 1343.040 407.846 L 1343.040 442.846 L 1306.040 442.846 L 1306.040 407.846 Z" />
<path d="M 1317.880 419.046 L 1317.880 431.646 L 1331.200 431.646 L 1331.200 419.046 L 1317.880 419.046 Z" fill="#f7f7f2" fill-opacity="1" stroke="#163b5c" />
</g>
<g id="part-131">
<path d="M 1302.540 952.346 L 1330.540 952.346 L 1330.540 994.346 L 1302.540 994.346 L 1302.540 952.346 Z" />
<path d="M 1312.060 959.906 L 1312.060 969.146 L 1324.380 969.146 L 1324.380 959.906 L 1312.060 959.906 Z" fill="#f7f7f2" fill-opacity="1" stroke="#163b5c" />
<path d="M 1312.060 977.546 L 1312.060 986.786 L 1324.380 986.786 L 1324.380 977.546 L 1312.060 977.546 Z" fill="#f7f7f2" fill-opacity="1" stroke="#163b5c" />
</g>
<g id="part-132">
<path d="M 1103.000 753.000 L 1151.000 753.000 L 1151.000 759.820 L 1119.320 759.820 L 1119.320 777.180 L 1151.000 777.180 L 1151.000 784.000 L 1103.000 784.000 L 1103.000 753.000 Z" />
</g>
<g id="part-133">
<path d="M 1228.540 228.969 L 1254.540 232.969 L 1247.260 254.969 L 1231.540 250.289 L 1228.540 228.969 Z" />
</g>
<g id="part-134">
<path d="M 1319.540 643.846 L 1318.200 646.846 L 1314.540 649.043 L 1309.540 649.846 L 1304.540 649.043 L 1300.880 646.846 L 1299.540 643.846 L 1300.880 640.846 L 1304.540 638.650 L 1309.540 637.846 L 1314.540 638.650 L 1318.200 640.846 L 1319.540 643.846 Z" />
</g>
<g id="part-135">
<path d="M 1092.197 893.423 L 1104.197 893.423 L 1104.197 915.423 L 1092.197 915.423 L 1092.197 893.423 Z" />
</g>
<g id="part-136">
<path d="M 1090.000 789.077 L 1119.000 789.077 L 1119.000 798.077 L 1090.000 798.077 L 1090.000 789.077 Z" />
</g>
<g id="part-137">
<path d="M 1077.846 296.914 L 1099.846 296.914 L 1099.846 314.914 L 1077.846 314.914 L 1077.846 296.914 Z" />
</g>
<g id="part-138">
<path d="M 1271.846 300.414 L 1286.846 300.414 L 1286.846 327.414 L 1271.846 327.414 L 1271.846 300.414 Z" />
</g>
<g id="part-139">
<path d="M 1194.540 205.969 L 1226.540 205.969 L 1226.540 219.969 L 1194.540 219.969 L 1194.540 205.969 Z" />
</g>
<g id="part-140">
<path d="M 1262.040 12.969 L 1301.040 12.969 L 1301.040 49.969 L 1262.040 49.969 L 1262.040 12.969 Z" />
<path d="M 1274.520 24.809 L 1274.520 38.129 L 1288.560 38.129 L 1288.560 24.809 L 1274.520 24.809 Z" fill="#f7f7f2" fill-opacity="1" stroke="#163b5c" />
</g>
<g id="part-141">
<path d="M 1278.040 811.346 L 1308.040 811.346 L 1308.040 853.346 L 1278.040 853.346 L 1278.040 811.346 Z" />
<path d="M 1288.240 818.906 L 1288.240 828.146 L 1301.440 828.146 L 1301.440 818.906 L 1288.240 818.906 Z" fill="#f7f7f2" fill-opacity="1" stroke="#163b5c" />
<path d="M 1288.240 836.546 L 1288.240 845.786 L 1301.440 845.786 L 1301.440 836.546 L 1288.240 836.546 Z" fill="#f7f7f2" fill-opacity="1" stroke="#163b5c" />
</g>
<g id="part-142">
<path d="M 1182.846 327.914 L 1208.846 327.914 L 1208.846 335.174 L 1191.686 335.174 L 1191.686 353.654 L 1208.846 353.654 L 1208.846 360.914 L 1182.846 360.914 L 1182.846 327.914 Z" />
</g>
<g id="part-143">
<path d="M 1236.346 342.914 L 1264.346 346.914 L 1256.506 370.914 L 1239.346 365.874 L 1236.346 342.914 Z" />
</g>
<g id="part-144">
<path d="M 1223.000 669.000 L 1221.660 673.000 L 1218.000 675.928 L 1213.000 677.000 L 1208.000 675.928 L 1204.340 673.000 L 1203.000 669.000 L 1204.340 665.000 L 1208.000 662.072 L 1213.000 661.000 L 1218.000 662.072 L 1221.660 665.000 L 1223.000 669.000 Z" />
</g>
<g id="part-145">
<path d="M 1267.996 462.217 L 1281.996 462.217 L 1281.996 486.217 L 1267.996 486.217 L 1267.996 462.217 Z" />
</g>
<g id="part-146">
<path d="M 1250.996 448.217 L 1281.996 448.217 L 1281.996 459.217 L 1250.996 459.217 L 1250.996 448.217 Z" />
</g>
<g id="part-147">
<path d="M 1088.846 237.914 L 1112.846 237.914 L 1112.846 257.914 L 1088.846 257.914 L 1088.846 237.914 Z" />
</g>
<g id="part-148">
<path d="M 1189.846 257.414 L 1206.846 257.414 L 1206.846 286.414 L 1189.846 286.414 L 1189.846 257.414 Z" />
</g>
<g id="part-149">
<path d="M 1322.540 235.846 L 1332.540 235.846 L 1332.540 251.846 L 1322.540 251.846 L 1322.540 235.846 Z" />
</g>
<g id="part-150">
<path d="M 1121.540 33.969 L 1162.540 33.969 L 1162.540 72.969 L 1121.540 72.969 L 1121.540 33.969 Z" />
<path d="M 1134.660 46.449 L 1134.660 60.489 L 1149.420 60.489 L 1149.420 46.449 L 1134.660 46.449 Z" fill="#f7f7f2" fill-opacity="1" stroke="#163b5c" />
</g>
<g id="part-151">
<path d="M 1306.040 488.846 L 1338.040 488.846 L 1338.040 530.846 L 1306.040 530.846 L 1306.040 488.846 Z" />
<path d="M 1316.920 496.406 L 1316.920 505.646 L 1331.000 505.646 L 1331.000 496.406 L 1316.920 496.406 Z" fill="#f7f7f2" fill-opacity="1" stroke="#163b5c" />
<path d="M 1316.920 514.046 L 1316.920 523.286 L 1331.000 523.286 L 1331.000 514.046 L 1316.920 514.046 Z" fill="#f7f7f2" fill-opacity="1" stroke="#163b5c" />
</g>
<g id="part-152">
<path d="M 1150.996 445.217 L 1178.996 445.217 L 1178.996 452.917 L 1160.516 452.917 L 1160.516 472.517 L 1178.996 472.517 L 1178.996 480.217 L 1150.996 480.217 L 1150.996 445.217 Z" />
</g>
<g id="part-153">
<path d="M 1083.040 119.469 L 1113.040 123.469 L 1104.640 127.469 L 1086.040 126.029 L 1083.040 119.469 Z" />
</g>
<g id="part-154">
<path d="M 1134.345 555.217 L 1132.971 558.934 L 1129.162 561.800 L 1123.792 563.158 L 1118.090 562.697 L 1113.363 560.522 L 1110.694 557.131 L 1110.694 553.302 L 1113.363 549.912 L 1118.090 547.736 L 1123.792 547.275 L 1129.162 548.633 L 1132.971 551.499 L 1134.345 555.217 Z" />
</g>
<g id="part-155">
<path d="M 1288.846 301.414 L 1304.846 301.414 L 1304.846 327.414 L 1288.846 327.414 L 1288.846 301.414 Z" />
</g>
<g id="part-156">
<path d="M 1193.540 241.969 L 1226.540 241.969 L 1226.540 254.969 L 1193.540 254.969 L 1193.540 241.969 Z" />
</g>
<g id="part-157">
<path d="M 1088.846 370.914 L 1114.846 370.914 L 1114.846 392.914 L 1088.846 392.914 L 1088.846 370.914 Z" />
</g>
<g id="part-158">
<path d="M 1290.540 361.846 L 1309.540 361.846 L 1309.540 370.846 L 1290.540 370.846 L 1290.540 361.846 Z" />
</g>
<g id="part-159">
<path d="M 1149.000 716.000 L 1161.000 716.000 L 1161.000 734.000 L 1149.000 734.000 L 1149.000 716.000 Z" />
</g>
<g id="part-160">
<path d="M 1163.540 77.469 L 1206.540 77.469 L 1206.540 118.469 L 1163.540 118.469 L 1163.540 77.469 Z" />
<path d="M 1177.300 90.589 L 1177.300 105.349 L 1192.780 105.349 L 1192.780 90.589 L 1177.300 90.589 Z" fill="#f7f7f2" fill-opacity="1" stroke="#163b5c" />
</g>
<g id="part-161">
<path d="M 1311.540 307.846 L 1345.540 307.846 L 1345.540 349.846 L 1311.540 349.846 L 1311.540 307.846 Z" />
<path d="M 1323.100 315.406 L 1323.100 324.646 L 1338.060 324.646 L 1338.060 315.406 L 1323.100 315.406 Z" fill="#f7f7f2" fill-opacity="1" stroke="#163b5c" />
<path d="M 1323.100 333.046 L 1323.100 342.286 L 1338.060 342.286 L 1338.060 333.046 L 1323.100 333.046 Z" fill="#f7f7f2" fill-opacity="1" stroke="#163b5c" />
</g>
<g id="part-162">
<path d="M 1077.869 571.140 L 1107.869 571.140 L 1107.869 579.280 L 1088.069 579.280 L 1088.069 600.000 L 1107.869 600.000 L 1107.869 608.140 L 1077.869 608.140 L 1077.869 571.140 Z" />
</g>
<g id="part-163">
<path d="M 1304.540 895.346 L 1336.540 899.346 L 1327.580 905.346 L 1307.540 903.546 L 1304.540 895.346 Z" />
</g>
<g id="part-164">
<path d="M 1090.497 407.841 L 1089.123 412.488 L 1085.314 416.071 L 1079.944 417.768 L 1074.242 417.191 L 1069.515 414.472 L 1066.846 410.234 L 1066.846 405.448 L 1069.515 401.210 L 1074.242 398.491 L 1079.944 397.914 L 1085.314 399.611 L 1089.123 403.194 L 1090.497 407.841 Z" />
</g>
<g id="part-165">
<path d="M 1251.846 299.414 L 1269.846 299.414 L 1269.846 327.414 L 1251.846 327.414 L 1251.846 299.414 Z" />
</g>
<g id="part-166">
<path d="M 1334.540 236.846 L 1345.540 236.846 L 1345.540 251.846 L 1334.540 251.846 L 1334.540 236.846 Z" />
</g>
<g id="part-167">
<path d="M 1245.996 571.717 L 1273.996 571.717 L 1273.996 595.717 L 1245.996 595.717 L 1245.996 571.717 Z" />
</g>
<g id="part-168">
<path d="M 1198.000 753.000 L 1219.000 753.000 L 1219.000 764.000 L 1198.000 764.000 L 1198.000 753.000 Z" />
</g>
<g id="part-169">
<path d="M 1278.197 881.423 L 1292.197 881.423 L 1292.197 901.423 L 1278.197 901.423 L 1278.197 881.423 Z" />
</g>
<g id="part-170">
<path d="M 1208.540 149.969 L 1253.540 149.969 L 1253.540 192.969 L 1208.540 192.969 L 1208.540 149.969 Z" />
<path d="M 1222.940 163.729 L 1222.940 179.209 L 1239.140 179.209 L 1239.140 163.729 L 1222.940 163.729 Z" fill="#f7f7f2" fill-opacity="1" stroke="#163b5c" />
</g>
<g id="part-171">
<path d="M 1263.540 51.969 L 1299.540 51.969 L 1299.540 95.969 L 1263.540 95.969 L 1263.540 51.969 Z" />
<path d="M 1275.780 59.889 L 1275.780 69.569 L 1291.620 69.569 L 1291.620 59.889 L 1275.780 59.889 Z" fill="#f7f7f2" fill-opacity="1" stroke="#163b5c" />
<path d="M 1275.780 78.369 L 1275.780 88.049 L 1291.620 88.049 L 1291.620 78.369 L 1275.780 78.369 Z" fill="#f7f7f2" fill-opacity="1" stroke="#163b5c" />
</g>
<g id="part-172">
<path d="M 1150.000 824.000 L 1182.000 824.000 L 1182.000 832.580 L 1160.880 832.580 L 1160.880 854.420 L 1182.000 854.420 L 1182.000 863.000 L 1150.000 863.000 L 1150.000 824.000 Z" />
</g>
<g id="part-173">
<path d="M 1118.540 239.969 L 1128.540 243.969 L 1125.740 251.969 L 1121.540 249.809 L 1118.540 239.969 Z" />
</g>
<g id="part-174">
<path d="M 1139.693 295.859 L 1138.483 299.926 L 1135.061 303.290 L 1130.019 305.370 L 1124.230 305.804 L 1118.693 304.519 L 1114.367 301.737 L 1111.999 297.938 L 1111.999 293.780 L 1114.367 289.981 L 1118.693 287.199 L 1124.230 285.914 L 1130.019 286.348 L 1135.061 288.428 L 1138.483 291.792 L 1139.693 295.859 Z" />
</g>
<g id="part-175">
<path d="M 1311.540 297.846 L 1331.540 297.846 L 1331.540 305.846 L 1311.540 305.846 L 1311.540 297.846 Z" />
</g>
<g id="part-176">
<path d="M 1165.000 753.000 L 1178.000 753.000 L 1178.000 770.000 L 1165.000 770.000 L 1165.000 753.000 Z" />
</g>
<g id="part-177">
<path d="M 1089.000 800.077 L 1119.000 800.077 L 1119.000 826.077 L 1089.000 826.077 L 1089.000 800.077 Z" />
</g>
<g id="part-178">
<path d="M 1245.996 556.717 L 1268.996 556.717 L 1268.996 569.717 L 1245.996 569.717 L 1245.996 556.717 Z" />
</g>
<g id="part-179">
<path d="M 1232.346 397.414 L 1248.346 397.414 L 1248.346 419.414 L 1232.346 419.414 L 1232.346 397.414 Z" />
</g>
<g id="part-180">
<path d="M 1181.540 961.846 L 1228.540 961.846 L 1228.540 984.846 L 1181.540 984.846 L 1181.540 961.846 Z" />
<path d="M 1196.580 969.206 L 1196.580 977.486 L 1213.500 977.486 L 1213.500 969.206 L 1196.580 969.206 Z" fill="#f7f7f2" fill-opacity="1" stroke="#163b5c" />
</g>
<g id="part-181">
<path d="M 1081.540 30.469 L 1119.540 30.469 L 1119.540 76.469 L 1081.540 76.469 L 1081.540 30.469 Z" />
<path d="M 1094.460 38.749 L 1094.460 48.869 L 1111.180 48.869 L 1111.180 38.749 L 1094.460 38.749 Z" fill="#f7f7f2" fill-opacity="1" stroke="#163b5c" />
<path d="M 1094.460 58.069 L 1094.460 68.189 L 1111.180 68.189 L 1111.180 58.069 L 1094.460 58.069 Z" fill="#f7f7f2" fill-opacity="1" stroke="#163b5c" />
</g>
<g id="part-182">
<path d="M 1200.000 767.000 L 1234.000 767.000 L 1234.000 776.020 L 1211.560 776.020 L 1211.560 798.980 L 1234.000 798.980 L 1234.000 808.000 L 1200.000 808.000 L 1200.000 767.000 Z" />
</g>
<g id="part-183">
<path d="M 1194.540 120.469 L 1206.540 124.469 L 1203.180 134.469 L 1197.540 131.949 L 1194.540 120.469 Z" />
</g>
<g id="part-184">
<path d="M 1180.846 299.480 L 1179.636 304.360 L 1176.214 308.397 L 1171.172 310.892 L 1165.383 311.414 L 1159.846 309.872 L 1155.520 306.533 L 1153.152 301.975 L 1153.152 296.985 L 1155.520 292.426 L 1159.846 289.087 L 1165.383 287.545 L 1171.172 288.067 L 1176.214 290.562 L 1179.636 294.599 L 1180.846 299.480 Z" />
</g>
<g id="part-185">
<path d="M 1149.000 741.000 L 1171.000 741.000 L 1171.000 751.000 L 1149.000 751.000 L 1149.000 741.000 Z" />
</g>
<g id="part-186">
<path d="M 1228.869 579.640 L 1243.869 579.640 L 1243.869 598.640 L 1228.869 598.640 L 1228.869 579.640 Z" />
</g>
<g id="part-187">
<path d="M 1173.000 723.000 L 1205.000 723.000 L 1205.000 751.000 L 1173.000 751.000 L 1173.000 723.000 Z" />
</g>
<g id="part-188">
<path d="M 1237.846 372.914 L 1262.846 372.914 L 1262.846 387.914 L 1237.846 387.914 L 1237.846 372.914 Z" />
</g>
<g id="part-189">
<path d="M 1256.540 230.969 L 1274.540 230.969 L 1274.540 254.969 L 1256.540 254.969 L 1256.540 230.969 Z" />
</g>
<g id="part-190">
<path d="M 1210.846 362.914 L 1235.846 362.914 L 1235.846 387.914 L 1210.846 387.914 L 1210.846 362.914 Z" />
<path d="M 1218.846 370.914 L 1218.846 379.914 L 1227.846 379.914 L 1227.846 370.914 L 1218.846 370.914 Z" fill="#f7f7f2" fill-opacity="1" stroke="#163b5c" />
</g>
<g id="part-191">
<path d="M 1255.540 99.969 L 1295.540 99.969 L 1295.540 147.969 L 1255.540 147.969 L 1255.540 99.969 Z" />
<path d="M 1269.140 108.609 L 1269.140 119.169 L 1286.740 119.169 L 1286.740 108.609 L 1269.140 108.609 Z" fill="#f7f7f2" fill-opacity="1" stroke="#163b5c" />
<path d="M 1269.140 128.769 L 1269.140 139.329 L 1286.740 139.329 L 1286.740 128.769 L 1269.140 128.769 Z" fill="#f7f7f2" fill-opacity="1" stroke="#163b5c" />
</g>
<g id="part-192">
<path d="M 1302.540 907.346 L 1338.540 907.346 L 1338.540 916.806 L 1314.780 916.806 L 1314.780 940.886 L 1338.540 940.886 L 1338.540 950.346 L 1302.540 950.346 L 1302.540 907.346 Z" />
</g>
<g id="part-193">
<path d="M 1121.540 122.969 L 1135.540 126.969 L 1131.620 138.969 L 1124.540 136.089 L 1121.540 122.969 Z" />
</g>
<g id="part-194">
<path d="M 1281.996 408.414 L 1280.613 413.295 L 1276.703 417.332 L 1270.941 419.827 L 1264.324 420.348 L 1257.996 418.806 L 1253.052 415.467 L 1250.346 410.909 L 1250.346 405.919 L 1253.052 401.360 L 1257.996 398.022 L 1264.324 396.480 L 1270.941 397.001 L 1276.703 399.496 L 1280.613 403.533 L 1281.996 408.414 Z" />
</g>
<g id="part-195">
<path d="M 1080.869 610.140 L 1104.869 610.140 L 1104.869 622.140 L 1080.869 622.140 L 1080.869 610.140 Z" />
</g>
<g id="part-196">
<path d="M 1093.346 394.914 L 1110.346 394.914 L 1110.346 415.914 L 1093.346 415.914 L 1093.346 394.914 Z" />
</g>
<g id="part-197">
<path d="M 1226.040 167.469 L 1236.040 167.469 L 1236.040 175.469 L 1226.040 175.469 L 1226.040 167.469 Z" />
</g>
<g id="part-198">
<path d="M 1252.040 211.969 L 1279.040 211.969 L 1279.040 228.969 L 1252.040 228.969 L 1252.040 211.969 Z" />
</g>
<g id="part-199">
<path d="M 1071.846 332.914 L 1091.846 332.914 L 1091.846 358.914 L 1071.846 358.914 L 1071.846 332.914 Z" />
</g>
<g id="part-200">
<path d="M 1089.996 496.717 L 1116.996 496.717 L 1116.996 523.717 L 1089.996 523.717 L 1089.996 496.717 Z" />
<path d="M 1098.636 505.357 L 1098.636 515.077 L 1108.356 515.077 L 1108.356 505.357 L 1098.636 505.357 Z" fill="#f7f7f2" fill-opacity="1" stroke="#163b5c" />
</g>
<g id="part-201">
<path d="M 1164.540 142.969 L 1206.540 142.969 L 1206.540 192.969 L 1164.540 192.969 L 1164.540 142.969 Z" />
<path d="M 1178.820 151.969 L 1178.820 162.969 L 1197.300 162.969 L 1197.300 151.969 L 1178.820 151.969 Z" fill="#f7f7f2" fill-opacity="1" stroke="#163b5c" />
<path d="M 1178.820 172.969 L 1178.820 183.969 L 1197.300 183.969 L 1197.300 172.969 L 1178.820 172.969 Z" fill="#f7f7f2" fill-opacity="1" stroke="#163b5c" />
</g>
<g id="part-202">
<path d="M 1245.996 516.717 L 1283.996 516.717 L 1283.996 522.877 L 1258.916 522.877 L 1258.916 538.557 L 1283.996 538.557 L 1283.996 544.717 L 1245.996 544.717 L 1245.996 516.717 Z" />
</g>
<g id="part-203">
<path d="M 1330.040 532.846 L 1346.040 536.846 L 1341.560 550.846 L 1333.040 547.606 L 1330.040 532.846 Z" />
</g>
<g id="part-204">
<path d="M 1108.694 555.217 L 1107.311 560.911 L 1103.400 565.621 L 1097.638 568.531 L 1091.021 569.140 L 1084.694 567.341 L 1079.750 563.446 L 1077.043 558.127 L 1077.043 552.306 L 1079.750 546.988 L 1084.694 543.092 L 1091.021 541.293 L 1097.638 541.902 L 1103.400 544.813 L 1107.311 549.522 L 1108.694 555.217 Z" />
</g>
<g id="part-205">
<path d="M 1182.846 362.914 L 1208.846 362.914 L 1208.846 376.914 L 1182.846 376.914 L 1182.846 362.914 Z" />
</g>
<g id="part-206">
<path d="M 1281.040 205.969 L 1300.040 205.969 L 1300.040 228.969 L 1281.040 228.969 L 1281.040 205.969 Z" />
</g>
<g id="part-207">
<path d="M 1179.540 120.469 L 1191.540 120.469 L 1191.540 130.469 L 1179.540 130.469 L 1179.540 120.469 Z" />
</g>
<g id="part-208">
<path d="M 1151.846 357.914 L 1180.846 357.914 L 1180.846 376.914 L 1151.846 376.914 L 1151.846 357.914 Z" />
</g>
<g id="part-209">
<path d="M 1214.996 461.217 L 1236.996 461.217 L 1236.996 489.217 L 1214.996 489.217 L 1214.996 461.217 Z" />
</g>
<g id="part-210">
<path d="M 1265.197 903.423 L 1294.197 903.423 L 1294.197 932.423 L 1265.197 932.423 L 1265.197 903.423 Z" />
<path d="M 1274.477 912.703 L 1274.477 923.143 L 1284.917 923.143 L 1284.917 912.703 L 1274.477 912.703 Z" fill="#f7f7f2" fill-opacity="1" stroke="#163b5c" />
</g>
<g id="part-211">
<path d="M 1103.000 699.000 L 1147.000 699.000 L 1147.000 751.000 L 1103.000 751.000 L 1103.000 699.000 Z" />
<path d="M 1117.960 708.360 L 1117.960 719.800 L 1137.320 719.800 L 1137.320 708.360 L 1117.960 708.360 Z" fill="#f7f7f2" fill-opacity="1" stroke="#163b5c" />
<path d="M 1117.960 730.200 L 1117.960 741.640 L 1137.320 741.640 L 1137.320 730.200 L 1117.960 730.200 Z" fill="#f7f7f2" fill-opacity="1" stroke="#163b5c" />
</g>
<g id="part-212">
<path d="M 1129.869 575.640 L 1169.869 575.640 L 1169.869 581.800 L 1143.469 581.800 L 1143.469 597.480 L 1169.869 597.480 L 1169.869 603.640 L 1129.869 603.640 L 1129.869 575.640 Z" />
</g>
<g id="part-213">
<path d="M 1180.000 701.000 L 1198.000 705.000 L 1192.960 721.000 L 1183.000 717.400 L 1180.000 701.000 Z" />
</g>
<g id="part-214">
<path d="M 1148.000 843.500 L 1147.481 849.194 L 1146.015 853.904 L 1143.854 856.815 L 1141.373 857.423 L 1139.000 855.624 L 1137.146 851.729 L 1136.131 846.411 L 1136.131 840.589 L 1137.146 835.271 L 1139.000 831.376 L 1141.373 829.577 L 1143.854 830.185 L 1146.015 833.096 L 1147.481 837.806 L 1148.000 843.500 Z" />
</g>
<g id="part-215">
<path d="M 1164.540 204.969 L 1192.540 204.969 L 1192.540 220.969 L 1164.540 220.969 L 1164.540 204.969 Z" />
</g>
<g id="part-216">
<path d="M 1127.846 311.414 L 1148.846 311.414 L 1148.846 336.414 L 1127.846 336.414 L 1127.846 311.414 Z" />
</g>
<g id="part-217">
<path d="M 1295.540 372.846 L 1309.540 372.846 L 1309.540 384.846 L 1295.540 384.846 L 1295.540 372.846 Z" />
</g>
<g id="part-218">
<path d="M 1180.996 499.717 L 1211.996 499.717 L 1211.996 520.717 L 1180.996 520.717 L 1180.996 499.717 Z" />
</g>
<g id="part-219">
<path d="M 1278.040 801.346 L 1302.040 801.346 L 1302.040 809.346 L 1278.040 809.346 L 1278.040 801.346 Z" />
</g>
<g id="part-220">
<path d="M 1236.000 739.500 L 1267.000 739.500 L 1267.000 770.500 L 1236.000 770.500 L 1236.000 739.500 Z" />
<path d="M 1245.920 749.420 L 1245.920 760.580 L 1257.080 760.580 L 1257.080 749.420 L 1245.920 749.420 Z" fill="#f7f7f2" fill-opacity="1" stroke="#163b5c" />
</g>
<g id="part-221">
<path d="M 1317.040 700.846 L 1341.040 700.846 L 1341.040 754.846 L 1317.040 754.846 L 1317.040 700.846 Z" />
<path d="M 1325.200 710.566 L 1325.200 722.446 L 1335.760 722.446 L 1335.760 710.566 L 1325.200 710.566 Z" fill="#f7f7f2" fill-opacity="1" stroke="#163b5c" />
<path d="M 1325.200 733.246 L 1325.200 745.126 L 1335.760 745.126 L 1335.760 733.246 L 1325.200 733.246 Z" fill="#f7f7f2" fill-opacity="1" stroke="#163b5c" />
</g>
<g id="part-222">
<path d="M 1221.197 906.423 L 1263.197 906.423 L 1263.197 912.583 L 1235.477 912.583 L 1235.477 928.263 L 1263.197 928.263 L 1263.197 934.423 L 1221.197 934.423 L 1221.197 906.423 Z" />
</g>
<g id="part-223">
<path d="M 1080.869 647.140 L 1100.869 651.140 L 1095.269 669.140 L 1083.869 665.180 L 1080.869 647.140 Z" />
</g>
<g id="part-224">
<path d="M 1145.040 164.469 L 1143.894 166.820 L 1140.894 168.273 L 1137.186 168.273 L 1134.186 166.820 L 1133.040 164.469 L 1134.186 162.117 L 1137.186 160.664 L 1140.894 160.664 L 1143.894 162.117 L 1145.040 164.469 Z" />
</g>
<g id="part-225">
<path d="M 1150.846 335.414 L 1180.846 335.414 L 1180.846 353.414 L 1150.846 353.414 L 1150.846 335.414 Z" />
</g>
<g id="part-226">
<path d="M 1123.496 471.217 L 1146.496 471.217 L 1146.496 498.217 L 1123.496 498.217 L 1123.496 471.217 Z" />
</g>
<g id="part-227">
<path d="M 1180.000 753.000 L 1196.000 753.000 L 1196.000 767.000 L 1180.000 767.000 L 1180.000 753.000 Z" />
</g>
<g id="part-228">
<path d="M 1152.197 890.423 L 1185.197 890.423 L 1185.197 913.423 L 1152.197 913.423 L 1152.197 890.423 Z" />
</g>
<g id="part-229">
<path d="M 1145.697 878.423 L 1171.697 878.423 L 1171.697 888.423 L 1145.697 888.423 L 1145.697 878.423 Z" />
</g>
<g id="part-230">
<path d="M 1267.540 956.846 L 1300.540 956.846 L 1300.540 989.846 L 1267.540 989.846 L 1267.540 956.846 Z" />
<path d="M 1278.100 967.406 L 1278.100 979.286 L 1289.980 979.286 L 1289.980 967.406 L 1278.100 967.406 Z" fill="#f7f7f2" fill-opacity="1" stroke="#163b5c" />
</g>
<g id="part-231">
<path d="M 1305.040 542.846 L 1329.040 542.846 L 1329.040 598.846 L 1305.040 598.846 L 1305.040 542.846 Z" />
<path d="M 1313.200 552.926 L 1313.200 565.246 L 1323.760 565.246 L 1323.760 552.926 L 1313.200 552.926 Z" fill="#f7f7f2" fill-opacity="1" stroke="#163b5c" />
<path d="M 1313.200 576.446 L 1313.200 588.766 L 1323.760 588.766 L 1323.760 576.446 L 1313.200 576.446 Z" fill="#f7f7f2" fill-opacity="1" stroke="#163b5c" />
</g>
<g id="part-232">
<path d="M 1184.000 829.000 L 1228.000 829.000 L 1228.000 835.380 L 1198.960 835.380 L 1198.960 851.620 L 1228.000 851.620 L 1228.000 858.000 L 1184.000 858.000 L 1184.000 829.000 Z" />
</g>
<g id="part-233">
<path d="M 1146.346 396.414 L 1168.346 400.414 L 1162.186 420.414 L 1149.346 416.094 L 1146.346 396.414 Z" />
</g>
<g id="part-234">
<path d="M 1317.216 115.908 L 1315.946 119.151 L 1312.539 121.365 L 1308.078 121.846 L 1303.977 120.442 L 1301.540 117.598 L 1301.540 114.217 L 1303.977 111.373 L 1308.078 109.969 L 1312.539 110.450 L 1315.946 112.664 L 1317.216 115.908 Z" />
</g>
<g id="part-235">
<path d="M 1118.996 500.217 L 1150.996 500.217 L 1150.996 520.217 L 1118.996 520.217 L 1118.996 500.217 Z" />
</g>
<g id="part-236">
<path d="M 1257.869 598.140 L 1282.869 598.140 L 1282.869 627.140 L 1257.869 627.140 L 1257.869 598.140 Z" />
</g>
<g id="part-237">
<path d="M 1109.869 581.640 L 1127.869 581.640 L 1127.869 597.640 L 1109.869 597.640 L 1109.869 581.640 Z" />
</g>
<g id="part-238">
<path d="M 1265.197 876.423 L 1276.197 876.423 L 1276.197 901.423 L 1265.197 901.423 L 1265.197 876.423 Z" />
</g>
<g id="part-239">
<path d="M 1220.996 447.217 L 1248.996 447.217 L 1248.996 459.217 L 1220.996 459.217 L 1220.996 447.217 Z" />
</g>
<g id="part-240">
<path d="M 1299.540 600.846 L 1334.540 600.846 L 1334.540 635.846 L 1299.540 635.846 L 1299.540 600.846 Z" />
<path d="M 1310.740 612.046 L 1310.740 624.646 L 1323.340 624.646 L 1323.340 612.046 L 1310.740 612.046 Z" fill="#f7f7f2" fill-opacity="1" stroke="#163b5c" />
</g>
<g id="part-241">
<path d="M 1200.000 679.000 L 1226.000 679.000 L 1226.000 721.000 L 1200.000 721.000 L 1200.000 679.000 Z" />
<path d="M 1208.840 686.560 L 1208.840 695.800 L 1220.280 695.800 L 1220.280 686.560 L 1208.840 686.560 Z" fill="#f7f7f2" fill-opacity="1" stroke="#163b5c" />
<path d="M 1208.840 704.200 L 1208.840 713.440 L 1220.280 713.440 L 1220.280 704.200 L 1208.840 704.200 Z" fill="#f7f7f2" fill-opacity="1" stroke="#163b5c" />
</g>
<g id="part-242">
<path d="M 1145.000 666.000 L 1191.000 666.000 L 1191.000 672.820 L 1160.640 672.820 L 1160.640 690.180 L 1191.000 690.180 L 1191.000 697.000 L 1145.000 697.000 L 1145.000 666.000 Z" />
</g>
<g id="part-243">
<path d="M 1163.846 258.914 L 1187.846 262.914 L 1181.126 284.914 L 1166.846 280.234 L 1163.846 258.914 Z" />
</g>
<g id="part-244">
<path d="M 1248.216 99.030 L 1246.946 102.274 L 1243.539 104.487 L 1239.078 104.969 L 1234.977 103.564 L 1232.540 100.720 L 1232.540 97.339 L 1234.977 94.495 L 1239.078 93.091 L 1243.539 93.572 L 1246.946 95.786 L 1248.216 99.030 Z" />
</g>
<g id="part-245">
<path d="M 1153.000 753.000 L 1163.000 753.000 L 1163.000 775.000 L 1153.000 775.000 L 1153.000 753.000 Z" />
</g>
<g id="part-246">
<path d="M 1207.000 734.000 L 1234.000 734.000 L 1234.000 743.000 L 1207.000 743.000 L 1207.000 734.000 Z" />
</g>
<g id="part-247">
<path d="M 1138.346 423.414 L 1158.346 423.414 L 1158.346 441.414 L 1138.346 441.414 L 1138.346 423.414 Z" />
</g>
<g id="part-248">
<path d="M 1283.996 459.217 L 1296.996 459.217 L 1296.996 486.217 L 1283.996 486.217 L 1283.996 459.217 Z" />
</g>
<g id="part-249">
<path d="M 1208.846 264.914 L 1238.846 264.914 L 1238.846 278.914 L 1208.846 278.914 L 1208.846 264.914 Z" />
</g>
</g>
<text x="10" y="20" font-size="14" fill="#222">mixed_250_parts / Balanced</text>
</svg>
