<svg xmlns="http://www.w3.org/2000/svg" width="1450.000" height="940.000" viewBox="0 0 1450.000 940.000">
<rect x="0" y="0" width="1450.000" height="940.000" fill="#f7f7f2" />
<g fill="none" stroke="#2a2a2a" stroke-width="1.2">
<path d="M 0.000 0.000 L 1450.000 0.000 L 1450.000 940.000 L 0.000 940.000 L 0.000 0.000 Z" stroke="#1f5f8b" />
</g>
<g fill="#86b8e7" fill-opacity="0.58" stroke="#163b5c" stroke-width="0.8">
<g id="part-0">
<path d="M 692.000 10.000 L 721.000 10.000 L 721.000 45.000 L 692.000 45.000 L 692.000 10.000 Z" />
<path d="M 701.280 21.200 L 701.280 33.800 L 711.720 33.800 L 711.720 21.200 L 701.280 21.200 Z" fill="#f7f7f2" fill-opacity="1" stroke="#163b5c" />
</g>
<g id="part-1">
<path d="M 289.000 10.000 L 333.000 10.000 L 333.000 52.000 L 289.000 52.000 L 289.000 10.000 Z" />
<path d="M 303.960 17.560 L 303.960 26.800 L 323.320 26.800 L 323.320 17.560 L 303.960 17.560 Z" fill="#f7f7f2" fill-opacity="1" stroke="#163b5c" />
<path d="M 303.960 35.200 L 303.960 44.440 L 323.320 44.440 L 323.320 35.200 L 303.960 35.200 Z" fill="#f7f7f2" fill-opacity="1" stroke="#163b5c" />
</g>
<g id="part-2">
<path d="M 816.000 10.000 L 856.000 10.000 L 856.000 16.820 L 829.600 16.820 L 829.600 34.180 L 856.000 34.180 L 856.000 41.000 L 816.000 41.000 L 816.000 10.000 Z" />
</g>
<g id="part-3">
<path d="M 217.182 56.000 L 235.182 60.000 L 230.142 82.000 L 220.182 77.320 L 217.182 56.000 Z" />
</g>
<g id="part-4">
<path d="M 254.000 99.803 L 252.854 103.330 L 249.854 105.509 L 246.146 105.509 L 243.146 103.330 L 242.000 99.803 L 243.146 96.276 L 246.146 94.097 L 249.854 94.097 L 252.854 96.276 L 254.000 99.803 Z" />
</g>
<g id="part-5">
<path d="M 538.793 51.000 L 566.793 51.000 L 566.793 73.000 L 538.793 73.000 L 538.793 51.000 Z" />
</g>
<g id="part-6">
<path d="M 388.000 91.847 L 409.000 91.847 L 409.000 100.847 L 388.000 100.847 L 388.000 91.847 Z" />
</g>
<g id="part-7">
<path d="M 858.043 41.000 L 872.043 41.000 L 872.043 59.000 L 858.043 59.000 L 858.043 41.000 Z" />
</g>
<g id="part-8">
<path d="M 110.432 62.000 L 141.432 62.000 L 141.432 89.000 L 110.432 89.000 L 110.432 62.000 Z" />
</g>
<g id="part-9">
<path d="M 74.000 95.097 L 98.000 95.097 L 98.000 109.097 L 74.000 109.097 L 74.000 95.097 Z" />
</g>
<g id="part-10">
<path d="M 613.000 10.000 L 644.000 10.000 L 644.000 47.000 L 613.000 47.000 L 613.000 10.000 Z" />
<path d="M 622.920 21.840 L 622.920 35.160 L 634.080 35.160 L 634.080 21.840 L 622.920 21.840 Z" fill="#f7f7f2" fill-opacity="1" stroke="#163b5c" />
</g>
<g id="part-11">
<path d="M 363.000 10.000 L 387.000 10.000 L 387.000 52.000 L 363.000 52.000 L 363.000 10.000 Z" />
<path d="M 371.160 17.560 L 371.160 26.800 L 381.720 26.800 L 381.720 17.560 L 371.160 17.560 Z" fill="#f7f7f2" fill-opacity="1" stroke="#163b5c" />
<path d="M 371.160 35.200 L 371.160 44.440 L 381.720 44.440 L 381.720 35.200 L 371.160 35.200 Z" fill="#f7f7f2" fill-opacity="1" stroke="#163b5c" />
</g>
<g id="part-12">
<path d="M 723.000 10.000 L 765.000 10.000 L 765.000 17.260 L 737.280 17.260 L 737.280 35.740 L 765.000 35.740 L 765.000 43.000 L 723.000 43.000 L 723.000 10.000 Z" />
</g>
<g id="part-13">
<path d="M 1068.000 10.000 L 1088.000 14.000 L 1082.400 38.000 L 1071.000 32.960 L 1068.000 10.000 Z" />
</g>
<g id="part-14">
<path d="M 1048.725 47.919 L 1047.773 52.244 L 1045.218 55.196 L 1041.872 55.837 L 1038.796 53.965 L 1036.969 50.172 L 1036.969 45.665 L 1038.796 41.873 L 1041.872 40.000 L 1045.218 40.642 L 1047.773 43.593 L 1048.725 47.919 Z" />
</g>
<g id="part-15">
<path d="M 310.432 54.000 L 340.432 54.000 L 340.432 78.000 L 310.432 78.000 L 310.432 54.000 Z" />
</g>
<g id="part-16">
<path d="M 256.000 93.097 L 279.000 93.097 L 279.000 104.097 L 256.000 104.097 L 256.000 93.097 Z" />
</g>
<g id="part-17">
<path d="M 712.293 47.000 L 728.293 47.000 L 728.293 67.000 L 712.293 67.000 L 712.293 47.000 Z" />
</g>
<g id="part-18">
<path d="M 905.000 10.000 L 938.000 10.000 L 938.000 39.000 L 905.000 39.000 L 905.000 10.000 Z" />
</g>
<g id="part-19">
<path d="M 939.793 40.000 L 965.793 40.000 L 965.793 56.000 L 939.793 56.000 L 939.793 40.000 Z" />
</g>
<g id="part-20">
<path d="M 530.000 10.000 L 563.000 10.000 L 563.000 49.000 L 530.000 49.000 L 530.000 10.000 Z" />
<path d="M 540.560 22.480 L 540.560 36.520 L 552.440 36.520 L 552.440 22.480 L 540.560 22.480 Z" fill="#f7f7f2" fill-opacity="1" stroke="#163b5c" />
</g>
<g id="part-21">
<path d="M 389.000 10.000 L 413.000 10.000 L 413.000 52.000 L 389.000 52.000 L 389.000 10.000 Z" />
<path d="M 397.160 17.560 L 397.160 26.800 L 407.720 26.800 L 407.720 17.560 L 397.160 17.560 Z" fill="#f7f7f2" fill-opacity="1" stroke="#163b5c" />
<path d="M 397.160 35.200 L 397.160 44.440 L 407.720 44.440 L 407.720 35.200 L 397.160 35.200 Z" fill="#f7f7f2" fill-opacity="1" stroke="#163b5c" />
</g>
<g id="part-22">
<path d="M 646.000 10.000 L 690.000 10.000 L 690.000 17.700 L 660.960 17.700 L 660.960 37.300 L 690.000 37.300 L 690.000 45.000 L 646.000 45.000 L 646.000 10.000 Z" />
</g>
<g id="part-23">
<path d="M 450.250 91.097 L 472.250 95.097 L 466.090 99.097 L 453.250 97.657 L 450.250 91.097 Z" />
</g>
<g id="part-24">
<path d="M 1066.469 47.919 L 1065.199 52.244 L 1061.792 55.196 L 1057.330 55.837 L 1053.230 53.965 L 1050.793 50.172 L 1050.793 45.665 L 1053.230 41.873 L 1057.330 40.000 L 1061.792 40.642 L 1065.199 43.593 L 1066.469 47.919 Z" />
</g>
<g id="part-25">
<path d="M 160.432 58.000 L 192.432 58.000 L 192.432 84.000 L 160.432 84.000 L 160.432 58.000 Z" />
</g>
<g id="part-26">
<path d="M 120.000 95.097 L 145.000 95.097 L 145.000 108.097 L 120.000 108.097 L 120.000 95.097 Z" />
</g>
<g id="part-27">
<path d="M 568.793 49.000 L 586.793 49.000 L 586.793 71.000 L 568.793 71.000 L 568.793 49.000 Z" />
</g>
<g id="part-28">
<path d="M 411.000 95.847 L 422.000 95.847 L 422.000 104.847 L 411.000 104.847 L 411.000 95.847 Z" />
</g>
<g id="part-29">
<path d="M 854.793 66.000 L 882.793 66.000 L 882.793 84.000 L 854.793 84.000 L 854.793 66.000 Z" />
</g>
<g id="part-30">
<path d="M 415.000 10.000 L 450.000 10.000 L 450.000 51.000 L 415.000 51.000 L 415.000 10.000 Z" />
<path d="M 426.200 23.120 L 426.200 37.880 L 438.800 37.880 L 438.800 23.120 L 426.200 23.120 Z" fill="#f7f7f2" fill-opacity="1" stroke="#163b5c" />
</g>
<g id="part-31">
<path d="M 335.000 10.000 L 361.000 10.000 L 361.000 52.000 L 335.000 52.000 L 335.000 10.000 Z" />
<path d="M 343.840 17.560 L 343.840 26.800 L 355.280 26.800 L 355.280 17.560 L 343.840 17.560 Z" fill="#f7f7f2" fill-opacity="1" stroke="#163b5c" />
<path d="M 343.840 35.200 L 343.840 44.440 L 355.280 44.440 L 355.280 35.200 L 343.840 35.200 Z" fill="#f7f7f2" fill-opacity="1" stroke="#163b5c" />
</g>
<g id="part-32">
<path d="M 565.000 10.000 L 611.000 10.000 L 611.000 18.140 L 580.640 18.140 L 580.640 38.860 L 611.000 38.860 L 611.000 47.000 L 565.000 47.000 L 565.000 10.000 Z" />
</g>
<g id="part-33">
<path d="M 326.000 95.847 L 350.000 99.847 L 343.280 105.847 L 329.000 104.047 L 326.000 95.847 Z" />
</g>
<g id="part-34">
<path d="M 750.793 76.000 L 749.721 81.000 L 746.793 84.660 L 742.793 86.000 L 738.793 84.660 L 735.864 81.000 L 734.793 76.000 L 735.864 71.000 L 738.793 67.340 L 742.793 66.000 L 746.793 67.340 L 749.721 71.000 L 750.793 76.000 Z" />
</g>
<g id="part-35">
<path d="M 1106.000 10.000 L 1116.000 10.000 L 1116.000 38.000 L 1106.000 38.000 L 1106.000 10.000 Z" />
</g>
<g id="part-36">
<path d="M 1090.225 66.000 L 1117.225 66.000 L 1117.225 81.000 L 1090.225 81.000 L 1090.225 66.000 Z" />
</g>
<g id="part-37">
<path d="M 342.432 66.000 L 362.432 66.000 L 362.432 90.000 L 342.432 90.000 L 342.432 66.000 Z" />
</g>
<g id="part-38">
<path d="M 281.000 95.847 L 294.000 95.847 L 294.000 106.847 L 281.000 106.847 L 281.000 95.847 Z" />
</g>
<g id="part-39">
<path d="M 662.793 66.000 L 692.793 66.000 L 692.793 86.000 L 662.793 86.000 L 662.793 66.000 Z" />
</g>
<g id="part-40">
<path d="M 220.000 10.000 L 257.000 10.000 L 257.000 53.000 L 220.000 53.000 L 220.000 10.000 Z" />
<path d="M 231.840 23.760 L 231.840 39.240 L 245.160 39.240 L 245.160 23.760 L 231.840 23.760 Z" fill="#f7f7f2" fill-opacity="1" stroke="#163b5c" />
</g>
<g id="part-41">
<path d="M 190.000 10.000 L 218.000 10.000 L 218.000 54.000 L 190.000 54.000 L 190.000 10.000 Z" />
<path d="M 199.520 17.920 L 199.520 27.600 L 211.840 27.600 L 211.840 17.920 L 199.520 17.920 Z" fill="#f7f7f2" fill-opacity="1" stroke="#163b5c" />
<path d="M 199.520 36.400 L 199.520 46.080 L 211.840 46.080 L 211.840 36.400 L 199.520 36.400 Z" fill="#f7f7f2" fill-opacity="1" stroke="#163b5c" />
</g>
<g id="part-42">
<path d="M 480.000 10.000 L 528.000 10.000 L 528.000 18.580 L 496.320 18.580 L 496.320 40.420 L 528.000 40.420 L 528.000 49.000 L 480.000 49.000 L 480.000 10.000 Z" />
</g>
<g id="part-43">
<path d="M 196.000 95.847 L 222.000 99.847 L 214.720 107.847 L 199.000 105.687 L 196.000 95.847 Z" />
</g>
<g id="part-44">
<path d="M 714.793 76.000 L 713.453 81.000 L 709.793 84.660 L 704.793 86.000 L 699.793 84.660 L 696.132 81.000 L 694.793 76.000 L 696.132 71.000 L 699.793 67.340 L 704.793 66.000 L 709.793 67.340 L 713.453 71.000 L 714.793 76.000 Z" />
</g>
<g id="part-45">
<path d="M 494.000 95.847 L 506.000 95.847 L 506.000 103.847 L 494.000 103.847 L 494.000 95.847 Z" />
</g>
<g id="part-46">
<path d="M 924.793 66.000 L 953.793 66.000 L 953.793 83.000 L 924.793 83.000 L 924.793 66.000 Z" />
</g>
<g id="part-47">
<path d="M 194.432 66.000 L 216.432 66.000 L 216.432 92.000 L 194.432 92.000 L 194.432 66.000 Z" />
</g>
<g id="part-48">
<path d="M 147.000 95.847 L 162.000 95.847 L 162.000 108.847 L 147.000 108.847 L 147.000 95.847 Z" />
</g>
<g id="part-49">
<path d="M 504.793 66.000 L 536.793 66.000 L 536.793 88.000 L 504.793 88.000 L 504.793 66.000 Z" />
</g>
<g id="part-50">
<path d="M 423.793 66.000 L 462.793 66.000 L 462.793 89.000 L 423.793 89.000 L 423.793 66.000 Z" />
<path d="M 436.273 73.360 L 436.273 81.640 L 450.313 81.640 L 450.313 73.360 L 436.273 73.360 Z" fill="#f7f7f2" fill-opacity="1" stroke="#163b5c" />
</g>
<g id="part-51">
<path d="M 158.000 10.000 L 188.000 10.000 L 188.000 56.000 L 158.000 56.000 L 158.000 10.000 Z" />
<path d="M 168.200 18.280 L 168.200 28.400 L 181.400 28.400 L 181.400 18.280 L 168.200 18.280 Z" fill="#f7f7f2" fill-opacity="1" stroke="#163b5c" />
<path d="M 168.200 37.600 L 168.200 47.720 L 181.400 47.720 L 181.400 37.600 L 168.200 37.600 Z" fill="#f7f7f2" fill-opacity="1" stroke="#163b5c" />
</g>
<g id="part-52">
<path d="M 452.000 10.000 L 478.000 10.000 L 478.000 19.020 L 460.840 19.020 L 460.840 41.980 L 478.000 41.980 L 478.000 51.000 L 452.000 51.000 L 452.000 10.000 Z" />
</g>
<g id="part-53">
<path d="M 44.000 95.847 L 72.000 99.847 L 64.160 109.847 L 47.000 107.327 L 44.000 95.847 Z" />
</g>
<g id="part-54">
<path d="M 421.793 77.913 L 420.647 83.489 L 417.473 87.788 L 412.998 89.825 L 408.247 89.133 L 404.307 85.870 L 402.083 80.784 L 402.083 75.041 L 404.307 69.955 L 408.247 66.692 L 412.998 66.000 L 417.473 68.037 L 420.647 72.336 L 421.793 77.913 Z" />
</g>
<g id="part-55">
<path d="M 372.000 95.847 L 386.000 95.847 L 386.000 105.847 L 372.000 105.847 L 372.000 95.847 Z" />
</g>
<g id="part-56">
<path d="M 764.793 66.000 L 795.793 66.000 L 795.793 85.000 L 764.793 85.000 L 764.793 66.000 Z" />
</g>
<g id="part-57">
<path d="M 1042.000 10.000 L 1066.000 10.000 L 1066.000 38.000 L 1042.000 38.000 L 1042.000 10.000 Z" />
</g>
<g id="part-58">
<path d="M 1119.225 66.000 L 1136.225 66.000 L 1136.225 81.000 L 1119.225 81.000 L 1119.225 66.000 Z" />
</g>
<g id="part-59">
<path d="M 364.432 66.000 L 374.432 66.000 L 374.432 90.000 L 364.432 90.000 L 364.432 66.000 Z" />
</g>
<g id="part-60">
<path d="M 252.432 66.000 L 293.432 66.000 L 293.432 91.000 L 252.432 91.000 L 252.432 66.000 Z" />
<path d="M 265.552 74.000 L 265.552 83.000 L 280.312 83.000 L 280.312 74.000 L 265.552 74.000 Z" fill="#f7f7f2" fill-opacity="1" stroke="#163b5c" />
</g>
<g id="part-61">
<path d="M 124.000 10.000 L 156.000 10.000 L 156.000 58.000 L 124.000 58.000 L 124.000 10.000 Z" />
<path d="M 134.880 18.640 L 134.880 29.200 L 148.960 29.200 L 148.960 18.640 L 134.880 18.640 Z" fill="#f7f7f2" fill-opacity="1" stroke="#163b5c" />
<path d="M 134.880 38.800 L 134.880 49.360 L 148.960 49.360 L 148.960 38.800 L 134.880 38.800 Z" fill="#f7f7f2" fill-opacity="1" stroke="#163b5c" />
</g>
<g id="part-62">
<path d="M 259.000 10.000 L 287.000 10.000 L 287.000 19.460 L 268.520 19.460 L 268.520 43.540 L 287.000 43.540 L 287.000 53.000 L 259.000 53.000 L 259.000 10.000 Z" />
</g>
<g id="part-63">
<path d="M 976.793 66.000 L 1006.793 70.000 L 998.393 82.000 L 979.793 79.120 L 976.793 66.000 Z" />
</g>
<g id="part-64">
<path d="M 400.083 77.913 L 398.709 83.489 L 394.900 87.788 L 389.530 89.825 L 383.828 89.133 L 379.101 85.870 L 376.432 80.784 L 376.432 75.041 L 379.101 69.955 L 383.828 66.692 L 389.530 66.000 L 394.900 68.037 L 398.709 72.336 L 400.083 77.913 Z" />
</g>
<g id="part-65">
<path d="M 224.000 95.847 L 240.000 95.847 L 240.000 107.847 L 224.000 107.847 L 224.000 95.847 Z" />
</g>
<g id="part-66">
<path d="M 602.793 66.000 L 635.793 66.000 L 635.793 87.000 L 602.793 87.000 L 602.793 66.000 Z" />
</g>
<g id="part-67">
<path d="M 424.000 95.847 L 450.000 95.847 L 450.000 103.847 L 424.000 103.847 L 424.000 95.847 Z" />
</g>
<g id="part-68">
<path d="M 955.793 66.000 L 974.793 66.000 L 974.793 83.000 L 955.793 83.000 L 955.793 66.000 Z" />
</g>
<g id="part-69">
<path d="M 238.432 66.000 L 250.432 66.000 L 250.432 92.000 L 238.432 92.000 L 238.432 66.000 Z" />
</g>
<g id="part-70">
<path d="M 65.432 66.000 L 108.432 66.000 L 108.432 93.000 L 65.432 93.000 L 65.432 66.000 Z" />
<path d="M 79.192 74.640 L 79.192 84.360 L 94.672 84.360 L 94.672 74.640 L 79.192 74.640 Z" fill="#f7f7f2" fill-opacity="1" stroke="#163b5c" />
</g>
<g id="part-71">
<path d="M 88.000 10.000 L 122.000 10.000 L 122.000 60.000 L 88.000 60.000 L 88.000 10.000 Z" />
<path d="M 99.560 19.000 L 99.560 30.000 L 114.520 30.000 L 114.520 19.000 L 99.560 19.000 Z" fill="#f7f7f2" fill-opacity="1" stroke="#163b5c" />
<path d="M 99.560 40.000 L 99.560 51.000 L 114.520 51.000 L 114.520 40.000 L 99.560 40.000 Z" fill="#f7f7f2" fill-opacity="1" stroke="#163b5c" />
</g>
<g id="part-72">
<path d="M 1010.000 10.000 L 1040.000 10.000 L 1040.000 16.160 L 1020.200 16.160 L 1020.200 31.840 L 1040.000 31.840 L 1040.000 38.000 L 1010.000 38.000 L 1010.000 10.000 Z" />
</g>
<g id="part-73">
<path d="M 820.793 66.000 L 852.793 70.000 L 843.833 84.000 L 823.793 80.760 L 820.793 66.000 Z" />
</g>
<g id="part-74">
<path d="M 63.432 79.923 L 62.394 85.618 L 59.461 90.327 L 55.140 93.238 L 50.177 93.847 L 45.432 92.048 L 41.724 88.152 L 39.694 82.834 L 39.694 77.013 L 41.724 71.694 L 45.432 67.799 L 50.177 66.000 L 55.140 66.609 L 59.461 69.519 L 62.394 74.229 L 63.432 79.923 Z" />
</g>
<g id="part-75">
<path d="M 100.000 95.847 L 118.000 95.847 L 118.000 109.847 L 100.000 109.847 L 100.000 95.847 Z" />
</g>
<g id="part-76">
<path d="M 491.793 66.000 L 502.793 66.000 L 502.793 89.000 L 491.793 89.000 L 491.793 66.000 Z" />
</g>
<g id="part-77">
<path d="M 296.000 95.847 L 324.000 95.847 L 324.000 105.847 L 296.000 105.847 L 296.000 95.847 Z" />
</g>
<g id="part-78">
<path d="M 797.793 66.000 L 818.793 66.000 L 818.793 85.000 L 797.793 85.000 L 797.793 66.000 Z" />
</g>
<g id="part-79">
<path d="M 1090.000 10.000 L 1104.000 10.000 L 1104.000 38.000 L 1090.000 38.000 L 1090.000 10.000 Z" />
</g>
<g id="part-80">
<path d="M 858.000 10.000 L 903.000 10.000 L 903.000 39.000 L 858.000 39.000 L 858.000 10.000 Z" />
<path d="M 872.400 19.280 L 872.400 29.720 L 888.600 29.720 L 888.600 19.280 L 872.400 19.280 Z" fill="#f7f7f2" fill-opacity="1" stroke="#163b5c" />
</g>
<g id="part-81">
<path d="M 50.000 10.000 L 86.000 10.000 L 86.000 62.000 L 50.000 62.000 L 50.000 10.000 Z" />
<path d="M 62.240 19.360 L 62.240 30.800 L 78.080 30.800 L 78.080 19.360 L 62.240 19.360 Z" fill="#f7f7f2" fill-opacity="1" stroke="#163b5c" />
<path d="M 62.240 41.200 L 62.240 52.640 L 78.080 52.640 L 78.080 41.200 L 62.240 41.200 Z" fill="#f7f7f2" fill-opacity="1" stroke="#163b5c" />
</g>
<g id="part-82">
<path d="M 976.000 10.000 L 1008.000 10.000 L 1008.000 16.160 L 986.880 16.160 L 986.880 31.840 L 1008.000 31.840 L 1008.000 38.000 L 976.000 38.000 L 976.000 10.000 Z" />
</g>
<g id="part-83">
<path d="M 752.793 66.000 L 762.793 70.000 L 759.993 86.000 L 755.793 82.400 L 752.793 66.000 Z" />
</g>
<g id="part-84">
<path d="M 37.694 79.923 L 36.484 85.618 L 33.062 90.327 L 28.020 93.238 L 22.231 93.847 L 16.694 92.048 L 12.368 88.152 L 10.000 82.834 L 10.000 77.013 L 12.368 71.694 L 16.694 67.799 L 22.231 66.000 L 28.020 66.609 L 33.062 69.519 L 36.484 74.229 L 37.694 79.923 Z" />
</g>
<g id="part-85">
<path d="M 1036.793 66.000 L 1056.793 66.000 L 1056.793 82.000 L 1036.793 82.000 L 1036.793 66.000 Z" />
</g>
<g id="part-86">
<path d="M 295.432 66.000 L 308.432 66.000 L 308.432 91.000 L 295.432 91.000 L 295.432 66.000 Z" />
</g>
<g id="part-87">
<path d="M 164.000 95.847 L 194.000 95.847 L 194.000 107.847 L 164.000 107.847 L 164.000 95.847 Z" />
</g>
<g id="part-88">
<path d="M 637.793 66.000 L 660.793 66.000 L 660.793 87.000 L 637.793 87.000 L 637.793 66.000 Z" />
</g>
<g id="part-89">
<path d="M 476.000 95.847 L 492.000 95.847 L 492.000 103.847 L 476.000 103.847 L 476.000 95.847 Z" />
</g>
<g id="part-90">
<path d="M 767.000 10.000 L 814.000 10.000 L 814.000 41.000 L 767.000 41.000 L 767.000 10.000 Z" />
<path d="M 782.040 19.920 L 782.040 31.080 L 798.960 31.080 L 798.960 19.920 L 782.040 19.920 Z" fill="#f7f7f2" fill-opacity="1" stroke="#163b5c" />
</g>
<g id="part-91">
<path d="M 10.000 10.000 L 48.000 10.000 L 48.000 64.000 L 10.000 64.000 L 10.000 10.000 Z" />
<path d="M 22.920 19.720 L 22.920 31.600 L 39.640 31.600 L 39.640 19.720 L 22.920 19.720 Z" fill="#f7f7f2" fill-opacity="1" stroke="#163b5c" />
<path d="M 22.920 42.400 L 22.920 54.280 L 39.640 54.280 L 39.640 42.400 L 22.920 42.400 Z" fill="#f7f7f2" fill-opacity="1" stroke="#163b5c" />
</g>
<g id="part-92">
<path d="M 940.000 10.000 L 974.000 10.000 L 974.000 16.160 L 951.560 16.160 L 951.560 31.840 L 974.000 31.840 L 974.000 38.000 L 940.000 38.000 L 940.000 10.000 Z" />
</g>
<g id="part-93">
<path d="M 588.793 66.000 L 600.793 70.000 L 597.433 88.000 L 591.793 84.040 L 588.793 66.000 Z" />
</g>
<g id="part-94">
<path d="M 535.694 99.825 L 534.484 101.452 L 531.062 102.797 L 526.020 103.629 L 520.231 103.803 L 514.694 103.289 L 510.368 102.176 L 508.000 100.656 L 508.000 98.993 L 510.368 97.474 L 514.694 96.361 L 520.231 95.847 L 526.020 96.020 L 531.062 96.852 L 534.484 98.198 L 535.694 99.825 Z" />
</g>
<g id="part-95">
<path d="M 884.793 66.000 L 906.793 66.000 L 906.793 84.000 L 884.793 84.000 L 884.793 66.000 Z" />
</g>
<g id="part-96">
<path d="M 143.432 66.000 L 158.432 66.000 L 158.432 93.000 L 143.432 93.000 L 143.432 66.000 Z" />
</g>
<g id="part-97">
<path d="M 10.000 95.847 L 42.000 95.847 L 42.000 109.847 L 10.000 109.847 L 10.000 95.847 Z" />
</g>
<g id="part-98">
<path d="M 464.793 66.000 L 489.793 66.000 L 489.793 89.000 L 464.793 89.000 L 464.793 66.000 Z" />
</g>
<g id="part-99">
<path d="M 352.000 95.847 L 370.000 95.847 L 370.000 105.847 L 352.000 105.847 L 352.000 95.847 Z" />
</g>
</g>
<text x="10" y="20" font-size="14" fill="#222">mixed_100_parts / Balanced</text>
</svg>
