<svg xmlns="http://www.w3.org/2000/svg" width="1450.000" height="940.000" viewBox="0 0 1450.000 940.000">
<rect x="0" y="0" width="1450.000" height="940.000" fill="#f7f7f2" />
<g fill="none" stroke="#2a2a2a" stroke-width="1.2">
<path d="M 0.000 0.000 L 1450.000 0.000 L 1450.000 940.000 L 0.000 940.000 L 0.000 0.000 Z" stroke="#1f5f8b" />
</g>
<g fill="#86b8e7" fill-opacity="0.58" stroke="#163b5c" stroke-width="0.8">
<g id="part-0">
<path d="M 60.000 648.000 L 89.000 648.000 L 89.000 683.000 L 60.000 683.000 L 60.000 648.000 Z" />
<path d="M 69.280 659.200 L 69.280 671.800 L 79.720 671.800 L 79.720 659.200 L 69.280 659.200 Z" fill="#f7f7f2" fill-opacity="1" stroke="#163b5c" />
</g>
<g id="part-1">
<path d="M 10.000 744.000 L 54.000 744.000 L 54.000 786.000 L 10.000 786.000 L 10.000 744.000 Z" />
<path d="M 24.960 751.560 L 24.960 760.800 L 44.320 760.800 L 44.320 751.560 L 24.960 751.560 Z" fill="#f7f7f2" fill-opacity="1" stroke="#163b5c" />
<path d="M 24.960 769.200 L 24.960 778.440 L 44.320 778.440 L 44.320 769.200 L 24.960 769.200 Z" fill="#f7f7f2" fill-opacity="1" stroke="#163b5c" />
</g>
<g id="part-2">
<path d="M 10.000 583.000 L 50.000 583.000 L 50.000 589.820 L 23.600 589.820 L 23.600 607.180 L 50.000 607.180 L 50.000 614.000 L 10.000 614.000 L 10.000 583.000 Z" />
</g>
<g id="part-3">
<path d="M 93.000 610.175 L 111.000 614.175 L 105.960 636.175 L 96.000 631.495 L 93.000 610.175 Z" />
</g>
<g id="part-4">
<path d="M 105.000 341.632 L 103.854 345.158 L 100.854 347.338 L 97.146 347.338 L 94.146 345.158 L 93.000 341.632 L 94.146 338.105 L 97.146 335.925 L 100.854 335.925 L 103.854 338.105 L 105.000 341.632 Z" />
</g>
<g id="part-5">
<path d="M 60.000 539.000 L 88.000 539.000 L 88.000 561.000 L 60.000 561.000 L 60.000 539.000 Z" />
</g>
<g id="part-6">
<path d="M 93.000 840.000 L 114.000 840.000 L 114.000 849.000 L 93.000 849.000 L 93.000 840.000 Z" />
</g>
<g id="part-7">
<path d="M 93.000 389.338 L 107.000 389.338 L 107.000 407.338 L 93.000 407.338 L 93.000 389.338 Z" />
</g>
<g id="part-8">
<path d="M 60.000 903.000 L 91.000 903.000 L 91.000 930.000 L 60.000 930.000 L 60.000 903.000 Z" />
</g>
<g id="part-9">
<path d="M 60.000 194.197 L 84.000 194.197 L 84.000 208.197 L 60.000 208.197 L 60.000 194.197 Z" />
</g>
<g id="part-10">
<path d="M 60.000 864.000 L 91.000 864.000 L 91.000 901.000 L 60.000 901.000 L 60.000 864.000 Z" />
<path d="M 69.920 875.840 L 69.920 889.160 L 81.080 889.160 L 81.080 875.840 L 69.920 875.840 Z" fill="#f7f7f2" fill-opacity="1" stroke="#163b5c" />
</g>
<g id="part-11">
<path d="M 60.000 150.197 L 84.000 150.197 L 84.000 192.197 L 60.000 192.197 L 60.000 150.197 Z" />
<path d="M 68.160 157.757 L 68.160 166.997 L 78.720 166.997 L 78.720 157.757 L 68.160 157.757 Z" fill="#f7f7f2" fill-opacity="1" stroke="#163b5c" />
<path d="M 68.160 175.397 L 68.160 184.637 L 78.720 184.637 L 78.720 175.397 L 68.160 175.397 Z" fill="#f7f7f2" fill-opacity="1" stroke="#163b5c" />
</g>
<g id="part-12">
<path d="M 10.000 643.000 L 52.000 643.000 L 52.000 650.260 L 24.280 650.260 L 24.280 668.740 L 52.000 668.740 L 52.000 676.000 L 10.000 676.000 L 10.000 643.000 Z" />
</g>
<g id="part-13">
<path d="M 93.000 771.000 L 113.000 775.000 L 107.400 799.000 L 96.000 793.960 L 93.000 771.000 Z" />
</g>
<g id="part-14">
<path d="M 104.757 264.007 L 103.804 268.332 L 101.249 271.284 L 97.903 271.925 L 94.828 270.053 L 93.000 266.260 L 93.000 261.753 L 94.828 257.961 L 97.903 256.088 L 101.249 256.730 L 103.804 259.681 L 104.757 264.007 Z" />
</g>
<g id="part-15">
<path d="M 60.000 777.000 L 90.000 777.000 L 90.000 801.000 L 60.000 801.000 L 60.000 777.000 Z" />
</g>
<g id="part-16">
<path d="M 60.000 25.526 L 83.000 25.526 L 83.000 36.526 L 60.000 36.526 L 60.000 25.526 Z" />
</g>
<g id="part-17">
<path d="M 93.000 513.175 L 109.000 513.175 L 109.000 533.175 L 93.000 533.175 L 93.000 513.175 Z" />
</g>
<g id="part-18">
<path d="M 10.000 183.000 L 43.000 183.000 L 43.000 212.000 L 10.000 212.000 L 10.000 183.000 Z" />
</g>
<g id="part-19">
<path d="M 60.000 381.197 L 86.000 381.197 L 86.000 397.197 L 60.000 397.197 L 60.000 381.197 Z" />
</g>
<g id="part-20">
<path d="M 10.000 214.000 L 43.000 214.000 L 43.000 253.000 L 10.000 253.000 L 10.000 214.000 Z" />
<path d="M 20.560 226.480 L 20.560 240.520 L 32.440 240.520 L 32.440 226.480 L 20.560 226.480 Z" fill="#f7f7f2" fill-opacity="1" stroke="#163b5c" />
</g>
<g id="part-21">
<path d="M 60.000 106.197 L 84.000 106.197 L 84.000 148.197 L 60.000 148.197 L 60.000 106.197 Z" />
<path d="M 68.160 113.757 L 68.160 122.997 L 78.720 122.997 L 78.720 113.757 L 68.160 113.757 Z" fill="#f7f7f2" fill-opacity="1" stroke="#163b5c" />
<path d="M 68.160 131.397 L 68.160 140.637 L 78.720 140.637 L 78.720 131.397 L 68.160 131.397 Z" fill="#f7f7f2" fill-opacity="1" stroke="#163b5c" />
</g>
<g id="part-22">
<path d="M 10.000 707.000 L 54.000 707.000 L 54.000 714.700 L 24.960 714.700 L 24.960 734.300 L 54.000 734.300 L 54.000 742.000 L 10.000 742.000 L 10.000 707.000 Z" />
</g>
<g id="part-23">
<path d="M 93.000 879.000 L 115.000 883.000 L 108.840 887.000 L 96.000 885.560 L 93.000 879.000 Z" />
</g>
<g id="part-24">
<path d="M 108.676 503.256 L 107.406 507.582 L 103.999 510.533 L 99.537 511.175 L 95.437 509.302 L 93.000 505.510 L 93.000 501.003 L 95.437 497.210 L 99.537 495.338 L 103.999 495.979 L 107.406 498.931 L 108.676 503.256 Z" />
</g>
<g id="part-25">
<path d="M 10.000 65.000 L 42.000 65.000 L 42.000 91.000 L 10.000 91.000 L 10.000 65.000 Z" />
</g>
<g id="part-26">
<path d="M 60.000 240.197 L 85.000 240.197 L 85.000 253.197 L 60.000 253.197 L 60.000 240.197 Z" />
</g>
<g id="part-27">
<path d="M 93.000 654.175 L 111.000 654.175 L 111.000 676.175 L 93.000 676.175 L 93.000 654.175 Z" />
</g>
<g id="part-28">
<path d="M 93.000 220.088 L 104.000 220.088 L 104.000 229.088 L 93.000 229.088 L 93.000 220.088 Z" />
</g>
<g id="part-29">
<path d="M 60.000 609.000 L 88.000 609.000 L 88.000 627.000 L 60.000 627.000 L 60.000 609.000 Z" />
</g>
<g id="part-30">
<path d="M 10.000 360.000 L 45.000 360.000 L 45.000 401.000 L 10.000 401.000 L 10.000 360.000 Z" />
<path d="M 21.200 373.120 L 21.200 387.880 L 33.800 387.880 L 33.800 373.120 L 21.200 373.120 Z" fill="#f7f7f2" fill-opacity="1" stroke="#163b5c" />
</g>
<g id="part-31">
<path d="M 60.000 280.197 L 86.000 280.197 L 86.000 322.197 L 60.000 322.197 L 60.000 280.197 Z" />
<path d="M 68.840 287.757 L 68.840 296.997 L 80.280 296.997 L 80.280 287.757 L 68.840 287.757 Z" fill="#f7f7f2" fill-opacity="1" stroke="#163b5c" />
<path d="M 68.840 305.397 L 68.840 314.637 L 80.280 314.637 L 80.280 305.397 L 68.840 305.397 Z" fill="#f7f7f2" fill-opacity="1" stroke="#163b5c" />
</g>
<g id="part-32">
<path d="M 10.000 819.000 L 56.000 819.000 L 56.000 827.140 L 25.640 827.140 L 25.640 847.860 L 56.000 847.860 L 56.000 856.000 L 10.000 856.000 L 10.000 819.000 Z" />
</g>
<g id="part-33">
<path d="M 60.000 94.197 L 84.000 98.197 L 77.280 104.197 L 63.000 102.397 L 60.000 94.197 Z" />
</g>
<g id="part-34">
<path d="M 109.000 569.175 L 107.928 574.175 L 105.000 577.835 L 101.000 579.175 L 97.000 577.835 L 94.072 574.175 L 93.000 569.175 L 94.072 564.175 L 97.000 560.515 L 101.000 559.175 L 105.000 560.515 L 107.928 564.175 L 109.000 569.175 Z" />
</g>
<g id="part-35">
<path d="M 93.000 190.088 L 103.000 190.088 L 103.000 218.088 L 93.000 218.088 L 93.000 190.088 Z" />
</g>
<g id="part-36">
<path d="M 60.000 409.197 L 87.000 409.197 L 87.000 424.197 L 60.000 424.197 L 60.000 409.197 Z" />
</g>
<g id="part-37">
<path d="M 93.000 723.000 L 113.000 723.000 L 113.000 747.000 L 93.000 747.000 L 93.000 723.000 Z" />
</g>
<g id="part-38">
<path d="M 93.000 376.338 L 106.000 376.338 L 106.000 387.338 L 93.000 387.338 L 93.000 376.338 Z" />
</g>
<g id="part-39">
<path d="M 60.000 821.000 L 90.000 821.000 L 90.000 841.000 L 60.000 841.000 L 60.000 821.000 Z" />
</g>
<g id="part-40">
<path d="M 10.000 457.000 L 47.000 457.000 L 47.000 500.000 L 10.000 500.000 L 10.000 457.000 Z" />
<path d="M 21.840 470.760 L 21.840 486.240 L 35.160 486.240 L 35.160 470.760 L 21.840 470.760 Z" fill="#f7f7f2" fill-opacity="1" stroke="#163b5c" />
</g>
<g id="part-41">
<path d="M 60.000 563.000 L 88.000 563.000 L 88.000 607.000 L 60.000 607.000 L 60.000 563.000 Z" />
<path d="M 69.520 570.920 L 69.520 580.600 L 81.840 580.600 L 81.840 570.920 L 69.520 570.920 Z" fill="#f7f7f2" fill-opacity="1" stroke="#163b5c" />
<path d="M 69.520 589.400 L 69.520 599.080 L 81.840 599.080 L 81.840 589.400 L 69.520 589.400 Z" fill="#f7f7f2" fill-opacity="1" stroke="#163b5c" />
</g>
<g id="part-42">
<path d="M 10.000 891.000 L 58.000 891.000 L 58.000 899.580 L 26.320 899.580 L 26.320 921.420 L 58.000 921.420 L 58.000 930.000 L 10.000 930.000 L 10.000 891.000 Z" />
</g>
<g id="part-43">
<path d="M 60.000 324.197 L 86.000 328.197 L 78.720 336.197 L 63.000 334.037 L 60.000 324.197 Z" />
</g>
<g id="part-44">
<path d="M 113.000 759.000 L 111.660 764.000 L 108.000 767.660 L 103.000 769.000 L 98.000 767.660 L 94.340 764.000 L 93.000 759.000 L 94.340 754.000 L 98.000 750.340 L 103.000 749.000 L 108.000 750.340 L 111.660 754.000 L 113.000 759.000 Z" />
</g>
<g id="part-45">
<path d="M 93.000 297.925 L 105.000 297.925 L 105.000 305.925 L 93.000 305.925 L 93.000 297.925 Z" />
</g>
<g id="part-46">
<path d="M 60.000 629.000 L 89.000 629.000 L 89.000 646.000 L 60.000 646.000 L 60.000 629.000 Z" />
</g>
<g id="part-47">
<path d="M 93.000 851.000 L 115.000 851.000 L 115.000 877.000 L 93.000 877.000 L 93.000 851.000 Z" />
</g>
<g id="part-48">
<path d="M 93.000 480.338 L 108.000 480.338 L 108.000 493.338 L 93.000 493.338 L 93.000 480.338 Z" />
</g>
<g id="part-49">
<path d="M 10.000 159.000 L 42.000 159.000 L 42.000 181.000 L 10.000 181.000 L 10.000 159.000 Z" />
</g>
<g id="part-50">
<path d="M 10.000 558.000 L 49.000 558.000 L 49.000 581.000 L 10.000 581.000 L 10.000 558.000 Z" />
<path d="M 22.480 565.360 L 22.480 573.640 L 36.520 573.640 L 36.520 565.360 L 22.480 565.360 Z" fill="#f7f7f2" fill-opacity="1" stroke="#163b5c" />
</g>
<g id="part-51">
<path d="M 60.000 729.000 L 90.000 729.000 L 90.000 775.000 L 60.000 775.000 L 60.000 729.000 Z" />
<path d="M 70.200 737.280 L 70.200 747.400 L 83.400 747.400 L 83.400 737.280 L 70.200 737.280 Z" fill="#f7f7f2" fill-opacity="1" stroke="#163b5c" />
<path d="M 70.200 756.600 L 70.200 766.720 L 83.400 766.720 L 83.400 756.600 L 70.200 756.600 Z" fill="#f7f7f2" fill-opacity="1" stroke="#163b5c" />
</g>
<g id="part-52">
<path d="M 60.000 338.197 L 86.000 338.197 L 86.000 347.217 L 68.840 347.217 L 68.840 370.177 L 86.000 370.177 L 86.000 379.197 L 60.000 379.197 L 60.000 338.197 Z" />
</g>
<g id="part-53">
<path d="M 60.000 478.000 L 88.000 482.000 L 80.160 492.000 L 63.000 489.480 L 60.000 478.000 Z" />
</g>
<g id="part-54">
<path d="M 112.709 709.087 L 111.564 714.664 L 108.390 718.963 L 103.915 721.000 L 99.163 720.308 L 95.224 717.045 L 93.000 711.959 L 93.000 706.216 L 95.224 701.130 L 99.163 697.867 L 103.915 697.175 L 108.390 699.212 L 111.564 703.511 L 112.709 709.087 Z" />
</g>
<g id="part-55">
<path d="M 93.000 409.338 L 107.000 409.338 L 107.000 419.338 L 93.000 419.338 L 93.000 409.338 Z" />
</g>
<g id="part-56">
<path d="M 60.000 843.000 L 91.000 843.000 L 91.000 862.000 L 60.000 862.000 L 60.000 843.000 Z" />
</g>
<g id="part-57">
<path d="M 60.000 210.197 L 84.000 210.197 L 84.000 238.197 L 60.000 238.197 L 60.000 210.197 Z" />
</g>
<g id="part-58">
<path d="M 93.000 581.175 L 110.000 581.175 L 110.000 596.175 L 93.000 596.175 L 93.000 581.175 Z" />
</g>
<g id="part-59">
<path d="M 93.000 142.088 L 103.000 142.088 L 103.000 166.088 L 93.000 166.088 L 93.000 142.088 Z" />
</g>
<g id="part-60">
<path d="M 10.000 616.000 L 51.000 616.000 L 51.000 641.000 L 10.000 641.000 L 10.000 616.000 Z" />
<path d="M 23.120 624.000 L 23.120 633.000 L 37.880 633.000 L 37.880 624.000 L 23.120 624.000 Z" fill="#f7f7f2" fill-opacity="1" stroke="#163b5c" />
</g>
<g id="part-61">
<path d="M 10.000 109.000 L 42.000 109.000 L 42.000 157.000 L 10.000 157.000 L 10.000 109.000 Z" />
<path d="M 20.880 117.640 L 20.880 128.200 L 34.960 128.200 L 34.960 117.640 L 20.880 117.640 Z" fill="#f7f7f2" fill-opacity="1" stroke="#163b5c" />
<path d="M 20.880 137.800 L 20.880 148.360 L 34.960 148.360 L 34.960 137.800 L 20.880 137.800 Z" fill="#f7f7f2" fill-opacity="1" stroke="#163b5c" />
</g>
<g id="part-62">
<path d="M 60.000 494.000 L 88.000 494.000 L 88.000 503.460 L 69.520 503.460 L 69.520 527.540 L 88.000 527.540 L 88.000 537.000 L 60.000 537.000 L 60.000 494.000 Z" />
</g>
<g id="part-63">
<path d="M 60.000 803.000 L 90.000 807.000 L 81.600 819.000 L 63.000 816.120 L 60.000 803.000 Z" />
</g>
<g id="part-64">
<path d="M 83.651 50.438 L 82.277 56.015 L 78.468 60.314 L 73.098 62.351 L 67.396 61.658 L 62.669 58.396 L 60.000 53.310 L 60.000 47.566 L 62.669 42.481 L 67.396 39.218 L 73.098 38.526 L 78.468 40.562 L 82.277 44.861 L 83.651 50.438 Z" />
</g>
<g id="part-65">
<path d="M 93.000 545.175 L 109.000 545.175 L 109.000 557.175 L 93.000 557.175 L 93.000 545.175 Z" />
</g>
<g id="part-66">
<path d="M 10.000 255.000 L 43.000 255.000 L 43.000 276.000 L 10.000 276.000 L 10.000 255.000 Z" />
</g>
<g id="part-67">
<path d="M 60.000 399.197 L 86.000 399.197 L 86.000 407.197 L 60.000 407.197 L 60.000 399.197 Z" />
</g>
<g id="part-68">
<path d="M 93.000 678.175 L 112.000 678.175 L 112.000 695.175 L 93.000 695.175 L 93.000 678.175 Z" />
</g>
<g id="part-69">
<path d="M 93.000 307.925 L 105.000 307.925 L 105.000 333.925 L 93.000 333.925 L 93.000 307.925 Z" />
</g>
<g id="part-70">
<path d="M 10.000 678.000 L 53.000 678.000 L 53.000 705.000 L 10.000 705.000 L 10.000 678.000 Z" />
<path d="M 23.760 686.640 L 23.760 696.360 L 39.240 696.360 L 39.240 686.640 L 23.760 686.640 Z" fill="#f7f7f2" fill-opacity="1" stroke="#163b5c" />
</g>
<g id="part-71">
<path d="M 10.000 278.000 L 44.000 278.000 L 44.000 328.000 L 10.000 328.000 L 10.000 278.000 Z" />
<path d="M 21.560 287.000 L 21.560 298.000 L 36.520 298.000 L 36.520 287.000 L 21.560 287.000 Z" fill="#f7f7f2" fill-opacity="1" stroke="#163b5c" />
<path d="M 21.560 308.000 L 21.560 319.000 L 36.520 319.000 L 36.520 308.000 L 21.560 308.000 Z" fill="#f7f7f2" fill-opacity="1" stroke="#163b5c" />
</g>
<g id="part-72">
<path d="M 60.000 685.000 L 90.000 685.000 L 90.000 691.160 L 70.200 691.160 L 70.200 706.840 L 90.000 706.840 L 90.000 713.000 L 60.000 713.000 L 60.000 685.000 Z" />
</g>
<g id="part-73">
<path d="M 10.000 15.000 L 42.000 19.000 L 33.040 33.000 L 13.000 29.760 L 10.000 15.000 Z" />
</g>
<g id="part-74">
<path d="M 83.738 78.274 L 82.700 83.968 L 79.767 88.678 L 75.446 91.589 L 70.483 92.197 L 65.738 90.398 L 62.030 86.503 L 60.000 81.185 L 60.000 75.363 L 62.030 70.045 L 65.738 66.150 L 70.483 64.351 L 75.446 64.959 L 79.767 67.870 L 82.700 72.580 L 83.738 78.274 Z" />
</g>
<g id="part-75">
<path d="M 93.000 638.175 L 111.000 638.175 L 111.000 652.175 L 93.000 652.175 L 93.000 638.175 Z" />
</g>
<g id="part-76">
<path d="M 93.000 231.088 L 104.000 231.088 L 104.000 254.088 L 93.000 254.088 L 93.000 231.088 Z" />
</g>
<g id="part-77">
<path d="M 60.000 466.000 L 88.000 466.000 L 88.000 476.000 L 60.000 476.000 L 60.000 466.000 Z" />
</g>
<g id="part-78">
<path d="M 93.000 819.000 L 114.000 819.000 L 114.000 838.000 L 93.000 838.000 L 93.000 819.000 Z" />
</g>
<g id="part-79">
<path d="M 93.000 421.338 L 107.000 421.338 L 107.000 449.338 L 93.000 449.338 L 93.000 421.338 Z" />
</g>
<g id="part-80">
<path d="M 10.000 788.000 L 55.000 788.000 L 55.000 817.000 L 10.000 817.000 L 10.000 788.000 Z" />
<path d="M 24.400 797.280 L 24.400 807.720 L 40.600 807.720 L 40.600 797.280 L 24.400 797.280 Z" fill="#f7f7f2" fill-opacity="1" stroke="#163b5c" />
</g>
<g id="part-81">
<path d="M 10.000 403.000 L 46.000 403.000 L 46.000 455.000 L 10.000 455.000 L 10.000 403.000 Z" />
<path d="M 22.240 412.360 L 22.240 423.800 L 38.080 423.800 L 38.080 412.360 L 22.240 412.360 Z" fill="#f7f7f2" fill-opacity="1" stroke="#163b5c" />
<path d="M 22.240 434.200 L 22.240 445.640 L 38.080 445.640 L 38.080 434.200 L 22.240 434.200 Z" fill="#f7f7f2" fill-opacity="1" stroke="#163b5c" />
</g>
<g id="part-82">
<path d="M 10.000 35.000 L 42.000 35.000 L 42.000 41.160 L 20.880 41.160 L 20.880 56.840 L 42.000 56.840 L 42.000 63.000 L 10.000 63.000 L 10.000 35.000 Z" />
</g>
<g id="part-83">
<path d="M 93.000 168.088 L 103.000 172.088 L 100.200 188.088 L 96.000 184.488 L 93.000 168.088 Z" />
</g>
<g id="part-84">
<path d="M 87.694 440.121 L 86.484 445.815 L 83.062 450.525 L 78.020 453.435 L 72.231 454.044 L 66.694 452.245 L 62.368 448.350 L 60.000 443.031 L 60.000 437.210 L 62.368 431.892 L 66.694 427.996 L 72.231 426.197 L 78.020 426.806 L 83.062 429.716 L 86.484 434.426 L 87.694 440.121 Z" />
</g>
<g id="part-85">
<path d="M 93.000 801.000 L 113.000 801.000 L 113.000 817.000 L 93.000 817.000 L 93.000 801.000 Z" />
</g>
<g id="part-86">
<path d="M 93.000 349.338 L 106.000 349.338 L 106.000 374.338 L 93.000 374.338 L 93.000 349.338 Z" />
</g>
<g id="part-87">
<path d="M 60.000 715.000 L 90.000 715.000 L 90.000 727.000 L 60.000 727.000 L 60.000 715.000 Z" />
</g>
<g id="part-88">
<path d="M 93.000 909.000 L 116.000 909.000 L 116.000 930.000 L 93.000 930.000 L 93.000 909.000 Z" />
</g>
<g id="part-89">
<path d="M 93.000 535.175 L 109.000 535.175 L 109.000 543.175 L 93.000 543.175 L 93.000 535.175 Z" />
</g>
<g id="part-90">
<path d="M 10.000 858.000 L 57.000 858.000 L 57.000 889.000 L 10.000 889.000 L 10.000 858.000 Z" />
<path d="M 25.040 867.920 L 25.040 879.080 L 41.960 879.080 L 41.960 867.920 L 25.040 867.920 Z" fill="#f7f7f2" fill-opacity="1" stroke="#163b5c" />
</g>
<g id="part-91">
<path d="M 10.000 502.000 L 48.000 502.000 L 48.000 556.000 L 10.000 556.000 L 10.000 502.000 Z" />
<path d="M 22.920 511.720 L 22.920 523.600 L 39.640 523.600 L 39.640 511.720 L 22.920 511.720 Z" fill="#f7f7f2" fill-opacity="1" stroke="#163b5c" />
<path d="M 22.920 534.400 L 22.920 546.280 L 39.640 546.280 L 39.640 534.400 L 22.920 534.400 Z" fill="#f7f7f2" fill-opacity="1" stroke="#163b5c" />
</g>
<g id="part-92">
<path d="M 10.000 330.000 L 44.000 330.000 L 44.000 336.160 L 21.560 336.160 L 21.560 351.840 L 44.000 351.840 L 44.000 358.000 L 10.000 358.000 L 10.000 330.000 Z" />
</g>
<g id="part-93">
<path d="M 93.000 273.925 L 105.000 277.925 L 101.640 295.925 L 96.000 291.965 L 93.000 273.925 Z" />
</g>
<g id="part-94">
<path d="M 87.694 460.022 L 86.484 461.649 L 83.062 462.994 L 78.020 463.826 L 72.231 464.000 L 66.694 463.486 L 62.368 462.373 L 60.000 460.854 L 60.000 459.190 L 62.368 457.671 L 66.694 456.558 L 72.231 456.044 L 78.020 456.218 L 83.062 457.049 L 86.484 458.395 L 87.694 460.022 Z" />
</g>
<g id="part-95">
<path d="M 93.000 889.000 L 115.000 889.000 L 115.000 907.000 L 93.000 907.000 L 93.000 889.000 Z" />
</g>
<g id="part-96">
<path d="M 93.000 451.338 L 108.000 451.338 L 108.000 478.338 L 93.000 478.338 L 93.000 451.338 Z" />
</g>
<g id="part-97">
<path d="M 10.000 93.000 L 42.000 93.000 L 42.000 107.000 L 10.000 107.000 L 10.000 93.000 Z" />
</g>
<g id="part-98">
<path d="M 60.000 255.197 L 85.000 255.197 L 85.000 278.197 L 60.000 278.197 L 60.000 255.197 Z" />
</g>
<g id="part-99">
<path d="M 93.000 598.175 L 111.000 598.175 L 111.000 608.175 L 93.000 608.175 L 93.000 598.175 Z" />
</g>
</g>
<text x="10" y="20" font-size="14" fill="#222">mixed_100_parts / Maximum</text>
</svg>
