<svg xmlns="http://www.w3.org/2000/svg" width="1450.000" height="940.000" viewBox="0 0 1450.000 940.000">
<rect x="0" y="0" width="1450.000" height="940.000" fill="#f7f7f2" />
<g fill="none" stroke="#2a2a2a" stroke-width="1.2">
<path d="M 0.000 0.000 L 1450.000 0.000 L 1450.000 940.000 L 0.000 940.000 L 0.000 0.000 Z" stroke="#1f5f8b" />
</g>
<g fill="#86b8e7" fill-opacity="0.58" stroke="#163b5c" stroke-width="0.8">
<g id="part-0">
<path d="M 773.000 10.000 L 802.000 10.000 L 802.000 45.000 L 773.000 45.000 L 773.000 10.000 Z" />
<path d="M 782.280 21.200 L 782.280 33.800 L 792.720 33.800 L 792.720 21.200 L 782.280 21.200 Z" fill="#f7f7f2" fill-opacity="1" stroke="#163b5c" />
</g>
<g id="part-1">
<path d="M 88.000 10.000 L 132.000 10.000 L 132.000 52.000 L 88.000 52.000 L 88.000 10.000 Z" />
<path d="M 102.960 17.560 L 102.960 26.800 L 122.320 26.800 L 122.320 17.560 L 102.960 17.560 Z" fill="#f7f7f2" fill-opacity="1" stroke="#163b5c" />
<path d="M 102.960 35.200 L 102.960 44.440 L 122.320 44.440 L 122.320 35.200 L 102.960 35.200 Z" fill="#f7f7f2" fill-opacity="1" stroke="#163b5c" />
</g>
<g id="part-2">
<path d="M 995.000 10.000 L 1035.000 10.000 L 1035.000 16.820 L 1008.600 16.820 L 1008.600 34.180 L 1035.000 34.180 L 1035.000 41.000 L 995.000 41.000 L 995.000 10.000 Z" />
</g>
<g id="part-3">
<path d="M 762.098 66.000 L 780.098 70.000 L 775.058 92.000 L 765.098 87.320 L 762.098 66.000 Z" />
</g>
<g id="part-4">
<path d="M 1307.225 71.706 L 1306.080 75.233 L 1303.080 77.413 L 1299.371 77.413 L 1296.371 75.233 L 1295.225 71.706 L 1296.371 68.180 L 1299.371 66.000 L 1303.080 66.000 L 1306.080 68.180 L 1307.225 71.706 Z" />
</g>
<g id="part-5">
<path d="M 1263.000 10.000 L 1291.000 10.000 L 1291.000 32.000 L 1263.000 32.000 L 1263.000 10.000 Z" />
</g>
<g id="part-6">
<path d="M 1107.774 66.000 L 1128.774 66.000 L 1128.774 75.000 L 1107.774 75.000 L 1107.774 66.000 Z" />
</g>
<g id="part-7">
<path d="M 903.098 66.000 L 917.098 66.000 L 917.098 84.000 L 903.098 84.000 L 903.098 66.000 Z" />
</g>
<g id="part-8">
<path d="M 876.000 10.000 L 907.000 10.000 L 907.000 37.000 L 876.000 37.000 L 876.000 10.000 Z" />
</g>
<g id="part-9">
<path d="M 587.098 66.000 L 611.098 66.000 L 611.098 80.000 L 587.098 80.000 L 587.098 66.000 Z" />
</g>
<g id="part-10">
<path d="M 586.000 10.000 L 617.000 10.000 L 617.000 47.000 L 586.000 47.000 L 586.000 10.000 Z" />
<path d="M 595.920 21.840 L 595.920 35.160 L 607.080 35.160 L 607.080 21.840 L 595.920 21.840 Z" fill="#f7f7f2" fill-opacity="1" stroke="#163b5c" />
</g>
<g id="part-11">
<path d="M 943.000 10.000 L 967.000 10.000 L 967.000 52.000 L 943.000 52.000 L 943.000 10.000 Z" />
<path d="M 951.160 17.560 L 951.160 26.800 L 961.720 26.800 L 961.720 17.560 L 951.160 17.560 Z" fill="#f7f7f2" fill-opacity="1" stroke="#163b5c" />
<path d="M 951.160 35.200 L 951.160 44.440 L 961.720 44.440 L 961.720 35.200 L 951.160 35.200 Z" fill="#f7f7f2" fill-opacity="1" stroke="#163b5c" />
</g>
<g id="part-12">
<path d="M 832.000 10.000 L 874.000 10.000 L 874.000 17.260 L 846.280 17.260 L 846.280 35.740 L 874.000 35.740 L 874.000 43.000 L 832.000 43.000 L 832.000 10.000 Z" />
</g>
<g id="part-13">
<path d="M 511.389 66.000 L 531.389 70.000 L 525.789 94.000 L 514.389 88.960 L 511.389 66.000 Z" />
</g>
<g id="part-14">
<path d="M 1221.225 73.919 L 1220.273 78.244 L 1217.718 81.196 L 1214.372 81.837 L 1211.296 79.965 L 1209.469 76.172 L 1209.469 71.665 L 1211.296 67.873 L 1214.372 66.000 L 1217.718 66.642 L 1220.273 69.593 L 1221.225 73.919 Z" />
</g>
<g id="part-15">
<path d="M 1108.000 10.000 L 1138.000 10.000 L 1138.000 34.000 L 1108.000 34.000 L 1108.000 10.000 Z" />
</g>
<g id="part-16">
<path d="M 878.098 66.000 L 901.098 66.000 L 901.098 77.000 L 878.098 77.000 L 878.098 66.000 Z" />
</g>
<g id="part-17">
<path d="M 698.098 66.000 L 714.098 66.000 L 714.098 86.000 L 698.098 86.000 L 698.098 66.000 Z" />
</g>
<g id="part-18">
<path d="M 695.000 10.000 L 728.000 10.000 L 728.000 39.000 L 695.000 39.000 L 695.000 10.000 Z" />
</g>
<g id="part-19">
<path d="M 320.389 66.000 L 346.389 66.000 L 346.389 82.000 L 320.389 82.000 L 320.389 66.000 Z" />
</g>
<g id="part-20">
<path d="M 426.000 10.000 L 459.000 10.000 L 459.000 49.000 L 426.000 49.000 L 426.000 10.000 Z" />
<path d="M 436.560 22.480 L 436.560 36.520 L 448.440 36.520 L 448.440 22.480 L 436.560 22.480 Z" fill="#f7f7f2" fill-opacity="1" stroke="#163b5c" />
</g>
<g id="part-21">
<path d="M 969.000 10.000 L 993.000 10.000 L 993.000 52.000 L 969.000 52.000 L 969.000 10.000 Z" />
<path d="M 977.160 17.560 L 977.160 26.800 L 987.720 26.800 L 987.720 17.560 L 977.160 17.560 Z" fill="#f7f7f2" fill-opacity="1" stroke="#163b5c" />
<path d="M 977.160 35.200 L 977.160 44.440 L 987.720 44.440 L 987.720 35.200 L 977.160 35.200 Z" fill="#f7f7f2" fill-opacity="1" stroke="#163b5c" />
</g>
<g id="part-22">
<path d="M 649.000 10.000 L 693.000 10.000 L 693.000 17.700 L 663.960 17.700 L 663.960 37.300 L 693.000 37.300 L 693.000 45.000 L 649.000 45.000 L 649.000 10.000 Z" />
</g>
<g id="part-23">
<path d="M 1322.225 66.000 L 1344.225 70.000 L 1338.065 74.000 L 1325.225 72.560 L 1322.225 66.000 Z" />
</g>
<g id="part-24">
<path d="M 1105.774 73.919 L 1104.504 78.244 L 1101.098 81.196 L 1096.636 81.837 L 1092.536 79.965 L 1090.098 76.172 L 1090.098 71.665 L 1092.536 67.873 L 1096.636 66.000 L 1101.098 66.642 L 1104.504 69.593 L 1105.774 73.919 Z" />
</g>
<g id="part-25">
<path d="M 909.000 10.000 L 941.000 10.000 L 941.000 36.000 L 909.000 36.000 L 909.000 10.000 Z" />
</g>
<g id="part-26">
<path d="M 628.098 66.000 L 653.098 66.000 L 653.098 79.000 L 628.098 79.000 L 628.098 66.000 Z" />
</g>
<g id="part-27">
<path d="M 417.389 66.000 L 435.389 66.000 L 435.389 88.000 L 417.389 88.000 L 417.389 66.000 Z" />
</g>
<g id="part-28">
<path d="M 1309.225 66.000 L 1320.225 66.000 L 1320.225 75.000 L 1309.225 75.000 L 1309.225 66.000 Z" />
</g>
<g id="part-29">
<path d="M 152.738 66.000 L 180.738 66.000 L 180.738 84.000 L 152.738 84.000 L 152.738 66.000 Z" />
</g>
<g id="part-30">
<path d="M 258.000 10.000 L 293.000 10.000 L 293.000 51.000 L 258.000 51.000 L 258.000 10.000 Z" />
<path d="M 269.200 23.120 L 269.200 37.880 L 281.800 37.880 L 281.800 23.120 L 269.200 23.120 Z" fill="#f7f7f2" fill-opacity="1" stroke="#163b5c" />
</g>
<g id="part-31">
<path d="M 804.000 10.000 L 830.000 10.000 L 830.000 52.000 L 804.000 52.000 L 804.000 10.000 Z" />
<path d="M 812.840 17.560 L 812.840 26.800 L 824.280 26.800 L 824.280 17.560 L 812.840 17.560 Z" fill="#f7f7f2" fill-opacity="1" stroke="#163b5c" />
<path d="M 812.840 35.200 L 812.840 44.440 L 824.280 44.440 L 824.280 35.200 L 812.840 35.200 Z" fill="#f7f7f2" fill-opacity="1" stroke="#163b5c" />
</g>
<g id="part-32">
<path d="M 493.000 10.000 L 539.000 10.000 L 539.000 18.140 L 508.640 18.140 L 508.640 38.860 L 539.000 38.860 L 539.000 47.000 L 493.000 47.000 L 493.000 10.000 Z" />
</g>
<g id="part-33">
<path d="M 1223.225 66.000 L 1247.225 70.000 L 1240.505 76.000 L 1226.225 74.200 L 1223.225 66.000 Z" />
</g>
<g id="part-34">
<path d="M 985.098 76.000 L 984.027 81.000 L 981.098 84.660 L 977.098 86.000 L 973.098 84.660 L 970.170 81.000 L 969.098 76.000 L 970.170 71.000 L 973.098 67.340 L 977.098 66.000 L 981.098 67.340 L 984.027 71.000 L 985.098 76.000 Z" />
</g>
<g id="part-35">
<path d="M 804.098 66.000 L 814.098 66.000 L 814.098 94.000 L 804.098 94.000 L 804.098 66.000 Z" />
</g>
<g id="part-36">
<path d="M 348.389 66.000 L 375.389 66.000 L 375.389 81.000 L 348.389 81.000 L 348.389 66.000 Z" />
</g>
<g id="part-37">
<path d="M 238.738 66.000 L 258.738 66.000 L 258.738 90.000 L 238.738 90.000 L 238.738 66.000 Z" />
</g>
<g id="part-38">
<path d="M 1194.469 66.000 L 1207.469 66.000 L 1207.469 77.000 L 1194.469 77.000 L 1194.469 66.000 Z" />
</g>
<g id="part-39">
<path d="M 1329.000 10.000 L 1359.000 10.000 L 1359.000 30.000 L 1329.000 30.000 L 1329.000 10.000 Z" />
</g>
<g id="part-40">
<path d="M 134.000 10.000 L 171.000 10.000 L 171.000 53.000 L 134.000 53.000 L 134.000 10.000 Z" />
<path d="M 145.840 23.760 L 145.840 39.240 L 159.160 39.240 L 159.160 23.760 L 145.840 23.760 Z" fill="#f7f7f2" fill-opacity="1" stroke="#163b5c" />
</g>
<g id="part-41">
<path d="M 619.000 10.000 L 647.000 10.000 L 647.000 54.000 L 619.000 54.000 L 619.000 10.000 Z" />
<path d="M 628.520 17.920 L 628.520 27.600 L 640.840 27.600 L 640.840 17.920 L 628.520 17.920 Z" fill="#f7f7f2" fill-opacity="1" stroke="#163b5c" />
<path d="M 628.520 36.400 L 628.520 46.080 L 640.840 46.080 L 640.840 36.400 L 628.520 36.400 Z" fill="#f7f7f2" fill-opacity="1" stroke="#163b5c" />
</g>
<g id="part-42">
<path d="M 329.000 10.000 L 377.000 10.000 L 377.000 18.580 L 345.320 18.580 L 345.320 40.420 L 377.000 40.420 L 377.000 49.000 L 329.000 49.000 L 329.000 10.000 Z" />
</g>
<g id="part-43">
<path d="M 1044.098 66.000 L 1070.098 70.000 L 1062.818 78.000 L 1047.098 75.840 L 1044.098 66.000 Z" />
</g>
<g id="part-44">
<path d="M 802.098 76.000 L 800.759 81.000 L 797.098 84.660 L 792.098 86.000 L 787.098 84.660 L 783.438 81.000 L 782.098 76.000 L 783.438 71.000 L 787.098 67.340 L 792.098 66.000 L 797.098 67.340 L 800.759 71.000 L 802.098 76.000 Z" />
</g>
<g id="part-45">
<path d="M 1346.225 66.000 L 1358.225 66.000 L 1358.225 74.000 L 1346.225 74.000 L 1346.225 66.000 Z" />
</g>
<g id="part-46">
<path d="M 182.738 66.000 L 211.738 66.000 L 211.738 83.000 L 182.738 83.000 L 182.738 66.000 Z" />
</g>
<g id="part-47">
<path d="M 37.000 66.000 L 59.000 66.000 L 59.000 92.000 L 37.000 92.000 L 37.000 66.000 Z" />
</g>
<g id="part-48">
<path d="M 1027.098 66.000 L 1042.098 66.000 L 1042.098 79.000 L 1027.098 79.000 L 1027.098 66.000 Z" />
</g>
<g id="part-49">
<path d="M 1140.000 10.000 L 1172.000 10.000 L 1172.000 32.000 L 1140.000 32.000 L 1140.000 10.000 Z" />
</g>
<g id="part-50">
<path d="M 1037.000 10.000 L 1076.000 10.000 L 1076.000 33.000 L 1037.000 33.000 L 1037.000 10.000 Z" />
<path d="M 1049.480 17.360 L 1049.480 25.640 L 1063.520 25.640 L 1063.520 17.360 L 1049.480 17.360 Z" fill="#f7f7f2" fill-opacity="1" stroke="#163b5c" />
</g>
<g id="part-51">
<path d="M 461.000 10.000 L 491.000 10.000 L 491.000 56.000 L 461.000 56.000 L 461.000 10.000 Z" />
<path d="M 471.200 18.280 L 471.200 28.400 L 484.400 28.400 L 484.400 18.280 L 471.200 18.280 Z" fill="#f7f7f2" fill-opacity="1" stroke="#163b5c" />
<path d="M 471.200 37.600 L 471.200 47.720 L 484.400 47.720 L 484.400 37.600 L 471.200 37.600 Z" fill="#f7f7f2" fill-opacity="1" stroke="#163b5c" />
</g>
<g id="part-52">
<path d="M 1209.000 10.000 L 1235.000 10.000 L 1235.000 19.020 L 1217.840 19.020 L 1217.840 41.980 L 1235.000 41.980 L 1235.000 51.000 L 1209.000 51.000 L 1209.000 10.000 Z" />
</g>
<g id="part-53">
<path d="M 939.098 66.000 L 967.098 70.000 L 959.258 80.000 L 942.098 77.480 L 939.098 66.000 Z" />
</g>
<g id="part-54">
<path d="M 553.098 77.913 L 551.953 83.489 L 548.779 87.788 L 544.304 89.825 L 539.552 89.133 L 535.613 85.870 L 533.389 80.784 L 533.389 75.041 L 535.613 69.955 L 539.552 66.692 L 544.304 66.000 L 548.779 68.037 L 551.953 72.336 L 553.098 77.913 Z" />
</g>
<g id="part-55">
<path d="M 1249.225 66.000 L 1263.225 66.000 L 1263.225 76.000 L 1249.225 76.000 L 1249.225 66.000 Z" />
</g>
<g id="part-56">
<path d="M 1390.694 10.000 L 1421.694 10.000 L 1421.694 29.000 L 1390.694 29.000 L 1390.694 10.000 Z" />
</g>
<g id="part-57">
<path d="M 1237.000 10.000 L 1261.000 10.000 L 1261.000 38.000 L 1237.000 38.000 L 1237.000 10.000 Z" />
</g>
<g id="part-58">
<path d="M 846.098 66.000 L 863.098 66.000 L 863.098 81.000 L 846.098 81.000 L 846.098 66.000 Z" />
</g>
<g id="part-59">
<path d="M 987.098 66.000 L 997.098 66.000 L 997.098 90.000 L 987.098 90.000 L 987.098 66.000 Z" />
</g>
<g id="part-60">
<path d="M 730.000 10.000 L 771.000 10.000 L 771.000 35.000 L 730.000 35.000 L 730.000 10.000 Z" />
<path d="M 743.120 18.000 L 743.120 27.000 L 757.880 27.000 L 757.880 18.000 L 743.120 18.000 Z" fill="#f7f7f2" fill-opacity="1" stroke="#163b5c" />
</g>
<g id="part-61">
<path d="M 295.000 10.000 L 327.000 10.000 L 327.000 58.000 L 295.000 58.000 L 295.000 10.000 Z" />
<path d="M 305.880 18.640 L 305.880 29.200 L 319.960 29.200 L 319.960 18.640 L 305.880 18.640 Z" fill="#f7f7f2" fill-opacity="1" stroke="#163b5c" />
<path d="M 305.880 38.800 L 305.880 49.360 L 319.960 49.360 L 319.960 38.800 L 305.880 38.800 Z" fill="#f7f7f2" fill-opacity="1" stroke="#163b5c" />
</g>
<g id="part-62">
<path d="M 1078.000 10.000 L 1106.000 10.000 L 1106.000 19.460 L 1087.520 19.460 L 1087.520 43.540 L 1106.000 43.540 L 1106.000 53.000 L 1078.000 53.000 L 1078.000 10.000 Z" />
</g>
<g id="part-63">
<path d="M 716.098 66.000 L 746.098 70.000 L 737.698 82.000 L 719.098 79.120 L 716.098 66.000 Z" />
</g>
<g id="part-64">
<path d="M 318.389 77.913 L 317.015 83.489 L 313.206 87.788 L 307.836 89.825 L 302.134 89.133 L 297.407 85.870 L 294.738 80.784 L 294.738 75.041 L 297.407 69.955 L 302.134 66.692 L 307.836 66.000 L 313.206 68.037 L 317.015 72.336 L 318.389 77.913 Z" />
</g>
<g id="part-65">
<path d="M 1072.098 66.000 L 1088.098 66.000 L 1088.098 78.000 L 1072.098 78.000 L 1072.098 66.000 Z" />
</g>
<g id="part-66">
<path d="M 1174.000 10.000 L 1207.000 10.000 L 1207.000 31.000 L 1174.000 31.000 L 1174.000 10.000 Z" />
</g>
<g id="part-67">
<path d="M 999.098 66.000 L 1025.098 66.000 L 1025.098 74.000 L 999.098 74.000 L 999.098 66.000 Z" />
</g>
<g id="part-68">
<path d="M 655.098 66.000 L 674.098 66.000 L 674.098 83.000 L 655.098 83.000 L 655.098 66.000 Z" />
</g>
<g id="part-69">
<path d="M 748.098 66.000 L 760.098 66.000 L 760.098 92.000 L 748.098 92.000 L 748.098 66.000 Z" />
</g>
<g id="part-70">
<path d="M 541.000 10.000 L 584.000 10.000 L 584.000 37.000 L 541.000 37.000 L 541.000 10.000 Z" />
<path d="M 554.760 18.640 L 554.760 28.360 L 570.240 28.360 L 570.240 18.640 L 554.760 18.640 Z" fill="#f7f7f2" fill-opacity="1" stroke="#163b5c" />
</g>
<g id="part-71">
<path d="M 173.000 10.000 L 207.000 10.000 L 207.000 60.000 L 173.000 60.000 L 173.000 10.000 Z" />
<path d="M 184.560 19.000 L 184.560 30.000 L 199.520 30.000 L 199.520 19.000 L 184.560 19.000 Z" fill="#f7f7f2" fill-opacity="1" stroke="#163b5c" />
<path d="M 184.560 40.000 L 184.560 51.000 L 199.520 51.000 L 199.520 40.000 L 184.560 40.000 Z" fill="#f7f7f2" fill-opacity="1" stroke="#163b5c" />
</g>
<g id="part-72">
<path d="M 95.000 66.000 L 125.000 66.000 L 125.000 72.160 L 105.200 72.160 L 105.200 87.840 L 125.000 87.840 L 125.000 94.000 L 95.000 94.000 L 95.000 66.000 Z" />
</g>
<g id="part-73">
<path d="M 477.389 66.000 L 509.389 70.000 L 500.429 84.000 L 480.389 80.760 L 477.389 66.000 Z" />
</g>
<g id="part-74">
<path d="M 150.738 79.923 L 149.700 85.618 L 146.767 90.327 L 142.446 93.238 L 137.483 93.847 L 132.738 92.048 L 129.030 88.152 L 127.000 82.834 L 127.000 77.013 L 129.030 71.694 L 132.738 67.799 L 137.483 66.000 L 142.446 66.609 L 146.767 69.519 L 149.700 74.229 L 150.738 79.923 Z" />
</g>
<g id="part-75">
<path d="M 919.098 66.000 L 937.098 66.000 L 937.098 80.000 L 919.098 80.000 L 919.098 66.000 Z" />
</g>
<g id="part-76">
<path d="M 865.098 66.000 L 876.098 66.000 L 876.098 89.000 L 865.098 89.000 L 865.098 66.000 Z" />
</g>
<g id="part-77">
<path d="M 816.098 66.000 L 844.098 66.000 L 844.098 76.000 L 816.098 76.000 L 816.098 66.000 Z" />
</g>
<g id="part-78">
<path d="M 394.389 66.000 L 415.389 66.000 L 415.389 85.000 L 394.389 85.000 L 394.389 66.000 Z" />
</g>
<g id="part-79">
<path d="M 461.389 66.000 L 475.389 66.000 L 475.389 94.000 L 461.389 94.000 L 461.389 66.000 Z" />
</g>
<g id="part-80">
<path d="M 379.000 10.000 L 424.000 10.000 L 424.000 39.000 L 379.000 39.000 L 379.000 10.000 Z" />
<path d="M 393.400 19.280 L 393.400 29.720 L 409.600 29.720 L 409.600 19.280 L 393.400 19.280 Z" fill="#f7f7f2" fill-opacity="1" stroke="#163b5c" />
</g>
<g id="part-81">
<path d="M 50.000 10.000 L 86.000 10.000 L 86.000 62.000 L 50.000 62.000 L 50.000 10.000 Z" />
<path d="M 62.240 19.360 L 62.240 30.800 L 78.080 30.800 L 78.080 19.360 L 62.240 19.360 Z" fill="#f7f7f2" fill-opacity="1" stroke="#163b5c" />
<path d="M 62.240 41.200 L 62.240 52.640 L 78.080 52.640 L 78.080 41.200 L 62.240 41.200 Z" fill="#f7f7f2" fill-opacity="1" stroke="#163b5c" />
</g>
<g id="part-82">
<path d="M 61.000 66.000 L 93.000 66.000 L 93.000 72.160 L 71.880 72.160 L 71.880 87.840 L 93.000 87.840 L 93.000 94.000 L 61.000 94.000 L 61.000 66.000 Z" />
</g>
<g id="part-83">
<path d="M 1283.225 66.000 L 1293.225 70.000 L 1290.425 86.000 L 1286.225 82.400 L 1283.225 66.000 Z" />
</g>
<g id="part-84">
<path d="M 1388.694 23.923 L 1387.484 29.618 L 1384.062 34.327 L 1379.020 37.238 L 1373.231 37.847 L 1367.694 36.048 L 1363.368 32.152 L 1361.000 26.834 L 1361.000 21.013 L 1363.368 15.694 L 1367.694 11.799 L 1373.231 10.000 L 1379.020 10.609 L 1384.062 13.519 L 1387.484 18.229 L 1388.694 23.923 Z" />
</g>
<g id="part-85">
<path d="M 676.098 66.000 L 696.098 66.000 L 696.098 82.000 L 676.098 82.000 L 676.098 66.000 Z" />
</g>
<g id="part-86">
<path d="M 613.098 66.000 L 626.098 66.000 L 626.098 91.000 L 613.098 91.000 L 613.098 66.000 Z" />
</g>
<g id="part-87">
<path d="M 555.098 66.000 L 585.098 66.000 L 585.098 78.000 L 555.098 78.000 L 555.098 66.000 Z" />
</g>
<g id="part-88">
<path d="M 213.738 66.000 L 236.738 66.000 L 236.738 87.000 L 213.738 87.000 L 213.738 66.000 Z" />
</g>
<g id="part-89">
<path d="M 1265.225 66.000 L 1281.225 66.000 L 1281.225 74.000 L 1265.225 74.000 L 1265.225 66.000 Z" />
</g>
<g id="part-90">
<path d="M 209.000 10.000 L 256.000 10.000 L 256.000 41.000 L 209.000 41.000 L 209.000 10.000 Z" />
<path d="M 224.040 19.920 L 224.040 31.080 L 240.960 31.080 L 240.960 19.920 L 224.040 19.920 Z" fill="#f7f7f2" fill-opacity="1" stroke="#163b5c" />
</g>
<g id="part-91">
<path d="M 10.000 10.000 L 48.000 10.000 L 48.000 64.000 L 10.000 64.000 L 10.000 10.000 Z" />
<path d="M 22.920 19.720 L 22.920 31.600 L 39.640 31.600 L 39.640 19.720 L 22.920 19.720 Z" fill="#f7f7f2" fill-opacity="1" stroke="#163b5c" />
<path d="M 22.920 42.400 L 22.920 54.280 L 39.640 54.280 L 39.640 42.400 L 22.920 42.400 Z" fill="#f7f7f2" fill-opacity="1" stroke="#163b5c" />
</g>
<g id="part-92">
<path d="M 1293.000 10.000 L 1327.000 10.000 L 1327.000 16.160 L 1304.560 16.160 L 1304.560 31.840 L 1327.000 31.840 L 1327.000 38.000 L 1293.000 38.000 L 1293.000 10.000 Z" />
</g>
<g id="part-93">
<path d="M 1180.469 66.000 L 1192.469 70.000 L 1189.109 88.000 L 1183.469 84.040 L 1180.469 66.000 Z" />
</g>
<g id="part-94">
<path d="M 1178.469 69.978 L 1177.258 71.605 L 1173.836 72.951 L 1168.795 73.782 L 1163.005 73.956 L 1157.469 73.442 L 1153.142 72.329 L 1150.774 70.810 L 1150.774 69.146 L 1153.142 67.627 L 1157.469 66.514 L 1163.005 66.000 L 1168.795 66.174 L 1173.836 67.006 L 1177.258 68.351 L 1178.469 69.978 Z" />
</g>
<g id="part-95">
<path d="M 437.389 66.000 L 459.389 66.000 L 459.389 84.000 L 437.389 84.000 L 437.389 66.000 Z" />
</g>
<g id="part-96">
<path d="M 377.389 66.000 L 392.389 66.000 L 392.389 93.000 L 377.389 93.000 L 377.389 66.000 Z" />
</g>
<g id="part-97">
<path d="M 260.738 66.000 L 292.738 66.000 L 292.738 80.000 L 260.738 80.000 L 260.738 66.000 Z" />
</g>
<g id="part-98">
<path d="M 10.000 66.000 L 35.000 66.000 L 35.000 89.000 L 10.000 89.000 L 10.000 66.000 Z" />
</g>
<g id="part-99">
<path d="M 1130.774 66.000 L 1148.774 66.000 L 1148.774 76.000 L 1130.774 76.000 L 1130.774 66.000 Z" />
</g>
</g>
<text x="10" y="20" font-size="14" fill="#222">mixed_100_parts / Fast</text>
</svg>
