<svg xmlns="http://www.w3.org/2000/svg" width="700.000" height="420.000" viewBox="0 0 700.000 420.000">
<rect x="0" y="0" width="700.000" height="420.000" fill="#f7f7f2" />
<g fill="none" stroke="#2a2a2a" stroke-width="1.2">
<path d="M 0.000 0.000 L 700.000 0.000 L 700.000 420.000 L 0.000 420.000 L 0.000 0.000 Z" stroke="#1f5f8b" />
</g>
<g fill="#86b8e7" fill-opacity="0.58" stroke="#163b5c" stroke-width="0.8">
<g id="part-0">
<path d="M 144.328 77.710 L 208.886 91.432 L 206.391 103.170 L 141.833 89.447 L 144.328 77.710 Z" />
</g>
<g id="part-1">
<path d="M 78.979 241.668 L 141.383 263.155 L 137.476 274.502 L 75.072 253.014 L 78.979 241.668 Z" />
</g>
<g id="part-2">
<path d="M 15.246 226.058 L 74.566 254.990 L 69.306 265.776 L 9.985 236.843 L 15.246 226.058 Z" />
</g>
<g id="part-3">
<path d="M 147.560 134.709 L 202.913 170.655 L 196.377 180.719 L 141.025 144.773 L 147.560 134.709 Z" />
</g>
<g id="part-4">
<path d="M 155.634 318.716 L 206.193 361.140 L 198.480 370.332 L 147.921 327.908 L 155.634 318.716 Z" />
</g>
<g id="part-5">
<path d="M 147.453 182.203 L 210.223 202.598 L 206.514 214.011 L 143.745 193.616 L 147.453 182.203 Z" />
</g>
<g id="part-6">
<path d="M 80.203 54.973 L 140.019 82.866 L 134.948 93.742 L 75.131 65.849 L 80.203 54.973 Z" />
</g>
<g id="part-7">
<path d="M 17.275 135.315 L 73.247 170.290 L 66.888 180.467 L 10.916 145.492 L 17.275 135.315 Z" />
</g>
<g id="part-8">
<path d="M 151.297 276.277 L 202.588 317.812 L 195.036 327.138 L 143.745 285.603 L 151.297 276.277 Z" />
</g>
<g id="part-9">
<path d="M 74.330 331.953 L 137.446 351.250 L 133.937 362.726 L 70.821 343.429 L 74.330 331.953 Z" />
</g>
<g id="part-10">
<path d="M 13.121 45.983 L 73.415 72.828 L 68.535 83.790 L 8.241 56.946 L 13.121 45.983 Z" />
</g>
<g id="part-11">
<path d="M 14.180 367.721 L 70.753 401.714 L 64.573 412.000 L 8.000 378.007 L 14.180 367.721 Z" />
</g>
<g id="part-12">
<path d="M 151.133 361.910 L 203.141 402.544 L 195.753 412.000 L 143.745 371.366 L 151.133 361.910 Z" />
</g>
<g id="part-13">
<path d="M 145.058 244.393 L 208.502 262.586 L 205.194 274.121 L 141.751 255.929 L 145.058 244.393 Z" />
</g>
<g id="part-14">
<path d="M 79.577 93.263 L 140.330 119.052 L 135.641 130.098 L 74.888 104.309 L 79.577 93.263 Z" />
</g>
<g id="part-15">
<path d="M 14.000 180.423 L 71.158 213.423 L 65.158 223.816 L 8.000 190.816 L 14.000 180.423 Z" />
</g>
<g id="part-16">
<path d="M 15.222 88.351 L 67.932 128.071 L 60.710 137.655 L 8.000 97.935 L 15.222 88.351 Z" />
</g>
<g id="part-17">
<path d="M 77.994 132.098 L 141.745 149.180 L 138.639 160.771 L 74.888 143.689 L 77.994 132.098 Z" />
</g>
<g id="part-18">
<path d="M 148.899 211.355 L 210.093 236.079 L 205.598 247.205 L 144.404 222.481 L 148.899 211.355 Z" />
</g>
<g id="part-19">
<path d="M 80.705 162.771 L 138.430 194.768 L 132.613 205.264 L 74.888 173.266 L 80.705 162.771 Z" />
</g>
<g id="part-20">
<path d="M 15.053 267.534 L 68.449 306.327 L 61.395 316.036 L 8.000 277.242 L 15.053 267.534 Z" />
</g>
<g id="part-21">
<path d="M 146.322 105.082 L 210.334 121.161 L 207.410 132.799 L 143.399 116.720 L 146.322 105.082 Z" />
</g>
<g id="part-22">
<path d="M 79.188 377.145 L 140.804 400.797 L 136.504 412.000 L 74.888 388.348 L 79.188 377.145 Z" />
</g>
<g id="part-23">
<path d="M 80.521 279.948 L 138.796 310.933 L 133.162 321.528 L 74.888 290.543 L 80.521 279.948 Z" />
</g>
<g id="part-24">
<path d="M 14.883 318.036 L 68.947 355.892 L 62.064 365.721 L 8.000 327.865 L 14.883 318.036 Z" />
</g>
<g id="part-25">
<path d="M 77.239 210.411 L 141.547 225.258 L 138.848 236.950 L 74.539 222.103 L 77.239 210.411 Z" />
</g>
</g>
<text x="10" y="20" font-size="14" fill="#222">rotation_precision_required / Balanced</text>
</svg>
