<svg xmlns="http://www.w3.org/2000/svg" width="700.000" height="420.000" viewBox="0 0 700.000 420.000">
<rect x="0" y="0" width="700.000" height="420.000" fill="#f7f7f2" />
<g fill="none" stroke="#2a2a2a" stroke-width="1.2">
<path d="M 0.000 0.000 L 700.000 0.000 L 700.000 420.000 L 0.000 420.000 L 0.000 0.000 Z" stroke="#1f5f8b" />
</g>
<g fill="#86b8e7" fill-opacity="0.58" stroke="#163b5c" stroke-width="0.8">
<g id="part-0">
<path d="M 148.440 101.103 L 209.521 126.104 L 204.976 137.210 L 143.894 112.209 L 148.440 101.103 Z" />
</g>
<g id="part-1">
<path d="M 78.484 243.606 L 140.888 265.093 L 136.981 276.439 L 74.577 254.952 L 78.484 243.606 Z" />
</g>
<g id="part-2">
<path d="M 13.260 225.816 L 72.581 254.748 L 67.320 265.534 L 8.000 236.601 L 13.260 225.816 Z" />
</g>
<g id="part-3">
<path d="M 150.280 134.193 L 205.633 170.139 L 199.097 180.203 L 143.745 144.257 L 150.280 134.193 Z" />
</g>
<g id="part-4">
<path d="M 82.601 323.528 L 133.160 365.952 L 125.447 375.145 L 74.888 332.721 L 82.601 323.528 Z" />
</g>
<g id="part-5">
<path d="M 147.140 191.907 L 209.469 213.612 L 205.522 224.945 L 143.193 203.239 L 147.140 191.907 Z" />
</g>
<g id="part-6">
<path d="M 13.071 139.655 L 72.888 167.548 L 67.816 178.423 L 8.000 150.530 L 13.071 139.655 Z" />
</g>
<g id="part-7">
<path d="M 14.359 41.200 L 70.330 76.175 L 63.971 86.351 L 8.000 51.377 L 14.359 41.200 Z" />
</g>
<g id="part-8">
<path d="M 151.297 276.277 L 202.588 317.812 L 195.036 327.138 L 143.745 285.603 L 151.297 276.277 Z" />
</g>
<g id="part-9">
<path d="M 146.012 334.140 L 208.782 354.535 L 205.073 365.948 L 142.304 345.553 L 146.012 334.140 Z" />
</g>
<g id="part-10">
<path d="M 79.769 53.456 L 140.063 80.301 L 135.182 91.263 L 74.888 64.419 L 79.769 53.456 Z" />
</g>
<g id="part-11">
<path d="M 14.180 367.721 L 70.753 401.714 L 64.573 412.000 L 8.000 378.007 L 14.180 367.721 Z" />
</g>
<g id="part-12">
<path d="M 151.133 361.910 L 203.141 402.544 L 195.753 412.000 L 143.745 371.366 L 151.133 361.910 Z" />
</g>
<g id="part-13">
<path d="M 144.817 246.467 L 207.933 265.763 L 204.424 277.239 L 141.308 257.942 L 144.817 246.467 Z" />
</g>
<g id="part-14">
<path d="M 79.577 93.263 L 140.330 119.052 L 135.641 130.098 L 74.888 104.309 L 79.577 93.263 Z" />
</g>
<g id="part-15">
<path d="M 14.000 180.423 L 71.158 213.423 L 65.158 223.816 L 8.000 190.816 L 14.000 180.423 Z" />
</g>
<g id="part-16">
<path d="M 15.222 88.351 L 67.932 128.071 L 60.710 137.655 L 8.000 97.935 L 15.222 88.351 Z" />
</g>
<g id="part-17">
<path d="M 77.994 132.098 L 141.745 149.180 L 138.639 160.771 L 74.888 143.689 L 77.994 132.098 Z" />
</g>
<g id="part-18">
<path d="M 76.512 206.158 L 137.266 231.946 L 132.577 242.992 L 71.824 217.204 L 76.512 206.158 Z" />
</g>
<g id="part-19">
<path d="M 77.568 164.752 L 134.726 197.752 L 128.726 208.144 L 71.568 175.144 L 77.568 164.752 Z" />
</g>
<g id="part-20">
<path d="M 15.053 267.534 L 68.449 306.327 L 61.395 316.036 L 8.000 277.242 L 15.053 267.534 Z" />
</g>
<g id="part-21">
<path d="M 141.407 84.802 L 205.418 100.881 L 202.495 112.519 L 138.483 96.441 L 141.407 84.802 Z" />
</g>
<g id="part-22">
<path d="M 79.188 377.145 L 140.804 400.797 L 136.504 412.000 L 74.888 388.348 L 79.188 377.145 Z" />
</g>
<g id="part-23">
<path d="M 80.521 279.948 L 138.796 310.933 L 133.162 321.528 L 74.888 290.543 L 80.521 279.948 Z" />
</g>
<g id="part-24">
<path d="M 14.883 318.036 L 68.947 355.892 L 62.064 365.721 L 8.000 327.865 L 14.883 318.036 Z" />
</g>
<g id="part-25">
<path d="M 142.156 217.897 L 206.196 233.863 L 203.293 245.507 L 139.253 229.540 L 142.156 217.897 Z" />
</g>
</g>
<text x="10" y="20" font-size="14" fill="#222">rotation_precision_required / Maximum</text>
</svg>
