<svg xmlns="http://www.w3.org/2000/svg" width="700.000" height="420.000" viewBox="0 0 700.000 420.000">
<rect x="0" y="0" width="700.000" height="420.000" fill="#f7f7f2" />
<g fill="none" stroke="#2a2a2a" stroke-width="1.2">
<path d="M 0.000 0.000 L 700.000 0.000 L 700.000 420.000 L 0.000 420.000 L 0.000 0.000 Z" stroke="#1f5f8b" />
</g>
<g fill="#86b8e7" fill-opacity="0.58" stroke="#163b5c" stroke-width="0.8">
<g id="part-0">
<path d="M 33.460 10.495 L 19.738 75.053 L 8.000 72.558 L 21.722 8.000 L 33.460 10.495 Z" />
</g>
<g id="part-1">
<path d="M 143.861 11.907 L 122.374 74.311 L 111.027 70.404 L 132.515 8.000 L 143.861 11.907 Z" />
</g>
<g id="part-2">
<path d="M 243.851 13.260 L 214.918 72.581 L 204.133 67.320 L 233.065 8.000 L 243.851 13.260 Z" />
</g>
<g id="part-3">
<path d="M 103.582 82.932 L 67.636 138.284 L 57.572 131.749 L 93.518 76.396 L 103.582 82.932 Z" />
</g>
<g id="part-4">
<path d="M 218.406 83.126 L 175.982 133.684 L 166.790 125.971 L 209.214 75.412 L 218.406 83.126 Z" />
</g>
<g id="part-5">
<path d="M 127.731 11.708 L 107.335 74.478 L 95.923 70.770 L 116.318 8.000 L 127.731 11.708 Z" />
</g>
<g id="part-6">
<path d="M 227.070 13.071 L 199.178 72.888 L 188.302 67.816 L 216.195 8.000 L 227.070 13.071 Z" />
</g>
<g id="part-7">
<path d="M 85.760 82.755 L 50.785 138.727 L 40.608 132.368 L 75.583 76.396 L 85.760 82.755 Z" />
</g>
<g id="part-8">
<path d="M 198.915 82.964 L 157.380 134.256 L 148.054 126.704 L 189.589 75.412 L 198.915 82.964 Z" />
</g>
<g id="part-9">
<path d="M 111.641 11.508 L 92.345 74.625 L 80.869 71.116 L 100.166 8.000 L 111.641 11.508 Z" />
</g>
<g id="part-10">
<path d="M 210.255 12.881 L 183.410 73.175 L 172.448 68.294 L 199.292 8.000 L 210.255 12.881 Z" />
</g>
<g id="part-11">
<path d="M 68.468 81.921 L 34.475 138.494 L 24.189 132.313 L 58.182 75.740 L 68.468 81.921 Z" />
</g>
<g id="part-12">
<path d="M 179.523 83.128 L 138.889 135.137 L 129.433 127.749 L 170.067 75.740 L 179.523 83.128 Z" />
</g>
<g id="part-13">
<path d="M 66.205 71.443 L 84.397 8.000 L 95.932 11.308 L 77.740 74.751 L 66.205 71.443 Z" />
</g>
<g id="part-14">
<path d="M 193.745 12.689 L 167.956 73.442 L 156.910 68.753 L 182.699 8.000 L 193.745 12.689 Z" />
</g>
<g id="part-15">
<path d="M 51.392 81.084 L 18.392 138.242 L 8.000 132.242 L 41.000 75.084 L 51.392 81.084 Z" />
</g>
<g id="part-16">
<path d="M 160.574 82.962 L 120.854 135.672 L 111.270 128.450 L 150.990 75.740 L 160.574 82.962 Z" />
</g>
<g id="part-17">
<path d="M 80.283 11.106 L 63.201 74.857 L 51.610 71.751 L 68.692 8.000 L 80.283 11.106 Z" />
</g>
<g id="part-18">
<path d="M 177.223 12.495 L 152.499 73.689 L 141.373 69.194 L 166.097 8.000 L 177.223 12.495 Z" />
</g>
<g id="part-19">
<path d="M 279.096 13.818 L 247.099 71.543 L 236.603 65.725 L 268.601 8.000 L 279.096 13.818 Z" />
</g>
<g id="part-20">
<path d="M 141.755 82.794 L 102.961 136.189 L 93.253 129.135 L 132.046 75.740 L 141.755 82.794 Z" />
</g>
<g id="part-21">
<path d="M 64.703 10.903 L 48.736 74.943 L 37.093 72.040 L 53.060 8.000 L 64.703 10.903 Z" />
</g>
<g id="part-22">
<path d="M 161.029 12.300 L 137.377 73.917 L 126.174 69.616 L 149.826 8.000 L 161.029 12.300 Z" />
</g>
<g id="part-23">
<path d="M 261.838 13.634 L 230.852 71.908 L 220.257 66.275 L 251.242 8.000 L 261.838 13.634 Z" />
</g>
<g id="part-24">
<path d="M 123.081 82.951 L 85.225 137.015 L 75.395 130.132 L 113.251 76.068 L 123.081 82.951 Z" />
</g>
<g id="part-25">
<path d="M 49.202 10.699 L 34.356 75.008 L 22.663 72.308 L 37.510 8.000 L 49.202 10.699 Z" />
</g>
</g>
<text x="10" y="20" font-size="14" fill="#222">rotation_precision_required / Fast</text>
</svg>
