<svg xmlns="http://www.w3.org/2000/svg" width="700.000" height="420.000" viewBox="0 0 700.000 420.000">
<rect x="0" y="0" width="700.000" height="420.000" fill="#f7f7f2" />
<g fill="none" stroke="#2a2a2a" stroke-width="1.2">
<path d="M 0.000 0.000 L 700.000 0.000 L 700.000 420.000 L 0.000 420.000 L 0.000 0.000 Z" stroke="#1f5f8b" />
</g>
<g fill="#86b8e7" fill-opacity="0.58" stroke="#163b5c" stroke-width="0.8">
<g id="part-0">
<path d="M 33.460 10.495 L 19.738 75.053 L 8.000 72.558 L 21.722 8.000 L 33.460 10.495 Z" />
</g>
<g id="part-1">
<path d="M 255.424 11.907 L 233.936 74.311 L 222.590 70.404 L 244.077 8.000 L 255.424 11.907 Z" />
</g>
<g id="part-2">
<path d="M 491.257 13.260 L 462.325 72.581 L 451.539 67.320 L 480.472 8.000 L 491.257 13.260 Z" />
</g>
<g id="part-3">
<path d="M 101.161 83.588 L 65.215 138.941 L 55.151 132.405 L 91.097 77.053 L 101.161 83.588 Z" />
</g>
<g id="part-4">
<path d="M 411.220 84.766 L 368.796 135.325 L 359.603 127.612 L 402.027 77.053 L 411.220 84.766 Z" />
</g>
<g id="part-5">
<path d="M 220.590 11.708 L 200.195 74.478 L 188.782 70.770 L 209.177 8.000 L 220.590 11.708 Z" />
</g>
<g id="part-6">
<path d="M 449.539 13.071 L 421.646 72.888 L 410.771 67.816 L 438.663 8.000 L 449.539 13.071 Z" />
</g>
<g id="part-7">
<path d="M 53.151 83.412 L 18.177 139.383 L 8.000 133.024 L 42.975 77.053 L 53.151 83.412 Z" />
</g>
<g id="part-8">
<path d="M 357.603 84.605 L 316.068 135.896 L 306.743 128.344 L 348.278 77.053 L 357.603 84.605 Z" />
</g>
<g id="part-9">
<path d="M 186.782 11.508 L 167.486 74.625 L 156.010 71.116 L 175.306 8.000 L 186.782 11.508 Z" />
</g>
<g id="part-10">
<path d="M 408.771 12.881 L 381.926 73.175 L 370.963 68.294 L 397.808 8.000 L 408.771 12.881 Z" />
</g>
<g id="part-11">
<path d="M 658.401 14.180 L 624.409 70.753 L 614.123 64.573 L 648.115 8.000 L 658.401 14.180 Z" />
</g>
<g id="part-12">
<path d="M 304.743 84.441 L 264.109 136.449 L 254.653 129.061 L 295.286 77.053 L 304.743 84.441 Z" />
</g>
<g id="part-13">
<path d="M 124.283 71.443 L 142.475 8.000 L 154.010 11.308 L 135.818 74.751 L 124.283 71.443 Z" />
</g>
<g id="part-14">
<path d="M 368.963 12.689 L 343.175 73.442 L 332.129 68.753 L 357.917 8.000 L 368.963 12.689 Z" />
</g>
<g id="part-15">
<path d="M 624.723 14.000 L 591.723 71.158 L 581.330 65.158 L 614.330 8.000 L 624.723 14.000 Z" />
</g>
<g id="part-16">
<path d="M 252.653 84.274 L 212.933 136.984 L 203.349 129.763 L 243.069 77.053 L 252.653 84.274 Z" />
</g>
<g id="part-17">
<path d="M 122.283 11.106 L 105.201 74.857 L 93.610 71.751 L 110.692 8.000 L 122.283 11.106 Z" />
</g>
<g id="part-18">
<path d="M 330.129 12.495 L 305.405 73.689 L 294.279 69.194 L 319.003 8.000 L 330.129 12.495 Z" />
</g>
<g id="part-19">
<path d="M 579.330 13.818 L 547.333 71.543 L 536.838 65.725 L 568.835 8.000 L 579.330 13.818 Z" />
</g>
<g id="part-20">
<path d="M 201.349 84.106 L 162.556 137.501 L 152.847 130.448 L 191.641 77.053 L 201.349 84.106 Z" />
</g>
<g id="part-21">
<path d="M 91.610 10.903 L 75.643 74.943 L 63.999 72.040 L 79.966 8.000 L 91.610 10.903 Z" />
</g>
<g id="part-22">
<path d="M 292.279 12.300 L 268.627 73.917 L 257.424 69.616 L 281.076 8.000 L 292.279 12.300 Z" />
</g>
<g id="part-23">
<path d="M 534.838 13.634 L 503.852 71.908 L 493.257 66.275 L 524.242 8.000 L 534.838 13.634 Z" />
</g>
<g id="part-24">
<path d="M 150.847 83.936 L 112.991 138.000 L 103.161 131.117 L 141.018 77.053 L 150.847 83.936 Z" />
</g>
<g id="part-25">
<path d="M 61.999 10.699 L 47.152 75.008 L 35.460 72.308 L 50.307 8.000 L 61.999 10.699 Z" />
</g>
</g>
<text x="10" y="20" font-size="14" fill="#222">rotation_precision_required / Fast</text>
</svg>
