<svg xmlns="http://www.w3.org/2000/svg" width="700.000" height="420.000" viewBox="0 0 700.000 420.000">
<rect x="0" y="0" width="700.000" height="420.000" fill="#f7f7f2" />
<g fill="none" stroke="#2a2a2a" stroke-width="1.2">
<path d="M 0.000 0.000 L 700.000 0.000 L 700.000 420.000 L 0.000 420.000 L 0.000 0.000 Z" stroke="#1f5f8b" />
</g>
<g fill="#86b8e7" fill-opacity="0.58" stroke="#163b5c" stroke-width="0.8">
<g id="part-0">
<path d="M 52.508 61.378 L 117.065 75.100 L 114.570 86.838 L 50.013 73.116 L 52.508 61.378 Z" />
</g>
<g id="part-1">
<path d="M 125.340 204.955 L 187.744 226.443 L 183.838 237.789 L 121.433 216.301 L 125.340 204.955 Z" />
</g>
<g id="part-2">
<path d="M 13.260 225.816 L 72.581 254.748 L 67.320 265.534 L 8.000 236.601 L 13.260 225.816 Z" />
</g>
<g id="part-3">
<path d="M 150.280 134.193 L 205.633 170.139 L 199.097 180.203 L 143.745 144.257 L 150.280 134.193 Z" />
</g>
<g id="part-4">
<path d="M 155.697 233.605 L 206.256 276.029 L 198.543 285.222 L 147.984 242.798 L 155.697 233.605 Z" />
</g>
<g id="part-5">
<path d="M 78.202 244.119 L 140.971 264.514 L 137.263 275.927 L 74.493 255.531 L 78.202 244.119 Z" />
</g>
<g id="part-6">
<path d="M 13.071 139.655 L 72.888 167.548 L 67.816 178.423 L 8.000 150.530 L 13.071 139.655 Z" />
</g>
<g id="part-7">
<path d="M 17.962 64.928 L 73.933 99.903 L 67.574 110.079 L 11.603 75.105 L 17.962 64.928 Z" />
</g>
<g id="part-8">
<path d="M 147.681 300.003 L 198.973 341.538 L 191.421 350.864 L 140.129 309.329 L 147.681 300.003 Z" />
</g>
<g id="part-9">
<path d="M 123.293 330.529 L 186.410 349.826 L 182.901 361.301 L 119.785 342.005 L 123.293 330.529 Z" />
</g>
<g id="part-10">
<path d="M 151.384 92.526 L 211.678 119.371 L 206.797 130.334 L 146.503 103.489 L 151.384 92.526 Z" />
</g>
<g id="part-11">
<path d="M 18.949 344.200 L 75.522 378.192 L 69.341 388.478 L 12.768 354.486 L 18.949 344.200 Z" />
</g>
<g id="part-12">
<path d="M 151.133 361.910 L 203.141 402.544 L 195.753 412.000 L 143.745 371.366 L 151.133 361.910 Z" />
</g>
<g id="part-13">
<path d="M 73.956 334.473 L 137.399 352.665 L 134.092 364.200 L 70.648 346.008 L 73.956 334.473 Z" />
</g>
<g id="part-14">
<path d="M 79.577 93.263 L 140.330 119.052 L 135.641 130.098 L 74.888 104.309 L 79.577 93.263 Z" />
</g>
<g id="part-15">
<path d="M 14.000 180.423 L 71.158 213.423 L 65.158 223.816 L 8.000 190.816 L 14.000 180.423 Z" />
</g>
<g id="part-16">
<path d="M 15.222 88.351 L 67.932 128.071 L 60.710 137.655 L 8.000 97.935 L 15.222 88.351 Z" />
</g>
<g id="part-17">
<path d="M 77.994 132.098 L 141.745 149.180 L 138.639 160.771 L 74.888 143.689 L 77.994 132.098 Z" />
</g>
<g id="part-18">
<path d="M 79.694 205.756 L 140.888 230.480 L 136.393 241.606 L 75.199 216.882 L 79.694 205.756 Z" />
</g>
<g id="part-19">
<path d="M 80.705 162.771 L 138.430 194.768 L 132.613 205.264 L 74.888 173.266 L 80.705 162.771 Z" />
</g>
<g id="part-20">
<path d="M 15.053 267.534 L 68.449 306.327 L 61.395 316.036 L 8.000 277.242 L 15.053 267.534 Z" />
</g>
<g id="part-21">
<path d="M 143.553 76.047 L 207.592 92.014 L 204.689 103.658 L 140.650 87.691 L 143.553 76.047 Z" />
</g>
<g id="part-22">
<path d="M 86.770 359.314 L 148.386 382.967 L 144.086 394.170 L 82.469 370.517 L 86.770 359.314 Z" />
</g>
<g id="part-23">
<path d="M 80.521 279.948 L 138.796 310.933 L 133.162 321.528 L 74.888 290.543 L 80.521 279.948 Z" />
</g>
<g id="part-24">
<path d="M 14.883 318.036 L 68.947 355.892 L 62.064 365.721 L 8.000 327.865 L 14.883 318.036 Z" />
</g>
<g id="part-25">
<path d="M 146.179 184.837 L 210.488 199.684 L 207.788 211.376 L 143.480 196.530 L 146.179 184.837 Z" />
</g>
</g>
<text x="10" y="20" font-size="14" fill="#222">rotation_precision_required / Maximum</text>
</svg>
