<svg xmlns="http://www.w3.org/2000/svg" width="700.000" height="420.000" viewBox="0 0 700.000 420.000">
<rect x="0" y="0" width="700.000" height="420.000" fill="#f7f7f2" />
<g fill="none" stroke="#2a2a2a" stroke-width="1.2">
<path d="M 0.000 0.000 L 700.000 0.000 L 700.000 420.000 L 0.000 420.000 L 0.000 0.000 Z" stroke="#1f5f8b" />
</g>
<g fill="#86b8e7" fill-opacity="0.58" stroke="#163b5c" stroke-width="0.8">
<g id="part-0">
<path d="M 33.460 10.495 L 19.738 75.053 L 8.000 72.558 L 21.722 8.000 L 33.460 10.495 Z" />
</g>
<g id="part-1">
<path d="M 143.861 11.907 L 122.374 74.311 L 111.027 70.404 L 132.515 8.000 L 143.861 11.907 Z" />
</g>
<g id="part-2">
<path d="M 243.851 13.260 L 214.918 72.581 L 204.133 67.320 L 233.065 8.000 L 243.851 13.260 Z" />
</g>
<g id="part-3">
<path d="M 119.856 83.260 L 83.910 138.612 L 73.846 132.077 L 109.792 76.725 L 119.856 83.260 Z" />
</g>
<g id="part-4">
<path d="M 234.681 83.454 L 192.257 134.013 L 183.064 126.299 L 225.488 75.740 L 234.681 83.454 Z" />
</g>
<g id="part-5">
<path d="M 127.731 11.708 L 107.335 74.478 L 95.923 70.770 L 116.318 8.000 L 127.731 11.708 Z" />
</g>
<g id="part-6">
<path d="M 227.070 13.071 L 199.178 72.888 L 188.302 67.816 L 216.195 8.000 L 227.070 13.071 Z" />
</g>
<g id="part-7">
<path d="M 102.034 83.084 L 67.059 139.055 L 56.882 132.696 L 91.857 76.725 L 102.034 83.084 Z" />
</g>
<g id="part-8">
<path d="M 215.189 83.292 L 173.654 134.584 L 164.328 127.032 L 205.863 75.740 L 215.189 83.292 Z" />
</g>
<g id="part-9">
<path d="M 111.641 11.508 L 92.345 74.625 L 80.869 71.116 L 100.166 8.000 L 111.641 11.508 Z" />
</g>
<g id="part-10">
<path d="M 210.255 12.881 L 183.410 73.175 L 172.448 68.294 L 199.292 8.000 L 210.255 12.881 Z" />
</g>
<g id="part-11">
<path d="M 84.742 82.249 L 50.749 138.822 L 40.463 132.641 L 74.456 76.068 L 84.742 82.249 Z" />
</g>
<g id="part-12">
<path d="M 195.797 83.456 L 155.163 135.465 L 145.707 128.077 L 186.341 76.068 L 195.797 83.456 Z" />
</g>
<g id="part-13">
<path d="M 66.205 71.443 L 84.397 8.000 L 95.932 11.308 L 77.740 74.751 L 66.205 71.443 Z" />
</g>
<g id="part-14">
<path d="M 193.745 12.689 L 167.956 73.442 L 156.910 68.753 L 182.699 8.000 L 193.745 12.689 Z" />
</g>
<g id="part-15">
<path d="M 67.666 81.412 L 34.666 138.570 L 24.274 132.570 L 57.274 75.412 L 67.666 81.412 Z" />
</g>
<g id="part-16">
<path d="M 176.848 83.290 L 137.128 136.000 L 127.544 128.778 L 167.264 76.068 L 176.848 83.290 Z" />
</g>
<g id="part-17">
<path d="M 80.283 11.106 L 63.201 74.857 L 51.610 71.751 L 68.692 8.000 L 80.283 11.106 Z" />
</g>
<g id="part-18">
<path d="M 177.223 12.495 L 152.499 73.689 L 141.373 69.194 L 166.097 8.000 L 177.223 12.495 Z" />
</g>
<g id="part-19">
<path d="M 50.493 80.902 L 18.495 138.627 L 8.000 132.809 L 39.997 75.084 L 50.493 80.902 Z" />
</g>
<g id="part-20">
<path d="M 158.029 83.122 L 119.235 136.517 L 109.527 129.463 L 148.320 76.068 L 158.029 83.122 Z" />
</g>
<g id="part-21">
<path d="M 64.703 10.903 L 48.736 74.943 L 37.093 72.040 L 53.060 8.000 L 64.703 10.903 Z" />
</g>
<g id="part-22">
<path d="M 161.029 12.300 L 137.377 73.917 L 126.174 69.616 L 149.826 8.000 L 161.029 12.300 Z" />
</g>
<g id="part-23">
<path d="M 252.195 80.480 L 221.210 138.755 L 210.614 133.121 L 241.599 74.847 L 252.195 80.480 Z" />
</g>
<g id="part-24">
<path d="M 139.355 83.279 L 101.499 137.343 L 91.669 130.460 L 129.525 76.396 L 139.355 83.279 Z" />
</g>
<g id="part-25">
<path d="M 49.202 10.699 L 34.356 75.008 L 22.663 72.308 L 37.510 8.000 L 49.202 10.699 Z" />
</g>
</g>
<text x="10" y="20" font-size="14" fill="#222">rotation_precision_required / Maximum</text>
</svg>
