<svg xmlns="http://www.w3.org/2000/svg" width="700.000" height="420.000" viewBox="0 0 700.000 420.000">
<rect x="0" y="0" width="700.000" height="420.000" fill="#f7f7f2" />
<g fill="none" stroke="#2a2a2a" stroke-width="1.2">
<path d="M 0.000 0.000 L 700.000 0.000 L 700.000 420.000 L 0.000 420.000 L 0.000 0.000 Z" stroke="#1f5f8b" />
</g>
<g fill="#86b8e7" fill-opacity="0.58" stroke="#163b5c" stroke-width="0.8">
<g id="part-0">
<path d="M 381.031 222.730 L 316.474 209.008 L 318.969 197.270 L 383.526 210.992 L 381.031 222.730 Z" />
</g>
<g id="part-1">
<path d="M 461.283 213.305 L 439.796 275.709 L 428.449 271.803 L 449.937 209.398 L 461.283 213.305 Z" />
</g>
<g id="part-2">
<path d="M 400.972 278.346 L 460.292 307.279 L 455.032 318.065 L 395.711 289.132 L 400.972 278.346 Z" />
</g>
<g id="part-3">
<path d="M 316.424 292.428 L 371.777 328.374 L 365.241 338.438 L 309.889 302.492 L 316.424 292.428 Z" />
</g>
<g id="part-4">
<path d="M 371.423 276.346 L 320.864 233.923 L 328.577 224.730 L 379.136 267.154 L 371.423 276.346 Z" />
</g>
<g id="part-5">
<path d="M 320.469 133.852 L 383.239 154.247 L 379.531 165.660 L 316.761 145.265 L 320.469 133.852 Z" />
</g>
<g id="part-6">
<path d="M 375.872 56.799 L 316.055 28.906 L 321.127 18.030 L 380.943 45.923 L 375.872 56.799 Z" />
</g>
<g id="part-7">
<path d="M 325.194 366.849 L 381.165 401.823 L 374.806 412.000 L 318.835 377.025 L 325.194 366.849 Z" />
</g>
<g id="part-8">
<path d="M 328.577 86.659 L 379.136 129.083 L 371.423 138.276 L 320.864 95.852 L 328.577 86.659 Z" />
</g>
<g id="part-9">
<path d="M 410.859 144.373 L 391.562 207.490 L 380.087 203.981 L 399.383 140.865 L 410.859 144.373 Z" />
</g>
<g id="part-10">
<path d="M 422.251 71.558 L 395.406 131.852 L 384.444 126.971 L 411.288 66.677 L 422.251 71.558 Z" />
</g>
<g id="part-11">
<path d="M 365.678 20.398 L 422.251 54.391 L 416.071 64.677 L 359.498 30.684 L 365.678 20.398 Z" />
</g>
<g id="part-12">
<path d="M 433.255 359.991 L 392.621 412.000 L 383.165 404.612 L 423.799 352.603 L 433.255 359.991 Z" />
</g>
<g id="part-13">
<path d="M 425.439 212.903 L 407.247 276.346 L 395.711 273.039 L 413.903 209.596 L 425.439 212.903 Z" />
</g>
<g id="part-14">
<path d="M 442.175 51.848 L 381.422 26.059 L 386.111 15.013 L 446.864 40.802 L 442.175 51.848 Z" />
</g>
<g id="part-15">
<path d="M 417.169 335.650 L 384.169 392.808 L 373.777 386.808 L 406.777 329.650 L 417.169 335.650 Z" />
</g>
<g id="part-16">
<path d="M 418.217 327.650 L 365.507 287.930 L 372.729 278.346 L 425.439 318.066 L 418.217 327.650 Z" />
</g>
<g id="part-17">
<path d="M 409.809 212.595 L 392.727 276.346 L 381.136 273.241 L 398.218 209.490 L 409.809 212.595 Z" />
</g>
<g id="part-18">
<path d="M 321.651 55.233 L 382.845 79.957 L 378.349 91.083 L 317.155 66.359 L 321.651 55.233 Z" />
</g>
<g id="part-19">
<path d="M 375.954 371.341 L 318.229 339.344 L 324.046 328.849 L 381.771 360.846 L 375.954 371.341 Z" />
</g>
<g id="part-20">
<path d="M 373.171 326.849 L 319.776 288.055 L 326.829 278.346 L 380.224 317.140 L 373.171 326.849 Z" />
</g>
<g id="part-21">
<path d="M 380.568 195.270 L 316.529 179.303 L 319.432 167.660 L 383.471 183.626 L 380.568 195.270 Z" />
</g>
<g id="part-22">
<path d="M 445.654 213.987 L 422.002 275.603 L 410.799 271.303 L 434.451 209.687 L 445.654 213.987 Z" />
</g>
<g id="part-23">
<path d="M 313.502 340.438 L 371.777 371.424 L 366.143 382.019 L 307.868 351.034 L 313.502 340.438 Z" />
</g>
<g id="part-24">
<path d="M 449.971 84.801 L 412.115 138.865 L 402.286 131.982 L 440.142 77.918 L 449.971 84.801 Z" />
</g>
<g id="part-25">
<path d="M 439.398 143.564 L 424.551 207.873 L 412.859 205.173 L 427.706 140.865 L 439.398 143.564 Z" />
</g>
</g>
<text x="10" y="20" font-size="14" fill="#222">rotation_precision_required / Maximum</text>
</svg>
