<svg xmlns="http://www.w3.org/2000/svg" width="520" height="300" viewBox="0 0 520 300">
<g fill="none" stroke="black" stroke-width="1">
<path d="M 20 20 L 140 20 L 140 230 L 20 230 Z M 60.8 57.8 L 60.8 104 L 113.6 104 L 113.6 57.8 Z M 60.8 146 L 60.8 192.2 L 113.6 192.2 L 113.6 146 Z" />
<rect x="190" y="28" width="14" height="15" />
<rect x="222" y="28" width="15" height="16" />
<rect x="254" y="28" width="16" height="14" />
<rect x="286" y="28" width="17" height="15" />
<rect x="190" y="70" width="14" height="16" />
<rect x="222" y="70" width="15" height="14" />
<rect x="254" y="70" width="16" height="15" />
<rect x="286" y="70" width="17" height="16" />
<rect x="190" y="112" width="14" height="14" />
<rect x="222" y="112" width="15" height="15" />
<rect x="254" y="112" width="16" height="16" />
<rect x="286" y="112" width="17" height="14" />
</g>
</svg>

