<svg xmlns="http://www.w3.org/2000/svg" width="560" height="270" viewBox="0 0 560 270">
<g fill="none" stroke="black" stroke-width="1">
<polygon points="20,20 200,20 200,57.4 81.2,57.4 81.2,152.6 200,152.6 200,190 20,190" />
<rect x="250" y="28" width="15" height="13" />
<rect x="284" y="28" width="17" height="16" />
<rect x="318" y="28" width="19" height="13" />
<rect x="352" y="28" width="15" height="16" />
<rect x="250" y="66" width="17" height="13" />
<rect x="284" y="66" width="19" height="16" />
<rect x="318" y="66" width="15" height="13" />
<rect x="352" y="66" width="17" height="16" />
<rect x="250" y="104" width="19" height="13" />
<rect x="284" y="104" width="15" height="16" />
<rect x="318" y="104" width="17" height="13" />
<rect x="352" y="104" width="19" height="16" />
</g>
</svg>

