<svg xmlns="http://www.w3.org/2000/svg" width="900" height="620" viewBox="0 0 900 620">
<g fill="none" stroke="black" stroke-width="1">
<path d="M 20 20 L 55 20 L 55 53 L 20 53 Z M 31.2 30.56 L 31.2 42.44 L 43.8 42.44 L 43.8 30.56 Z" />
<path d="M 115 20 L 141 20 L 141 76 L 115 76 Z M 123.84 30.08 L 123.84 42.4 L 135.28 42.4 L 135.28 30.08 Z M 123.84 53.6 L 123.84 65.92 L 135.28 65.92 L 135.28 53.6 Z" />
<polygon points="210,20 256,20 256,26.38 225.64,26.38 225.64,42.62 256,42.62 256,49 210,49" />
<polygon points="305,20 329,24 322.28,44 308,39.68" />
<ellipse cx="408.5" cy="25.5" rx="8" ry="6" />
<rect x="495" y="20" width="10" height="20" />
<rect x="590" y="20" width="27" height="29" />
<rect x="685" y="20" width="20" height="16" />
<rect x="780" y="20" width="13" height="25" />
<rect x="20" y="84" width="30" height="12" />
<path d="M 115 84 L 152 84 L 152 119 L 115 119 Z M 126.84 95.2 L 126.84 107.8 L 140.16 107.8 L 140.16 95.2 Z" />
<path d="M 210 84 L 238 84 L 238 126 L 210 126 Z M 219.52 91.56 L 219.52 100.8 L 231.84 100.8 L 231.84 91.56 Z M 219.52 109.2 L 219.52 118.44 L 231.84 118.44 L 231.84 109.2 Z" />
<polygon points="305,84 353,84 353,90.82 321.32,90.82 321.32,108.18 353,108.18 353,115 305,115" />
<polygon points="400,84 426,88 418.72,110 403,105.32" />
<ellipse cx="504.5" cy="90.5" rx="10" ry="6" />
<rect x="590" y="84" width="12" height="22" />
<rect x="685" y="84" width="29" height="9" />
<rect x="780" y="84" width="22" height="18" />
<rect x="20" y="148" width="15" height="27" />
<rect x="115" y="148" width="32" height="14" />
<path d="M 210 148 L 249 148 L 249 185 L 210 185 Z M 222.48 159.84 L 222.48 173.16 L 236.52 173.16 L 236.52 159.84 Z" />
<path d="M 305 148 L 335 148 L 335 190 L 305 190 Z M 315.2 155.56 L 315.2 164.8 L 328.4 164.8 L 328.4 155.56 Z M 315.2 173.2 L 315.2 182.44 L 328.4 182.44 L 328.4 173.2 Z" />
<polygon points="400,148 426,148 426,155.26 408.84,155.26 408.84,173.74 426,173.74 426,181 400,181" />
<polygon points="495,148 523,152 515.16,176 498,170.96" />
<ellipse cx="600.5" cy="155.5" rx="10" ry="8" />
<rect x="685" y="148" width="14" height="24" />
<rect x="780" y="148" width="31" height="11" />
<rect x="20" y="212" width="24" height="20" />
<rect x="115" y="212" width="17" height="29" />
<rect x="210" y="212" width="10" height="16" />
<path d="M 305 212 L 346 212 L 346 251 L 305 251 Z M 318.12 224.48 L 318.12 238.52 L 332.88 238.52 L 332.88 224.48 Z" />
<path d="M 400 212 L 432 212 L 432 254 L 400 254 Z M 410.88 219.56 L 410.88 228.8 L 424.96 228.8 L 424.96 219.56 Z M 410.88 237.2 L 410.88 246.44 L 424.96 246.44 L 424.96 237.2 Z" />
<polygon points="495,212 523,212 523,219.7 504.52,219.7 504.52,239.3 523,239.3 523,247 495,247" />
<polygon points="590,212 620,216 611.6,220 593,218.56" />
<ellipse cx="696.5" cy="220.5" rx="12" ry="8" />
<rect x="780" y="212" width="16" height="26" />
<rect x="20" y="276" width="33" height="13" />
<rect x="115" y="276" width="26" height="22" />
<rect x="210" y="276" width="19" height="9" />
<rect x="305" y="276" width="12" height="18" />
<path d="M 400 276 L 443 276 L 443 317 L 400 317 Z M 413.76 289.12 L 413.76 303.88 L 429.24 303.88 L 429.24 289.12 Z" />
<path d="M 495 276 L 529 276 L 529 318 L 495 318 Z M 506.56 283.56 L 506.56 292.8 L 521.52 292.8 L 521.52 283.56 Z M 506.56 301.2 L 506.56 310.44 L 521.52 310.44 L 521.52 301.2 Z" />
<polygon points="590,276 620,276 620,284.14 600.2,284.14 600.2,304.86 620,304.86 620,313 590,313" />
<polygon points="685,276 717,280 708.04,286 688,284.2" />
<ellipse cx="792.5" cy="285.5" rx="12" ry="10" />
<rect x="20" y="340" width="18" height="28" />
<rect x="115" y="340" width="11" height="15" />
<rect x="210" y="340" width="28" height="24" />
<rect x="305" y="340" width="21" height="11" />
<rect x="400" y="340" width="14" height="20" />
<path d="M 495 340 L 540 340 L 540 383 L 495 383 Z M 509.4 353.76 L 509.4 369.24 L 525.6 369.24 L 525.6 353.76 Z" />
<path d="M 590 340 L 626 340 L 626 384 L 590 384 Z M 602.24 347.92 L 602.24 357.6 L 618.08 357.6 L 618.08 347.92 Z M 602.24 366.4 L 602.24 376.08 L 618.08 376.08 L 618.08 366.4 Z" />
<polygon points="685,340 717,340 717,348.58 695.88,348.58 695.88,370.42 717,370.42 717,379 685,379" />
<polygon points="780,340 790,344 787.2,352 783,349.84" />
<ellipse cx="33.5" cy="414.5" rx="14" ry="10" />
<rect x="115" y="404" width="20" height="8" />
<rect x="210" y="404" width="13" height="17" />
<rect x="305" y="404" width="30" height="26" />
<rect x="400" y="404" width="23" height="13" />
<rect x="495" y="404" width="16" height="22" />
<path d="M 590 404 L 637 404 L 637 427 L 590 427 Z M 605.04 411.36 L 605.04 419.64 L 621.96 419.64 L 621.96 411.36 Z" />
<path d="M 685 404 L 723 404 L 723 450 L 685 450 Z M 697.92 412.28 L 697.92 422.4 L 714.64 422.4 L 714.64 412.28 Z M 697.92 431.6 L 697.92 441.72 L 714.64 441.72 L 714.64 431.6 Z" />
<polygon points="780,404 814,404 814,413.02 791.56,413.02 791.56,435.98 814,435.98 814,445 780,445" />
<polygon points="20,468 32,472 28.64,482 23,479.48" />
<ellipse cx="129.5" cy="479.5" rx="14" ry="12" />
<rect x="210" y="468" width="22" height="10" />
<rect x="305" y="468" width="15" height="19" />
<rect x="400" y="468" width="32" height="28" />
<rect x="495" y="468" width="25" height="15" />
<rect x="590" y="468" width="18" height="24" />
<path d="M 685 468 L 710 468 L 710 493 L 685 493 Z M 693 476 L 693 485 L 702 485 L 702 476 Z" />
<path d="M 780 468 L 820 468 L 820 516 L 780 516 Z M 793.6 476.64 L 793.6 487.2 L 811.2 487.2 L 811.2 476.64 Z M 793.6 496.8 L 793.6 507.36 L 811.2 507.36 L 811.2 496.8 Z" />
<polygon points="20,532 56,532 56,541.46 32.24,541.46 32.24,565.54 56,565.54 56,575 20,575" />
<polygon points="115,532 129,536 125.08,548 118,545.12" />
<ellipse cx="225.5" cy="544.5" rx="16" ry="12" />
<rect x="305" y="532" width="24" height="12" />
<rect x="400" y="532" width="17" height="21" />
<rect x="495" y="532" width="10" height="8" />
<rect x="590" y="532" width="27" height="17" />
<rect x="685" y="532" width="20" height="26" />
</g>
</svg>

