<svg xmlns="http://www.w3.org/2000/svg" width="620" height="360" viewBox="0 0 620 360">
<g fill="none" stroke="black" stroke-width="1">
<polygon points="20,20 64,20 64,35 38,35 38,62 20,62" />
<polygon points="90,20 134,20 134,35 108,35 108,62 90,62" />
<polygon points="160,20 204,20 204,35 178,35 178,62 160,62" />
<polygon points="230,20 274,20 274,35 248,35 248,62 230,62" />
<polygon points="300,20 344,20 344,35 318,35 318,62 300,62" />
<polygon points="370,20 414,20 414,35 388,35 388,62 370,62" />
<polygon points="440,20 484,20 484,35 458,35 458,62 440,62" />
<polygon points="20,85 64,85 64,100 38,100 38,127 20,127" />
<polygon points="90,85 134,85 134,100 108,100 108,127 90,127" />
<polygon points="160,85 204,85 204,100 178,100 178,127 160,127" />
<polygon points="230,85 274,85 274,100 248,100 248,127 230,127" />
<polygon points="300,85 344,85 344,100 318,100 318,127 300,127" />
<polygon points="370,85 414,85 414,100 388,100 388,127 370,127" />
<polygon points="440,85 484,85 484,100 458,100 458,127 440,127" />
<polygon points="20,150 64,150 64,165 38,165 38,192 20,192" />
<polygon points="90,150 134,150 134,165 108,165 108,192 90,192" />
<polygon points="160,150 204,150 204,165 178,165 178,192 160,192" />
<polygon points="230,150 274,150 274,165 248,165 248,192 230,192" />
<polygon points="300,150 344,150 344,165 318,165 318,192 300,192" />
<polygon points="370,150 414,150 414,165 388,165 388,192 370,192" />
<polygon points="440,150 484,150 484,165 458,165 458,192 440,192" />
<polygon points="20,215 64,215 64,230 38,230 38,257 20,257" />
<polygon points="90,215 134,215 134,230 108,230 108,257 90,257" />
<polygon points="160,215 204,215 204,230 178,230 178,257 160,257" />
<polygon points="230,215 274,215 274,230 248,230 248,257 230,257" />
<polygon points="300,215 344,215 344,230 318,230 318,257 300,257" />
<polygon points="370,215 414,215 414,230 388,230 388,257 370,257" />
<polygon points="440,215 484,215 484,230 458,230 458,257 440,257" />
</g>
</svg>

