<svg xmlns="http://www.w3.org/2000/svg" width="1200" height="850" viewBox="0 0 1200 850">
<g fill="none" stroke="black" stroke-width="1">
<path d="M 20 20 L 49 20 L 49 55 L 20 55 Z M 29.28 31.2 L 29.28 43.8 L 39.72 43.8 L 39.72 31.2 Z" />
<path d="M 136 20 L 180 20 L 180 62 L 136 62 Z M 150.96 27.56 L 150.96 36.8 L 170.32 36.8 L 170.32 27.56 Z M 150.96 45.2 L 150.96 54.44 L 170.32 54.44 L 170.32 45.2 Z" />
<polygon points="252,20 292,20 292,26.82 265.6,26.82 265.6,44.18 292,44.18 292,51 252,51" />
<polygon points="368,20 386,24 380.96,46 371,41.32" />
<ellipse cx="489.5" cy="26.5" rx="6" ry="6" />
<rect x="600" y="20" width="28" height="22" />
<rect x="716" y="20" width="21" height="9" />
<rect x="832" y="20" width="14" height="18" />
<rect x="948" y="20" width="31" height="27" />
<rect x="1064" y="20" width="24" height="14" />
<path d="M 20 101 L 51 101 L 51 138 L 20 138 Z M 29.92 112.84 L 29.92 126.16 L 41.08 126.16 L 41.08 112.84 Z" />
<path d="M 136 101 L 160 101 L 160 143 L 136 143 Z M 144.16 108.56 L 144.16 117.8 L 154.72 117.8 L 154.72 108.56 Z M 144.16 126.2 L 144.16 135.44 L 154.72 135.44 L 154.72 126.2 Z" />
<polygon points="252,101 294,101 294,108.26 266.28,108.26 266.28,126.74 294,126.74 294,134 252,134" />
<polygon points="368,101 388,105 382.4,129 371,123.96" />
<ellipse cx="490.5" cy="108.5" rx="6" ry="8" />
<rect x="600" y="101" width="30" height="24" />
<rect x="716" y="101" width="23" height="11" />
<rect x="832" y="101" width="16" height="20" />
<rect x="948" y="101" width="33" height="29" />
<rect x="1064" y="101" width="26" height="16" />
<path d="M 20 182 L 53 182 L 53 221 L 20 221 Z M 30.56 194.48 L 30.56 208.52 L 42.44 208.52 L 42.44 194.48 Z" />
<path d="M 136 182 L 160 182 L 160 224 L 136 224 Z M 144.16 189.56 L 144.16 198.8 L 154.72 198.8 L 154.72 189.56 Z M 144.16 207.2 L 144.16 216.44 L 154.72 216.44 L 154.72 207.2 Z" />
<polygon points="252,182 296,182 296,189.7 266.96,189.7 266.96,209.3 296,209.3 296,217 252,217" />
<polygon points="368,182 390,186 383.84,190 371,188.56" />
<ellipse cx="491.5" cy="190.5" rx="8" ry="8" />
<rect x="600" y="182" width="32" height="26" />
<rect x="716" y="182" width="25" height="13" />
<rect x="832" y="182" width="18" height="22" />
<rect x="948" y="182" width="11" height="9" />
<rect x="1064" y="182" width="28" height="18" />
<path d="M 20 263 L 55 263 L 55 304 L 20 304 Z M 31.2 276.12 L 31.2 290.88 L 43.8 290.88 L 43.8 276.12 Z" />
<path d="M 136 263 L 162 263 L 162 305 L 136 305 Z M 144.84 270.56 L 144.84 279.8 L 156.28 279.8 L 156.28 270.56 Z M 144.84 288.2 L 144.84 297.44 L 156.28 297.44 L 156.28 288.2 Z" />
<polygon points="252,263 298,263 298,271.14 267.64,271.14 267.64,291.86 298,291.86 298,300 252,300" />
<polygon points="368,263 392,267 385.28,273 371,271.2" />
<ellipse cx="492.5" cy="272.5" rx="8" ry="10" />
<rect x="600" y="263" width="10" height="28" />
<rect x="716" y="263" width="27" height="15" />
<rect x="832" y="263" width="20" height="24" />
<rect x="948" y="263" width="13" height="11" />
<rect x="1064" y="263" width="30" height="20" />
<path d="M 20 344 L 57 344 L 57 387 L 20 387 Z M 31.84 357.76 L 31.84 373.24 L 45.16 373.24 L 45.16 357.76 Z" />
<path d="M 136 344 L 164 344 L 164 388 L 136 388 Z M 145.52 351.92 L 145.52 361.6 L 157.84 361.6 L 157.84 351.92 Z M 145.52 370.4 L 145.52 380.08 L 157.84 380.08 L 157.84 370.4 Z" />
<polygon points="252,344 300,344 300,352.58 268.32,352.58 268.32,374.42 300,374.42 300,383 252,383" />
<polygon points="368,344 394,348 386.72,356 371,353.84" />
<ellipse cx="493.5" cy="354.5" rx="10" ry="10" />
<rect x="600" y="344" width="12" height="8" />
<rect x="716" y="344" width="29" height="17" />
<rect x="832" y="344" width="22" height="26" />
<rect x="948" y="344" width="15" height="13" />
<rect x="1064" y="344" width="32" height="22" />
<path d="M 20 425 L 59 425 L 59 448 L 20 448 Z M 32.48 432.36 L 32.48 440.64 L 46.52 440.64 L 46.52 432.36 Z" />
<path d="M 136 425 L 166 425 L 166 471 L 136 471 Z M 146.2 433.28 L 146.2 443.4 L 159.4 443.4 L 159.4 433.28 Z M 146.2 452.6 L 146.2 462.72 L 159.4 462.72 L 159.4 452.6 Z" />
<polygon points="252,425 278,425 278,434.02 260.84,434.02 260.84,456.98 278,456.98 278,466 252,466" />
<polygon points="368,425 396,429 388.16,439 371,436.48" />
<ellipse cx="494.5" cy="436.5" rx="10" ry="12" />
<rect x="600" y="425" width="14" height="10" />
<rect x="716" y="425" width="31" height="19" />
<rect x="832" y="425" width="24" height="28" />
<rect x="948" y="425" width="17" height="15" />
<rect x="1064" y="425" width="10" height="24" />
<path d="M 20 506 L 61 506 L 61 531 L 20 531 Z M 33.12 514 L 33.12 523 L 47.88 523 L 47.88 514 Z" />
<path d="M 136 506 L 168 506 L 168 554 L 136 554 Z M 146.88 514.64 L 146.88 525.2 L 160.96 525.2 L 160.96 514.64 Z M 146.88 534.8 L 146.88 545.36 L 160.96 545.36 L 160.96 534.8 Z" />
<polygon points="252,506 280,506 280,515.46 261.52,515.46 261.52,539.54 280,539.54 280,549 252,549" />
<polygon points="368,506 398,510 389.6,522 371,519.12" />
<ellipse cx="495.5" cy="518.5" rx="12" ry="12" />
<rect x="600" y="506" width="16" height="12" />
<rect x="716" y="506" width="33" height="21" />
<rect x="832" y="506" width="26" height="8" />
<rect x="948" y="506" width="19" height="17" />
<rect x="1064" y="506" width="12" height="26" />
<path d="M 20 587 L 63 587 L 63 614 L 20 614 Z M 33.76 595.64 L 33.76 605.36 L 49.24 605.36 L 49.24 595.64 Z" />
<path d="M 136 587 L 170 587 L 170 637 L 136 637 Z M 147.56 596 L 147.56 607 L 162.52 607 L 162.52 596 Z M 147.56 617 L 147.56 628 L 162.52 628 L 162.52 617 Z" />
<polygon points="252,587 282,587 282,593.16 262.2,593.16 262.2,608.84 282,608.84 282,615 252,615" />
<polygon points="368,587 400,591 391.04,605 371,601.76" />
<ellipse cx="496.5" cy="600.5" rx="12" ry="14" />
<rect x="600" y="587" width="18" height="14" />
<rect x="716" y="587" width="11" height="23" />
<rect x="832" y="587" width="28" height="10" />
<rect x="948" y="587" width="21" height="19" />
<rect x="1064" y="587" width="14" height="28" />
<path d="M 20 668 L 65 668 L 65 697 L 20 697 Z M 34.4 677.28 L 34.4 687.72 L 50.6 687.72 L 50.6 677.28 Z" />
<path d="M 136 668 L 172 668 L 172 720 L 136 720 Z M 148.24 677.36 L 148.24 688.8 L 164.08 688.8 L 164.08 677.36 Z M 148.24 699.2 L 148.24 710.64 L 164.08 710.64 L 164.08 699.2 Z" />
<polygon points="252,668 284,668 284,674.16 262.88,674.16 262.88,689.84 284,689.84 284,696 252,696" />
<polygon points="368,668 378,672 375.2,688 371,684.4" />
<ellipse cx="497.5" cy="682.5" rx="14" ry="14" />
<rect x="600" y="668" width="20" height="16" />
<rect x="716" y="668" width="13" height="25" />
<rect x="832" y="668" width="30" height="12" />
<rect x="948" y="668" width="23" height="21" />
<rect x="1064" y="668" width="16" height="8" />
<path d="M 20 749 L 67 749 L 67 780 L 20 780 Z M 35.04 758.92 L 35.04 770.08 L 51.96 770.08 L 51.96 758.92 Z" />
<path d="M 136 749 L 174 749 L 174 803 L 136 803 Z M 148.92 758.72 L 148.92 770.6 L 165.64 770.6 L 165.64 758.72 Z M 148.92 781.4 L 148.92 793.28 L 165.64 793.28 L 165.64 781.4 Z" />
<polygon points="252,749 286,749 286,755.16 263.56,755.16 263.56,770.84 286,770.84 286,777 252,777" />
<polygon points="368,749 380,753 376.64,771 371,767.04" />
<ellipse cx="498.5" cy="753.5" rx="14" ry="4" />
<rect x="600" y="749" width="22" height="18" />
<rect x="716" y="749" width="15" height="27" />
<rect x="832" y="749" width="32" height="14" />
<rect x="948" y="749" width="25" height="23" />
<rect x="1064" y="749" width="18" height="10" />
</g>
</svg>

