<svg xmlns="http://www.w3.org/2000/svg" width="1800" height="1300" viewBox="0 0 1800 1300">
<g fill="none" stroke="black" stroke-width="1">
<path d="M 20 20 L 55 20 L 55 51 L 20 51 Z M 31.2 29.92 L 31.2 41.08 L 43.8 41.08 L 43.8 29.92 Z" />
<path d="M 130 20 L 156 20 L 156 74 L 130 74 Z M 138.84 29.72 L 138.84 41.6 L 150.28 41.6 L 150.28 29.72 Z M 138.84 52.4 L 138.84 64.28 L 150.28 64.28 L 150.28 52.4 Z" />
<polygon points="240,20 286,20 286,26.16 255.64,26.16 255.64,41.84 286,41.84 286,48 240,48" />
<polygon points="350,20 374,24 367.28,42 353,38.04" />
<ellipse cx="468.5" cy="24.5" rx="8" ry="4" />
<rect x="570" y="20" width="10" height="18" />
<rect x="680" y="20" width="27" height="27" />
<rect x="790" y="20" width="20" height="14" />
<rect x="900" y="20" width="13" height="23" />
<rect x="1010" y="20" width="30" height="10" />
<path d="M 1120 20 L 1157 20 L 1157 53 L 1120 53 Z M 1131.84 30.56 L 1131.84 42.44 L 1145.16 42.44 L 1145.16 30.56 Z" />
<path d="M 1230 20 L 1258 20 L 1258 76 L 1230 76 Z M 1239.52 30.08 L 1239.52 42.4 L 1251.84 42.4 L 1251.84 30.08 Z M 1239.52 53.6 L 1239.52 65.92 L 1251.84 65.92 L 1251.84 53.6 Z" />
<polygon points="1340,20 1388,20 1388,26.38 1356.32,26.38 1356.32,42.62 1388,42.62 1388,49 1340,49" />
<polygon points="1450,20 1476,24 1468.72,44 1453,39.68" />
<ellipse cx="1569.5" cy="25.5" rx="10" ry="6" />
<rect x="1670" y="20" width="12" height="20" />
<rect x="20" y="98" width="29" height="29" />
<rect x="130" y="98" width="22" height="16" />
<rect x="240" y="98" width="15" height="25" />
<rect x="350" y="98" width="32" height="12" />
<path d="M 460 98 L 499 98 L 499 133 L 460 133 Z M 472.48 109.2 L 472.48 121.8 L 486.52 121.8 L 486.52 109.2 Z" />
<path d="M 570 98 L 600 98 L 600 140 L 570 140 Z M 580.2 105.56 L 580.2 114.8 L 593.4 114.8 L 593.4 105.56 Z M 580.2 123.2 L 580.2 132.44 L 593.4 132.44 L 593.4 123.2 Z" />
<polygon points="680,98 706,98 706,104.82 688.84,104.82 688.84,122.18 706,122.18 706,129 680,129" />
<polygon points="790,98 818,102 810.16,124 793,119.32" />
<ellipse cx="910.5" cy="104.5" rx="10" ry="6" />
<rect x="1010" y="98" width="14" height="22" />
<rect x="1120" y="98" width="31" height="9" />
<rect x="1230" y="98" width="24" height="18" />
<rect x="1340" y="98" width="17" height="27" />
<rect x="1450" y="98" width="10" height="14" />
<path d="M 1560 98 L 1601 98 L 1601 135 L 1560 135 Z M 1573.12 109.84 L 1573.12 123.16 L 1587.88 123.16 L 1587.88 109.84 Z" />
<path d="M 1670 98 L 1702 98 L 1702 140 L 1670 140 Z M 1680.88 105.56 L 1680.88 114.8 L 1694.96 114.8 L 1694.96 105.56 Z M 1680.88 123.2 L 1680.88 132.44 L 1694.96 132.44 L 1694.96 123.2 Z" />
<polygon points="20,176 48,176 48,183.26 29.52,183.26 29.52,201.74 48,201.74 48,209 20,209" />
<polygon points="130,176 160,180 151.6,204 133,198.96" />
<ellipse cx="251.5" cy="183.5" rx="12" ry="8" />
<rect x="350" y="176" width="16" height="24" />
<rect x="460" y="176" width="33" height="11" />
<rect x="570" y="176" width="26" height="20" />
<rect x="680" y="176" width="19" height="29" />
<rect x="790" y="176" width="12" height="16" />
<path d="M 900 176 L 943 176 L 943 215 L 900 215 Z M 913.76 188.48 L 913.76 202.52 L 929.24 202.52 L 929.24 188.48 Z" />
<path d="M 1010 176 L 1044 176 L 1044 218 L 1010 218 Z M 1021.56 183.56 L 1021.56 192.8 L 1036.52 192.8 L 1036.52 183.56 Z M 1021.56 201.2 L 1021.56 210.44 L 1036.52 210.44 L 1036.52 201.2 Z" />
<polygon points="1120,176 1150,176 1150,183.7 1130.2,183.7 1130.2,203.3 1150,203.3 1150,211 1120,211" />
<polygon points="1230,176 1262,180 1253.04,184 1233,182.56" />
<ellipse cx="1352.5" cy="184.5" rx="12" ry="8" />
<rect x="1450" y="176" width="18" height="26" />
<rect x="1560" y="176" width="11" height="13" />
<rect x="1670" y="176" width="28" height="22" />
<rect x="20" y="254" width="21" height="9" />
<rect x="130" y="254" width="14" height="18" />
<path d="M 240 254 L 285 254 L 285 295 L 240 295 Z M 254.4 267.12 L 254.4 281.88 L 270.6 281.88 L 270.6 267.12 Z" />
<path d="M 350 254 L 386 254 L 386 296 L 350 296 Z M 362.24 261.56 L 362.24 270.8 L 378.08 270.8 L 378.08 261.56 Z M 362.24 279.2 L 362.24 288.44 L 378.08 288.44 L 378.08 279.2 Z" />
<polygon points="460,254 492,254 492,262.14 470.88,262.14 470.88,282.86 492,282.86 492,291 460,291" />
<polygon points="570,254 580,258 577.2,264 573,262.2" />
<ellipse cx="693.5" cy="263.5" rx="14" ry="10" />
<rect x="790" y="254" width="20" height="28" />
<rect x="900" y="254" width="13" height="15" />
<rect x="1010" y="254" width="30" height="24" />
<rect x="1120" y="254" width="23" height="11" />
<rect x="1230" y="254" width="16" height="20" />
<path d="M 1340 254 L 1387 254 L 1387 297 L 1340 297 Z M 1355.04 267.76 L 1355.04 283.24 L 1371.96 283.24 L 1371.96 267.76 Z" />
<path d="M 1450 254 L 1488 254 L 1488 298 L 1450 298 Z M 1462.92 261.92 L 1462.92 271.6 L 1479.64 271.6 L 1479.64 261.92 Z M 1462.92 280.4 L 1462.92 290.08 L 1479.64 290.08 L 1479.64 280.4 Z" />
<polygon points="1560,254 1594,254 1594,262.58 1571.56,262.58 1571.56,284.42 1594,284.42 1594,293 1560,293" />
<polygon points="1670,254 1682,258 1678.64,266 1673,263.84" />
<ellipse cx="34.5" cy="342.5" rx="14" ry="10" />
<rect x="130" y="332" width="22" height="8" />
<rect x="240" y="332" width="15" height="17" />
<rect x="350" y="332" width="32" height="26" />
<rect x="460" y="332" width="25" height="13" />
<rect x="570" y="332" width="18" height="22" />
<path d="M 680 332 L 705 332 L 705 355 L 680 355 Z M 688 339.36 L 688 347.64 L 697 347.64 L 697 339.36 Z" />
<path d="M 790 332 L 830 332 L 830 378 L 790 378 Z M 803.6 340.28 L 803.6 350.4 L 821.2 350.4 L 821.2 340.28 Z M 803.6 359.6 L 803.6 369.72 L 821.2 369.72 L 821.2 359.6 Z" />
<polygon points="900,332 936,332 936,341.02 912.24,341.02 912.24,363.98 936,363.98 936,373 900,373" />
<polygon points="1010,332 1024,336 1020.08,346 1013,343.48" />
<ellipse cx="1135.5" cy="343.5" rx="16" ry="12" />
<rect x="1230" y="332" width="24" height="10" />
<rect x="1340" y="332" width="17" height="19" />
<rect x="1450" y="332" width="10" height="28" />
<rect x="1560" y="332" width="27" height="15" />
<rect x="1670" y="332" width="20" height="24" />
<path d="M 20 410 L 47 410 L 47 435 L 20 435 Z M 28.64 418 L 28.64 427 L 38.36 427 L 38.36 418 Z" />
<path d="M 130 410 L 172 410 L 172 458 L 130 458 Z M 144.28 418.64 L 144.28 429.2 L 162.76 429.2 L 162.76 418.64 Z M 144.28 438.8 L 144.28 449.36 L 162.76 449.36 L 162.76 438.8 Z" />
<polygon points="240,410 278,410 278,419.46 252.92,419.46 252.92,443.54 278,443.54 278,453 240,453" />
<polygon points="350,410 366,414 361.52,426 353,423.12" />
<ellipse cx="476.5" cy="422.5" rx="16" ry="12" />
<rect x="570" y="410" width="26" height="12" />
<rect x="680" y="410" width="19" height="21" />
<rect x="790" y="410" width="12" height="8" />
<rect x="900" y="410" width="29" height="17" />
<rect x="1010" y="410" width="22" height="26" />
<path d="M 1120 410 L 1149 410 L 1149 437 L 1120 437 Z M 1129.28 418.64 L 1129.28 428.36 L 1139.72 428.36 L 1139.72 418.64 Z" />
<path d="M 1230 410 L 1274 410 L 1274 460 L 1230 460 Z M 1244.96 419 L 1244.96 430 L 1264.32 430 L 1264.32 419 Z M 1244.96 440 L 1244.96 451 L 1264.32 451 L 1264.32 440 Z" />
<polygon points="1340,410 1380,410 1380,416.16 1353.6,416.16 1353.6,431.84 1380,431.84 1380,438 1340,438" />
<polygon points="1450,410 1468,414 1462.96,428 1453,424.76" />
<ellipse cx="1565.5" cy="423.5" rx="6" ry="14" />
<rect x="1670" y="410" width="28" height="14" />
<rect x="20" y="488" width="21" height="23" />
<rect x="130" y="488" width="14" height="10" />
<rect x="240" y="488" width="31" height="19" />
<rect x="350" y="488" width="24" height="28" />
<path d="M 460 488 L 491 488 L 491 517 L 460 517 Z M 469.92 497.28 L 469.92 507.72 L 481.08 507.72 L 481.08 497.28 Z" />
<path d="M 570 488 L 594 488 L 594 540 L 570 540 Z M 578.16 497.36 L 578.16 508.8 L 588.72 508.8 L 588.72 497.36 Z M 578.16 519.2 L 578.16 530.64 L 588.72 530.64 L 588.72 519.2 Z" />
<polygon points="680,488 722,488 722,494.16 694.28,494.16 694.28,509.84 722,509.84 722,516 680,516" />
<polygon points="790,488 810,492 804.4,508 793,504.4" />
<ellipse cx="906.5" cy="502.5" rx="6" ry="14" />
<rect x="1010" y="488" width="30" height="16" />
<rect x="1120" y="488" width="23" height="25" />
<rect x="1230" y="488" width="16" height="12" />
<rect x="1340" y="488" width="33" height="21" />
<rect x="1450" y="488" width="26" height="8" />
<path d="M 1560 488 L 1593 488 L 1593 519 L 1560 519 Z M 1570.56 497.92 L 1570.56 509.08 L 1582.44 509.08 L 1582.44 497.92 Z" />
<path d="M 1670 488 L 1694 488 L 1694 542 L 1670 542 Z M 1678.16 497.72 L 1678.16 509.6 L 1688.72 509.6 L 1688.72 497.72 Z M 1678.16 520.4 L 1678.16 532.28 L 1688.72 532.28 L 1688.72 520.4 Z" />
<polygon points="20,566 64,566 64,572.16 34.96,572.16 34.96,587.84 64,587.84 64,594 20,594" />
<polygon points="130,566 152,570 145.84,588 133,584.04" />
<ellipse cx="247.5" cy="570.5" rx="8" ry="4" />
<rect x="350" y="566" width="32" height="18" />
<rect x="460" y="566" width="25" height="27" />
<rect x="570" y="566" width="18" height="14" />
<rect x="680" y="566" width="11" height="23" />
<rect x="790" y="566" width="28" height="10" />
<path d="M 900 566 L 935 566 L 935 599 L 900 599 Z M 911.2 576.56 L 911.2 588.44 L 923.8 588.44 L 923.8 576.56 Z" />
<path d="M 1010 566 L 1036 566 L 1036 622 L 1010 622 Z M 1018.84 576.08 L 1018.84 588.4 L 1030.28 588.4 L 1030.28 576.08 Z M 1018.84 599.6 L 1018.84 611.92 L 1030.28 611.92 L 1030.28 599.6 Z" />
<polygon points="1120,566 1166,566 1166,572.38 1135.64,572.38 1135.64,588.62 1166,588.62 1166,595 1120,595" />
<polygon points="1230,566 1254,570 1247.28,590 1233,585.68" />
<ellipse cx="1348.5" cy="571.5" rx="8" ry="6" />
<rect x="1450" y="566" width="10" height="20" />
<rect x="1560" y="566" width="27" height="29" />
<rect x="1670" y="566" width="20" height="16" />
<rect x="20" y="644" width="13" height="25" />
<rect x="130" y="644" width="30" height="12" />
<path d="M 240 644 L 277 644 L 277 679 L 240 679 Z M 251.84 655.2 L 251.84 667.8 L 265.16 667.8 L 265.16 655.2 Z" />
<path d="M 350 644 L 378 644 L 378 686 L 350 686 Z M 359.52 651.56 L 359.52 660.8 L 371.84 660.8 L 371.84 651.56 Z M 359.52 669.2 L 359.52 678.44 L 371.84 678.44 L 371.84 669.2 Z" />
<polygon points="460,644 508,644 508,650.82 476.32,650.82 476.32,668.18 508,668.18 508,675 460,675" />
<polygon points="570,644 596,648 588.72,670 573,665.32" />
<ellipse cx="689.5" cy="650.5" rx="10" ry="6" />
<rect x="790" y="644" width="12" height="22" />
<rect x="900" y="644" width="29" height="9" />
<rect x="1010" y="644" width="22" height="18" />
<rect x="1120" y="644" width="15" height="27" />
<rect x="1230" y="644" width="32" height="14" />
<path d="M 1340 644 L 1379 644 L 1379 681 L 1340 681 Z M 1352.48 655.84 L 1352.48 669.16 L 1366.52 669.16 L 1366.52 655.84 Z" />
<path d="M 1450 644 L 1480 644 L 1480 686 L 1450 686 Z M 1460.2 651.56 L 1460.2 660.8 L 1473.4 660.8 L 1473.4 651.56 Z M 1460.2 669.2 L 1460.2 678.44 L 1473.4 678.44 L 1473.4 669.2 Z" />
<polygon points="1560,644 1586,644 1586,651.26 1568.84,651.26 1568.84,669.74 1586,669.74 1586,677 1560,677" />
<polygon points="1670,644 1698,648 1690.16,672 1673,666.96" />
<ellipse cx="30.5" cy="729.5" rx="10" ry="8" />
<rect x="130" y="722" width="14" height="24" />
<rect x="240" y="722" width="31" height="11" />
<rect x="350" y="722" width="24" height="20" />
<rect x="460" y="722" width="17" height="29" />
<rect x="570" y="722" width="10" height="16" />
<path d="M 680 722 L 721 722 L 721 761 L 680 761 Z M 693.12 734.48 L 693.12 748.52 L 707.88 748.52 L 707.88 734.48 Z" />
<path d="M 790 722 L 822 722 L 822 764 L 790 764 Z M 800.88 729.56 L 800.88 738.8 L 814.96 738.8 L 814.96 729.56 Z M 800.88 747.2 L 800.88 756.44 L 814.96 756.44 L 814.96 747.2 Z" />
<polygon points="900,722 928,722 928,729.7 909.52,729.7 909.52,749.3 928,749.3 928,757 900,757" />
<polygon points="1010,722 1040,726 1031.6,730 1013,728.56" />
<ellipse cx="1131.5" cy="730.5" rx="12" ry="8" />
<rect x="1230" y="722" width="16" height="26" />
<rect x="1340" y="722" width="33" height="13" />
<rect x="1450" y="722" width="26" height="22" />
<rect x="1560" y="722" width="19" height="9" />
<rect x="1670" y="722" width="12" height="18" />
<path d="M 20 800 L 63 800 L 63 841 L 20 841 Z M 33.76 813.12 L 33.76 827.88 L 49.24 827.88 L 49.24 813.12 Z" />
<path d="M 130 800 L 164 800 L 164 842 L 130 842 Z M 141.56 807.56 L 141.56 816.8 L 156.52 816.8 L 156.52 807.56 Z M 141.56 825.2 L 141.56 834.44 L 156.52 834.44 L 156.52 825.2 Z" />
<polygon points="240,800 270,800 270,808.14 250.2,808.14 250.2,828.86 270,828.86 270,837 240,837" />
<polygon points="350,800 382,804 373.04,810 353,808.2" />
<ellipse cx="472.5" cy="809.5" rx="12" ry="10" />
<rect x="570" y="800" width="18" height="28" />
<rect x="680" y="800" width="11" height="15" />
<rect x="790" y="800" width="28" height="24" />
<rect x="900" y="800" width="21" height="11" />
<rect x="1010" y="800" width="14" height="20" />
<path d="M 1120 800 L 1165 800 L 1165 843 L 1120 843 Z M 1134.4 813.76 L 1134.4 829.24 L 1150.6 829.24 L 1150.6 813.76 Z" />
<path d="M 1230 800 L 1266 800 L 1266 844 L 1230 844 Z M 1242.24 807.92 L 1242.24 817.6 L 1258.08 817.6 L 1258.08 807.92 Z M 1242.24 826.4 L 1242.24 836.08 L 1258.08 836.08 L 1258.08 826.4 Z" />
<polygon points="1340,800 1372,800 1372,808.58 1350.88,808.58 1350.88,830.42 1372,830.42 1372,839 1340,839" />
<polygon points="1450,800 1460,804 1457.2,812 1453,809.84" />
<ellipse cx="1573.5" cy="810.5" rx="14" ry="10" />
<rect x="1670" y="800" width="20" height="8" />
<rect x="20" y="878" width="13" height="17" />
<rect x="130" y="878" width="30" height="26" />
<rect x="240" y="878" width="23" height="13" />
<rect x="350" y="878" width="16" height="22" />
<path d="M 460 878 L 507 878 L 507 901 L 460 901 Z M 475.04 885.36 L 475.04 893.64 L 491.96 893.64 L 491.96 885.36 Z" />
<path d="M 570 878 L 608 878 L 608 924 L 570 924 Z M 582.92 886.28 L 582.92 896.4 L 599.64 896.4 L 599.64 886.28 Z M 582.92 905.6 L 582.92 915.72 L 599.64 915.72 L 599.64 905.6 Z" />
<polygon points="680,878 714,878 714,887.02 691.56,887.02 691.56,909.98 714,909.98 714,919 680,919" />
<polygon points="790,878 802,882 798.64,892 793,889.48" />
<ellipse cx="914.5" cy="889.5" rx="14" ry="12" />
<rect x="1010" y="878" width="22" height="10" />
<rect x="1120" y="878" width="15" height="19" />
<rect x="1230" y="878" width="32" height="28" />
<rect x="1340" y="878" width="25" height="15" />
<rect x="1450" y="878" width="18" height="24" />
<path d="M 1560 878 L 1585 878 L 1585 903 L 1560 903 Z M 1568 886 L 1568 895 L 1577 895 L 1577 886 Z" />
<path d="M 1670 878 L 1710 878 L 1710 926 L 1670 926 Z M 1683.6 886.64 L 1683.6 897.2 L 1701.2 897.2 L 1701.2 886.64 Z M 1683.6 906.8 L 1683.6 917.36 L 1701.2 917.36 L 1701.2 906.8 Z" />
<polygon points="20,956 56,956 56,965.46 32.24,965.46 32.24,989.54 56,989.54 56,999 20,999" />
<polygon points="130,956 144,960 140.08,972 133,969.12" />
<ellipse cx="255.5" cy="968.5" rx="16" ry="12" />
<rect x="350" y="956" width="24" height="12" />
<rect x="460" y="956" width="17" height="21" />
<rect x="570" y="956" width="10" height="8" />
<rect x="680" y="956" width="27" height="17" />
<rect x="790" y="956" width="20" height="26" />
<path d="M 900 956 L 927 956 L 927 983 L 900 983 Z M 908.64 964.64 L 908.64 974.36 L 918.36 974.36 L 918.36 964.64 Z" />
<path d="M 1010 956 L 1052 956 L 1052 1006 L 1010 1006 Z M 1024.28 965 L 1024.28 976 L 1042.76 976 L 1042.76 965 Z M 1024.28 986 L 1024.28 997 L 1042.76 997 L 1042.76 986 Z" />
<polygon points="1120,956 1158,956 1158,962.16 1132.92,962.16 1132.92,977.84 1158,977.84 1158,984 1120,984" />
<polygon points="1230,956 1246,960 1241.52,974 1233,970.76" />
<ellipse cx="1356.5" cy="969.5" rx="16" ry="14" />
<rect x="1450" y="956" width="26" height="14" />
<rect x="1560" y="956" width="19" height="23" />
<rect x="1670" y="956" width="12" height="10" />
<rect x="20" y="1034" width="29" height="19" />
<rect x="130" y="1034" width="22" height="28" />
<path d="M 240 1034 L 269 1034 L 269 1063 L 240 1063 Z M 249.28 1043.28 L 249.28 1053.72 L 259.72 1053.72 L 259.72 1043.28 Z" />
<path d="M 350 1034 L 394 1034 L 394 1086 L 350 1086 Z M 364.96 1043.36 L 364.96 1054.8 L 384.32 1054.8 L 384.32 1043.36 Z M 364.96 1065.2 L 364.96 1076.64 L 384.32 1076.64 L 384.32 1065.2 Z" />
<polygon points="460,1034 500,1034 500,1040.16 473.6,1040.16 473.6,1055.84 500,1055.84 500,1062 460,1062" />
<polygon points="570,1034 588,1038 582.96,1054 573,1050.4" />
<ellipse cx="685.5" cy="1048.5" rx="6" ry="14" />
<rect x="790" y="1034" width="28" height="16" />
<rect x="900" y="1034" width="21" height="25" />
<rect x="1010" y="1034" width="14" height="12" />
<rect x="1120" y="1034" width="31" height="21" />
<rect x="1230" y="1034" width="24" height="8" />
<path d="M 1340 1034 L 1371 1034 L 1371 1065 L 1340 1065 Z M 1349.92 1043.92 L 1349.92 1055.08 L 1361.08 1055.08 L 1361.08 1043.92 Z" />
<path d="M 1450 1034 L 1474 1034 L 1474 1088 L 1450 1088 Z M 1458.16 1043.72 L 1458.16 1055.6 L 1468.72 1055.6 L 1468.72 1043.72 Z M 1458.16 1066.4 L 1458.16 1078.28 L 1468.72 1078.28 L 1468.72 1066.4 Z" />
<polygon points="1560,1034 1602,1034 1602,1040.16 1574.28,1040.16 1574.28,1055.84 1602,1055.84 1602,1062 1560,1062" />
<polygon points="1670,1034 1690,1038 1684.4,1056 1673,1052.04" />
<ellipse cx="26.5" cy="1116.5" rx="6" ry="4" />
<rect x="130" y="1112" width="30" height="18" />
<rect x="240" y="1112" width="23" height="27" />
<rect x="350" y="1112" width="16" height="14" />
<rect x="460" y="1112" width="33" height="23" />
<rect x="570" y="1112" width="26" height="10" />
<path d="M 680 1112 L 713 1112 L 713 1145 L 680 1145 Z M 690.56 1122.56 L 690.56 1134.44 L 702.44 1134.44 L 702.44 1122.56 Z" />
<path d="M 790 1112 L 814 1112 L 814 1168 L 790 1168 Z M 798.16 1122.08 L 798.16 1134.4 L 808.72 1134.4 L 808.72 1122.08 Z M 798.16 1145.6 L 798.16 1157.92 L 808.72 1157.92 L 808.72 1145.6 Z" />
<polygon points="900,1112 944,1112 944,1118.38 914.96,1118.38 914.96,1134.62 944,1134.62 944,1141 900,1141" />
<polygon points="1010,1112 1032,1116 1025.84,1136 1013,1131.68" />
<ellipse cx="1127.5" cy="1117.5" rx="8" ry="6" />
<rect x="1230" y="1112" width="32" height="20" />
<rect x="1340" y="1112" width="25" height="29" />
<rect x="1450" y="1112" width="18" height="16" />
<rect x="1560" y="1112" width="11" height="25" />
<rect x="1670" y="1112" width="28" height="12" />
<path d="M 20 1190 L 55 1190 L 55 1225 L 20 1225 Z M 31.2 1201.2 L 31.2 1213.8 L 43.8 1213.8 L 43.8 1201.2 Z" />
<path d="M 130 1190 L 156 1190 L 156 1232 L 130 1232 Z M 138.84 1197.56 L 138.84 1206.8 L 150.28 1206.8 L 150.28 1197.56 Z M 138.84 1215.2 L 138.84 1224.44 L 150.28 1224.44 L 150.28 1215.2 Z" />
<polygon points="240,1190 286,1190 286,1196.82 255.64,1196.82 255.64,1214.18 286,1214.18 286,1221 240,1221" />
<polygon points="350,1190 374,1194 367.28,1216 353,1211.32" />
<ellipse cx="468.5" cy="1196.5" rx="8" ry="6" />
<rect x="570" y="1190" width="10" height="22" />
<rect x="680" y="1190" width="27" height="9" />
<rect x="790" y="1190" width="20" height="18" />
<rect x="900" y="1190" width="13" height="27" />
<rect x="1010" y="1190" width="30" height="14" />
</g>
</svg>

