<svg xmlns="http://www.w3.org/2000/svg" width="2600" height="1900" viewBox="0 0 2600 1900">
<g fill="none" stroke="black" stroke-width="1">
<path d="M 20 20 L 67 20 L 67 61 L 20 61 Z M 35.04 33.12 L 35.04 47.88 L 51.96 47.88 L 51.96 33.12 Z" />
<path d="M 131 20 L 169 20 L 169 62 L 131 62 Z M 143.92 27.56 L 143.92 36.8 L 160.64 36.8 L 160.64 27.56 Z M 143.92 45.2 L 143.92 54.44 L 160.64 54.44 L 160.64 45.2 Z" />
<polygon points="242,20 276,20 276,28.14 253.56,28.14 253.56,48.86 276,48.86 276,57 242,57" />
<polygon points="353,20 365,24 361.64,30 356,28.2" />
<ellipse cx="478.5" cy="29.5" rx="14" ry="10" />
<rect x="575" y="20" width="22" height="28" />
<rect x="686" y="20" width="15" height="15" />
<rect x="797" y="20" width="32" height="24" />
<rect x="908" y="20" width="25" height="11" />
<rect x="1019" y="20" width="18" height="20" />
<path d="M 1130 20 L 1155 20 L 1155 63 L 1130 63 Z M 1138 33.76 L 1138 49.24 L 1147 49.24 L 1147 33.76 Z" />
<path d="M 1241 20 L 1281 20 L 1281 64 L 1241 64 Z M 1254.6 27.92 L 1254.6 37.6 L 1272.2 37.6 L 1272.2 27.92 Z M 1254.6 46.4 L 1254.6 56.08 L 1272.2 56.08 L 1272.2 46.4 Z" />
<polygon points="1352,20 1388,20 1388,28.58 1364.24,28.58 1364.24,50.42 1388,50.42 1388,59 1352,59" />
<polygon points="1463,20 1477,24 1473.08,32 1466,29.84" />
<ellipse cx="1589.5" cy="30.5" rx="16" ry="10" />
<rect x="1685" y="20" width="24" height="8" />
<rect x="1796" y="20" width="17" height="17" />
<rect x="1907" y="20" width="10" height="26" />
<rect x="2018" y="20" width="27" height="13" />
<rect x="2129" y="20" width="20" height="22" />
<path d="M 2240 20 L 2267 20 L 2267 43 L 2240 43 Z M 2248.64 27.36 L 2248.64 35.64 L 2258.36 35.64 L 2258.36 27.36 Z" />
<path d="M 2351 20 L 2393 20 L 2393 66 L 2351 66 Z M 2365.28 28.28 L 2365.28 38.4 L 2383.76 38.4 L 2383.76 28.28 Z M 2365.28 47.6 L 2365.28 57.72 L 2383.76 57.72 L 2383.76 47.6 Z" />
<polygon points="2462,20 2500,20 2500,29.02 2474.92,29.02 2474.92,51.98 2500,51.98 2500,61 2462,61" />
<polygon points="20,104 36,108 31.52,118 23,115.48" />
<ellipse cx="147.5" cy="115.5" rx="16" ry="12" />
<rect x="242" y="104" width="26" height="10" />
<rect x="353" y="104" width="19" height="19" />
<rect x="464" y="104" width="12" height="28" />
<rect x="575" y="104" width="29" height="15" />
<rect x="686" y="104" width="22" height="24" />
<path d="M 797 104 L 826 104 L 826 129 L 797 129 Z M 806.28 112 L 806.28 121 L 816.72 121 L 816.72 112 Z" />
<path d="M 908 104 L 952 104 L 952 152 L 908 152 Z M 922.96 112.64 L 922.96 123.2 L 942.32 123.2 L 942.32 112.64 Z M 922.96 132.8 L 922.96 143.36 L 942.32 143.36 L 942.32 132.8 Z" />
<polygon points="1019,104 1059,104 1059,113.46 1032.6,113.46 1032.6,137.54 1059,137.54 1059,147 1019,147" />
<polygon points="1130,104 1148,108 1142.96,120 1133,117.12" />
<ellipse cx="1246.5" cy="116.5" rx="6" ry="12" />
<rect x="1352" y="104" width="28" height="12" />
<rect x="1463" y="104" width="21" height="21" />
<rect x="1574" y="104" width="14" height="8" />
<rect x="1685" y="104" width="31" height="17" />
<rect x="1796" y="104" width="24" height="26" />
<path d="M 1907 104 L 1938 104 L 1938 131 L 1907 131 Z M 1916.92 112.64 L 1916.92 122.36 L 1928.08 122.36 L 1928.08 112.64 Z" />
<path d="M 2018 104 L 2042 104 L 2042 154 L 2018 154 Z M 2026.16 113 L 2026.16 124 L 2036.72 124 L 2036.72 113 Z M 2026.16 134 L 2026.16 145 L 2036.72 145 L 2036.72 134 Z" />
<polygon points="2129,104 2171,104 2171,110.16 2143.28,110.16 2143.28,125.84 2171,125.84 2171,132 2129,132" />
<polygon points="2240,104 2260,108 2254.4,122 2243,118.76" />
<ellipse cx="2357.5" cy="117.5" rx="6" ry="14" />
<rect x="2462" y="104" width="30" height="14" />
<rect x="20" y="188" width="23" height="23" />
<rect x="131" y="188" width="16" height="10" />
<rect x="242" y="188" width="33" height="19" />
<rect x="353" y="188" width="26" height="28" />
<path d="M 464 188 L 497 188 L 497 217 L 464 217 Z M 474.56 197.28 L 474.56 207.72 L 486.44 207.72 L 486.44 197.28 Z" />
<path d="M 575 188 L 599 188 L 599 240 L 575 240 Z M 583.16 197.36 L 583.16 208.8 L 593.72 208.8 L 593.72 197.36 Z M 583.16 219.2 L 583.16 230.64 L 593.72 230.64 L 593.72 219.2 Z" />
<polygon points="686,188 730,188 730,194.16 700.96,194.16 700.96,209.84 730,209.84 730,216 686,216" />
<polygon points="797,188 819,192 812.84,208 800,204.4" />
<ellipse cx="915.5" cy="202.5" rx="8" ry="14" />
<rect x="1019" y="188" width="32" height="16" />
<rect x="1130" y="188" width="25" height="25" />
<rect x="1241" y="188" width="18" height="12" />
<rect x="1352" y="188" width="11" height="21" />
<rect x="1463" y="188" width="28" height="8" />
<path d="M 1574 188 L 1609 188 L 1609 219 L 1574 219 Z M 1585.2 197.92 L 1585.2 209.08 L 1597.8 209.08 L 1597.8 197.92 Z" />
<path d="M 1685 188 L 1711 188 L 1711 242 L 1685 242 Z M 1693.84 197.72 L 1693.84 209.6 L 1705.28 209.6 L 1705.28 197.72 Z M 1693.84 220.4 L 1693.84 232.28 L 1705.28 232.28 L 1705.28 220.4 Z" />
<polygon points="1796,188 1842,188 1842,194.16 1811.64,194.16 1811.64,209.84 1842,209.84 1842,216 1796,216" />
<polygon points="1907,188 1931,192 1924.28,210 1910,206.04" />
<ellipse cx="2026.5" cy="192.5" rx="8" ry="4" />
<rect x="2129" y="188" width="10" height="18" />
<rect x="2240" y="188" width="27" height="27" />
<rect x="2351" y="188" width="20" height="14" />
<rect x="2462" y="188" width="13" height="23" />
<rect x="20" y="272" width="30" height="10" />
<path d="M 131 272 L 168 272 L 168 305 L 131 305 Z M 142.84 282.56 L 142.84 294.44 L 156.16 294.44 L 156.16 282.56 Z" />
<path d="M 242 272 L 270 272 L 270 328 L 242 328 Z M 251.52 282.08 L 251.52 294.4 L 263.84 294.4 L 263.84 282.08 Z M 251.52 305.6 L 251.52 317.92 L 263.84 317.92 L 263.84 305.6 Z" />
<polygon points="353,272 401,272 401,278.38 369.32,278.38 369.32,294.62 401,294.62 401,301 353,301" />
<polygon points="464,272 490,276 482.72,296 467,291.68" />
<ellipse cx="584.5" cy="277.5" rx="10" ry="6" />
<rect x="686" y="272" width="12" height="20" />
<rect x="797" y="272" width="29" height="29" />
<rect x="908" y="272" width="22" height="16" />
<rect x="1019" y="272" width="15" height="25" />
<rect x="1130" y="272" width="32" height="12" />
<path d="M 1241 272 L 1280 272 L 1280 307 L 1241 307 Z M 1253.48 283.2 L 1253.48 295.8 L 1267.52 295.8 L 1267.52 283.2 Z" />
<path d="M 1352 272 L 1382 272 L 1382 314 L 1352 314 Z M 1362.2 279.56 L 1362.2 288.8 L 1375.4 288.8 L 1375.4 279.56 Z M 1362.2 297.2 L 1362.2 306.44 L 1375.4 306.44 L 1375.4 297.2 Z" />
<polygon points="1463,272 1489,272 1489,278.82 1471.84,278.82 1471.84,296.18 1489,296.18 1489,303 1463,303" />
<polygon points="1574,272 1602,276 1594.16,298 1577,293.32" />
<ellipse cx="1695.5" cy="278.5" rx="10" ry="6" />
<rect x="1796" y="272" width="14" height="22" />
<rect x="1907" y="272" width="31" height="9" />
<rect x="2018" y="272" width="24" height="18" />
<rect x="2129" y="272" width="17" height="27" />
<rect x="2240" y="272" width="10" height="14" />
<path d="M 2351 272 L 2392 272 L 2392 309 L 2351 309 Z M 2364.12 283.84 L 2364.12 297.16 L 2378.88 297.16 L 2378.88 283.84 Z" />
<path d="M 2462 272 L 2494 272 L 2494 314 L 2462 314 Z M 2472.88 279.56 L 2472.88 288.8 L 2486.96 288.8 L 2486.96 279.56 Z M 2472.88 297.2 L 2472.88 306.44 L 2486.96 306.44 L 2486.96 297.2 Z" />
<polygon points="20,356 48,356 48,363.26 29.52,363.26 29.52,381.74 48,381.74 48,389 20,389" />
<polygon points="131,356 161,360 152.6,384 134,378.96" />
<ellipse cx="253.5" cy="363.5" rx="12" ry="8" />
<rect x="353" y="356" width="16" height="24" />
<rect x="464" y="356" width="33" height="11" />
<rect x="575" y="356" width="26" height="20" />
<rect x="686" y="356" width="19" height="29" />
<rect x="797" y="356" width="12" height="16" />
<path d="M 908 356 L 951 356 L 951 395 L 908 395 Z M 921.76 368.48 L 921.76 382.52 L 937.24 382.52 L 937.24 368.48 Z" />
<path d="M 1019 356 L 1053 356 L 1053 398 L 1019 398 Z M 1030.56 363.56 L 1030.56 372.8 L 1045.52 372.8 L 1045.52 363.56 Z M 1030.56 381.2 L 1030.56 390.44 L 1045.52 390.44 L 1045.52 381.2 Z" />
<polygon points="1130,356 1160,356 1160,363.7 1140.2,363.7 1140.2,383.3 1160,383.3 1160,391 1130,391" />
<polygon points="1241,356 1273,360 1264.04,364 1244,362.56" />
<ellipse cx="1364.5" cy="364.5" rx="12" ry="8" />
<rect x="1463" y="356" width="18" height="26" />
<rect x="1574" y="356" width="11" height="13" />
<rect x="1685" y="356" width="28" height="22" />
<rect x="1796" y="356" width="21" height="9" />
<rect x="1907" y="356" width="14" height="18" />
<path d="M 2018 356 L 2063 356 L 2063 397 L 2018 397 Z M 2032.4 369.12 L 2032.4 383.88 L 2048.6 383.88 L 2048.6 369.12 Z" />
<path d="M 2129 356 L 2165 356 L 2165 398 L 2129 398 Z M 2141.24 363.56 L 2141.24 372.8 L 2157.08 372.8 L 2157.08 363.56 Z M 2141.24 381.2 L 2141.24 390.44 L 2157.08 390.44 L 2157.08 381.2 Z" />
<polygon points="2240,356 2272,356 2272,364.14 2250.88,364.14 2250.88,384.86 2272,384.86 2272,393 2240,393" />
<polygon points="2351,356 2361,360 2358.2,366 2354,364.2" />
<ellipse cx="2475.5" cy="365.5" rx="14" ry="10" />
<rect x="20" y="440" width="20" height="28" />
<rect x="131" y="440" width="13" height="15" />
<rect x="242" y="440" width="30" height="24" />
<rect x="353" y="440" width="23" height="11" />
<rect x="464" y="440" width="16" height="20" />
<path d="M 575 440 L 622 440 L 622 483 L 575 483 Z M 590.04 453.76 L 590.04 469.24 L 606.96 469.24 L 606.96 453.76 Z" />
<path d="M 686 440 L 724 440 L 724 484 L 686 484 Z M 698.92 447.92 L 698.92 457.6 L 715.64 457.6 L 715.64 447.92 Z M 698.92 466.4 L 698.92 476.08 L 715.64 476.08 L 715.64 466.4 Z" />
<polygon points="797,440 831,440 831,448.58 808.56,448.58 808.56,470.42 831,470.42 831,479 797,479" />
<polygon points="908,440 920,444 916.64,452 911,449.84" />
<ellipse cx="1033.5" cy="450.5" rx="14" ry="10" />
<rect x="1130" y="440" width="22" height="8" />
<rect x="1241" y="440" width="15" height="17" />
<rect x="1352" y="440" width="32" height="26" />
<rect x="1463" y="440" width="25" height="13" />
<rect x="1574" y="440" width="18" height="22" />
<path d="M 1685 440 L 1710 440 L 1710 463 L 1685 463 Z M 1693 447.36 L 1693 455.64 L 1702 455.64 L 1702 447.36 Z" />
<path d="M 1796 440 L 1836 440 L 1836 486 L 1796 486 Z M 1809.6 448.28 L 1809.6 458.4 L 1827.2 458.4 L 1827.2 448.28 Z M 1809.6 467.6 L 1809.6 477.72 L 1827.2 477.72 L 1827.2 467.6 Z" />
<polygon points="1907,440 1943,440 1943,449.02 1919.24,449.02 1919.24,471.98 1943,471.98 1943,481 1907,481" />
<polygon points="2018,440 2032,444 2028.08,454 2021,451.48" />
<ellipse cx="2144.5" cy="451.5" rx="16" ry="12" />
<rect x="2240" y="440" width="24" height="10" />
<rect x="2351" y="440" width="17" height="19" />
<rect x="2462" y="440" width="10" height="28" />
<rect x="20" y="524" width="27" height="15" />
<rect x="131" y="524" width="20" height="24" />
<path d="M 242 524 L 269 524 L 269 549 L 242 549 Z M 250.64 532 L 250.64 541 L 260.36 541 L 260.36 532 Z" />
<path d="M 353 524 L 395 524 L 395 572 L 353 572 Z M 367.28 532.64 L 367.28 543.2 L 385.76 543.2 L 385.76 532.64 Z M 367.28 552.8 L 367.28 563.36 L 385.76 563.36 L 385.76 552.8 Z" />
<polygon points="464,524 502,524 502,533.46 476.92,533.46 476.92,557.54 502,557.54 502,567 464,567" />
<polygon points="575,524 591,528 586.52,540 578,537.12" />
<ellipse cx="702.5" cy="536.5" rx="16" ry="12" />
<rect x="797" y="524" width="26" height="12" />
<rect x="908" y="524" width="19" height="21" />
<rect x="1019" y="524" width="12" height="8" />
<rect x="1130" y="524" width="29" height="17" />
<rect x="1241" y="524" width="22" height="26" />
<path d="M 1352 524 L 1381 524 L 1381 551 L 1352 551 Z M 1361.28 532.64 L 1361.28 542.36 L 1371.72 542.36 L 1371.72 532.64 Z" />
<path d="M 1463 524 L 1507 524 L 1507 574 L 1463 574 Z M 1477.96 533 L 1477.96 544 L 1497.32 544 L 1497.32 533 Z M 1477.96 554 L 1477.96 565 L 1497.32 565 L 1497.32 554 Z" />
<polygon points="1574,524 1614,524 1614,530.16 1587.6,530.16 1587.6,545.84 1614,545.84 1614,552 1574,552" />
<polygon points="1685,524 1703,528 1697.96,542 1688,538.76" />
<ellipse cx="1801.5" cy="537.5" rx="6" ry="14" />
<rect x="1907" y="524" width="28" height="14" />
<rect x="2018" y="524" width="21" height="23" />
<rect x="2129" y="524" width="14" height="10" />
<rect x="2240" y="524" width="31" height="19" />
<rect x="2351" y="524" width="24" height="28" />
<path d="M 2462 524 L 2493 524 L 2493 553 L 2462 553 Z M 2471.92 533.28 L 2471.92 543.72 L 2483.08 543.72 L 2483.08 533.28 Z" />
<path d="M 20 608 L 44 608 L 44 660 L 20 660 Z M 28.16 617.36 L 28.16 628.8 L 38.72 628.8 L 38.72 617.36 Z M 28.16 639.2 L 28.16 650.64 L 38.72 650.64 L 38.72 639.2 Z" />
<polygon points="131,608 173,608 173,614.16 145.28,614.16 145.28,629.84 173,629.84 173,636 131,636" />
<polygon points="242,608 262,612 256.4,628 245,624.4" />
<ellipse cx="359.5" cy="622.5" rx="6" ry="14" />
<rect x="464" y="608" width="30" height="16" />
<rect x="575" y="608" width="23" height="25" />
<rect x="686" y="608" width="16" height="12" />
<rect x="797" y="608" width="33" height="21" />
<rect x="908" y="608" width="26" height="8" />
<path d="M 1019 608 L 1052 608 L 1052 639 L 1019 639 Z M 1029.56 617.92 L 1029.56 629.08 L 1041.44 629.08 L 1041.44 617.92 Z" />
<path d="M 1130 608 L 1154 608 L 1154 662 L 1130 662 Z M 1138.16 617.72 L 1138.16 629.6 L 1148.72 629.6 L 1148.72 617.72 Z M 1138.16 640.4 L 1138.16 652.28 L 1148.72 652.28 L 1148.72 640.4 Z" />
<polygon points="1241,608 1285,608 1285,614.16 1255.96,614.16 1255.96,629.84 1285,629.84 1285,636 1241,636" />
<polygon points="1352,608 1374,612 1367.84,630 1355,626.04" />
<ellipse cx="1470.5" cy="612.5" rx="8" ry="4" />
<rect x="1574" y="608" width="32" height="18" />
<rect x="1685" y="608" width="25" height="27" />
<rect x="1796" y="608" width="18" height="14" />
<rect x="1907" y="608" width="11" height="23" />
<rect x="2018" y="608" width="28" height="10" />
<path d="M 2129 608 L 2164 608 L 2164 641 L 2129 641 Z M 2140.2 618.56 L 2140.2 630.44 L 2152.8 630.44 L 2152.8 618.56 Z" />
<path d="M 2240 608 L 2266 608 L 2266 664 L 2240 664 Z M 2248.84 618.08 L 2248.84 630.4 L 2260.28 630.4 L 2260.28 618.08 Z M 2248.84 641.6 L 2248.84 653.92 L 2260.28 653.92 L 2260.28 641.6 Z" />
<polygon points="2351,608 2397,608 2397,614.38 2366.64,614.38 2366.64,630.62 2397,630.62 2397,637 2351,637" />
<polygon points="2462,608 2486,612 2479.28,632 2465,627.68" />
<ellipse cx="28.5" cy="697.5" rx="8" ry="6" />
<rect x="131" y="692" width="10" height="20" />
<rect x="242" y="692" width="27" height="29" />
<rect x="353" y="692" width="20" height="16" />
<rect x="464" y="692" width="13" height="25" />
<rect x="575" y="692" width="30" height="12" />
<path d="M 686 692 L 723 692 L 723 727 L 686 727 Z M 697.84 703.2 L 697.84 715.8 L 711.16 715.8 L 711.16 703.2 Z" />
<path d="M 797 692 L 825 692 L 825 734 L 797 734 Z M 806.52 699.56 L 806.52 708.8 L 818.84 708.8 L 818.84 699.56 Z M 806.52 717.2 L 806.52 726.44 L 818.84 726.44 L 818.84 717.2 Z" />
<polygon points="908,692 956,692 956,698.82 924.32,698.82 924.32,716.18 956,716.18 956,723 908,723" />
<polygon points="1019,692 1045,696 1037.72,718 1022,713.32" />
<ellipse cx="1139.5" cy="698.5" rx="10" ry="6" />
<rect x="1241" y="692" width="12" height="22" />
<rect x="1352" y="692" width="29" height="9" />
<rect x="1463" y="692" width="22" height="18" />
<rect x="1574" y="692" width="15" height="27" />
<rect x="1685" y="692" width="32" height="14" />
<path d="M 1796 692 L 1835 692 L 1835 729 L 1796 729 Z M 1808.48 703.84 L 1808.48 717.16 L 1822.52 717.16 L 1822.52 703.84 Z" />
<path d="M 1907 692 L 1937 692 L 1937 734 L 1907 734 Z M 1917.2 699.56 L 1917.2 708.8 L 1930.4 708.8 L 1930.4 699.56 Z M 1917.2 717.2 L 1917.2 726.44 L 1930.4 726.44 L 1930.4 717.2 Z" />
<polygon points="2018,692 2044,692 2044,699.26 2026.84,699.26 2026.84,717.74 2044,717.74 2044,725 2018,725" />
<polygon points="2129,692 2157,696 2149.16,720 2132,714.96" />
<ellipse cx="2250.5" cy="699.5" rx="10" ry="8" />
<rect x="2351" y="692" width="14" height="24" />
<rect x="2462" y="692" width="31" height="11" />
<rect x="20" y="776" width="24" height="20" />
<rect x="131" y="776" width="17" height="29" />
<rect x="242" y="776" width="10" height="16" />
<path d="M 353 776 L 394 776 L 394 815 L 353 815 Z M 366.12 788.48 L 366.12 802.52 L 380.88 802.52 L 380.88 788.48 Z" />
<path d="M 464 776 L 496 776 L 496 818 L 464 818 Z M 474.88 783.56 L 474.88 792.8 L 488.96 792.8 L 488.96 783.56 Z M 474.88 801.2 L 474.88 810.44 L 488.96 810.44 L 488.96 801.2 Z" />
<polygon points="575,776 603,776 603,783.7 584.52,783.7 584.52,803.3 603,803.3 603,811 575,811" />
<polygon points="686,776 716,780 707.6,784 689,782.56" />
<ellipse cx="808.5" cy="784.5" rx="12" ry="8" />
<rect x="908" y="776" width="16" height="26" />
<rect x="1019" y="776" width="33" height="13" />
<rect x="1130" y="776" width="26" height="22" />
<rect x="1241" y="776" width="19" height="9" />
<rect x="1352" y="776" width="12" height="18" />
<path d="M 1463 776 L 1506 776 L 1506 817 L 1463 817 Z M 1476.76 789.12 L 1476.76 803.88 L 1492.24 803.88 L 1492.24 789.12 Z" />
<path d="M 1574 776 L 1608 776 L 1608 818 L 1574 818 Z M 1585.56 783.56 L 1585.56 792.8 L 1600.52 792.8 L 1600.52 783.56 Z M 1585.56 801.2 L 1585.56 810.44 L 1600.52 810.44 L 1600.52 801.2 Z" />
<polygon points="1685,776 1715,776 1715,784.14 1695.2,784.14 1695.2,804.86 1715,804.86 1715,813 1685,813" />
<polygon points="1796,776 1828,780 1819.04,786 1799,784.2" />
<ellipse cx="1919.5" cy="785.5" rx="12" ry="10" />
<rect x="2018" y="776" width="18" height="28" />
<rect x="2129" y="776" width="11" height="15" />
<rect x="2240" y="776" width="28" height="24" />
<rect x="2351" y="776" width="21" height="11" />
<rect x="2462" y="776" width="14" height="20" />
<path d="M 20 860 L 65 860 L 65 903 L 20 903 Z M 34.4 873.76 L 34.4 889.24 L 50.6 889.24 L 50.6 873.76 Z" />
<path d="M 131 860 L 167 860 L 167 904 L 131 904 Z M 143.24 867.92 L 143.24 877.6 L 159.08 877.6 L 159.08 867.92 Z M 143.24 886.4 L 143.24 896.08 L 159.08 896.08 L 159.08 886.4 Z" />
<polygon points="242,860 274,860 274,868.58 252.88,868.58 252.88,890.42 274,890.42 274,899 242,899" />
<polygon points="353,860 363,864 360.2,872 356,869.84" />
<ellipse cx="477.5" cy="870.5" rx="14" ry="10" />
<rect x="575" y="860" width="20" height="8" />
<rect x="686" y="860" width="13" height="17" />
<rect x="797" y="860" width="30" height="26" />
<rect x="908" y="860" width="23" height="13" />
<rect x="1019" y="860" width="16" height="22" />
<path d="M 1130 860 L 1177 860 L 1177 883 L 1130 883 Z M 1145.04 867.36 L 1145.04 875.64 L 1161.96 875.64 L 1161.96 867.36 Z" />
<path d="M 1241 860 L 1279 860 L 1279 906 L 1241 906 Z M 1253.92 868.28 L 1253.92 878.4 L 1270.64 878.4 L 1270.64 868.28 Z M 1253.92 887.6 L 1253.92 897.72 L 1270.64 897.72 L 1270.64 887.6 Z" />
<polygon points="1352,860 1386,860 1386,869.02 1363.56,869.02 1363.56,891.98 1386,891.98 1386,901 1352,901" />
<polygon points="1463,860 1475,864 1471.64,874 1466,871.48" />
<ellipse cx="1588.5" cy="871.5" rx="14" ry="12" />
<rect x="1685" y="860" width="22" height="10" />
<rect x="1796" y="860" width="15" height="19" />
<rect x="1907" y="860" width="32" height="28" />
<rect x="2018" y="860" width="25" height="15" />
<rect x="2129" y="860" width="18" height="24" />
<path d="M 2240 860 L 2265 860 L 2265 885 L 2240 885 Z M 2248 868 L 2248 877 L 2257 877 L 2257 868 Z" />
<path d="M 2351 860 L 2391 860 L 2391 908 L 2351 908 Z M 2364.6 868.64 L 2364.6 879.2 L 2382.2 879.2 L 2382.2 868.64 Z M 2364.6 888.8 L 2364.6 899.36 L 2382.2 899.36 L 2382.2 888.8 Z" />
<polygon points="2462,860 2498,860 2498,869.46 2474.24,869.46 2474.24,893.54 2498,893.54 2498,903 2462,903" />
<polygon points="20,944 34,948 30.08,960 23,957.12" />
<ellipse cx="146.5" cy="956.5" rx="16" ry="12" />
<rect x="242" y="944" width="24" height="12" />
<rect x="353" y="944" width="17" height="21" />
<rect x="464" y="944" width="10" height="8" />
<rect x="575" y="944" width="27" height="17" />
<rect x="686" y="944" width="20" height="26" />
<path d="M 797 944 L 824 944 L 824 971 L 797 971 Z M 805.64 952.64 L 805.64 962.36 L 815.36 962.36 L 815.36 952.64 Z" />
<path d="M 908 944 L 950 944 L 950 994 L 908 994 Z M 922.28 953 L 922.28 964 L 940.76 964 L 940.76 953 Z M 922.28 974 L 922.28 985 L 940.76 985 L 940.76 974 Z" />
<polygon points="1019,944 1057,944 1057,950.16 1031.92,950.16 1031.92,965.84 1057,965.84 1057,972 1019,972" />
<polygon points="1130,944 1146,948 1141.52,962 1133,958.76" />
<ellipse cx="1257.5" cy="957.5" rx="16" ry="14" />
<rect x="1352" y="944" width="26" height="14" />
<rect x="1463" y="944" width="19" height="23" />
<rect x="1574" y="944" width="12" height="10" />
<rect x="1685" y="944" width="29" height="19" />
<rect x="1796" y="944" width="22" height="28" />
<path d="M 1907 944 L 1936 944 L 1936 973 L 1907 973 Z M 1916.28 953.28 L 1916.28 963.72 L 1926.72 963.72 L 1926.72 953.28 Z" />
<path d="M 2018 944 L 2062 944 L 2062 996 L 2018 996 Z M 2032.96 953.36 L 2032.96 964.8 L 2052.32 964.8 L 2052.32 953.36 Z M 2032.96 975.2 L 2032.96 986.64 L 2052.32 986.64 L 2052.32 975.2 Z" />
<polygon points="2129,944 2169,944 2169,950.16 2142.6,950.16 2142.6,965.84 2169,965.84 2169,972 2129,972" />
<polygon points="2240,944 2258,948 2252.96,964 2243,960.4" />
<ellipse cx="2356.5" cy="958.5" rx="6" ry="14" />
<rect x="2462" y="944" width="28" height="16" />
<rect x="20" y="1028" width="21" height="25" />
<rect x="131" y="1028" width="14" height="12" />
<rect x="242" y="1028" width="31" height="21" />
<rect x="353" y="1028" width="24" height="8" />
<path d="M 464 1028 L 495 1028 L 495 1059 L 464 1059 Z M 473.92 1037.92 L 473.92 1049.08 L 485.08 1049.08 L 485.08 1037.92 Z" />
<path d="M 575 1028 L 599 1028 L 599 1082 L 575 1082 Z M 583.16 1037.72 L 583.16 1049.6 L 593.72 1049.6 L 593.72 1037.72 Z M 583.16 1060.4 L 583.16 1072.28 L 593.72 1072.28 L 593.72 1060.4 Z" />
<polygon points="686,1028 728,1028 728,1034.16 700.28,1034.16 700.28,1049.84 728,1049.84 728,1056 686,1056" />
<polygon points="797,1028 817,1032 811.4,1050 800,1046.04" />
<ellipse cx="914.5" cy="1032.5" rx="6" ry="4" />
<rect x="1019" y="1028" width="30" height="18" />
<rect x="1130" y="1028" width="23" height="27" />
<rect x="1241" y="1028" width="16" height="14" />
<rect x="1352" y="1028" width="33" height="23" />
<rect x="1463" y="1028" width="26" height="10" />
<path d="M 1574 1028 L 1607 1028 L 1607 1061 L 1574 1061 Z M 1584.56 1038.56 L 1584.56 1050.44 L 1596.44 1050.44 L 1596.44 1038.56 Z" />
<path d="M 1685 1028 L 1709 1028 L 1709 1084 L 1685 1084 Z M 1693.16 1038.08 L 1693.16 1050.4 L 1703.72 1050.4 L 1703.72 1038.08 Z M 1693.16 1061.6 L 1693.16 1073.92 L 1703.72 1073.92 L 1703.72 1061.6 Z" />
<polygon points="1796,1028 1840,1028 1840,1034.38 1810.96,1034.38 1810.96,1050.62 1840,1050.62 1840,1057 1796,1057" />
<polygon points="1907,1028 1929,1032 1922.84,1052 1910,1047.68" />
<ellipse cx="2025.5" cy="1033.5" rx="8" ry="6" />
<rect x="2129" y="1028" width="32" height="20" />
<rect x="2240" y="1028" width="25" height="29" />
<rect x="2351" y="1028" width="18" height="16" />
<rect x="2462" y="1028" width="11" height="25" />
<rect x="20" y="1112" width="28" height="12" />
<path d="M 131 1112 L 166 1112 L 166 1147 L 131 1147 Z M 142.2 1123.2 L 142.2 1135.8 L 154.8 1135.8 L 154.8 1123.2 Z" />
<path d="M 242 1112 L 268 1112 L 268 1154 L 242 1154 Z M 250.84 1119.56 L 250.84 1128.8 L 262.28 1128.8 L 262.28 1119.56 Z M 250.84 1137.2 L 250.84 1146.44 L 262.28 1146.44 L 262.28 1137.2 Z" />
<polygon points="353,1112 399,1112 399,1118.82 368.64,1118.82 368.64,1136.18 399,1136.18 399,1143 353,1143" />
<polygon points="464,1112 488,1116 481.28,1138 467,1133.32" />
<ellipse cx="583.5" cy="1118.5" rx="8" ry="6" />
<rect x="686" y="1112" width="10" height="22" />
<rect x="797" y="1112" width="27" height="9" />
<rect x="908" y="1112" width="20" height="18" />
<rect x="1019" y="1112" width="13" height="27" />
<rect x="1130" y="1112" width="30" height="14" />
<path d="M 1241 1112 L 1278 1112 L 1278 1149 L 1241 1149 Z M 1252.84 1123.84 L 1252.84 1137.16 L 1266.16 1137.16 L 1266.16 1123.84 Z" />
<path d="M 1352 1112 L 1380 1112 L 1380 1154 L 1352 1154 Z M 1361.52 1119.56 L 1361.52 1128.8 L 1373.84 1128.8 L 1373.84 1119.56 Z M 1361.52 1137.2 L 1361.52 1146.44 L 1373.84 1146.44 L 1373.84 1137.2 Z" />
<polygon points="1463,1112 1511,1112 1511,1119.26 1479.32,1119.26 1479.32,1137.74 1511,1137.74 1511,1145 1463,1145" />
<polygon points="1574,1112 1600,1116 1592.72,1140 1577,1134.96" />
<ellipse cx="1694.5" cy="1119.5" rx="10" ry="8" />
<rect x="1796" y="1112" width="12" height="24" />
<rect x="1907" y="1112" width="29" height="11" />
<rect x="2018" y="1112" width="22" height="20" />
<rect x="2129" y="1112" width="15" height="29" />
<rect x="2240" y="1112" width="32" height="16" />
<path d="M 2351 1112 L 2390 1112 L 2390 1151 L 2351 1151 Z M 2363.48 1124.48 L 2363.48 1138.52 L 2377.52 1138.52 L 2377.52 1124.48 Z" />
<path d="M 2462 1112 L 2492 1112 L 2492 1154 L 2462 1154 Z M 2472.2 1119.56 L 2472.2 1128.8 L 2485.4 1128.8 L 2485.4 1119.56 Z M 2472.2 1137.2 L 2472.2 1146.44 L 2485.4 1146.44 L 2485.4 1137.2 Z" />
<polygon points="20,1196 46,1196 46,1203.7 28.84,1203.7 28.84,1223.3 46,1223.3 46,1231 20,1231" />
<polygon points="131,1196 159,1200 151.16,1204 134,1202.56" />
<ellipse cx="252.5" cy="1204.5" rx="10" ry="8" />
<rect x="353" y="1196" width="14" height="26" />
<rect x="464" y="1196" width="31" height="13" />
<rect x="575" y="1196" width="24" height="22" />
<rect x="686" y="1196" width="17" height="9" />
<rect x="797" y="1196" width="10" height="18" />
<path d="M 908 1196 L 949 1196 L 949 1237 L 908 1237 Z M 921.12 1209.12 L 921.12 1223.88 L 935.88 1223.88 L 935.88 1209.12 Z" />
<path d="M 1019 1196 L 1051 1196 L 1051 1238 L 1019 1238 Z M 1029.88 1203.56 L 1029.88 1212.8 L 1043.96 1212.8 L 1043.96 1203.56 Z M 1029.88 1221.2 L 1029.88 1230.44 L 1043.96 1230.44 L 1043.96 1221.2 Z" />
<polygon points="1130,1196 1158,1196 1158,1204.14 1139.52,1204.14 1139.52,1224.86 1158,1224.86 1158,1233 1130,1233" />
<polygon points="1241,1196 1271,1200 1262.6,1206 1244,1204.2" />
<ellipse cx="1363.5" cy="1205.5" rx="12" ry="10" />
<rect x="1463" y="1196" width="16" height="28" />
<rect x="1574" y="1196" width="33" height="15" />
<rect x="1685" y="1196" width="26" height="24" />
<rect x="1796" y="1196" width="19" height="11" />
<rect x="1907" y="1196" width="12" height="20" />
<path d="M 2018 1196 L 2061 1196 L 2061 1239 L 2018 1239 Z M 2031.76 1209.76 L 2031.76 1225.24 L 2047.24 1225.24 L 2047.24 1209.76 Z" />
<path d="M 2129 1196 L 2163 1196 L 2163 1240 L 2129 1240 Z M 2140.56 1203.92 L 2140.56 1213.6 L 2155.52 1213.6 L 2155.52 1203.92 Z M 2140.56 1222.4 L 2140.56 1232.08 L 2155.52 1232.08 L 2155.52 1222.4 Z" />
<polygon points="2240,1196 2270,1196 2270,1204.58 2250.2,1204.58 2250.2,1226.42 2270,1226.42 2270,1235 2240,1235" />
<polygon points="2351,1196 2383,1200 2374.04,1208 2354,1205.84" />
<ellipse cx="2474.5" cy="1206.5" rx="12" ry="10" />
<rect x="20" y="1280" width="18" height="8" />
<rect x="131" y="1280" width="11" height="17" />
<rect x="242" y="1280" width="28" height="26" />
<rect x="353" y="1280" width="21" height="13" />
<rect x="464" y="1280" width="14" height="22" />
<path d="M 575 1280 L 620 1280 L 620 1303 L 575 1303 Z M 589.4 1287.36 L 589.4 1295.64 L 605.6 1295.64 L 605.6 1287.36 Z" />
<path d="M 686 1280 L 722 1280 L 722 1326 L 686 1326 Z M 698.24 1288.28 L 698.24 1298.4 L 714.08 1298.4 L 714.08 1288.28 Z M 698.24 1307.6 L 698.24 1317.72 L 714.08 1317.72 L 714.08 1307.6 Z" />
<polygon points="797,1280 829,1280 829,1289.02 807.88,1289.02 807.88,1311.98 829,1311.98 829,1321 797,1321" />
<polygon points="908,1280 918,1284 915.2,1294 911,1291.48" />
<ellipse cx="1032.5" cy="1291.5" rx="14" ry="12" />
<rect x="1130" y="1280" width="20" height="10" />
<rect x="1241" y="1280" width="13" height="19" />
<rect x="1352" y="1280" width="30" height="28" />
<rect x="1463" y="1280" width="23" height="15" />
<rect x="1574" y="1280" width="16" height="24" />
<path d="M 1685 1280 L 1732 1280 L 1732 1305 L 1685 1305 Z M 1700.04 1288 L 1700.04 1297 L 1716.96 1297 L 1716.96 1288 Z" />
<path d="M 1796 1280 L 1834 1280 L 1834 1328 L 1796 1328 Z M 1808.92 1288.64 L 1808.92 1299.2 L 1825.64 1299.2 L 1825.64 1288.64 Z M 1808.92 1308.8 L 1808.92 1319.36 L 1825.64 1319.36 L 1825.64 1308.8 Z" />
<polygon points="1907,1280 1941,1280 1941,1289.46 1918.56,1289.46 1918.56,1313.54 1941,1313.54 1941,1323 1907,1323" />
<polygon points="2018,1280 2030,1284 2026.64,1296 2021,1293.12" />
<ellipse cx="2143.5" cy="1292.5" rx="14" ry="12" />
<rect x="2240" y="1280" width="22" height="12" />
<rect x="2351" y="1280" width="15" height="21" />
<rect x="2462" y="1280" width="32" height="8" />
<rect x="20" y="1364" width="25" height="17" />
<rect x="131" y="1364" width="18" height="26" />
<path d="M 242 1364 L 267 1364 L 267 1391 L 242 1391 Z M 250 1372.64 L 250 1382.36 L 259 1382.36 L 259 1372.64 Z" />
<path d="M 353 1364 L 393 1364 L 393 1414 L 353 1414 Z M 366.6 1373 L 366.6 1384 L 384.2 1384 L 384.2 1373 Z M 366.6 1394 L 366.6 1405 L 384.2 1405 L 384.2 1394 Z" />
<polygon points="464,1364 500,1364 500,1370.16 476.24,1370.16 476.24,1385.84 500,1385.84 500,1392 464,1392" />
<polygon points="575,1364 589,1368 585.08,1382 578,1378.76" />
<ellipse cx="701.5" cy="1377.5" rx="16" ry="14" />
<rect x="797" y="1364" width="24" height="14" />
<rect x="908" y="1364" width="17" height="23" />
<rect x="1019" y="1364" width="10" height="10" />
<rect x="1130" y="1364" width="27" height="19" />
<rect x="1241" y="1364" width="20" height="28" />
<path d="M 1352 1364 L 1379 1364 L 1379 1393 L 1352 1393 Z M 1360.64 1373.28 L 1360.64 1383.72 L 1370.36 1383.72 L 1370.36 1373.28 Z" />
<path d="M 1463 1364 L 1505 1364 L 1505 1416 L 1463 1416 Z M 1477.28 1373.36 L 1477.28 1384.8 L 1495.76 1384.8 L 1495.76 1373.36 Z M 1477.28 1395.2 L 1477.28 1406.64 L 1495.76 1406.64 L 1495.76 1395.2 Z" />
<polygon points="1574,1364 1612,1364 1612,1370.16 1586.92,1370.16 1586.92,1385.84 1612,1385.84 1612,1392 1574,1392" />
<polygon points="1685,1364 1701,1368 1696.52,1384 1688,1380.4" />
<ellipse cx="1812.5" cy="1378.5" rx="16" ry="14" />
<rect x="1907" y="1364" width="26" height="16" />
<rect x="2018" y="1364" width="19" height="25" />
<rect x="2129" y="1364" width="12" height="12" />
<rect x="2240" y="1364" width="29" height="21" />
<rect x="2351" y="1364" width="22" height="8" />
<path d="M 2462 1364 L 2491 1364 L 2491 1395 L 2462 1395 Z M 2471.28 1373.92 L 2471.28 1385.08 L 2481.72 1385.08 L 2481.72 1373.92 Z" />
<path d="M 20 1448 L 64 1448 L 64 1502 L 20 1502 Z M 34.96 1457.72 L 34.96 1469.6 L 54.32 1469.6 L 54.32 1457.72 Z M 34.96 1480.4 L 34.96 1492.28 L 54.32 1492.28 L 54.32 1480.4 Z" />
<polygon points="131,1448 171,1448 171,1454.16 144.6,1454.16 144.6,1469.84 171,1469.84 171,1476 131,1476" />
<polygon points="242,1448 260,1452 254.96,1470 245,1466.04" />
<ellipse cx="358.5" cy="1452.5" rx="6" ry="4" />
<rect x="464" y="1448" width="28" height="18" />
<rect x="575" y="1448" width="21" height="27" />
<rect x="686" y="1448" width="14" height="14" />
<rect x="797" y="1448" width="31" height="23" />
<rect x="908" y="1448" width="24" height="10" />
<path d="M 1019 1448 L 1050 1448 L 1050 1481 L 1019 1481 Z M 1028.92 1458.56 L 1028.92 1470.44 L 1040.08 1470.44 L 1040.08 1458.56 Z" />
<path d="M 1130 1448 L 1154 1448 L 1154 1504 L 1130 1504 Z M 1138.16 1458.08 L 1138.16 1470.4 L 1148.72 1470.4 L 1148.72 1458.08 Z M 1138.16 1481.6 L 1138.16 1493.92 L 1148.72 1493.92 L 1148.72 1481.6 Z" />
<polygon points="1241,1448 1283,1448 1283,1454.38 1255.28,1454.38 1255.28,1470.62 1283,1470.62 1283,1477 1241,1477" />
<polygon points="1352,1448 1372,1452 1366.4,1472 1355,1467.68" />
<ellipse cx="1469.5" cy="1453.5" rx="6" ry="6" />
<rect x="1574" y="1448" width="30" height="20" />
<rect x="1685" y="1448" width="23" height="29" />
<rect x="1796" y="1448" width="16" height="16" />
<rect x="1907" y="1448" width="33" height="25" />
<rect x="2018" y="1448" width="26" height="12" />
<path d="M 2129 1448 L 2162 1448 L 2162 1483 L 2129 1483 Z M 2139.56 1459.2 L 2139.56 1471.8 L 2151.44 1471.8 L 2151.44 1459.2 Z" />
<path d="M 2240 1448 L 2264 1448 L 2264 1490 L 2240 1490 Z M 2248.16 1455.56 L 2248.16 1464.8 L 2258.72 1464.8 L 2258.72 1455.56 Z M 2248.16 1473.2 L 2248.16 1482.44 L 2258.72 1482.44 L 2258.72 1473.2 Z" />
<polygon points="2351,1448 2395,1448 2395,1454.82 2365.96,1454.82 2365.96,1472.18 2395,1472.18 2395,1479 2351,1479" />
<polygon points="2462,1448 2484,1452 2477.84,1474 2465,1469.32" />
<ellipse cx="27.5" cy="1538.5" rx="8" ry="6" />
<rect x="131" y="1532" width="32" height="22" />
<rect x="242" y="1532" width="25" height="9" />
<rect x="353" y="1532" width="18" height="18" />
<rect x="464" y="1532" width="11" height="27" />
<rect x="575" y="1532" width="28" height="14" />
<path d="M 686 1532 L 721 1532 L 721 1569 L 686 1569 Z M 697.2 1543.84 L 697.2 1557.16 L 709.8 1557.16 L 709.8 1543.84 Z" />
<path d="M 797 1532 L 823 1532 L 823 1574 L 797 1574 Z M 805.84 1539.56 L 805.84 1548.8 L 817.28 1548.8 L 817.28 1539.56 Z M 805.84 1557.2 L 805.84 1566.44 L 817.28 1566.44 L 817.28 1557.2 Z" />
<polygon points="908,1532 954,1532 954,1539.26 923.64,1539.26 923.64,1557.74 954,1557.74 954,1565 908,1565" />
<polygon points="1019,1532 1043,1536 1036.28,1560 1022,1554.96" />
<ellipse cx="1138.5" cy="1539.5" rx="8" ry="8" />
<rect x="1241" y="1532" width="10" height="24" />
<rect x="1352" y="1532" width="27" height="11" />
<rect x="1463" y="1532" width="20" height="20" />
<rect x="1574" y="1532" width="13" height="29" />
<rect x="1685" y="1532" width="30" height="16" />
<path d="M 1796 1532 L 1833 1532 L 1833 1571 L 1796 1571 Z M 1807.84 1544.48 L 1807.84 1558.52 L 1821.16 1558.52 L 1821.16 1544.48 Z" />
<path d="M 1907 1532 L 1935 1532 L 1935 1574 L 1907 1574 Z M 1916.52 1539.56 L 1916.52 1548.8 L 1928.84 1548.8 L 1928.84 1539.56 Z M 1916.52 1557.2 L 1916.52 1566.44 L 1928.84 1566.44 L 1928.84 1557.2 Z" />
<polygon points="2018,1532 2066,1532 2066,1539.7 2034.32,1539.7 2034.32,1559.3 2066,1559.3 2066,1567 2018,1567" />
<polygon points="2129,1532 2155,1536 2147.72,1540 2132,1538.56" />
<ellipse cx="2249.5" cy="1540.5" rx="10" ry="8" />
<rect x="2351" y="1532" width="12" height="26" />
<rect x="2462" y="1532" width="29" height="13" />
<rect x="20" y="1616" width="22" height="22" />
<rect x="131" y="1616" width="15" height="9" />
<rect x="242" y="1616" width="32" height="18" />
<path d="M 353 1616 L 392 1616 L 392 1657 L 353 1657 Z M 365.48 1629.12 L 365.48 1643.88 L 379.52 1643.88 L 379.52 1629.12 Z" />
<path d="M 464 1616 L 494 1616 L 494 1658 L 464 1658 Z M 474.2 1623.56 L 474.2 1632.8 L 487.4 1632.8 L 487.4 1623.56 Z M 474.2 1641.2 L 474.2 1650.44 L 487.4 1650.44 L 487.4 1641.2 Z" />
<polygon points="575,1616 601,1616 601,1624.14 583.84,1624.14 583.84,1644.86 601,1644.86 601,1653 575,1653" />
<polygon points="686,1616 714,1620 706.16,1626 689,1624.2" />
<ellipse cx="807.5" cy="1625.5" rx="10" ry="10" />
<rect x="908" y="1616" width="14" height="28" />
<rect x="1019" y="1616" width="31" height="15" />
<rect x="1130" y="1616" width="24" height="24" />
<rect x="1241" y="1616" width="17" height="11" />
<rect x="1352" y="1616" width="10" height="20" />
<path d="M 1463 1616 L 1504 1616 L 1504 1659 L 1463 1659 Z M 1476.12 1629.76 L 1476.12 1645.24 L 1490.88 1645.24 L 1490.88 1629.76 Z" />
<path d="M 1574 1616 L 1606 1616 L 1606 1660 L 1574 1660 Z M 1584.88 1623.92 L 1584.88 1633.6 L 1598.96 1633.6 L 1598.96 1623.92 Z M 1584.88 1642.4 L 1584.88 1652.08 L 1598.96 1652.08 L 1598.96 1642.4 Z" />
<polygon points="1685,1616 1713,1616 1713,1624.58 1694.52,1624.58 1694.52,1646.42 1713,1646.42 1713,1655 1685,1655" />
<polygon points="1796,1616 1826,1620 1817.6,1628 1799,1625.84" />
<ellipse cx="1918.5" cy="1626.5" rx="12" ry="10" />
<rect x="2018" y="1616" width="16" height="8" />
<rect x="2129" y="1616" width="33" height="17" />
<rect x="2240" y="1616" width="26" height="26" />
<rect x="2351" y="1616" width="19" height="13" />
<rect x="2462" y="1616" width="12" height="22" />
<path d="M 20 1700 L 63 1700 L 63 1723 L 20 1723 Z M 33.76 1707.36 L 33.76 1715.64 L 49.24 1715.64 L 49.24 1707.36 Z" />
<path d="M 131 1700 L 165 1700 L 165 1746 L 131 1746 Z M 142.56 1708.28 L 142.56 1718.4 L 157.52 1718.4 L 157.52 1708.28 Z M 142.56 1727.6 L 142.56 1737.72 L 157.52 1737.72 L 157.52 1727.6 Z" />
<polygon points="242,1700 272,1700 272,1709.02 252.2,1709.02 252.2,1731.98 272,1731.98 272,1741 242,1741" />
<polygon points="353,1700 385,1704 376.04,1714 356,1711.48" />
<ellipse cx="476.5" cy="1711.5" rx="12" ry="12" />
<rect x="575" y="1700" width="18" height="10" />
<rect x="686" y="1700" width="11" height="19" />
<rect x="797" y="1700" width="28" height="28" />
<rect x="908" y="1700" width="21" height="15" />
<rect x="1019" y="1700" width="14" height="24" />
<path d="M 1130 1700 L 1175 1700 L 1175 1725 L 1130 1725 Z M 1144.4 1708 L 1144.4 1717 L 1160.6 1717 L 1160.6 1708 Z" />
<path d="M 1241 1700 L 1277 1700 L 1277 1748 L 1241 1748 Z M 1253.24 1708.64 L 1253.24 1719.2 L 1269.08 1719.2 L 1269.08 1708.64 Z M 1253.24 1728.8 L 1253.24 1739.36 L 1269.08 1739.36 L 1269.08 1728.8 Z" />
<polygon points="1352,1700 1384,1700 1384,1709.46 1362.88,1709.46 1362.88,1733.54 1384,1733.54 1384,1743 1352,1743" />
<polygon points="1463,1700 1473,1704 1470.2,1716 1466,1713.12" />
<ellipse cx="1587.5" cy="1712.5" rx="14" ry="12" />
<rect x="1685" y="1700" width="20" height="12" />
<rect x="1796" y="1700" width="13" height="21" />
<rect x="1907" y="1700" width="30" height="8" />
<rect x="2018" y="1700" width="23" height="17" />
<rect x="2129" y="1700" width="16" height="26" />
<path d="M 2240 1700 L 2287 1700 L 2287 1727 L 2240 1727 Z M 2255.04 1708.64 L 2255.04 1718.36 L 2271.96 1718.36 L 2271.96 1708.64 Z" />
<path d="M 2351 1700 L 2389 1700 L 2389 1750 L 2351 1750 Z M 2363.92 1709 L 2363.92 1720 L 2380.64 1720 L 2380.64 1709 Z M 2363.92 1730 L 2363.92 1741 L 2380.64 1741 L 2380.64 1730 Z" />
<polygon points="2462,1700 2496,1700 2496,1706.16 2473.56,1706.16 2473.56,1721.84 2496,1721.84 2496,1728 2462,1728" />
<polygon points="20,1784 32,1788 28.64,1802 23,1798.76" />
<ellipse cx="145.5" cy="1797.5" rx="14" ry="14" />
<rect x="242" y="1784" width="22" height="14" />
<rect x="353" y="1784" width="15" height="23" />
<rect x="464" y="1784" width="32" height="10" />
<rect x="575" y="1784" width="25" height="19" />
<rect x="686" y="1784" width="18" height="28" />
<path d="M 797 1784 L 822 1784 L 822 1813 L 797 1813 Z M 805 1793.28 L 805 1803.72 L 814 1803.72 L 814 1793.28 Z" />
<path d="M 908 1784 L 948 1784 L 948 1836 L 908 1836 Z M 921.6 1793.36 L 921.6 1804.8 L 939.2 1804.8 L 939.2 1793.36 Z M 921.6 1815.2 L 921.6 1826.64 L 939.2 1826.64 L 939.2 1815.2 Z" />
<polygon points="1019,1784 1055,1784 1055,1790.16 1031.24,1790.16 1031.24,1805.84 1055,1805.84 1055,1812 1019,1812" />
<polygon points="1130,1784 1144,1788 1140.08,1804 1133,1800.4" />
<ellipse cx="1256.5" cy="1798.5" rx="16" ry="14" />
<rect x="1352" y="1784" width="24" height="16" />
<rect x="1463" y="1784" width="17" height="25" />
<rect x="1574" y="1784" width="10" height="12" />
<rect x="1685" y="1784" width="27" height="21" />
<rect x="1796" y="1784" width="20" height="8" />
</g>
</svg>

