<svg xmlns="http://www.w3.org/2000/svg" width="650" height="330" viewBox="0 0 650 330">
<g fill="none" stroke="black" stroke-width="1">
<rect x="20" y="20" width="66" height="12" transform="rotate(12 53 26)" />
<rect x="108" y="20" width="66" height="12" transform="rotate(19 141 26)" />
<rect x="196" y="20" width="66" height="12" transform="rotate(26 229 26)" />
<rect x="284" y="20" width="66" height="12" transform="rotate(33 317 26)" />
<rect x="372" y="20" width="66" height="12" transform="rotate(40 405 26)" />
<rect x="460" y="20" width="66" height="12" transform="rotate(18 493 26)" />
<rect x="20" y="78" width="66" height="12" transform="rotate(25 53 84)" />
<rect x="108" y="78" width="66" height="12" transform="rotate(32 141 84)" />
<rect x="196" y="78" width="66" height="12" transform="rotate(39 229 84)" />
<rect x="284" y="78" width="66" height="12" transform="rotate(17 317 84)" />
<rect x="372" y="78" width="66" height="12" transform="rotate(24 405 84)" />
<rect x="460" y="78" width="66" height="12" transform="rotate(31 493 84)" />
<rect x="20" y="136" width="66" height="12" transform="rotate(38 53 142)" />
<rect x="108" y="136" width="66" height="12" transform="rotate(16 141 142)" />
<rect x="196" y="136" width="66" height="12" transform="rotate(23 229 142)" />
<rect x="284" y="136" width="66" height="12" transform="rotate(30 317 142)" />
<rect x="372" y="136" width="66" height="12" transform="rotate(37 405 142)" />
<rect x="460" y="136" width="66" height="12" transform="rotate(15 493 142)" />
<rect x="20" y="194" width="66" height="12" transform="rotate(22 53 200)" />
<rect x="108" y="194" width="66" height="12" transform="rotate(29 141 200)" />
<rect x="196" y="194" width="66" height="12" transform="rotate(36 229 200)" />
<rect x="284" y="194" width="66" height="12" transform="rotate(14 317 200)" />
<rect x="372" y="194" width="66" height="12" transform="rotate(21 405 200)" />
<rect x="460" y="194" width="66" height="12" transform="rotate(28 493 200)" />
<rect x="20" y="252" width="66" height="12" transform="rotate(35 53 258)" />
<rect x="108" y="252" width="66" height="12" transform="rotate(13 141 258)" />
</g>
</svg>

